G75*
G70*
%OFA0B0*%
%FSLAX24Y24*%
%IPPOS*%
%LPD*%
%AMOC8*
5,1,8,0,0,1.08239X$1,22.5*
%
%ADD10C,0.0000*%
%ADD11C,0.0030*%
D10*
X005559Y006150D02*
X005559Y037646D01*
X025244Y037646D01*
X025244Y006150D01*
X014024Y006150D01*
X014024Y006819D01*
X010382Y006819D01*
X010382Y006150D01*
X005559Y006150D01*
D11*
X013148Y016691D02*
X013344Y016691D01*
X013246Y016691D02*
X013246Y016984D01*
X013344Y016886D01*
X013446Y016886D02*
X013446Y016935D01*
X013494Y016984D01*
X013592Y016984D01*
X013641Y016935D01*
X013743Y016935D02*
X013792Y016984D01*
X013889Y016984D01*
X013938Y016935D01*
X013938Y016739D01*
X013889Y016691D01*
X013792Y016691D01*
X013743Y016739D01*
X013641Y016691D02*
X013446Y016886D01*
X013446Y016691D02*
X013641Y016691D01*
X013067Y018683D02*
X012969Y018683D01*
X012920Y018732D01*
X012818Y018683D02*
X012623Y018683D01*
X012720Y018683D02*
X012720Y018976D01*
X012818Y018878D01*
X012920Y018927D02*
X012969Y018976D01*
X013067Y018976D01*
X013115Y018927D01*
X013115Y018732D01*
X013067Y018683D01*
X012521Y018732D02*
X012325Y018927D01*
X012325Y018732D01*
X012374Y018683D01*
X012472Y018683D01*
X012521Y018732D01*
X012521Y018927D01*
X012472Y018976D01*
X012374Y018976D01*
X012325Y018927D01*
X012689Y020454D02*
X012640Y020503D01*
X012640Y020552D01*
X012689Y020601D01*
X012787Y020601D01*
X012836Y020650D01*
X012836Y020699D01*
X012787Y020747D01*
X012689Y020747D01*
X012640Y020699D01*
X012640Y020650D01*
X012689Y020601D01*
X012787Y020601D02*
X012836Y020552D01*
X012836Y020503D01*
X012787Y020454D01*
X012689Y020454D01*
X012938Y020503D02*
X012987Y020454D01*
X013084Y020454D01*
X013133Y020503D01*
X013133Y020699D01*
X013084Y020747D01*
X012987Y020747D01*
X012938Y020699D01*
X012925Y021439D02*
X012925Y021732D01*
X013072Y021585D01*
X012877Y021585D01*
X013174Y021487D02*
X013223Y021439D01*
X013320Y021439D01*
X013369Y021487D01*
X013369Y021683D01*
X013320Y021732D01*
X013223Y021732D01*
X013174Y021683D01*
X012931Y023049D02*
X012833Y023049D01*
X012784Y023098D01*
X012682Y023049D02*
X012487Y023049D01*
X012385Y023049D02*
X012190Y023244D01*
X012190Y023293D01*
X012238Y023342D01*
X012336Y023342D01*
X012385Y023293D01*
X012487Y023293D02*
X012536Y023342D01*
X012633Y023342D01*
X012682Y023293D01*
X012784Y023293D02*
X012833Y023342D01*
X012931Y023342D01*
X012979Y023293D01*
X012979Y023098D01*
X012931Y023049D01*
X012682Y023049D02*
X012487Y023244D01*
X012487Y023293D01*
X012385Y023049D02*
X012190Y023049D01*
X012673Y023541D02*
X012625Y023590D01*
X012625Y023639D01*
X012673Y023688D01*
X012722Y023688D01*
X012673Y023688D02*
X012625Y023736D01*
X012625Y023785D01*
X012673Y023834D01*
X012771Y023834D01*
X012820Y023785D01*
X012922Y023785D02*
X012971Y023834D01*
X013068Y023834D01*
X013117Y023785D01*
X013117Y023590D01*
X013068Y023541D01*
X012971Y023541D01*
X012922Y023590D01*
X012820Y023590D02*
X012771Y023541D01*
X012673Y023541D01*
X010810Y022077D02*
X010810Y021881D01*
X010761Y021832D01*
X010664Y021832D01*
X010615Y021881D01*
X010513Y021881D02*
X010464Y021832D01*
X010366Y021832D01*
X010318Y021881D01*
X010318Y021930D01*
X010366Y021979D01*
X010513Y021979D01*
X010513Y021881D01*
X010513Y021979D02*
X010415Y022077D01*
X010318Y022125D01*
X010615Y022077D02*
X010664Y022125D01*
X010761Y022125D01*
X010810Y022077D01*
X010784Y021240D02*
X010735Y021191D01*
X010784Y021240D02*
X010881Y021240D01*
X010930Y021191D01*
X010930Y020995D01*
X010881Y020946D01*
X010784Y020946D01*
X010735Y020995D01*
X010633Y020946D02*
X010438Y020946D01*
X010535Y020946D02*
X010535Y021240D01*
X010633Y021142D01*
X010336Y021191D02*
X010287Y021240D01*
X010189Y021240D01*
X010140Y021191D01*
X010140Y021142D01*
X010336Y020946D01*
X010140Y020946D01*
X009899Y019936D02*
X009948Y019888D01*
X009948Y019692D01*
X009899Y019643D01*
X009801Y019643D01*
X009753Y019692D01*
X009651Y019643D02*
X009455Y019643D01*
X009553Y019643D02*
X009553Y019936D01*
X009651Y019839D01*
X009753Y019888D02*
X009801Y019936D01*
X009899Y019936D01*
X009353Y019839D02*
X009256Y019936D01*
X009256Y019643D01*
X009353Y019643D02*
X009158Y019643D01*
X009168Y021695D02*
X009119Y021743D01*
X009168Y021695D02*
X009265Y021695D01*
X009314Y021743D01*
X009314Y021939D01*
X009265Y021988D01*
X009168Y021988D01*
X009119Y021939D01*
X009017Y021988D02*
X009017Y021841D01*
X008919Y021890D01*
X008870Y021890D01*
X008822Y021841D01*
X008822Y021743D01*
X008870Y021695D01*
X008968Y021695D01*
X009017Y021743D01*
X009017Y021988D02*
X008822Y021988D01*
X009883Y023407D02*
X009883Y023456D01*
X009688Y023651D01*
X009688Y023700D01*
X009883Y023700D01*
X009985Y023651D02*
X010034Y023700D01*
X010131Y023700D01*
X010180Y023651D01*
X010180Y023456D01*
X010131Y023407D01*
X010034Y023407D01*
X009985Y023456D01*
X011746Y028758D02*
X011844Y028758D01*
X011893Y028806D01*
X011995Y028758D02*
X012190Y028758D01*
X012092Y028758D02*
X012092Y029051D01*
X012190Y028953D01*
X012292Y029002D02*
X012341Y029051D01*
X012439Y029051D01*
X012487Y029002D01*
X012487Y028806D01*
X012439Y028758D01*
X012341Y028758D01*
X012292Y028806D01*
X011893Y029002D02*
X011844Y029051D01*
X011746Y029051D01*
X011697Y029002D01*
X011697Y028953D01*
X011746Y028904D01*
X011697Y028855D01*
X011697Y028806D01*
X011746Y028758D01*
X011746Y028904D02*
X011795Y028904D01*
X011789Y030112D02*
X011593Y030307D01*
X011593Y030356D01*
X011642Y030405D01*
X011740Y030405D01*
X011789Y030356D01*
X011890Y030356D02*
X011890Y030258D01*
X011939Y030210D01*
X012086Y030210D01*
X011988Y030210D02*
X011890Y030112D01*
X011789Y030112D02*
X011593Y030112D01*
X011890Y030356D02*
X011939Y030405D01*
X012086Y030405D01*
X012086Y030112D01*
X013418Y029015D02*
X013418Y028722D01*
X013369Y028869D02*
X013564Y028869D01*
X013418Y029015D01*
X013666Y028722D02*
X013861Y028722D01*
X013764Y028722D02*
X013764Y029015D01*
X013861Y028917D01*
X013963Y028966D02*
X014012Y029015D01*
X014110Y029015D01*
X014159Y028966D01*
X014159Y028771D01*
X014110Y028722D01*
X014012Y028722D01*
X013963Y028771D01*
X013963Y030135D02*
X014159Y030135D01*
X014061Y030135D02*
X014061Y030429D01*
X014159Y030331D01*
X014260Y030380D02*
X014260Y030282D01*
X014309Y030233D01*
X014456Y030233D01*
X014456Y030135D02*
X014456Y030429D01*
X014309Y030429D01*
X014260Y030380D01*
X014358Y030233D02*
X014260Y030135D01*
X014303Y019960D02*
X014401Y019960D01*
X014450Y019911D01*
X014450Y019862D01*
X014401Y019814D01*
X014255Y019814D01*
X014255Y019911D02*
X014303Y019960D01*
X014255Y019911D02*
X014255Y019716D01*
X014303Y019667D01*
X014401Y019667D01*
X014450Y019716D01*
X014552Y019716D02*
X014601Y019667D01*
X014698Y019667D01*
X014747Y019716D01*
X014747Y019911D01*
X014698Y019960D01*
X014601Y019960D01*
X014552Y019911D01*
X020977Y019643D02*
X020977Y019448D01*
X021026Y019399D01*
X021124Y019399D01*
X021172Y019448D01*
X021124Y019546D02*
X020977Y019546D01*
X020977Y019643D02*
X021026Y019692D01*
X021124Y019692D01*
X021172Y019643D01*
X021172Y019595D01*
X021124Y019546D01*
X021274Y019595D02*
X021274Y019643D01*
X021323Y019692D01*
X021421Y019692D01*
X021470Y019643D01*
X021571Y019643D02*
X021620Y019692D01*
X021718Y019692D01*
X021767Y019643D01*
X021767Y019448D01*
X021718Y019399D01*
X021620Y019399D01*
X021571Y019448D01*
X021470Y019399D02*
X021274Y019595D01*
X021274Y019399D02*
X021470Y019399D01*
X021393Y018913D02*
X021296Y018913D01*
X021247Y018864D01*
X021247Y018815D01*
X021296Y018766D01*
X021247Y018717D01*
X021247Y018669D01*
X021296Y018620D01*
X021393Y018620D01*
X021442Y018669D01*
X021544Y018669D02*
X021593Y018620D01*
X021690Y018620D01*
X021739Y018669D01*
X021739Y018864D01*
X021690Y018913D01*
X021593Y018913D01*
X021544Y018864D01*
X021442Y018864D02*
X021393Y018913D01*
X021344Y018766D02*
X021296Y018766D01*
X021145Y018669D02*
X021145Y018864D01*
X021096Y018913D01*
X020998Y018913D01*
X020949Y018864D01*
X021145Y018669D01*
X021096Y018620D01*
X020998Y018620D01*
X020949Y018669D01*
X020949Y018864D01*
X021427Y026395D02*
X021525Y026395D01*
X021574Y026444D01*
X021379Y026640D01*
X021379Y026444D01*
X021427Y026395D01*
X021574Y026444D02*
X021574Y026640D01*
X021525Y026688D01*
X021427Y026688D01*
X021379Y026640D01*
X021676Y026542D02*
X021871Y026542D01*
X021725Y026688D01*
X021725Y026395D01*
X021973Y026444D02*
X022022Y026395D01*
X022120Y026395D01*
X022168Y026444D01*
X022168Y026640D01*
X022120Y026688D01*
X022022Y026688D01*
X021973Y026640D01*
X022242Y027569D02*
X022340Y027569D01*
X022389Y027617D01*
X022389Y027666D01*
X022340Y027715D01*
X022242Y027715D01*
X022194Y027666D01*
X022194Y027617D01*
X022242Y027569D01*
X022242Y027715D02*
X022194Y027764D01*
X022194Y027813D01*
X022242Y027862D01*
X022340Y027862D01*
X022389Y027813D01*
X022389Y027764D01*
X022340Y027715D01*
X022491Y027666D02*
X022491Y027617D01*
X022540Y027569D01*
X022637Y027569D01*
X022686Y027617D01*
X022788Y027617D02*
X022837Y027569D01*
X022935Y027569D01*
X022983Y027617D01*
X022983Y027813D01*
X022935Y027862D01*
X022837Y027862D01*
X022788Y027813D01*
X022686Y027813D02*
X022637Y027862D01*
X022540Y027862D01*
X022491Y027813D01*
X022491Y027764D01*
X022540Y027715D01*
X022491Y027666D01*
X022540Y027715D02*
X022588Y027715D01*
X022051Y028742D02*
X021953Y028742D01*
X021904Y028791D01*
X021802Y028791D02*
X021754Y028742D01*
X021656Y028742D01*
X021607Y028791D01*
X021607Y028839D01*
X021656Y028888D01*
X021705Y028888D01*
X021656Y028888D02*
X021607Y028937D01*
X021607Y028986D01*
X021656Y029035D01*
X021754Y029035D01*
X021802Y028986D01*
X021904Y028986D02*
X021953Y029035D01*
X022051Y029035D01*
X022100Y028986D01*
X022100Y028791D01*
X022051Y028742D01*
X022043Y029313D02*
X021945Y029313D01*
X021896Y029361D01*
X021794Y029361D02*
X021746Y029313D01*
X021648Y029313D01*
X021599Y029361D01*
X021599Y029410D01*
X021648Y029459D01*
X021697Y029459D01*
X021648Y029459D02*
X021599Y029508D01*
X021599Y029557D01*
X021648Y029606D01*
X021746Y029606D01*
X021794Y029557D01*
X021896Y029557D02*
X021945Y029606D01*
X022043Y029606D01*
X022092Y029557D01*
X022092Y029361D01*
X022043Y029313D01*
X022175Y029439D02*
X022127Y029487D01*
X022127Y029683D01*
X022175Y029732D01*
X022273Y029732D01*
X022322Y029683D01*
X022322Y029634D01*
X022273Y029585D01*
X022127Y029585D01*
X022175Y029439D02*
X022273Y029439D01*
X022322Y029487D01*
X022424Y029487D02*
X022473Y029439D01*
X022570Y029439D01*
X022619Y029487D01*
X022721Y029487D02*
X022770Y029439D01*
X022868Y029439D01*
X022916Y029487D01*
X022916Y029683D01*
X022868Y029732D01*
X022770Y029732D01*
X022721Y029683D01*
X022619Y029683D02*
X022570Y029732D01*
X022473Y029732D01*
X022424Y029683D01*
X022424Y029634D01*
X022473Y029585D01*
X022424Y029536D01*
X022424Y029487D01*
X022473Y029585D02*
X022522Y029585D01*
X022055Y030132D02*
X021957Y030132D01*
X021908Y030180D01*
X021806Y030180D02*
X021757Y030132D01*
X021660Y030132D01*
X021611Y030180D01*
X021611Y030229D01*
X021660Y030278D01*
X021709Y030278D01*
X021660Y030278D02*
X021611Y030327D01*
X021611Y030376D01*
X021660Y030425D01*
X021757Y030425D01*
X021806Y030376D01*
X021908Y030376D02*
X021957Y030425D01*
X022055Y030425D01*
X022104Y030376D01*
X022104Y030180D01*
X022055Y030132D01*
X021509Y030180D02*
X021460Y030132D01*
X021362Y030132D01*
X021314Y030180D01*
X021314Y030278D01*
X021362Y030327D01*
X021411Y030327D01*
X021509Y030278D01*
X021509Y030425D01*
X021314Y030425D01*
X021302Y029606D02*
X021400Y029557D01*
X021497Y029459D01*
X021351Y029459D01*
X021302Y029410D01*
X021302Y029361D01*
X021351Y029313D01*
X021448Y029313D01*
X021497Y029361D01*
X021497Y029459D01*
X021505Y029035D02*
X021310Y029035D01*
X021310Y028986D01*
X021505Y028791D01*
X021505Y028742D01*
M02*
