G75*
G70*
%OFA0B0*%
%FSLAX24Y24*%
%IPPOS*%
%LPD*%
%AMOC8*
5,1,8,0,0,1.08239X$1,22.5*
%
%ADD10R,0.0433X0.0394*%
%ADD11R,0.0600X0.1600*%
%ADD12R,0.0394X0.0433*%
D10*
X013174Y017347D03*
X013843Y017347D03*
X013768Y019831D03*
X013453Y020520D03*
X013099Y019831D03*
X014122Y020520D03*
X013374Y022685D03*
X013059Y023178D03*
X012705Y022685D03*
X013729Y023178D03*
X011465Y023571D03*
X010796Y023571D03*
X010815Y022489D03*
X010146Y022489D03*
X009516Y021367D03*
X010067Y020618D03*
X010737Y020618D03*
X010953Y019713D03*
X010284Y019713D03*
X008847Y021367D03*
X011918Y029378D03*
X012587Y029378D03*
X012426Y030036D03*
X012426Y030705D03*
X013335Y030697D03*
X013335Y030028D03*
X013197Y029378D03*
X013867Y029378D03*
X022083Y019528D03*
X022056Y018748D03*
X022725Y018748D03*
X022752Y019528D03*
X022583Y026622D03*
X023252Y026622D03*
X022985Y028189D03*
X023185Y028709D03*
X023178Y029477D03*
X023189Y030296D03*
X022520Y030296D03*
X022508Y029477D03*
X022516Y028709D03*
X022315Y028189D03*
D11*
X011209Y007713D03*
X013209Y007713D03*
D12*
X012548Y019359D03*
X012548Y020028D03*
X013827Y021268D03*
X013827Y021937D03*
X021792Y029244D03*
X021792Y029914D03*
M02*
