G75*
G70*
%OFA0B0*%
%FSLAX24Y24*%
%IPPOS*%
%LPD*%
%AMOC8*
5,1,8,0,0,1.08239X$1,22.5*
%
%ADD10R,0.1673X0.0591*%
%ADD11R,0.0394X0.0394*%
%ADD12R,0.0394X0.0177*%
%ADD13R,0.0177X0.0394*%
%ADD14R,0.0591X0.0433*%
%ADD15R,0.1378X0.1299*%
%ADD16R,0.0354X0.0315*%
%ADD17R,0.0394X0.0650*%
%ADD18R,0.0650X0.0394*%
%ADD19C,0.0317*%
%ADD20C,0.0310*%
%ADD21C,0.0079*%
%ADD22C,0.0118*%
%ADD23C,0.0197*%
%ADD24C,0.0157*%
%ADD25C,0.0394*%
D10*
X025989Y042531D03*
X025989Y044531D03*
D11*
X038095Y046975D03*
X038391Y047763D03*
X039178Y047763D03*
X039769Y047763D03*
X040556Y047763D03*
X041146Y047763D03*
X041934Y047763D03*
X042524Y047763D03*
X043312Y047763D03*
X044001Y045204D03*
X044493Y044515D03*
X044788Y045204D03*
X045280Y045204D03*
X045280Y044515D03*
X045280Y043727D03*
X044493Y043727D03*
X044394Y043137D03*
X044887Y042743D03*
X044394Y042349D03*
X043607Y042349D03*
X043115Y042743D03*
X043607Y043137D03*
X042328Y042743D03*
X041737Y043038D03*
X041146Y042743D03*
X041737Y042251D03*
X040359Y042743D03*
X039670Y042546D03*
X039670Y043334D03*
X039473Y046188D03*
X039473Y046975D03*
X038883Y046975D03*
X045674Y042743D03*
X047052Y044318D03*
X047052Y045105D03*
X046068Y045204D03*
X047839Y045105D03*
X047839Y044318D03*
D12*
X043410Y044318D03*
X043410Y044633D03*
X043410Y044948D03*
X043410Y045263D03*
X043410Y045578D03*
X043410Y045893D03*
X043410Y046208D03*
X043410Y044003D03*
X040261Y044003D03*
X040261Y044318D03*
X040261Y044633D03*
X040261Y044948D03*
X040261Y045263D03*
X040261Y045578D03*
X040261Y045893D03*
X040261Y046208D03*
D13*
X040733Y046680D03*
X041048Y046680D03*
X041363Y046680D03*
X041678Y046680D03*
X041993Y046680D03*
X042308Y046680D03*
X042623Y046680D03*
X042938Y046680D03*
X042938Y043531D03*
X042623Y043531D03*
X042308Y043531D03*
X041993Y043531D03*
X041678Y043531D03*
X041363Y043531D03*
X041048Y043531D03*
X040733Y043531D03*
D14*
X037209Y043826D03*
X037209Y044416D03*
X036028Y044416D03*
X036028Y043826D03*
X052170Y043924D03*
X052170Y044515D03*
X053351Y044515D03*
X053351Y043924D03*
X053351Y013412D03*
X053351Y012822D03*
X052170Y012822D03*
X052170Y013412D03*
X037209Y013412D03*
X037209Y012822D03*
X036028Y012822D03*
X036028Y013412D03*
D15*
X035635Y013845D03*
X035635Y012389D03*
X037603Y012389D03*
X037603Y013845D03*
X051776Y013845D03*
X051776Y012389D03*
X053745Y012389D03*
X053745Y013845D03*
X053745Y043491D03*
X053745Y044948D03*
X051776Y044948D03*
X051776Y043491D03*
X037603Y043393D03*
X037603Y044849D03*
X035635Y044849D03*
X035635Y043393D03*
D16*
X042623Y012802D03*
X042623Y012054D03*
X042623Y011523D03*
X042623Y010775D03*
X042623Y010243D03*
X042623Y009495D03*
X041796Y009869D03*
X041796Y011149D03*
X041796Y012428D03*
X046658Y012054D03*
X046658Y011523D03*
X046658Y010775D03*
X046658Y010243D03*
X046658Y009495D03*
X047485Y009869D03*
X047485Y011149D03*
X047485Y012428D03*
X046658Y012802D03*
D17*
X046855Y046040D03*
X046068Y046040D03*
X045280Y046040D03*
X044493Y046040D03*
X044493Y047910D03*
X045280Y047910D03*
X046068Y047910D03*
X046855Y047910D03*
X047643Y047910D03*
X047643Y046040D03*
D18*
X045625Y012822D03*
X045625Y012034D03*
X045625Y011247D03*
X045625Y010460D03*
X045625Y009672D03*
X043755Y009672D03*
X043755Y010460D03*
X043755Y011247D03*
X043755Y012034D03*
X043755Y012822D03*
D19*
X043706Y013314D03*
X045674Y013314D03*
X048036Y012428D03*
X048036Y011149D03*
X048135Y009869D03*
X053745Y012389D03*
X039375Y009869D03*
X038489Y011149D03*
X035635Y012133D03*
X035635Y013845D03*
X026186Y012625D03*
X026087Y016168D03*
X025989Y019219D03*
X025989Y020007D03*
X025989Y020893D03*
X025202Y020893D03*
X025202Y020007D03*
X025202Y019219D03*
X024414Y019318D03*
X023135Y019219D03*
X022544Y020499D03*
X023135Y021188D03*
X023528Y021188D03*
X023528Y021582D03*
X023135Y021582D03*
X023135Y021975D03*
X023528Y021975D03*
X023922Y021975D03*
X023922Y021582D03*
X023922Y021188D03*
X025300Y022271D03*
X025891Y022664D03*
X022938Y023058D03*
X022938Y023845D03*
X022052Y024141D03*
X021265Y024141D03*
X021265Y023353D03*
X022052Y023353D03*
X021560Y021483D03*
X019887Y020597D03*
X019887Y019810D03*
X019099Y019712D03*
X019099Y018924D03*
X019887Y017940D03*
X019887Y017153D03*
X021461Y017349D03*
X021461Y016562D03*
X020576Y014397D03*
X018115Y014200D03*
X016146Y014200D03*
X016146Y014987D03*
X012997Y018727D03*
X010143Y018826D03*
X011717Y014397D03*
X016048Y020499D03*
X018509Y023058D03*
X016737Y023255D03*
X015950Y025223D03*
X016146Y026601D03*
X014080Y027586D03*
X012406Y026798D03*
X011619Y025322D03*
X013883Y025322D03*
X015359Y029653D03*
X016048Y031227D03*
X017721Y032408D03*
X018509Y032408D03*
X018509Y033196D03*
X017721Y033196D03*
X017820Y034672D03*
X018607Y034672D03*
X018607Y035460D03*
X017820Y035460D03*
X019394Y035361D03*
X019394Y036149D03*
X020182Y036149D03*
X020182Y035361D03*
X020182Y034082D03*
X020339Y033491D03*
X019591Y033491D03*
X020379Y032704D03*
X021127Y032704D03*
X021363Y032113D03*
X021363Y031326D03*
X022150Y031326D03*
X022150Y032113D03*
X023135Y032408D03*
X023824Y032704D03*
X023135Y031621D03*
X023036Y030243D03*
X022643Y030243D03*
X022643Y029849D03*
X023036Y029849D03*
X023036Y029456D03*
X022643Y029456D03*
X022643Y029062D03*
X023036Y029062D03*
X022249Y029062D03*
X022249Y029456D03*
X022249Y029849D03*
X021855Y029849D03*
X021855Y029456D03*
X021855Y029062D03*
X020772Y029062D03*
X020241Y029062D03*
X019493Y029062D03*
X019493Y028275D03*
X018509Y029062D03*
X018509Y029849D03*
X017721Y029849D03*
X017721Y029062D03*
X019394Y029849D03*
X019394Y030637D03*
X019985Y030637D03*
X019985Y031424D03*
X020772Y030637D03*
X021855Y030243D03*
X022249Y030243D03*
X020871Y028275D03*
X020871Y027487D03*
X020772Y026011D03*
X021560Y025617D03*
X023528Y027192D03*
X023528Y027979D03*
X024316Y027782D03*
X025103Y027782D03*
X024316Y028570D03*
X024414Y030342D03*
X025202Y030342D03*
X025398Y031129D03*
X025300Y031818D03*
X024611Y031129D03*
X026186Y031916D03*
X026678Y030735D03*
X025989Y033294D03*
X024217Y033491D03*
X023824Y033885D03*
X023331Y033590D03*
X022721Y034082D03*
X022721Y034475D03*
X022328Y034475D03*
X022328Y034082D03*
X021855Y035066D03*
X021461Y035558D03*
X021461Y036247D03*
X021363Y037133D03*
X021461Y037920D03*
X021461Y038708D03*
X021461Y039495D03*
X021363Y040282D03*
X021363Y041070D03*
X021461Y041857D03*
X021461Y042645D03*
X021757Y043531D03*
X022446Y044121D03*
X023725Y044219D03*
X024709Y044219D03*
X025595Y044515D03*
X026087Y044515D03*
X026580Y044515D03*
X026580Y042546D03*
X026087Y042546D03*
X025595Y042546D03*
X024709Y042842D03*
X023725Y042842D03*
X022839Y042645D03*
X022839Y041857D03*
X022839Y041070D03*
X022839Y040282D03*
X022839Y039495D03*
X022839Y038708D03*
X022839Y037920D03*
X023528Y037133D03*
X023528Y036405D03*
X022741Y036385D03*
X023233Y035027D03*
X020969Y034082D03*
X021127Y033491D03*
X024709Y026503D03*
X025497Y026503D03*
X019296Y025420D03*
X008666Y025519D03*
X007977Y024928D03*
X007780Y029160D03*
X008568Y029849D03*
X008174Y032999D03*
X009454Y041267D03*
X010044Y041267D03*
X010635Y041070D03*
X010635Y042251D03*
X008863Y043137D03*
X008469Y043137D03*
X008076Y043137D03*
X010635Y044810D03*
X010831Y046877D03*
X011127Y047960D03*
X010143Y047960D03*
X009257Y048156D03*
X009257Y046582D03*
X007682Y046582D03*
X007682Y048156D03*
X012111Y047960D03*
X013095Y047960D03*
X014572Y048058D03*
X015753Y048058D03*
X014572Y046779D03*
X015950Y046385D03*
X016934Y045893D03*
X017721Y045893D03*
X018509Y045893D03*
X019690Y045105D03*
X021757Y046582D03*
X022150Y047960D03*
X023135Y047960D03*
X024217Y047960D03*
X025005Y048156D03*
X025005Y046582D03*
X026580Y046582D03*
X026580Y048156D03*
X021068Y047960D03*
X017721Y047960D03*
X035536Y037133D03*
X035930Y036641D03*
X036324Y036149D03*
X039670Y043924D03*
X040851Y045007D03*
X042032Y045794D03*
X042918Y045696D03*
X043312Y047763D03*
X044493Y048058D03*
X046068Y046090D03*
X046068Y045204D03*
X045280Y043727D03*
X045674Y042743D03*
X044394Y042349D03*
X044394Y037133D03*
X044690Y036641D03*
X044985Y036149D03*
X038095Y046975D03*
X038391Y047763D03*
D20*
X043213Y041759D03*
X026481Y025519D03*
X025497Y024731D03*
X025103Y024338D03*
X024709Y023944D03*
X025595Y023156D03*
X024906Y022566D03*
X022052Y022566D03*
X021068Y021975D03*
X021068Y021483D03*
X021166Y019908D03*
X021954Y019908D03*
X021363Y016070D03*
X022249Y014397D03*
X021855Y011838D03*
X020969Y011838D03*
X019591Y010263D03*
X017131Y010361D03*
X014670Y014101D03*
X012898Y014397D03*
X010143Y012822D03*
X009257Y011149D03*
X010143Y010263D03*
X009257Y009574D03*
X007682Y009574D03*
X007682Y011149D03*
X009847Y016857D03*
X009060Y017940D03*
X008272Y018629D03*
X010536Y018432D03*
X013194Y018137D03*
X013686Y018727D03*
X016639Y020597D03*
X018607Y023747D03*
X019296Y024633D03*
X018115Y025912D03*
X019394Y026405D03*
X020674Y025420D03*
X021265Y024731D03*
X022347Y024633D03*
X022347Y026011D03*
X022741Y026306D03*
X023135Y026601D03*
X023036Y027290D03*
X017032Y027782D03*
X015654Y028471D03*
X014867Y027586D03*
X014867Y026601D03*
X013194Y027586D03*
X013391Y028176D03*
X014080Y028964D03*
X012406Y027586D03*
X012505Y025322D03*
X013292Y025322D03*
X016639Y024436D03*
X012013Y030538D03*
X011914Y032015D03*
X010536Y033294D03*
X009847Y032507D03*
X009058Y034277D03*
X008371Y035066D03*
X009355Y035755D03*
X009946Y036936D03*
X009355Y037330D03*
X009158Y037822D03*
X008863Y038806D03*
X009650Y038806D03*
X010339Y038216D03*
X011225Y038216D03*
X011225Y037428D03*
X012111Y037625D03*
X012406Y037330D03*
X012406Y038511D03*
X014670Y038412D03*
X014670Y038019D03*
X014670Y037625D03*
X014670Y038806D03*
X014670Y039200D03*
X014670Y039594D03*
X017623Y041660D03*
X018607Y041660D03*
X018115Y042743D03*
X018509Y043531D03*
X019099Y043531D03*
X019591Y042448D03*
X020871Y045105D03*
X021658Y045105D03*
X020083Y047960D03*
X019296Y047960D03*
X018509Y047960D03*
X016934Y047960D03*
X016934Y046680D03*
X015359Y046779D03*
X016934Y043531D03*
X012209Y046188D03*
X011619Y046188D03*
X010635Y040282D03*
X008272Y040282D03*
X007780Y036838D03*
X008174Y033885D03*
X008174Y030735D03*
X007977Y025716D03*
X008174Y022861D03*
X011914Y034279D03*
X024709Y016070D03*
X026087Y015381D03*
X018115Y014987D03*
D21*
X007388Y011542D02*
X007388Y009279D01*
X009454Y009279D01*
X009454Y011542D01*
X007388Y011542D01*
X007388Y011497D02*
X009454Y011497D01*
X009454Y011420D02*
X007388Y011420D01*
X007388Y011343D02*
X009454Y011343D01*
X009454Y011266D02*
X007388Y011266D01*
X007388Y011188D02*
X009454Y011188D01*
X009454Y011111D02*
X007388Y011111D01*
X007388Y011034D02*
X008318Y011034D01*
X008334Y011041D02*
X008084Y010937D01*
X007893Y010746D01*
X007790Y010496D01*
X007790Y010226D01*
X007893Y009976D01*
X008084Y009785D01*
X008334Y009682D01*
X008604Y009682D01*
X008854Y009785D01*
X009045Y009976D01*
X009149Y010226D01*
X009149Y010496D01*
X009045Y010746D01*
X008854Y010937D01*
X008604Y011041D01*
X008334Y011041D01*
X008132Y010957D02*
X007388Y010957D01*
X007388Y010879D02*
X008027Y010879D01*
X007949Y010802D02*
X007388Y010802D01*
X007388Y010725D02*
X007885Y010725D01*
X007853Y010648D02*
X007388Y010648D01*
X007388Y010570D02*
X007821Y010570D01*
X007790Y010493D02*
X007388Y010493D01*
X007388Y010416D02*
X007790Y010416D01*
X007790Y010339D02*
X007388Y010339D01*
X007388Y010261D02*
X007790Y010261D01*
X007807Y010184D02*
X007388Y010184D01*
X007388Y010107D02*
X007839Y010107D01*
X007871Y010030D02*
X007388Y010030D01*
X007388Y009953D02*
X007917Y009953D01*
X007994Y009875D02*
X007388Y009875D01*
X007388Y009798D02*
X008072Y009798D01*
X008240Y009721D02*
X007388Y009721D01*
X007388Y009644D02*
X009454Y009644D01*
X009454Y009721D02*
X008698Y009721D01*
X008867Y009798D02*
X009454Y009798D01*
X009454Y009875D02*
X008944Y009875D01*
X009021Y009953D02*
X009454Y009953D01*
X009454Y010030D02*
X009067Y010030D01*
X009099Y010107D02*
X009454Y010107D01*
X009454Y010184D02*
X009131Y010184D01*
X009149Y010261D02*
X009454Y010261D01*
X009454Y010339D02*
X009149Y010339D01*
X009149Y010416D02*
X009454Y010416D01*
X009454Y010493D02*
X009149Y010493D01*
X009118Y010570D02*
X009454Y010570D01*
X009454Y010648D02*
X009086Y010648D01*
X009054Y010725D02*
X009454Y010725D01*
X009454Y010802D02*
X008989Y010802D01*
X008912Y010879D02*
X009454Y010879D01*
X009454Y010957D02*
X008807Y010957D01*
X008621Y011034D02*
X009454Y011034D01*
X009650Y011034D02*
X010693Y011034D01*
X010693Y011091D02*
X010693Y009516D01*
X010890Y009319D01*
X010930Y009279D01*
X009650Y009279D01*
X009650Y011797D01*
X009987Y011797D01*
X010693Y011091D01*
X010673Y011111D02*
X009650Y011111D01*
X009650Y011188D02*
X010596Y011188D01*
X010518Y011266D02*
X009650Y011266D01*
X009650Y011343D02*
X010441Y011343D01*
X010364Y011420D02*
X009650Y011420D01*
X009650Y011497D02*
X010287Y011497D01*
X010209Y011575D02*
X009650Y011575D01*
X009650Y011652D02*
X010132Y011652D01*
X010055Y011729D02*
X009650Y011729D01*
X009650Y012075D02*
X009650Y014495D01*
X010044Y014889D01*
X014572Y014889D01*
X015261Y014200D01*
X015261Y010263D01*
X015457Y010066D01*
X018607Y010066D01*
X018804Y010263D01*
X018804Y018924D01*
X018841Y018961D01*
X018841Y018873D01*
X018880Y018778D01*
X018953Y018705D01*
X019048Y018666D01*
X019151Y018666D01*
X019245Y018705D01*
X019318Y018778D01*
X019357Y018873D01*
X019357Y018976D01*
X019318Y019070D01*
X019245Y019143D01*
X019151Y019182D01*
X019062Y019182D01*
X021109Y021229D01*
X021118Y021229D01*
X021212Y021268D01*
X021231Y021286D01*
X021392Y021286D01*
X021414Y021264D01*
X021509Y021225D01*
X021611Y021225D01*
X021706Y021264D01*
X021728Y021286D01*
X022896Y021286D01*
X022877Y021239D01*
X022877Y021137D01*
X022916Y021042D01*
X022988Y020969D01*
X023083Y020930D01*
X023186Y020930D01*
X023281Y020969D01*
X023331Y021020D01*
X023382Y020969D01*
X023477Y020930D01*
X023580Y020930D01*
X023675Y020969D01*
X023725Y021020D01*
X023776Y020969D01*
X023871Y020930D01*
X023973Y020930D01*
X024068Y020969D01*
X024141Y021042D01*
X024180Y021137D01*
X024180Y021239D01*
X024161Y021286D01*
X026874Y021286D01*
X026874Y011542D01*
X025230Y011542D01*
X026096Y012383D01*
X026134Y012367D01*
X026237Y012367D01*
X026332Y012406D01*
X026405Y012479D01*
X026444Y012574D01*
X026444Y012676D01*
X026405Y012771D01*
X026332Y012844D01*
X026237Y012883D01*
X026134Y012883D01*
X026040Y012844D01*
X025967Y012771D01*
X025928Y012676D01*
X025928Y012606D01*
X022744Y009516D01*
X022639Y009516D01*
X023307Y010183D01*
X023411Y010287D01*
X023411Y018014D01*
X022132Y019293D01*
X022132Y019727D01*
X022169Y019764D01*
X022208Y019858D01*
X022208Y019959D01*
X022169Y020053D01*
X022098Y020124D01*
X022004Y020163D01*
X021903Y020163D01*
X021809Y020124D01*
X021738Y020053D01*
X021699Y019959D01*
X021699Y019858D01*
X021738Y019764D01*
X021775Y019727D01*
X021775Y019146D01*
X021880Y019041D01*
X023055Y017866D01*
X023055Y010435D01*
X023017Y010398D01*
X023017Y017620D01*
X021344Y019293D01*
X021344Y019727D01*
X021382Y019764D01*
X021421Y019858D01*
X021421Y019959D01*
X021382Y020053D01*
X021310Y020124D01*
X021217Y020163D01*
X021116Y020163D01*
X021022Y020124D01*
X020950Y020053D01*
X020912Y019959D01*
X020912Y019858D01*
X020950Y019764D01*
X020988Y019727D01*
X020988Y019146D01*
X021092Y019041D01*
X022661Y017472D01*
X022661Y010533D01*
X022175Y010047D01*
X022127Y010047D01*
X022206Y010127D01*
X022269Y010279D01*
X022269Y010444D01*
X022206Y010596D01*
X022090Y010712D01*
X021938Y010776D01*
X021773Y010776D01*
X021620Y010712D01*
X021504Y010596D01*
X021441Y010444D01*
X021441Y010279D01*
X021504Y010127D01*
X021583Y010047D01*
X015138Y010047D01*
X014848Y010337D01*
X014848Y013920D01*
X014886Y013957D01*
X014924Y014051D01*
X014924Y014152D01*
X014886Y014245D01*
X014814Y014317D01*
X014721Y014356D01*
X014619Y014356D01*
X014526Y014317D01*
X014454Y014245D01*
X014416Y014152D01*
X014416Y014051D01*
X014454Y013957D01*
X014492Y013920D01*
X014492Y010189D01*
X014886Y009795D01*
X014929Y009752D01*
X011397Y009752D01*
X011305Y009844D01*
X011305Y012010D01*
X011201Y012114D01*
X010439Y012876D01*
X010439Y012904D01*
X010323Y013020D01*
X010304Y013020D01*
X010287Y013037D01*
X010193Y013076D01*
X010092Y013076D01*
X009998Y013037D01*
X009927Y012966D01*
X009888Y012872D01*
X009888Y012771D01*
X009927Y012678D01*
X009998Y012606D01*
X010092Y012567D01*
X010193Y012567D01*
X010229Y012582D01*
X010949Y011862D01*
X010949Y011228D01*
X010889Y011287D01*
X010102Y012075D01*
X009650Y012075D01*
X009650Y012115D02*
X010696Y012115D01*
X010773Y012038D02*
X010138Y012038D01*
X010216Y011961D02*
X010850Y011961D01*
X010927Y011884D02*
X010293Y011884D01*
X010370Y011806D02*
X010949Y011806D01*
X010949Y011729D02*
X010447Y011729D01*
X010525Y011652D02*
X010949Y011652D01*
X010949Y011575D02*
X010602Y011575D01*
X010679Y011497D02*
X010949Y011497D01*
X010949Y011420D02*
X010756Y011420D01*
X010833Y011343D02*
X010949Y011343D01*
X010949Y011266D02*
X010911Y011266D01*
X010831Y011149D02*
X010831Y009574D01*
X011028Y009377D01*
X022800Y009377D01*
X026146Y012625D01*
X026186Y012625D01*
X026365Y012810D02*
X026874Y012810D01*
X026874Y012733D02*
X026420Y012733D01*
X026444Y012656D02*
X026874Y012656D01*
X026874Y012579D02*
X026444Y012579D01*
X026414Y012501D02*
X026874Y012501D01*
X026874Y012424D02*
X026350Y012424D01*
X026059Y012347D02*
X026874Y012347D01*
X026874Y012270D02*
X025980Y012270D01*
X025900Y012192D02*
X026874Y012192D01*
X026874Y012115D02*
X025820Y012115D01*
X025741Y012038D02*
X026874Y012038D01*
X026874Y011961D02*
X025661Y011961D01*
X025582Y011884D02*
X026874Y011884D01*
X026874Y011806D02*
X025502Y011806D01*
X025423Y011729D02*
X026874Y011729D01*
X026874Y011652D02*
X025343Y011652D01*
X025263Y011575D02*
X026874Y011575D01*
X026874Y012888D02*
X023411Y012888D01*
X023411Y012965D02*
X026874Y012965D01*
X026874Y013042D02*
X023411Y013042D01*
X023411Y013119D02*
X026874Y013119D01*
X026874Y013197D02*
X023411Y013197D01*
X023411Y013274D02*
X026874Y013274D01*
X026874Y013351D02*
X023411Y013351D01*
X023411Y013428D02*
X026874Y013428D01*
X026874Y013506D02*
X023411Y013506D01*
X023411Y013583D02*
X026874Y013583D01*
X026874Y013660D02*
X023411Y013660D01*
X023411Y013737D02*
X026874Y013737D01*
X026874Y013815D02*
X023411Y013815D01*
X023411Y013892D02*
X026874Y013892D01*
X026874Y013969D02*
X023411Y013969D01*
X023411Y014046D02*
X026874Y014046D01*
X026874Y014124D02*
X023411Y014124D01*
X023411Y014201D02*
X026874Y014201D01*
X026874Y014278D02*
X023411Y014278D01*
X023411Y014355D02*
X026874Y014355D01*
X026874Y014432D02*
X023411Y014432D01*
X023411Y014510D02*
X026874Y014510D01*
X026874Y014587D02*
X023411Y014587D01*
X023411Y014664D02*
X026874Y014664D01*
X026874Y014741D02*
X023411Y014741D01*
X023411Y014819D02*
X026874Y014819D01*
X026874Y014896D02*
X023411Y014896D01*
X023411Y014973D02*
X026874Y014973D01*
X026874Y015050D02*
X023411Y015050D01*
X023411Y015128D02*
X026874Y015128D01*
X026874Y015205D02*
X023411Y015205D01*
X023411Y015282D02*
X026874Y015282D01*
X026874Y015359D02*
X023411Y015359D01*
X023411Y015437D02*
X026874Y015437D01*
X026874Y015514D02*
X023411Y015514D01*
X023411Y015591D02*
X026874Y015591D01*
X026874Y015668D02*
X023411Y015668D01*
X023411Y015746D02*
X026874Y015746D01*
X026874Y015823D02*
X023411Y015823D01*
X023411Y015900D02*
X026874Y015900D01*
X026874Y015977D02*
X026261Y015977D01*
X026234Y015949D02*
X026306Y016022D01*
X026346Y016117D01*
X026346Y016220D01*
X026306Y016315D01*
X026234Y016387D01*
X026139Y016426D01*
X026036Y016426D01*
X025941Y016387D01*
X025869Y016315D01*
X025829Y016220D01*
X025829Y016117D01*
X025869Y016022D01*
X025941Y015949D01*
X026036Y015910D01*
X026139Y015910D01*
X026234Y015949D01*
X026320Y016055D02*
X026874Y016055D01*
X026874Y016132D02*
X026346Y016132D01*
X026346Y016209D02*
X026874Y016209D01*
X026874Y016286D02*
X026318Y016286D01*
X026257Y016363D02*
X026874Y016363D01*
X026874Y016441D02*
X023411Y016441D01*
X023411Y016518D02*
X026874Y016518D01*
X026874Y016595D02*
X023411Y016595D01*
X023411Y016672D02*
X026874Y016672D01*
X026874Y016750D02*
X023411Y016750D01*
X023411Y016827D02*
X026874Y016827D01*
X026874Y016904D02*
X023411Y016904D01*
X023411Y016981D02*
X026874Y016981D01*
X026874Y017059D02*
X023411Y017059D01*
X023411Y017136D02*
X026874Y017136D01*
X026874Y017213D02*
X023411Y017213D01*
X023411Y017290D02*
X026874Y017290D01*
X026874Y017368D02*
X023411Y017368D01*
X023411Y017445D02*
X026874Y017445D01*
X026874Y017522D02*
X023411Y017522D01*
X023411Y017599D02*
X026874Y017599D01*
X026874Y017677D02*
X023411Y017677D01*
X023411Y017754D02*
X026874Y017754D01*
X026874Y017831D02*
X023411Y017831D01*
X023411Y017908D02*
X026874Y017908D01*
X026874Y017986D02*
X023411Y017986D01*
X023362Y018063D02*
X026874Y018063D01*
X026874Y018140D02*
X023285Y018140D01*
X023208Y018217D02*
X026874Y018217D01*
X026874Y018294D02*
X023130Y018294D01*
X023053Y018372D02*
X026874Y018372D01*
X026874Y018449D02*
X022976Y018449D01*
X022899Y018526D02*
X026874Y018526D01*
X026874Y018603D02*
X022821Y018603D01*
X022744Y018681D02*
X026874Y018681D01*
X026874Y018758D02*
X022667Y018758D01*
X022590Y018835D02*
X026874Y018835D01*
X026874Y018912D02*
X022513Y018912D01*
X022435Y018990D02*
X026874Y018990D01*
X026874Y019067D02*
X022358Y019067D01*
X022281Y019144D02*
X026874Y019144D01*
X026874Y019221D02*
X022204Y019221D01*
X022132Y019299D02*
X026874Y019299D01*
X026874Y019376D02*
X022132Y019376D01*
X022132Y019453D02*
X026874Y019453D01*
X026874Y019530D02*
X022132Y019530D01*
X022132Y019608D02*
X026874Y019608D01*
X026874Y019685D02*
X022132Y019685D01*
X022167Y019762D02*
X025118Y019762D01*
X025150Y019749D02*
X025253Y019749D01*
X025348Y019788D01*
X025420Y019861D01*
X025460Y019956D01*
X025460Y020058D01*
X025420Y020153D01*
X025348Y020226D01*
X025253Y020265D01*
X025150Y020265D01*
X025055Y020226D01*
X024983Y020153D01*
X024943Y020058D01*
X024943Y019956D01*
X024983Y019861D01*
X025055Y019788D01*
X025150Y019749D01*
X025285Y019762D02*
X025906Y019762D01*
X025938Y019749D02*
X026040Y019749D01*
X026135Y019788D01*
X026208Y019861D01*
X026247Y019956D01*
X026247Y020058D01*
X026208Y020153D01*
X026135Y020226D01*
X026040Y020265D01*
X025938Y020265D01*
X025843Y020226D01*
X025770Y020153D01*
X025731Y020058D01*
X025731Y019956D01*
X025770Y019861D01*
X025843Y019788D01*
X025938Y019749D01*
X026072Y019762D02*
X026874Y019762D01*
X026874Y019839D02*
X026186Y019839D01*
X026231Y019917D02*
X026874Y019917D01*
X026874Y019994D02*
X026247Y019994D01*
X026242Y020071D02*
X026874Y020071D01*
X026874Y020148D02*
X026210Y020148D01*
X026135Y020225D02*
X026874Y020225D01*
X026874Y020303D02*
X020182Y020303D01*
X020105Y020225D02*
X025055Y020225D01*
X024981Y020148D02*
X022039Y020148D01*
X022151Y020071D02*
X024949Y020071D01*
X024943Y019994D02*
X022194Y019994D01*
X022208Y019917D02*
X024960Y019917D01*
X025004Y019839D02*
X022200Y019839D01*
X021775Y019685D02*
X021344Y019685D01*
X021344Y019608D02*
X021775Y019608D01*
X021775Y019530D02*
X021344Y019530D01*
X021344Y019453D02*
X021775Y019453D01*
X021775Y019376D02*
X021344Y019376D01*
X021344Y019299D02*
X021775Y019299D01*
X021775Y019221D02*
X021416Y019221D01*
X021493Y019144D02*
X021777Y019144D01*
X021854Y019067D02*
X021571Y019067D01*
X021648Y018990D02*
X021931Y018990D01*
X021880Y019041D02*
X021880Y019041D01*
X022009Y018912D02*
X021725Y018912D01*
X021802Y018835D02*
X022086Y018835D01*
X022163Y018758D02*
X021880Y018758D01*
X021957Y018681D02*
X022240Y018681D01*
X022318Y018603D02*
X022034Y018603D01*
X022111Y018526D02*
X022395Y018526D01*
X022472Y018449D02*
X022189Y018449D01*
X022266Y018372D02*
X022549Y018372D01*
X022627Y018294D02*
X022343Y018294D01*
X022420Y018217D02*
X022704Y018217D01*
X022781Y018140D02*
X022498Y018140D01*
X022575Y018063D02*
X022858Y018063D01*
X022936Y017986D02*
X022652Y017986D01*
X022729Y017908D02*
X023013Y017908D01*
X023055Y017831D02*
X022806Y017831D01*
X022884Y017754D02*
X023055Y017754D01*
X023055Y017677D02*
X022961Y017677D01*
X023017Y017599D02*
X023055Y017599D01*
X023055Y017522D02*
X023017Y017522D01*
X023017Y017445D02*
X023055Y017445D01*
X023055Y017368D02*
X023017Y017368D01*
X023017Y017290D02*
X023055Y017290D01*
X023055Y017213D02*
X023017Y017213D01*
X023017Y017136D02*
X023055Y017136D01*
X023055Y017059D02*
X023017Y017059D01*
X023017Y016981D02*
X023055Y016981D01*
X023055Y016904D02*
X023017Y016904D01*
X023017Y016827D02*
X023055Y016827D01*
X023055Y016750D02*
X023017Y016750D01*
X023017Y016672D02*
X023055Y016672D01*
X023055Y016595D02*
X023017Y016595D01*
X023017Y016518D02*
X023055Y016518D01*
X023055Y016441D02*
X023017Y016441D01*
X023017Y016363D02*
X023055Y016363D01*
X023055Y016286D02*
X023017Y016286D01*
X023017Y016209D02*
X023055Y016209D01*
X023055Y016132D02*
X023017Y016132D01*
X023017Y016055D02*
X023055Y016055D01*
X023055Y015977D02*
X023017Y015977D01*
X023017Y015900D02*
X023055Y015900D01*
X023055Y015823D02*
X023017Y015823D01*
X023017Y015746D02*
X023055Y015746D01*
X023055Y015668D02*
X023017Y015668D01*
X023017Y015591D02*
X023055Y015591D01*
X023055Y015514D02*
X023017Y015514D01*
X023017Y015437D02*
X023055Y015437D01*
X023055Y015359D02*
X023017Y015359D01*
X023017Y015282D02*
X023055Y015282D01*
X023055Y015205D02*
X023017Y015205D01*
X023017Y015128D02*
X023055Y015128D01*
X023055Y015050D02*
X023017Y015050D01*
X023017Y014973D02*
X023055Y014973D01*
X023055Y014896D02*
X023017Y014896D01*
X023017Y014819D02*
X023055Y014819D01*
X023055Y014741D02*
X023017Y014741D01*
X023017Y014664D02*
X023055Y014664D01*
X023055Y014587D02*
X023017Y014587D01*
X023017Y014510D02*
X023055Y014510D01*
X023055Y014432D02*
X023017Y014432D01*
X023017Y014355D02*
X023055Y014355D01*
X023055Y014278D02*
X023017Y014278D01*
X023017Y014201D02*
X023055Y014201D01*
X023055Y014124D02*
X023017Y014124D01*
X023017Y014046D02*
X023055Y014046D01*
X023055Y013969D02*
X023017Y013969D01*
X023017Y013892D02*
X023055Y013892D01*
X023055Y013815D02*
X023017Y013815D01*
X023017Y013737D02*
X023055Y013737D01*
X023055Y013660D02*
X023017Y013660D01*
X023017Y013583D02*
X023055Y013583D01*
X023055Y013506D02*
X023017Y013506D01*
X023017Y013428D02*
X023055Y013428D01*
X023055Y013351D02*
X023017Y013351D01*
X023017Y013274D02*
X023055Y013274D01*
X023055Y013197D02*
X023017Y013197D01*
X023017Y013119D02*
X023055Y013119D01*
X023055Y013042D02*
X023017Y013042D01*
X023017Y012965D02*
X023055Y012965D01*
X023055Y012888D02*
X023017Y012888D01*
X023017Y012810D02*
X023055Y012810D01*
X023055Y012733D02*
X023017Y012733D01*
X023017Y012656D02*
X023055Y012656D01*
X023055Y012579D02*
X023017Y012579D01*
X023017Y012501D02*
X023055Y012501D01*
X023055Y012424D02*
X023017Y012424D01*
X023017Y012347D02*
X023055Y012347D01*
X023055Y012270D02*
X023017Y012270D01*
X023017Y012192D02*
X023055Y012192D01*
X023055Y012115D02*
X023017Y012115D01*
X023017Y012038D02*
X023055Y012038D01*
X023055Y011961D02*
X023017Y011961D01*
X023017Y011884D02*
X023055Y011884D01*
X023055Y011806D02*
X023017Y011806D01*
X023017Y011729D02*
X023055Y011729D01*
X023055Y011652D02*
X023017Y011652D01*
X023017Y011575D02*
X023055Y011575D01*
X023055Y011497D02*
X023017Y011497D01*
X023017Y011420D02*
X023055Y011420D01*
X023055Y011343D02*
X023017Y011343D01*
X023017Y011266D02*
X023055Y011266D01*
X023055Y011188D02*
X023017Y011188D01*
X023017Y011111D02*
X023055Y011111D01*
X023055Y011034D02*
X023017Y011034D01*
X023017Y010957D02*
X023055Y010957D01*
X023055Y010879D02*
X023017Y010879D01*
X023017Y010802D02*
X023055Y010802D01*
X023055Y010725D02*
X023017Y010725D01*
X023017Y010648D02*
X023055Y010648D01*
X023055Y010570D02*
X023017Y010570D01*
X023017Y010493D02*
X023055Y010493D01*
X023036Y010416D02*
X023017Y010416D01*
X023308Y010184D02*
X023433Y010184D01*
X023385Y010261D02*
X023512Y010261D01*
X023592Y010339D02*
X023411Y010339D01*
X023411Y010416D02*
X023671Y010416D01*
X023751Y010493D02*
X023411Y010493D01*
X023411Y010570D02*
X023830Y010570D01*
X023910Y010648D02*
X023411Y010648D01*
X023411Y010725D02*
X023990Y010725D01*
X024069Y010802D02*
X023411Y010802D01*
X023411Y010879D02*
X024149Y010879D01*
X024228Y010957D02*
X023411Y010957D01*
X023411Y011034D02*
X024308Y011034D01*
X024388Y011111D02*
X023411Y011111D01*
X023411Y011188D02*
X024467Y011188D01*
X024547Y011266D02*
X023411Y011266D01*
X023411Y011343D02*
X024626Y011343D01*
X024706Y011420D02*
X023411Y011420D01*
X023411Y011497D02*
X024785Y011497D01*
X024865Y011575D02*
X023411Y011575D01*
X023411Y011652D02*
X024945Y011652D01*
X025024Y011729D02*
X023411Y011729D01*
X023411Y011806D02*
X025104Y011806D01*
X025183Y011884D02*
X023411Y011884D01*
X023411Y011961D02*
X025263Y011961D01*
X025342Y012038D02*
X023411Y012038D01*
X023411Y012115D02*
X025422Y012115D01*
X025502Y012192D02*
X023411Y012192D01*
X023411Y012270D02*
X025581Y012270D01*
X025661Y012347D02*
X023411Y012347D01*
X023411Y012424D02*
X025740Y012424D01*
X025820Y012501D02*
X023411Y012501D01*
X023411Y012579D02*
X025900Y012579D01*
X025928Y012656D02*
X023411Y012656D01*
X023411Y012733D02*
X025951Y012733D01*
X026006Y012810D02*
X023411Y012810D01*
X022661Y012810D02*
X022268Y012810D01*
X022269Y012806D02*
X022206Y012958D01*
X022090Y013075D01*
X021938Y013138D01*
X021773Y013138D01*
X021620Y013075D01*
X021504Y012958D01*
X021441Y012806D01*
X021441Y012641D01*
X021504Y012489D01*
X021620Y012372D01*
X021773Y012309D01*
X021938Y012309D01*
X022090Y012372D01*
X022206Y012489D01*
X022269Y012641D01*
X022269Y012806D01*
X022269Y012733D02*
X022661Y012733D01*
X022661Y012656D02*
X022269Y012656D01*
X022244Y012579D02*
X022661Y012579D01*
X022661Y012501D02*
X022212Y012501D01*
X022142Y012424D02*
X022661Y012424D01*
X022661Y012347D02*
X022029Y012347D01*
X021906Y012092D02*
X021805Y012092D01*
X021711Y012053D01*
X021693Y012035D01*
X021131Y012035D01*
X021113Y012053D01*
X021020Y012092D01*
X020919Y012092D01*
X020825Y012053D01*
X020754Y011982D01*
X020715Y011888D01*
X020715Y011787D01*
X020754Y011694D01*
X020825Y011622D01*
X020919Y011583D01*
X021020Y011583D01*
X021113Y011622D01*
X021131Y011640D01*
X021693Y011640D01*
X021711Y011622D01*
X021805Y011583D01*
X021906Y011583D01*
X021999Y011622D01*
X022071Y011694D01*
X022109Y011787D01*
X022109Y011888D01*
X022071Y011982D01*
X021999Y012053D01*
X021906Y012092D01*
X022014Y012038D02*
X022661Y012038D01*
X022661Y011961D02*
X022079Y011961D01*
X022109Y011884D02*
X022661Y011884D01*
X022661Y011806D02*
X022109Y011806D01*
X022085Y011729D02*
X022661Y011729D01*
X022661Y011652D02*
X022029Y011652D01*
X021696Y012038D02*
X021129Y012038D01*
X020810Y012038D02*
X018804Y012038D01*
X018804Y011961D02*
X020745Y011961D01*
X020715Y011884D02*
X018804Y011884D01*
X018804Y011806D02*
X020715Y011806D01*
X020739Y011729D02*
X018804Y011729D01*
X018804Y011652D02*
X020795Y011652D01*
X021568Y012424D02*
X018804Y012424D01*
X018804Y012347D02*
X021681Y012347D01*
X021499Y012501D02*
X018804Y012501D01*
X018804Y012579D02*
X021467Y012579D01*
X021441Y012656D02*
X018804Y012656D01*
X018804Y012733D02*
X021441Y012733D01*
X021443Y012810D02*
X018804Y012810D01*
X018804Y012888D02*
X021475Y012888D01*
X021511Y012965D02*
X018804Y012965D01*
X018804Y013042D02*
X021588Y013042D01*
X021728Y013119D02*
X018804Y013119D01*
X018804Y013197D02*
X022661Y013197D01*
X022661Y013274D02*
X018804Y013274D01*
X018804Y013351D02*
X022661Y013351D01*
X022661Y013428D02*
X018804Y013428D01*
X018804Y013506D02*
X022661Y013506D01*
X022661Y013583D02*
X018804Y013583D01*
X018804Y013660D02*
X022661Y013660D01*
X022661Y013737D02*
X018804Y013737D01*
X018804Y013815D02*
X022661Y013815D01*
X022661Y013892D02*
X018804Y013892D01*
X018804Y013969D02*
X022661Y013969D01*
X022661Y014046D02*
X018804Y014046D01*
X018804Y014124D02*
X022661Y014124D01*
X022661Y014201D02*
X020745Y014201D01*
X020722Y014178D02*
X020794Y014250D01*
X020834Y014345D01*
X020834Y014448D01*
X020794Y014543D01*
X020722Y014615D01*
X020627Y014655D01*
X020524Y014655D01*
X020429Y014615D01*
X020357Y014543D01*
X020317Y014448D01*
X020317Y014345D01*
X020357Y014250D01*
X020429Y014178D01*
X020524Y014139D01*
X020627Y014139D01*
X020722Y014178D01*
X020806Y014278D02*
X022661Y014278D01*
X022661Y014355D02*
X020834Y014355D01*
X020834Y014432D02*
X022661Y014432D01*
X022661Y014510D02*
X020808Y014510D01*
X020750Y014587D02*
X022661Y014587D01*
X022661Y014664D02*
X018804Y014664D01*
X018804Y014587D02*
X020401Y014587D01*
X020343Y014510D02*
X018804Y014510D01*
X018804Y014432D02*
X020317Y014432D01*
X020317Y014355D02*
X018804Y014355D01*
X018804Y014278D02*
X020345Y014278D01*
X020406Y014201D02*
X018804Y014201D01*
X018804Y014741D02*
X022661Y014741D01*
X022661Y014819D02*
X018804Y014819D01*
X018804Y014896D02*
X022661Y014896D01*
X022661Y014973D02*
X018804Y014973D01*
X018804Y015050D02*
X022661Y015050D01*
X022661Y015128D02*
X018804Y015128D01*
X018804Y015205D02*
X022661Y015205D01*
X022661Y015282D02*
X018804Y015282D01*
X018804Y015359D02*
X022661Y015359D01*
X022661Y015437D02*
X018804Y015437D01*
X018804Y015514D02*
X022661Y015514D01*
X022661Y015591D02*
X018804Y015591D01*
X018804Y015668D02*
X022661Y015668D01*
X022661Y015746D02*
X018804Y015746D01*
X018804Y015823D02*
X021295Y015823D01*
X021312Y015816D02*
X021414Y015816D01*
X021507Y015854D01*
X021579Y015926D01*
X021617Y016019D01*
X021617Y016120D01*
X021579Y016214D01*
X021507Y016286D01*
X021463Y016304D01*
X021513Y016304D01*
X021608Y016343D01*
X021680Y016416D01*
X021720Y016511D01*
X021720Y016613D01*
X021680Y016708D01*
X021608Y016781D01*
X021513Y016820D01*
X021410Y016820D01*
X021315Y016781D01*
X021243Y016708D01*
X021203Y016613D01*
X021203Y016511D01*
X021243Y016416D01*
X021315Y016343D01*
X021361Y016324D01*
X021312Y016324D01*
X021219Y016286D01*
X021147Y016214D01*
X021109Y016120D01*
X021109Y016019D01*
X021147Y015926D01*
X021219Y015854D01*
X021312Y015816D01*
X021431Y015823D02*
X022661Y015823D01*
X022661Y015900D02*
X021553Y015900D01*
X021600Y015977D02*
X022661Y015977D01*
X022661Y016055D02*
X021617Y016055D01*
X021613Y016132D02*
X022661Y016132D01*
X022661Y016209D02*
X021581Y016209D01*
X021505Y016286D02*
X022661Y016286D01*
X022661Y016363D02*
X021628Y016363D01*
X021691Y016441D02*
X022661Y016441D01*
X022661Y016518D02*
X021720Y016518D01*
X021720Y016595D02*
X022661Y016595D01*
X022661Y016672D02*
X021695Y016672D01*
X021639Y016750D02*
X022661Y016750D01*
X022661Y016827D02*
X018804Y016827D01*
X018804Y016904D02*
X022661Y016904D01*
X022661Y016981D02*
X018804Y016981D01*
X018804Y017059D02*
X022661Y017059D01*
X022661Y017136D02*
X018804Y017136D01*
X018804Y017213D02*
X022661Y017213D01*
X022661Y017290D02*
X018804Y017290D01*
X018804Y017368D02*
X022661Y017368D01*
X022661Y017445D02*
X018804Y017445D01*
X018804Y017522D02*
X022612Y017522D01*
X022534Y017599D02*
X018804Y017599D01*
X018804Y017677D02*
X022457Y017677D01*
X022380Y017754D02*
X020065Y017754D01*
X020033Y017721D02*
X020105Y017794D01*
X020145Y017889D01*
X020145Y017991D01*
X020105Y018086D01*
X020033Y018159D01*
X019938Y018198D01*
X019835Y018198D01*
X019740Y018159D01*
X019668Y018086D01*
X019629Y017991D01*
X019629Y017889D01*
X019668Y017794D01*
X019740Y017721D01*
X019835Y017682D01*
X019938Y017682D01*
X020033Y017721D01*
X020121Y017831D02*
X022303Y017831D01*
X022225Y017908D02*
X020145Y017908D01*
X020145Y017986D02*
X022148Y017986D01*
X022071Y018063D02*
X020115Y018063D01*
X020052Y018140D02*
X021994Y018140D01*
X021916Y018217D02*
X018804Y018217D01*
X018804Y018140D02*
X019722Y018140D01*
X019658Y018063D02*
X018804Y018063D01*
X018804Y017986D02*
X019629Y017986D01*
X019629Y017908D02*
X018804Y017908D01*
X018804Y017831D02*
X019652Y017831D01*
X019708Y017754D02*
X018804Y017754D01*
X018804Y018294D02*
X021839Y018294D01*
X021762Y018372D02*
X018804Y018372D01*
X018804Y018449D02*
X021685Y018449D01*
X021608Y018526D02*
X018804Y018526D01*
X018804Y018603D02*
X021530Y018603D01*
X021453Y018681D02*
X019186Y018681D01*
X019298Y018758D02*
X021376Y018758D01*
X021299Y018835D02*
X019342Y018835D01*
X019357Y018912D02*
X021221Y018912D01*
X021144Y018990D02*
X019351Y018990D01*
X019319Y019067D02*
X021067Y019067D01*
X020990Y019144D02*
X019243Y019144D01*
X019101Y019221D02*
X020988Y019221D01*
X020988Y019299D02*
X019178Y019299D01*
X019256Y019376D02*
X020988Y019376D01*
X020988Y019453D02*
X019333Y019453D01*
X019410Y019530D02*
X020988Y019530D01*
X020988Y019608D02*
X019487Y019608D01*
X019565Y019685D02*
X020988Y019685D01*
X020953Y019762D02*
X019642Y019762D01*
X019719Y019839D02*
X020919Y019839D01*
X020912Y019917D02*
X019796Y019917D01*
X019873Y019994D02*
X020926Y019994D01*
X020969Y020071D02*
X019951Y020071D01*
X020028Y020148D02*
X021080Y020148D01*
X021252Y020148D02*
X021868Y020148D01*
X021756Y020071D02*
X021363Y020071D01*
X021406Y019994D02*
X021714Y019994D01*
X021699Y019917D02*
X021421Y019917D01*
X021413Y019839D02*
X021707Y019839D01*
X021740Y019762D02*
X021379Y019762D01*
X020491Y020612D02*
X026874Y020612D01*
X026874Y020689D02*
X025363Y020689D01*
X025348Y020674D02*
X025420Y020747D01*
X025460Y020841D01*
X025460Y020944D01*
X025420Y021039D01*
X025348Y021112D01*
X025253Y021151D01*
X025150Y021151D01*
X025055Y021112D01*
X024983Y021039D01*
X024943Y020944D01*
X024943Y020841D01*
X024983Y020747D01*
X025055Y020674D01*
X025150Y020635D01*
X025253Y020635D01*
X025348Y020674D01*
X025429Y020766D02*
X026874Y020766D01*
X026874Y020843D02*
X025460Y020843D01*
X025460Y020921D02*
X026874Y020921D01*
X026874Y020998D02*
X025437Y020998D01*
X025384Y021075D02*
X026874Y021075D01*
X026874Y021152D02*
X024180Y021152D01*
X024180Y021230D02*
X026874Y021230D01*
X026874Y020534D02*
X020414Y020534D01*
X020337Y020457D02*
X026874Y020457D01*
X026874Y020380D02*
X020260Y020380D01*
X020569Y020689D02*
X025040Y020689D01*
X024975Y020766D02*
X020646Y020766D01*
X020723Y020843D02*
X024943Y020843D01*
X024943Y020921D02*
X020800Y020921D01*
X020878Y020998D02*
X022960Y020998D01*
X022902Y021075D02*
X020955Y021075D01*
X021032Y021152D02*
X022877Y021152D01*
X022877Y021230D02*
X021622Y021230D01*
X021498Y021230D02*
X021120Y021230D01*
X021068Y021483D02*
X019690Y021483D01*
X014769Y016562D01*
X009552Y016562D01*
X009060Y017054D01*
X009060Y017940D01*
X009060Y034275D01*
X009058Y034277D01*
X009255Y034277D01*
X011422Y036444D01*
X015753Y036444D01*
X017623Y038314D01*
X017623Y041660D01*
X018607Y041660D02*
X018607Y038117D01*
X015851Y035361D01*
X012603Y035361D01*
X010536Y033294D01*
X010536Y018432D01*
X015753Y018432D01*
X016343Y019023D01*
X016343Y021680D01*
X016934Y022271D01*
X020969Y022271D01*
X021265Y022566D01*
X021265Y022763D01*
X021658Y023156D01*
X021658Y024338D01*
X021954Y024633D01*
X022347Y024633D01*
X022347Y026011D01*
X022741Y026306D02*
X022741Y024534D01*
X022446Y024239D01*
X022446Y023255D01*
X022249Y023058D01*
X021855Y023058D01*
X021461Y022664D01*
X021461Y022271D01*
X021166Y021975D01*
X021068Y021975D01*
X019788Y021975D01*
X014670Y016857D01*
X009847Y016857D01*
X009847Y032507D01*
X009847Y034180D01*
X011717Y036050D01*
X015851Y036050D01*
X018115Y038314D01*
X018115Y042743D01*
X018115Y043826D01*
X019001Y044712D01*
X019001Y047468D01*
X018509Y047960D01*
X018763Y047955D02*
X019042Y047955D01*
X019042Y047909D02*
X019080Y047816D01*
X019152Y047744D01*
X019157Y047742D01*
X019157Y046385D01*
X019140Y046385D01*
X019140Y047525D01*
X018761Y047904D01*
X018763Y047909D01*
X018763Y048010D01*
X018724Y048104D01*
X018653Y048175D01*
X018559Y048214D01*
X018458Y048214D01*
X018365Y048175D01*
X018293Y048104D01*
X018254Y048010D01*
X018254Y047909D01*
X018293Y047816D01*
X018365Y047744D01*
X018458Y047705D01*
X018559Y047705D01*
X018565Y047707D01*
X018862Y047410D01*
X018862Y046385D01*
X017622Y046385D01*
X017860Y046623D01*
X017860Y047738D01*
X017867Y047741D01*
X017940Y047813D01*
X017979Y047908D01*
X017979Y048011D01*
X017940Y048106D01*
X017867Y048178D01*
X017773Y048218D01*
X017670Y048218D01*
X017575Y048178D01*
X017502Y048106D01*
X017463Y048011D01*
X017463Y047908D01*
X017502Y047813D01*
X017575Y047741D01*
X017583Y047738D01*
X017583Y046738D01*
X017369Y046524D01*
X017137Y046524D01*
X017150Y046536D01*
X017188Y046630D01*
X017188Y046731D01*
X017150Y046824D01*
X017078Y046896D01*
X017073Y046898D01*
X017073Y047742D01*
X017078Y047744D01*
X017150Y047816D01*
X017188Y047909D01*
X017188Y048010D01*
X017150Y048104D01*
X017078Y048175D01*
X016984Y048214D01*
X016883Y048214D01*
X016790Y048175D01*
X016718Y048104D01*
X016679Y048010D01*
X016679Y047909D01*
X016718Y047816D01*
X016790Y047744D01*
X016795Y047742D01*
X016795Y046898D01*
X016790Y046896D01*
X016718Y046824D01*
X016679Y046731D01*
X016679Y046630D01*
X016718Y046536D01*
X016731Y046524D01*
X016172Y046524D01*
X016168Y046531D01*
X016096Y046604D01*
X016001Y046643D01*
X015898Y046643D01*
X015803Y046604D01*
X015731Y046531D01*
X015691Y046436D01*
X015691Y046385D01*
X012372Y046385D01*
X012354Y046404D01*
X012260Y046442D01*
X012159Y046442D01*
X012065Y046404D01*
X012047Y046385D01*
X011782Y046385D01*
X011763Y046404D01*
X011669Y046442D01*
X011568Y046442D01*
X011475Y046404D01*
X011456Y046385D01*
X007388Y046385D01*
X007388Y048451D01*
X026874Y048451D01*
X026874Y046385D01*
X020222Y046385D01*
X020222Y047742D01*
X020228Y047744D01*
X020299Y047816D01*
X020338Y047909D01*
X020338Y048010D01*
X020299Y048104D01*
X020228Y048175D01*
X020134Y048214D01*
X020033Y048214D01*
X019939Y048175D01*
X019868Y048104D01*
X019829Y048010D01*
X019829Y047909D01*
X019868Y047816D01*
X019939Y047744D01*
X019945Y047742D01*
X019945Y046385D01*
X019435Y046385D01*
X019435Y047742D01*
X019440Y047744D01*
X019512Y047816D01*
X019550Y047909D01*
X019550Y048010D01*
X019512Y048104D01*
X019440Y048175D01*
X019347Y048214D01*
X019245Y048214D01*
X019152Y048175D01*
X019080Y048104D01*
X019042Y048010D01*
X019042Y047909D01*
X019055Y047878D02*
X018787Y047878D01*
X018864Y047800D02*
X019096Y047800D01*
X019157Y047723D02*
X018941Y047723D01*
X019019Y047646D02*
X019157Y047646D01*
X019157Y047569D02*
X019096Y047569D01*
X019140Y047491D02*
X019157Y047491D01*
X019157Y047414D02*
X019140Y047414D01*
X019140Y047337D02*
X019157Y047337D01*
X019157Y047260D02*
X019140Y047260D01*
X019140Y047182D02*
X019157Y047182D01*
X019157Y047105D02*
X019140Y047105D01*
X019140Y047028D02*
X019157Y047028D01*
X019157Y046951D02*
X019140Y046951D01*
X019140Y046873D02*
X019157Y046873D01*
X019157Y046796D02*
X019140Y046796D01*
X019140Y046719D02*
X019157Y046719D01*
X019157Y046642D02*
X019140Y046642D01*
X019140Y046564D02*
X019157Y046564D01*
X019157Y046487D02*
X019140Y046487D01*
X019140Y046410D02*
X019157Y046410D01*
X019435Y046410D02*
X019945Y046410D01*
X019945Y046487D02*
X019435Y046487D01*
X019435Y046564D02*
X019945Y046564D01*
X019945Y046642D02*
X019435Y046642D01*
X019435Y046719D02*
X019945Y046719D01*
X019945Y046796D02*
X019435Y046796D01*
X019435Y046873D02*
X019945Y046873D01*
X019945Y046951D02*
X019435Y046951D01*
X019435Y047028D02*
X019945Y047028D01*
X019945Y047105D02*
X019435Y047105D01*
X019435Y047182D02*
X019945Y047182D01*
X019945Y047260D02*
X019435Y047260D01*
X019435Y047337D02*
X019945Y047337D01*
X019945Y047414D02*
X019435Y047414D01*
X019435Y047491D02*
X019945Y047491D01*
X019945Y047569D02*
X019435Y047569D01*
X019435Y047646D02*
X019945Y047646D01*
X019945Y047723D02*
X019435Y047723D01*
X019496Y047800D02*
X019883Y047800D01*
X019842Y047878D02*
X019537Y047878D01*
X019550Y047955D02*
X019829Y047955D01*
X019838Y048032D02*
X019541Y048032D01*
X019506Y048109D02*
X019873Y048109D01*
X019966Y048187D02*
X019413Y048187D01*
X019179Y048187D02*
X018626Y048187D01*
X018719Y048109D02*
X019086Y048109D01*
X019051Y048032D02*
X018754Y048032D01*
X018392Y048187D02*
X017848Y048187D01*
X017937Y048109D02*
X018299Y048109D01*
X018263Y048032D02*
X017971Y048032D01*
X017979Y047955D02*
X018254Y047955D01*
X018267Y047878D02*
X017967Y047878D01*
X017927Y047800D02*
X018308Y047800D01*
X018415Y047723D02*
X017860Y047723D01*
X017860Y047646D02*
X018626Y047646D01*
X018703Y047569D02*
X017860Y047569D01*
X017860Y047491D02*
X018781Y047491D01*
X018858Y047414D02*
X017860Y047414D01*
X017860Y047337D02*
X018862Y047337D01*
X018862Y047260D02*
X017860Y047260D01*
X017860Y047182D02*
X018862Y047182D01*
X018862Y047105D02*
X017860Y047105D01*
X017860Y047028D02*
X018862Y047028D01*
X018862Y046951D02*
X017860Y046951D01*
X017860Y046873D02*
X018862Y046873D01*
X018862Y046796D02*
X017860Y046796D01*
X017860Y046719D02*
X018862Y046719D01*
X018862Y046642D02*
X017860Y046642D01*
X017802Y046564D02*
X018862Y046564D01*
X018862Y046487D02*
X017725Y046487D01*
X017647Y046410D02*
X018862Y046410D01*
X017721Y046680D02*
X017426Y046385D01*
X015950Y046385D01*
X016135Y046564D02*
X016706Y046564D01*
X016679Y046642D02*
X016004Y046642D01*
X015895Y046642D02*
X015578Y046642D01*
X015575Y046634D02*
X015613Y046728D01*
X015613Y046829D01*
X015575Y046923D01*
X015503Y046994D01*
X015410Y047033D01*
X015308Y047033D01*
X015215Y046994D01*
X015143Y046923D01*
X015105Y046829D01*
X015105Y046728D01*
X015143Y046634D01*
X015215Y046563D01*
X015308Y046524D01*
X015410Y046524D01*
X015503Y046563D01*
X015575Y046634D01*
X015610Y046719D02*
X016679Y046719D01*
X016707Y046796D02*
X015613Y046796D01*
X015595Y046873D02*
X016767Y046873D01*
X016795Y046951D02*
X015547Y046951D01*
X015422Y047028D02*
X016795Y047028D01*
X016795Y047105D02*
X014730Y047105D01*
X014730Y047028D02*
X015296Y047028D01*
X015171Y046951D02*
X014765Y046951D01*
X014790Y046925D02*
X014730Y046985D01*
X014730Y047851D01*
X014790Y047912D01*
X014830Y048007D01*
X014830Y048109D01*
X016724Y048109D01*
X016689Y048032D02*
X014830Y048032D01*
X014830Y048109D02*
X014790Y048204D01*
X014718Y048277D01*
X014623Y048316D01*
X014520Y048316D01*
X014425Y048277D01*
X014353Y048204D01*
X014314Y048109D01*
X007388Y048109D01*
X007388Y048032D02*
X008295Y048032D01*
X008334Y048048D02*
X008084Y047945D01*
X007893Y047754D01*
X007790Y047504D01*
X007790Y047234D01*
X007893Y046984D01*
X008084Y046793D01*
X008334Y046690D01*
X008604Y046690D01*
X008854Y046793D01*
X009045Y046984D01*
X009149Y047234D01*
X009149Y047504D01*
X009045Y047754D01*
X008854Y047945D01*
X008604Y048048D01*
X008334Y048048D01*
X008108Y047955D02*
X007388Y047955D01*
X007388Y047878D02*
X008017Y047878D01*
X007940Y047800D02*
X007388Y047800D01*
X007388Y047723D02*
X007881Y047723D01*
X007849Y047646D02*
X007388Y047646D01*
X007388Y047569D02*
X007817Y047569D01*
X007790Y047491D02*
X007388Y047491D01*
X007388Y047414D02*
X007790Y047414D01*
X007790Y047337D02*
X007388Y047337D01*
X007388Y047260D02*
X007790Y047260D01*
X007811Y047182D02*
X007388Y047182D01*
X007388Y047105D02*
X007843Y047105D01*
X007875Y047028D02*
X007388Y047028D01*
X007388Y046951D02*
X007927Y046951D01*
X008004Y046873D02*
X007388Y046873D01*
X007388Y046796D02*
X008081Y046796D01*
X008264Y046719D02*
X007388Y046719D01*
X007388Y046642D02*
X014349Y046642D01*
X014353Y046632D02*
X014425Y046560D01*
X014520Y046520D01*
X014623Y046520D01*
X014718Y046560D01*
X014790Y046632D01*
X014830Y046727D01*
X014830Y046830D01*
X014790Y046925D01*
X014812Y046873D02*
X015123Y046873D01*
X015105Y046796D02*
X014830Y046796D01*
X014826Y046719D02*
X015108Y046719D01*
X015140Y046642D02*
X014794Y046642D01*
X014723Y046564D02*
X015213Y046564D01*
X015505Y046564D02*
X015764Y046564D01*
X015713Y046487D02*
X007388Y046487D01*
X007388Y046410D02*
X011490Y046410D01*
X011619Y046188D02*
X012209Y046188D01*
X012081Y046410D02*
X011748Y046410D01*
X012338Y046410D02*
X015691Y046410D01*
X014730Y047182D02*
X016795Y047182D01*
X016795Y047260D02*
X014730Y047260D01*
X014730Y047337D02*
X016795Y047337D01*
X016795Y047414D02*
X014730Y047414D01*
X014730Y047491D02*
X016795Y047491D01*
X016795Y047569D02*
X014730Y047569D01*
X014730Y047646D02*
X016795Y047646D01*
X016795Y047723D02*
X014730Y047723D01*
X014730Y047800D02*
X016733Y047800D01*
X016693Y047878D02*
X014756Y047878D01*
X014808Y047955D02*
X016679Y047955D01*
X016934Y047960D02*
X016934Y046680D01*
X017161Y046564D02*
X017409Y046564D01*
X017487Y046642D02*
X017188Y046642D01*
X017188Y046719D02*
X017564Y046719D01*
X017583Y046796D02*
X017161Y046796D01*
X017100Y046873D02*
X017583Y046873D01*
X017583Y046951D02*
X017073Y046951D01*
X017073Y047028D02*
X017583Y047028D01*
X017583Y047105D02*
X017073Y047105D01*
X017073Y047182D02*
X017583Y047182D01*
X017583Y047260D02*
X017073Y047260D01*
X017073Y047337D02*
X017583Y047337D01*
X017583Y047414D02*
X017073Y047414D01*
X017073Y047491D02*
X017583Y047491D01*
X017583Y047569D02*
X017073Y047569D01*
X017073Y047646D02*
X017583Y047646D01*
X017583Y047723D02*
X017073Y047723D01*
X017134Y047800D02*
X017516Y047800D01*
X017476Y047878D02*
X017175Y047878D01*
X017188Y047955D02*
X017463Y047955D01*
X017472Y048032D02*
X017179Y048032D01*
X017144Y048109D02*
X017506Y048109D01*
X017595Y048187D02*
X017051Y048187D01*
X016817Y048187D02*
X014798Y048187D01*
X014731Y048264D02*
X026874Y048264D01*
X026874Y048341D02*
X007388Y048341D01*
X007388Y048264D02*
X014412Y048264D01*
X014345Y048187D02*
X007388Y048187D01*
X007388Y048418D02*
X026874Y048418D01*
X026874Y048187D02*
X020200Y048187D01*
X020294Y048109D02*
X026874Y048109D01*
X026874Y048032D02*
X025967Y048032D01*
X025927Y048048D02*
X025657Y048048D01*
X025407Y047945D01*
X025216Y047754D01*
X025113Y047504D01*
X025113Y047234D01*
X025216Y046984D01*
X025407Y046793D01*
X025657Y046690D01*
X025927Y046690D01*
X026177Y046793D01*
X026368Y046984D01*
X026471Y047234D01*
X026471Y047504D01*
X026368Y047754D01*
X026177Y047945D01*
X025927Y048048D01*
X026153Y047955D02*
X026874Y047955D01*
X026874Y047878D02*
X026244Y047878D01*
X026322Y047800D02*
X026874Y047800D01*
X026874Y047723D02*
X026381Y047723D01*
X026413Y047646D02*
X026874Y047646D01*
X026874Y047569D02*
X026445Y047569D01*
X026471Y047491D02*
X026874Y047491D01*
X026874Y047414D02*
X026471Y047414D01*
X026471Y047337D02*
X026874Y047337D01*
X026874Y047260D02*
X026471Y047260D01*
X026450Y047182D02*
X026874Y047182D01*
X026874Y047105D02*
X026418Y047105D01*
X026386Y047028D02*
X026874Y047028D01*
X026874Y046951D02*
X026334Y046951D01*
X026257Y046873D02*
X026874Y046873D01*
X026874Y046796D02*
X026180Y046796D01*
X025998Y046719D02*
X026874Y046719D01*
X026874Y046642D02*
X020222Y046642D01*
X020222Y046719D02*
X025586Y046719D01*
X025404Y046796D02*
X020222Y046796D01*
X020222Y046873D02*
X025327Y046873D01*
X025250Y046951D02*
X020222Y046951D01*
X020222Y047028D02*
X025198Y047028D01*
X025166Y047105D02*
X020222Y047105D01*
X020222Y047182D02*
X025134Y047182D01*
X025113Y047260D02*
X020222Y047260D01*
X020222Y047337D02*
X025113Y047337D01*
X025113Y047414D02*
X020222Y047414D01*
X020222Y047491D02*
X025113Y047491D01*
X025139Y047569D02*
X020222Y047569D01*
X020222Y047646D02*
X025171Y047646D01*
X025203Y047723D02*
X020222Y047723D01*
X020284Y047800D02*
X025263Y047800D01*
X025340Y047878D02*
X020325Y047878D01*
X020338Y047955D02*
X025431Y047955D01*
X025617Y048032D02*
X020329Y048032D01*
X020083Y047960D02*
X020083Y043924D01*
X019690Y043531D01*
X019099Y043531D01*
X018509Y043531D02*
X019296Y044318D01*
X019296Y047960D01*
X017721Y047960D02*
X017721Y046680D01*
X020222Y046564D02*
X026874Y046564D01*
X026874Y046487D02*
X020222Y046487D01*
X020222Y046410D02*
X026874Y046410D01*
X026087Y044515D02*
X025989Y044531D01*
X026087Y042546D02*
X025989Y042531D01*
X023824Y033885D02*
X023824Y033491D01*
X023233Y032901D01*
X021954Y032901D01*
X021757Y032704D01*
X021757Y031031D01*
X021265Y030538D01*
X021265Y029554D01*
X020772Y029062D01*
X020280Y029849D02*
X020379Y029948D01*
X020379Y031818D01*
X020772Y032212D01*
X020772Y032999D01*
X020871Y033097D01*
X023135Y033097D01*
X023331Y033294D01*
X023331Y033590D01*
X026678Y030735D02*
X026678Y028373D01*
X026481Y028176D01*
X024217Y028176D01*
X023627Y027586D01*
X022150Y027586D01*
X020969Y026405D01*
X019394Y026405D01*
X020674Y025420D02*
X021265Y024731D01*
X022643Y024042D02*
X022643Y023156D01*
X022347Y022861D01*
X021954Y022861D01*
X021658Y022566D01*
X021658Y022074D01*
X021068Y021483D01*
X022052Y022566D02*
X024906Y022566D01*
X024709Y023944D02*
X024709Y026503D01*
X025497Y026503D02*
X025497Y024731D01*
X025103Y024338D02*
X025103Y027782D01*
X023135Y026601D02*
X023135Y024534D01*
X022643Y024042D01*
X023310Y020998D02*
X023353Y020998D01*
X023703Y020998D02*
X023747Y020998D01*
X024097Y020998D02*
X024966Y020998D01*
X025019Y021075D02*
X024155Y021075D01*
X025348Y020225D02*
X025843Y020225D01*
X025768Y020148D02*
X025422Y020148D01*
X025454Y020071D02*
X025736Y020071D01*
X025731Y019994D02*
X025460Y019994D01*
X025444Y019917D02*
X025747Y019917D01*
X025792Y019839D02*
X025399Y019839D01*
X025918Y016363D02*
X023411Y016363D01*
X023411Y016286D02*
X025857Y016286D01*
X025829Y016209D02*
X023411Y016209D01*
X023411Y016132D02*
X025829Y016132D01*
X025855Y016055D02*
X023411Y016055D01*
X023411Y015977D02*
X025913Y015977D01*
X022661Y013119D02*
X021982Y013119D01*
X022122Y013042D02*
X022661Y013042D01*
X022661Y012965D02*
X022200Y012965D01*
X022236Y012888D02*
X022661Y012888D01*
X022661Y012270D02*
X018804Y012270D01*
X018804Y012192D02*
X022661Y012192D01*
X022661Y012115D02*
X018804Y012115D01*
X018804Y011575D02*
X022661Y011575D01*
X022661Y011497D02*
X018804Y011497D01*
X018804Y011420D02*
X022661Y011420D01*
X022661Y011343D02*
X018804Y011343D01*
X018804Y011266D02*
X022661Y011266D01*
X022661Y011188D02*
X018804Y011188D01*
X018804Y011111D02*
X022661Y011111D01*
X022661Y011034D02*
X018804Y011034D01*
X018804Y010957D02*
X022661Y010957D01*
X022661Y010879D02*
X018804Y010879D01*
X018804Y010802D02*
X022661Y010802D01*
X022661Y010725D02*
X022060Y010725D01*
X022155Y010648D02*
X022661Y010648D01*
X022661Y010570D02*
X022217Y010570D01*
X022249Y010493D02*
X022621Y010493D01*
X022544Y010416D02*
X022269Y010416D01*
X022269Y010339D02*
X022467Y010339D01*
X022389Y010261D02*
X022262Y010261D01*
X022230Y010184D02*
X022312Y010184D01*
X022235Y010107D02*
X022187Y010107D01*
X021523Y010107D02*
X018648Y010107D01*
X018725Y010184D02*
X021480Y010184D01*
X021448Y010261D02*
X018803Y010261D01*
X018804Y010339D02*
X021441Y010339D01*
X021441Y010416D02*
X018804Y010416D01*
X018804Y010493D02*
X021461Y010493D01*
X021493Y010570D02*
X018804Y010570D01*
X018804Y010648D02*
X021556Y010648D01*
X021650Y010725D02*
X018804Y010725D01*
X015416Y010107D02*
X015078Y010107D01*
X015001Y010184D02*
X015339Y010184D01*
X015262Y010261D02*
X014923Y010261D01*
X014848Y010339D02*
X015261Y010339D01*
X015261Y010416D02*
X014848Y010416D01*
X014848Y010493D02*
X015261Y010493D01*
X015261Y010570D02*
X014848Y010570D01*
X014848Y010648D02*
X015261Y010648D01*
X015261Y010725D02*
X014848Y010725D01*
X014848Y010802D02*
X015261Y010802D01*
X015261Y010879D02*
X014848Y010879D01*
X014848Y010957D02*
X015261Y010957D01*
X015261Y011034D02*
X014848Y011034D01*
X014848Y011111D02*
X015261Y011111D01*
X015261Y011188D02*
X014848Y011188D01*
X014848Y011266D02*
X015261Y011266D01*
X015261Y011343D02*
X014848Y011343D01*
X014848Y011420D02*
X015261Y011420D01*
X015261Y011497D02*
X014848Y011497D01*
X014848Y011575D02*
X015261Y011575D01*
X015261Y011652D02*
X014848Y011652D01*
X014848Y011729D02*
X015261Y011729D01*
X015261Y011806D02*
X014848Y011806D01*
X014848Y011884D02*
X015261Y011884D01*
X015261Y011961D02*
X014848Y011961D01*
X014848Y012038D02*
X015261Y012038D01*
X015261Y012115D02*
X014848Y012115D01*
X014848Y012192D02*
X015261Y012192D01*
X015261Y012270D02*
X014848Y012270D01*
X014848Y012347D02*
X015261Y012347D01*
X015261Y012424D02*
X014848Y012424D01*
X014848Y012501D02*
X015261Y012501D01*
X015261Y012579D02*
X014848Y012579D01*
X014848Y012656D02*
X015261Y012656D01*
X015261Y012733D02*
X014848Y012733D01*
X014848Y012810D02*
X015261Y012810D01*
X015261Y012888D02*
X014848Y012888D01*
X014848Y012965D02*
X015261Y012965D01*
X015261Y013042D02*
X014848Y013042D01*
X014848Y013119D02*
X015261Y013119D01*
X015261Y013197D02*
X014848Y013197D01*
X014848Y013274D02*
X015261Y013274D01*
X015261Y013351D02*
X014848Y013351D01*
X014848Y013428D02*
X015261Y013428D01*
X015261Y013506D02*
X014848Y013506D01*
X014848Y013583D02*
X015261Y013583D01*
X015261Y013660D02*
X014848Y013660D01*
X014848Y013737D02*
X015261Y013737D01*
X015261Y013815D02*
X014848Y013815D01*
X014848Y013892D02*
X015261Y013892D01*
X015261Y013969D02*
X014891Y013969D01*
X014923Y014046D02*
X015261Y014046D01*
X015261Y014124D02*
X014924Y014124D01*
X014904Y014201D02*
X015260Y014201D01*
X015182Y014278D02*
X014853Y014278D01*
X014722Y014355D02*
X015105Y014355D01*
X015028Y014432D02*
X011975Y014432D01*
X011975Y014448D02*
X011936Y014543D01*
X011864Y014615D01*
X011769Y014655D01*
X011666Y014655D01*
X011571Y014615D01*
X011499Y014543D01*
X011459Y014448D01*
X011459Y014345D01*
X011499Y014250D01*
X011571Y014178D01*
X011666Y014139D01*
X011769Y014139D01*
X011864Y014178D01*
X011936Y014250D01*
X011975Y014345D01*
X011975Y014448D01*
X011950Y014510D02*
X014951Y014510D01*
X014873Y014587D02*
X011892Y014587D01*
X011975Y014355D02*
X014618Y014355D01*
X014487Y014278D02*
X011948Y014278D01*
X011886Y014201D02*
X014436Y014201D01*
X014416Y014124D02*
X009650Y014124D01*
X009650Y014201D02*
X011548Y014201D01*
X011487Y014278D02*
X009650Y014278D01*
X009650Y014355D02*
X011459Y014355D01*
X011459Y014432D02*
X009650Y014432D01*
X009665Y014510D02*
X011485Y014510D01*
X011543Y014587D02*
X009742Y014587D01*
X009820Y014664D02*
X014796Y014664D01*
X014719Y014741D02*
X009897Y014741D01*
X009974Y014819D02*
X014642Y014819D01*
X014418Y014046D02*
X009650Y014046D01*
X009650Y013969D02*
X014450Y013969D01*
X014492Y013892D02*
X009650Y013892D01*
X009650Y013815D02*
X014492Y013815D01*
X014492Y013737D02*
X009650Y013737D01*
X009650Y013660D02*
X014492Y013660D01*
X014492Y013583D02*
X009650Y013583D01*
X009650Y013506D02*
X014492Y013506D01*
X014492Y013428D02*
X009650Y013428D01*
X009650Y013351D02*
X014492Y013351D01*
X014492Y013274D02*
X009650Y013274D01*
X009650Y013197D02*
X014492Y013197D01*
X014492Y013119D02*
X012533Y013119D01*
X012489Y013138D02*
X012324Y013138D01*
X012172Y013075D01*
X012055Y012958D01*
X011992Y012806D01*
X011992Y012641D01*
X012055Y012489D01*
X012172Y012372D01*
X012324Y012309D01*
X012489Y012309D01*
X012641Y012372D01*
X012758Y012489D01*
X012821Y012641D01*
X012821Y012806D01*
X012758Y012958D01*
X012641Y013075D01*
X012489Y013138D01*
X012674Y013042D02*
X014492Y013042D01*
X014492Y012965D02*
X012751Y012965D01*
X012787Y012888D02*
X014492Y012888D01*
X014492Y012810D02*
X012819Y012810D01*
X012821Y012733D02*
X014492Y012733D01*
X014492Y012656D02*
X012821Y012656D01*
X012795Y012579D02*
X014492Y012579D01*
X014492Y012501D02*
X012763Y012501D01*
X012693Y012424D02*
X014492Y012424D01*
X014492Y012347D02*
X012580Y012347D01*
X012232Y012347D02*
X010968Y012347D01*
X011045Y012270D02*
X014492Y012270D01*
X014492Y012192D02*
X011122Y012192D01*
X011199Y012115D02*
X014492Y012115D01*
X014492Y012038D02*
X011277Y012038D01*
X011305Y011961D02*
X014492Y011961D01*
X014492Y011884D02*
X011305Y011884D01*
X011305Y011806D02*
X014492Y011806D01*
X014492Y011729D02*
X011305Y011729D01*
X011305Y011652D02*
X014492Y011652D01*
X014492Y011575D02*
X011305Y011575D01*
X011305Y011497D02*
X014492Y011497D01*
X014492Y011420D02*
X011305Y011420D01*
X011305Y011343D02*
X014492Y011343D01*
X014492Y011266D02*
X011305Y011266D01*
X011305Y011188D02*
X014492Y011188D01*
X014492Y011111D02*
X011305Y011111D01*
X011305Y011034D02*
X014492Y011034D01*
X014492Y010957D02*
X011305Y010957D01*
X011305Y010879D02*
X014492Y010879D01*
X014492Y010802D02*
X011305Y010802D01*
X011305Y010725D02*
X012202Y010725D01*
X012172Y010712D02*
X012055Y010596D01*
X011992Y010444D01*
X011992Y010279D01*
X012055Y010127D01*
X012172Y010010D01*
X012324Y009947D01*
X012489Y009947D01*
X012641Y010010D01*
X012758Y010127D01*
X012821Y010279D01*
X012821Y010444D01*
X012758Y010596D01*
X012641Y010712D01*
X012489Y010776D01*
X012324Y010776D01*
X012172Y010712D01*
X012107Y010648D02*
X011305Y010648D01*
X011305Y010570D02*
X012044Y010570D01*
X012013Y010493D02*
X011305Y010493D01*
X011305Y010416D02*
X011992Y010416D01*
X011992Y010339D02*
X011305Y010339D01*
X011305Y010261D02*
X011999Y010261D01*
X012031Y010184D02*
X011305Y010184D01*
X011305Y010107D02*
X012075Y010107D01*
X012152Y010030D02*
X011305Y010030D01*
X011305Y009953D02*
X012310Y009953D01*
X012502Y009953D02*
X014728Y009953D01*
X014651Y010030D02*
X012661Y010030D01*
X012738Y010107D02*
X014574Y010107D01*
X014497Y010184D02*
X012781Y010184D01*
X012813Y010261D02*
X014492Y010261D01*
X014492Y010339D02*
X012821Y010339D01*
X012821Y010416D02*
X014492Y010416D01*
X014492Y010493D02*
X012800Y010493D01*
X012768Y010570D02*
X014492Y010570D01*
X014492Y010648D02*
X012706Y010648D01*
X012611Y010725D02*
X014492Y010725D01*
X014806Y009875D02*
X011305Y009875D01*
X011351Y009798D02*
X014883Y009798D01*
X012120Y012424D02*
X010890Y012424D01*
X010813Y012501D02*
X012050Y012501D01*
X012018Y012579D02*
X010736Y012579D01*
X010659Y012656D02*
X011992Y012656D01*
X011992Y012733D02*
X010582Y012733D01*
X010504Y012810D02*
X011994Y012810D01*
X012026Y012888D02*
X010439Y012888D01*
X010378Y012965D02*
X012062Y012965D01*
X012139Y013042D02*
X010275Y013042D01*
X010010Y013042D02*
X009650Y013042D01*
X009650Y012965D02*
X009926Y012965D01*
X009894Y012888D02*
X009650Y012888D01*
X009650Y012810D02*
X009888Y012810D01*
X009904Y012733D02*
X009650Y012733D01*
X009650Y012656D02*
X009949Y012656D01*
X010065Y012579D02*
X009650Y012579D01*
X009650Y012501D02*
X010309Y012501D01*
X010387Y012424D02*
X009650Y012424D01*
X009650Y012347D02*
X010464Y012347D01*
X010541Y012270D02*
X009650Y012270D01*
X009650Y012192D02*
X010618Y012192D01*
X010232Y012579D02*
X010220Y012579D01*
X010044Y011936D02*
X010831Y011149D01*
X010693Y010957D02*
X009650Y010957D01*
X009650Y010879D02*
X010693Y010879D01*
X010693Y010802D02*
X009650Y010802D01*
X009650Y010725D02*
X010693Y010725D01*
X010693Y010648D02*
X009650Y010648D01*
X009650Y010570D02*
X010693Y010570D01*
X010693Y010493D02*
X009650Y010493D01*
X009650Y010416D02*
X010693Y010416D01*
X010693Y010339D02*
X009650Y010339D01*
X009650Y010261D02*
X010693Y010261D01*
X010693Y010184D02*
X009650Y010184D01*
X009650Y010107D02*
X010693Y010107D01*
X010693Y010030D02*
X009650Y010030D01*
X009650Y009953D02*
X010693Y009953D01*
X010693Y009875D02*
X009650Y009875D01*
X009650Y009798D02*
X010693Y009798D01*
X010693Y009721D02*
X009650Y009721D01*
X009650Y009644D02*
X010693Y009644D01*
X010693Y009566D02*
X009650Y009566D01*
X009650Y009489D02*
X010720Y009489D01*
X010797Y009412D02*
X009650Y009412D01*
X009650Y009335D02*
X010875Y009335D01*
X009454Y009335D02*
X007388Y009335D01*
X007388Y009412D02*
X009454Y009412D01*
X009454Y009489D02*
X007388Y009489D01*
X007388Y009566D02*
X009454Y009566D01*
X010044Y011936D02*
X008469Y011936D01*
X007879Y012527D01*
X007879Y022566D01*
X008174Y022861D01*
X013686Y018727D02*
X013784Y018826D01*
X014473Y018826D01*
X015654Y020007D01*
X015654Y028471D01*
X016146Y028865D02*
X015359Y029653D01*
X016146Y028865D02*
X016146Y026601D01*
X017032Y027782D02*
X017032Y024830D01*
X016639Y024436D01*
X016146Y024633D02*
X016146Y023649D01*
X016540Y023255D01*
X016737Y023255D01*
X016146Y024633D02*
X016540Y025027D01*
X016540Y030735D01*
X016048Y031227D01*
X019394Y029849D02*
X020280Y029849D01*
X018841Y018912D02*
X018804Y018912D01*
X018804Y018835D02*
X018857Y018835D01*
X018900Y018758D02*
X018804Y018758D01*
X018804Y018681D02*
X019013Y018681D01*
X018804Y016750D02*
X021284Y016750D01*
X021228Y016672D02*
X018804Y016672D01*
X018804Y016595D02*
X021203Y016595D01*
X021203Y016518D02*
X018804Y016518D01*
X018804Y016441D02*
X021232Y016441D01*
X021295Y016363D02*
X018804Y016363D01*
X018804Y016286D02*
X021221Y016286D01*
X021145Y016209D02*
X018804Y016209D01*
X018804Y016132D02*
X021113Y016132D01*
X021109Y016055D02*
X018804Y016055D01*
X018804Y015977D02*
X021126Y015977D01*
X021173Y015900D02*
X018804Y015900D01*
X023231Y010107D02*
X023353Y010107D01*
X023273Y010030D02*
X023153Y010030D01*
X023194Y009953D02*
X023076Y009953D01*
X023114Y009875D02*
X022999Y009875D01*
X023035Y009798D02*
X022922Y009798D01*
X022955Y009721D02*
X022845Y009721D01*
X022875Y009644D02*
X022767Y009644D01*
X022796Y009566D02*
X022690Y009566D01*
X012280Y013119D02*
X009650Y013119D01*
X009158Y037822D02*
X009158Y038806D01*
X009454Y039101D01*
X009454Y039889D01*
X009847Y040282D01*
X010635Y040282D01*
X008675Y046719D02*
X014317Y046719D01*
X014314Y046727D02*
X014353Y046632D01*
X014421Y046564D02*
X007388Y046564D01*
X008644Y048032D02*
X014314Y048032D01*
X014314Y048007D02*
X014353Y047912D01*
X014413Y047851D01*
X014413Y046985D01*
X014353Y046925D01*
X014314Y046830D01*
X014314Y046727D01*
X014314Y046796D02*
X008857Y046796D01*
X008934Y046873D02*
X014332Y046873D01*
X014379Y046951D02*
X009012Y046951D01*
X009063Y047028D02*
X014413Y047028D01*
X014413Y047105D02*
X009095Y047105D01*
X009127Y047182D02*
X014413Y047182D01*
X014413Y047260D02*
X009149Y047260D01*
X009149Y047337D02*
X014413Y047337D01*
X014413Y047414D02*
X009149Y047414D01*
X009149Y047491D02*
X014413Y047491D01*
X014413Y047569D02*
X009122Y047569D01*
X009090Y047646D02*
X014413Y047646D01*
X014413Y047723D02*
X009058Y047723D01*
X008999Y047800D02*
X014413Y047800D01*
X014387Y047878D02*
X008922Y047878D01*
X008831Y047955D02*
X014335Y047955D01*
X014314Y048007D02*
X014314Y048109D01*
X034947Y048109D02*
X039131Y048109D01*
X039081Y048059D02*
X038940Y048059D01*
X038882Y048001D01*
X038882Y047525D01*
X038940Y047467D01*
X039416Y047467D01*
X039473Y047524D01*
X039530Y047467D01*
X039630Y047467D01*
X039630Y047312D01*
X039670Y047272D01*
X039235Y047272D01*
X039178Y047214D01*
X039121Y047272D01*
X038645Y047272D01*
X038586Y047213D01*
X038586Y046737D01*
X038645Y046679D01*
X039121Y046679D01*
X039178Y046736D01*
X039235Y046679D01*
X039573Y046679D01*
X039711Y046541D01*
X040545Y046541D01*
X040545Y046442D01*
X040603Y046384D01*
X040863Y046384D01*
X040891Y046412D01*
X040918Y046384D01*
X041178Y046384D01*
X041206Y046412D01*
X041233Y046384D01*
X041493Y046384D01*
X041520Y046412D01*
X041548Y046384D01*
X041808Y046384D01*
X041835Y046412D01*
X041863Y046384D01*
X042123Y046384D01*
X042150Y046412D01*
X042178Y046384D01*
X042250Y046384D01*
X042270Y046364D01*
X042279Y046364D01*
X042286Y046359D01*
X042335Y046364D01*
X042385Y046364D01*
X042391Y046370D01*
X042400Y046371D01*
X042410Y046384D01*
X042438Y046384D01*
X042465Y046412D01*
X042493Y046384D01*
X042753Y046384D01*
X042780Y046412D01*
X042808Y046384D01*
X043068Y046384D01*
X043126Y046442D01*
X043126Y046790D01*
X043172Y046837D01*
X043567Y046837D01*
X043353Y046622D01*
X043271Y046541D01*
X043271Y046396D01*
X043172Y046396D01*
X043114Y046337D01*
X043114Y046091D01*
X043033Y046091D01*
X042896Y045954D01*
X042867Y045954D01*
X042772Y045915D01*
X042699Y045842D01*
X042660Y045747D01*
X042660Y045645D01*
X042699Y045550D01*
X042772Y045477D01*
X042867Y045438D01*
X042969Y045438D01*
X043064Y045477D01*
X043114Y045527D01*
X043114Y045448D01*
X043142Y045420D01*
X043114Y045393D01*
X043114Y045134D01*
X043102Y045122D01*
X043084Y045090D01*
X043074Y045055D01*
X043074Y044953D01*
X043405Y044953D01*
X043405Y044943D01*
X043074Y044943D01*
X043074Y044841D01*
X043084Y044805D01*
X043102Y044774D01*
X043114Y044762D01*
X043114Y044503D01*
X043142Y044475D01*
X043114Y044448D01*
X043114Y044188D01*
X043142Y044160D01*
X043114Y044133D01*
X043114Y043873D01*
X043172Y043815D01*
X043520Y043815D01*
X044098Y043237D01*
X044098Y042899D01*
X044115Y042882D01*
X043886Y042882D01*
X043903Y042899D01*
X043903Y043375D01*
X043845Y043433D01*
X043507Y043433D01*
X043271Y043669D01*
X043126Y043669D01*
X043126Y043769D01*
X043068Y043827D01*
X042808Y043827D01*
X042780Y043799D01*
X042753Y043827D01*
X042493Y043827D01*
X042465Y043799D01*
X042438Y043827D01*
X042178Y043827D01*
X042150Y043799D01*
X042132Y043818D01*
X042132Y045556D01*
X042178Y045575D01*
X042251Y045648D01*
X042290Y045743D01*
X042290Y045846D01*
X042251Y045940D01*
X042178Y046013D01*
X042084Y046052D01*
X041981Y046052D01*
X041886Y046013D01*
X041813Y045940D01*
X041774Y045846D01*
X041774Y045743D01*
X041813Y045648D01*
X041854Y045607D01*
X041854Y043818D01*
X041835Y043799D01*
X041808Y043827D01*
X041548Y043827D01*
X041520Y043799D01*
X041493Y043827D01*
X041233Y043827D01*
X041206Y043799D01*
X041178Y043827D01*
X040918Y043827D01*
X040891Y043799D01*
X040863Y043827D01*
X040603Y043827D01*
X040545Y043769D01*
X040545Y043293D01*
X040562Y043276D01*
X040400Y043276D01*
X040302Y043177D01*
X040220Y043096D01*
X040220Y043039D01*
X040121Y043039D01*
X040063Y042981D01*
X040063Y042882D01*
X039809Y042882D01*
X039770Y042842D01*
X039432Y042842D01*
X039376Y042786D01*
X039376Y043094D01*
X039432Y043037D01*
X039908Y043037D01*
X039966Y043096D01*
X039966Y043572D01*
X039908Y043630D01*
X039809Y043630D01*
X039809Y043702D01*
X039816Y043705D01*
X039889Y043778D01*
X039928Y043873D01*
X039928Y043976D01*
X039889Y044070D01*
X039816Y044143D01*
X039721Y044182D01*
X039619Y044182D01*
X039524Y044143D01*
X039451Y044070D01*
X039412Y043976D01*
X039412Y043873D01*
X039451Y043778D01*
X039524Y043705D01*
X039531Y043702D01*
X039531Y043630D01*
X039432Y043630D01*
X039376Y043574D01*
X039376Y044789D01*
X039991Y044789D01*
X039964Y044763D01*
X039964Y044503D01*
X039992Y044475D01*
X039964Y044448D01*
X039964Y044188D01*
X039992Y044160D01*
X039964Y044133D01*
X039964Y043873D01*
X040023Y043815D01*
X040499Y043815D01*
X040557Y043873D01*
X040557Y044133D01*
X040529Y044160D01*
X040557Y044188D01*
X040557Y044448D01*
X040529Y044475D01*
X040557Y044503D01*
X040557Y044750D01*
X040797Y044750D01*
X040800Y044749D01*
X040903Y044749D01*
X040997Y044788D01*
X041854Y044788D01*
X041854Y044865D02*
X041072Y044865D01*
X041070Y044861D02*
X041109Y044956D01*
X041109Y045058D01*
X041070Y045153D01*
X040997Y045226D01*
X040903Y045265D01*
X040800Y045265D01*
X040705Y045226D01*
X040632Y045153D01*
X040629Y045146D01*
X040594Y045146D01*
X040597Y045156D01*
X040597Y045258D01*
X040266Y045258D01*
X040266Y045268D01*
X040597Y045268D01*
X040597Y045370D01*
X040587Y045405D01*
X040569Y045437D01*
X040557Y045449D01*
X040557Y045707D01*
X040529Y045735D01*
X040557Y045763D01*
X040557Y046022D01*
X040529Y046050D01*
X040557Y046078D01*
X040557Y046337D01*
X040499Y046396D01*
X040023Y046396D01*
X039973Y046346D01*
X039769Y046346D01*
X039769Y046426D01*
X039711Y046484D01*
X039235Y046484D01*
X039177Y046426D01*
X039177Y045950D01*
X039235Y045892D01*
X039711Y045892D01*
X039769Y045950D01*
X039769Y046069D01*
X039973Y046069D01*
X039992Y046050D01*
X039964Y046022D01*
X039964Y045763D01*
X039992Y045735D01*
X039964Y045707D01*
X039964Y045449D01*
X039952Y045437D01*
X039934Y045405D01*
X039924Y045370D01*
X039924Y045268D01*
X040256Y045268D01*
X040256Y045258D01*
X039924Y045258D01*
X039924Y045156D01*
X039934Y045120D01*
X039942Y045106D01*
X039376Y045106D01*
X039376Y045263D01*
X039331Y045372D01*
X038543Y046159D01*
X038460Y046242D01*
X038351Y046287D01*
X036717Y046287D01*
X036609Y046242D01*
X035965Y045598D01*
X034947Y045598D01*
X034947Y048451D01*
X054433Y048451D01*
X054433Y045697D01*
X053943Y045697D01*
X053943Y045778D01*
X053647Y046073D01*
X053532Y046189D01*
X050316Y046189D01*
X049824Y045697D01*
X049709Y045581D01*
X049709Y037707D01*
X049332Y037331D01*
X044562Y037331D01*
X044541Y037352D01*
X044446Y037391D01*
X044343Y037391D01*
X044248Y037352D01*
X044176Y037279D01*
X044136Y037184D01*
X044136Y037082D01*
X044176Y036987D01*
X037112Y036987D01*
X037112Y037064D02*
X044144Y037064D01*
X044136Y037141D02*
X037112Y037141D01*
X037112Y037218D02*
X044151Y037218D01*
X044192Y037296D02*
X037112Y037296D01*
X037112Y037373D02*
X044299Y037373D01*
X044490Y037373D02*
X049374Y037373D01*
X049452Y037450D02*
X037112Y037450D01*
X037112Y037527D02*
X049529Y037527D01*
X049606Y037605D02*
X037112Y037605D01*
X037112Y037682D02*
X049683Y037682D01*
X049709Y037759D02*
X037112Y037759D01*
X037112Y037836D02*
X049709Y037836D01*
X049709Y037914D02*
X037112Y037914D01*
X037112Y037991D02*
X049709Y037991D01*
X049709Y038068D02*
X037112Y038068D01*
X037112Y038145D02*
X049709Y038145D01*
X049709Y038223D02*
X037112Y038223D01*
X037112Y038300D02*
X049709Y038300D01*
X049709Y038377D02*
X037112Y038377D01*
X037112Y038454D02*
X049709Y038454D01*
X049709Y038531D02*
X037112Y038531D01*
X037112Y038609D02*
X049709Y038609D01*
X049709Y038686D02*
X037112Y038686D01*
X037112Y038763D02*
X049709Y038763D01*
X049709Y038840D02*
X037112Y038840D01*
X037112Y038918D02*
X049709Y038918D01*
X049709Y038995D02*
X037112Y038995D01*
X037112Y039072D02*
X049709Y039072D01*
X049709Y039149D02*
X037112Y039149D01*
X037112Y039227D02*
X049709Y039227D01*
X049709Y039304D02*
X037112Y039304D01*
X037112Y039381D02*
X049709Y039381D01*
X049709Y039458D02*
X037112Y039458D01*
X037112Y039536D02*
X049709Y039536D01*
X049709Y039613D02*
X037112Y039613D01*
X037112Y039690D02*
X049709Y039690D01*
X049709Y039767D02*
X037112Y039767D01*
X037112Y039845D02*
X049709Y039845D01*
X049709Y039922D02*
X037112Y039922D01*
X037112Y039999D02*
X049709Y039999D01*
X049709Y040076D02*
X037127Y040076D01*
X037112Y040061D02*
X039247Y042197D01*
X039331Y042280D01*
X039374Y042384D01*
X039374Y042308D01*
X039432Y042250D01*
X039908Y042250D01*
X039966Y042308D01*
X039966Y042604D01*
X040063Y042604D01*
X040063Y042505D01*
X040121Y042447D01*
X040597Y042447D01*
X040655Y042505D01*
X040655Y042981D01*
X040638Y042998D01*
X040867Y042998D01*
X040850Y042981D01*
X040850Y042505D01*
X040908Y042447D01*
X041384Y042447D01*
X041443Y042505D01*
X041443Y042745D01*
X041470Y042772D01*
X041499Y042742D01*
X041975Y042742D01*
X042031Y042798D01*
X042031Y042505D01*
X042090Y042447D01*
X042189Y042447D01*
X042189Y042390D01*
X042270Y042309D01*
X042369Y042211D01*
X043311Y042211D01*
X043311Y042111D01*
X043369Y042053D01*
X043845Y042053D01*
X043903Y042111D01*
X043903Y042587D01*
X043886Y042604D01*
X044115Y042604D01*
X044098Y042587D01*
X044098Y042111D01*
X044156Y042053D01*
X044632Y042053D01*
X044691Y042111D01*
X044691Y042447D01*
X045125Y042447D01*
X045183Y042505D01*
X045183Y042981D01*
X045125Y043039D01*
X044691Y043039D01*
X044691Y043375D01*
X044634Y043431D01*
X044731Y043431D01*
X044789Y043489D01*
X044789Y043965D01*
X044731Y044024D01*
X044393Y044024D01*
X043960Y044457D01*
X043697Y044457D01*
X043679Y044475D01*
X043697Y044494D01*
X044197Y044494D01*
X044197Y044277D01*
X044255Y044219D01*
X044731Y044219D01*
X044789Y044277D01*
X044789Y044376D01*
X044984Y044376D01*
X044984Y044277D01*
X045042Y044219D01*
X045518Y044219D01*
X045577Y044277D01*
X045577Y044753D01*
X045518Y044811D01*
X045042Y044811D01*
X044984Y044753D01*
X044984Y044654D01*
X044789Y044654D01*
X044789Y044753D01*
X044731Y044811D01*
X044255Y044811D01*
X044216Y044772D01*
X043717Y044772D01*
X043719Y044774D01*
X043737Y044805D01*
X043746Y044841D01*
X043746Y044924D01*
X043763Y044908D01*
X044239Y044908D01*
X044297Y044966D01*
X044297Y045302D01*
X044354Y045245D01*
X044435Y045163D01*
X044492Y045163D01*
X044492Y044966D01*
X044550Y044908D01*
X045026Y044908D01*
X045034Y044916D01*
X045042Y044908D01*
X045518Y044908D01*
X045577Y044966D01*
X045577Y045442D01*
X045518Y045500D01*
X045042Y045500D01*
X045034Y045492D01*
X045026Y045500D01*
X044550Y045500D01*
X044521Y045471D01*
X044415Y045576D01*
X044454Y045576D01*
X044454Y046001D01*
X044532Y046001D01*
X044532Y045576D01*
X044708Y045576D01*
X044744Y045586D01*
X044775Y045604D01*
X044801Y045630D01*
X044820Y045662D01*
X044829Y045697D01*
X044829Y046001D01*
X044532Y046001D01*
X044532Y046080D01*
X044454Y046080D01*
X044454Y046505D01*
X044278Y046505D01*
X044242Y046495D01*
X044210Y046477D01*
X044185Y046451D01*
X044166Y046419D01*
X044157Y046384D01*
X044157Y046080D01*
X044454Y046080D01*
X044454Y046001D01*
X044157Y046001D01*
X044157Y045716D01*
X043697Y045716D01*
X043679Y045735D01*
X043706Y045763D01*
X043706Y046022D01*
X043679Y046050D01*
X043706Y046078D01*
X043706Y046337D01*
X043648Y046396D01*
X043549Y046396D01*
X043549Y046426D01*
X043763Y046640D01*
X047405Y046640D01*
X047486Y046721D01*
X047637Y046872D01*
X047676Y046904D01*
X047677Y046912D01*
X047683Y046918D01*
X047683Y046968D01*
X047737Y047486D01*
X047881Y047486D01*
X047939Y047544D01*
X047939Y048276D01*
X047881Y048335D01*
X047405Y048335D01*
X047346Y048276D01*
X047346Y047544D01*
X047405Y047486D01*
X047458Y047486D01*
X047411Y047039D01*
X047290Y046917D01*
X046796Y046917D01*
X046797Y046918D01*
X046913Y047034D01*
X046994Y047115D01*
X046994Y047486D01*
X047093Y047486D01*
X047151Y047544D01*
X047151Y048276D01*
X047093Y048335D01*
X046617Y048335D01*
X046559Y048276D01*
X046559Y047544D01*
X046617Y047486D01*
X046716Y047486D01*
X046716Y047230D01*
X046601Y047114D01*
X046107Y047114D01*
X046108Y047115D01*
X046125Y047132D01*
X046206Y047213D01*
X046206Y047486D01*
X046306Y047486D01*
X046364Y047544D01*
X046364Y048276D01*
X046306Y048335D01*
X045830Y048335D01*
X045771Y048276D01*
X045771Y047544D01*
X045830Y047486D01*
X045929Y047486D01*
X045929Y047328D01*
X045912Y047311D01*
X045222Y047311D01*
X045222Y047312D01*
X045397Y047486D01*
X045518Y047486D01*
X045577Y047544D01*
X045577Y048276D01*
X045518Y048335D01*
X045042Y048335D01*
X044984Y048276D01*
X044984Y047544D01*
X045021Y047508D01*
X044752Y047508D01*
X044789Y047544D01*
X044789Y048276D01*
X044731Y048335D01*
X044255Y048335D01*
X044197Y048276D01*
X044197Y047544D01*
X044233Y047508D01*
X043591Y047508D01*
X043608Y047525D01*
X043608Y048001D01*
X043550Y048059D01*
X043074Y048059D01*
X043016Y048001D01*
X043016Y047525D01*
X043033Y047508D01*
X042804Y047508D01*
X042821Y047525D01*
X042821Y048001D01*
X042762Y048059D01*
X042286Y048059D01*
X042229Y048002D01*
X042172Y048059D01*
X041696Y048059D01*
X041638Y048001D01*
X041638Y047525D01*
X041696Y047467D01*
X041854Y047467D01*
X041854Y046967D01*
X041835Y046949D01*
X041817Y046967D01*
X041817Y047190D01*
X041482Y047525D01*
X041443Y047564D01*
X041443Y048001D01*
X041384Y048059D01*
X040908Y048059D01*
X040851Y048002D01*
X040794Y048059D01*
X040554Y048059D01*
X040515Y048098D01*
X040318Y048295D01*
X039317Y048295D01*
X039236Y048214D01*
X039081Y048059D01*
X039178Y047960D02*
X039375Y048156D01*
X040261Y048156D01*
X040457Y047960D01*
X040457Y047861D01*
X040556Y047763D01*
X040556Y047369D01*
X040654Y047271D01*
X041146Y047271D01*
X041363Y047054D01*
X041363Y046680D01*
X041519Y046410D02*
X041522Y046410D01*
X041834Y046410D02*
X041837Y046410D01*
X042149Y046410D02*
X042152Y046410D01*
X042328Y046503D02*
X042308Y046680D01*
X042328Y046503D02*
X042328Y047172D01*
X042524Y047369D01*
X045083Y047369D01*
X045280Y047566D01*
X045280Y047910D01*
X044984Y047878D02*
X044789Y047878D01*
X044789Y047955D02*
X044984Y047955D01*
X044984Y048032D02*
X044789Y048032D01*
X044789Y048109D02*
X044984Y048109D01*
X044984Y048187D02*
X044789Y048187D01*
X044789Y048264D02*
X044984Y048264D01*
X044984Y047800D02*
X044789Y047800D01*
X044789Y047723D02*
X044984Y047723D01*
X044984Y047646D02*
X044789Y047646D01*
X044789Y047569D02*
X044984Y047569D01*
X045247Y047337D02*
X045929Y047337D01*
X045929Y047414D02*
X045325Y047414D01*
X045523Y047491D02*
X045825Y047491D01*
X045771Y047569D02*
X045577Y047569D01*
X045577Y047646D02*
X045771Y047646D01*
X045771Y047723D02*
X045577Y047723D01*
X045577Y047800D02*
X045771Y047800D01*
X045771Y047878D02*
X045577Y047878D01*
X045577Y047955D02*
X045771Y047955D01*
X045771Y048032D02*
X045577Y048032D01*
X045577Y048109D02*
X045771Y048109D01*
X045771Y048187D02*
X045577Y048187D01*
X045577Y048264D02*
X045771Y048264D01*
X046068Y047910D02*
X046068Y047271D01*
X045969Y047172D01*
X042721Y047172D01*
X042623Y047074D01*
X042623Y046680D01*
X042779Y046410D02*
X042782Y046410D01*
X043094Y046410D02*
X043271Y046410D01*
X043271Y046487D02*
X043126Y046487D01*
X043126Y046564D02*
X043295Y046564D01*
X043372Y046642D02*
X043126Y046642D01*
X043126Y046719D02*
X043450Y046719D01*
X043527Y046796D02*
X043132Y046796D01*
X043115Y046975D02*
X046658Y046975D01*
X046855Y047172D01*
X046855Y047910D01*
X046559Y047878D02*
X046364Y047878D01*
X046364Y047955D02*
X046559Y047955D01*
X046559Y048032D02*
X046364Y048032D01*
X046364Y048109D02*
X046559Y048109D01*
X046559Y048187D02*
X046364Y048187D01*
X046364Y048264D02*
X046559Y048264D01*
X046559Y047800D02*
X046364Y047800D01*
X046364Y047723D02*
X046559Y047723D01*
X046559Y047646D02*
X046364Y047646D01*
X046364Y047569D02*
X046559Y047569D01*
X046612Y047491D02*
X046311Y047491D01*
X046206Y047414D02*
X046716Y047414D01*
X046716Y047337D02*
X046206Y047337D01*
X046206Y047260D02*
X046716Y047260D01*
X046669Y047182D02*
X046176Y047182D01*
X046830Y046951D02*
X047323Y046951D01*
X047400Y047028D02*
X046907Y047028D01*
X046984Y047105D02*
X047418Y047105D01*
X047426Y047182D02*
X046994Y047182D01*
X046994Y047260D02*
X047435Y047260D01*
X047443Y047337D02*
X046994Y047337D01*
X046994Y047414D02*
X047451Y047414D01*
X047399Y047491D02*
X047098Y047491D01*
X047151Y047569D02*
X047346Y047569D01*
X047346Y047646D02*
X047151Y047646D01*
X047151Y047723D02*
X047346Y047723D01*
X047346Y047800D02*
X047151Y047800D01*
X047151Y047878D02*
X047346Y047878D01*
X047346Y047955D02*
X047151Y047955D01*
X047151Y048032D02*
X047346Y048032D01*
X047346Y048109D02*
X047151Y048109D01*
X047151Y048187D02*
X047346Y048187D01*
X047346Y048264D02*
X047151Y048264D01*
X047643Y047910D02*
X047544Y046975D01*
X047347Y046779D01*
X043706Y046779D01*
X043410Y046483D01*
X043410Y046208D01*
X043549Y046410D02*
X044164Y046410D01*
X044157Y046333D02*
X043706Y046333D01*
X043706Y046256D02*
X044157Y046256D01*
X044157Y046178D02*
X043706Y046178D01*
X043706Y046101D02*
X044157Y046101D01*
X044157Y045947D02*
X043706Y045947D01*
X043705Y046024D02*
X044454Y046024D01*
X044454Y046101D02*
X044532Y046101D01*
X044532Y046080D02*
X044532Y046505D01*
X044708Y046505D01*
X044744Y046495D01*
X044775Y046477D01*
X044801Y046451D01*
X044820Y046419D01*
X044829Y046384D01*
X044829Y046080D01*
X044532Y046080D01*
X044532Y046024D02*
X045241Y046024D01*
X045241Y046001D02*
X044944Y046001D01*
X044944Y045697D01*
X044954Y045662D01*
X044972Y045630D01*
X044998Y045604D01*
X045030Y045586D01*
X045065Y045576D01*
X045241Y045576D01*
X045241Y046001D01*
X045320Y046001D01*
X045320Y046080D01*
X045617Y046080D01*
X045617Y046384D01*
X045607Y046419D01*
X045589Y046451D01*
X045563Y046477D01*
X045531Y046495D01*
X045496Y046505D01*
X045320Y046505D01*
X045320Y046080D01*
X045241Y046080D01*
X045241Y046505D01*
X045065Y046505D01*
X045030Y046495D01*
X044998Y046477D01*
X044972Y046451D01*
X044954Y046419D01*
X044944Y046384D01*
X044944Y046080D01*
X045241Y046080D01*
X045241Y046001D01*
X045241Y045947D02*
X045320Y045947D01*
X045320Y046001D02*
X045320Y045576D01*
X045496Y045576D01*
X045531Y045586D01*
X045563Y045604D01*
X045589Y045630D01*
X045607Y045662D01*
X045617Y045697D01*
X045617Y046001D01*
X045320Y046001D01*
X045320Y046024D02*
X045771Y046024D01*
X045771Y046101D02*
X045617Y046101D01*
X045617Y046178D02*
X045771Y046178D01*
X045771Y046256D02*
X045617Y046256D01*
X045617Y046333D02*
X045771Y046333D01*
X045771Y046406D02*
X045771Y045674D01*
X045830Y045616D01*
X046306Y045616D01*
X046364Y045674D01*
X046364Y045843D01*
X046559Y045843D01*
X046559Y045674D01*
X046617Y045616D01*
X047093Y045616D01*
X047151Y045674D01*
X047151Y045843D01*
X047346Y045843D01*
X047346Y045674D01*
X047405Y045616D01*
X047642Y045616D01*
X047642Y045402D01*
X047601Y045402D01*
X047543Y045343D01*
X047543Y044867D01*
X047601Y044809D01*
X047642Y044809D01*
X047642Y044614D01*
X047601Y044614D01*
X047543Y044556D01*
X047543Y044080D01*
X047601Y044022D01*
X048077Y044022D01*
X048136Y044080D01*
X048136Y044556D01*
X048077Y044614D01*
X048037Y044614D01*
X048037Y044809D01*
X048077Y044809D01*
X048136Y044867D01*
X048136Y045343D01*
X048077Y045402D01*
X048037Y045402D01*
X048037Y045925D01*
X047939Y046024D01*
X050151Y046024D01*
X050074Y045947D02*
X048016Y045947D01*
X048037Y045869D02*
X049997Y045869D01*
X049920Y045792D02*
X048037Y045792D01*
X048037Y045715D02*
X049842Y045715D01*
X049765Y045638D02*
X048037Y045638D01*
X048037Y045560D02*
X049709Y045560D01*
X049709Y045483D02*
X048037Y045483D01*
X048037Y045406D02*
X049709Y045406D01*
X049709Y045329D02*
X048136Y045329D01*
X048136Y045251D02*
X049709Y045251D01*
X049709Y045174D02*
X048136Y045174D01*
X048136Y045097D02*
X049709Y045097D01*
X049709Y045020D02*
X048136Y045020D01*
X048136Y044942D02*
X049709Y044942D01*
X049709Y044865D02*
X048133Y044865D01*
X048037Y044788D02*
X049709Y044788D01*
X049709Y044711D02*
X048037Y044711D01*
X048037Y044633D02*
X049709Y044633D01*
X049709Y044556D02*
X048135Y044556D01*
X048136Y044479D02*
X049709Y044479D01*
X049709Y044402D02*
X048136Y044402D01*
X048136Y044325D02*
X049709Y044325D01*
X049709Y044247D02*
X048136Y044247D01*
X048136Y044170D02*
X049709Y044170D01*
X049709Y044093D02*
X048136Y044093D01*
X047543Y044093D02*
X047386Y044093D01*
X047388Y044103D02*
X047388Y044279D01*
X047091Y044279D01*
X047091Y044357D01*
X047013Y044357D01*
X047013Y044654D01*
X046837Y044654D01*
X046801Y044645D01*
X046770Y044626D01*
X046744Y044600D01*
X046725Y044569D01*
X046716Y044533D01*
X046716Y044357D01*
X047013Y044357D01*
X047013Y044279D01*
X046716Y044279D01*
X046716Y044103D01*
X046725Y044067D01*
X046744Y044035D01*
X046770Y044010D01*
X046801Y043991D01*
X046837Y043982D01*
X047013Y043982D01*
X047013Y044279D01*
X047091Y044279D01*
X047091Y043982D01*
X047267Y043982D01*
X047303Y043991D01*
X047334Y044010D01*
X047360Y044035D01*
X047379Y044067D01*
X047388Y044103D01*
X047388Y044170D02*
X047543Y044170D01*
X047543Y044247D02*
X047388Y044247D01*
X047388Y044357D02*
X047388Y044533D01*
X047379Y044569D01*
X047360Y044600D01*
X047334Y044626D01*
X047303Y044645D01*
X047267Y044654D01*
X047091Y044654D01*
X047091Y044357D01*
X047388Y044357D01*
X047388Y044402D02*
X047543Y044402D01*
X047543Y044479D02*
X047388Y044479D01*
X047382Y044556D02*
X047543Y044556D01*
X047642Y044633D02*
X047322Y044633D01*
X047267Y044769D02*
X047303Y044779D01*
X047334Y044797D01*
X047360Y044823D01*
X047379Y044855D01*
X047388Y044890D01*
X047388Y045066D01*
X047091Y045066D01*
X047091Y044769D01*
X047267Y044769D01*
X047319Y044788D02*
X047642Y044788D01*
X047642Y044711D02*
X045577Y044711D01*
X045577Y044633D02*
X046782Y044633D01*
X046722Y044556D02*
X045577Y044556D01*
X045577Y044479D02*
X046716Y044479D01*
X046716Y044402D02*
X045577Y044402D01*
X045577Y044325D02*
X047013Y044325D01*
X047013Y044402D02*
X047091Y044402D01*
X047091Y044479D02*
X047013Y044479D01*
X047013Y044556D02*
X047091Y044556D01*
X047091Y044633D02*
X047013Y044633D01*
X047013Y044769D02*
X046837Y044769D01*
X046801Y044779D01*
X046770Y044797D01*
X046744Y044823D01*
X046725Y044855D01*
X046716Y044890D01*
X046716Y045066D01*
X047013Y045066D01*
X047091Y045066D01*
X047091Y045145D01*
X047013Y045145D01*
X047013Y045442D01*
X046837Y045442D01*
X046801Y045432D01*
X046770Y045414D01*
X046744Y045388D01*
X046725Y045356D01*
X046716Y045321D01*
X046716Y045145D01*
X047013Y045145D01*
X047013Y045066D01*
X047013Y044769D01*
X047013Y044788D02*
X047091Y044788D01*
X047091Y044865D02*
X047013Y044865D01*
X047013Y044942D02*
X047091Y044942D01*
X047091Y045020D02*
X047013Y045020D01*
X047013Y045097D02*
X046364Y045097D01*
X046364Y045174D02*
X046716Y045174D01*
X046716Y045251D02*
X046364Y045251D01*
X046364Y045329D02*
X046718Y045329D01*
X046762Y045406D02*
X046364Y045406D01*
X046364Y045442D02*
X046306Y045500D01*
X045830Y045500D01*
X045771Y045442D01*
X045771Y044966D01*
X045830Y044908D01*
X046306Y044908D01*
X046364Y044966D01*
X046364Y045442D01*
X046323Y045483D02*
X047642Y045483D01*
X047642Y045406D02*
X047342Y045406D01*
X047334Y045414D02*
X047303Y045432D01*
X047267Y045442D01*
X047091Y045442D01*
X047091Y045145D01*
X047388Y045145D01*
X047388Y045321D01*
X047379Y045356D01*
X047360Y045388D01*
X047334Y045414D01*
X047386Y045329D02*
X047543Y045329D01*
X047543Y045251D02*
X047388Y045251D01*
X047388Y045174D02*
X047543Y045174D01*
X047543Y045097D02*
X047091Y045097D01*
X047091Y045174D02*
X047013Y045174D01*
X047013Y045251D02*
X047091Y045251D01*
X047091Y045329D02*
X047013Y045329D01*
X047013Y045406D02*
X047091Y045406D01*
X047115Y045638D02*
X047383Y045638D01*
X047346Y045715D02*
X047151Y045715D01*
X047151Y045792D02*
X047346Y045792D01*
X047642Y045560D02*
X044431Y045560D01*
X044454Y045638D02*
X044532Y045638D01*
X044532Y045715D02*
X044454Y045715D01*
X044454Y045792D02*
X044532Y045792D01*
X044532Y045869D02*
X044454Y045869D01*
X044454Y045947D02*
X044532Y045947D01*
X044532Y046178D02*
X044454Y046178D01*
X044454Y046256D02*
X044532Y046256D01*
X044532Y046333D02*
X044454Y046333D01*
X044454Y046410D02*
X044532Y046410D01*
X044532Y046487D02*
X044454Y046487D01*
X044229Y046487D02*
X043610Y046487D01*
X043688Y046564D02*
X054433Y046564D01*
X054433Y046487D02*
X045544Y046487D01*
X045609Y046410D02*
X045775Y046410D01*
X045771Y046406D02*
X045830Y046465D01*
X046306Y046465D01*
X046364Y046406D01*
X046364Y046238D01*
X046559Y046238D01*
X046559Y046406D01*
X046617Y046465D01*
X047093Y046465D01*
X047151Y046406D01*
X047151Y046238D01*
X047346Y046238D01*
X047346Y046406D01*
X047405Y046465D01*
X047881Y046465D01*
X047939Y046406D01*
X047939Y046024D01*
X047939Y046101D02*
X050229Y046101D01*
X050306Y046178D02*
X047939Y046178D01*
X047939Y046256D02*
X054433Y046256D01*
X054433Y046333D02*
X047939Y046333D01*
X047935Y046410D02*
X054433Y046410D01*
X054433Y046642D02*
X047407Y046642D01*
X047484Y046719D02*
X053145Y046719D01*
X053216Y046690D02*
X053486Y046690D01*
X053736Y046793D01*
X053927Y046984D01*
X054031Y047234D01*
X054031Y047504D01*
X053927Y047754D01*
X053736Y047945D01*
X053486Y048048D01*
X053216Y048048D01*
X052966Y047945D01*
X052775Y047754D01*
X052672Y047504D01*
X052672Y047234D01*
X052775Y046984D01*
X052966Y046793D01*
X053216Y046690D01*
X052963Y046796D02*
X047561Y046796D01*
X047639Y046873D02*
X052886Y046873D01*
X052809Y046951D02*
X047683Y046951D01*
X047689Y047028D02*
X052757Y047028D01*
X052725Y047105D02*
X047697Y047105D01*
X047705Y047182D02*
X052693Y047182D01*
X052672Y047260D02*
X047714Y047260D01*
X047722Y047337D02*
X052672Y047337D01*
X052672Y047414D02*
X047730Y047414D01*
X047886Y047491D02*
X052672Y047491D01*
X052698Y047569D02*
X047939Y047569D01*
X047939Y047646D02*
X052730Y047646D01*
X052762Y047723D02*
X047939Y047723D01*
X047939Y047800D02*
X052822Y047800D01*
X052899Y047878D02*
X047939Y047878D01*
X047939Y047955D02*
X052990Y047955D01*
X053176Y048032D02*
X047939Y048032D01*
X047939Y048109D02*
X054433Y048109D01*
X054433Y048032D02*
X053526Y048032D01*
X053712Y047955D02*
X054433Y047955D01*
X054433Y047878D02*
X053803Y047878D01*
X053881Y047800D02*
X054433Y047800D01*
X054433Y047723D02*
X053940Y047723D01*
X053972Y047646D02*
X054433Y047646D01*
X054433Y047569D02*
X054004Y047569D01*
X054031Y047491D02*
X054433Y047491D01*
X054433Y047414D02*
X054031Y047414D01*
X054031Y047337D02*
X054433Y047337D01*
X054433Y047260D02*
X054031Y047260D01*
X054009Y047182D02*
X054433Y047182D01*
X054433Y047105D02*
X053977Y047105D01*
X053945Y047028D02*
X054433Y047028D01*
X054433Y046951D02*
X053894Y046951D01*
X053816Y046873D02*
X054433Y046873D01*
X054433Y046796D02*
X053739Y046796D01*
X053557Y046719D02*
X054433Y046719D01*
X054433Y046178D02*
X053542Y046178D01*
X053619Y046101D02*
X054433Y046101D01*
X054433Y046024D02*
X053697Y046024D01*
X053774Y045947D02*
X054433Y045947D01*
X054433Y045869D02*
X053851Y045869D01*
X053928Y045792D02*
X054433Y045792D01*
X054433Y045715D02*
X053943Y045715D01*
X053464Y045697D02*
X053015Y045697D01*
X052957Y045639D01*
X052957Y044257D01*
X052994Y044219D01*
X052957Y044182D01*
X052957Y042800D01*
X053015Y042742D01*
X053055Y042742D01*
X053055Y016882D01*
X051949Y015776D01*
X046206Y015776D01*
X046097Y015730D01*
X045506Y015140D01*
X045423Y015057D01*
X045378Y014948D01*
X045378Y013437D01*
X045374Y013433D01*
X045329Y013324D01*
X045329Y013118D01*
X045259Y013118D01*
X045201Y013060D01*
X045201Y012584D01*
X045259Y012526D01*
X045991Y012526D01*
X046049Y012584D01*
X046049Y013060D01*
X045991Y013118D01*
X045921Y013118D01*
X045921Y013142D01*
X045925Y013146D01*
X045970Y013255D01*
X045970Y014766D01*
X046387Y015183D01*
X048149Y015183D01*
X047403Y014437D01*
X047287Y014321D01*
X047287Y012685D01*
X047267Y012685D01*
X047209Y012627D01*
X047209Y012230D01*
X047267Y012171D01*
X047703Y012171D01*
X047762Y012230D01*
X047869Y012230D01*
X047890Y012209D01*
X047985Y012170D01*
X048088Y012170D01*
X048182Y012209D01*
X048255Y012282D01*
X048294Y012377D01*
X048294Y012479D01*
X048255Y012574D01*
X048182Y012647D01*
X048088Y012686D01*
X047985Y012686D01*
X047890Y012647D01*
X047869Y012626D01*
X047762Y012626D01*
X047762Y012627D01*
X047703Y012685D01*
X047683Y012685D01*
X047683Y014157D01*
X048315Y014789D01*
X053368Y014789D01*
X053547Y014610D01*
X053547Y014594D01*
X053015Y014594D01*
X052957Y014536D01*
X052957Y013155D01*
X052994Y013117D01*
X052957Y013080D01*
X052957Y011698D01*
X053015Y011640D01*
X054433Y011640D01*
X054433Y009279D01*
X046918Y009279D01*
X046935Y009296D01*
X046935Y009694D01*
X046877Y009752D01*
X046465Y009752D01*
X046364Y009853D01*
X046364Y010010D01*
X046370Y010000D01*
X046396Y009974D01*
X046427Y009956D01*
X046463Y009946D01*
X046619Y009946D01*
X046619Y010204D01*
X046698Y010204D01*
X046698Y010282D01*
X046975Y010282D01*
X046975Y010419D01*
X046965Y010454D01*
X046947Y010486D01*
X046921Y010512D01*
X046889Y010530D01*
X046935Y010576D01*
X046935Y010973D01*
X046877Y011031D01*
X046681Y011031D01*
X046487Y011226D01*
X046619Y011226D01*
X046619Y011483D01*
X046698Y011483D01*
X046698Y011562D01*
X046975Y011562D01*
X046975Y011698D01*
X046965Y011734D01*
X046947Y011766D01*
X046921Y011792D01*
X046889Y011810D01*
X046935Y011855D01*
X046935Y012253D01*
X046877Y012311D01*
X046440Y012311D01*
X046382Y012253D01*
X046382Y012232D01*
X046049Y012232D01*
X046049Y012272D01*
X045991Y012331D01*
X045259Y012331D01*
X045201Y012272D01*
X045201Y011796D01*
X045259Y011738D01*
X045991Y011738D01*
X046049Y011796D01*
X046049Y011837D01*
X046401Y011837D01*
X046427Y011810D01*
X046396Y011792D01*
X046370Y011766D01*
X046351Y011734D01*
X046342Y011698D01*
X046342Y011562D01*
X046619Y011562D01*
X046619Y011483D01*
X046342Y011483D01*
X046342Y011371D01*
X046268Y011445D01*
X046049Y011445D01*
X046049Y011485D01*
X045991Y011543D01*
X045259Y011543D01*
X045201Y011485D01*
X045201Y011009D01*
X045259Y010951D01*
X045991Y010951D01*
X046049Y011009D01*
X046049Y011049D01*
X046104Y011049D01*
X046382Y010771D01*
X046382Y010576D01*
X046427Y010530D01*
X046396Y010512D01*
X046370Y010486D01*
X046351Y010454D01*
X046342Y010419D01*
X046342Y010367D01*
X046248Y010461D01*
X046051Y010657D01*
X046049Y010657D01*
X046049Y010698D01*
X045991Y010756D01*
X045259Y010756D01*
X045201Y010698D01*
X045201Y010222D01*
X045259Y010163D01*
X045968Y010163D01*
X045968Y010008D01*
X045664Y010008D01*
X045664Y009712D01*
X045585Y009712D01*
X045585Y009633D01*
X045161Y009633D01*
X045161Y009457D01*
X045170Y009422D01*
X045188Y009390D01*
X045214Y009364D01*
X045246Y009346D01*
X045282Y009336D01*
X045585Y009336D01*
X045585Y009633D01*
X045664Y009633D01*
X045664Y009336D01*
X045968Y009336D01*
X046003Y009346D01*
X046035Y009364D01*
X046061Y009390D01*
X046079Y009422D01*
X046089Y009457D01*
X046089Y009568D01*
X046244Y009413D01*
X046360Y009297D01*
X046382Y009297D01*
X046382Y009296D01*
X046399Y009279D01*
X042927Y009279D01*
X042930Y009284D01*
X042939Y009319D01*
X042939Y009456D01*
X042662Y009456D01*
X042662Y009534D01*
X042939Y009534D01*
X042939Y009671D01*
X042930Y009706D01*
X042912Y009738D01*
X042886Y009764D01*
X042854Y009782D01*
X042818Y009792D01*
X042662Y009792D01*
X042662Y009534D01*
X042583Y009534D01*
X042583Y009456D01*
X042306Y009456D01*
X042306Y009319D01*
X042316Y009284D01*
X042318Y009279D01*
X034947Y009279D01*
X034947Y011640D01*
X036365Y011640D01*
X036423Y011698D01*
X036423Y013080D01*
X036385Y013117D01*
X036423Y013155D01*
X036423Y014536D01*
X036365Y014594D01*
X034947Y014594D01*
X034947Y042644D01*
X035338Y042644D01*
X035338Y037300D01*
X035317Y037279D01*
X035278Y037184D01*
X035278Y037082D01*
X035317Y036987D01*
X035338Y036966D01*
X035338Y015496D01*
X035454Y015380D01*
X035454Y015380D01*
X035690Y015145D01*
X035744Y015087D01*
X035747Y015087D01*
X035750Y015085D01*
X035829Y015085D01*
X038995Y014989D01*
X039571Y014413D01*
X039571Y010378D01*
X039687Y010262D01*
X040161Y009787D01*
X040277Y009671D01*
X041520Y009671D01*
X041520Y009670D01*
X041578Y009612D01*
X042014Y009612D01*
X042073Y009670D01*
X042073Y010068D01*
X042014Y010126D01*
X041578Y010126D01*
X041520Y010068D01*
X041520Y010067D01*
X040441Y010067D01*
X039966Y010542D01*
X039966Y011360D01*
X040080Y011246D01*
X040376Y010951D01*
X041520Y010951D01*
X041520Y010950D01*
X041578Y010892D01*
X042014Y010892D01*
X042073Y010950D01*
X042073Y011347D01*
X042014Y011405D01*
X041578Y011405D01*
X041520Y011347D01*
X041520Y011346D01*
X040539Y011346D01*
X040360Y011526D01*
X040360Y012640D01*
X040474Y012526D01*
X040769Y012230D01*
X041520Y012230D01*
X041520Y012230D01*
X041578Y012171D01*
X042014Y012171D01*
X042073Y012230D01*
X042073Y012627D01*
X042014Y012685D01*
X041578Y012685D01*
X041520Y012627D01*
X041520Y012626D01*
X040933Y012626D01*
X040754Y012805D01*
X040754Y015168D01*
X039868Y016053D01*
X039754Y016167D01*
X039941Y016167D01*
X040850Y015258D01*
X040850Y013452D01*
X040895Y013343D01*
X041176Y013063D01*
X041284Y013018D01*
X042363Y013018D01*
X042346Y013001D01*
X042346Y012604D01*
X042405Y012545D01*
X042841Y012545D01*
X042878Y012582D01*
X042917Y012543D01*
X042917Y012287D01*
X042912Y012297D01*
X042886Y012323D01*
X042854Y012341D01*
X042818Y012351D01*
X042662Y012351D01*
X042662Y012094D01*
X042583Y012094D01*
X042583Y012351D01*
X042427Y012351D01*
X042392Y012341D01*
X042360Y012323D01*
X042334Y012297D01*
X042316Y012265D01*
X042306Y012230D01*
X042306Y012094D01*
X042583Y012094D01*
X042583Y012015D01*
X042306Y012015D01*
X042306Y011878D01*
X042316Y011843D01*
X042334Y011811D01*
X042360Y011785D01*
X042392Y011767D01*
X042346Y011721D01*
X042346Y011324D01*
X042405Y011266D01*
X042600Y011266D01*
X042794Y011071D01*
X042662Y011071D01*
X042662Y010814D01*
X042583Y010814D01*
X042583Y010735D01*
X042306Y010735D01*
X042306Y010599D01*
X042316Y010563D01*
X042334Y010532D01*
X042360Y010506D01*
X042392Y010487D01*
X042346Y010442D01*
X042346Y010044D01*
X042405Y009986D01*
X042841Y009986D01*
X042899Y010044D01*
X042899Y010045D01*
X043620Y010045D01*
X043738Y010163D01*
X044121Y010163D01*
X044179Y010222D01*
X044179Y010698D01*
X044121Y010756D01*
X043389Y010756D01*
X043331Y010698D01*
X043331Y010441D01*
X042899Y010441D01*
X042899Y010442D01*
X042854Y010487D01*
X042886Y010506D01*
X042912Y010532D01*
X042930Y010563D01*
X042939Y010599D01*
X042939Y010735D01*
X042662Y010735D01*
X042662Y010814D01*
X042939Y010814D01*
X042939Y010950D01*
X042930Y010986D01*
X042912Y011018D01*
X042886Y011044D01*
X042876Y011049D01*
X043331Y011049D01*
X043331Y011009D01*
X043389Y010951D01*
X044121Y010951D01*
X044179Y011009D01*
X044179Y011485D01*
X044121Y011543D01*
X043389Y011543D01*
X043331Y011485D01*
X043331Y011445D01*
X042980Y011445D01*
X042899Y011526D01*
X042899Y011721D01*
X042854Y011767D01*
X042886Y011785D01*
X042912Y011811D01*
X042930Y011843D01*
X042939Y011878D01*
X042939Y012015D01*
X042662Y012015D01*
X042662Y012094D01*
X042939Y012094D01*
X042939Y012127D01*
X043033Y012034D01*
X043230Y011837D01*
X043331Y011837D01*
X043331Y011796D01*
X043389Y011738D01*
X044121Y011738D01*
X044179Y011796D01*
X044179Y012272D01*
X044121Y012331D01*
X043389Y012331D01*
X043342Y012284D01*
X043313Y012313D01*
X043313Y012707D01*
X043136Y012884D01*
X043020Y013000D01*
X042899Y013000D01*
X042899Y013001D01*
X042882Y013018D01*
X043331Y013018D01*
X043331Y012584D01*
X043389Y012526D01*
X044121Y012526D01*
X044179Y012584D01*
X044179Y013060D01*
X044121Y013118D01*
X044051Y013118D01*
X044051Y013324D01*
X044006Y013433D01*
X043957Y013482D01*
X043873Y013565D01*
X043764Y013610D01*
X041466Y013610D01*
X041443Y013634D01*
X041443Y015440D01*
X041398Y015549D01*
X040315Y016631D01*
X040315Y016631D01*
X040232Y016715D01*
X040123Y016760D01*
X037332Y016760D01*
X037112Y016980D01*
X037112Y040061D01*
X037204Y040154D02*
X049709Y040154D01*
X049709Y040231D02*
X037281Y040231D01*
X037359Y040308D02*
X049709Y040308D01*
X049709Y040385D02*
X037436Y040385D01*
X037513Y040462D02*
X049709Y040462D01*
X049709Y040540D02*
X037590Y040540D01*
X037668Y040617D02*
X049709Y040617D01*
X049709Y040694D02*
X037745Y040694D01*
X037822Y040771D02*
X049709Y040771D01*
X049709Y040849D02*
X037899Y040849D01*
X037977Y040926D02*
X049709Y040926D01*
X049709Y041003D02*
X038054Y041003D01*
X038131Y041080D02*
X049709Y041080D01*
X049709Y041158D02*
X038208Y041158D01*
X038285Y041235D02*
X049709Y041235D01*
X049709Y041312D02*
X038363Y041312D01*
X038440Y041389D02*
X049709Y041389D01*
X049709Y041467D02*
X038517Y041467D01*
X038594Y041544D02*
X041728Y041544D01*
X041770Y041502D02*
X043181Y041502D01*
X043183Y041504D01*
X043264Y041504D01*
X043357Y041543D01*
X043429Y041615D01*
X043468Y041708D01*
X043468Y041809D01*
X043429Y041903D01*
X043357Y041975D01*
X043264Y042013D01*
X043163Y042013D01*
X043069Y041975D01*
X042998Y041903D01*
X042963Y041819D01*
X041901Y041819D01*
X041895Y041824D01*
X041895Y041955D01*
X041975Y041955D01*
X042033Y042013D01*
X042033Y042489D01*
X041975Y042547D01*
X041499Y042547D01*
X041441Y042489D01*
X041441Y042013D01*
X041499Y041955D01*
X041579Y041955D01*
X041579Y041693D01*
X041677Y041595D01*
X041770Y041502D01*
X041651Y041621D02*
X038672Y041621D01*
X038749Y041698D02*
X041579Y041698D01*
X041579Y041776D02*
X038826Y041776D01*
X038903Y041853D02*
X041579Y041853D01*
X041579Y041930D02*
X038981Y041930D01*
X039058Y042007D02*
X041446Y042007D01*
X041441Y042085D02*
X039135Y042085D01*
X039212Y042162D02*
X041441Y042162D01*
X041441Y042239D02*
X039290Y042239D01*
X039346Y042316D02*
X039374Y042316D01*
X039670Y042546D02*
X039867Y042743D01*
X040359Y042743D01*
X040359Y043038D01*
X040457Y043137D01*
X040950Y043137D01*
X041048Y043235D01*
X041048Y043531D01*
X041363Y043531D02*
X041363Y042861D01*
X041245Y042743D01*
X041146Y042743D01*
X040850Y042780D02*
X040655Y042780D01*
X040655Y042857D02*
X040850Y042857D01*
X040850Y042934D02*
X040655Y042934D01*
X040655Y042702D02*
X040850Y042702D01*
X040850Y042625D02*
X040655Y042625D01*
X040655Y042548D02*
X040850Y042548D01*
X040885Y042471D02*
X040621Y042471D01*
X040097Y042471D02*
X039966Y042471D01*
X039966Y042548D02*
X040063Y042548D01*
X039966Y042393D02*
X041441Y042393D01*
X041441Y042316D02*
X039966Y042316D01*
X039785Y042857D02*
X039376Y042857D01*
X039376Y042934D02*
X040063Y042934D01*
X040093Y043011D02*
X039376Y043011D01*
X039376Y043089D02*
X039381Y043089D01*
X039670Y043334D02*
X039670Y043924D01*
X039429Y044016D02*
X039376Y044016D01*
X039376Y044093D02*
X039474Y044093D01*
X039376Y044170D02*
X039589Y044170D01*
X039751Y044170D02*
X039983Y044170D01*
X039964Y044093D02*
X039867Y044093D01*
X039912Y044016D02*
X039964Y044016D01*
X039964Y043938D02*
X039928Y043938D01*
X039923Y043861D02*
X039977Y043861D01*
X039891Y043784D02*
X040560Y043784D01*
X040545Y043861D02*
X041854Y043861D01*
X041854Y043938D02*
X040557Y043938D01*
X040557Y044016D02*
X041854Y044016D01*
X041854Y044093D02*
X040557Y044093D01*
X040539Y044170D02*
X041854Y044170D01*
X041854Y044247D02*
X040557Y044247D01*
X040557Y044325D02*
X041854Y044325D01*
X041854Y044402D02*
X040557Y044402D01*
X040533Y044479D02*
X041854Y044479D01*
X041854Y044556D02*
X040557Y044556D01*
X040557Y044633D02*
X041854Y044633D01*
X041854Y044711D02*
X040557Y044711D01*
X040997Y044788D02*
X041070Y044861D01*
X041104Y044942D02*
X041854Y044942D01*
X041854Y045020D02*
X041109Y045020D01*
X041093Y045097D02*
X041854Y045097D01*
X041854Y045174D02*
X041049Y045174D01*
X040935Y045251D02*
X041854Y045251D01*
X041854Y045329D02*
X040597Y045329D01*
X040587Y045406D02*
X041854Y045406D01*
X041854Y045483D02*
X040557Y045483D01*
X040557Y045560D02*
X041854Y045560D01*
X041824Y045638D02*
X040557Y045638D01*
X040550Y045715D02*
X041786Y045715D01*
X041774Y045792D02*
X040557Y045792D01*
X040557Y045869D02*
X041784Y045869D01*
X041820Y045947D02*
X040557Y045947D01*
X040556Y046024D02*
X041912Y046024D01*
X042153Y046024D02*
X042966Y046024D01*
X042849Y045947D02*
X042245Y045947D01*
X042281Y045869D02*
X042727Y045869D01*
X042679Y045792D02*
X042290Y045792D01*
X042279Y045715D02*
X042660Y045715D01*
X042663Y045638D02*
X042241Y045638D01*
X042142Y045560D02*
X042695Y045560D01*
X042766Y045483D02*
X042132Y045483D01*
X042132Y045406D02*
X043127Y045406D01*
X043114Y045483D02*
X043070Y045483D01*
X043114Y045329D02*
X042132Y045329D01*
X042132Y045251D02*
X043114Y045251D01*
X043114Y045174D02*
X042132Y045174D01*
X042132Y045097D02*
X043087Y045097D01*
X043074Y045020D02*
X042132Y045020D01*
X042132Y044942D02*
X043074Y044942D01*
X043074Y044865D02*
X042132Y044865D01*
X042132Y044788D02*
X043094Y044788D01*
X043114Y044711D02*
X042132Y044711D01*
X042132Y044633D02*
X043114Y044633D01*
X043114Y044556D02*
X042132Y044556D01*
X042132Y044479D02*
X043138Y044479D01*
X043114Y044402D02*
X042132Y044402D01*
X042132Y044325D02*
X043114Y044325D01*
X043114Y044247D02*
X042132Y044247D01*
X042132Y044170D02*
X043132Y044170D01*
X043114Y044093D02*
X042132Y044093D01*
X042132Y044016D02*
X043114Y044016D01*
X043114Y043938D02*
X042132Y043938D01*
X042132Y043861D02*
X043126Y043861D01*
X043110Y043784D02*
X043551Y043784D01*
X043629Y043707D02*
X043126Y043707D01*
X043213Y043531D02*
X043607Y043137D01*
X043607Y042842D01*
X043706Y042743D01*
X044887Y042743D01*
X045183Y042780D02*
X045378Y042780D01*
X045378Y042857D02*
X045183Y042857D01*
X045183Y042934D02*
X045378Y042934D01*
X045378Y042981D02*
X045378Y042505D01*
X045436Y042447D01*
X045912Y042447D01*
X045970Y042505D01*
X045970Y042981D01*
X045912Y043039D01*
X045436Y043039D01*
X045378Y042981D01*
X045408Y043011D02*
X045153Y043011D01*
X045183Y042702D02*
X045378Y042702D01*
X045378Y042625D02*
X045183Y042625D01*
X045183Y042548D02*
X045378Y042548D01*
X045412Y042471D02*
X045148Y042471D01*
X044691Y042393D02*
X049709Y042393D01*
X049709Y042316D02*
X044691Y042316D01*
X044691Y042239D02*
X049709Y042239D01*
X049709Y042162D02*
X044691Y042162D01*
X044664Y042085D02*
X049709Y042085D01*
X049709Y042007D02*
X043278Y042007D01*
X043338Y042085D02*
X042033Y042085D01*
X042033Y042162D02*
X043311Y042162D01*
X043148Y042007D02*
X042028Y042007D01*
X041895Y041930D02*
X043025Y041930D01*
X042977Y041853D02*
X041895Y041853D01*
X042033Y042239D02*
X042340Y042239D01*
X042263Y042316D02*
X042033Y042316D01*
X042033Y042393D02*
X042189Y042393D01*
X042066Y042471D02*
X042033Y042471D01*
X042031Y042548D02*
X041443Y042548D01*
X041443Y042625D02*
X042031Y042625D01*
X042031Y042702D02*
X041443Y042702D01*
X041441Y042471D02*
X041408Y042471D01*
X041737Y043038D02*
X041678Y043097D01*
X041678Y043531D01*
X041993Y043531D02*
X041993Y045755D01*
X042032Y045794D01*
X042464Y046410D02*
X042467Y046410D01*
X042938Y046680D02*
X042938Y046798D01*
X043115Y046975D01*
X043016Y047569D02*
X042821Y047569D01*
X042821Y047646D02*
X043016Y047646D01*
X043016Y047723D02*
X042821Y047723D01*
X042821Y047800D02*
X043016Y047800D01*
X043016Y047878D02*
X042821Y047878D01*
X042821Y047955D02*
X043016Y047955D01*
X043047Y048032D02*
X042789Y048032D01*
X042524Y047763D02*
X041934Y047763D01*
X041993Y047704D01*
X041993Y046680D01*
X041838Y046951D02*
X041833Y046951D01*
X041817Y047028D02*
X041854Y047028D01*
X041854Y047105D02*
X041817Y047105D01*
X041817Y047182D02*
X041854Y047182D01*
X041854Y047260D02*
X041747Y047260D01*
X041670Y047337D02*
X041854Y047337D01*
X041854Y047414D02*
X041593Y047414D01*
X041516Y047491D02*
X041671Y047491D01*
X041638Y047569D02*
X041443Y047569D01*
X041443Y047646D02*
X041638Y047646D01*
X041638Y047723D02*
X041443Y047723D01*
X041443Y047800D02*
X041638Y047800D01*
X041638Y047878D02*
X041443Y047878D01*
X041443Y047955D02*
X041638Y047955D01*
X041669Y048032D02*
X041411Y048032D01*
X041146Y047763D02*
X041146Y047566D01*
X041245Y047468D01*
X041343Y047468D01*
X041678Y047133D01*
X041678Y046680D01*
X041207Y046410D02*
X041204Y046410D01*
X040892Y046410D02*
X040889Y046410D01*
X040577Y046410D02*
X039769Y046410D01*
X039688Y046564D02*
X034947Y046564D01*
X034947Y046487D02*
X040545Y046487D01*
X040557Y046333D02*
X043114Y046333D01*
X043114Y046256D02*
X040557Y046256D01*
X040557Y046178D02*
X043114Y046178D01*
X043114Y046101D02*
X040557Y046101D01*
X040261Y046208D02*
X039493Y046208D01*
X039473Y046188D01*
X039177Y046178D02*
X038524Y046178D01*
X038601Y046101D02*
X039177Y046101D01*
X039177Y046024D02*
X038678Y046024D01*
X038756Y045947D02*
X039180Y045947D01*
X038987Y045715D02*
X039972Y045715D01*
X039964Y045792D02*
X038910Y045792D01*
X038833Y045869D02*
X039964Y045869D01*
X039964Y045947D02*
X039766Y045947D01*
X039769Y046024D02*
X039966Y046024D01*
X039964Y045638D02*
X039065Y045638D01*
X039142Y045560D02*
X039964Y045560D01*
X039964Y045483D02*
X039219Y045483D01*
X039296Y045406D02*
X039934Y045406D01*
X039924Y045329D02*
X039348Y045329D01*
X039376Y045251D02*
X039924Y045251D01*
X039924Y045174D02*
X039376Y045174D01*
X039376Y044788D02*
X039990Y044788D01*
X039964Y044711D02*
X039376Y044711D01*
X039376Y044633D02*
X039964Y044633D01*
X039964Y044556D02*
X039376Y044556D01*
X039376Y044479D02*
X039989Y044479D01*
X039964Y044402D02*
X039376Y044402D01*
X039376Y044325D02*
X039964Y044325D01*
X039964Y044247D02*
X039376Y044247D01*
X039376Y043938D02*
X039412Y043938D01*
X039417Y043861D02*
X039376Y043861D01*
X039376Y043784D02*
X039449Y043784D01*
X039376Y043707D02*
X039523Y043707D01*
X039432Y043629D02*
X039376Y043629D01*
X039817Y043707D02*
X040545Y043707D01*
X040545Y043629D02*
X039909Y043629D01*
X039966Y043552D02*
X040545Y043552D01*
X040545Y043475D02*
X039966Y043475D01*
X039966Y043398D02*
X040545Y043398D01*
X040545Y043320D02*
X039966Y043320D01*
X039966Y043243D02*
X040368Y043243D01*
X040290Y043166D02*
X039966Y043166D01*
X039959Y043089D02*
X040220Y043089D01*
X042013Y042780D02*
X042031Y042780D01*
X042308Y042763D02*
X042328Y042743D01*
X042328Y042448D01*
X042426Y042349D01*
X043607Y042349D01*
X043903Y042316D02*
X044098Y042316D01*
X044098Y042239D02*
X043903Y042239D01*
X043903Y042162D02*
X044098Y042162D01*
X044125Y042085D02*
X043876Y042085D01*
X043903Y042393D02*
X044098Y042393D01*
X044098Y042471D02*
X043903Y042471D01*
X043903Y042548D02*
X044098Y042548D01*
X044098Y042934D02*
X043903Y042934D01*
X043903Y043011D02*
X044098Y043011D01*
X044098Y043089D02*
X043903Y043089D01*
X043903Y043166D02*
X044098Y043166D01*
X044092Y043243D02*
X043903Y043243D01*
X043903Y043320D02*
X044015Y043320D01*
X043937Y043398D02*
X043881Y043398D01*
X043860Y043475D02*
X043465Y043475D01*
X043388Y043552D02*
X043783Y043552D01*
X043706Y043629D02*
X043311Y043629D01*
X043213Y043531D02*
X042938Y043531D01*
X042623Y043531D02*
X042623Y043235D01*
X043115Y042743D01*
X043402Y041930D02*
X049709Y041930D01*
X049709Y041853D02*
X043450Y041853D01*
X043468Y041776D02*
X049709Y041776D01*
X049709Y041698D02*
X043464Y041698D01*
X043432Y041621D02*
X049709Y041621D01*
X049709Y041544D02*
X043358Y041544D01*
X042308Y042763D02*
X042308Y043531D01*
X043410Y044003D02*
X043528Y044003D01*
X044394Y043137D01*
X044691Y043166D02*
X049709Y043166D01*
X049709Y043243D02*
X044691Y043243D01*
X044691Y043320D02*
X049709Y043320D01*
X049709Y043398D02*
X044668Y043398D01*
X044775Y043475D02*
X044999Y043475D01*
X044984Y043489D02*
X045042Y043431D01*
X045518Y043431D01*
X045577Y043489D01*
X045577Y043965D01*
X045518Y044024D01*
X045042Y044024D01*
X044984Y043965D01*
X044984Y043489D01*
X044984Y043552D02*
X044789Y043552D01*
X044789Y043629D02*
X044984Y043629D01*
X044984Y043707D02*
X044789Y043707D01*
X044789Y043784D02*
X044984Y043784D01*
X044984Y043861D02*
X044789Y043861D01*
X044789Y043938D02*
X044984Y043938D01*
X045034Y044016D02*
X044739Y044016D01*
X044760Y044247D02*
X045014Y044247D01*
X044984Y044325D02*
X044789Y044325D01*
X044493Y044515D02*
X045280Y044515D01*
X044984Y044711D02*
X044789Y044711D01*
X044754Y044788D02*
X045019Y044788D01*
X044788Y045204D02*
X044690Y045302D01*
X044493Y045302D01*
X044217Y045578D01*
X043410Y045578D01*
X043410Y045263D02*
X043942Y045263D01*
X044001Y045204D01*
X044297Y045174D02*
X044425Y045174D01*
X044492Y045097D02*
X044297Y045097D01*
X044297Y045020D02*
X044492Y045020D01*
X044515Y044942D02*
X044274Y044942D01*
X044232Y044788D02*
X043727Y044788D01*
X043746Y044865D02*
X046722Y044865D01*
X046716Y044942D02*
X046341Y044942D01*
X046364Y045020D02*
X046716Y045020D01*
X046785Y044788D02*
X045541Y044788D01*
X045553Y044942D02*
X045795Y044942D01*
X045771Y045020D02*
X045577Y045020D01*
X045577Y045097D02*
X045771Y045097D01*
X045771Y045174D02*
X045577Y045174D01*
X045577Y045251D02*
X045771Y045251D01*
X045771Y045329D02*
X045577Y045329D01*
X045577Y045406D02*
X045771Y045406D01*
X045813Y045483D02*
X045535Y045483D01*
X045593Y045638D02*
X045808Y045638D01*
X045771Y045715D02*
X045617Y045715D01*
X045617Y045792D02*
X045771Y045792D01*
X045771Y045869D02*
X045617Y045869D01*
X045617Y045947D02*
X045771Y045947D01*
X045320Y045869D02*
X045241Y045869D01*
X045241Y045792D02*
X045320Y045792D01*
X045320Y045715D02*
X045241Y045715D01*
X045241Y045638D02*
X045320Y045638D01*
X044968Y045638D02*
X044806Y045638D01*
X044829Y045715D02*
X044944Y045715D01*
X044944Y045792D02*
X044829Y045792D01*
X044829Y045869D02*
X044944Y045869D01*
X044944Y045947D02*
X044829Y045947D01*
X044829Y046101D02*
X044944Y046101D01*
X044944Y046178D02*
X044829Y046178D01*
X044829Y046256D02*
X044944Y046256D01*
X044944Y046333D02*
X044829Y046333D01*
X044822Y046410D02*
X044951Y046410D01*
X045016Y046487D02*
X044757Y046487D01*
X045241Y046487D02*
X045320Y046487D01*
X045320Y046410D02*
X045241Y046410D01*
X045241Y046333D02*
X045320Y046333D01*
X045320Y046256D02*
X045241Y046256D01*
X045241Y046178D02*
X045320Y046178D01*
X045320Y046101D02*
X045241Y046101D01*
X045280Y045204D02*
X044788Y045204D01*
X044533Y045483D02*
X044508Y045483D01*
X044347Y045251D02*
X044297Y045251D01*
X044157Y045792D02*
X043706Y045792D01*
X043706Y045869D02*
X044157Y045869D01*
X044375Y044633D02*
X043410Y044633D01*
X043682Y044479D02*
X044197Y044479D01*
X044197Y044402D02*
X044015Y044402D01*
X044092Y044325D02*
X044197Y044325D01*
X044169Y044247D02*
X044226Y044247D01*
X044246Y044170D02*
X046716Y044170D01*
X046718Y044093D02*
X044324Y044093D01*
X044493Y043727D02*
X043902Y044318D01*
X043410Y044318D01*
X044375Y044633D02*
X044493Y044515D01*
X045547Y044247D02*
X046716Y044247D01*
X046764Y044016D02*
X045526Y044016D01*
X045577Y043938D02*
X049709Y043938D01*
X049709Y043861D02*
X045577Y043861D01*
X045577Y043784D02*
X049709Y043784D01*
X049709Y043707D02*
X045577Y043707D01*
X045577Y043629D02*
X049709Y043629D01*
X049709Y043552D02*
X045577Y043552D01*
X045562Y043475D02*
X049709Y043475D01*
X049709Y043089D02*
X044691Y043089D01*
X045940Y043011D02*
X049709Y043011D01*
X049709Y042934D02*
X045970Y042934D01*
X045970Y042857D02*
X049709Y042857D01*
X049709Y042780D02*
X045970Y042780D01*
X045970Y042702D02*
X049709Y042702D01*
X049709Y042625D02*
X045970Y042625D01*
X045970Y042548D02*
X049709Y042548D01*
X049709Y042471D02*
X045936Y042471D01*
X047013Y044016D02*
X047091Y044016D01*
X047091Y044093D02*
X047013Y044093D01*
X047013Y044170D02*
X047091Y044170D01*
X047091Y044247D02*
X047013Y044247D01*
X047091Y044325D02*
X047543Y044325D01*
X047340Y044016D02*
X049709Y044016D01*
X050104Y044016D02*
X050299Y044016D01*
X050299Y044093D02*
X050104Y044093D01*
X050104Y044170D02*
X050299Y044170D01*
X050299Y044247D02*
X050104Y044247D01*
X050104Y044325D02*
X050299Y044325D01*
X050299Y044402D02*
X050104Y044402D01*
X050104Y044479D02*
X050299Y044479D01*
X050299Y044556D02*
X050104Y044556D01*
X050104Y044633D02*
X050299Y044633D01*
X050299Y044695D02*
X050299Y037412D01*
X049726Y036839D01*
X044857Y036839D01*
X044836Y036860D01*
X044741Y036899D01*
X044638Y036899D01*
X044544Y036860D01*
X044471Y036787D01*
X044432Y036692D01*
X044432Y036589D01*
X044471Y036495D01*
X044544Y036422D01*
X044638Y036383D01*
X044741Y036383D01*
X044836Y036422D01*
X044857Y036443D01*
X049890Y036443D01*
X050006Y036559D01*
X050695Y037248D01*
X050695Y044531D01*
X050913Y044750D01*
X050988Y044750D01*
X050988Y044257D01*
X051026Y044219D01*
X050988Y044182D01*
X050988Y042800D01*
X051046Y042742D01*
X051579Y042742D01*
X051579Y036821D01*
X051104Y036346D01*
X045152Y036346D01*
X045131Y036367D01*
X045036Y036407D01*
X044934Y036407D01*
X044839Y036367D01*
X044766Y036295D01*
X044727Y036200D01*
X044727Y036097D01*
X044766Y036002D01*
X044839Y035930D01*
X044934Y035891D01*
X045036Y035891D01*
X045131Y035930D01*
X045152Y035951D01*
X051268Y035951D01*
X051384Y036067D01*
X051974Y036657D01*
X051974Y042742D01*
X052507Y042742D01*
X052565Y042800D01*
X052565Y044182D01*
X052527Y044219D01*
X052565Y044257D01*
X052565Y045639D01*
X052507Y045697D01*
X051046Y045697D01*
X050988Y045639D01*
X050988Y045146D01*
X050750Y045146D01*
X050634Y045030D01*
X050634Y045030D01*
X050415Y044811D01*
X050415Y044811D01*
X050299Y044695D01*
X050315Y044711D02*
X050104Y044711D01*
X050104Y044788D02*
X050392Y044788D01*
X050469Y044865D02*
X050104Y044865D01*
X050104Y044942D02*
X050546Y044942D01*
X050624Y045020D02*
X050104Y045020D01*
X050104Y045097D02*
X050701Y045097D01*
X050988Y045174D02*
X050104Y045174D01*
X050104Y045251D02*
X050988Y045251D01*
X050988Y045329D02*
X050104Y045329D01*
X050104Y045406D02*
X050988Y045406D01*
X050988Y045483D02*
X050170Y045483D01*
X050104Y045417D02*
X050480Y045793D01*
X053368Y045793D01*
X053464Y045697D01*
X053446Y045715D02*
X050402Y045715D01*
X050479Y045792D02*
X053369Y045792D01*
X052957Y045638D02*
X052565Y045638D01*
X052565Y045560D02*
X052957Y045560D01*
X052957Y045483D02*
X052565Y045483D01*
X052565Y045406D02*
X052957Y045406D01*
X052957Y045329D02*
X052565Y045329D01*
X052565Y045251D02*
X052957Y045251D01*
X052957Y045174D02*
X052565Y045174D01*
X052565Y045097D02*
X052957Y045097D01*
X052957Y045020D02*
X052565Y045020D01*
X052565Y044942D02*
X052957Y044942D01*
X052957Y044865D02*
X052565Y044865D01*
X052565Y044788D02*
X052957Y044788D01*
X052957Y044711D02*
X052565Y044711D01*
X052565Y044633D02*
X052957Y044633D01*
X052957Y044556D02*
X052565Y044556D01*
X052565Y044479D02*
X052957Y044479D01*
X052957Y044402D02*
X052565Y044402D01*
X052565Y044325D02*
X052957Y044325D01*
X052966Y044247D02*
X052555Y044247D01*
X052565Y044170D02*
X052957Y044170D01*
X052957Y044093D02*
X052565Y044093D01*
X052565Y044016D02*
X052957Y044016D01*
X052957Y043938D02*
X052565Y043938D01*
X052565Y043861D02*
X052957Y043861D01*
X052957Y043784D02*
X052565Y043784D01*
X052565Y043707D02*
X052957Y043707D01*
X052957Y043629D02*
X052565Y043629D01*
X052565Y043552D02*
X052957Y043552D01*
X052957Y043475D02*
X052565Y043475D01*
X052565Y043398D02*
X052957Y043398D01*
X052957Y043320D02*
X052565Y043320D01*
X052565Y043243D02*
X052957Y043243D01*
X052957Y043166D02*
X052565Y043166D01*
X052565Y043089D02*
X052957Y043089D01*
X052957Y043011D02*
X052565Y043011D01*
X052565Y042934D02*
X052957Y042934D01*
X052957Y042857D02*
X052565Y042857D01*
X052544Y042780D02*
X052977Y042780D01*
X053055Y042702D02*
X051974Y042702D01*
X051974Y042625D02*
X053055Y042625D01*
X053055Y042548D02*
X051974Y042548D01*
X051974Y042471D02*
X053055Y042471D01*
X053055Y042393D02*
X051974Y042393D01*
X051974Y042316D02*
X053055Y042316D01*
X053055Y042239D02*
X051974Y042239D01*
X051974Y042162D02*
X053055Y042162D01*
X053055Y042085D02*
X051974Y042085D01*
X051974Y042007D02*
X053055Y042007D01*
X053055Y041930D02*
X051974Y041930D01*
X051974Y041853D02*
X053055Y041853D01*
X053055Y041776D02*
X051974Y041776D01*
X051974Y041698D02*
X053055Y041698D01*
X053055Y041621D02*
X051974Y041621D01*
X051974Y041544D02*
X053055Y041544D01*
X053055Y041467D02*
X051974Y041467D01*
X051974Y041389D02*
X053055Y041389D01*
X053055Y041312D02*
X051974Y041312D01*
X051974Y041235D02*
X053055Y041235D01*
X053055Y041158D02*
X051974Y041158D01*
X051974Y041080D02*
X053055Y041080D01*
X053055Y041003D02*
X051974Y041003D01*
X051974Y040926D02*
X053055Y040926D01*
X053055Y040849D02*
X051974Y040849D01*
X051974Y040771D02*
X053055Y040771D01*
X053055Y040694D02*
X051974Y040694D01*
X051974Y040617D02*
X053055Y040617D01*
X053055Y040540D02*
X051974Y040540D01*
X051974Y040462D02*
X053055Y040462D01*
X053055Y040385D02*
X051974Y040385D01*
X051974Y040308D02*
X053055Y040308D01*
X053055Y040231D02*
X051974Y040231D01*
X051974Y040154D02*
X053055Y040154D01*
X053055Y040076D02*
X051974Y040076D01*
X051974Y039999D02*
X053055Y039999D01*
X053055Y039922D02*
X051974Y039922D01*
X051974Y039845D02*
X053055Y039845D01*
X053055Y039767D02*
X051974Y039767D01*
X051974Y039690D02*
X053055Y039690D01*
X053055Y039613D02*
X051974Y039613D01*
X051974Y039536D02*
X053055Y039536D01*
X053055Y039458D02*
X051974Y039458D01*
X051974Y039381D02*
X053055Y039381D01*
X053055Y039304D02*
X051974Y039304D01*
X051974Y039227D02*
X053055Y039227D01*
X053055Y039149D02*
X051974Y039149D01*
X051974Y039072D02*
X053055Y039072D01*
X053055Y038995D02*
X051974Y038995D01*
X051974Y038918D02*
X053055Y038918D01*
X053055Y038840D02*
X051974Y038840D01*
X051974Y038763D02*
X053055Y038763D01*
X053055Y038686D02*
X051974Y038686D01*
X051974Y038609D02*
X053055Y038609D01*
X053055Y038531D02*
X051974Y038531D01*
X051974Y038454D02*
X053055Y038454D01*
X053055Y038377D02*
X051974Y038377D01*
X051974Y038300D02*
X053055Y038300D01*
X053055Y038223D02*
X051974Y038223D01*
X051974Y038145D02*
X053055Y038145D01*
X053055Y038068D02*
X051974Y038068D01*
X051974Y037991D02*
X053055Y037991D01*
X053055Y037914D02*
X051974Y037914D01*
X051974Y037836D02*
X053055Y037836D01*
X053055Y037759D02*
X051974Y037759D01*
X051974Y037682D02*
X053055Y037682D01*
X053055Y037605D02*
X051974Y037605D01*
X051974Y037527D02*
X053055Y037527D01*
X053055Y037450D02*
X051974Y037450D01*
X051974Y037373D02*
X053055Y037373D01*
X053055Y037296D02*
X051974Y037296D01*
X051974Y037218D02*
X053055Y037218D01*
X053055Y037141D02*
X051974Y037141D01*
X051974Y037064D02*
X053055Y037064D01*
X053055Y036987D02*
X051974Y036987D01*
X051974Y036909D02*
X053055Y036909D01*
X053055Y036832D02*
X051974Y036832D01*
X051974Y036755D02*
X053055Y036755D01*
X053055Y036678D02*
X051974Y036678D01*
X051917Y036600D02*
X053055Y036600D01*
X053055Y036523D02*
X051840Y036523D01*
X051763Y036446D02*
X053055Y036446D01*
X053055Y036369D02*
X051686Y036369D01*
X051608Y036291D02*
X053055Y036291D01*
X053055Y036214D02*
X051531Y036214D01*
X051454Y036137D02*
X053055Y036137D01*
X053055Y036060D02*
X051377Y036060D01*
X051299Y035983D02*
X053055Y035983D01*
X053055Y035905D02*
X045072Y035905D01*
X044898Y035905D02*
X037112Y035905D01*
X037112Y035828D02*
X053055Y035828D01*
X053055Y035751D02*
X037112Y035751D01*
X037112Y035674D02*
X053055Y035674D01*
X053055Y035596D02*
X037112Y035596D01*
X037112Y035519D02*
X053055Y035519D01*
X053055Y035442D02*
X037112Y035442D01*
X037112Y035365D02*
X053055Y035365D01*
X053055Y035287D02*
X037112Y035287D01*
X037112Y035210D02*
X053055Y035210D01*
X053055Y035133D02*
X037112Y035133D01*
X037112Y035056D02*
X053055Y035056D01*
X053055Y034978D02*
X037112Y034978D01*
X037112Y034901D02*
X053055Y034901D01*
X053055Y034824D02*
X037112Y034824D01*
X037112Y034747D02*
X053055Y034747D01*
X053055Y034669D02*
X037112Y034669D01*
X037112Y034592D02*
X053055Y034592D01*
X053055Y034515D02*
X037112Y034515D01*
X037112Y034438D02*
X053055Y034438D01*
X053055Y034360D02*
X037112Y034360D01*
X037112Y034283D02*
X053055Y034283D01*
X053055Y034206D02*
X037112Y034206D01*
X037112Y034129D02*
X053055Y034129D01*
X053055Y034052D02*
X037112Y034052D01*
X037112Y033974D02*
X053055Y033974D01*
X053055Y033897D02*
X037112Y033897D01*
X037112Y033820D02*
X053055Y033820D01*
X053055Y033743D02*
X037112Y033743D01*
X037112Y033665D02*
X053055Y033665D01*
X053055Y033588D02*
X037112Y033588D01*
X037112Y033511D02*
X053055Y033511D01*
X053055Y033434D02*
X037112Y033434D01*
X037112Y033356D02*
X053055Y033356D01*
X053055Y033279D02*
X037112Y033279D01*
X037112Y033202D02*
X053055Y033202D01*
X053055Y033125D02*
X037112Y033125D01*
X037112Y033047D02*
X053055Y033047D01*
X053055Y032970D02*
X037112Y032970D01*
X037112Y032893D02*
X053055Y032893D01*
X053055Y032816D02*
X037112Y032816D01*
X037112Y032738D02*
X053055Y032738D01*
X053055Y032661D02*
X037112Y032661D01*
X037112Y032584D02*
X053055Y032584D01*
X053055Y032507D02*
X037112Y032507D01*
X037112Y032429D02*
X053055Y032429D01*
X053055Y032352D02*
X037112Y032352D01*
X037112Y032275D02*
X053055Y032275D01*
X053055Y032198D02*
X037112Y032198D01*
X037112Y032121D02*
X053055Y032121D01*
X053055Y032043D02*
X037112Y032043D01*
X037112Y031966D02*
X053055Y031966D01*
X053055Y031889D02*
X037112Y031889D01*
X037112Y031812D02*
X053055Y031812D01*
X053055Y031734D02*
X037112Y031734D01*
X037112Y031657D02*
X053055Y031657D01*
X053055Y031580D02*
X037112Y031580D01*
X037112Y031503D02*
X053055Y031503D01*
X053055Y031425D02*
X037112Y031425D01*
X037112Y031348D02*
X053055Y031348D01*
X053055Y031271D02*
X037112Y031271D01*
X037112Y031194D02*
X053055Y031194D01*
X053055Y031116D02*
X037112Y031116D01*
X037112Y031039D02*
X053055Y031039D01*
X053055Y030962D02*
X037112Y030962D01*
X037112Y030885D02*
X053055Y030885D01*
X053055Y030807D02*
X037112Y030807D01*
X037112Y030730D02*
X053055Y030730D01*
X053055Y030653D02*
X037112Y030653D01*
X037112Y030576D02*
X053055Y030576D01*
X053055Y030498D02*
X037112Y030498D01*
X037112Y030421D02*
X053055Y030421D01*
X053055Y030344D02*
X037112Y030344D01*
X037112Y030267D02*
X053055Y030267D01*
X053055Y030190D02*
X037112Y030190D01*
X037112Y030112D02*
X053055Y030112D01*
X053055Y030035D02*
X037112Y030035D01*
X037112Y029958D02*
X053055Y029958D01*
X053055Y029881D02*
X037112Y029881D01*
X037112Y029803D02*
X053055Y029803D01*
X053055Y029726D02*
X037112Y029726D01*
X037112Y029649D02*
X053055Y029649D01*
X053055Y029572D02*
X037112Y029572D01*
X037112Y029494D02*
X053055Y029494D01*
X053055Y029417D02*
X037112Y029417D01*
X037112Y029340D02*
X053055Y029340D01*
X053055Y029263D02*
X037112Y029263D01*
X037112Y029185D02*
X053055Y029185D01*
X053055Y029108D02*
X037112Y029108D01*
X037112Y029031D02*
X053055Y029031D01*
X053055Y028954D02*
X037112Y028954D01*
X037112Y028876D02*
X053055Y028876D01*
X053055Y028799D02*
X037112Y028799D01*
X037112Y028722D02*
X053055Y028722D01*
X053055Y028645D02*
X037112Y028645D01*
X037112Y028567D02*
X053055Y028567D01*
X053055Y028490D02*
X037112Y028490D01*
X037112Y028413D02*
X053055Y028413D01*
X053055Y028336D02*
X037112Y028336D01*
X037112Y028258D02*
X053055Y028258D01*
X053055Y028181D02*
X037112Y028181D01*
X037112Y028104D02*
X053055Y028104D01*
X053055Y028027D02*
X037112Y028027D01*
X037112Y027950D02*
X053055Y027950D01*
X053055Y027872D02*
X037112Y027872D01*
X037112Y027795D02*
X053055Y027795D01*
X053055Y027718D02*
X037112Y027718D01*
X037112Y027641D02*
X053055Y027641D01*
X053055Y027563D02*
X037112Y027563D01*
X037112Y027486D02*
X053055Y027486D01*
X053055Y027409D02*
X037112Y027409D01*
X037112Y027332D02*
X053055Y027332D01*
X053055Y027254D02*
X037112Y027254D01*
X037112Y027177D02*
X053055Y027177D01*
X053055Y027100D02*
X037112Y027100D01*
X037112Y027023D02*
X053055Y027023D01*
X053055Y026945D02*
X037112Y026945D01*
X037112Y026868D02*
X053055Y026868D01*
X053055Y026791D02*
X037112Y026791D01*
X037112Y026714D02*
X053055Y026714D01*
X053055Y026636D02*
X037112Y026636D01*
X037112Y026559D02*
X053055Y026559D01*
X053055Y026482D02*
X037112Y026482D01*
X037112Y026405D02*
X053055Y026405D01*
X053055Y026327D02*
X037112Y026327D01*
X037112Y026250D02*
X053055Y026250D01*
X053055Y026173D02*
X037112Y026173D01*
X037112Y026096D02*
X053055Y026096D01*
X053055Y026019D02*
X037112Y026019D01*
X037112Y025941D02*
X053055Y025941D01*
X053055Y025864D02*
X037112Y025864D01*
X037112Y025787D02*
X053055Y025787D01*
X053055Y025710D02*
X037112Y025710D01*
X037112Y025632D02*
X053055Y025632D01*
X053055Y025555D02*
X037112Y025555D01*
X037112Y025478D02*
X053055Y025478D01*
X053055Y025401D02*
X037112Y025401D01*
X037112Y025323D02*
X053055Y025323D01*
X053055Y025246D02*
X037112Y025246D01*
X037112Y025169D02*
X053055Y025169D01*
X053055Y025092D02*
X037112Y025092D01*
X037112Y025014D02*
X053055Y025014D01*
X053055Y024937D02*
X037112Y024937D01*
X037112Y024860D02*
X053055Y024860D01*
X053055Y024783D02*
X037112Y024783D01*
X037112Y024705D02*
X053055Y024705D01*
X053055Y024628D02*
X037112Y024628D01*
X037112Y024551D02*
X053055Y024551D01*
X053055Y024474D02*
X037112Y024474D01*
X037112Y024396D02*
X053055Y024396D01*
X053055Y024319D02*
X037112Y024319D01*
X037112Y024242D02*
X053055Y024242D01*
X053055Y024165D02*
X037112Y024165D01*
X037112Y024088D02*
X053055Y024088D01*
X053055Y024010D02*
X037112Y024010D01*
X037112Y023933D02*
X053055Y023933D01*
X053055Y023856D02*
X037112Y023856D01*
X037112Y023779D02*
X053055Y023779D01*
X053055Y023701D02*
X037112Y023701D01*
X037112Y023624D02*
X053055Y023624D01*
X053055Y023547D02*
X037112Y023547D01*
X037112Y023470D02*
X053055Y023470D01*
X053055Y023392D02*
X037112Y023392D01*
X037112Y023315D02*
X053055Y023315D01*
X053055Y023238D02*
X037112Y023238D01*
X037112Y023161D02*
X053055Y023161D01*
X053055Y023083D02*
X037112Y023083D01*
X037112Y023006D02*
X053055Y023006D01*
X053055Y022929D02*
X037112Y022929D01*
X037112Y022852D02*
X053055Y022852D01*
X053055Y022774D02*
X037112Y022774D01*
X037112Y022697D02*
X053055Y022697D01*
X053055Y022620D02*
X037112Y022620D01*
X037112Y022543D02*
X053055Y022543D01*
X053055Y022465D02*
X037112Y022465D01*
X037112Y022388D02*
X053055Y022388D01*
X053055Y022311D02*
X037112Y022311D01*
X037112Y022234D02*
X053055Y022234D01*
X053055Y022157D02*
X037112Y022157D01*
X037112Y022079D02*
X053055Y022079D01*
X053055Y022002D02*
X037112Y022002D01*
X037112Y021925D02*
X053055Y021925D01*
X053055Y021848D02*
X037112Y021848D01*
X037112Y021770D02*
X053055Y021770D01*
X053055Y021693D02*
X037112Y021693D01*
X037112Y021616D02*
X053055Y021616D01*
X053055Y021539D02*
X037112Y021539D01*
X037112Y021461D02*
X053055Y021461D01*
X053055Y021384D02*
X037112Y021384D01*
X037112Y021307D02*
X053055Y021307D01*
X053055Y021230D02*
X037112Y021230D01*
X037112Y021152D02*
X053055Y021152D01*
X053055Y021075D02*
X037112Y021075D01*
X037112Y020998D02*
X053055Y020998D01*
X053055Y020921D02*
X037112Y020921D01*
X037112Y020843D02*
X053055Y020843D01*
X053055Y020766D02*
X037112Y020766D01*
X037112Y020689D02*
X053055Y020689D01*
X053055Y020612D02*
X037112Y020612D01*
X037112Y020534D02*
X053055Y020534D01*
X053055Y020457D02*
X037112Y020457D01*
X037112Y020380D02*
X053055Y020380D01*
X053055Y020303D02*
X037112Y020303D01*
X037112Y020225D02*
X053055Y020225D01*
X053055Y020148D02*
X037112Y020148D01*
X037112Y020071D02*
X053055Y020071D01*
X053055Y019994D02*
X037112Y019994D01*
X037112Y019917D02*
X053055Y019917D01*
X053055Y019839D02*
X037112Y019839D01*
X037112Y019762D02*
X053055Y019762D01*
X053055Y019685D02*
X037112Y019685D01*
X037112Y019608D02*
X053055Y019608D01*
X053055Y019530D02*
X037112Y019530D01*
X037112Y019453D02*
X053055Y019453D01*
X053055Y019376D02*
X037112Y019376D01*
X037112Y019299D02*
X053055Y019299D01*
X053055Y019221D02*
X037112Y019221D01*
X037112Y019144D02*
X053055Y019144D01*
X053055Y019067D02*
X037112Y019067D01*
X037112Y018990D02*
X053055Y018990D01*
X053055Y018912D02*
X037112Y018912D01*
X037112Y018835D02*
X053055Y018835D01*
X053055Y018758D02*
X037112Y018758D01*
X037112Y018681D02*
X053055Y018681D01*
X053055Y018603D02*
X037112Y018603D01*
X037112Y018526D02*
X053055Y018526D01*
X053055Y018449D02*
X037112Y018449D01*
X037112Y018372D02*
X053055Y018372D01*
X053055Y018294D02*
X037112Y018294D01*
X037112Y018217D02*
X053055Y018217D01*
X053055Y018140D02*
X037112Y018140D01*
X037112Y018063D02*
X053055Y018063D01*
X053055Y017986D02*
X037112Y017986D01*
X037112Y017908D02*
X053055Y017908D01*
X053055Y017831D02*
X037112Y017831D01*
X037112Y017754D02*
X053055Y017754D01*
X053055Y017677D02*
X037112Y017677D01*
X037112Y017599D02*
X053055Y017599D01*
X053055Y017522D02*
X037112Y017522D01*
X037112Y017445D02*
X053055Y017445D01*
X053055Y017368D02*
X037112Y017368D01*
X037112Y017290D02*
X053055Y017290D01*
X053055Y017213D02*
X037112Y017213D01*
X037112Y017136D02*
X053055Y017136D01*
X053055Y017059D02*
X037112Y017059D01*
X037112Y016981D02*
X053055Y016981D01*
X053055Y016904D02*
X037188Y016904D01*
X037265Y016827D02*
X053000Y016827D01*
X052923Y016750D02*
X040147Y016750D01*
X040274Y016672D02*
X052846Y016672D01*
X052769Y016595D02*
X040351Y016595D01*
X040428Y016518D02*
X052691Y016518D01*
X052614Y016441D02*
X040506Y016441D01*
X040583Y016363D02*
X052537Y016363D01*
X052460Y016286D02*
X040660Y016286D01*
X040737Y016209D02*
X052382Y016209D01*
X052305Y016132D02*
X040815Y016132D01*
X040892Y016055D02*
X052228Y016055D01*
X052151Y015977D02*
X040969Y015977D01*
X041046Y015900D02*
X052073Y015900D01*
X051996Y015823D02*
X041123Y015823D01*
X041201Y015746D02*
X046133Y015746D01*
X046035Y015668D02*
X041278Y015668D01*
X041355Y015591D02*
X045957Y015591D01*
X045880Y015514D02*
X041412Y015514D01*
X041443Y015437D02*
X045803Y015437D01*
X045726Y015359D02*
X041443Y015359D01*
X041443Y015282D02*
X045648Y015282D01*
X045571Y015205D02*
X041443Y015205D01*
X041443Y015128D02*
X045494Y015128D01*
X045420Y015050D02*
X041443Y015050D01*
X041443Y014973D02*
X045388Y014973D01*
X045378Y014896D02*
X041443Y014896D01*
X041443Y014819D02*
X045378Y014819D01*
X045378Y014741D02*
X041443Y014741D01*
X041443Y014664D02*
X045378Y014664D01*
X045378Y014587D02*
X041443Y014587D01*
X041443Y014510D02*
X045378Y014510D01*
X045378Y014432D02*
X041443Y014432D01*
X041443Y014355D02*
X045378Y014355D01*
X045378Y014278D02*
X041443Y014278D01*
X041443Y014201D02*
X045378Y014201D01*
X045378Y014124D02*
X041443Y014124D01*
X041443Y014046D02*
X045378Y014046D01*
X045378Y013969D02*
X041443Y013969D01*
X041443Y013892D02*
X045378Y013892D01*
X045378Y013815D02*
X041443Y013815D01*
X041443Y013737D02*
X045378Y013737D01*
X045378Y013660D02*
X041443Y013660D01*
X040850Y013660D02*
X040754Y013660D01*
X040754Y013583D02*
X040850Y013583D01*
X040850Y013506D02*
X040754Y013506D01*
X040754Y013428D02*
X040860Y013428D01*
X040892Y013351D02*
X040754Y013351D01*
X040754Y013274D02*
X040965Y013274D01*
X041042Y013197D02*
X040754Y013197D01*
X040754Y013119D02*
X041119Y013119D01*
X041226Y013042D02*
X040754Y013042D01*
X040754Y012965D02*
X042346Y012965D01*
X042346Y012888D02*
X040754Y012888D01*
X040754Y012810D02*
X042346Y012810D01*
X042346Y012733D02*
X040826Y012733D01*
X040903Y012656D02*
X041549Y012656D01*
X041557Y012192D02*
X040360Y012192D01*
X040360Y012115D02*
X042306Y012115D01*
X042306Y012192D02*
X042036Y012192D01*
X042073Y012270D02*
X042318Y012270D01*
X042412Y012347D02*
X042073Y012347D01*
X042073Y012424D02*
X042917Y012424D01*
X042917Y012347D02*
X042833Y012347D01*
X042662Y012347D02*
X042583Y012347D01*
X042583Y012270D02*
X042662Y012270D01*
X042662Y012192D02*
X042583Y012192D01*
X042583Y012115D02*
X042662Y012115D01*
X042662Y012038D02*
X043029Y012038D01*
X043106Y011961D02*
X042939Y011961D01*
X042939Y011884D02*
X043183Y011884D01*
X043331Y011806D02*
X042907Y011806D01*
X042892Y011729D02*
X046350Y011729D01*
X046342Y011652D02*
X042899Y011652D01*
X042899Y011575D02*
X046342Y011575D01*
X046342Y011420D02*
X046293Y011420D01*
X046037Y011497D02*
X046619Y011497D01*
X046619Y011420D02*
X046698Y011420D01*
X046698Y011483D02*
X046698Y011226D01*
X046854Y011226D01*
X046889Y011235D01*
X046921Y011254D01*
X046947Y011280D01*
X046965Y011311D01*
X046975Y011347D01*
X046975Y011483D01*
X046698Y011483D01*
X046698Y011497D02*
X049680Y011497D01*
X049603Y011420D02*
X046975Y011420D01*
X046974Y011343D02*
X047209Y011343D01*
X047209Y011347D02*
X047209Y010950D01*
X047267Y010892D01*
X047703Y010892D01*
X047762Y010950D01*
X047762Y010951D01*
X047869Y010951D01*
X047890Y010930D01*
X047985Y010891D01*
X048088Y010891D01*
X048182Y010930D01*
X048203Y010951D01*
X049693Y010951D01*
X050382Y011640D01*
X050498Y011756D01*
X050498Y013232D01*
X050913Y013648D01*
X050988Y013648D01*
X050988Y013155D01*
X051026Y013117D01*
X050988Y013080D01*
X050988Y011698D01*
X051046Y011640D01*
X051579Y011640D01*
X051579Y010640D01*
X051005Y010067D01*
X048302Y010067D01*
X048281Y010088D01*
X048186Y010127D01*
X048083Y010127D01*
X047988Y010088D01*
X047967Y010067D01*
X047762Y010067D01*
X047762Y010068D01*
X047703Y010126D01*
X047267Y010126D01*
X047209Y010068D01*
X047209Y009670D01*
X047267Y009612D01*
X047703Y009612D01*
X047762Y009670D01*
X047762Y009671D01*
X047967Y009671D01*
X047988Y009650D01*
X048083Y009611D01*
X048186Y009611D01*
X048281Y009650D01*
X048302Y009671D01*
X051169Y009671D01*
X051858Y010360D01*
X051974Y010476D01*
X051974Y011640D01*
X052507Y011640D01*
X052565Y011698D01*
X052565Y013080D01*
X052527Y013117D01*
X052565Y013155D01*
X052565Y014536D01*
X052507Y014594D01*
X051046Y014594D01*
X050988Y014536D01*
X050988Y014043D01*
X050750Y014043D01*
X050634Y013927D01*
X050102Y013396D01*
X050102Y011920D01*
X049529Y011346D01*
X048203Y011346D01*
X048182Y011367D01*
X048088Y011407D01*
X047985Y011407D01*
X047890Y011367D01*
X047869Y011346D01*
X047762Y011346D01*
X047762Y011347D01*
X047703Y011405D01*
X047267Y011405D01*
X047209Y011347D01*
X047209Y011266D02*
X046933Y011266D01*
X046698Y011266D02*
X046619Y011266D01*
X046619Y011343D02*
X046698Y011343D01*
X046524Y011188D02*
X047209Y011188D01*
X047209Y011111D02*
X046601Y011111D01*
X046679Y011034D02*
X047209Y011034D01*
X047209Y010957D02*
X046935Y010957D01*
X046935Y010879D02*
X051579Y010879D01*
X051579Y010802D02*
X046935Y010802D01*
X046935Y010725D02*
X051579Y010725D01*
X051579Y010648D02*
X046935Y010648D01*
X046929Y010570D02*
X051509Y010570D01*
X051432Y010493D02*
X046940Y010493D01*
X046975Y010416D02*
X051355Y010416D01*
X051277Y010339D02*
X046975Y010339D01*
X046975Y010204D02*
X046698Y010204D01*
X046698Y009946D01*
X046854Y009946D01*
X046889Y009956D01*
X046921Y009974D01*
X046947Y010000D01*
X046965Y010032D01*
X046975Y010067D01*
X046975Y010204D01*
X046975Y010184D02*
X051123Y010184D01*
X051046Y010107D02*
X048235Y010107D01*
X048035Y010107D02*
X047722Y010107D01*
X047735Y009644D02*
X048005Y009644D01*
X048265Y009644D02*
X054433Y009644D01*
X054433Y009721D02*
X053580Y009721D01*
X053486Y009682D02*
X053736Y009785D01*
X053927Y009976D01*
X054031Y010226D01*
X054031Y010496D01*
X053927Y010746D01*
X053736Y010937D01*
X053486Y011041D01*
X053216Y011041D01*
X052966Y010937D01*
X052775Y010746D01*
X052672Y010496D01*
X052672Y010226D01*
X052775Y009976D01*
X052966Y009785D01*
X053216Y009682D01*
X053486Y009682D01*
X053749Y009798D02*
X054433Y009798D01*
X054433Y009875D02*
X053826Y009875D01*
X053903Y009953D02*
X054433Y009953D01*
X054433Y010030D02*
X053949Y010030D01*
X053981Y010107D02*
X054433Y010107D01*
X054433Y010184D02*
X054013Y010184D01*
X054031Y010261D02*
X054433Y010261D01*
X054433Y010339D02*
X054031Y010339D01*
X054031Y010416D02*
X054433Y010416D01*
X054433Y010493D02*
X054031Y010493D01*
X054000Y010570D02*
X054433Y010570D01*
X054433Y010648D02*
X053968Y010648D01*
X053936Y010725D02*
X054433Y010725D01*
X054433Y010802D02*
X053871Y010802D01*
X053794Y010879D02*
X054433Y010879D01*
X054433Y010957D02*
X053689Y010957D01*
X053502Y011034D02*
X054433Y011034D01*
X054433Y011111D02*
X051974Y011111D01*
X051974Y011034D02*
X053200Y011034D01*
X053013Y010957D02*
X051974Y010957D01*
X051974Y010879D02*
X052909Y010879D01*
X052831Y010802D02*
X051974Y010802D01*
X051974Y010725D02*
X052766Y010725D01*
X052734Y010648D02*
X051974Y010648D01*
X051974Y010570D02*
X052703Y010570D01*
X052672Y010493D02*
X051974Y010493D01*
X051914Y010416D02*
X052672Y010416D01*
X052672Y010339D02*
X051837Y010339D01*
X051760Y010261D02*
X052672Y010261D01*
X052689Y010184D02*
X051682Y010184D01*
X051605Y010107D02*
X052721Y010107D01*
X052753Y010030D02*
X051528Y010030D01*
X051451Y009953D02*
X052799Y009953D01*
X052876Y009875D02*
X051373Y009875D01*
X051296Y009798D02*
X052954Y009798D01*
X053122Y009721D02*
X051219Y009721D01*
X051200Y010261D02*
X046698Y010261D01*
X046698Y010184D02*
X046619Y010184D01*
X046619Y010107D02*
X046698Y010107D01*
X046698Y010030D02*
X046619Y010030D01*
X046619Y009953D02*
X046698Y009953D01*
X046877Y009953D02*
X047209Y009953D01*
X047209Y010030D02*
X046964Y010030D01*
X046975Y010107D02*
X047248Y010107D01*
X047209Y009875D02*
X046364Y009875D01*
X046364Y009953D02*
X046439Y009953D01*
X046418Y009798D02*
X047209Y009798D01*
X047209Y009721D02*
X046908Y009721D01*
X046935Y009644D02*
X047235Y009644D01*
X046935Y009566D02*
X054433Y009566D01*
X054433Y009489D02*
X046935Y009489D01*
X046935Y009412D02*
X054433Y009412D01*
X054433Y009335D02*
X046935Y009335D01*
X046322Y009335D02*
X042939Y009335D01*
X042939Y009412D02*
X043306Y009412D01*
X043300Y009422D02*
X043318Y009390D01*
X043344Y009364D01*
X043376Y009346D01*
X043412Y009336D01*
X043715Y009336D01*
X043715Y009633D01*
X043291Y009633D01*
X043291Y009457D01*
X043300Y009422D01*
X043291Y009489D02*
X042662Y009489D01*
X042662Y009566D02*
X042583Y009566D01*
X042583Y009534D02*
X042583Y009792D01*
X042427Y009792D01*
X042392Y009782D01*
X042360Y009764D01*
X042334Y009738D01*
X042316Y009706D01*
X042306Y009671D01*
X042306Y009534D01*
X042583Y009534D01*
X042583Y009489D02*
X034947Y009489D01*
X034947Y009412D02*
X042306Y009412D01*
X042306Y009335D02*
X034947Y009335D01*
X034947Y009566D02*
X042306Y009566D01*
X042306Y009644D02*
X042046Y009644D01*
X042073Y009721D02*
X042324Y009721D01*
X042583Y009721D02*
X042662Y009721D01*
X042662Y009644D02*
X042583Y009644D01*
X042922Y009721D02*
X043291Y009721D01*
X043291Y009712D02*
X043715Y009712D01*
X043715Y010008D01*
X043412Y010008D01*
X043376Y009999D01*
X043344Y009981D01*
X043318Y009955D01*
X043300Y009923D01*
X043291Y009887D01*
X043291Y009712D01*
X043291Y009798D02*
X042073Y009798D01*
X042073Y009875D02*
X043291Y009875D01*
X043317Y009953D02*
X042073Y009953D01*
X042073Y010030D02*
X042361Y010030D01*
X042346Y010107D02*
X042033Y010107D01*
X042346Y010184D02*
X040324Y010184D01*
X040401Y010107D02*
X041559Y010107D01*
X041546Y009644D02*
X039505Y009644D01*
X039521Y009650D02*
X039594Y009723D01*
X039633Y009818D01*
X039633Y009920D01*
X039594Y010015D01*
X039521Y010088D01*
X039426Y010127D01*
X039396Y010127D01*
X039376Y010148D01*
X039376Y013494D01*
X039260Y013610D01*
X038827Y014043D01*
X038391Y014043D01*
X038391Y014536D01*
X038333Y014594D01*
X036873Y014594D01*
X036815Y014536D01*
X036815Y013155D01*
X036852Y013117D01*
X036815Y013080D01*
X036815Y011698D01*
X036873Y011640D01*
X037718Y011640D01*
X038231Y011127D01*
X038231Y011097D01*
X038270Y011002D01*
X038343Y010930D01*
X038438Y010891D01*
X038540Y010891D01*
X038635Y010930D01*
X038708Y011002D01*
X038747Y011097D01*
X038747Y011200D01*
X038708Y011295D01*
X038635Y011367D01*
X038540Y011407D01*
X038511Y011407D01*
X038278Y011640D01*
X038333Y011640D01*
X038391Y011698D01*
X038391Y013080D01*
X038354Y013117D01*
X038391Y013155D01*
X038391Y013648D01*
X038663Y013648D01*
X038980Y013330D01*
X038980Y009984D01*
X039117Y009847D01*
X039117Y009818D01*
X039156Y009723D01*
X039229Y009650D01*
X039323Y009611D01*
X039426Y009611D01*
X039521Y009650D01*
X039592Y009721D02*
X040228Y009721D01*
X040161Y009787D02*
X040161Y009787D01*
X040150Y009798D02*
X039625Y009798D01*
X039633Y009875D02*
X040073Y009875D01*
X039996Y009953D02*
X039620Y009953D01*
X039579Y010030D02*
X039919Y010030D01*
X039841Y010107D02*
X039475Y010107D01*
X039376Y010184D02*
X039764Y010184D01*
X039687Y010261D02*
X039376Y010261D01*
X039376Y010339D02*
X039610Y010339D01*
X039571Y010416D02*
X039376Y010416D01*
X039376Y010493D02*
X039571Y010493D01*
X039571Y010570D02*
X039376Y010570D01*
X039376Y010648D02*
X039571Y010648D01*
X039571Y010725D02*
X039376Y010725D01*
X039376Y010802D02*
X039571Y010802D01*
X039571Y010879D02*
X039376Y010879D01*
X039376Y010957D02*
X039571Y010957D01*
X039571Y011034D02*
X039376Y011034D01*
X039376Y011111D02*
X039571Y011111D01*
X039571Y011188D02*
X039376Y011188D01*
X039376Y011266D02*
X039571Y011266D01*
X039571Y011343D02*
X039376Y011343D01*
X039376Y011420D02*
X039571Y011420D01*
X039571Y011497D02*
X039376Y011497D01*
X039376Y011575D02*
X039571Y011575D01*
X039571Y011652D02*
X039376Y011652D01*
X039376Y011729D02*
X039571Y011729D01*
X039571Y011806D02*
X039376Y011806D01*
X039376Y011884D02*
X039571Y011884D01*
X039571Y011961D02*
X039376Y011961D01*
X039376Y012038D02*
X039571Y012038D01*
X039571Y012115D02*
X039376Y012115D01*
X039376Y012192D02*
X039571Y012192D01*
X039571Y012270D02*
X039376Y012270D01*
X039376Y012347D02*
X039571Y012347D01*
X039571Y012424D02*
X039376Y012424D01*
X039376Y012501D02*
X039571Y012501D01*
X039571Y012579D02*
X039376Y012579D01*
X039376Y012656D02*
X039571Y012656D01*
X039571Y012733D02*
X039376Y012733D01*
X039376Y012810D02*
X039571Y012810D01*
X039571Y012888D02*
X039376Y012888D01*
X039376Y012965D02*
X039571Y012965D01*
X039571Y013042D02*
X039376Y013042D01*
X039376Y013119D02*
X039571Y013119D01*
X039571Y013197D02*
X039376Y013197D01*
X039376Y013274D02*
X039571Y013274D01*
X039571Y013351D02*
X039376Y013351D01*
X039376Y013428D02*
X039571Y013428D01*
X039571Y013506D02*
X039364Y013506D01*
X039287Y013583D02*
X039571Y013583D01*
X039571Y013660D02*
X039210Y013660D01*
X039133Y013737D02*
X039571Y013737D01*
X039571Y013815D02*
X039056Y013815D01*
X038978Y013892D02*
X039571Y013892D01*
X039571Y013969D02*
X038901Y013969D01*
X038728Y013583D02*
X038391Y013583D01*
X038391Y013506D02*
X038805Y013506D01*
X038882Y013428D02*
X038391Y013428D01*
X038391Y013351D02*
X038960Y013351D01*
X038980Y013274D02*
X038391Y013274D01*
X038391Y013197D02*
X038980Y013197D01*
X038980Y013119D02*
X038356Y013119D01*
X038391Y013042D02*
X038980Y013042D01*
X038980Y012965D02*
X038391Y012965D01*
X038391Y012888D02*
X038980Y012888D01*
X038980Y012810D02*
X038391Y012810D01*
X038391Y012733D02*
X038980Y012733D01*
X038980Y012656D02*
X038391Y012656D01*
X038391Y012579D02*
X038980Y012579D01*
X038980Y012501D02*
X038391Y012501D01*
X038391Y012424D02*
X038980Y012424D01*
X038980Y012347D02*
X038391Y012347D01*
X038391Y012270D02*
X038980Y012270D01*
X038980Y012192D02*
X038391Y012192D01*
X038391Y012115D02*
X038980Y012115D01*
X038980Y012038D02*
X038391Y012038D01*
X038391Y011961D02*
X038980Y011961D01*
X038980Y011884D02*
X038391Y011884D01*
X038391Y011806D02*
X038980Y011806D01*
X038980Y011729D02*
X038391Y011729D01*
X038345Y011652D02*
X038980Y011652D01*
X038980Y011575D02*
X038343Y011575D01*
X038420Y011497D02*
X038980Y011497D01*
X038980Y011420D02*
X038497Y011420D01*
X038660Y011343D02*
X038980Y011343D01*
X038980Y011266D02*
X038720Y011266D01*
X038747Y011188D02*
X038980Y011188D01*
X038980Y011111D02*
X038747Y011111D01*
X038721Y011034D02*
X038980Y011034D01*
X038980Y010957D02*
X038662Y010957D01*
X038980Y010879D02*
X036471Y010879D01*
X036413Y010937D02*
X036163Y011041D01*
X035893Y011041D01*
X035644Y010937D01*
X035452Y010746D01*
X035349Y010496D01*
X035349Y010226D01*
X035452Y009976D01*
X035644Y009785D01*
X035893Y009682D01*
X036163Y009682D01*
X036413Y009785D01*
X036604Y009976D01*
X036708Y010226D01*
X036708Y010496D01*
X036604Y010746D01*
X036413Y010937D01*
X036366Y010957D02*
X038316Y010957D01*
X038257Y011034D02*
X036180Y011034D01*
X035877Y011034D02*
X034947Y011034D01*
X034947Y011111D02*
X038231Y011111D01*
X038170Y011188D02*
X034947Y011188D01*
X034947Y011266D02*
X038092Y011266D01*
X038015Y011343D02*
X034947Y011343D01*
X034947Y011420D02*
X037938Y011420D01*
X037861Y011497D02*
X034947Y011497D01*
X034947Y011575D02*
X037783Y011575D01*
X036861Y011652D02*
X036377Y011652D01*
X036423Y011729D02*
X036815Y011729D01*
X036815Y011806D02*
X036423Y011806D01*
X036423Y011884D02*
X036815Y011884D01*
X036815Y011961D02*
X036423Y011961D01*
X036423Y012038D02*
X036815Y012038D01*
X036815Y012115D02*
X036423Y012115D01*
X036423Y012192D02*
X036815Y012192D01*
X036815Y012270D02*
X036423Y012270D01*
X036423Y012347D02*
X036815Y012347D01*
X036815Y012424D02*
X036423Y012424D01*
X036423Y012501D02*
X036815Y012501D01*
X036815Y012579D02*
X036423Y012579D01*
X036423Y012656D02*
X036815Y012656D01*
X036815Y012733D02*
X036423Y012733D01*
X036423Y012810D02*
X036815Y012810D01*
X036815Y012888D02*
X036423Y012888D01*
X036423Y012965D02*
X036815Y012965D01*
X036815Y013042D02*
X036423Y013042D01*
X036388Y013119D02*
X036850Y013119D01*
X036815Y013197D02*
X036423Y013197D01*
X036423Y013274D02*
X036815Y013274D01*
X036815Y013351D02*
X036423Y013351D01*
X036423Y013428D02*
X036815Y013428D01*
X036815Y013506D02*
X036423Y013506D01*
X036423Y013583D02*
X036815Y013583D01*
X036815Y013660D02*
X036423Y013660D01*
X036423Y013737D02*
X036815Y013737D01*
X036815Y013815D02*
X036423Y013815D01*
X036423Y013892D02*
X036815Y013892D01*
X036815Y013969D02*
X036423Y013969D01*
X036423Y014046D02*
X036815Y014046D01*
X036815Y014124D02*
X036423Y014124D01*
X036423Y014201D02*
X036815Y014201D01*
X036815Y014278D02*
X036423Y014278D01*
X036423Y014355D02*
X036815Y014355D01*
X036815Y014432D02*
X036423Y014432D01*
X036423Y014510D02*
X036815Y014510D01*
X036866Y014587D02*
X036372Y014587D01*
X036960Y015050D02*
X034947Y015050D01*
X034947Y014973D02*
X039011Y014973D01*
X039088Y014896D02*
X034947Y014896D01*
X034947Y014819D02*
X039165Y014819D01*
X039242Y014741D02*
X034947Y014741D01*
X034947Y014664D02*
X039320Y014664D01*
X039397Y014587D02*
X038341Y014587D01*
X038391Y014510D02*
X039474Y014510D01*
X039551Y014432D02*
X038391Y014432D01*
X038391Y014355D02*
X039571Y014355D01*
X039571Y014278D02*
X038391Y014278D01*
X038391Y014201D02*
X039571Y014201D01*
X039571Y014124D02*
X038391Y014124D01*
X038391Y014046D02*
X039571Y014046D01*
X040754Y014046D02*
X040850Y014046D01*
X040850Y013969D02*
X040754Y013969D01*
X040754Y013892D02*
X040850Y013892D01*
X040850Y013815D02*
X040754Y013815D01*
X040754Y013737D02*
X040850Y013737D01*
X040850Y014124D02*
X040754Y014124D01*
X040754Y014201D02*
X040850Y014201D01*
X040850Y014278D02*
X040754Y014278D01*
X040754Y014355D02*
X040850Y014355D01*
X040850Y014432D02*
X040754Y014432D01*
X040754Y014510D02*
X040850Y014510D01*
X040850Y014587D02*
X040754Y014587D01*
X040754Y014664D02*
X040850Y014664D01*
X040850Y014741D02*
X040754Y014741D01*
X040754Y014819D02*
X040850Y014819D01*
X040850Y014896D02*
X040754Y014896D01*
X040754Y014973D02*
X040850Y014973D01*
X040850Y015050D02*
X040754Y015050D01*
X040754Y015128D02*
X040850Y015128D01*
X040850Y015205D02*
X040716Y015205D01*
X040639Y015282D02*
X040826Y015282D01*
X040749Y015359D02*
X040562Y015359D01*
X040485Y015437D02*
X040672Y015437D01*
X040595Y015514D02*
X040407Y015514D01*
X040330Y015591D02*
X040517Y015591D01*
X040440Y015668D02*
X040253Y015668D01*
X040176Y015746D02*
X040363Y015746D01*
X040286Y015823D02*
X040098Y015823D01*
X040021Y015900D02*
X040208Y015900D01*
X040131Y015977D02*
X039944Y015977D01*
X039867Y016055D02*
X040054Y016055D01*
X039977Y016132D02*
X039790Y016132D01*
X040360Y012579D02*
X040421Y012579D01*
X040360Y012501D02*
X040498Y012501D01*
X040575Y012424D02*
X040360Y012424D01*
X040360Y012347D02*
X040653Y012347D01*
X040730Y012270D02*
X040360Y012270D01*
X040360Y012038D02*
X042583Y012038D01*
X042306Y011961D02*
X040360Y011961D01*
X040360Y011884D02*
X042306Y011884D01*
X042339Y011806D02*
X040360Y011806D01*
X040360Y011729D02*
X042354Y011729D01*
X042346Y011652D02*
X040360Y011652D01*
X040360Y011575D02*
X042346Y011575D01*
X042346Y011497D02*
X040388Y011497D01*
X040466Y011420D02*
X042346Y011420D01*
X042346Y011343D02*
X042073Y011343D01*
X042073Y011266D02*
X042600Y011266D01*
X042677Y011188D02*
X042073Y011188D01*
X042073Y011111D02*
X042755Y011111D01*
X042662Y011034D02*
X042583Y011034D01*
X042583Y011071D02*
X042427Y011071D01*
X042392Y011062D01*
X042360Y011044D01*
X042334Y011018D01*
X042316Y010986D01*
X042306Y010950D01*
X042306Y010814D01*
X042583Y010814D01*
X042583Y011071D01*
X042583Y010957D02*
X042662Y010957D01*
X042662Y010879D02*
X042583Y010879D01*
X042583Y010802D02*
X039966Y010802D01*
X039966Y010725D02*
X042306Y010725D01*
X042306Y010648D02*
X039966Y010648D01*
X039966Y010570D02*
X042314Y010570D01*
X042382Y010493D02*
X040015Y010493D01*
X040092Y010416D02*
X042346Y010416D01*
X042346Y010339D02*
X040169Y010339D01*
X040246Y010261D02*
X042346Y010261D01*
X042864Y010493D02*
X043331Y010493D01*
X043331Y010570D02*
X042932Y010570D01*
X042939Y010648D02*
X043331Y010648D01*
X043358Y010725D02*
X042939Y010725D01*
X042939Y010879D02*
X046274Y010879D01*
X046351Y010802D02*
X042662Y010802D01*
X042938Y010957D02*
X043383Y010957D01*
X043331Y011034D02*
X042895Y011034D01*
X042928Y011497D02*
X043343Y011497D01*
X042951Y012115D02*
X042939Y012115D01*
X042917Y012501D02*
X042073Y012501D01*
X042073Y012579D02*
X042371Y012579D01*
X042346Y012656D02*
X042043Y012656D01*
X042875Y012579D02*
X042882Y012579D01*
X043132Y012888D02*
X043331Y012888D01*
X043331Y012965D02*
X043055Y012965D01*
X043209Y012810D02*
X043331Y012810D01*
X043331Y012733D02*
X043287Y012733D01*
X043313Y012656D02*
X043331Y012656D01*
X043336Y012579D02*
X043313Y012579D01*
X043313Y012501D02*
X047209Y012501D01*
X047209Y012424D02*
X043313Y012424D01*
X043313Y012347D02*
X047209Y012347D01*
X047209Y012270D02*
X046918Y012270D01*
X046935Y012192D02*
X047246Y012192D01*
X046935Y012115D02*
X050102Y012115D01*
X050102Y012038D02*
X046935Y012038D01*
X046935Y011961D02*
X050102Y011961D01*
X050066Y011884D02*
X046935Y011884D01*
X046896Y011806D02*
X049989Y011806D01*
X049912Y011729D02*
X046967Y011729D01*
X046975Y011652D02*
X049834Y011652D01*
X049757Y011575D02*
X046975Y011575D01*
X046421Y011806D02*
X046049Y011806D01*
X046049Y012270D02*
X046399Y012270D01*
X046463Y012505D02*
X046619Y012505D01*
X046619Y012763D01*
X046342Y012763D01*
X046342Y012626D01*
X046351Y012591D01*
X046370Y012559D01*
X046396Y012533D01*
X046427Y012515D01*
X046463Y012505D01*
X046358Y012579D02*
X046044Y012579D01*
X046049Y012656D02*
X046342Y012656D01*
X046342Y012733D02*
X046049Y012733D01*
X046049Y012810D02*
X046619Y012810D01*
X046619Y012842D02*
X046619Y012763D01*
X046698Y012763D01*
X046698Y012842D01*
X046619Y012842D01*
X046619Y013099D01*
X046463Y013099D01*
X046427Y013090D01*
X046396Y013071D01*
X046370Y013045D01*
X046351Y013013D01*
X046342Y012978D01*
X046342Y012842D01*
X046619Y012842D01*
X046619Y012888D02*
X046698Y012888D01*
X046698Y012842D02*
X046698Y013099D01*
X046854Y013099D01*
X046889Y013090D01*
X046921Y013071D01*
X046947Y013045D01*
X046965Y013013D01*
X046975Y012978D01*
X046975Y012842D01*
X046698Y012842D01*
X046698Y012810D02*
X047287Y012810D01*
X047287Y012733D02*
X046975Y012733D01*
X046975Y012763D02*
X046698Y012763D01*
X046698Y012505D01*
X046854Y012505D01*
X046889Y012515D01*
X046921Y012533D01*
X046947Y012559D01*
X046965Y012591D01*
X046975Y012626D01*
X046975Y012763D01*
X046975Y012656D02*
X047238Y012656D01*
X047209Y012579D02*
X046958Y012579D01*
X046698Y012579D02*
X046619Y012579D01*
X046619Y012656D02*
X046698Y012656D01*
X046698Y012733D02*
X046619Y012733D01*
X046619Y012965D02*
X046698Y012965D01*
X046698Y013042D02*
X046619Y013042D01*
X046368Y013042D02*
X046049Y013042D01*
X046049Y012965D02*
X046342Y012965D01*
X046342Y012888D02*
X046049Y012888D01*
X045921Y013119D02*
X047287Y013119D01*
X047287Y013042D02*
X046949Y013042D01*
X046975Y012965D02*
X047287Y012965D01*
X047287Y012888D02*
X046975Y012888D01*
X047287Y013197D02*
X045946Y013197D01*
X045970Y013274D02*
X047287Y013274D01*
X047287Y013351D02*
X045970Y013351D01*
X045970Y013428D02*
X047287Y013428D01*
X047287Y013506D02*
X045970Y013506D01*
X045970Y013583D02*
X047287Y013583D01*
X047287Y013660D02*
X045970Y013660D01*
X045970Y013737D02*
X047287Y013737D01*
X047287Y013815D02*
X045970Y013815D01*
X045970Y013892D02*
X047287Y013892D01*
X047287Y013969D02*
X045970Y013969D01*
X045970Y014046D02*
X047287Y014046D01*
X047287Y014124D02*
X045970Y014124D01*
X045970Y014201D02*
X047287Y014201D01*
X047287Y014278D02*
X045970Y014278D01*
X045970Y014355D02*
X047321Y014355D01*
X047399Y014432D02*
X045970Y014432D01*
X045970Y014510D02*
X047476Y014510D01*
X047553Y014587D02*
X045970Y014587D01*
X045970Y014664D02*
X047630Y014664D01*
X047708Y014741D02*
X045970Y014741D01*
X046023Y014819D02*
X047785Y014819D01*
X047862Y014896D02*
X046100Y014896D01*
X046177Y014973D02*
X047939Y014973D01*
X048017Y015050D02*
X046255Y015050D01*
X046332Y015128D02*
X048094Y015128D01*
X048267Y014741D02*
X053416Y014741D01*
X053493Y014664D02*
X048190Y014664D01*
X048113Y014587D02*
X051039Y014587D01*
X050988Y014510D02*
X048035Y014510D01*
X047958Y014432D02*
X050988Y014432D01*
X050988Y014355D02*
X047881Y014355D01*
X047804Y014278D02*
X050988Y014278D01*
X050988Y014201D02*
X047726Y014201D01*
X047683Y014124D02*
X050988Y014124D01*
X050988Y014046D02*
X047683Y014046D01*
X047683Y013969D02*
X050675Y013969D01*
X050598Y013892D02*
X047683Y013892D01*
X047683Y013815D02*
X050521Y013815D01*
X050444Y013737D02*
X047683Y013737D01*
X047683Y013660D02*
X050366Y013660D01*
X050289Y013583D02*
X047683Y013583D01*
X047683Y013506D02*
X050212Y013506D01*
X050135Y013428D02*
X047683Y013428D01*
X047683Y013351D02*
X050102Y013351D01*
X050102Y013274D02*
X047683Y013274D01*
X047683Y013197D02*
X050102Y013197D01*
X050102Y013119D02*
X047683Y013119D01*
X047683Y013042D02*
X050102Y013042D01*
X050102Y012965D02*
X047683Y012965D01*
X047683Y012888D02*
X050102Y012888D01*
X050102Y012810D02*
X047683Y012810D01*
X047683Y012733D02*
X050102Y012733D01*
X050102Y012656D02*
X048161Y012656D01*
X048251Y012579D02*
X050102Y012579D01*
X050102Y012501D02*
X048285Y012501D01*
X048294Y012424D02*
X050102Y012424D01*
X050102Y012347D02*
X048282Y012347D01*
X048243Y012270D02*
X050102Y012270D01*
X050102Y012192D02*
X048142Y012192D01*
X047931Y012192D02*
X047725Y012192D01*
X047762Y012230D02*
X047762Y012230D01*
X047732Y012656D02*
X047912Y012656D01*
X046197Y010957D02*
X045997Y010957D01*
X046049Y011034D02*
X046119Y011034D01*
X046022Y010725D02*
X046382Y010725D01*
X046382Y010648D02*
X046061Y010648D01*
X046138Y010570D02*
X046387Y010570D01*
X046377Y010493D02*
X046215Y010493D01*
X046293Y010416D02*
X046342Y010416D01*
X045968Y010107D02*
X043682Y010107D01*
X043794Y010008D02*
X043794Y009712D01*
X043715Y009712D01*
X043715Y009633D01*
X043794Y009633D01*
X043794Y009712D01*
X044219Y009712D01*
X044219Y009887D01*
X044209Y009923D01*
X044191Y009955D01*
X044165Y009981D01*
X044133Y009999D01*
X044098Y010008D01*
X043794Y010008D01*
X043794Y009953D02*
X043715Y009953D01*
X043715Y009875D02*
X043794Y009875D01*
X043794Y009798D02*
X043715Y009798D01*
X043715Y009721D02*
X043794Y009721D01*
X043794Y009644D02*
X045585Y009644D01*
X045585Y009712D02*
X045161Y009712D01*
X045161Y009887D01*
X045170Y009923D01*
X045188Y009955D01*
X045214Y009981D01*
X045246Y009999D01*
X045282Y010008D01*
X045585Y010008D01*
X045585Y009712D01*
X045585Y009721D02*
X045664Y009721D01*
X045664Y009798D02*
X045585Y009798D01*
X045585Y009875D02*
X045664Y009875D01*
X045664Y009953D02*
X045585Y009953D01*
X045585Y009566D02*
X045664Y009566D01*
X045664Y009489D02*
X045585Y009489D01*
X045585Y009412D02*
X045664Y009412D01*
X046074Y009412D02*
X046245Y009412D01*
X046168Y009489D02*
X046089Y009489D01*
X046089Y009566D02*
X046091Y009566D01*
X045968Y010008D02*
X045968Y010008D01*
X045968Y010030D02*
X042885Y010030D01*
X042939Y009644D02*
X043715Y009644D01*
X043715Y009566D02*
X043794Y009566D01*
X043794Y009633D02*
X043794Y009336D01*
X044098Y009336D01*
X044133Y009346D01*
X044165Y009364D01*
X044191Y009390D01*
X044209Y009422D01*
X044219Y009457D01*
X044219Y009633D01*
X043794Y009633D01*
X043794Y009489D02*
X043715Y009489D01*
X043715Y009412D02*
X043794Y009412D01*
X044204Y009412D02*
X045176Y009412D01*
X045161Y009489D02*
X044219Y009489D01*
X044219Y009566D02*
X045161Y009566D01*
X045161Y009721D02*
X044219Y009721D01*
X044219Y009798D02*
X045161Y009798D01*
X045161Y009875D02*
X044219Y009875D01*
X044192Y009953D02*
X045187Y009953D01*
X045238Y010184D02*
X044142Y010184D01*
X044179Y010261D02*
X045201Y010261D01*
X045201Y010339D02*
X044179Y010339D01*
X044179Y010416D02*
X045201Y010416D01*
X045201Y010493D02*
X044179Y010493D01*
X044179Y010570D02*
X045201Y010570D01*
X045201Y010648D02*
X044179Y010648D01*
X044152Y010725D02*
X045228Y010725D01*
X045253Y010957D02*
X044127Y010957D01*
X044179Y011034D02*
X045201Y011034D01*
X045201Y011111D02*
X044179Y011111D01*
X044179Y011188D02*
X045201Y011188D01*
X045201Y011266D02*
X044179Y011266D01*
X044179Y011343D02*
X045201Y011343D01*
X045201Y011420D02*
X044179Y011420D01*
X044167Y011497D02*
X045213Y011497D01*
X045201Y011806D02*
X044179Y011806D01*
X044179Y011884D02*
X045201Y011884D01*
X045201Y011961D02*
X044179Y011961D01*
X044179Y012038D02*
X045201Y012038D01*
X045201Y012115D02*
X044179Y012115D01*
X044179Y012192D02*
X045201Y012192D01*
X045201Y012270D02*
X044179Y012270D01*
X044174Y012579D02*
X045206Y012579D01*
X045201Y012656D02*
X044179Y012656D01*
X044179Y012733D02*
X045201Y012733D01*
X045201Y012810D02*
X044179Y012810D01*
X044179Y012888D02*
X045201Y012888D01*
X045201Y012965D02*
X044179Y012965D01*
X044179Y013042D02*
X045201Y013042D01*
X045329Y013119D02*
X044051Y013119D01*
X044051Y013197D02*
X045329Y013197D01*
X045329Y013274D02*
X044051Y013274D01*
X044040Y013351D02*
X045340Y013351D01*
X045372Y013428D02*
X044008Y013428D01*
X043957Y013482D02*
X043957Y013482D01*
X043933Y013506D02*
X045378Y013506D01*
X045378Y013583D02*
X043831Y013583D01*
X042350Y011034D02*
X042073Y011034D01*
X042073Y010957D02*
X042308Y010957D01*
X042306Y010879D02*
X039966Y010879D01*
X039966Y010957D02*
X040370Y010957D01*
X040292Y011034D02*
X039966Y011034D01*
X039966Y011111D02*
X040215Y011111D01*
X040138Y011188D02*
X039966Y011188D01*
X039966Y011266D02*
X040061Y011266D01*
X039984Y011343D02*
X039966Y011343D01*
X039687Y010262D02*
X039687Y010262D01*
X038980Y010261D02*
X036708Y010261D01*
X036708Y010339D02*
X038980Y010339D01*
X038980Y010416D02*
X036708Y010416D01*
X036708Y010493D02*
X038980Y010493D01*
X038980Y010570D02*
X036677Y010570D01*
X036645Y010648D02*
X038980Y010648D01*
X038980Y010725D02*
X036613Y010725D01*
X036548Y010802D02*
X038980Y010802D01*
X038980Y010184D02*
X036690Y010184D01*
X036658Y010107D02*
X038980Y010107D01*
X038980Y010030D02*
X036626Y010030D01*
X036580Y009953D02*
X039012Y009953D01*
X039089Y009875D02*
X036503Y009875D01*
X036426Y009798D02*
X039125Y009798D01*
X039158Y009721D02*
X036258Y009721D01*
X035799Y009721D02*
X034947Y009721D01*
X034947Y009798D02*
X035631Y009798D01*
X035554Y009875D02*
X034947Y009875D01*
X034947Y009953D02*
X035476Y009953D01*
X035430Y010030D02*
X034947Y010030D01*
X034947Y010107D02*
X035398Y010107D01*
X035366Y010184D02*
X034947Y010184D01*
X034947Y010261D02*
X035349Y010261D01*
X035349Y010339D02*
X034947Y010339D01*
X034947Y010416D02*
X035349Y010416D01*
X035349Y010493D02*
X034947Y010493D01*
X034947Y010570D02*
X035380Y010570D01*
X035412Y010648D02*
X034947Y010648D01*
X034947Y010725D02*
X035444Y010725D01*
X035509Y010802D02*
X034947Y010802D01*
X034947Y010879D02*
X035586Y010879D01*
X035691Y010957D02*
X034947Y010957D01*
X034947Y009644D02*
X039245Y009644D01*
X042939Y009566D02*
X043291Y009566D01*
X049699Y010957D02*
X051579Y010957D01*
X051579Y011034D02*
X049776Y011034D01*
X049853Y011111D02*
X051579Y011111D01*
X051579Y011188D02*
X049930Y011188D01*
X050008Y011266D02*
X051579Y011266D01*
X051579Y011343D02*
X050085Y011343D01*
X050162Y011420D02*
X051579Y011420D01*
X051579Y011497D02*
X050239Y011497D01*
X050317Y011575D02*
X051579Y011575D01*
X051974Y011575D02*
X054433Y011575D01*
X054433Y011497D02*
X051974Y011497D01*
X051974Y011420D02*
X054433Y011420D01*
X054433Y011343D02*
X051974Y011343D01*
X051974Y011266D02*
X054433Y011266D01*
X054433Y011188D02*
X051974Y011188D01*
X052519Y011652D02*
X053003Y011652D01*
X052957Y011729D02*
X052565Y011729D01*
X052565Y011806D02*
X052957Y011806D01*
X052957Y011884D02*
X052565Y011884D01*
X052565Y011961D02*
X052957Y011961D01*
X052957Y012038D02*
X052565Y012038D01*
X052565Y012115D02*
X052957Y012115D01*
X052957Y012192D02*
X052565Y012192D01*
X052565Y012270D02*
X052957Y012270D01*
X052957Y012347D02*
X052565Y012347D01*
X052565Y012424D02*
X052957Y012424D01*
X052957Y012501D02*
X052565Y012501D01*
X052565Y012579D02*
X052957Y012579D01*
X052957Y012656D02*
X052565Y012656D01*
X052565Y012733D02*
X052957Y012733D01*
X052957Y012810D02*
X052565Y012810D01*
X052565Y012888D02*
X052957Y012888D01*
X052957Y012965D02*
X052565Y012965D01*
X052565Y013042D02*
X052957Y013042D01*
X052992Y013119D02*
X052529Y013119D01*
X052565Y013197D02*
X052957Y013197D01*
X052957Y013274D02*
X052565Y013274D01*
X052565Y013351D02*
X052957Y013351D01*
X052957Y013428D02*
X052565Y013428D01*
X052565Y013506D02*
X052957Y013506D01*
X052957Y013583D02*
X052565Y013583D01*
X052565Y013660D02*
X052957Y013660D01*
X052957Y013737D02*
X052565Y013737D01*
X052565Y013815D02*
X052957Y013815D01*
X052957Y013892D02*
X052565Y013892D01*
X052565Y013969D02*
X052957Y013969D01*
X052957Y014046D02*
X052565Y014046D01*
X052565Y014124D02*
X052957Y014124D01*
X052957Y014201D02*
X052565Y014201D01*
X052565Y014278D02*
X052957Y014278D01*
X052957Y014355D02*
X052565Y014355D01*
X052565Y014432D02*
X052957Y014432D01*
X052957Y014510D02*
X052565Y014510D01*
X052514Y014587D02*
X053007Y014587D01*
X050988Y013583D02*
X050849Y013583D01*
X050771Y013506D02*
X050988Y013506D01*
X050988Y013428D02*
X050694Y013428D01*
X050617Y013351D02*
X050988Y013351D01*
X050988Y013274D02*
X050540Y013274D01*
X050498Y013197D02*
X050988Y013197D01*
X051023Y013119D02*
X050498Y013119D01*
X050498Y013042D02*
X050988Y013042D01*
X050988Y012965D02*
X050498Y012965D01*
X050498Y012888D02*
X050988Y012888D01*
X050988Y012810D02*
X050498Y012810D01*
X050498Y012733D02*
X050988Y012733D01*
X050988Y012656D02*
X050498Y012656D01*
X050498Y012579D02*
X050988Y012579D01*
X050988Y012501D02*
X050498Y012501D01*
X050498Y012424D02*
X050988Y012424D01*
X050988Y012347D02*
X050498Y012347D01*
X050498Y012270D02*
X050988Y012270D01*
X050988Y012192D02*
X050498Y012192D01*
X050498Y012115D02*
X050988Y012115D01*
X050988Y012038D02*
X050498Y012038D01*
X050498Y011961D02*
X050988Y011961D01*
X050988Y011884D02*
X050498Y011884D01*
X050498Y011806D02*
X050988Y011806D01*
X050988Y011729D02*
X050471Y011729D01*
X050394Y011652D02*
X051034Y011652D01*
X035706Y015128D02*
X034947Y015128D01*
X034947Y015205D02*
X035629Y015205D01*
X035552Y015282D02*
X034947Y015282D01*
X034947Y015359D02*
X035475Y015359D01*
X035398Y015437D02*
X034947Y015437D01*
X034947Y015514D02*
X035338Y015514D01*
X035338Y015591D02*
X034947Y015591D01*
X034947Y015668D02*
X035338Y015668D01*
X035338Y015746D02*
X034947Y015746D01*
X034947Y015823D02*
X035338Y015823D01*
X035338Y015900D02*
X034947Y015900D01*
X034947Y015977D02*
X035338Y015977D01*
X035338Y016055D02*
X034947Y016055D01*
X034947Y016132D02*
X035338Y016132D01*
X035338Y016209D02*
X034947Y016209D01*
X034947Y016286D02*
X035338Y016286D01*
X035338Y016363D02*
X034947Y016363D01*
X034947Y016441D02*
X035338Y016441D01*
X035338Y016518D02*
X034947Y016518D01*
X034947Y016595D02*
X035338Y016595D01*
X035338Y016672D02*
X034947Y016672D01*
X034947Y016750D02*
X035338Y016750D01*
X035338Y016827D02*
X034947Y016827D01*
X034947Y016904D02*
X035338Y016904D01*
X035338Y016981D02*
X034947Y016981D01*
X034947Y017059D02*
X035338Y017059D01*
X035338Y017136D02*
X034947Y017136D01*
X034947Y017213D02*
X035338Y017213D01*
X035338Y017290D02*
X034947Y017290D01*
X034947Y017368D02*
X035338Y017368D01*
X035338Y017445D02*
X034947Y017445D01*
X034947Y017522D02*
X035338Y017522D01*
X035338Y017599D02*
X034947Y017599D01*
X034947Y017677D02*
X035338Y017677D01*
X035338Y017754D02*
X034947Y017754D01*
X034947Y017831D02*
X035338Y017831D01*
X035338Y017908D02*
X034947Y017908D01*
X034947Y017986D02*
X035338Y017986D01*
X035338Y018063D02*
X034947Y018063D01*
X034947Y018140D02*
X035338Y018140D01*
X035338Y018217D02*
X034947Y018217D01*
X034947Y018294D02*
X035338Y018294D01*
X035338Y018372D02*
X034947Y018372D01*
X034947Y018449D02*
X035338Y018449D01*
X035338Y018526D02*
X034947Y018526D01*
X034947Y018603D02*
X035338Y018603D01*
X035338Y018681D02*
X034947Y018681D01*
X034947Y018758D02*
X035338Y018758D01*
X035338Y018835D02*
X034947Y018835D01*
X034947Y018912D02*
X035338Y018912D01*
X035338Y018990D02*
X034947Y018990D01*
X034947Y019067D02*
X035338Y019067D01*
X035338Y019144D02*
X034947Y019144D01*
X034947Y019221D02*
X035338Y019221D01*
X035338Y019299D02*
X034947Y019299D01*
X034947Y019376D02*
X035338Y019376D01*
X035338Y019453D02*
X034947Y019453D01*
X034947Y019530D02*
X035338Y019530D01*
X035338Y019608D02*
X034947Y019608D01*
X034947Y019685D02*
X035338Y019685D01*
X035338Y019762D02*
X034947Y019762D01*
X034947Y019839D02*
X035338Y019839D01*
X035338Y019917D02*
X034947Y019917D01*
X034947Y019994D02*
X035338Y019994D01*
X035338Y020071D02*
X034947Y020071D01*
X034947Y020148D02*
X035338Y020148D01*
X035338Y020225D02*
X034947Y020225D01*
X034947Y020303D02*
X035338Y020303D01*
X035338Y020380D02*
X034947Y020380D01*
X034947Y020457D02*
X035338Y020457D01*
X035338Y020534D02*
X034947Y020534D01*
X034947Y020612D02*
X035338Y020612D01*
X035338Y020689D02*
X034947Y020689D01*
X034947Y020766D02*
X035338Y020766D01*
X035338Y020843D02*
X034947Y020843D01*
X034947Y020921D02*
X035338Y020921D01*
X035338Y020998D02*
X034947Y020998D01*
X034947Y021075D02*
X035338Y021075D01*
X035338Y021152D02*
X034947Y021152D01*
X034947Y021230D02*
X035338Y021230D01*
X035338Y021307D02*
X034947Y021307D01*
X034947Y021384D02*
X035338Y021384D01*
X035338Y021461D02*
X034947Y021461D01*
X034947Y021539D02*
X035338Y021539D01*
X035338Y021616D02*
X034947Y021616D01*
X034947Y021693D02*
X035338Y021693D01*
X035338Y021770D02*
X034947Y021770D01*
X034947Y021848D02*
X035338Y021848D01*
X035338Y021925D02*
X034947Y021925D01*
X034947Y022002D02*
X035338Y022002D01*
X035338Y022079D02*
X034947Y022079D01*
X034947Y022157D02*
X035338Y022157D01*
X035338Y022234D02*
X034947Y022234D01*
X034947Y022311D02*
X035338Y022311D01*
X035338Y022388D02*
X034947Y022388D01*
X034947Y022465D02*
X035338Y022465D01*
X035338Y022543D02*
X034947Y022543D01*
X034947Y022620D02*
X035338Y022620D01*
X035338Y022697D02*
X034947Y022697D01*
X034947Y022774D02*
X035338Y022774D01*
X035338Y022852D02*
X034947Y022852D01*
X034947Y022929D02*
X035338Y022929D01*
X035338Y023006D02*
X034947Y023006D01*
X034947Y023083D02*
X035338Y023083D01*
X035338Y023161D02*
X034947Y023161D01*
X034947Y023238D02*
X035338Y023238D01*
X035338Y023315D02*
X034947Y023315D01*
X034947Y023392D02*
X035338Y023392D01*
X035338Y023470D02*
X034947Y023470D01*
X034947Y023547D02*
X035338Y023547D01*
X035338Y023624D02*
X034947Y023624D01*
X034947Y023701D02*
X035338Y023701D01*
X035338Y023779D02*
X034947Y023779D01*
X034947Y023856D02*
X035338Y023856D01*
X035338Y023933D02*
X034947Y023933D01*
X034947Y024010D02*
X035338Y024010D01*
X035338Y024088D02*
X034947Y024088D01*
X034947Y024165D02*
X035338Y024165D01*
X035338Y024242D02*
X034947Y024242D01*
X034947Y024319D02*
X035338Y024319D01*
X035338Y024396D02*
X034947Y024396D01*
X034947Y024474D02*
X035338Y024474D01*
X035338Y024551D02*
X034947Y024551D01*
X034947Y024628D02*
X035338Y024628D01*
X035338Y024705D02*
X034947Y024705D01*
X034947Y024783D02*
X035338Y024783D01*
X035338Y024860D02*
X034947Y024860D01*
X034947Y024937D02*
X035338Y024937D01*
X035338Y025014D02*
X034947Y025014D01*
X034947Y025092D02*
X035338Y025092D01*
X035338Y025169D02*
X034947Y025169D01*
X034947Y025246D02*
X035338Y025246D01*
X035338Y025323D02*
X034947Y025323D01*
X034947Y025401D02*
X035338Y025401D01*
X035338Y025478D02*
X034947Y025478D01*
X034947Y025555D02*
X035338Y025555D01*
X035338Y025632D02*
X034947Y025632D01*
X034947Y025710D02*
X035338Y025710D01*
X035338Y025787D02*
X034947Y025787D01*
X034947Y025864D02*
X035338Y025864D01*
X035338Y025941D02*
X034947Y025941D01*
X034947Y026019D02*
X035338Y026019D01*
X035338Y026096D02*
X034947Y026096D01*
X034947Y026173D02*
X035338Y026173D01*
X035338Y026250D02*
X034947Y026250D01*
X034947Y026327D02*
X035338Y026327D01*
X035338Y026405D02*
X034947Y026405D01*
X034947Y026482D02*
X035338Y026482D01*
X035338Y026559D02*
X034947Y026559D01*
X034947Y026636D02*
X035338Y026636D01*
X035338Y026714D02*
X034947Y026714D01*
X034947Y026791D02*
X035338Y026791D01*
X035338Y026868D02*
X034947Y026868D01*
X034947Y026945D02*
X035338Y026945D01*
X035338Y027023D02*
X034947Y027023D01*
X034947Y027100D02*
X035338Y027100D01*
X035338Y027177D02*
X034947Y027177D01*
X034947Y027254D02*
X035338Y027254D01*
X035338Y027332D02*
X034947Y027332D01*
X034947Y027409D02*
X035338Y027409D01*
X035338Y027486D02*
X034947Y027486D01*
X034947Y027563D02*
X035338Y027563D01*
X035338Y027641D02*
X034947Y027641D01*
X034947Y027718D02*
X035338Y027718D01*
X035338Y027795D02*
X034947Y027795D01*
X034947Y027872D02*
X035338Y027872D01*
X035338Y027950D02*
X034947Y027950D01*
X034947Y028027D02*
X035338Y028027D01*
X035338Y028104D02*
X034947Y028104D01*
X034947Y028181D02*
X035338Y028181D01*
X035338Y028258D02*
X034947Y028258D01*
X034947Y028336D02*
X035338Y028336D01*
X035338Y028413D02*
X034947Y028413D01*
X034947Y028490D02*
X035338Y028490D01*
X035338Y028567D02*
X034947Y028567D01*
X034947Y028645D02*
X035338Y028645D01*
X035338Y028722D02*
X034947Y028722D01*
X034947Y028799D02*
X035338Y028799D01*
X035338Y028876D02*
X034947Y028876D01*
X034947Y028954D02*
X035338Y028954D01*
X035338Y029031D02*
X034947Y029031D01*
X034947Y029108D02*
X035338Y029108D01*
X035338Y029185D02*
X034947Y029185D01*
X034947Y029263D02*
X035338Y029263D01*
X035338Y029340D02*
X034947Y029340D01*
X034947Y029417D02*
X035338Y029417D01*
X035338Y029494D02*
X034947Y029494D01*
X034947Y029572D02*
X035338Y029572D01*
X035338Y029649D02*
X034947Y029649D01*
X034947Y029726D02*
X035338Y029726D01*
X035338Y029803D02*
X034947Y029803D01*
X034947Y029881D02*
X035338Y029881D01*
X035338Y029958D02*
X034947Y029958D01*
X034947Y030035D02*
X035338Y030035D01*
X035338Y030112D02*
X034947Y030112D01*
X034947Y030190D02*
X035338Y030190D01*
X035338Y030267D02*
X034947Y030267D01*
X034947Y030344D02*
X035338Y030344D01*
X035338Y030421D02*
X034947Y030421D01*
X034947Y030498D02*
X035338Y030498D01*
X035338Y030576D02*
X034947Y030576D01*
X034947Y030653D02*
X035338Y030653D01*
X035338Y030730D02*
X034947Y030730D01*
X034947Y030807D02*
X035338Y030807D01*
X035338Y030885D02*
X034947Y030885D01*
X034947Y030962D02*
X035338Y030962D01*
X035338Y031039D02*
X034947Y031039D01*
X034947Y031116D02*
X035338Y031116D01*
X035338Y031194D02*
X034947Y031194D01*
X034947Y031271D02*
X035338Y031271D01*
X035338Y031348D02*
X034947Y031348D01*
X034947Y031425D02*
X035338Y031425D01*
X035338Y031503D02*
X034947Y031503D01*
X034947Y031580D02*
X035338Y031580D01*
X035338Y031657D02*
X034947Y031657D01*
X034947Y031734D02*
X035338Y031734D01*
X035338Y031812D02*
X034947Y031812D01*
X034947Y031889D02*
X035338Y031889D01*
X035338Y031966D02*
X034947Y031966D01*
X034947Y032043D02*
X035338Y032043D01*
X035338Y032121D02*
X034947Y032121D01*
X034947Y032198D02*
X035338Y032198D01*
X035338Y032275D02*
X034947Y032275D01*
X034947Y032352D02*
X035338Y032352D01*
X035338Y032429D02*
X034947Y032429D01*
X034947Y032507D02*
X035338Y032507D01*
X035338Y032584D02*
X034947Y032584D01*
X034947Y032661D02*
X035338Y032661D01*
X035338Y032738D02*
X034947Y032738D01*
X034947Y032816D02*
X035338Y032816D01*
X035338Y032893D02*
X034947Y032893D01*
X034947Y032970D02*
X035338Y032970D01*
X035338Y033047D02*
X034947Y033047D01*
X034947Y033125D02*
X035338Y033125D01*
X035338Y033202D02*
X034947Y033202D01*
X034947Y033279D02*
X035338Y033279D01*
X035338Y033356D02*
X034947Y033356D01*
X034947Y033434D02*
X035338Y033434D01*
X035338Y033511D02*
X034947Y033511D01*
X034947Y033588D02*
X035338Y033588D01*
X035338Y033665D02*
X034947Y033665D01*
X034947Y033743D02*
X035338Y033743D01*
X035338Y033820D02*
X034947Y033820D01*
X034947Y033897D02*
X035338Y033897D01*
X035338Y033974D02*
X034947Y033974D01*
X034947Y034052D02*
X035338Y034052D01*
X035338Y034129D02*
X034947Y034129D01*
X034947Y034206D02*
X035338Y034206D01*
X035338Y034283D02*
X034947Y034283D01*
X034947Y034360D02*
X035338Y034360D01*
X035338Y034438D02*
X034947Y034438D01*
X034947Y034515D02*
X035338Y034515D01*
X035338Y034592D02*
X034947Y034592D01*
X034947Y034669D02*
X035338Y034669D01*
X035338Y034747D02*
X034947Y034747D01*
X034947Y034824D02*
X035338Y034824D01*
X035338Y034901D02*
X034947Y034901D01*
X034947Y034978D02*
X035338Y034978D01*
X035338Y035056D02*
X034947Y035056D01*
X034947Y035133D02*
X035338Y035133D01*
X035338Y035210D02*
X034947Y035210D01*
X034947Y035287D02*
X035338Y035287D01*
X035338Y035365D02*
X034947Y035365D01*
X034947Y035442D02*
X035338Y035442D01*
X035338Y035519D02*
X034947Y035519D01*
X034947Y035596D02*
X035338Y035596D01*
X035338Y035674D02*
X034947Y035674D01*
X034947Y035751D02*
X035338Y035751D01*
X035338Y035828D02*
X034947Y035828D01*
X034947Y035905D02*
X035338Y035905D01*
X035338Y035983D02*
X034947Y035983D01*
X034947Y036060D02*
X035338Y036060D01*
X035338Y036137D02*
X034947Y036137D01*
X034947Y036214D02*
X035338Y036214D01*
X035338Y036291D02*
X034947Y036291D01*
X034947Y036369D02*
X035338Y036369D01*
X035338Y036446D02*
X034947Y036446D01*
X034947Y036523D02*
X035338Y036523D01*
X035338Y036600D02*
X034947Y036600D01*
X034947Y036678D02*
X035338Y036678D01*
X035338Y036755D02*
X034947Y036755D01*
X034947Y036832D02*
X035338Y036832D01*
X035338Y036909D02*
X034947Y036909D01*
X034947Y036987D02*
X035317Y036987D01*
X035285Y037064D02*
X034947Y037064D01*
X034947Y037141D02*
X035278Y037141D01*
X035292Y037218D02*
X034947Y037218D01*
X034947Y037296D02*
X035334Y037296D01*
X035338Y037373D02*
X034947Y037373D01*
X034947Y037450D02*
X035338Y037450D01*
X035338Y037527D02*
X034947Y037527D01*
X034947Y037605D02*
X035338Y037605D01*
X035338Y037682D02*
X034947Y037682D01*
X034947Y037759D02*
X035338Y037759D01*
X035338Y037836D02*
X034947Y037836D01*
X034947Y037914D02*
X035338Y037914D01*
X035338Y037991D02*
X034947Y037991D01*
X034947Y038068D02*
X035338Y038068D01*
X035338Y038145D02*
X034947Y038145D01*
X034947Y038223D02*
X035338Y038223D01*
X035338Y038300D02*
X034947Y038300D01*
X034947Y038377D02*
X035338Y038377D01*
X035338Y038454D02*
X034947Y038454D01*
X034947Y038531D02*
X035338Y038531D01*
X035338Y038609D02*
X034947Y038609D01*
X034947Y038686D02*
X035338Y038686D01*
X035338Y038763D02*
X034947Y038763D01*
X034947Y038840D02*
X035338Y038840D01*
X035338Y038918D02*
X034947Y038918D01*
X034947Y038995D02*
X035338Y038995D01*
X035338Y039072D02*
X034947Y039072D01*
X034947Y039149D02*
X035338Y039149D01*
X035338Y039227D02*
X034947Y039227D01*
X034947Y039304D02*
X035338Y039304D01*
X035338Y039381D02*
X034947Y039381D01*
X034947Y039458D02*
X035338Y039458D01*
X035338Y039536D02*
X034947Y039536D01*
X034947Y039613D02*
X035338Y039613D01*
X035338Y039690D02*
X034947Y039690D01*
X034947Y039767D02*
X035338Y039767D01*
X035338Y039845D02*
X034947Y039845D01*
X034947Y039922D02*
X035338Y039922D01*
X035338Y039999D02*
X034947Y039999D01*
X034947Y040076D02*
X035338Y040076D01*
X035338Y040154D02*
X034947Y040154D01*
X034947Y040231D02*
X035338Y040231D01*
X035338Y040308D02*
X034947Y040308D01*
X034947Y040385D02*
X035338Y040385D01*
X035338Y040462D02*
X034947Y040462D01*
X034947Y040540D02*
X035338Y040540D01*
X035338Y040617D02*
X034947Y040617D01*
X034947Y040694D02*
X035338Y040694D01*
X035338Y040771D02*
X034947Y040771D01*
X034947Y040849D02*
X035338Y040849D01*
X035338Y040926D02*
X034947Y040926D01*
X034947Y041003D02*
X035338Y041003D01*
X035338Y041080D02*
X034947Y041080D01*
X034947Y041158D02*
X035338Y041158D01*
X035338Y041235D02*
X034947Y041235D01*
X034947Y041312D02*
X035338Y041312D01*
X035338Y041389D02*
X034947Y041389D01*
X034947Y041467D02*
X035338Y041467D01*
X035338Y041544D02*
X034947Y041544D01*
X034947Y041621D02*
X035338Y041621D01*
X035338Y041698D02*
X034947Y041698D01*
X034947Y041776D02*
X035338Y041776D01*
X035338Y041853D02*
X034947Y041853D01*
X034947Y041930D02*
X035338Y041930D01*
X035338Y042007D02*
X034947Y042007D01*
X034947Y042085D02*
X035338Y042085D01*
X035338Y042162D02*
X034947Y042162D01*
X034947Y042239D02*
X035338Y042239D01*
X035338Y042316D02*
X034947Y042316D01*
X034947Y042393D02*
X035338Y042393D01*
X035338Y042471D02*
X034947Y042471D01*
X034947Y042548D02*
X035338Y042548D01*
X035338Y042625D02*
X034947Y042625D01*
X034947Y045638D02*
X036004Y045638D01*
X036081Y045715D02*
X034947Y045715D01*
X034947Y045792D02*
X036158Y045792D01*
X036236Y045869D02*
X034947Y045869D01*
X034947Y045947D02*
X036313Y045947D01*
X036390Y046024D02*
X034947Y046024D01*
X034947Y046101D02*
X036467Y046101D01*
X036545Y046178D02*
X034947Y046178D01*
X034947Y046256D02*
X036641Y046256D01*
X036413Y046793D02*
X036604Y046984D01*
X036708Y047234D01*
X036708Y047504D01*
X036604Y047754D01*
X036413Y047945D01*
X036163Y048048D01*
X035893Y048048D01*
X035644Y047945D01*
X035452Y047754D01*
X035349Y047504D01*
X035349Y047234D01*
X035452Y046984D01*
X035644Y046793D01*
X035893Y046690D01*
X036163Y046690D01*
X036413Y046793D01*
X036416Y046796D02*
X037799Y046796D01*
X037799Y046737D02*
X037857Y046679D01*
X038333Y046679D01*
X038391Y046737D01*
X038391Y047213D01*
X038333Y047272D01*
X037857Y047272D01*
X037799Y047213D01*
X037799Y046737D01*
X037817Y046719D02*
X036234Y046719D01*
X036493Y046873D02*
X037799Y046873D01*
X037799Y046951D02*
X036571Y046951D01*
X036622Y047028D02*
X037799Y047028D01*
X037799Y047105D02*
X036654Y047105D01*
X036686Y047182D02*
X037799Y047182D01*
X037845Y047260D02*
X036708Y047260D01*
X036708Y047337D02*
X039630Y047337D01*
X039630Y047414D02*
X036708Y047414D01*
X036708Y047491D02*
X038128Y047491D01*
X038153Y047467D02*
X038629Y047467D01*
X038687Y047525D01*
X038687Y048001D01*
X038629Y048059D01*
X038153Y048059D01*
X038094Y048001D01*
X038094Y047525D01*
X038153Y047467D01*
X038094Y047569D02*
X036681Y047569D01*
X036649Y047646D02*
X038094Y047646D01*
X038094Y047723D02*
X036617Y047723D01*
X036558Y047800D02*
X038094Y047800D01*
X038094Y047878D02*
X036481Y047878D01*
X036390Y047955D02*
X038094Y047955D01*
X038126Y048032D02*
X036203Y048032D01*
X035854Y048032D02*
X034947Y048032D01*
X034947Y047955D02*
X035667Y047955D01*
X035576Y047878D02*
X034947Y047878D01*
X034947Y047800D02*
X035499Y047800D01*
X035440Y047723D02*
X034947Y047723D01*
X034947Y047646D02*
X035408Y047646D01*
X035376Y047569D02*
X034947Y047569D01*
X034947Y047491D02*
X035349Y047491D01*
X035349Y047414D02*
X034947Y047414D01*
X034947Y047337D02*
X035349Y047337D01*
X035349Y047260D02*
X034947Y047260D01*
X034947Y047182D02*
X035370Y047182D01*
X035402Y047105D02*
X034947Y047105D01*
X034947Y047028D02*
X035434Y047028D01*
X035486Y046951D02*
X034947Y046951D01*
X034947Y046873D02*
X035563Y046873D01*
X035640Y046796D02*
X034947Y046796D01*
X034947Y046719D02*
X035823Y046719D01*
X034947Y046642D02*
X039611Y046642D01*
X039769Y046680D02*
X039473Y046975D01*
X038883Y046975D01*
X038586Y046951D02*
X038391Y046951D01*
X038391Y047028D02*
X038586Y047028D01*
X038586Y047105D02*
X038391Y047105D01*
X038391Y047182D02*
X038586Y047182D01*
X038633Y047260D02*
X038345Y047260D01*
X038653Y047491D02*
X038915Y047491D01*
X038882Y047569D02*
X038687Y047569D01*
X038687Y047646D02*
X038882Y047646D01*
X038882Y047723D02*
X038687Y047723D01*
X038687Y047800D02*
X038882Y047800D01*
X038882Y047878D02*
X038687Y047878D01*
X038687Y047955D02*
X038882Y047955D01*
X038913Y048032D02*
X038656Y048032D01*
X039178Y047960D02*
X039178Y047763D01*
X039441Y047491D02*
X039506Y047491D01*
X039769Y047369D02*
X039769Y047763D01*
X039769Y047369D02*
X040064Y047074D01*
X040950Y047074D01*
X041048Y046975D01*
X041048Y046680D01*
X040733Y046680D02*
X039769Y046680D01*
X039195Y046719D02*
X039160Y046719D01*
X039177Y046410D02*
X034947Y046410D01*
X034947Y046333D02*
X039177Y046333D01*
X039177Y046256D02*
X038428Y046256D01*
X038373Y046719D02*
X038605Y046719D01*
X038586Y046796D02*
X038391Y046796D01*
X038391Y046873D02*
X038586Y046873D01*
X039133Y047260D02*
X039223Y047260D01*
X039209Y048187D02*
X034947Y048187D01*
X034947Y048264D02*
X039286Y048264D01*
X040350Y048264D02*
X044197Y048264D01*
X044197Y048187D02*
X040427Y048187D01*
X040504Y048109D02*
X044197Y048109D01*
X044197Y048032D02*
X043577Y048032D01*
X043608Y047955D02*
X044197Y047955D01*
X044197Y047878D02*
X043608Y047878D01*
X043608Y047800D02*
X044197Y047800D01*
X044197Y047723D02*
X043608Y047723D01*
X043608Y047646D02*
X044197Y047646D01*
X044197Y047569D02*
X043608Y047569D01*
X044493Y047910D02*
X044493Y048058D01*
X046360Y046410D02*
X046563Y046410D01*
X046559Y046333D02*
X046364Y046333D01*
X046364Y046256D02*
X046559Y046256D01*
X046559Y045792D02*
X046364Y045792D01*
X046364Y045715D02*
X046559Y045715D01*
X046596Y045638D02*
X046327Y045638D01*
X047151Y046256D02*
X047346Y046256D01*
X047346Y046333D02*
X047151Y046333D01*
X047148Y046410D02*
X047350Y046410D01*
X047388Y045020D02*
X047543Y045020D01*
X047543Y044942D02*
X047388Y044942D01*
X047382Y044865D02*
X047545Y044865D01*
X050104Y045417D02*
X050104Y037543D01*
X049612Y037051D01*
X049496Y036935D01*
X044562Y036935D01*
X044541Y036914D01*
X044446Y036875D01*
X044343Y036875D01*
X044248Y036914D01*
X044176Y036987D01*
X044259Y036909D02*
X037112Y036909D01*
X037112Y036832D02*
X044516Y036832D01*
X044530Y036909D02*
X049797Y036909D01*
X049874Y036987D02*
X049548Y036987D01*
X049625Y037064D02*
X049951Y037064D01*
X050029Y037141D02*
X049702Y037141D01*
X049779Y037218D02*
X050106Y037218D01*
X050183Y037296D02*
X049857Y037296D01*
X049934Y037373D02*
X050260Y037373D01*
X050299Y037450D02*
X050011Y037450D01*
X050088Y037527D02*
X050299Y037527D01*
X050299Y037605D02*
X050104Y037605D01*
X050104Y037682D02*
X050299Y037682D01*
X050299Y037759D02*
X050104Y037759D01*
X050104Y037836D02*
X050299Y037836D01*
X050299Y037914D02*
X050104Y037914D01*
X050104Y037991D02*
X050299Y037991D01*
X050299Y038068D02*
X050104Y038068D01*
X050104Y038145D02*
X050299Y038145D01*
X050299Y038223D02*
X050104Y038223D01*
X050104Y038300D02*
X050299Y038300D01*
X050299Y038377D02*
X050104Y038377D01*
X050104Y038454D02*
X050299Y038454D01*
X050299Y038531D02*
X050104Y038531D01*
X050104Y038609D02*
X050299Y038609D01*
X050299Y038686D02*
X050104Y038686D01*
X050104Y038763D02*
X050299Y038763D01*
X050299Y038840D02*
X050104Y038840D01*
X050104Y038918D02*
X050299Y038918D01*
X050299Y038995D02*
X050104Y038995D01*
X050104Y039072D02*
X050299Y039072D01*
X050299Y039149D02*
X050104Y039149D01*
X050104Y039227D02*
X050299Y039227D01*
X050299Y039304D02*
X050104Y039304D01*
X050104Y039381D02*
X050299Y039381D01*
X050299Y039458D02*
X050104Y039458D01*
X050104Y039536D02*
X050299Y039536D01*
X050299Y039613D02*
X050104Y039613D01*
X050104Y039690D02*
X050299Y039690D01*
X050299Y039767D02*
X050104Y039767D01*
X050104Y039845D02*
X050299Y039845D01*
X050299Y039922D02*
X050104Y039922D01*
X050104Y039999D02*
X050299Y039999D01*
X050299Y040076D02*
X050104Y040076D01*
X050104Y040154D02*
X050299Y040154D01*
X050299Y040231D02*
X050104Y040231D01*
X050104Y040308D02*
X050299Y040308D01*
X050299Y040385D02*
X050104Y040385D01*
X050104Y040462D02*
X050299Y040462D01*
X050299Y040540D02*
X050104Y040540D01*
X050104Y040617D02*
X050299Y040617D01*
X050299Y040694D02*
X050104Y040694D01*
X050104Y040771D02*
X050299Y040771D01*
X050299Y040849D02*
X050104Y040849D01*
X050104Y040926D02*
X050299Y040926D01*
X050299Y041003D02*
X050104Y041003D01*
X050104Y041080D02*
X050299Y041080D01*
X050299Y041158D02*
X050104Y041158D01*
X050104Y041235D02*
X050299Y041235D01*
X050299Y041312D02*
X050104Y041312D01*
X050104Y041389D02*
X050299Y041389D01*
X050299Y041467D02*
X050104Y041467D01*
X050104Y041544D02*
X050299Y041544D01*
X050299Y041621D02*
X050104Y041621D01*
X050104Y041698D02*
X050299Y041698D01*
X050299Y041776D02*
X050104Y041776D01*
X050104Y041853D02*
X050299Y041853D01*
X050299Y041930D02*
X050104Y041930D01*
X050104Y042007D02*
X050299Y042007D01*
X050299Y042085D02*
X050104Y042085D01*
X050104Y042162D02*
X050299Y042162D01*
X050299Y042239D02*
X050104Y042239D01*
X050104Y042316D02*
X050299Y042316D01*
X050299Y042393D02*
X050104Y042393D01*
X050104Y042471D02*
X050299Y042471D01*
X050299Y042548D02*
X050104Y042548D01*
X050104Y042625D02*
X050299Y042625D01*
X050299Y042702D02*
X050104Y042702D01*
X050104Y042780D02*
X050299Y042780D01*
X050299Y042857D02*
X050104Y042857D01*
X050104Y042934D02*
X050299Y042934D01*
X050299Y043011D02*
X050104Y043011D01*
X050104Y043089D02*
X050299Y043089D01*
X050299Y043166D02*
X050104Y043166D01*
X050104Y043243D02*
X050299Y043243D01*
X050299Y043320D02*
X050104Y043320D01*
X050104Y043398D02*
X050299Y043398D01*
X050299Y043475D02*
X050104Y043475D01*
X050104Y043552D02*
X050299Y043552D01*
X050299Y043629D02*
X050104Y043629D01*
X050104Y043707D02*
X050299Y043707D01*
X050299Y043784D02*
X050104Y043784D01*
X050104Y043861D02*
X050299Y043861D01*
X050299Y043938D02*
X050104Y043938D01*
X050695Y043938D02*
X050988Y043938D01*
X050988Y043861D02*
X050695Y043861D01*
X050695Y043784D02*
X050988Y043784D01*
X050988Y043707D02*
X050695Y043707D01*
X050695Y043629D02*
X050988Y043629D01*
X050988Y043552D02*
X050695Y043552D01*
X050695Y043475D02*
X050988Y043475D01*
X050988Y043398D02*
X050695Y043398D01*
X050695Y043320D02*
X050988Y043320D01*
X050988Y043243D02*
X050695Y043243D01*
X050695Y043166D02*
X050988Y043166D01*
X050988Y043089D02*
X050695Y043089D01*
X050695Y043011D02*
X050988Y043011D01*
X050988Y042934D02*
X050695Y042934D01*
X050695Y042857D02*
X050988Y042857D01*
X051009Y042780D02*
X050695Y042780D01*
X050695Y042702D02*
X051579Y042702D01*
X051579Y042625D02*
X050695Y042625D01*
X050695Y042548D02*
X051579Y042548D01*
X051579Y042471D02*
X050695Y042471D01*
X050695Y042393D02*
X051579Y042393D01*
X051579Y042316D02*
X050695Y042316D01*
X050695Y042239D02*
X051579Y042239D01*
X051579Y042162D02*
X050695Y042162D01*
X050695Y042085D02*
X051579Y042085D01*
X051579Y042007D02*
X050695Y042007D01*
X050695Y041930D02*
X051579Y041930D01*
X051579Y041853D02*
X050695Y041853D01*
X050695Y041776D02*
X051579Y041776D01*
X051579Y041698D02*
X050695Y041698D01*
X050695Y041621D02*
X051579Y041621D01*
X051579Y041544D02*
X050695Y041544D01*
X050695Y041467D02*
X051579Y041467D01*
X051579Y041389D02*
X050695Y041389D01*
X050695Y041312D02*
X051579Y041312D01*
X051579Y041235D02*
X050695Y041235D01*
X050695Y041158D02*
X051579Y041158D01*
X051579Y041080D02*
X050695Y041080D01*
X050695Y041003D02*
X051579Y041003D01*
X051579Y040926D02*
X050695Y040926D01*
X050695Y040849D02*
X051579Y040849D01*
X051579Y040771D02*
X050695Y040771D01*
X050695Y040694D02*
X051579Y040694D01*
X051579Y040617D02*
X050695Y040617D01*
X050695Y040540D02*
X051579Y040540D01*
X051579Y040462D02*
X050695Y040462D01*
X050695Y040385D02*
X051579Y040385D01*
X051579Y040308D02*
X050695Y040308D01*
X050695Y040231D02*
X051579Y040231D01*
X051579Y040154D02*
X050695Y040154D01*
X050695Y040076D02*
X051579Y040076D01*
X051579Y039999D02*
X050695Y039999D01*
X050695Y039922D02*
X051579Y039922D01*
X051579Y039845D02*
X050695Y039845D01*
X050695Y039767D02*
X051579Y039767D01*
X051579Y039690D02*
X050695Y039690D01*
X050695Y039613D02*
X051579Y039613D01*
X051579Y039536D02*
X050695Y039536D01*
X050695Y039458D02*
X051579Y039458D01*
X051579Y039381D02*
X050695Y039381D01*
X050695Y039304D02*
X051579Y039304D01*
X051579Y039227D02*
X050695Y039227D01*
X050695Y039149D02*
X051579Y039149D01*
X051579Y039072D02*
X050695Y039072D01*
X050695Y038995D02*
X051579Y038995D01*
X051579Y038918D02*
X050695Y038918D01*
X050695Y038840D02*
X051579Y038840D01*
X051579Y038763D02*
X050695Y038763D01*
X050695Y038686D02*
X051579Y038686D01*
X051579Y038609D02*
X050695Y038609D01*
X050695Y038531D02*
X051579Y038531D01*
X051579Y038454D02*
X050695Y038454D01*
X050695Y038377D02*
X051579Y038377D01*
X051579Y038300D02*
X050695Y038300D01*
X050695Y038223D02*
X051579Y038223D01*
X051579Y038145D02*
X050695Y038145D01*
X050695Y038068D02*
X051579Y038068D01*
X051579Y037991D02*
X050695Y037991D01*
X050695Y037914D02*
X051579Y037914D01*
X051579Y037836D02*
X050695Y037836D01*
X050695Y037759D02*
X051579Y037759D01*
X051579Y037682D02*
X050695Y037682D01*
X050695Y037605D02*
X051579Y037605D01*
X051579Y037527D02*
X050695Y037527D01*
X050695Y037450D02*
X051579Y037450D01*
X051579Y037373D02*
X050695Y037373D01*
X050695Y037296D02*
X051579Y037296D01*
X051579Y037218D02*
X050665Y037218D01*
X050588Y037141D02*
X051579Y037141D01*
X051579Y037064D02*
X050511Y037064D01*
X050434Y036987D02*
X051579Y036987D01*
X051579Y036909D02*
X050356Y036909D01*
X050279Y036832D02*
X051579Y036832D01*
X051512Y036755D02*
X050202Y036755D01*
X050125Y036678D02*
X051435Y036678D01*
X051358Y036600D02*
X050047Y036600D01*
X049970Y036523D02*
X051281Y036523D01*
X051203Y036446D02*
X049893Y036446D01*
X051126Y036369D02*
X045128Y036369D01*
X044842Y036369D02*
X037112Y036369D01*
X037112Y036446D02*
X044520Y036446D01*
X044459Y036523D02*
X037112Y036523D01*
X037112Y036600D02*
X044432Y036600D01*
X044432Y036678D02*
X037112Y036678D01*
X037112Y036755D02*
X044458Y036755D01*
X044765Y036291D02*
X037112Y036291D01*
X037112Y036214D02*
X044733Y036214D01*
X044727Y036137D02*
X037112Y036137D01*
X037112Y036060D02*
X044742Y036060D01*
X044786Y035983D02*
X037112Y035983D01*
X040597Y045174D02*
X040653Y045174D01*
X040597Y045251D02*
X040767Y045251D01*
X040821Y048032D02*
X040881Y048032D01*
X042199Y048032D02*
X042259Y048032D01*
X047939Y048187D02*
X054433Y048187D01*
X054433Y048264D02*
X047939Y048264D01*
X050325Y045638D02*
X050988Y045638D01*
X050988Y045560D02*
X050247Y045560D01*
X050874Y044711D02*
X050988Y044711D01*
X050988Y044633D02*
X050797Y044633D01*
X050720Y044556D02*
X050988Y044556D01*
X050988Y044479D02*
X050695Y044479D01*
X050695Y044402D02*
X050988Y044402D01*
X050988Y044325D02*
X050695Y044325D01*
X050695Y044247D02*
X050998Y044247D01*
X050988Y044170D02*
X050695Y044170D01*
X050695Y044093D02*
X050988Y044093D01*
X050988Y044016D02*
X050695Y044016D01*
X054433Y048341D02*
X034947Y048341D01*
X034947Y048418D02*
X054433Y048418D01*
D22*
X043213Y041759D02*
X043115Y041660D01*
X041835Y041660D01*
X041737Y041759D01*
X041737Y042251D01*
X040261Y044948D02*
X039119Y044948D01*
X023036Y027290D02*
X023627Y026601D01*
X023627Y023944D01*
X024414Y023156D01*
X025595Y023156D01*
X010733Y037034D02*
X010733Y037822D01*
X010339Y038216D01*
X010733Y037034D02*
X010241Y036542D01*
X008961Y036542D01*
X008666Y036838D01*
X007780Y036838D01*
X009454Y041267D02*
X010044Y041267D01*
X014572Y046779D02*
X014572Y048058D01*
D23*
X035143Y042901D02*
X035635Y043393D01*
X035635Y043432D01*
X036028Y043826D01*
X036028Y044416D02*
X036028Y044456D01*
X035635Y044849D01*
X035635Y044810D01*
X037209Y044456D02*
X037209Y044416D01*
X037209Y044456D02*
X037603Y044849D01*
X037643Y044810D01*
X038391Y044810D01*
X038587Y044613D01*
X038587Y042645D01*
X036324Y040381D01*
X036324Y036149D01*
X036324Y016267D01*
X036619Y015971D01*
X039670Y015971D01*
X040556Y015086D01*
X040556Y012723D01*
X040851Y012428D01*
X041796Y012428D01*
X042623Y012802D02*
X042938Y012802D01*
X043115Y012625D01*
X043115Y012231D01*
X043312Y012034D01*
X043755Y012034D01*
X043755Y011247D02*
X042898Y011247D01*
X042623Y011523D01*
X041796Y011149D02*
X040457Y011149D01*
X040162Y011444D01*
X040162Y014790D01*
X039375Y015578D01*
X036225Y015578D01*
X035930Y015873D01*
X035930Y036641D01*
X035930Y041621D01*
X037603Y043393D01*
X037209Y043786D01*
X037209Y043826D01*
X035536Y043038D02*
X035536Y037133D01*
X035536Y015578D01*
X035831Y015282D01*
X039080Y015184D01*
X039769Y014495D01*
X039769Y010460D01*
X040359Y009869D01*
X041796Y009869D01*
X042623Y010243D02*
X043538Y010243D01*
X043755Y010460D01*
X045625Y010460D02*
X045969Y010460D01*
X046166Y010263D01*
X046166Y009771D01*
X046442Y009495D01*
X046658Y009495D01*
X047485Y009869D02*
X048135Y009869D01*
X051087Y009869D01*
X051776Y010558D01*
X051776Y012389D01*
X052170Y012782D01*
X052170Y012822D01*
X052170Y013412D02*
X052170Y013452D01*
X051776Y013845D01*
X050831Y013845D01*
X050300Y013314D01*
X050300Y011838D01*
X049611Y011149D01*
X048430Y011149D01*
X048036Y011149D01*
X047485Y011149D01*
X046658Y010775D02*
X046186Y011247D01*
X045625Y011247D01*
X045625Y012034D02*
X046639Y012034D01*
X046658Y012054D01*
X047485Y012428D02*
X048036Y012428D01*
X047485Y012428D02*
X047485Y014239D01*
X048233Y014987D01*
X053450Y014987D01*
X053745Y014692D01*
X053745Y013845D01*
X053351Y013452D01*
X053351Y013412D01*
X053351Y012822D02*
X053351Y012782D01*
X053745Y012389D01*
X039375Y009869D02*
X039178Y010066D01*
X039178Y013412D01*
X038745Y013845D01*
X037603Y013845D01*
X037209Y013452D01*
X037209Y013412D01*
X037209Y012822D02*
X037209Y012782D01*
X037603Y012389D01*
X037603Y012034D01*
X038489Y011149D01*
X036028Y012822D02*
X035635Y012428D01*
X035635Y012389D01*
X035635Y012133D01*
X036028Y013412D02*
X036028Y013452D01*
X035635Y013845D01*
X021855Y011838D02*
X020969Y011838D01*
X018115Y014200D02*
X016146Y014200D01*
X010241Y012822D02*
X010143Y012822D01*
X035143Y042901D02*
X035536Y043038D01*
X039080Y044908D02*
X039119Y044948D01*
X040261Y044948D02*
X040792Y044948D01*
X040851Y045007D01*
X042918Y045696D02*
X043115Y045893D01*
X043410Y045893D01*
X046068Y046040D02*
X046068Y046090D01*
X046068Y046040D02*
X046855Y046040D01*
X047643Y046040D01*
X047839Y045844D01*
X047839Y045105D01*
X047839Y044318D01*
X049906Y045499D02*
X049906Y037625D01*
X049414Y037133D01*
X044394Y037133D01*
X044690Y036641D02*
X049808Y036641D01*
X050497Y037330D01*
X050497Y044613D01*
X050831Y044948D01*
X051776Y044948D01*
X052170Y044554D01*
X052170Y044515D01*
X052170Y043924D02*
X052170Y043885D01*
X051776Y043491D01*
X051776Y036739D01*
X051186Y036149D01*
X044985Y036149D01*
X049906Y045499D02*
X050398Y045991D01*
X053450Y045991D01*
X053745Y045696D01*
X053745Y044948D01*
X053391Y044594D01*
X053391Y044554D01*
X053351Y044554D01*
X053351Y044515D01*
X053351Y043924D02*
X053745Y043531D01*
X053745Y043491D01*
D24*
X023233Y017940D02*
X023233Y010361D01*
X022446Y009574D01*
X011324Y009574D01*
X011127Y009771D01*
X011127Y011936D01*
X010241Y012822D01*
X014670Y014101D02*
X014670Y010263D01*
X015064Y009869D01*
X022249Y009869D01*
X022839Y010460D01*
X022839Y017546D01*
X021166Y019219D01*
X021166Y019908D01*
X021954Y019908D02*
X021954Y019219D01*
X023233Y017940D01*
D25*
X035536Y013609D02*
X035635Y013708D01*
X035635Y013845D01*
X037209Y016464D02*
X036816Y016857D01*
X036816Y040184D01*
X039080Y042448D01*
X039080Y044908D01*
X039080Y045204D01*
X038292Y045991D01*
X036776Y045991D01*
X035635Y044849D01*
X053351Y043924D02*
X053351Y016759D01*
X052072Y015479D01*
X046265Y015479D01*
X045674Y014889D01*
X045674Y013314D01*
X045625Y013265D01*
X045625Y012822D01*
X043755Y012822D02*
X043755Y013265D01*
X043706Y013314D01*
X041343Y013314D01*
X041146Y013511D01*
X041146Y015381D01*
X040064Y016464D01*
X037209Y016464D01*
X053745Y012389D02*
X054001Y012389D01*
X054139Y012527D01*
M02*
