G75*
G70*
%OFA0B0*%
%FSLAX24Y24*%
%IPPOS*%
%LPD*%
%AMOC8*
5,1,8,0,0,1.08239X$1,22.5*
%
%ADD10R,0.0789X0.0828*%
%ADD11R,0.0986X0.0828*%
%ADD12R,0.0237X0.0631*%
%ADD13R,0.0474X0.0474*%
%ADD14R,0.0474X0.0218*%
%ADD15R,0.0218X0.0474*%
%ADD16R,0.0930X0.0930*%
%ADD17R,0.0710X0.0592*%
%ADD18R,0.1064X0.0375*%
%ADD19R,0.0710X0.1143*%
%ADD20R,0.0631X0.0552*%
%ADD21R,0.0552X0.0631*%
%ADD22R,0.0474X0.0474*%
%ADD23R,0.0867X0.0552*%
%ADD24R,0.0828X0.2718*%
%ADD25R,0.0828X0.0513*%
%ADD26R,0.0828X0.0828*%
%ADD27R,0.1419X0.0671*%
%ADD28R,0.1458X0.0474*%
%ADD29R,0.0769X0.0907*%
%ADD30R,0.0769X0.1222*%
%ADD31R,0.0769X0.0789*%
%ADD32R,0.0966X0.1025*%
%ADD33R,0.0966X0.1222*%
%ADD34C,0.0710*%
%ADD35R,0.1753X0.0671*%
%ADD36R,0.0430X0.0907*%
%ADD37R,0.0950X0.0320*%
%ADD38R,0.0907X0.0430*%
%ADD39R,0.0375X0.1064*%
%ADD40R,0.0710X0.0198*%
%ADD41R,0.0198X0.0710*%
%ADD42R,0.0513X0.0986*%
%ADD43R,0.0257X0.0493*%
%ADD44R,0.0415X0.0190*%
%ADD45R,0.0190X0.0415*%
%ADD46R,0.1852X0.1852*%
%ADD47R,0.0474X0.0200*%
%ADD48R,0.0218X0.0415*%
%ADD49C,0.1240*%
%ADD50C,0.0500*%
%ADD51R,0.0415X0.0218*%
%ADD52C,0.0070*%
%ADD53R,0.1182X0.0592*%
%ADD54R,0.0513X0.0415*%
%ADD55R,0.0513X0.0375*%
%ADD56R,0.0789X0.0541*%
%ADD57R,0.0611X0.0690*%
%ADD58R,0.0474X0.0552*%
%ADD59R,0.0611X0.0828*%
%ADD60C,0.0397*%
D10*
X006747Y040100D03*
X007652Y040100D03*
D11*
X008676Y040100D03*
X005723Y040100D03*
D12*
X006688Y038978D03*
X006944Y038978D03*
X007200Y038978D03*
X007456Y038978D03*
X007711Y038978D03*
D13*
X011629Y040198D03*
X012416Y040198D03*
X013696Y040198D03*
X013696Y039411D03*
X014483Y039411D03*
X014483Y040198D03*
X017830Y035769D03*
X017830Y034982D03*
X017830Y034588D03*
X018223Y034785D03*
X017436Y034785D03*
X016648Y034785D03*
X017830Y033801D03*
X017830Y033407D03*
X017830Y032620D03*
X017830Y032226D03*
X017436Y032423D03*
X016648Y032423D03*
X017830Y031439D03*
X018519Y032147D03*
X019306Y032147D03*
X019306Y032915D03*
X018519Y032915D03*
X019700Y031242D03*
X019700Y030454D03*
X020585Y029962D03*
X020585Y029175D03*
X021373Y029175D03*
X021373Y029962D03*
X021963Y028486D03*
X021963Y027698D03*
X020881Y026911D03*
X020881Y026124D03*
X020093Y026124D03*
X020093Y026911D03*
X019011Y027403D03*
X019011Y028191D03*
X017928Y027994D03*
X017337Y027895D03*
X016944Y028486D03*
X016550Y027895D03*
X016156Y028486D03*
X015664Y028092D03*
X015664Y027305D03*
X015763Y026517D03*
X016550Y026517D03*
X016156Y025730D03*
X015369Y025730D03*
X014778Y025730D03*
X014778Y026517D03*
X013991Y026714D03*
X013893Y027305D03*
X013893Y028092D03*
X013676Y029667D03*
X013676Y030454D03*
X014463Y030454D03*
X014463Y029667D03*
X015369Y029962D03*
X016058Y029864D03*
X016156Y029273D03*
X016944Y029273D03*
X016845Y029864D03*
X015369Y029175D03*
X017928Y027206D03*
X016058Y024943D03*
X015270Y024943D03*
X015763Y024155D03*
X016550Y024155D03*
X016255Y023368D03*
X017042Y023368D03*
X018814Y021596D03*
X019601Y021596D03*
X019601Y022383D03*
X019207Y022876D03*
X019207Y023663D03*
X019995Y023761D03*
X020389Y023269D03*
X020782Y023761D03*
X021176Y023269D03*
X021570Y023761D03*
X021963Y023269D03*
X021963Y022482D03*
X021176Y022482D03*
X020389Y022482D03*
X018814Y020809D03*
X019011Y019234D03*
X019798Y019234D03*
X020585Y019234D03*
X020585Y018446D03*
X020093Y018446D03*
X019700Y017856D03*
X019306Y018446D03*
X019700Y017069D03*
X020684Y017069D03*
X020684Y017856D03*
X021373Y018446D03*
X021373Y019234D03*
X016255Y019037D03*
X016255Y018250D03*
X015467Y018250D03*
X014975Y018250D03*
X014975Y019037D03*
X015467Y019037D03*
X014975Y019824D03*
X014483Y020415D03*
X014188Y019824D03*
X014188Y019037D03*
X014188Y018250D03*
X014385Y016773D03*
X015172Y016773D03*
X015664Y016773D03*
X016452Y016773D03*
X015861Y014313D03*
X016353Y013919D03*
X016353Y013131D03*
X017141Y013131D03*
X017141Y013919D03*
X015369Y012443D03*
X015369Y011655D03*
X014483Y011360D03*
X013696Y011360D03*
X013696Y010572D03*
X014483Y010572D03*
X015664Y009588D03*
X015664Y008801D03*
X016648Y008506D03*
X017239Y008604D03*
X017239Y009391D03*
X018026Y009391D03*
X018026Y008604D03*
X018026Y007817D03*
X018026Y007029D03*
X017239Y007029D03*
X016648Y007226D03*
X016648Y007718D03*
X017239Y007817D03*
X016648Y006439D03*
X014778Y006439D03*
X014778Y005651D03*
X013696Y006242D03*
X013696Y007029D03*
X012908Y007029D03*
X012908Y006242D03*
X010054Y006537D03*
X009267Y006537D03*
X008774Y006537D03*
X007987Y006537D03*
X007495Y006537D03*
X006707Y006537D03*
X006215Y006537D03*
X005428Y006537D03*
X006609Y010671D03*
X006117Y010966D03*
X005330Y010966D03*
X004148Y012639D03*
X003361Y012639D03*
X004148Y013230D03*
X004148Y014017D03*
X004148Y014509D03*
X004148Y015297D03*
X004148Y016380D03*
X004148Y017167D03*
X004148Y017659D03*
X004148Y018446D03*
X004444Y020317D03*
X003656Y020317D03*
X004247Y021399D03*
X005034Y021399D03*
X005034Y022187D03*
X005526Y022187D03*
X006314Y022187D03*
X007790Y022876D03*
X007790Y023663D03*
X008184Y024352D03*
X008774Y023958D03*
X009562Y023958D03*
X010448Y023860D03*
X010448Y023072D03*
X010743Y022383D03*
X010349Y021793D03*
X009562Y021793D03*
X009562Y021006D03*
X010349Y021006D03*
X011137Y021596D03*
X011924Y021596D03*
X012515Y021891D03*
X012711Y021301D03*
X013302Y021891D03*
X013499Y021301D03*
X013696Y020513D03*
X012908Y020513D03*
X014483Y021202D03*
X013302Y022679D03*
X012515Y022679D03*
X011530Y022383D03*
X008578Y021498D03*
X008578Y020710D03*
X004247Y022187D03*
X008184Y025139D03*
X008479Y026124D03*
X008479Y026911D03*
X009267Y026911D03*
X009267Y026124D03*
X008085Y028289D03*
X007298Y028289D03*
X006707Y028092D03*
X006707Y028880D03*
X005920Y028880D03*
X005920Y028092D03*
X005428Y030159D03*
X004641Y030159D03*
X003263Y031045D03*
X003263Y031832D03*
X005330Y033013D03*
X005330Y033801D03*
X005625Y034391D03*
X004837Y034391D03*
X004148Y034687D03*
X003361Y034687D03*
X003361Y033899D03*
X004148Y033899D03*
X013204Y032226D03*
X013991Y032226D03*
X013991Y031439D03*
X013204Y031439D03*
X013204Y026714D03*
X019995Y024549D03*
X020782Y024549D03*
X021570Y024549D03*
X019011Y034785D03*
X015074Y014313D03*
X016944Y011557D03*
X017731Y011557D03*
X018912Y011458D03*
X019306Y011950D03*
X019700Y011458D03*
X020093Y011950D03*
X020487Y011458D03*
X020881Y011950D03*
X021274Y011458D03*
X021274Y010671D03*
X020487Y010671D03*
X019700Y010671D03*
X018912Y010671D03*
X019109Y009883D03*
X019109Y009096D03*
X019896Y009096D03*
X019896Y009883D03*
X020684Y009883D03*
X020684Y009096D03*
X021471Y009096D03*
X021471Y009883D03*
X021767Y008604D03*
X021767Y007817D03*
X021767Y007324D03*
X021767Y006537D03*
X020782Y006537D03*
X019995Y006537D03*
X019503Y006537D03*
X018715Y006537D03*
X019306Y012738D03*
X020093Y012738D03*
X020881Y012738D03*
X011333Y010966D03*
X010546Y010966D03*
X010546Y010179D03*
X011333Y010179D03*
X007396Y010671D03*
D14*
X017574Y029677D03*
X017574Y029933D03*
X017574Y030189D03*
X017574Y030444D03*
X019070Y030444D03*
X019070Y030189D03*
X019070Y029933D03*
X019070Y029677D03*
D15*
X018706Y029313D03*
X018450Y029313D03*
X018194Y029313D03*
X017938Y029313D03*
X017938Y030809D03*
X018194Y030809D03*
X018450Y030809D03*
X018706Y030809D03*
D16*
X018322Y030061D03*
D17*
X019739Y028643D03*
X019739Y027738D03*
X021235Y027738D03*
X021235Y028643D03*
D18*
X017345Y021781D03*
X017345Y021281D03*
X017345Y020781D03*
X017345Y020281D03*
X017345Y019781D03*
X015770Y019781D03*
X015770Y020281D03*
X015770Y020781D03*
X015770Y021281D03*
X015770Y021781D03*
D19*
X020723Y005553D03*
X021826Y005553D03*
X021826Y004273D03*
X020723Y004273D03*
D20*
X003164Y014017D03*
X003164Y015198D03*
X003164Y018250D03*
X003164Y019431D03*
X003263Y029175D03*
X003263Y030356D03*
X021865Y027009D03*
X021865Y025828D03*
D21*
X009503Y023210D03*
X008833Y023210D03*
X008833Y022344D03*
X009503Y022344D03*
X009759Y040198D03*
X010940Y040198D03*
D22*
G36*
X013737Y025713D02*
X014072Y026048D01*
X014407Y025713D01*
X014072Y025378D01*
X013737Y025713D01*
G37*
G36*
X013181Y025156D02*
X013516Y025491D01*
X013851Y025156D01*
X013516Y024821D01*
X013181Y025156D01*
G37*
G36*
X013771Y024566D02*
X014106Y024901D01*
X014441Y024566D01*
X014106Y024231D01*
X013771Y024566D01*
G37*
G36*
X014328Y025122D02*
X014663Y025457D01*
X014998Y025122D01*
X014663Y024787D01*
X014328Y025122D01*
G37*
D23*
X005526Y030809D03*
X005526Y032069D03*
D24*
X009995Y030226D03*
D25*
X007554Y030226D03*
D26*
X007554Y031289D03*
X007554Y029163D03*
D27*
X005743Y035277D03*
X005743Y037836D03*
D28*
X003558Y036950D03*
X003558Y036163D03*
D29*
X005428Y004923D03*
X014877Y004923D03*
D30*
X014877Y002423D03*
X005428Y002423D03*
D31*
X005428Y003722D03*
X014877Y003722D03*
D32*
X019503Y003250D03*
X010054Y003250D03*
D33*
X010054Y004982D03*
X019503Y004982D03*
D34*
X017239Y004864D03*
X017239Y002502D03*
X007790Y002502D03*
X007790Y004864D03*
D35*
X021373Y035950D03*
X021373Y036950D03*
X021373Y037950D03*
D36*
X018420Y038072D03*
X017633Y038072D03*
X016845Y038072D03*
X016058Y038072D03*
X015270Y038072D03*
X015270Y040159D03*
X016058Y040159D03*
X016845Y040159D03*
X017633Y040159D03*
X018420Y040159D03*
D37*
X018768Y008665D03*
X018768Y008165D03*
X018768Y007665D03*
X018768Y007165D03*
X020828Y007165D03*
X020828Y007665D03*
X020828Y008165D03*
X020828Y008665D03*
D38*
X013459Y005651D03*
X013459Y004864D03*
X013459Y004076D03*
X013459Y003289D03*
X013459Y002502D03*
X011373Y002502D03*
X011373Y003289D03*
X011373Y004076D03*
X011373Y004864D03*
X011373Y005651D03*
D39*
X011515Y007817D03*
X012015Y007817D03*
X012515Y007817D03*
X013015Y007817D03*
X013515Y007817D03*
X013515Y009391D03*
X013015Y009391D03*
X012515Y009391D03*
X012015Y009391D03*
X011515Y009391D03*
D40*
X013263Y012443D03*
X013263Y012639D03*
X013263Y012836D03*
X013263Y013033D03*
X013263Y013230D03*
X013263Y013427D03*
X013263Y013624D03*
X013263Y013820D03*
X013263Y014017D03*
X013263Y014214D03*
X013263Y014411D03*
X013263Y014608D03*
X013263Y014805D03*
X013263Y015002D03*
X013263Y015198D03*
X013263Y015395D03*
X013263Y015592D03*
X013263Y015789D03*
X013263Y015986D03*
X013263Y016183D03*
X013263Y016380D03*
X013263Y016576D03*
X013263Y016773D03*
X013263Y016970D03*
X013263Y017167D03*
X013263Y017364D03*
X013263Y017561D03*
X013263Y017757D03*
X013263Y017954D03*
X013263Y018151D03*
X013263Y018348D03*
X013263Y018545D03*
X013263Y018742D03*
X013263Y018939D03*
X013263Y019135D03*
X013263Y019332D03*
X004877Y019332D03*
X004877Y019135D03*
X004877Y018939D03*
X004877Y018742D03*
X004877Y018545D03*
X004877Y018348D03*
X004877Y018151D03*
X004877Y017954D03*
X004877Y017757D03*
X004877Y017561D03*
X004877Y017364D03*
X004877Y017167D03*
X004877Y016970D03*
X004877Y016773D03*
X004877Y016576D03*
X004877Y016380D03*
X004877Y016183D03*
X004877Y015986D03*
X004877Y015789D03*
X004877Y015592D03*
X004877Y015395D03*
X004877Y015198D03*
X004877Y015002D03*
X004877Y014805D03*
X004877Y014608D03*
X004877Y014411D03*
X004877Y014214D03*
X004877Y014017D03*
X004877Y013820D03*
X004877Y013624D03*
X004877Y013427D03*
X004877Y013230D03*
X004877Y013033D03*
X004877Y012836D03*
X004877Y012639D03*
X004877Y012443D03*
D41*
X005625Y011694D03*
X005822Y011694D03*
X006019Y011694D03*
X006215Y011694D03*
X006412Y011694D03*
X006609Y011694D03*
X006806Y011694D03*
X007003Y011694D03*
X007200Y011694D03*
X007396Y011694D03*
X007593Y011694D03*
X007790Y011694D03*
X007987Y011694D03*
X008184Y011694D03*
X008381Y011694D03*
X008578Y011694D03*
X008774Y011694D03*
X008971Y011694D03*
X009168Y011694D03*
X009365Y011694D03*
X009562Y011694D03*
X009759Y011694D03*
X009956Y011694D03*
X010152Y011694D03*
X010349Y011694D03*
X010546Y011694D03*
X010743Y011694D03*
X010940Y011694D03*
X011137Y011694D03*
X011333Y011694D03*
X011530Y011694D03*
X011727Y011694D03*
X011924Y011694D03*
X012121Y011694D03*
X012318Y011694D03*
X012515Y011694D03*
X012515Y020080D03*
X012318Y020080D03*
X012121Y020080D03*
X011924Y020080D03*
X011727Y020080D03*
X011530Y020080D03*
X011333Y020080D03*
X011137Y020080D03*
X010940Y020080D03*
X010743Y020080D03*
X010546Y020080D03*
X010349Y020080D03*
X010152Y020080D03*
X009956Y020080D03*
X009759Y020080D03*
X009562Y020080D03*
X009365Y020080D03*
X009168Y020080D03*
X008971Y020080D03*
X008774Y020080D03*
X008578Y020080D03*
X008381Y020080D03*
X008184Y020080D03*
X007987Y020080D03*
X007790Y020080D03*
X007593Y020080D03*
X007396Y020080D03*
X007200Y020080D03*
X007003Y020080D03*
X006806Y020080D03*
X006609Y020080D03*
X006412Y020080D03*
X006215Y020080D03*
X006019Y020080D03*
X005822Y020080D03*
X005625Y020080D03*
X004641Y031399D03*
X004444Y031399D03*
X004247Y031399D03*
X004050Y031399D03*
X003853Y031399D03*
X003853Y033053D03*
X004050Y033053D03*
X004247Y033053D03*
X004444Y033053D03*
X004641Y033053D03*
D42*
X005389Y009824D03*
X006845Y009824D03*
X008046Y009824D03*
X009503Y009824D03*
X009503Y007580D03*
X008046Y007580D03*
X006845Y007580D03*
X005389Y007580D03*
D43*
X018784Y013811D03*
X019040Y013811D03*
X019296Y013811D03*
X019552Y013811D03*
X019808Y013811D03*
X020064Y013811D03*
X020320Y013811D03*
X020576Y013811D03*
X020831Y013811D03*
X021087Y013811D03*
X021343Y013811D03*
X021599Y013811D03*
X021599Y015996D03*
X021343Y015996D03*
X021087Y015996D03*
X020831Y015996D03*
X020576Y015996D03*
X020320Y015996D03*
X020064Y015996D03*
X019808Y015996D03*
X019552Y015996D03*
X019296Y015996D03*
X019040Y015996D03*
X018784Y015996D03*
D44*
X019404Y024549D03*
X019404Y024746D03*
X019404Y024943D03*
X019404Y025139D03*
X019404Y025336D03*
X019404Y025533D03*
X019404Y025730D03*
X019404Y025927D03*
X019404Y026124D03*
X019404Y026320D03*
X017042Y026320D03*
X017042Y026124D03*
X017042Y025927D03*
X017042Y025730D03*
X017042Y025533D03*
X017042Y025336D03*
X017042Y025139D03*
X017042Y024943D03*
X017042Y024746D03*
X017042Y024549D03*
D45*
X017337Y024254D03*
X017534Y024254D03*
X017731Y024254D03*
X017928Y024254D03*
X018125Y024254D03*
X018322Y024254D03*
X018519Y024254D03*
X018715Y024254D03*
X018912Y024254D03*
X019109Y024254D03*
X019109Y026616D03*
X018912Y026616D03*
X018715Y026616D03*
X018519Y026616D03*
X018322Y026616D03*
X018125Y026616D03*
X017928Y026616D03*
X017731Y026616D03*
X017534Y026616D03*
X017337Y026616D03*
D46*
X018223Y025435D03*
D47*
X019749Y020710D03*
X019749Y020513D03*
X019749Y020317D03*
X019749Y020120D03*
X019749Y019923D03*
X021422Y019923D03*
X021422Y020120D03*
X021422Y020317D03*
X021422Y020513D03*
X021422Y020710D03*
D48*
X018676Y019273D03*
X018420Y019273D03*
X018164Y019273D03*
X018164Y018407D03*
X018676Y018407D03*
D49*
X021176Y002502D03*
X027475Y002502D03*
X044798Y002502D03*
X044798Y039509D03*
X027475Y039509D03*
X021176Y039509D03*
X003853Y039509D03*
X003853Y002502D03*
D50*
X003023Y002502D02*
X003025Y002559D01*
X003031Y002616D01*
X003041Y002673D01*
X003054Y002728D01*
X003072Y002783D01*
X003093Y002836D01*
X003118Y002888D01*
X003146Y002938D01*
X003178Y002985D01*
X003213Y003031D01*
X003251Y003074D01*
X003292Y003114D01*
X003336Y003151D01*
X003382Y003185D01*
X003430Y003216D01*
X003480Y003243D01*
X003532Y003267D01*
X003586Y003288D01*
X003640Y003304D01*
X003696Y003317D01*
X003753Y003326D01*
X003810Y003331D01*
X003867Y003332D01*
X003925Y003329D01*
X003981Y003322D01*
X004038Y003311D01*
X004093Y003297D01*
X004147Y003278D01*
X004200Y003256D01*
X004251Y003230D01*
X004301Y003201D01*
X004348Y003168D01*
X004393Y003133D01*
X004435Y003094D01*
X004474Y003052D01*
X004511Y003008D01*
X004544Y002962D01*
X004574Y002913D01*
X004601Y002862D01*
X004624Y002810D01*
X004643Y002756D01*
X004659Y002701D01*
X004671Y002645D01*
X004679Y002588D01*
X004683Y002531D01*
X004683Y002473D01*
X004679Y002416D01*
X004671Y002359D01*
X004659Y002303D01*
X004643Y002248D01*
X004624Y002194D01*
X004601Y002142D01*
X004574Y002091D01*
X004544Y002042D01*
X004511Y001996D01*
X004474Y001952D01*
X004435Y001910D01*
X004393Y001871D01*
X004348Y001836D01*
X004301Y001803D01*
X004251Y001774D01*
X004200Y001748D01*
X004147Y001726D01*
X004093Y001707D01*
X004038Y001693D01*
X003981Y001682D01*
X003925Y001675D01*
X003867Y001672D01*
X003810Y001673D01*
X003753Y001678D01*
X003696Y001687D01*
X003640Y001700D01*
X003586Y001716D01*
X003532Y001737D01*
X003480Y001761D01*
X003430Y001788D01*
X003382Y001819D01*
X003336Y001853D01*
X003292Y001890D01*
X003251Y001930D01*
X003213Y001973D01*
X003178Y002019D01*
X003146Y002066D01*
X003118Y002116D01*
X003093Y002168D01*
X003072Y002221D01*
X003054Y002276D01*
X003041Y002331D01*
X003031Y002388D01*
X003025Y002445D01*
X003023Y002502D01*
X020346Y002502D02*
X020348Y002559D01*
X020354Y002616D01*
X020364Y002673D01*
X020377Y002728D01*
X020395Y002783D01*
X020416Y002836D01*
X020441Y002888D01*
X020469Y002938D01*
X020501Y002985D01*
X020536Y003031D01*
X020574Y003074D01*
X020615Y003114D01*
X020659Y003151D01*
X020705Y003185D01*
X020753Y003216D01*
X020803Y003243D01*
X020855Y003267D01*
X020909Y003288D01*
X020963Y003304D01*
X021019Y003317D01*
X021076Y003326D01*
X021133Y003331D01*
X021190Y003332D01*
X021248Y003329D01*
X021304Y003322D01*
X021361Y003311D01*
X021416Y003297D01*
X021470Y003278D01*
X021523Y003256D01*
X021574Y003230D01*
X021624Y003201D01*
X021671Y003168D01*
X021716Y003133D01*
X021758Y003094D01*
X021797Y003052D01*
X021834Y003008D01*
X021867Y002962D01*
X021897Y002913D01*
X021924Y002862D01*
X021947Y002810D01*
X021966Y002756D01*
X021982Y002701D01*
X021994Y002645D01*
X022002Y002588D01*
X022006Y002531D01*
X022006Y002473D01*
X022002Y002416D01*
X021994Y002359D01*
X021982Y002303D01*
X021966Y002248D01*
X021947Y002194D01*
X021924Y002142D01*
X021897Y002091D01*
X021867Y002042D01*
X021834Y001996D01*
X021797Y001952D01*
X021758Y001910D01*
X021716Y001871D01*
X021671Y001836D01*
X021624Y001803D01*
X021574Y001774D01*
X021523Y001748D01*
X021470Y001726D01*
X021416Y001707D01*
X021361Y001693D01*
X021304Y001682D01*
X021248Y001675D01*
X021190Y001672D01*
X021133Y001673D01*
X021076Y001678D01*
X021019Y001687D01*
X020963Y001700D01*
X020909Y001716D01*
X020855Y001737D01*
X020803Y001761D01*
X020753Y001788D01*
X020705Y001819D01*
X020659Y001853D01*
X020615Y001890D01*
X020574Y001930D01*
X020536Y001973D01*
X020501Y002019D01*
X020469Y002066D01*
X020441Y002116D01*
X020416Y002168D01*
X020395Y002221D01*
X020377Y002276D01*
X020364Y002331D01*
X020354Y002388D01*
X020348Y002445D01*
X020346Y002502D01*
X026645Y002502D02*
X026647Y002559D01*
X026653Y002616D01*
X026663Y002673D01*
X026676Y002728D01*
X026694Y002783D01*
X026715Y002836D01*
X026740Y002888D01*
X026768Y002938D01*
X026800Y002985D01*
X026835Y003031D01*
X026873Y003074D01*
X026914Y003114D01*
X026958Y003151D01*
X027004Y003185D01*
X027052Y003216D01*
X027102Y003243D01*
X027154Y003267D01*
X027208Y003288D01*
X027262Y003304D01*
X027318Y003317D01*
X027375Y003326D01*
X027432Y003331D01*
X027489Y003332D01*
X027547Y003329D01*
X027603Y003322D01*
X027660Y003311D01*
X027715Y003297D01*
X027769Y003278D01*
X027822Y003256D01*
X027873Y003230D01*
X027923Y003201D01*
X027970Y003168D01*
X028015Y003133D01*
X028057Y003094D01*
X028096Y003052D01*
X028133Y003008D01*
X028166Y002962D01*
X028196Y002913D01*
X028223Y002862D01*
X028246Y002810D01*
X028265Y002756D01*
X028281Y002701D01*
X028293Y002645D01*
X028301Y002588D01*
X028305Y002531D01*
X028305Y002473D01*
X028301Y002416D01*
X028293Y002359D01*
X028281Y002303D01*
X028265Y002248D01*
X028246Y002194D01*
X028223Y002142D01*
X028196Y002091D01*
X028166Y002042D01*
X028133Y001996D01*
X028096Y001952D01*
X028057Y001910D01*
X028015Y001871D01*
X027970Y001836D01*
X027923Y001803D01*
X027873Y001774D01*
X027822Y001748D01*
X027769Y001726D01*
X027715Y001707D01*
X027660Y001693D01*
X027603Y001682D01*
X027547Y001675D01*
X027489Y001672D01*
X027432Y001673D01*
X027375Y001678D01*
X027318Y001687D01*
X027262Y001700D01*
X027208Y001716D01*
X027154Y001737D01*
X027102Y001761D01*
X027052Y001788D01*
X027004Y001819D01*
X026958Y001853D01*
X026914Y001890D01*
X026873Y001930D01*
X026835Y001973D01*
X026800Y002019D01*
X026768Y002066D01*
X026740Y002116D01*
X026715Y002168D01*
X026694Y002221D01*
X026676Y002276D01*
X026663Y002331D01*
X026653Y002388D01*
X026647Y002445D01*
X026645Y002502D01*
X043968Y002502D02*
X043970Y002559D01*
X043976Y002616D01*
X043986Y002673D01*
X043999Y002728D01*
X044017Y002783D01*
X044038Y002836D01*
X044063Y002888D01*
X044091Y002938D01*
X044123Y002985D01*
X044158Y003031D01*
X044196Y003074D01*
X044237Y003114D01*
X044281Y003151D01*
X044327Y003185D01*
X044375Y003216D01*
X044425Y003243D01*
X044477Y003267D01*
X044531Y003288D01*
X044585Y003304D01*
X044641Y003317D01*
X044698Y003326D01*
X044755Y003331D01*
X044812Y003332D01*
X044870Y003329D01*
X044926Y003322D01*
X044983Y003311D01*
X045038Y003297D01*
X045092Y003278D01*
X045145Y003256D01*
X045196Y003230D01*
X045246Y003201D01*
X045293Y003168D01*
X045338Y003133D01*
X045380Y003094D01*
X045419Y003052D01*
X045456Y003008D01*
X045489Y002962D01*
X045519Y002913D01*
X045546Y002862D01*
X045569Y002810D01*
X045588Y002756D01*
X045604Y002701D01*
X045616Y002645D01*
X045624Y002588D01*
X045628Y002531D01*
X045628Y002473D01*
X045624Y002416D01*
X045616Y002359D01*
X045604Y002303D01*
X045588Y002248D01*
X045569Y002194D01*
X045546Y002142D01*
X045519Y002091D01*
X045489Y002042D01*
X045456Y001996D01*
X045419Y001952D01*
X045380Y001910D01*
X045338Y001871D01*
X045293Y001836D01*
X045246Y001803D01*
X045196Y001774D01*
X045145Y001748D01*
X045092Y001726D01*
X045038Y001707D01*
X044983Y001693D01*
X044926Y001682D01*
X044870Y001675D01*
X044812Y001672D01*
X044755Y001673D01*
X044698Y001678D01*
X044641Y001687D01*
X044585Y001700D01*
X044531Y001716D01*
X044477Y001737D01*
X044425Y001761D01*
X044375Y001788D01*
X044327Y001819D01*
X044281Y001853D01*
X044237Y001890D01*
X044196Y001930D01*
X044158Y001973D01*
X044123Y002019D01*
X044091Y002066D01*
X044063Y002116D01*
X044038Y002168D01*
X044017Y002221D01*
X043999Y002276D01*
X043986Y002331D01*
X043976Y002388D01*
X043970Y002445D01*
X043968Y002502D01*
X043968Y039509D02*
X043970Y039566D01*
X043976Y039623D01*
X043986Y039680D01*
X043999Y039735D01*
X044017Y039790D01*
X044038Y039843D01*
X044063Y039895D01*
X044091Y039945D01*
X044123Y039992D01*
X044158Y040038D01*
X044196Y040081D01*
X044237Y040121D01*
X044281Y040158D01*
X044327Y040192D01*
X044375Y040223D01*
X044425Y040250D01*
X044477Y040274D01*
X044531Y040295D01*
X044585Y040311D01*
X044641Y040324D01*
X044698Y040333D01*
X044755Y040338D01*
X044812Y040339D01*
X044870Y040336D01*
X044926Y040329D01*
X044983Y040318D01*
X045038Y040304D01*
X045092Y040285D01*
X045145Y040263D01*
X045196Y040237D01*
X045246Y040208D01*
X045293Y040175D01*
X045338Y040140D01*
X045380Y040101D01*
X045419Y040059D01*
X045456Y040015D01*
X045489Y039969D01*
X045519Y039920D01*
X045546Y039869D01*
X045569Y039817D01*
X045588Y039763D01*
X045604Y039708D01*
X045616Y039652D01*
X045624Y039595D01*
X045628Y039538D01*
X045628Y039480D01*
X045624Y039423D01*
X045616Y039366D01*
X045604Y039310D01*
X045588Y039255D01*
X045569Y039201D01*
X045546Y039149D01*
X045519Y039098D01*
X045489Y039049D01*
X045456Y039003D01*
X045419Y038959D01*
X045380Y038917D01*
X045338Y038878D01*
X045293Y038843D01*
X045246Y038810D01*
X045196Y038781D01*
X045145Y038755D01*
X045092Y038733D01*
X045038Y038714D01*
X044983Y038700D01*
X044926Y038689D01*
X044870Y038682D01*
X044812Y038679D01*
X044755Y038680D01*
X044698Y038685D01*
X044641Y038694D01*
X044585Y038707D01*
X044531Y038723D01*
X044477Y038744D01*
X044425Y038768D01*
X044375Y038795D01*
X044327Y038826D01*
X044281Y038860D01*
X044237Y038897D01*
X044196Y038937D01*
X044158Y038980D01*
X044123Y039026D01*
X044091Y039073D01*
X044063Y039123D01*
X044038Y039175D01*
X044017Y039228D01*
X043999Y039283D01*
X043986Y039338D01*
X043976Y039395D01*
X043970Y039452D01*
X043968Y039509D01*
X026645Y039509D02*
X026647Y039566D01*
X026653Y039623D01*
X026663Y039680D01*
X026676Y039735D01*
X026694Y039790D01*
X026715Y039843D01*
X026740Y039895D01*
X026768Y039945D01*
X026800Y039992D01*
X026835Y040038D01*
X026873Y040081D01*
X026914Y040121D01*
X026958Y040158D01*
X027004Y040192D01*
X027052Y040223D01*
X027102Y040250D01*
X027154Y040274D01*
X027208Y040295D01*
X027262Y040311D01*
X027318Y040324D01*
X027375Y040333D01*
X027432Y040338D01*
X027489Y040339D01*
X027547Y040336D01*
X027603Y040329D01*
X027660Y040318D01*
X027715Y040304D01*
X027769Y040285D01*
X027822Y040263D01*
X027873Y040237D01*
X027923Y040208D01*
X027970Y040175D01*
X028015Y040140D01*
X028057Y040101D01*
X028096Y040059D01*
X028133Y040015D01*
X028166Y039969D01*
X028196Y039920D01*
X028223Y039869D01*
X028246Y039817D01*
X028265Y039763D01*
X028281Y039708D01*
X028293Y039652D01*
X028301Y039595D01*
X028305Y039538D01*
X028305Y039480D01*
X028301Y039423D01*
X028293Y039366D01*
X028281Y039310D01*
X028265Y039255D01*
X028246Y039201D01*
X028223Y039149D01*
X028196Y039098D01*
X028166Y039049D01*
X028133Y039003D01*
X028096Y038959D01*
X028057Y038917D01*
X028015Y038878D01*
X027970Y038843D01*
X027923Y038810D01*
X027873Y038781D01*
X027822Y038755D01*
X027769Y038733D01*
X027715Y038714D01*
X027660Y038700D01*
X027603Y038689D01*
X027547Y038682D01*
X027489Y038679D01*
X027432Y038680D01*
X027375Y038685D01*
X027318Y038694D01*
X027262Y038707D01*
X027208Y038723D01*
X027154Y038744D01*
X027102Y038768D01*
X027052Y038795D01*
X027004Y038826D01*
X026958Y038860D01*
X026914Y038897D01*
X026873Y038937D01*
X026835Y038980D01*
X026800Y039026D01*
X026768Y039073D01*
X026740Y039123D01*
X026715Y039175D01*
X026694Y039228D01*
X026676Y039283D01*
X026663Y039338D01*
X026653Y039395D01*
X026647Y039452D01*
X026645Y039509D01*
X020346Y039509D02*
X020348Y039566D01*
X020354Y039623D01*
X020364Y039680D01*
X020377Y039735D01*
X020395Y039790D01*
X020416Y039843D01*
X020441Y039895D01*
X020469Y039945D01*
X020501Y039992D01*
X020536Y040038D01*
X020574Y040081D01*
X020615Y040121D01*
X020659Y040158D01*
X020705Y040192D01*
X020753Y040223D01*
X020803Y040250D01*
X020855Y040274D01*
X020909Y040295D01*
X020963Y040311D01*
X021019Y040324D01*
X021076Y040333D01*
X021133Y040338D01*
X021190Y040339D01*
X021248Y040336D01*
X021304Y040329D01*
X021361Y040318D01*
X021416Y040304D01*
X021470Y040285D01*
X021523Y040263D01*
X021574Y040237D01*
X021624Y040208D01*
X021671Y040175D01*
X021716Y040140D01*
X021758Y040101D01*
X021797Y040059D01*
X021834Y040015D01*
X021867Y039969D01*
X021897Y039920D01*
X021924Y039869D01*
X021947Y039817D01*
X021966Y039763D01*
X021982Y039708D01*
X021994Y039652D01*
X022002Y039595D01*
X022006Y039538D01*
X022006Y039480D01*
X022002Y039423D01*
X021994Y039366D01*
X021982Y039310D01*
X021966Y039255D01*
X021947Y039201D01*
X021924Y039149D01*
X021897Y039098D01*
X021867Y039049D01*
X021834Y039003D01*
X021797Y038959D01*
X021758Y038917D01*
X021716Y038878D01*
X021671Y038843D01*
X021624Y038810D01*
X021574Y038781D01*
X021523Y038755D01*
X021470Y038733D01*
X021416Y038714D01*
X021361Y038700D01*
X021304Y038689D01*
X021248Y038682D01*
X021190Y038679D01*
X021133Y038680D01*
X021076Y038685D01*
X021019Y038694D01*
X020963Y038707D01*
X020909Y038723D01*
X020855Y038744D01*
X020803Y038768D01*
X020753Y038795D01*
X020705Y038826D01*
X020659Y038860D01*
X020615Y038897D01*
X020574Y038937D01*
X020536Y038980D01*
X020501Y039026D01*
X020469Y039073D01*
X020441Y039123D01*
X020416Y039175D01*
X020395Y039228D01*
X020377Y039283D01*
X020364Y039338D01*
X020354Y039395D01*
X020348Y039452D01*
X020346Y039509D01*
X003023Y039509D02*
X003025Y039566D01*
X003031Y039623D01*
X003041Y039680D01*
X003054Y039735D01*
X003072Y039790D01*
X003093Y039843D01*
X003118Y039895D01*
X003146Y039945D01*
X003178Y039992D01*
X003213Y040038D01*
X003251Y040081D01*
X003292Y040121D01*
X003336Y040158D01*
X003382Y040192D01*
X003430Y040223D01*
X003480Y040250D01*
X003532Y040274D01*
X003586Y040295D01*
X003640Y040311D01*
X003696Y040324D01*
X003753Y040333D01*
X003810Y040338D01*
X003867Y040339D01*
X003925Y040336D01*
X003981Y040329D01*
X004038Y040318D01*
X004093Y040304D01*
X004147Y040285D01*
X004200Y040263D01*
X004251Y040237D01*
X004301Y040208D01*
X004348Y040175D01*
X004393Y040140D01*
X004435Y040101D01*
X004474Y040059D01*
X004511Y040015D01*
X004544Y039969D01*
X004574Y039920D01*
X004601Y039869D01*
X004624Y039817D01*
X004643Y039763D01*
X004659Y039708D01*
X004671Y039652D01*
X004679Y039595D01*
X004683Y039538D01*
X004683Y039480D01*
X004679Y039423D01*
X004671Y039366D01*
X004659Y039310D01*
X004643Y039255D01*
X004624Y039201D01*
X004601Y039149D01*
X004574Y039098D01*
X004544Y039049D01*
X004511Y039003D01*
X004474Y038959D01*
X004435Y038917D01*
X004393Y038878D01*
X004348Y038843D01*
X004301Y038810D01*
X004251Y038781D01*
X004200Y038755D01*
X004147Y038733D01*
X004093Y038714D01*
X004038Y038700D01*
X003981Y038689D01*
X003925Y038682D01*
X003867Y038679D01*
X003810Y038680D01*
X003753Y038685D01*
X003696Y038694D01*
X003640Y038707D01*
X003586Y038723D01*
X003532Y038744D01*
X003480Y038768D01*
X003430Y038795D01*
X003382Y038826D01*
X003336Y038860D01*
X003292Y038897D01*
X003251Y038937D01*
X003213Y038980D01*
X003178Y039026D01*
X003146Y039073D01*
X003118Y039123D01*
X003093Y039175D01*
X003072Y039228D01*
X003054Y039283D01*
X003041Y039338D01*
X003031Y039395D01*
X003025Y039452D01*
X003023Y039509D01*
D51*
X015723Y010927D03*
X015723Y010671D03*
X015723Y010415D03*
X016589Y010415D03*
X016589Y010927D03*
D52*
X003872Y031912D02*
X003872Y032540D01*
X004622Y032540D01*
X004622Y031912D01*
X003872Y031912D01*
X003872Y031981D02*
X004622Y031981D01*
X004622Y032050D02*
X003872Y032050D01*
X003872Y032119D02*
X004622Y032119D01*
X004622Y032188D02*
X003872Y032188D01*
X003872Y032257D02*
X004622Y032257D01*
X004622Y032326D02*
X003872Y032326D01*
X003872Y032395D02*
X004622Y032395D01*
X004622Y032464D02*
X003872Y032464D01*
X003872Y032533D02*
X004622Y032533D01*
D53*
X004050Y010907D03*
X004050Y009907D03*
X004050Y008907D03*
X004050Y007907D03*
X004050Y006907D03*
X004050Y005907D03*
D54*
X002967Y023917D03*
X002967Y024350D03*
X002967Y024783D03*
X002967Y025216D03*
X002967Y025649D03*
X002967Y026082D03*
X002967Y026515D03*
D55*
X002967Y026929D03*
D56*
X003105Y027405D03*
D57*
X003017Y022948D03*
D58*
X005389Y022880D03*
X006845Y022880D03*
D59*
X007229Y024257D03*
X007229Y026608D03*
D60*
X006707Y027698D03*
X006707Y028092D03*
X007298Y028289D03*
X006707Y028880D03*
X006314Y028880D03*
X005920Y028880D03*
X005920Y029273D03*
X005526Y028880D03*
X005526Y028092D03*
X005920Y028092D03*
X005920Y027698D03*
X004444Y027206D03*
X004837Y025927D03*
X004247Y025139D03*
X005920Y024254D03*
X007790Y023663D03*
X007790Y022876D03*
X008774Y022383D03*
X008578Y021498D03*
X008578Y020710D03*
X009562Y021006D03*
X010349Y021006D03*
X010349Y021793D03*
X010448Y023072D03*
X011137Y023171D03*
X010448Y023860D03*
X009562Y023958D03*
X009463Y023171D03*
X008184Y025139D03*
X008479Y026124D03*
X008479Y026911D03*
X009267Y026911D03*
X009267Y026124D03*
X008085Y028289D03*
X007751Y028978D03*
X007751Y029372D03*
X007357Y029372D03*
X007357Y028978D03*
X006707Y029273D03*
X008774Y031143D03*
X009956Y031242D03*
X009956Y030750D03*
X009956Y030257D03*
X009956Y029765D03*
X009956Y029273D03*
X013204Y031439D03*
X013991Y031439D03*
X013991Y032226D03*
X013204Y032226D03*
X013676Y030474D03*
X014463Y030454D03*
X014463Y029667D03*
X013676Y029667D03*
X013893Y028092D03*
X013893Y027305D03*
X013991Y026714D03*
X013204Y026714D03*
X014072Y025713D03*
X014778Y025730D03*
X014663Y025122D03*
X014106Y024566D03*
X013516Y025156D03*
X015270Y024943D03*
X016058Y024943D03*
X016550Y024844D03*
X015763Y024155D03*
X016255Y023368D03*
X017042Y023368D03*
X018125Y022876D03*
X018420Y022482D03*
X018715Y022777D03*
X018814Y023269D03*
X019207Y022876D03*
X019207Y023663D03*
X019995Y023761D03*
X019995Y024549D03*
X018814Y024844D03*
X018814Y025435D03*
X018814Y026025D03*
X018223Y026025D03*
X017633Y026025D03*
X017633Y025435D03*
X018223Y025435D03*
X018223Y024844D03*
X017633Y024844D03*
X016550Y026517D03*
X015763Y026517D03*
X016550Y027895D03*
X016156Y028486D03*
X016944Y028486D03*
X017337Y027895D03*
X017928Y027994D03*
X017928Y027206D03*
X019011Y027403D03*
X019011Y028191D03*
X019798Y028584D03*
X019601Y029667D03*
X019995Y029765D03*
X020585Y029962D03*
X021373Y029962D03*
X021963Y028486D03*
X021274Y027797D03*
X020881Y026911D03*
X020881Y026124D03*
X020093Y026124D03*
X020093Y026911D03*
X021865Y025828D03*
X021570Y023761D03*
X020389Y022482D03*
X019601Y021596D03*
X019601Y021104D03*
X019207Y020415D03*
X018617Y020317D03*
X018125Y019824D03*
X018026Y019234D03*
X018223Y018840D03*
X019011Y019234D03*
X019798Y019234D03*
X020389Y019726D03*
X020684Y019234D03*
X021373Y019234D03*
X021373Y018446D03*
X020684Y018446D03*
X020684Y017856D03*
X020093Y018446D03*
X019700Y017856D03*
X019306Y018446D03*
X019011Y017659D03*
X019700Y017069D03*
X020192Y016970D03*
X020684Y017069D03*
X021373Y016773D03*
X020093Y016478D03*
X019207Y016576D03*
X018715Y015887D03*
X017731Y016675D03*
X017436Y016970D03*
X017239Y017364D03*
X016845Y017856D03*
X016255Y018250D03*
X016255Y019037D03*
X016944Y019332D03*
X016747Y019824D03*
X015763Y019824D03*
X015467Y019037D03*
X014975Y019037D03*
X014975Y019824D03*
X014483Y020415D03*
X014188Y019824D03*
X014188Y019037D03*
X014975Y018250D03*
X015172Y016773D03*
X015664Y016773D03*
X016452Y016773D03*
X014385Y016773D03*
X013893Y016872D03*
X012613Y016675D03*
X012416Y017561D03*
X012613Y018053D03*
X012613Y018643D03*
X012613Y019332D03*
X011629Y019529D03*
X010841Y019037D03*
X010152Y018643D03*
X009562Y019135D03*
X008774Y019529D03*
X008873Y017265D03*
X011333Y016084D03*
X011924Y015887D03*
X010251Y014116D03*
X010152Y013624D03*
X010152Y013230D03*
X010152Y012836D03*
X010251Y012443D03*
X010644Y012344D03*
X011333Y012344D03*
X011629Y012836D03*
X012219Y012738D03*
X012711Y013919D03*
X013696Y011360D03*
X013696Y010572D03*
X015172Y010671D03*
X015664Y010080D03*
X015664Y009588D03*
X015664Y008801D03*
X017239Y008604D03*
X017239Y007817D03*
X019404Y008210D03*
X020684Y009096D03*
X020487Y010671D03*
X020487Y011458D03*
X020093Y011950D03*
X019306Y011950D03*
X018519Y012639D03*
X019503Y013230D03*
X020585Y014313D03*
X020979Y014706D03*
X021373Y014706D03*
X021767Y014706D03*
X021767Y014313D03*
X021767Y015100D03*
X021767Y015494D03*
X020782Y013230D03*
X020881Y012738D03*
X020881Y011950D03*
X021274Y011458D03*
X019700Y010671D03*
X018912Y010671D03*
X017731Y011557D03*
X016353Y013131D03*
X015861Y013525D03*
X016353Y013919D03*
X017141Y013919D03*
X018125Y014116D03*
X015369Y012443D03*
X015664Y011261D03*
X013499Y007817D03*
X013007Y007817D03*
X012908Y007029D03*
X012908Y006242D03*
X013696Y007029D03*
X014778Y005651D03*
X013400Y004864D03*
X013400Y004076D03*
X013400Y002502D03*
X014975Y002502D03*
X018125Y002108D03*
X018519Y002009D03*
X019503Y006537D03*
X021767Y006537D03*
X021767Y007324D03*
X028066Y007423D03*
X028066Y005257D03*
X030133Y003486D03*
X031117Y003781D03*
X031806Y002502D03*
X030723Y005946D03*
X030920Y006340D03*
X033085Y006340D03*
X033243Y005907D03*
X036038Y002994D03*
X039286Y002502D03*
X039286Y003781D03*
X041452Y005061D03*
X045192Y004372D03*
X045290Y005848D03*
X044798Y007817D03*
X022062Y013131D03*
X020684Y020415D03*
X018814Y021596D03*
X018026Y021301D03*
X017830Y022187D03*
X017436Y022187D03*
X015763Y021793D03*
X015763Y021301D03*
X015861Y020809D03*
X014483Y021202D03*
X013499Y021301D03*
X012711Y021301D03*
X012908Y020513D03*
X013696Y020513D03*
X013302Y022679D03*
X012515Y022679D03*
X015664Y028092D03*
X015369Y029175D03*
X016156Y029273D03*
X016944Y029273D03*
X016845Y029864D03*
X016058Y029864D03*
X017239Y030848D03*
X017239Y031340D03*
X017239Y031832D03*
X016648Y032423D03*
X017239Y032915D03*
X017239Y033309D03*
X017239Y033801D03*
X017239Y034293D03*
X016648Y034785D03*
X017239Y035572D03*
X017239Y036065D03*
X017337Y036557D03*
X017633Y036950D03*
X018026Y037246D03*
X017633Y038033D03*
X018420Y038033D03*
X018912Y037541D03*
X019404Y037541D03*
X019896Y037541D03*
X020389Y037541D03*
X020979Y037935D03*
X021471Y037935D03*
X021963Y037935D03*
X020389Y036360D03*
X019896Y036360D03*
X019404Y036360D03*
X018912Y036261D03*
X018519Y035966D03*
X018420Y035474D03*
X019011Y034785D03*
X018420Y034293D03*
X018420Y033801D03*
X018420Y033407D03*
X018519Y032915D03*
X019306Y032915D03*
X019306Y032128D03*
X018519Y032147D03*
X019700Y031242D03*
X019011Y030848D03*
X018519Y030257D03*
X018519Y029864D03*
X018125Y029864D03*
X018125Y030257D03*
X020979Y035966D03*
X021471Y035966D03*
X021963Y035966D03*
X018420Y040198D03*
X017633Y040198D03*
X016845Y040198D03*
X016845Y038033D03*
X016058Y038033D03*
X015270Y038033D03*
X014483Y039411D03*
X013696Y039411D03*
X012416Y040198D03*
X009759Y040198D03*
X008873Y040002D03*
X008479Y040297D03*
X007692Y040100D03*
X006707Y040100D03*
X005920Y040002D03*
X005526Y040297D03*
X006314Y039214D03*
X006314Y038820D03*
X006314Y038427D03*
X006019Y037836D03*
X005428Y037836D03*
X006314Y036950D03*
X004936Y035966D03*
X005428Y035277D03*
X006019Y035277D03*
X005625Y034391D03*
X005330Y033801D03*
X004837Y034391D03*
X005330Y033013D03*
X004542Y032423D03*
X004247Y032226D03*
X004542Y032029D03*
X003952Y032029D03*
X003952Y032423D03*
X003263Y031832D03*
X003459Y036163D03*
X003066Y036163D03*
X003853Y036163D03*
X003558Y036950D03*
X008085Y036950D03*
X007987Y035966D03*
X005526Y022187D03*
X005034Y022187D03*
X004247Y022187D03*
X004247Y021399D03*
X005034Y021399D03*
X004444Y020317D03*
X006019Y020710D03*
X006117Y021301D03*
X004148Y018446D03*
X004148Y017659D03*
X004148Y017167D03*
X004148Y016380D03*
X004148Y015297D03*
X004148Y014509D03*
X004148Y014017D03*
X004148Y013230D03*
X004148Y012639D03*
X004345Y011655D03*
X005330Y010966D03*
X003755Y009883D03*
X004050Y007915D03*
X004050Y006931D03*
X003952Y005848D03*
X005428Y002403D03*
X009267Y006537D03*
X011432Y005651D03*
X011924Y007029D03*
X011530Y007817D03*
X011235Y008604D03*
X011333Y010179D03*
X010546Y010179D03*
X010546Y010966D03*
X011333Y010966D03*
X009562Y009883D03*
X008085Y009883D03*
X007396Y010671D03*
X007101Y011065D03*
X007396Y012344D03*
X008282Y013033D03*
X009660Y013919D03*
X006511Y015592D03*
X006215Y015002D03*
X005920Y014214D03*
X005526Y013820D03*
X005822Y013328D03*
X005526Y016576D03*
X005625Y017364D03*
X011432Y002502D03*
X045585Y034588D03*
X045290Y037541D03*
X042042Y038230D03*
X041255Y038131D03*
X040467Y038131D03*
X039680Y038131D03*
X038893Y038230D03*
X038302Y037147D03*
X037416Y036557D03*
X037810Y036065D03*
X036826Y037147D03*
X036137Y035769D03*
X035841Y038722D03*
X033676Y040238D03*
X032003Y040198D03*
X030625Y038427D03*
X030133Y038722D03*
X031806Y037049D03*
X032396Y037344D03*
X032692Y037049D03*
X032790Y037639D03*
X032396Y037836D03*
X031511Y036261D03*
X038893Y040100D03*
M02*
