G75*
G70*
%OFA0B0*%
%FSLAX24Y24*%
%IPPOS*%
%LPD*%
%AMOC8*
5,1,8,0,0,1.08239X$1,22.5*
%
%ADD10R,0.0709X0.0748*%
%ADD11R,0.0906X0.0748*%
%ADD12R,0.0157X0.0551*%
%ADD13R,0.0394X0.0394*%
%ADD14R,0.0394X0.0138*%
%ADD15R,0.0138X0.0394*%
%ADD16R,0.0850X0.0850*%
%ADD17R,0.0630X0.0512*%
%ADD18R,0.0295X0.0984*%
%ADD19R,0.0335X0.0110*%
%ADD20R,0.1358X0.1358*%
%ADD21R,0.0110X0.0335*%
%ADD22R,0.0630X0.1063*%
%ADD23R,0.1772X0.1772*%
%ADD24R,0.0098X0.0276*%
%ADD25C,0.0134*%
%ADD26R,0.0551X0.0472*%
%ADD27R,0.0315X0.0354*%
%ADD28R,0.0315X0.1142*%
%ADD29R,0.0472X0.0551*%
%ADD30R,0.0433X0.0335*%
%ADD31R,0.0433X0.0295*%
%ADD32R,0.0709X0.0461*%
%ADD33R,0.0531X0.0610*%
%ADD34R,0.0394X0.0472*%
%ADD35R,0.0531X0.0748*%
%ADD36R,0.0748X0.2638*%
%ADD37R,0.0748X0.0433*%
%ADD38R,0.0748X0.0748*%
%ADD39R,0.1339X0.0591*%
%ADD40R,0.1378X0.0394*%
%ADD41R,0.0689X0.0827*%
%ADD42R,0.0689X0.1142*%
%ADD43R,0.0689X0.0709*%
%ADD44R,0.0886X0.0945*%
%ADD45R,0.0886X0.1142*%
%ADD46R,0.1673X0.0591*%
%ADD47R,0.0350X0.0827*%
%ADD48R,0.0870X0.0240*%
%ADD49R,0.0118X0.0630*%
%ADD50R,0.0630X0.0118*%
%ADD51R,0.0827X0.0350*%
D10*
X011166Y047960D03*
X012072Y047960D03*
X022190Y047960D03*
X023095Y047960D03*
D11*
X024119Y047960D03*
X021166Y047960D03*
X013095Y047960D03*
X010143Y047960D03*
D12*
X011107Y046838D03*
X011363Y046838D03*
X011619Y046838D03*
X011875Y046838D03*
X012131Y046838D03*
X022131Y046838D03*
X022387Y046838D03*
X022643Y046838D03*
X022898Y046838D03*
X023154Y046838D03*
D13*
X021658Y045893D03*
X020871Y045893D03*
X020871Y045105D03*
X021658Y045105D03*
X022150Y042448D03*
X022150Y041660D03*
X022150Y041070D03*
X021363Y041070D03*
X021363Y040282D03*
X022150Y040282D03*
X022150Y039692D03*
X022150Y038905D03*
X022150Y038511D03*
X022150Y037723D03*
X022150Y037133D03*
X022150Y036542D03*
X022741Y036385D03*
X022741Y037133D03*
X023528Y037133D03*
X023528Y036385D03*
X022150Y035755D03*
X021363Y037133D03*
X020182Y036149D03*
X020182Y035361D03*
X019591Y034279D03*
X020182Y034082D03*
X020379Y033491D03*
X021127Y033491D03*
X020969Y034082D03*
X021127Y032704D03*
X021363Y032113D03*
X021363Y031326D03*
X020772Y031424D03*
X020772Y030637D03*
X020772Y029849D03*
X020280Y029062D03*
X019493Y029062D03*
X019493Y028275D03*
X020280Y028275D03*
X020871Y028275D03*
X020871Y027487D03*
X020772Y026798D03*
X020182Y026405D03*
X020772Y026011D03*
X021560Y026405D03*
X021560Y025617D03*
X021265Y024141D03*
X022052Y024141D03*
X022052Y023353D03*
X021265Y023353D03*
X022938Y023058D03*
X022938Y023845D03*
X023922Y025912D03*
X024709Y026503D03*
X024709Y027290D03*
X024316Y027782D03*
X025103Y027782D03*
X025497Y027290D03*
X025891Y027782D03*
X026284Y027290D03*
X026284Y026503D03*
X025497Y026503D03*
X023922Y026700D03*
X023528Y027192D03*
X023528Y027979D03*
X024316Y028570D03*
X025103Y028570D03*
X025891Y028570D03*
X025202Y030342D03*
X024414Y030342D03*
X024611Y031129D03*
X025398Y031129D03*
X025891Y030735D03*
X026678Y030735D03*
X026186Y031916D03*
X026186Y032704D03*
X025989Y033294D03*
X025202Y033294D03*
X024217Y033491D03*
X024217Y034279D03*
X023135Y032408D03*
X023135Y031621D03*
X022150Y031326D03*
X022150Y032113D03*
X020379Y032704D03*
X019591Y033491D03*
X018509Y033196D03*
X018509Y032408D03*
X017721Y032408D03*
X017721Y033196D03*
X017820Y034672D03*
X018607Y034672D03*
X018607Y035460D03*
X017820Y035460D03*
X019394Y035361D03*
X019394Y036149D03*
X019985Y031424D03*
X019985Y030637D03*
X019394Y030637D03*
X019394Y029849D03*
X019985Y029849D03*
X018509Y029849D03*
X018509Y029062D03*
X017721Y029062D03*
X017721Y029849D03*
X016442Y027881D03*
X015654Y027881D03*
X014867Y027586D03*
X015261Y027094D03*
X016048Y027094D03*
X017328Y026700D03*
X018115Y026700D03*
X018115Y025912D03*
X018509Y025420D03*
X019296Y025420D03*
X019394Y026405D03*
X019394Y027192D03*
X020182Y027192D03*
X017328Y025912D03*
X018509Y023058D03*
X019296Y023058D03*
X019887Y020597D03*
X019887Y019810D03*
X019099Y019712D03*
X019099Y018924D03*
X019887Y017940D03*
X019887Y017153D03*
X020674Y017349D03*
X020674Y016562D03*
X020674Y016070D03*
X021461Y016070D03*
X021461Y016562D03*
X021461Y017349D03*
X023036Y017743D03*
X023824Y017743D03*
X024513Y017743D03*
X025300Y017743D03*
X025891Y017546D03*
X026087Y016956D03*
X026087Y016168D03*
X026087Y015381D03*
X025300Y015381D03*
X025300Y016168D03*
X025300Y016956D03*
X025891Y018334D03*
X024808Y018531D03*
X025202Y019219D03*
X025202Y020007D03*
X024414Y020105D03*
X024414Y019318D03*
X024020Y018531D03*
X023135Y019219D03*
X023135Y020007D03*
X021954Y019908D03*
X021954Y020696D03*
X021166Y020696D03*
X021166Y019908D03*
X025202Y020893D03*
X025989Y020893D03*
X025989Y020007D03*
X025989Y019219D03*
X025891Y021877D03*
X025891Y022664D03*
X025595Y023156D03*
X025595Y023944D03*
X021461Y015282D03*
X020674Y015282D03*
X020576Y014397D03*
X021363Y014397D03*
X022249Y014397D03*
X023036Y014397D03*
X018115Y014200D03*
X018115Y014987D03*
X016146Y014987D03*
X016146Y014200D03*
X013686Y014397D03*
X012898Y014397D03*
X011717Y014397D03*
X010930Y014397D03*
X007977Y024928D03*
X007977Y025716D03*
X007780Y028373D03*
X007780Y029160D03*
X008961Y029849D03*
X009749Y029849D03*
X012603Y028176D03*
X012406Y027586D03*
X013194Y027586D03*
X013391Y028176D03*
X014080Y028176D03*
X014080Y027586D03*
X014080Y026798D03*
X013194Y026798D03*
X012406Y026798D03*
X014080Y028964D03*
X014867Y028373D03*
X009355Y035755D03*
X008568Y035755D03*
X008568Y036542D03*
X009355Y036542D03*
X009946Y036936D03*
X009355Y037330D03*
X009946Y037723D03*
X008568Y037330D03*
X007682Y038609D03*
X007682Y039397D03*
X008272Y040282D03*
X009060Y040282D03*
X010635Y040282D03*
X010635Y041070D03*
X011225Y038216D03*
X011225Y037428D03*
X016934Y043531D03*
X016934Y044318D03*
X015359Y046779D03*
X014572Y046779D03*
D14*
X021776Y034662D03*
X021776Y034406D03*
X021776Y034151D03*
X021776Y033895D03*
X023272Y033895D03*
X023272Y034151D03*
X023272Y034406D03*
X023272Y034662D03*
D15*
X022908Y035027D03*
X022652Y035027D03*
X022396Y035027D03*
X022141Y035027D03*
X022141Y033531D03*
X022396Y033531D03*
X022652Y033531D03*
X022908Y033531D03*
D16*
X022524Y034279D03*
D17*
X023863Y032664D03*
X023863Y031759D03*
X025359Y031759D03*
X025359Y032664D03*
D18*
X019607Y042743D03*
X019107Y042743D03*
X018607Y042743D03*
X018107Y042743D03*
X017607Y042743D03*
X017607Y044318D03*
X018107Y044318D03*
X018607Y044318D03*
X019107Y044318D03*
X019607Y044318D03*
D19*
X021265Y030538D03*
X021265Y030342D03*
X021265Y030145D03*
X021265Y029948D03*
X021265Y029751D03*
X021265Y029554D03*
X021265Y029357D03*
X021265Y029160D03*
X021265Y028964D03*
X021265Y028767D03*
X023627Y028767D03*
X023627Y028964D03*
X023627Y029160D03*
X023627Y029357D03*
X023627Y029554D03*
X023627Y029751D03*
X023627Y029948D03*
X023627Y030145D03*
X023627Y030342D03*
X023627Y030538D03*
X024503Y022271D03*
X024503Y022074D03*
X024503Y021877D03*
X024503Y021680D03*
X024503Y021483D03*
X024503Y021286D03*
X024503Y021090D03*
X024503Y020893D03*
X022554Y020893D03*
X022554Y021090D03*
X022554Y021286D03*
X022554Y021483D03*
X022554Y021680D03*
X022554Y021877D03*
X022554Y022074D03*
X022554Y022271D03*
D20*
X023528Y021582D03*
D21*
X023430Y020607D03*
X023627Y020607D03*
X023824Y020607D03*
X024020Y020607D03*
X024217Y020607D03*
X023233Y020607D03*
X023036Y020607D03*
X022839Y020607D03*
X022839Y022556D03*
X023036Y022556D03*
X023233Y022556D03*
X023430Y022556D03*
X023627Y022556D03*
X023824Y022556D03*
X024020Y022556D03*
X024217Y022556D03*
X023331Y028471D03*
X023135Y028471D03*
X022938Y028471D03*
X022741Y028471D03*
X022544Y028471D03*
X022347Y028471D03*
X022150Y028471D03*
X021954Y028471D03*
X021757Y028471D03*
X021560Y028471D03*
X021560Y030834D03*
X021757Y030834D03*
X021954Y030834D03*
X022150Y030834D03*
X022347Y030834D03*
X022544Y030834D03*
X022741Y030834D03*
X022938Y030834D03*
X023135Y030834D03*
X023331Y030834D03*
D22*
X012564Y040676D03*
X011461Y040676D03*
X025339Y013806D03*
X026442Y013806D03*
X026146Y012625D03*
X025044Y012625D03*
D23*
X022446Y029653D03*
D24*
X009847Y038235D03*
X009650Y038235D03*
X009454Y038235D03*
X009257Y038235D03*
X009060Y038235D03*
X008863Y038235D03*
X008666Y038235D03*
X008666Y039377D03*
X008863Y039377D03*
X009060Y039377D03*
X009257Y039377D03*
X009454Y039377D03*
X009650Y039377D03*
X009847Y039377D03*
D25*
X009839Y038539D02*
X008675Y038539D01*
X008675Y039073D01*
X009839Y039073D01*
X009839Y038539D01*
X009839Y038672D02*
X008675Y038672D01*
X008675Y038805D02*
X009839Y038805D01*
X009839Y038938D02*
X008675Y038938D01*
X008675Y039071D02*
X009839Y039071D01*
D26*
X007780Y037920D03*
X007780Y036739D03*
X007780Y027586D03*
X007780Y026405D03*
X026481Y025519D03*
X026481Y024338D03*
D27*
X010733Y038964D03*
X010359Y039790D03*
X011107Y039790D03*
D28*
X010044Y041267D03*
X008863Y041267D03*
D29*
X014572Y048058D03*
X015753Y048058D03*
X018568Y024672D03*
X019237Y024672D03*
X019237Y023806D03*
X018568Y023806D03*
D30*
X007583Y031678D03*
X007583Y032111D03*
X007583Y032544D03*
X007583Y032977D03*
X007583Y033410D03*
X007583Y033844D03*
X007583Y034277D03*
D31*
X007583Y034690D03*
D32*
X007721Y035166D03*
D33*
X007633Y030710D03*
D34*
X010005Y030641D03*
X011461Y030641D03*
D35*
X011845Y032019D03*
X011845Y034369D03*
D36*
X014709Y038511D03*
D37*
X012269Y038511D03*
D38*
X012269Y039574D03*
X012269Y037448D03*
D39*
X010654Y042251D03*
X010654Y044810D03*
D40*
X008469Y043924D03*
X008469Y043137D03*
D41*
X010044Y012782D03*
X019493Y012782D03*
D42*
X010044Y010282D03*
X019493Y010282D03*
D43*
X019493Y011582D03*
X010044Y011582D03*
D44*
X014670Y011109D03*
X024119Y011109D03*
D45*
X024119Y012842D03*
X014670Y012842D03*
D46*
X025989Y042531D03*
X025989Y043531D03*
X025989Y044531D03*
D47*
X020083Y045932D03*
X019296Y045932D03*
X018509Y045932D03*
X017721Y045932D03*
X016934Y045932D03*
X016934Y047999D03*
X017721Y047999D03*
X018509Y047999D03*
X019296Y047999D03*
X020083Y047999D03*
D48*
X022400Y017115D03*
X022400Y016615D03*
X022400Y016115D03*
X022400Y015615D03*
X024460Y015615D03*
X024460Y016115D03*
X024460Y016615D03*
X024460Y017115D03*
D49*
X016639Y017586D03*
X016442Y017586D03*
X016245Y017586D03*
X016048Y017586D03*
X015851Y017586D03*
X015654Y017586D03*
X015457Y017586D03*
X015261Y017586D03*
X015064Y017586D03*
X014867Y017586D03*
X014670Y017586D03*
X014473Y017586D03*
X014276Y017586D03*
X014080Y017586D03*
X013883Y017586D03*
X013686Y017586D03*
X013489Y017586D03*
X013292Y017586D03*
X013095Y017586D03*
X012898Y017586D03*
X012702Y017586D03*
X012505Y017586D03*
X012308Y017586D03*
X012111Y017586D03*
X011914Y017586D03*
X011717Y017586D03*
X011520Y017586D03*
X011324Y017586D03*
X011127Y017586D03*
X010930Y017586D03*
X010733Y017586D03*
X010536Y017586D03*
X010339Y017586D03*
X010143Y017586D03*
X009946Y017586D03*
X009749Y017586D03*
X009749Y025971D03*
X009946Y025971D03*
X010143Y025971D03*
X010339Y025971D03*
X010536Y025971D03*
X010733Y025971D03*
X010930Y025971D03*
X011127Y025971D03*
X011324Y025971D03*
X011520Y025971D03*
X011717Y025971D03*
X011914Y025971D03*
X012111Y025971D03*
X012308Y025971D03*
X012505Y025971D03*
X012702Y025971D03*
X012898Y025971D03*
X013095Y025971D03*
X013292Y025971D03*
X013489Y025971D03*
X013686Y025971D03*
X013883Y025971D03*
X014080Y025971D03*
X014276Y025971D03*
X014473Y025971D03*
X014670Y025971D03*
X014867Y025971D03*
X015064Y025971D03*
X015261Y025971D03*
X015457Y025971D03*
X015654Y025971D03*
X015851Y025971D03*
X016048Y025971D03*
X016245Y025971D03*
X016442Y025971D03*
X016639Y025971D03*
D50*
X017387Y025223D03*
X017387Y025027D03*
X017387Y024830D03*
X017387Y024633D03*
X017387Y024436D03*
X017387Y024239D03*
X017387Y024042D03*
X017387Y023845D03*
X017387Y023649D03*
X017387Y023452D03*
X017387Y023255D03*
X017387Y023058D03*
X017387Y022861D03*
X017387Y022664D03*
X017387Y022468D03*
X017387Y022271D03*
X017387Y022074D03*
X017387Y021877D03*
X017387Y021680D03*
X017387Y021483D03*
X017387Y021286D03*
X017387Y021090D03*
X017387Y020893D03*
X017387Y020696D03*
X017387Y020499D03*
X017387Y020302D03*
X017387Y020105D03*
X017387Y019908D03*
X017387Y019712D03*
X017387Y019515D03*
X017387Y019318D03*
X017387Y019121D03*
X017387Y018924D03*
X017387Y018727D03*
X017387Y018531D03*
X017387Y018334D03*
X009001Y018334D03*
X009001Y018531D03*
X009001Y018727D03*
X009001Y018924D03*
X009001Y019121D03*
X009001Y019318D03*
X009001Y019515D03*
X009001Y019712D03*
X009001Y019908D03*
X009001Y020105D03*
X009001Y020302D03*
X009001Y020499D03*
X009001Y020696D03*
X009001Y020893D03*
X009001Y021090D03*
X009001Y021286D03*
X009001Y021483D03*
X009001Y021680D03*
X009001Y021877D03*
X009001Y022074D03*
X009001Y022271D03*
X009001Y022468D03*
X009001Y022664D03*
X009001Y022861D03*
X009001Y023058D03*
X009001Y023255D03*
X009001Y023452D03*
X009001Y023649D03*
X009001Y023845D03*
X009001Y024042D03*
X009001Y024239D03*
X009001Y024436D03*
X009001Y024633D03*
X009001Y024830D03*
X009001Y025027D03*
X009001Y025223D03*
D51*
X016107Y013511D03*
X016107Y012723D03*
X016107Y011936D03*
X016107Y011149D03*
X016107Y010361D03*
X018174Y010361D03*
X018174Y011149D03*
X018174Y011936D03*
X018174Y012723D03*
X018174Y013511D03*
M02*
