G75*
G70*
%OFA0B0*%
%FSLAX24Y24*%
%IPPOS*%
%LPD*%
%AMOC8*
5,1,8,0,0,1.08239X$1,22.5*
%
%ADD10C,0.1240*%
%ADD11C,0.0500*%
%ADD12C,0.0710*%
%ADD13R,0.1753X0.0671*%
%ADD14R,0.0474X0.0474*%
%ADD15R,0.0474X0.0257*%
%ADD16R,0.0257X0.0474*%
%ADD17R,0.0671X0.0513*%
%ADD18R,0.0434X0.0395*%
%ADD19R,0.0474X0.0730*%
%ADD20R,0.0730X0.0474*%
%ADD21C,0.0397*%
%ADD22C,0.0390*%
D10*
X008469Y010361D03*
X025792Y010361D03*
X036028Y010361D03*
X053351Y010361D03*
X053351Y047369D03*
X036028Y047369D03*
X025792Y047369D03*
X008469Y047369D03*
D11*
X007639Y047369D02*
X007641Y047426D01*
X007647Y047483D01*
X007657Y047540D01*
X007670Y047595D01*
X007688Y047650D01*
X007709Y047703D01*
X007734Y047755D01*
X007762Y047805D01*
X007794Y047852D01*
X007829Y047898D01*
X007867Y047941D01*
X007908Y047981D01*
X007952Y048018D01*
X007998Y048052D01*
X008046Y048083D01*
X008096Y048110D01*
X008148Y048134D01*
X008202Y048155D01*
X008256Y048171D01*
X008312Y048184D01*
X008369Y048193D01*
X008426Y048198D01*
X008483Y048199D01*
X008541Y048196D01*
X008597Y048189D01*
X008654Y048178D01*
X008709Y048164D01*
X008763Y048145D01*
X008816Y048123D01*
X008867Y048097D01*
X008917Y048068D01*
X008964Y048035D01*
X009009Y048000D01*
X009051Y047961D01*
X009090Y047919D01*
X009127Y047875D01*
X009160Y047829D01*
X009190Y047780D01*
X009217Y047729D01*
X009240Y047677D01*
X009259Y047623D01*
X009275Y047568D01*
X009287Y047512D01*
X009295Y047455D01*
X009299Y047398D01*
X009299Y047340D01*
X009295Y047283D01*
X009287Y047226D01*
X009275Y047170D01*
X009259Y047115D01*
X009240Y047061D01*
X009217Y047009D01*
X009190Y046958D01*
X009160Y046909D01*
X009127Y046863D01*
X009090Y046819D01*
X009051Y046777D01*
X009009Y046738D01*
X008964Y046703D01*
X008917Y046670D01*
X008867Y046641D01*
X008816Y046615D01*
X008763Y046593D01*
X008709Y046574D01*
X008654Y046560D01*
X008597Y046549D01*
X008541Y046542D01*
X008483Y046539D01*
X008426Y046540D01*
X008369Y046545D01*
X008312Y046554D01*
X008256Y046567D01*
X008202Y046583D01*
X008148Y046604D01*
X008096Y046628D01*
X008046Y046655D01*
X007998Y046686D01*
X007952Y046720D01*
X007908Y046757D01*
X007867Y046797D01*
X007829Y046840D01*
X007794Y046886D01*
X007762Y046933D01*
X007734Y046983D01*
X007709Y047035D01*
X007688Y047088D01*
X007670Y047143D01*
X007657Y047198D01*
X007647Y047255D01*
X007641Y047312D01*
X007639Y047369D01*
X024962Y047369D02*
X024964Y047426D01*
X024970Y047483D01*
X024980Y047540D01*
X024993Y047595D01*
X025011Y047650D01*
X025032Y047703D01*
X025057Y047755D01*
X025085Y047805D01*
X025117Y047852D01*
X025152Y047898D01*
X025190Y047941D01*
X025231Y047981D01*
X025275Y048018D01*
X025321Y048052D01*
X025369Y048083D01*
X025419Y048110D01*
X025471Y048134D01*
X025525Y048155D01*
X025579Y048171D01*
X025635Y048184D01*
X025692Y048193D01*
X025749Y048198D01*
X025806Y048199D01*
X025864Y048196D01*
X025920Y048189D01*
X025977Y048178D01*
X026032Y048164D01*
X026086Y048145D01*
X026139Y048123D01*
X026190Y048097D01*
X026240Y048068D01*
X026287Y048035D01*
X026332Y048000D01*
X026374Y047961D01*
X026413Y047919D01*
X026450Y047875D01*
X026483Y047829D01*
X026513Y047780D01*
X026540Y047729D01*
X026563Y047677D01*
X026582Y047623D01*
X026598Y047568D01*
X026610Y047512D01*
X026618Y047455D01*
X026622Y047398D01*
X026622Y047340D01*
X026618Y047283D01*
X026610Y047226D01*
X026598Y047170D01*
X026582Y047115D01*
X026563Y047061D01*
X026540Y047009D01*
X026513Y046958D01*
X026483Y046909D01*
X026450Y046863D01*
X026413Y046819D01*
X026374Y046777D01*
X026332Y046738D01*
X026287Y046703D01*
X026240Y046670D01*
X026190Y046641D01*
X026139Y046615D01*
X026086Y046593D01*
X026032Y046574D01*
X025977Y046560D01*
X025920Y046549D01*
X025864Y046542D01*
X025806Y046539D01*
X025749Y046540D01*
X025692Y046545D01*
X025635Y046554D01*
X025579Y046567D01*
X025525Y046583D01*
X025471Y046604D01*
X025419Y046628D01*
X025369Y046655D01*
X025321Y046686D01*
X025275Y046720D01*
X025231Y046757D01*
X025190Y046797D01*
X025152Y046840D01*
X025117Y046886D01*
X025085Y046933D01*
X025057Y046983D01*
X025032Y047035D01*
X025011Y047088D01*
X024993Y047143D01*
X024980Y047198D01*
X024970Y047255D01*
X024964Y047312D01*
X024962Y047369D01*
X035198Y047369D02*
X035200Y047426D01*
X035206Y047483D01*
X035216Y047540D01*
X035229Y047595D01*
X035247Y047650D01*
X035268Y047703D01*
X035293Y047755D01*
X035321Y047805D01*
X035353Y047852D01*
X035388Y047898D01*
X035426Y047941D01*
X035467Y047981D01*
X035511Y048018D01*
X035557Y048052D01*
X035605Y048083D01*
X035655Y048110D01*
X035707Y048134D01*
X035761Y048155D01*
X035815Y048171D01*
X035871Y048184D01*
X035928Y048193D01*
X035985Y048198D01*
X036042Y048199D01*
X036100Y048196D01*
X036156Y048189D01*
X036213Y048178D01*
X036268Y048164D01*
X036322Y048145D01*
X036375Y048123D01*
X036426Y048097D01*
X036476Y048068D01*
X036523Y048035D01*
X036568Y048000D01*
X036610Y047961D01*
X036649Y047919D01*
X036686Y047875D01*
X036719Y047829D01*
X036749Y047780D01*
X036776Y047729D01*
X036799Y047677D01*
X036818Y047623D01*
X036834Y047568D01*
X036846Y047512D01*
X036854Y047455D01*
X036858Y047398D01*
X036858Y047340D01*
X036854Y047283D01*
X036846Y047226D01*
X036834Y047170D01*
X036818Y047115D01*
X036799Y047061D01*
X036776Y047009D01*
X036749Y046958D01*
X036719Y046909D01*
X036686Y046863D01*
X036649Y046819D01*
X036610Y046777D01*
X036568Y046738D01*
X036523Y046703D01*
X036476Y046670D01*
X036426Y046641D01*
X036375Y046615D01*
X036322Y046593D01*
X036268Y046574D01*
X036213Y046560D01*
X036156Y046549D01*
X036100Y046542D01*
X036042Y046539D01*
X035985Y046540D01*
X035928Y046545D01*
X035871Y046554D01*
X035815Y046567D01*
X035761Y046583D01*
X035707Y046604D01*
X035655Y046628D01*
X035605Y046655D01*
X035557Y046686D01*
X035511Y046720D01*
X035467Y046757D01*
X035426Y046797D01*
X035388Y046840D01*
X035353Y046886D01*
X035321Y046933D01*
X035293Y046983D01*
X035268Y047035D01*
X035247Y047088D01*
X035229Y047143D01*
X035216Y047198D01*
X035206Y047255D01*
X035200Y047312D01*
X035198Y047369D01*
X052521Y047369D02*
X052523Y047426D01*
X052529Y047483D01*
X052539Y047540D01*
X052552Y047595D01*
X052570Y047650D01*
X052591Y047703D01*
X052616Y047755D01*
X052644Y047805D01*
X052676Y047852D01*
X052711Y047898D01*
X052749Y047941D01*
X052790Y047981D01*
X052834Y048018D01*
X052880Y048052D01*
X052928Y048083D01*
X052978Y048110D01*
X053030Y048134D01*
X053084Y048155D01*
X053138Y048171D01*
X053194Y048184D01*
X053251Y048193D01*
X053308Y048198D01*
X053365Y048199D01*
X053423Y048196D01*
X053479Y048189D01*
X053536Y048178D01*
X053591Y048164D01*
X053645Y048145D01*
X053698Y048123D01*
X053749Y048097D01*
X053799Y048068D01*
X053846Y048035D01*
X053891Y048000D01*
X053933Y047961D01*
X053972Y047919D01*
X054009Y047875D01*
X054042Y047829D01*
X054072Y047780D01*
X054099Y047729D01*
X054122Y047677D01*
X054141Y047623D01*
X054157Y047568D01*
X054169Y047512D01*
X054177Y047455D01*
X054181Y047398D01*
X054181Y047340D01*
X054177Y047283D01*
X054169Y047226D01*
X054157Y047170D01*
X054141Y047115D01*
X054122Y047061D01*
X054099Y047009D01*
X054072Y046958D01*
X054042Y046909D01*
X054009Y046863D01*
X053972Y046819D01*
X053933Y046777D01*
X053891Y046738D01*
X053846Y046703D01*
X053799Y046670D01*
X053749Y046641D01*
X053698Y046615D01*
X053645Y046593D01*
X053591Y046574D01*
X053536Y046560D01*
X053479Y046549D01*
X053423Y046542D01*
X053365Y046539D01*
X053308Y046540D01*
X053251Y046545D01*
X053194Y046554D01*
X053138Y046567D01*
X053084Y046583D01*
X053030Y046604D01*
X052978Y046628D01*
X052928Y046655D01*
X052880Y046686D01*
X052834Y046720D01*
X052790Y046757D01*
X052749Y046797D01*
X052711Y046840D01*
X052676Y046886D01*
X052644Y046933D01*
X052616Y046983D01*
X052591Y047035D01*
X052570Y047088D01*
X052552Y047143D01*
X052539Y047198D01*
X052529Y047255D01*
X052523Y047312D01*
X052521Y047369D01*
X052521Y010361D02*
X052523Y010418D01*
X052529Y010475D01*
X052539Y010532D01*
X052552Y010587D01*
X052570Y010642D01*
X052591Y010695D01*
X052616Y010747D01*
X052644Y010797D01*
X052676Y010844D01*
X052711Y010890D01*
X052749Y010933D01*
X052790Y010973D01*
X052834Y011010D01*
X052880Y011044D01*
X052928Y011075D01*
X052978Y011102D01*
X053030Y011126D01*
X053084Y011147D01*
X053138Y011163D01*
X053194Y011176D01*
X053251Y011185D01*
X053308Y011190D01*
X053365Y011191D01*
X053423Y011188D01*
X053479Y011181D01*
X053536Y011170D01*
X053591Y011156D01*
X053645Y011137D01*
X053698Y011115D01*
X053749Y011089D01*
X053799Y011060D01*
X053846Y011027D01*
X053891Y010992D01*
X053933Y010953D01*
X053972Y010911D01*
X054009Y010867D01*
X054042Y010821D01*
X054072Y010772D01*
X054099Y010721D01*
X054122Y010669D01*
X054141Y010615D01*
X054157Y010560D01*
X054169Y010504D01*
X054177Y010447D01*
X054181Y010390D01*
X054181Y010332D01*
X054177Y010275D01*
X054169Y010218D01*
X054157Y010162D01*
X054141Y010107D01*
X054122Y010053D01*
X054099Y010001D01*
X054072Y009950D01*
X054042Y009901D01*
X054009Y009855D01*
X053972Y009811D01*
X053933Y009769D01*
X053891Y009730D01*
X053846Y009695D01*
X053799Y009662D01*
X053749Y009633D01*
X053698Y009607D01*
X053645Y009585D01*
X053591Y009566D01*
X053536Y009552D01*
X053479Y009541D01*
X053423Y009534D01*
X053365Y009531D01*
X053308Y009532D01*
X053251Y009537D01*
X053194Y009546D01*
X053138Y009559D01*
X053084Y009575D01*
X053030Y009596D01*
X052978Y009620D01*
X052928Y009647D01*
X052880Y009678D01*
X052834Y009712D01*
X052790Y009749D01*
X052749Y009789D01*
X052711Y009832D01*
X052676Y009878D01*
X052644Y009925D01*
X052616Y009975D01*
X052591Y010027D01*
X052570Y010080D01*
X052552Y010135D01*
X052539Y010190D01*
X052529Y010247D01*
X052523Y010304D01*
X052521Y010361D01*
X035198Y010361D02*
X035200Y010418D01*
X035206Y010475D01*
X035216Y010532D01*
X035229Y010587D01*
X035247Y010642D01*
X035268Y010695D01*
X035293Y010747D01*
X035321Y010797D01*
X035353Y010844D01*
X035388Y010890D01*
X035426Y010933D01*
X035467Y010973D01*
X035511Y011010D01*
X035557Y011044D01*
X035605Y011075D01*
X035655Y011102D01*
X035707Y011126D01*
X035761Y011147D01*
X035815Y011163D01*
X035871Y011176D01*
X035928Y011185D01*
X035985Y011190D01*
X036042Y011191D01*
X036100Y011188D01*
X036156Y011181D01*
X036213Y011170D01*
X036268Y011156D01*
X036322Y011137D01*
X036375Y011115D01*
X036426Y011089D01*
X036476Y011060D01*
X036523Y011027D01*
X036568Y010992D01*
X036610Y010953D01*
X036649Y010911D01*
X036686Y010867D01*
X036719Y010821D01*
X036749Y010772D01*
X036776Y010721D01*
X036799Y010669D01*
X036818Y010615D01*
X036834Y010560D01*
X036846Y010504D01*
X036854Y010447D01*
X036858Y010390D01*
X036858Y010332D01*
X036854Y010275D01*
X036846Y010218D01*
X036834Y010162D01*
X036818Y010107D01*
X036799Y010053D01*
X036776Y010001D01*
X036749Y009950D01*
X036719Y009901D01*
X036686Y009855D01*
X036649Y009811D01*
X036610Y009769D01*
X036568Y009730D01*
X036523Y009695D01*
X036476Y009662D01*
X036426Y009633D01*
X036375Y009607D01*
X036322Y009585D01*
X036268Y009566D01*
X036213Y009552D01*
X036156Y009541D01*
X036100Y009534D01*
X036042Y009531D01*
X035985Y009532D01*
X035928Y009537D01*
X035871Y009546D01*
X035815Y009559D01*
X035761Y009575D01*
X035707Y009596D01*
X035655Y009620D01*
X035605Y009647D01*
X035557Y009678D01*
X035511Y009712D01*
X035467Y009749D01*
X035426Y009789D01*
X035388Y009832D01*
X035353Y009878D01*
X035321Y009925D01*
X035293Y009975D01*
X035268Y010027D01*
X035247Y010080D01*
X035229Y010135D01*
X035216Y010190D01*
X035206Y010247D01*
X035200Y010304D01*
X035198Y010361D01*
X024962Y010361D02*
X024964Y010418D01*
X024970Y010475D01*
X024980Y010532D01*
X024993Y010587D01*
X025011Y010642D01*
X025032Y010695D01*
X025057Y010747D01*
X025085Y010797D01*
X025117Y010844D01*
X025152Y010890D01*
X025190Y010933D01*
X025231Y010973D01*
X025275Y011010D01*
X025321Y011044D01*
X025369Y011075D01*
X025419Y011102D01*
X025471Y011126D01*
X025525Y011147D01*
X025579Y011163D01*
X025635Y011176D01*
X025692Y011185D01*
X025749Y011190D01*
X025806Y011191D01*
X025864Y011188D01*
X025920Y011181D01*
X025977Y011170D01*
X026032Y011156D01*
X026086Y011137D01*
X026139Y011115D01*
X026190Y011089D01*
X026240Y011060D01*
X026287Y011027D01*
X026332Y010992D01*
X026374Y010953D01*
X026413Y010911D01*
X026450Y010867D01*
X026483Y010821D01*
X026513Y010772D01*
X026540Y010721D01*
X026563Y010669D01*
X026582Y010615D01*
X026598Y010560D01*
X026610Y010504D01*
X026618Y010447D01*
X026622Y010390D01*
X026622Y010332D01*
X026618Y010275D01*
X026610Y010218D01*
X026598Y010162D01*
X026582Y010107D01*
X026563Y010053D01*
X026540Y010001D01*
X026513Y009950D01*
X026483Y009901D01*
X026450Y009855D01*
X026413Y009811D01*
X026374Y009769D01*
X026332Y009730D01*
X026287Y009695D01*
X026240Y009662D01*
X026190Y009633D01*
X026139Y009607D01*
X026086Y009585D01*
X026032Y009566D01*
X025977Y009552D01*
X025920Y009541D01*
X025864Y009534D01*
X025806Y009531D01*
X025749Y009532D01*
X025692Y009537D01*
X025635Y009546D01*
X025579Y009559D01*
X025525Y009575D01*
X025471Y009596D01*
X025419Y009620D01*
X025369Y009647D01*
X025321Y009678D01*
X025275Y009712D01*
X025231Y009749D01*
X025190Y009789D01*
X025152Y009832D01*
X025117Y009878D01*
X025085Y009925D01*
X025057Y009975D01*
X025032Y010027D01*
X025011Y010080D01*
X024993Y010135D01*
X024980Y010190D01*
X024970Y010247D01*
X024964Y010304D01*
X024962Y010361D01*
X007639Y010361D02*
X007641Y010418D01*
X007647Y010475D01*
X007657Y010532D01*
X007670Y010587D01*
X007688Y010642D01*
X007709Y010695D01*
X007734Y010747D01*
X007762Y010797D01*
X007794Y010844D01*
X007829Y010890D01*
X007867Y010933D01*
X007908Y010973D01*
X007952Y011010D01*
X007998Y011044D01*
X008046Y011075D01*
X008096Y011102D01*
X008148Y011126D01*
X008202Y011147D01*
X008256Y011163D01*
X008312Y011176D01*
X008369Y011185D01*
X008426Y011190D01*
X008483Y011191D01*
X008541Y011188D01*
X008597Y011181D01*
X008654Y011170D01*
X008709Y011156D01*
X008763Y011137D01*
X008816Y011115D01*
X008867Y011089D01*
X008917Y011060D01*
X008964Y011027D01*
X009009Y010992D01*
X009051Y010953D01*
X009090Y010911D01*
X009127Y010867D01*
X009160Y010821D01*
X009190Y010772D01*
X009217Y010721D01*
X009240Y010669D01*
X009259Y010615D01*
X009275Y010560D01*
X009287Y010504D01*
X009295Y010447D01*
X009299Y010390D01*
X009299Y010332D01*
X009295Y010275D01*
X009287Y010218D01*
X009275Y010162D01*
X009259Y010107D01*
X009240Y010053D01*
X009217Y010001D01*
X009190Y009950D01*
X009160Y009901D01*
X009127Y009855D01*
X009090Y009811D01*
X009051Y009769D01*
X009009Y009730D01*
X008964Y009695D01*
X008917Y009662D01*
X008867Y009633D01*
X008816Y009607D01*
X008763Y009585D01*
X008709Y009566D01*
X008654Y009552D01*
X008597Y009541D01*
X008541Y009534D01*
X008483Y009531D01*
X008426Y009532D01*
X008369Y009537D01*
X008312Y009546D01*
X008256Y009559D01*
X008202Y009575D01*
X008148Y009596D01*
X008096Y009620D01*
X008046Y009647D01*
X007998Y009678D01*
X007952Y009712D01*
X007908Y009749D01*
X007867Y009789D01*
X007829Y009832D01*
X007794Y009878D01*
X007762Y009925D01*
X007734Y009975D01*
X007709Y010027D01*
X007688Y010080D01*
X007670Y010135D01*
X007657Y010190D01*
X007647Y010247D01*
X007641Y010304D01*
X007639Y010361D01*
D12*
X012406Y010361D03*
X012406Y012723D03*
X021855Y012723D03*
X021855Y010361D03*
D13*
X025989Y042531D03*
X025989Y044531D03*
D14*
X038095Y046975D03*
X038391Y047763D03*
X039178Y047763D03*
X039769Y047763D03*
X040556Y047763D03*
X041146Y047763D03*
X041934Y047763D03*
X042524Y047763D03*
X043312Y047763D03*
X044001Y045204D03*
X044493Y044515D03*
X044788Y045204D03*
X045280Y045204D03*
X045280Y044515D03*
X045280Y043727D03*
X044493Y043727D03*
X044394Y043137D03*
X044887Y042743D03*
X044394Y042349D03*
X043607Y042349D03*
X043115Y042743D03*
X043607Y043137D03*
X042328Y042743D03*
X041737Y043038D03*
X041146Y042743D03*
X041737Y042251D03*
X040359Y042743D03*
X039670Y042546D03*
X039670Y043334D03*
X039473Y046188D03*
X039473Y046975D03*
X038883Y046975D03*
X045674Y042743D03*
X047052Y044318D03*
X047052Y045105D03*
X046068Y045204D03*
X047839Y045105D03*
X047839Y044318D03*
D15*
X043410Y044318D03*
X043410Y044633D03*
X043410Y044948D03*
X043410Y045263D03*
X043410Y045578D03*
X043410Y045893D03*
X043410Y046208D03*
X043410Y044003D03*
X040261Y044003D03*
X040261Y044318D03*
X040261Y044633D03*
X040261Y044948D03*
X040261Y045263D03*
X040261Y045578D03*
X040261Y045893D03*
X040261Y046208D03*
D16*
X040733Y046680D03*
X041048Y046680D03*
X041363Y046680D03*
X041678Y046680D03*
X041993Y046680D03*
X042308Y046680D03*
X042623Y046680D03*
X042938Y046680D03*
X042938Y043531D03*
X042623Y043531D03*
X042308Y043531D03*
X041993Y043531D03*
X041678Y043531D03*
X041363Y043531D03*
X041048Y043531D03*
X040733Y043531D03*
D17*
X037209Y043826D03*
X037209Y044416D03*
X036028Y044416D03*
X036028Y043826D03*
X052170Y043924D03*
X052170Y044515D03*
X053351Y044515D03*
X053351Y043924D03*
X053351Y013412D03*
X053351Y012822D03*
X052170Y012822D03*
X052170Y013412D03*
X037209Y013412D03*
X037209Y012822D03*
X036028Y012822D03*
X036028Y013412D03*
D18*
X041796Y012428D03*
X042623Y012054D03*
X042623Y011523D03*
X042623Y010775D03*
X042623Y010243D03*
X042623Y009495D03*
X041796Y009869D03*
X041796Y011149D03*
X042623Y012802D03*
X046658Y012802D03*
X046658Y012054D03*
X046658Y011523D03*
X046658Y010775D03*
X046658Y010243D03*
X046658Y009495D03*
X047485Y009869D03*
X047485Y011149D03*
X047485Y012428D03*
D19*
X047643Y046040D03*
X046855Y046040D03*
X046068Y046040D03*
X045280Y046040D03*
X044493Y046040D03*
X044493Y047910D03*
X045280Y047910D03*
X046068Y047910D03*
X046855Y047910D03*
X047643Y047910D03*
D20*
X045625Y012822D03*
X045625Y012034D03*
X045625Y011247D03*
X045625Y010460D03*
X045625Y009672D03*
X043755Y009672D03*
X043755Y010460D03*
X043755Y011247D03*
X043755Y012034D03*
X043755Y012822D03*
D21*
X043706Y013314D03*
X045674Y013314D03*
X048036Y012428D03*
X048036Y011149D03*
X048135Y009869D03*
X053745Y012389D03*
X039375Y009869D03*
X038489Y011149D03*
X035635Y012133D03*
X035635Y013845D03*
X026186Y012625D03*
X026087Y016168D03*
X025989Y019219D03*
X025989Y020007D03*
X025989Y020893D03*
X025202Y020893D03*
X025202Y020007D03*
X025202Y019219D03*
X024414Y019318D03*
X023135Y019219D03*
X022544Y020499D03*
X023135Y021188D03*
X023528Y021188D03*
X023528Y021582D03*
X023135Y021582D03*
X023135Y021975D03*
X023528Y021975D03*
X023922Y021975D03*
X023922Y021582D03*
X023922Y021188D03*
X025300Y022271D03*
X025891Y022664D03*
X022938Y023058D03*
X022938Y023845D03*
X022052Y024141D03*
X021265Y024141D03*
X021265Y023353D03*
X022052Y023353D03*
X021560Y021483D03*
X019887Y020597D03*
X019887Y019810D03*
X019099Y019712D03*
X019099Y018924D03*
X019887Y017940D03*
X019887Y017153D03*
X021461Y017349D03*
X021461Y016562D03*
X020576Y014397D03*
X018115Y014200D03*
X016146Y014200D03*
X016146Y014987D03*
X012997Y018727D03*
X010143Y018826D03*
X011717Y014397D03*
X016048Y020499D03*
X018509Y023058D03*
X016737Y023255D03*
X015950Y025223D03*
X016146Y026601D03*
X014080Y027586D03*
X012406Y026798D03*
X011619Y025322D03*
X013883Y025322D03*
X015359Y029653D03*
X016048Y031227D03*
X017721Y032408D03*
X018509Y032408D03*
X018509Y033196D03*
X017721Y033196D03*
X017820Y034672D03*
X018607Y034672D03*
X018607Y035460D03*
X017820Y035460D03*
X019394Y035361D03*
X019394Y036149D03*
X020182Y036149D03*
X020182Y035361D03*
X020182Y034082D03*
X020339Y033491D03*
X019591Y033491D03*
X020379Y032704D03*
X021127Y032704D03*
X021363Y032113D03*
X021363Y031326D03*
X022150Y031326D03*
X022150Y032113D03*
X023135Y032408D03*
X023824Y032704D03*
X023135Y031621D03*
X023036Y030243D03*
X022643Y030243D03*
X022643Y029849D03*
X023036Y029849D03*
X023036Y029456D03*
X022643Y029456D03*
X022643Y029062D03*
X023036Y029062D03*
X022249Y029062D03*
X022249Y029456D03*
X022249Y029849D03*
X021855Y029849D03*
X021855Y029456D03*
X021855Y029062D03*
X020772Y029062D03*
X020241Y029062D03*
X019493Y029062D03*
X019493Y028275D03*
X018509Y029062D03*
X018509Y029849D03*
X017721Y029849D03*
X017721Y029062D03*
X019394Y029849D03*
X019394Y030637D03*
X019985Y030637D03*
X019985Y031424D03*
X020772Y030637D03*
X021855Y030243D03*
X022249Y030243D03*
X020871Y028275D03*
X020871Y027487D03*
X020772Y026011D03*
X021560Y025617D03*
X023528Y027192D03*
X023528Y027979D03*
X024316Y027782D03*
X025103Y027782D03*
X024316Y028570D03*
X024414Y030342D03*
X025202Y030342D03*
X025398Y031129D03*
X025300Y031818D03*
X024611Y031129D03*
X026186Y031916D03*
X026678Y030735D03*
X025989Y033294D03*
X024217Y033491D03*
X023824Y033885D03*
X023331Y033590D03*
X022721Y034082D03*
X022721Y034475D03*
X022328Y034475D03*
X022328Y034082D03*
X021855Y035066D03*
X021461Y035558D03*
X021461Y036247D03*
X021363Y037133D03*
X021461Y037920D03*
X021461Y038708D03*
X021461Y039495D03*
X021363Y040282D03*
X021363Y041070D03*
X021461Y041857D03*
X021461Y042645D03*
X021757Y043531D03*
X022446Y044121D03*
X023725Y044219D03*
X024709Y044219D03*
X025595Y044515D03*
X026087Y044515D03*
X026580Y044515D03*
X026580Y042546D03*
X026087Y042546D03*
X025595Y042546D03*
X024709Y042842D03*
X023725Y042842D03*
X022839Y042645D03*
X022839Y041857D03*
X022839Y041070D03*
X022839Y040282D03*
X022839Y039495D03*
X022839Y038708D03*
X022839Y037920D03*
X023528Y037133D03*
X023528Y036405D03*
X022741Y036385D03*
X023233Y035027D03*
X020969Y034082D03*
X021127Y033491D03*
X024709Y026503D03*
X025497Y026503D03*
X019296Y025420D03*
X008666Y025519D03*
X007977Y024928D03*
X007780Y029160D03*
X008568Y029849D03*
X008174Y032999D03*
X009454Y041267D03*
X010044Y041267D03*
X010635Y041070D03*
X010635Y042251D03*
X008863Y043137D03*
X008469Y043137D03*
X008076Y043137D03*
X010635Y044810D03*
X010831Y046877D03*
X011127Y047960D03*
X010143Y047960D03*
X009257Y048156D03*
X009257Y046582D03*
X007682Y046582D03*
X007682Y048156D03*
X012111Y047960D03*
X013095Y047960D03*
X014572Y048058D03*
X015753Y048058D03*
X014572Y046779D03*
X015950Y046385D03*
X016934Y045893D03*
X017721Y045893D03*
X018509Y045893D03*
X019690Y045105D03*
X021757Y046582D03*
X022150Y047960D03*
X023135Y047960D03*
X024217Y047960D03*
X025005Y048156D03*
X025005Y046582D03*
X026580Y046582D03*
X026580Y048156D03*
X021068Y047960D03*
X017721Y047960D03*
X035536Y037133D03*
X035930Y036641D03*
X036324Y036149D03*
X039670Y043924D03*
X040851Y045007D03*
X042032Y045794D03*
X042918Y045696D03*
X043312Y047763D03*
X044493Y048058D03*
X046068Y046090D03*
X046068Y045204D03*
X045280Y043727D03*
X045674Y042743D03*
X044394Y042349D03*
X044394Y037133D03*
X044690Y036641D03*
X044985Y036149D03*
X038095Y046975D03*
X038391Y047763D03*
D22*
X007682Y009574D03*
X007682Y011149D03*
X009257Y011149D03*
X010143Y010263D03*
X009257Y009574D03*
X010143Y012822D03*
X012898Y014397D03*
X014670Y014101D03*
X017131Y010361D03*
X019591Y010263D03*
X020969Y011838D03*
X021855Y011838D03*
X022249Y014397D03*
X021363Y016070D03*
X024709Y016070D03*
X026087Y015381D03*
X021954Y019908D03*
X021166Y019908D03*
X021068Y021483D03*
X021068Y021975D03*
X022052Y022566D03*
X022347Y024633D03*
X021265Y024731D03*
X020674Y025420D03*
X022347Y026011D03*
X022741Y026306D03*
X023135Y026601D03*
X023036Y027290D03*
X025497Y024731D03*
X025103Y024338D03*
X024709Y023944D03*
X025595Y023156D03*
X024906Y022566D03*
X026481Y025519D03*
X019394Y026405D03*
X018115Y025912D03*
X019296Y024633D03*
X018607Y023747D03*
X016639Y024436D03*
X014867Y026601D03*
X014867Y027586D03*
X015654Y028471D03*
X017032Y027782D03*
X014080Y028964D03*
X013391Y028176D03*
X013194Y027586D03*
X012406Y027586D03*
X012505Y025322D03*
X013292Y025322D03*
X012013Y030538D03*
X011914Y032015D03*
X010536Y033294D03*
X009847Y032507D03*
X009058Y034277D03*
X008371Y035066D03*
X009355Y035755D03*
X009946Y036936D03*
X009355Y037330D03*
X009158Y037822D03*
X008863Y038806D03*
X009650Y038806D03*
X010339Y038216D03*
X011225Y038216D03*
X011225Y037428D03*
X012111Y037625D03*
X012406Y037330D03*
X012406Y038511D03*
X014670Y038412D03*
X014670Y038019D03*
X014670Y037625D03*
X014670Y038806D03*
X014670Y039200D03*
X014670Y039594D03*
X017623Y041660D03*
X018607Y041660D03*
X018115Y042743D03*
X018509Y043531D03*
X019099Y043531D03*
X019591Y042448D03*
X020871Y045105D03*
X021658Y045105D03*
X020083Y047960D03*
X019296Y047960D03*
X018509Y047960D03*
X016934Y047960D03*
X016934Y046680D03*
X015359Y046779D03*
X016934Y043531D03*
X012209Y046188D03*
X011619Y046188D03*
X010635Y040282D03*
X008272Y040282D03*
X007780Y036838D03*
X008174Y033885D03*
X008174Y030735D03*
X007977Y025716D03*
X008174Y022861D03*
X008272Y018629D03*
X009060Y017940D03*
X009847Y016857D03*
X010536Y018432D03*
X013194Y018137D03*
X013686Y018727D03*
X016639Y020597D03*
X018115Y014987D03*
X011914Y034279D03*
X043213Y041759D03*
M02*
