G75*
G70*
%OFA0B0*%
%FSLAX24Y24*%
%IPPOS*%
%LPD*%
%AMOC8*
5,1,8,0,0,1.08239X$1,22.5*
%
%ADD10R,0.0709X0.0748*%
%ADD11R,0.0906X0.0748*%
%ADD12R,0.0157X0.0551*%
%ADD13R,0.0394X0.0394*%
%ADD14R,0.0394X0.0138*%
%ADD15R,0.0138X0.0394*%
%ADD16R,0.0850X0.0850*%
%ADD17R,0.0630X0.0512*%
%ADD18R,0.0295X0.0984*%
%ADD19R,0.0335X0.0110*%
%ADD20R,0.1358X0.1358*%
%ADD21R,0.0110X0.0335*%
%ADD22R,0.0630X0.1063*%
%ADD23R,0.1772X0.1772*%
%ADD24R,0.0098X0.0276*%
%ADD25C,0.0134*%
%ADD26R,0.0551X0.0472*%
%ADD27R,0.0315X0.0354*%
%ADD28R,0.0315X0.1142*%
%ADD29R,0.0472X0.0551*%
%ADD30R,0.0433X0.0335*%
%ADD31R,0.0433X0.0295*%
%ADD32R,0.0709X0.0461*%
%ADD33R,0.0531X0.0610*%
%ADD34R,0.0394X0.0472*%
%ADD35R,0.0531X0.0748*%
%ADD36R,0.0748X0.2638*%
%ADD37R,0.0748X0.0433*%
%ADD38R,0.0748X0.0748*%
%ADD39R,0.1339X0.0591*%
%ADD40R,0.1378X0.0394*%
%ADD41R,0.0689X0.0827*%
%ADD42R,0.0689X0.1142*%
%ADD43R,0.0689X0.0709*%
%ADD44R,0.0886X0.0945*%
%ADD45R,0.0886X0.1142*%
%ADD46R,0.1673X0.0591*%
%ADD47C,0.5906*%
%ADD48R,0.0350X0.0827*%
%ADD49R,0.0870X0.0240*%
%ADD50R,0.0118X0.0630*%
%ADD51R,0.0630X0.0118*%
%ADD52R,0.0827X0.0350*%
%ADD53C,0.0079*%
%ADD54C,0.0100*%
%ADD55C,0.0317*%
%ADD56C,0.0310*%
%ADD57C,0.0118*%
%ADD58C,0.0197*%
%ADD59C,0.0181*%
%ADD60C,0.0157*%
%ADD61C,0.0394*%
D10*
X011166Y047960D03*
X012072Y047960D03*
X022190Y047960D03*
X023095Y047960D03*
D11*
X024119Y047960D03*
X021166Y047960D03*
X013095Y047960D03*
X010143Y047960D03*
D12*
X011107Y046838D03*
X011363Y046838D03*
X011619Y046838D03*
X011875Y046838D03*
X012131Y046838D03*
X022131Y046838D03*
X022387Y046838D03*
X022643Y046838D03*
X022898Y046838D03*
X023154Y046838D03*
D13*
X021658Y045893D03*
X020871Y045893D03*
X020871Y045105D03*
X021658Y045105D03*
X022150Y042448D03*
X022150Y041660D03*
X022150Y041070D03*
X021363Y041070D03*
X021363Y040282D03*
X022150Y040282D03*
X022150Y039692D03*
X022150Y038905D03*
X022150Y038511D03*
X022150Y037723D03*
X022150Y037133D03*
X022150Y036542D03*
X022741Y036385D03*
X022741Y037133D03*
X023528Y037133D03*
X023528Y036385D03*
X022150Y035755D03*
X021363Y037133D03*
X020182Y036149D03*
X020182Y035361D03*
X019591Y034279D03*
X020182Y034082D03*
X020379Y033491D03*
X021127Y033491D03*
X020969Y034082D03*
X021127Y032704D03*
X021363Y032113D03*
X021363Y031326D03*
X020772Y031424D03*
X020772Y030637D03*
X020772Y029849D03*
X020280Y029062D03*
X019493Y029062D03*
X019493Y028275D03*
X020280Y028275D03*
X020871Y028275D03*
X020871Y027487D03*
X020772Y026798D03*
X020182Y026405D03*
X020772Y026011D03*
X021560Y026405D03*
X021560Y025617D03*
X021265Y024141D03*
X022052Y024141D03*
X022052Y023353D03*
X021265Y023353D03*
X022938Y023058D03*
X022938Y023845D03*
X023922Y025912D03*
X024709Y026503D03*
X024709Y027290D03*
X024316Y027782D03*
X025103Y027782D03*
X025497Y027290D03*
X025891Y027782D03*
X026284Y027290D03*
X026284Y026503D03*
X025497Y026503D03*
X023922Y026700D03*
X023528Y027192D03*
X023528Y027979D03*
X024316Y028570D03*
X025103Y028570D03*
X025891Y028570D03*
X025202Y030342D03*
X024414Y030342D03*
X024611Y031129D03*
X025398Y031129D03*
X025891Y030735D03*
X026678Y030735D03*
X026186Y031916D03*
X026186Y032704D03*
X025989Y033294D03*
X025202Y033294D03*
X024217Y033491D03*
X024217Y034279D03*
X023135Y032408D03*
X023135Y031621D03*
X022150Y031326D03*
X022150Y032113D03*
X020379Y032704D03*
X019591Y033491D03*
X018509Y033196D03*
X018509Y032408D03*
X017721Y032408D03*
X017721Y033196D03*
X017820Y034672D03*
X018607Y034672D03*
X018607Y035460D03*
X017820Y035460D03*
X019394Y035361D03*
X019394Y036149D03*
X019985Y031424D03*
X019985Y030637D03*
X019394Y030637D03*
X019394Y029849D03*
X019985Y029849D03*
X018509Y029849D03*
X018509Y029062D03*
X017721Y029062D03*
X017721Y029849D03*
X016442Y027881D03*
X015654Y027881D03*
X014867Y027586D03*
X015261Y027094D03*
X016048Y027094D03*
X017328Y026700D03*
X018115Y026700D03*
X018115Y025912D03*
X018509Y025420D03*
X019296Y025420D03*
X019394Y026405D03*
X019394Y027192D03*
X020182Y027192D03*
X017328Y025912D03*
X018509Y023058D03*
X019296Y023058D03*
X019887Y020597D03*
X019887Y019810D03*
X019099Y019712D03*
X019099Y018924D03*
X019887Y017940D03*
X019887Y017153D03*
X020674Y017349D03*
X020674Y016562D03*
X020674Y016070D03*
X021461Y016070D03*
X021461Y016562D03*
X021461Y017349D03*
X023036Y017743D03*
X023824Y017743D03*
X024513Y017743D03*
X025300Y017743D03*
X025891Y017546D03*
X026087Y016956D03*
X026087Y016168D03*
X026087Y015381D03*
X025300Y015381D03*
X025300Y016168D03*
X025300Y016956D03*
X025891Y018334D03*
X024808Y018531D03*
X025202Y019219D03*
X025202Y020007D03*
X024414Y020105D03*
X024414Y019318D03*
X024020Y018531D03*
X023135Y019219D03*
X023135Y020007D03*
X021954Y019908D03*
X021954Y020696D03*
X021166Y020696D03*
X021166Y019908D03*
X025202Y020893D03*
X025989Y020893D03*
X025989Y020007D03*
X025989Y019219D03*
X025891Y021877D03*
X025891Y022664D03*
X025595Y023156D03*
X025595Y023944D03*
X021461Y015282D03*
X020674Y015282D03*
X020576Y014397D03*
X021363Y014397D03*
X022249Y014397D03*
X023036Y014397D03*
X018115Y014200D03*
X018115Y014987D03*
X016146Y014987D03*
X016146Y014200D03*
X013686Y014397D03*
X012898Y014397D03*
X011717Y014397D03*
X010930Y014397D03*
X007977Y024928D03*
X007977Y025716D03*
X007780Y028373D03*
X007780Y029160D03*
X008961Y029849D03*
X009749Y029849D03*
X012603Y028176D03*
X012406Y027586D03*
X013194Y027586D03*
X013391Y028176D03*
X014080Y028176D03*
X014080Y027586D03*
X014080Y026798D03*
X013194Y026798D03*
X012406Y026798D03*
X014080Y028964D03*
X014867Y028373D03*
X009355Y035755D03*
X008568Y035755D03*
X008568Y036542D03*
X009355Y036542D03*
X009946Y036936D03*
X009355Y037330D03*
X009946Y037723D03*
X008568Y037330D03*
X007682Y038609D03*
X007682Y039397D03*
X008272Y040282D03*
X009060Y040282D03*
X010635Y040282D03*
X010635Y041070D03*
X011225Y038216D03*
X011225Y037428D03*
X016934Y043531D03*
X016934Y044318D03*
X015359Y046779D03*
X014572Y046779D03*
D14*
X021776Y034662D03*
X021776Y034406D03*
X021776Y034151D03*
X021776Y033895D03*
X023272Y033895D03*
X023272Y034151D03*
X023272Y034406D03*
X023272Y034662D03*
D15*
X022908Y035027D03*
X022652Y035027D03*
X022396Y035027D03*
X022141Y035027D03*
X022141Y033531D03*
X022396Y033531D03*
X022652Y033531D03*
X022908Y033531D03*
D16*
X022524Y034279D03*
D17*
X023863Y032664D03*
X023863Y031759D03*
X025359Y031759D03*
X025359Y032664D03*
D18*
X019607Y042743D03*
X019107Y042743D03*
X018607Y042743D03*
X018107Y042743D03*
X017607Y042743D03*
X017607Y044318D03*
X018107Y044318D03*
X018607Y044318D03*
X019107Y044318D03*
X019607Y044318D03*
D19*
X021265Y030538D03*
X021265Y030342D03*
X021265Y030145D03*
X021265Y029948D03*
X021265Y029751D03*
X021265Y029554D03*
X021265Y029357D03*
X021265Y029160D03*
X021265Y028964D03*
X021265Y028767D03*
X023627Y028767D03*
X023627Y028964D03*
X023627Y029160D03*
X023627Y029357D03*
X023627Y029554D03*
X023627Y029751D03*
X023627Y029948D03*
X023627Y030145D03*
X023627Y030342D03*
X023627Y030538D03*
X024503Y022271D03*
X024503Y022074D03*
X024503Y021877D03*
X024503Y021680D03*
X024503Y021483D03*
X024503Y021286D03*
X024503Y021090D03*
X024503Y020893D03*
X022554Y020893D03*
X022554Y021090D03*
X022554Y021286D03*
X022554Y021483D03*
X022554Y021680D03*
X022554Y021877D03*
X022554Y022074D03*
X022554Y022271D03*
D20*
X023528Y021582D03*
D21*
X023430Y020607D03*
X023627Y020607D03*
X023824Y020607D03*
X024020Y020607D03*
X024217Y020607D03*
X023233Y020607D03*
X023036Y020607D03*
X022839Y020607D03*
X022839Y022556D03*
X023036Y022556D03*
X023233Y022556D03*
X023430Y022556D03*
X023627Y022556D03*
X023824Y022556D03*
X024020Y022556D03*
X024217Y022556D03*
X023331Y028471D03*
X023135Y028471D03*
X022938Y028471D03*
X022741Y028471D03*
X022544Y028471D03*
X022347Y028471D03*
X022150Y028471D03*
X021954Y028471D03*
X021757Y028471D03*
X021560Y028471D03*
X021560Y030834D03*
X021757Y030834D03*
X021954Y030834D03*
X022150Y030834D03*
X022347Y030834D03*
X022544Y030834D03*
X022741Y030834D03*
X022938Y030834D03*
X023135Y030834D03*
X023331Y030834D03*
D22*
X012564Y040676D03*
X011461Y040676D03*
X025339Y013806D03*
X026442Y013806D03*
X026146Y012625D03*
X025044Y012625D03*
D23*
X022446Y029653D03*
D24*
X009847Y038235D03*
X009650Y038235D03*
X009454Y038235D03*
X009257Y038235D03*
X009060Y038235D03*
X008863Y038235D03*
X008666Y038235D03*
X008666Y039377D03*
X008863Y039377D03*
X009060Y039377D03*
X009257Y039377D03*
X009454Y039377D03*
X009650Y039377D03*
X009847Y039377D03*
D25*
X009839Y038539D02*
X008675Y038539D01*
X008675Y039073D01*
X009839Y039073D01*
X009839Y038539D01*
X009839Y038672D02*
X008675Y038672D01*
X008675Y038805D02*
X009839Y038805D01*
X009839Y038938D02*
X008675Y038938D01*
X008675Y039071D02*
X009839Y039071D01*
D26*
X007780Y037920D03*
X007780Y036739D03*
X007780Y027586D03*
X007780Y026405D03*
X026481Y025519D03*
X026481Y024338D03*
D27*
X010733Y038964D03*
X010359Y039790D03*
X011107Y039790D03*
D28*
X010044Y041267D03*
X008863Y041267D03*
D29*
X014572Y048058D03*
X015753Y048058D03*
X018568Y024672D03*
X019237Y024672D03*
X019237Y023806D03*
X018568Y023806D03*
D30*
X007583Y031678D03*
X007583Y032111D03*
X007583Y032544D03*
X007583Y032977D03*
X007583Y033410D03*
X007583Y033844D03*
X007583Y034277D03*
D31*
X007583Y034690D03*
D32*
X007721Y035166D03*
D33*
X007633Y030710D03*
D34*
X010005Y030641D03*
X011461Y030641D03*
D35*
X011845Y032019D03*
X011845Y034369D03*
D36*
X014709Y038511D03*
D37*
X012269Y038511D03*
D38*
X012269Y039574D03*
X012269Y037448D03*
D39*
X010654Y042251D03*
X010654Y044810D03*
D40*
X008469Y043924D03*
X008469Y043137D03*
D41*
X010044Y012782D03*
X019493Y012782D03*
D42*
X019493Y010282D03*
X010044Y010282D03*
D43*
X010044Y011582D03*
X019493Y011582D03*
D44*
X024119Y011109D03*
X014670Y011109D03*
D45*
X014670Y012842D03*
X024119Y012842D03*
D46*
X025989Y042531D03*
X025989Y043531D03*
X025989Y044531D03*
D47*
X039769Y040676D03*
X039769Y032802D03*
X039769Y024928D03*
X039769Y017054D03*
X049611Y017054D03*
X049611Y024928D03*
X049611Y032802D03*
X049611Y040676D03*
D48*
X020083Y045932D03*
X019296Y045932D03*
X018509Y045932D03*
X017721Y045932D03*
X016934Y045932D03*
X016934Y047999D03*
X017721Y047999D03*
X018509Y047999D03*
X019296Y047999D03*
X020083Y047999D03*
D49*
X022400Y017115D03*
X022400Y016615D03*
X022400Y016115D03*
X022400Y015615D03*
X024460Y015615D03*
X024460Y016115D03*
X024460Y016615D03*
X024460Y017115D03*
D50*
X016639Y017586D03*
X016442Y017586D03*
X016245Y017586D03*
X016048Y017586D03*
X015851Y017586D03*
X015654Y017586D03*
X015457Y017586D03*
X015261Y017586D03*
X015064Y017586D03*
X014867Y017586D03*
X014670Y017586D03*
X014473Y017586D03*
X014276Y017586D03*
X014080Y017586D03*
X013883Y017586D03*
X013686Y017586D03*
X013489Y017586D03*
X013292Y017586D03*
X013095Y017586D03*
X012898Y017586D03*
X012702Y017586D03*
X012505Y017586D03*
X012308Y017586D03*
X012111Y017586D03*
X011914Y017586D03*
X011717Y017586D03*
X011520Y017586D03*
X011324Y017586D03*
X011127Y017586D03*
X010930Y017586D03*
X010733Y017586D03*
X010536Y017586D03*
X010339Y017586D03*
X010143Y017586D03*
X009946Y017586D03*
X009749Y017586D03*
X009749Y025971D03*
X009946Y025971D03*
X010143Y025971D03*
X010339Y025971D03*
X010536Y025971D03*
X010733Y025971D03*
X010930Y025971D03*
X011127Y025971D03*
X011324Y025971D03*
X011520Y025971D03*
X011717Y025971D03*
X011914Y025971D03*
X012111Y025971D03*
X012308Y025971D03*
X012505Y025971D03*
X012702Y025971D03*
X012898Y025971D03*
X013095Y025971D03*
X013292Y025971D03*
X013489Y025971D03*
X013686Y025971D03*
X013883Y025971D03*
X014080Y025971D03*
X014276Y025971D03*
X014473Y025971D03*
X014670Y025971D03*
X014867Y025971D03*
X015064Y025971D03*
X015261Y025971D03*
X015457Y025971D03*
X015654Y025971D03*
X015851Y025971D03*
X016048Y025971D03*
X016245Y025971D03*
X016442Y025971D03*
X016639Y025971D03*
D51*
X017387Y025223D03*
X017387Y025027D03*
X017387Y024830D03*
X017387Y024633D03*
X017387Y024436D03*
X017387Y024239D03*
X017387Y024042D03*
X017387Y023845D03*
X017387Y023649D03*
X017387Y023452D03*
X017387Y023255D03*
X017387Y023058D03*
X017387Y022861D03*
X017387Y022664D03*
X017387Y022468D03*
X017387Y022271D03*
X017387Y022074D03*
X017387Y021877D03*
X017387Y021680D03*
X017387Y021483D03*
X017387Y021286D03*
X017387Y021090D03*
X017387Y020893D03*
X017387Y020696D03*
X017387Y020499D03*
X017387Y020302D03*
X017387Y020105D03*
X017387Y019908D03*
X017387Y019712D03*
X017387Y019515D03*
X017387Y019318D03*
X017387Y019121D03*
X017387Y018924D03*
X017387Y018727D03*
X017387Y018531D03*
X017387Y018334D03*
X009001Y018334D03*
X009001Y018531D03*
X009001Y018727D03*
X009001Y018924D03*
X009001Y019121D03*
X009001Y019318D03*
X009001Y019515D03*
X009001Y019712D03*
X009001Y019908D03*
X009001Y020105D03*
X009001Y020302D03*
X009001Y020499D03*
X009001Y020696D03*
X009001Y020893D03*
X009001Y021090D03*
X009001Y021286D03*
X009001Y021483D03*
X009001Y021680D03*
X009001Y021877D03*
X009001Y022074D03*
X009001Y022271D03*
X009001Y022468D03*
X009001Y022664D03*
X009001Y022861D03*
X009001Y023058D03*
X009001Y023255D03*
X009001Y023452D03*
X009001Y023649D03*
X009001Y023845D03*
X009001Y024042D03*
X009001Y024239D03*
X009001Y024436D03*
X009001Y024633D03*
X009001Y024830D03*
X009001Y025027D03*
X009001Y025223D03*
D52*
X016107Y013511D03*
X016107Y012723D03*
X016107Y011936D03*
X016107Y011149D03*
X016107Y010361D03*
X018174Y010361D03*
X018174Y011149D03*
X018174Y011936D03*
X018174Y012723D03*
X018174Y013511D03*
D53*
X007388Y011542D02*
X007388Y009279D01*
X009454Y009279D01*
X009454Y011542D01*
X007388Y011542D01*
X007388Y011497D02*
X009454Y011497D01*
X009454Y011420D02*
X007388Y011420D01*
X007388Y011343D02*
X009454Y011343D01*
X009454Y011266D02*
X007388Y011266D01*
X007388Y011188D02*
X009454Y011188D01*
X009454Y011111D02*
X007388Y011111D01*
X007388Y011034D02*
X008318Y011034D01*
X008334Y011041D02*
X008084Y010937D01*
X007893Y010746D01*
X007790Y010496D01*
X007790Y010226D01*
X007893Y009976D01*
X008084Y009785D01*
X008334Y009682D01*
X008604Y009682D01*
X008854Y009785D01*
X009045Y009976D01*
X009149Y010226D01*
X009149Y010496D01*
X009045Y010746D01*
X008854Y010937D01*
X008604Y011041D01*
X008334Y011041D01*
X008132Y010957D02*
X007388Y010957D01*
X007388Y010879D02*
X008027Y010879D01*
X007949Y010802D02*
X007388Y010802D01*
X007388Y010725D02*
X007885Y010725D01*
X007853Y010648D02*
X007388Y010648D01*
X007388Y010570D02*
X007821Y010570D01*
X007790Y010493D02*
X007388Y010493D01*
X007388Y010416D02*
X007790Y010416D01*
X007790Y010339D02*
X007388Y010339D01*
X007388Y010261D02*
X007790Y010261D01*
X007807Y010184D02*
X007388Y010184D01*
X007388Y010107D02*
X007839Y010107D01*
X007871Y010030D02*
X007388Y010030D01*
X007388Y009953D02*
X007917Y009953D01*
X007994Y009875D02*
X007388Y009875D01*
X007388Y009798D02*
X008072Y009798D01*
X008240Y009721D02*
X007388Y009721D01*
X007388Y009644D02*
X009454Y009644D01*
X009454Y009721D02*
X008698Y009721D01*
X008867Y009798D02*
X009454Y009798D01*
X009454Y009875D02*
X008944Y009875D01*
X009021Y009953D02*
X009454Y009953D01*
X009454Y010030D02*
X009067Y010030D01*
X009099Y010107D02*
X009454Y010107D01*
X009454Y010184D02*
X009131Y010184D01*
X009149Y010261D02*
X009454Y010261D01*
X009454Y010339D02*
X009149Y010339D01*
X009149Y010416D02*
X009454Y010416D01*
X009454Y010493D02*
X009149Y010493D01*
X009118Y010570D02*
X009454Y010570D01*
X009454Y010648D02*
X009086Y010648D01*
X009054Y010725D02*
X009454Y010725D01*
X009454Y010802D02*
X008989Y010802D01*
X008912Y010879D02*
X009454Y010879D01*
X009454Y010957D02*
X008807Y010957D01*
X008621Y011034D02*
X009454Y011034D01*
X009650Y011034D02*
X013309Y011034D01*
X013372Y010971D02*
X014128Y010971D01*
X014128Y010596D01*
X014186Y010537D01*
X015154Y010537D01*
X015212Y010596D01*
X015212Y011623D01*
X015154Y011681D01*
X014186Y011681D01*
X014128Y011623D01*
X014128Y011248D01*
X013487Y011248D01*
X012426Y012309D01*
X012489Y012309D01*
X012641Y012372D01*
X012758Y012489D01*
X012821Y012641D01*
X012821Y012806D01*
X012758Y012958D01*
X012641Y013075D01*
X012489Y013138D01*
X012324Y013138D01*
X012172Y013075D01*
X012055Y012958D01*
X011992Y012806D01*
X011992Y012743D01*
X010477Y014258D01*
X010634Y014258D01*
X010634Y014159D01*
X010692Y014100D01*
X011168Y014100D01*
X011226Y014159D01*
X011226Y014635D01*
X011168Y014693D01*
X010692Y014693D01*
X010634Y014635D01*
X010634Y014535D01*
X009691Y014535D01*
X010044Y014889D01*
X014572Y014889D01*
X015220Y014240D01*
X015220Y011386D01*
X015261Y011346D01*
X015261Y010263D01*
X015457Y010066D01*
X018607Y010066D01*
X018628Y010087D01*
X018629Y010087D01*
X018687Y010145D01*
X018687Y010146D01*
X018804Y010263D01*
X018804Y014693D01*
X018845Y014652D01*
X020296Y014652D01*
X020279Y014635D01*
X020279Y014159D01*
X020338Y014100D01*
X020814Y014100D01*
X020872Y014159D01*
X020872Y014635D01*
X020855Y014652D01*
X021084Y014652D01*
X021067Y014635D01*
X021067Y014159D01*
X021125Y014100D01*
X021224Y014100D01*
X021224Y011682D01*
X021306Y011600D01*
X021935Y010971D01*
X023577Y010971D01*
X023577Y010596D01*
X023635Y010537D01*
X024316Y010537D01*
X024316Y009279D01*
X009650Y009279D01*
X009650Y009581D01*
X009681Y009572D01*
X010005Y009572D01*
X010005Y010243D01*
X010083Y010243D01*
X010083Y009572D01*
X010407Y009572D01*
X010442Y009582D01*
X010474Y009600D01*
X010500Y009626D01*
X010518Y009658D01*
X010528Y009693D01*
X010528Y010243D01*
X010083Y010243D01*
X010083Y010322D01*
X010005Y010322D01*
X010005Y010993D01*
X009681Y010993D01*
X009650Y010984D01*
X009650Y011136D01*
X009658Y011128D01*
X010430Y011128D01*
X010488Y011186D01*
X010488Y011977D01*
X010430Y012035D01*
X009658Y012035D01*
X009650Y012027D01*
X009650Y012278D01*
X009658Y012270D01*
X009650Y012270D01*
X009658Y012270D02*
X010430Y012270D01*
X012073Y012270D01*
X011996Y012347D02*
X010488Y012347D01*
X010488Y012328D02*
X010488Y013237D01*
X010430Y013295D01*
X009658Y013295D01*
X009650Y013287D01*
X009650Y014258D01*
X010085Y014258D01*
X013372Y010971D01*
X013430Y011109D02*
X010143Y014397D01*
X010930Y014397D01*
X011226Y014432D02*
X011421Y014432D01*
X011421Y014355D02*
X011226Y014355D01*
X011226Y014278D02*
X011421Y014278D01*
X011421Y014201D02*
X011226Y014201D01*
X011191Y014124D02*
X011456Y014124D01*
X011479Y014100D02*
X011955Y014100D01*
X012014Y014159D01*
X012014Y014635D01*
X011955Y014693D01*
X011479Y014693D01*
X011421Y014635D01*
X011421Y014159D01*
X011479Y014100D01*
X011421Y014510D02*
X011226Y014510D01*
X011226Y014587D02*
X011421Y014587D01*
X011451Y014664D02*
X011197Y014664D01*
X010663Y014664D02*
X009820Y014664D01*
X009897Y014741D02*
X014719Y014741D01*
X014796Y014664D02*
X013953Y014664D01*
X013924Y014693D02*
X013448Y014693D01*
X013390Y014635D01*
X013390Y014159D01*
X013448Y014100D01*
X013702Y014100D01*
X013899Y013904D01*
X014472Y013904D01*
X014472Y013512D01*
X014186Y013512D01*
X014128Y013454D01*
X014128Y012230D01*
X014186Y012171D01*
X015154Y012171D01*
X015212Y012230D01*
X015212Y013454D01*
X015154Y013512D01*
X014868Y013512D01*
X014868Y013939D01*
X014886Y013957D01*
X014924Y014051D01*
X014924Y014152D01*
X014886Y014245D01*
X014814Y014317D01*
X014721Y014356D01*
X014619Y014356D01*
X014526Y014317D01*
X014508Y014299D01*
X014063Y014299D01*
X013982Y014380D01*
X013982Y014635D01*
X013924Y014693D01*
X013982Y014587D02*
X014873Y014587D01*
X014951Y014510D02*
X013982Y014510D01*
X013982Y014432D02*
X015028Y014432D01*
X015105Y014355D02*
X014722Y014355D01*
X014618Y014355D02*
X014007Y014355D01*
X013756Y014046D02*
X010689Y014046D01*
X010669Y014124D02*
X010612Y014124D01*
X010634Y014201D02*
X010535Y014201D01*
X010374Y013969D02*
X009650Y013969D01*
X009650Y013892D02*
X010451Y013892D01*
X010528Y013815D02*
X009650Y013815D01*
X009650Y013737D02*
X010606Y013737D01*
X010683Y013660D02*
X009650Y013660D01*
X009650Y013583D02*
X010760Y013583D01*
X010837Y013506D02*
X009650Y013506D01*
X009650Y013428D02*
X010915Y013428D01*
X010992Y013351D02*
X009650Y013351D01*
X009650Y014046D02*
X010297Y014046D01*
X010219Y014124D02*
X009650Y014124D01*
X009650Y014201D02*
X010142Y014201D01*
X010143Y014397D02*
X008174Y014397D01*
X007583Y014987D01*
X007583Y019416D01*
X007879Y019712D01*
X009001Y019712D01*
X009001Y019121D02*
X012702Y019121D01*
X012702Y020105D01*
X017387Y020105D01*
X017387Y020302D02*
X016245Y020302D01*
X016048Y020499D01*
X016639Y020597D02*
X016737Y020499D01*
X017387Y020499D01*
X017387Y021090D02*
X019690Y021090D01*
X020871Y022271D01*
X022554Y022271D01*
X022554Y022074D02*
X021166Y022074D01*
X021068Y021975D01*
X021461Y021877D02*
X021068Y021483D01*
X021231Y021286D02*
X021265Y021286D01*
X021224Y021245D01*
X021027Y021049D01*
X021027Y020992D01*
X020928Y020992D01*
X020870Y020934D01*
X020870Y020458D01*
X020928Y020400D01*
X021404Y020400D01*
X021462Y020458D01*
X021462Y020934D01*
X021404Y020992D01*
X021363Y020992D01*
X021420Y021049D01*
X021814Y021049D01*
X021815Y021050D01*
X021815Y020992D01*
X021716Y020992D01*
X021657Y020934D01*
X021657Y020458D01*
X021716Y020400D01*
X022192Y020400D01*
X022250Y020458D01*
X022250Y020934D01*
X022192Y020992D01*
X022092Y020992D01*
X022092Y021032D01*
X022208Y021148D01*
X022287Y021148D01*
X022287Y020993D01*
X022289Y020991D01*
X022287Y020989D01*
X022287Y020796D01*
X022345Y020738D01*
X022645Y020738D01*
X022645Y020607D01*
X022645Y020422D01*
X022654Y020386D01*
X022673Y020354D01*
X022699Y020328D01*
X022730Y020310D01*
X022766Y020301D01*
X022839Y020301D01*
X022839Y020607D01*
X022645Y020607D01*
X022839Y020607D01*
X022839Y020607D01*
X022839Y020607D01*
X022839Y020301D01*
X022887Y020301D01*
X022887Y020293D01*
X022838Y020245D01*
X022838Y019769D01*
X022897Y019711D01*
X023373Y019711D01*
X023431Y019769D01*
X023431Y020245D01*
X023373Y020303D01*
X023685Y020303D01*
X023685Y020341D02*
X023685Y019080D01*
X023569Y018965D01*
X023459Y018965D01*
X023461Y018969D01*
X023471Y019004D01*
X023471Y019180D01*
X023174Y019180D01*
X023174Y018965D01*
X023095Y018965D01*
X023095Y019180D01*
X022798Y019180D01*
X022798Y019004D01*
X022808Y018969D01*
X022810Y018965D01*
X021207Y018965D01*
X020617Y018374D01*
X020535Y018293D01*
X020535Y017646D01*
X020436Y017646D01*
X020378Y017587D01*
X020378Y017111D01*
X020436Y017053D01*
X020912Y017053D01*
X020929Y017070D01*
X020929Y016841D01*
X020912Y016858D01*
X020436Y016858D01*
X020378Y016800D01*
X020378Y016324D01*
X020386Y016316D01*
X020378Y016308D01*
X020378Y015832D01*
X020436Y015774D01*
X020912Y015774D01*
X020970Y015832D01*
X020970Y016308D01*
X020962Y016316D01*
X020970Y016324D01*
X020970Y016423D01*
X021027Y016423D01*
X021108Y016505D01*
X021165Y016562D01*
X021165Y016324D01*
X021173Y016316D01*
X021165Y016308D01*
X021165Y016232D01*
X021147Y016214D01*
X021109Y016120D01*
X021109Y016019D01*
X021147Y015926D01*
X021165Y015908D01*
X021165Y015832D01*
X021223Y015774D01*
X021699Y015774D01*
X021758Y015832D01*
X021758Y015976D01*
X021866Y015976D01*
X021866Y015954D01*
X021924Y015896D01*
X022876Y015896D01*
X022898Y015917D01*
X023007Y015917D01*
X023134Y015791D01*
X023134Y014807D01*
X023248Y014693D01*
X022798Y014693D01*
X022740Y014635D01*
X022740Y014159D01*
X022798Y014100D01*
X023136Y014100D01*
X023725Y013512D01*
X023635Y013512D01*
X023577Y013454D01*
X023577Y012230D01*
X023635Y012171D01*
X024603Y012171D01*
X024630Y012198D01*
X024630Y012052D01*
X024647Y012035D01*
X022017Y012035D01*
X021999Y012053D01*
X021906Y012092D01*
X021805Y012092D01*
X021711Y012053D01*
X021639Y011982D01*
X021601Y011888D01*
X021601Y011787D01*
X021639Y011694D01*
X021711Y011622D01*
X021805Y011583D01*
X021906Y011583D01*
X021999Y011622D01*
X022017Y011640D01*
X023594Y011640D01*
X023577Y011623D01*
X023577Y011248D01*
X022050Y011248D01*
X021502Y011797D01*
X021502Y012494D01*
X021504Y012489D01*
X021620Y012372D01*
X021773Y012309D01*
X021938Y012309D01*
X022090Y012372D01*
X022206Y012489D01*
X022269Y012641D01*
X022269Y012806D01*
X022206Y012958D01*
X022090Y013075D01*
X021938Y013138D01*
X021773Y013138D01*
X021620Y013075D01*
X021504Y012958D01*
X021502Y012953D01*
X021502Y014100D01*
X021601Y014100D01*
X021659Y014159D01*
X021659Y014635D01*
X021601Y014693D01*
X021502Y014693D01*
X021502Y014749D01*
X021403Y014848D01*
X021322Y014929D01*
X018960Y014929D01*
X018844Y015045D01*
X018844Y015832D01*
X018804Y015872D01*
X018804Y018685D01*
X018861Y018628D01*
X019337Y018628D01*
X019395Y018686D01*
X019395Y019162D01*
X019337Y019220D01*
X019100Y019220D01*
X019295Y019415D01*
X019337Y019415D01*
X019395Y019474D01*
X019395Y019516D01*
X019550Y019671D01*
X019550Y019595D01*
X019560Y019559D01*
X019578Y019528D01*
X019604Y019502D01*
X019636Y019483D01*
X019671Y019474D01*
X019847Y019474D01*
X019847Y019771D01*
X019650Y019771D01*
X019729Y019849D01*
X019847Y019849D01*
X019847Y019771D01*
X019926Y019771D01*
X019926Y019849D01*
X020223Y019849D01*
X020223Y020025D01*
X020213Y020061D01*
X020195Y020092D01*
X020169Y020118D01*
X020137Y020137D01*
X020102Y020146D01*
X020026Y020146D01*
X021109Y021229D01*
X021118Y021229D01*
X021212Y021268D01*
X021231Y021286D01*
X021208Y021230D02*
X021120Y021230D01*
X021131Y021152D02*
X021032Y021152D01*
X021054Y021075D02*
X020955Y021075D01*
X021027Y020998D02*
X020878Y020998D01*
X020870Y020921D02*
X020800Y020921D01*
X020870Y020843D02*
X020723Y020843D01*
X020646Y020766D02*
X020870Y020766D01*
X020870Y020689D02*
X020569Y020689D01*
X020491Y020612D02*
X020870Y020612D01*
X020870Y020534D02*
X020414Y020534D01*
X020337Y020457D02*
X020871Y020457D01*
X020928Y020205D02*
X020870Y020146D01*
X020870Y019670D01*
X020928Y019612D01*
X021404Y019612D01*
X021462Y019670D01*
X021462Y020146D01*
X021404Y020205D01*
X020928Y020205D01*
X020872Y020148D02*
X020028Y020148D01*
X020105Y020225D02*
X022838Y020225D01*
X022838Y020148D02*
X022248Y020148D01*
X022250Y020146D02*
X022192Y020205D01*
X021716Y020205D01*
X021657Y020146D01*
X021657Y019670D01*
X021716Y019612D01*
X022192Y019612D01*
X022250Y019670D01*
X022250Y020146D01*
X022250Y020071D02*
X022838Y020071D01*
X022838Y019994D02*
X022250Y019994D01*
X022250Y019917D02*
X022838Y019917D01*
X022838Y019839D02*
X022250Y019839D01*
X022250Y019762D02*
X022845Y019762D01*
X022884Y019546D02*
X022852Y019528D01*
X022826Y019502D01*
X022808Y019470D01*
X022798Y019435D01*
X022798Y019259D01*
X023095Y019259D01*
X023095Y019180D01*
X023174Y019180D01*
X023174Y019259D01*
X023095Y019259D01*
X023095Y019556D01*
X022919Y019556D01*
X022884Y019546D01*
X022856Y019530D02*
X020197Y019530D01*
X020195Y019528D02*
X020213Y019559D01*
X020223Y019595D01*
X020223Y019771D01*
X019926Y019771D01*
X019926Y019474D01*
X020102Y019474D01*
X020137Y019483D01*
X020169Y019502D01*
X020195Y019528D01*
X020223Y019608D02*
X023685Y019608D01*
X023685Y019685D02*
X022250Y019685D01*
X021657Y019685D02*
X021462Y019685D01*
X021462Y019762D02*
X021657Y019762D01*
X021657Y019839D02*
X021462Y019839D01*
X021462Y019917D02*
X021657Y019917D01*
X021657Y019994D02*
X021462Y019994D01*
X021462Y020071D02*
X021657Y020071D01*
X021659Y020148D02*
X021461Y020148D01*
X021462Y020457D02*
X021658Y020457D01*
X021657Y020534D02*
X021462Y020534D01*
X021462Y020612D02*
X021657Y020612D01*
X021657Y020689D02*
X021462Y020689D01*
X021462Y020766D02*
X021657Y020766D01*
X021657Y020843D02*
X021462Y020843D01*
X021462Y020921D02*
X021657Y020921D01*
X021815Y020998D02*
X021369Y020998D01*
X021363Y021188D02*
X021757Y021188D01*
X022052Y021483D01*
X022554Y021483D01*
X022554Y021286D02*
X022150Y021286D01*
X021954Y021090D01*
X021954Y020696D01*
X022250Y020689D02*
X022645Y020689D01*
X022645Y020612D02*
X022250Y020612D01*
X022250Y020534D02*
X022645Y020534D01*
X022652Y020607D02*
X022544Y020499D01*
X022645Y020457D02*
X022249Y020457D01*
X022250Y020766D02*
X022318Y020766D01*
X022287Y020843D02*
X022250Y020843D01*
X022250Y020921D02*
X022287Y020921D01*
X022287Y020998D02*
X022092Y020998D01*
X022135Y021075D02*
X022287Y021075D01*
X022652Y020607D02*
X022839Y020607D01*
X022839Y020607D01*
X022882Y020607D01*
X022882Y020607D01*
X022839Y020607D01*
X022839Y020534D02*
X022839Y020534D01*
X022839Y020457D02*
X022839Y020457D01*
X022839Y020380D02*
X022839Y020380D01*
X022839Y020303D02*
X022839Y020303D01*
X022758Y020303D02*
X020182Y020303D01*
X020260Y020380D02*
X022658Y020380D01*
X023186Y020341D02*
X023329Y020341D01*
X023331Y020343D01*
X023334Y020341D01*
X023526Y020341D01*
X023528Y020343D01*
X023530Y020341D01*
X023685Y020341D01*
X023685Y020225D02*
X023431Y020225D01*
X023431Y020148D02*
X023685Y020148D01*
X023685Y020071D02*
X023431Y020071D01*
X023431Y019994D02*
X023685Y019994D01*
X023685Y019917D02*
X023431Y019917D01*
X023431Y019839D02*
X023685Y019839D01*
X023685Y019762D02*
X023424Y019762D01*
X023350Y019556D02*
X023174Y019556D01*
X023174Y019259D01*
X023471Y019259D01*
X023471Y019435D01*
X023461Y019470D01*
X023443Y019502D01*
X023417Y019528D01*
X023385Y019546D01*
X023350Y019556D01*
X023413Y019530D02*
X023685Y019530D01*
X023685Y019453D02*
X023466Y019453D01*
X023471Y019376D02*
X023685Y019376D01*
X023685Y019299D02*
X023471Y019299D01*
X023471Y019144D02*
X023685Y019144D01*
X023685Y019221D02*
X023174Y019221D01*
X023174Y019144D02*
X023095Y019144D01*
X023095Y019067D02*
X023174Y019067D01*
X023174Y018990D02*
X023095Y018990D01*
X023095Y019221D02*
X019101Y019221D01*
X019178Y019299D02*
X022798Y019299D01*
X022798Y019376D02*
X019256Y019376D01*
X019375Y019453D02*
X022803Y019453D01*
X023095Y019453D02*
X023174Y019453D01*
X023174Y019376D02*
X023095Y019376D01*
X023095Y019299D02*
X023174Y019299D01*
X023174Y019530D02*
X023095Y019530D01*
X022798Y019144D02*
X019395Y019144D01*
X019395Y019067D02*
X022798Y019067D01*
X022802Y018990D02*
X019395Y018990D01*
X019395Y018912D02*
X021155Y018912D01*
X021078Y018835D02*
X019395Y018835D01*
X019395Y018758D02*
X021000Y018758D01*
X020923Y018681D02*
X019390Y018681D01*
X019649Y018236D02*
X019590Y018178D01*
X019590Y017702D01*
X019649Y017644D01*
X020125Y017644D01*
X020183Y017702D01*
X020183Y018178D01*
X020125Y018236D01*
X019649Y018236D01*
X019630Y018217D02*
X018804Y018217D01*
X018804Y018140D02*
X019590Y018140D01*
X019590Y018063D02*
X018804Y018063D01*
X018804Y017986D02*
X019590Y017986D01*
X019590Y017908D02*
X018804Y017908D01*
X018804Y017831D02*
X019590Y017831D01*
X019590Y017754D02*
X018804Y017754D01*
X018804Y017677D02*
X019616Y017677D01*
X019671Y017489D02*
X019636Y017479D01*
X019604Y017461D01*
X019578Y017435D01*
X019560Y017403D01*
X019550Y017368D01*
X019550Y017192D01*
X019847Y017192D01*
X019847Y017113D01*
X019550Y017113D01*
X019550Y016937D01*
X019560Y016902D01*
X019578Y016870D01*
X019604Y016844D01*
X019636Y016826D01*
X019671Y016816D01*
X019847Y016816D01*
X019847Y017113D01*
X019926Y017113D01*
X019926Y016816D01*
X020102Y016816D01*
X020137Y016826D01*
X020169Y016844D01*
X020195Y016870D01*
X020213Y016902D01*
X020223Y016937D01*
X020223Y017113D01*
X019926Y017113D01*
X019926Y017192D01*
X019847Y017192D01*
X019847Y017489D01*
X019671Y017489D01*
X019588Y017445D02*
X018804Y017445D01*
X018804Y017522D02*
X020378Y017522D01*
X020378Y017445D02*
X020185Y017445D01*
X020195Y017435D02*
X020169Y017461D01*
X020137Y017479D01*
X020102Y017489D01*
X019926Y017489D01*
X019926Y017192D01*
X020223Y017192D01*
X020223Y017368D01*
X020213Y017403D01*
X020195Y017435D01*
X020223Y017368D02*
X020378Y017368D01*
X020378Y017290D02*
X020223Y017290D01*
X020223Y017213D02*
X020378Y017213D01*
X020378Y017136D02*
X019926Y017136D01*
X019926Y017213D02*
X019847Y017213D01*
X019847Y017136D02*
X018804Y017136D01*
X018804Y017213D02*
X019550Y017213D01*
X019550Y017290D02*
X018804Y017290D01*
X018804Y017368D02*
X019550Y017368D01*
X019847Y017368D02*
X019926Y017368D01*
X019926Y017445D02*
X019847Y017445D01*
X019847Y017290D02*
X019926Y017290D01*
X019926Y017059D02*
X019847Y017059D01*
X019847Y016981D02*
X019926Y016981D01*
X019926Y016904D02*
X019847Y016904D01*
X019847Y016827D02*
X019926Y016827D01*
X020139Y016827D02*
X020405Y016827D01*
X020378Y016750D02*
X018804Y016750D01*
X018804Y016827D02*
X019634Y016827D01*
X019559Y016904D02*
X018804Y016904D01*
X018804Y016981D02*
X019550Y016981D01*
X019550Y017059D02*
X018804Y017059D01*
X018804Y016672D02*
X020378Y016672D01*
X020378Y016595D02*
X018804Y016595D01*
X018804Y016518D02*
X020378Y016518D01*
X020378Y016441D02*
X018804Y016441D01*
X018804Y016363D02*
X020378Y016363D01*
X020378Y016286D02*
X018804Y016286D01*
X018804Y016209D02*
X020378Y016209D01*
X020378Y016132D02*
X018804Y016132D01*
X018804Y016055D02*
X020378Y016055D01*
X020378Y015977D02*
X018804Y015977D01*
X018804Y015900D02*
X020378Y015900D01*
X020387Y015823D02*
X018844Y015823D01*
X018844Y015746D02*
X021728Y015746D01*
X021737Y015754D02*
X021561Y015579D01*
X021223Y015579D01*
X021165Y015520D01*
X021165Y015421D01*
X020970Y015421D01*
X020970Y015520D01*
X020912Y015579D01*
X020436Y015579D01*
X020378Y015520D01*
X020378Y015044D01*
X020436Y014986D01*
X020912Y014986D01*
X020970Y015044D01*
X020970Y015144D01*
X021165Y015144D01*
X021165Y015044D01*
X021223Y014986D01*
X021699Y014986D01*
X021758Y015044D01*
X021758Y015382D01*
X021852Y015476D01*
X021866Y015476D01*
X021866Y015454D01*
X021924Y015396D01*
X022876Y015396D01*
X022934Y015454D01*
X022934Y015776D01*
X022876Y015835D01*
X021924Y015835D01*
X021866Y015776D01*
X021866Y015754D01*
X021737Y015754D01*
X021749Y015823D02*
X021912Y015823D01*
X021920Y015900D02*
X021758Y015900D01*
X021651Y015668D02*
X018844Y015668D01*
X018844Y015591D02*
X021574Y015591D01*
X021794Y015615D02*
X021461Y015282D01*
X020674Y015282D01*
X020378Y015282D02*
X018844Y015282D01*
X018844Y015205D02*
X020378Y015205D01*
X020378Y015128D02*
X018844Y015128D01*
X018844Y015050D02*
X020378Y015050D01*
X020378Y015359D02*
X018844Y015359D01*
X018844Y015437D02*
X020378Y015437D01*
X020378Y015514D02*
X018844Y015514D01*
X018706Y015775D02*
X018706Y014987D01*
X018902Y014790D01*
X021265Y014790D01*
X021363Y014692D01*
X021363Y014397D01*
X021363Y011739D01*
X021993Y011109D01*
X024119Y011109D01*
X024661Y011111D02*
X024672Y011111D01*
X024661Y011100D02*
X024661Y011623D01*
X024644Y011640D01*
X025480Y011640D01*
X025596Y011756D01*
X025793Y011953D01*
X025793Y011994D01*
X026503Y011994D01*
X026561Y012052D01*
X026561Y013175D01*
X026798Y013175D01*
X026856Y013233D01*
X026856Y014379D01*
X026798Y014437D01*
X026580Y014437D01*
X026580Y014577D01*
X026465Y014693D01*
X026071Y015087D01*
X026048Y015087D01*
X026048Y015342D01*
X025751Y015342D01*
X025751Y015166D01*
X025761Y015130D01*
X025779Y015098D01*
X025791Y015087D01*
X025540Y015087D01*
X025596Y015143D01*
X025596Y015619D01*
X025538Y015677D01*
X025200Y015677D01*
X025123Y015754D01*
X024994Y015754D01*
X024994Y015776D01*
X024936Y015835D01*
X023984Y015835D01*
X023926Y015776D01*
X023926Y015454D01*
X023984Y015396D01*
X024936Y015396D01*
X024994Y015454D01*
X024994Y015476D01*
X025004Y015476D01*
X025004Y015143D01*
X025060Y015087D01*
X024102Y015087D01*
X023923Y015266D01*
X023923Y015900D01*
X023939Y015884D01*
X023971Y015865D01*
X024007Y015856D01*
X024439Y015856D01*
X024439Y016095D01*
X024481Y016095D01*
X025004Y016095D01*
X025004Y016136D01*
X024481Y016136D01*
X024481Y016095D01*
X024481Y015856D01*
X024913Y015856D01*
X024949Y015865D01*
X024980Y015884D01*
X025006Y015910D01*
X025013Y015921D01*
X025062Y015872D01*
X025538Y015872D01*
X025596Y015930D01*
X025596Y016406D01*
X025538Y016465D01*
X025200Y016465D01*
X024994Y016670D01*
X024994Y016776D01*
X024936Y016835D01*
X023984Y016835D01*
X023926Y016776D01*
X023926Y016454D01*
X023984Y016396D01*
X024876Y016396D01*
X024898Y016375D01*
X024481Y016375D01*
X024481Y016136D01*
X024439Y016136D01*
X024439Y016375D01*
X024007Y016375D01*
X023971Y016365D01*
X023939Y016347D01*
X023923Y016330D01*
X023923Y017038D01*
X023807Y017154D01*
X023648Y017313D01*
X022898Y017313D01*
X022876Y017335D01*
X022824Y017335D01*
X022936Y017447D01*
X023274Y017447D01*
X023332Y017505D01*
X023332Y017981D01*
X023274Y018039D01*
X022798Y018039D01*
X022740Y017981D01*
X022740Y017643D01*
X022431Y017335D01*
X021924Y017335D01*
X021866Y017276D01*
X021866Y016954D01*
X021924Y016896D01*
X022876Y016896D01*
X022898Y016917D01*
X023484Y016917D01*
X023527Y016874D01*
X023527Y015957D01*
X023413Y016071D01*
X023171Y016313D01*
X022898Y016313D01*
X022876Y016335D01*
X021924Y016335D01*
X021866Y016276D01*
X021866Y016254D01*
X021758Y016254D01*
X021758Y016308D01*
X021750Y016316D01*
X021758Y016324D01*
X021758Y016476D01*
X021866Y016476D01*
X021866Y016454D01*
X021924Y016396D01*
X022876Y016396D01*
X022934Y016454D01*
X022934Y016776D01*
X022876Y016835D01*
X021924Y016835D01*
X021866Y016776D01*
X021866Y016754D01*
X021758Y016754D01*
X021758Y016800D01*
X021699Y016858D01*
X021223Y016858D01*
X021206Y016841D01*
X021206Y017025D01*
X021211Y017023D01*
X021246Y017013D01*
X021422Y017013D01*
X021422Y017310D01*
X021206Y017310D01*
X021206Y017389D01*
X021422Y017389D01*
X021422Y017686D01*
X021246Y017686D01*
X021211Y017676D01*
X021206Y017674D01*
X021206Y018079D01*
X021519Y018392D01*
X023724Y018392D01*
X023724Y018293D01*
X023782Y018234D01*
X024258Y018234D01*
X024275Y018251D01*
X024275Y018039D01*
X024216Y017981D01*
X024216Y017505D01*
X024275Y017447D01*
X024751Y017447D01*
X024809Y017505D01*
X024809Y017981D01*
X024751Y018039D01*
X024553Y018039D01*
X024553Y018251D01*
X024570Y018234D01*
X025046Y018234D01*
X025104Y018293D01*
X025104Y018769D01*
X025046Y018827D01*
X024947Y018827D01*
X024947Y018895D01*
X024951Y018893D01*
X024986Y018883D01*
X025162Y018883D01*
X025162Y019180D01*
X024947Y019180D01*
X024947Y019259D01*
X025162Y019259D01*
X025162Y019180D01*
X025241Y019180D01*
X025241Y018883D01*
X025417Y018883D01*
X025452Y018893D01*
X025484Y018911D01*
X025510Y018937D01*
X025528Y018969D01*
X025538Y019004D01*
X025538Y019180D01*
X025241Y019180D01*
X025241Y019259D01*
X025162Y019259D01*
X025162Y019556D01*
X024986Y019556D01*
X024951Y019546D01*
X024947Y019544D01*
X024947Y019728D01*
X024964Y019711D01*
X025440Y019711D01*
X025498Y019769D01*
X025498Y019848D01*
X025693Y019848D01*
X025693Y019769D01*
X025751Y019711D01*
X026227Y019711D01*
X026244Y019728D01*
X026244Y019544D01*
X026240Y019546D01*
X026204Y019556D01*
X026028Y019556D01*
X026028Y019259D01*
X025950Y019259D01*
X025950Y019556D01*
X025774Y019556D01*
X025738Y019546D01*
X025707Y019528D01*
X025681Y019502D01*
X025662Y019470D01*
X025653Y019435D01*
X025653Y019259D01*
X025950Y019259D01*
X025950Y019180D01*
X026028Y019180D01*
X026028Y018883D01*
X026204Y018883D01*
X026240Y018893D01*
X026244Y018895D01*
X026244Y018883D01*
X025991Y018630D01*
X025653Y018630D01*
X025594Y018572D01*
X025594Y018096D01*
X025653Y018037D01*
X026129Y018037D01*
X026187Y018096D01*
X026187Y018434D01*
X026521Y018768D01*
X026521Y021147D01*
X026440Y021228D01*
X026382Y021286D01*
X026874Y021286D01*
X026874Y011542D01*
X025103Y011542D01*
X024661Y011100D01*
X024661Y011188D02*
X024749Y011188D01*
X024826Y011266D02*
X024661Y011266D01*
X024661Y011343D02*
X024904Y011343D01*
X024981Y011420D02*
X024661Y011420D01*
X024661Y011497D02*
X025058Y011497D01*
X024661Y011575D02*
X026874Y011575D01*
X026874Y011652D02*
X025492Y011652D01*
X025570Y011729D02*
X026874Y011729D01*
X026874Y011806D02*
X025647Y011806D01*
X025724Y011884D02*
X026874Y011884D01*
X026874Y011961D02*
X025793Y011961D01*
X026186Y012625D02*
X026087Y012822D01*
X026561Y012810D02*
X026874Y012810D01*
X026874Y012733D02*
X026561Y012733D01*
X026561Y012656D02*
X026874Y012656D01*
X026874Y012579D02*
X026561Y012579D01*
X026561Y012501D02*
X026874Y012501D01*
X026874Y012424D02*
X026561Y012424D01*
X026561Y012347D02*
X026874Y012347D01*
X026874Y012270D02*
X026561Y012270D01*
X026561Y012192D02*
X026874Y012192D01*
X026874Y012115D02*
X026561Y012115D01*
X026546Y012038D02*
X026874Y012038D01*
X026874Y012888D02*
X026561Y012888D01*
X026561Y012965D02*
X026874Y012965D01*
X026874Y013042D02*
X026561Y013042D01*
X026561Y013119D02*
X026874Y013119D01*
X026874Y013197D02*
X026819Y013197D01*
X026856Y013274D02*
X026874Y013274D01*
X026874Y013351D02*
X026856Y013351D01*
X026856Y013428D02*
X026874Y013428D01*
X026874Y013506D02*
X026856Y013506D01*
X026856Y013583D02*
X026874Y013583D01*
X026874Y013660D02*
X026856Y013660D01*
X026856Y013737D02*
X026874Y013737D01*
X026874Y013815D02*
X026856Y013815D01*
X026856Y013892D02*
X026874Y013892D01*
X026874Y013969D02*
X026856Y013969D01*
X026856Y014046D02*
X026874Y014046D01*
X026874Y014124D02*
X026856Y014124D01*
X026856Y014201D02*
X026874Y014201D01*
X026874Y014278D02*
X026856Y014278D01*
X026856Y014355D02*
X026874Y014355D01*
X026874Y014432D02*
X026802Y014432D01*
X026874Y014510D02*
X026580Y014510D01*
X026571Y014587D02*
X026874Y014587D01*
X026874Y014664D02*
X026493Y014664D01*
X026416Y014741D02*
X026874Y014741D01*
X026874Y014819D02*
X026339Y014819D01*
X026262Y014896D02*
X026874Y014896D01*
X026874Y014973D02*
X026184Y014973D01*
X026127Y015045D02*
X026303Y015045D01*
X026338Y015054D01*
X026370Y015073D01*
X026396Y015098D01*
X026414Y015130D01*
X026424Y015166D01*
X026424Y015342D01*
X026127Y015342D01*
X026127Y015420D01*
X026424Y015420D01*
X026424Y015596D01*
X026414Y015632D01*
X026396Y015663D01*
X026370Y015689D01*
X026338Y015708D01*
X026303Y015717D01*
X026127Y015717D01*
X026127Y015420D01*
X026048Y015420D01*
X026048Y015342D01*
X026127Y015342D01*
X026127Y015045D01*
X026127Y015050D02*
X026107Y015050D01*
X026127Y015128D02*
X026048Y015128D01*
X026048Y015205D02*
X026127Y015205D01*
X026127Y015282D02*
X026048Y015282D01*
X026048Y015359D02*
X025596Y015359D01*
X025596Y015282D02*
X025751Y015282D01*
X025751Y015205D02*
X025596Y015205D01*
X025581Y015128D02*
X025762Y015128D01*
X025751Y015420D02*
X026048Y015420D01*
X026048Y015717D01*
X025872Y015717D01*
X025837Y015708D01*
X025805Y015689D01*
X025779Y015663D01*
X025761Y015632D01*
X025751Y015596D01*
X025751Y015420D01*
X025751Y015437D02*
X025596Y015437D01*
X025596Y015514D02*
X025751Y015514D01*
X025751Y015591D02*
X025596Y015591D01*
X025547Y015668D02*
X025784Y015668D01*
X025849Y015872D02*
X026325Y015872D01*
X026384Y015930D01*
X026384Y016406D01*
X026325Y016465D01*
X025849Y016465D01*
X025791Y016406D01*
X025791Y015930D01*
X025849Y015872D01*
X025821Y015900D02*
X025566Y015900D01*
X025596Y015977D02*
X025791Y015977D01*
X025791Y016055D02*
X025596Y016055D01*
X025596Y016132D02*
X025791Y016132D01*
X025791Y016209D02*
X025596Y016209D01*
X025596Y016286D02*
X025791Y016286D01*
X025791Y016363D02*
X025596Y016363D01*
X025562Y016441D02*
X025826Y016441D01*
X025849Y016659D02*
X026325Y016659D01*
X026384Y016718D01*
X026384Y017194D01*
X026325Y017252D01*
X026226Y017252D01*
X026226Y017407D01*
X026187Y017446D01*
X026187Y017784D01*
X026129Y017842D01*
X025791Y017842D01*
X025751Y017882D01*
X025596Y017882D01*
X025596Y017981D01*
X025538Y018039D01*
X025062Y018039D01*
X025004Y017981D01*
X025004Y017505D01*
X025062Y017447D01*
X025538Y017447D01*
X025594Y017503D01*
X025594Y017308D01*
X025653Y017250D01*
X025848Y017250D01*
X025791Y017194D01*
X025791Y016718D01*
X025849Y016659D01*
X025836Y016672D02*
X025551Y016672D01*
X025538Y016659D02*
X025596Y016718D01*
X025596Y017194D01*
X025538Y017252D01*
X025200Y017252D01*
X025198Y017254D01*
X024994Y017254D01*
X024994Y017276D01*
X024936Y017335D01*
X024133Y017335D01*
X024021Y017447D01*
X024062Y017447D01*
X024120Y017505D01*
X024120Y017981D01*
X024062Y018039D01*
X023586Y018039D01*
X023527Y017981D01*
X023527Y017505D01*
X023586Y017447D01*
X023685Y017447D01*
X023685Y017390D01*
X023926Y017150D01*
X023926Y016954D01*
X023984Y016896D01*
X024936Y016896D01*
X024994Y016954D01*
X024994Y016976D01*
X025004Y016976D01*
X025004Y016718D01*
X025062Y016659D01*
X025538Y016659D01*
X025596Y016750D02*
X025791Y016750D01*
X025791Y016827D02*
X025596Y016827D01*
X025596Y016904D02*
X025791Y016904D01*
X025791Y016981D02*
X025596Y016981D01*
X025596Y017059D02*
X025791Y017059D01*
X025791Y017136D02*
X025596Y017136D01*
X025577Y017213D02*
X025811Y017213D01*
X025612Y017290D02*
X024980Y017290D01*
X025004Y017522D02*
X024809Y017522D01*
X024809Y017599D02*
X025004Y017599D01*
X025004Y017677D02*
X024809Y017677D01*
X024809Y017754D02*
X025004Y017754D01*
X025004Y017831D02*
X024809Y017831D01*
X024809Y017908D02*
X025004Y017908D01*
X025008Y017986D02*
X024804Y017986D01*
X024553Y018063D02*
X025627Y018063D01*
X025594Y018140D02*
X024553Y018140D01*
X024553Y018217D02*
X025594Y018217D01*
X025594Y018294D02*
X025104Y018294D01*
X025104Y018372D02*
X025594Y018372D01*
X025594Y018449D02*
X025104Y018449D01*
X025104Y018526D02*
X025594Y018526D01*
X025626Y018603D02*
X025104Y018603D01*
X025104Y018681D02*
X026041Y018681D01*
X026119Y018758D02*
X025104Y018758D01*
X025162Y018912D02*
X025241Y018912D01*
X025241Y018990D02*
X025162Y018990D01*
X025162Y019067D02*
X025241Y019067D01*
X025241Y019144D02*
X025162Y019144D01*
X025162Y019221D02*
X024947Y019221D01*
X025162Y019299D02*
X025241Y019299D01*
X025241Y019259D02*
X025241Y019556D01*
X025417Y019556D01*
X025452Y019546D01*
X025484Y019528D01*
X025510Y019502D01*
X025528Y019470D01*
X025538Y019435D01*
X025538Y019259D01*
X025241Y019259D01*
X025241Y019221D02*
X025950Y019221D01*
X025950Y019180D02*
X025653Y019180D01*
X025653Y019004D01*
X025662Y018969D01*
X025681Y018937D01*
X025707Y018911D01*
X025738Y018893D01*
X025774Y018883D01*
X025950Y018883D01*
X025950Y019180D01*
X025950Y019144D02*
X026028Y019144D01*
X026028Y019180D02*
X026244Y019180D01*
X026244Y019259D01*
X026028Y019259D01*
X026028Y019180D01*
X026028Y019221D02*
X026244Y019221D01*
X026028Y019299D02*
X025950Y019299D01*
X025950Y019376D02*
X026028Y019376D01*
X026028Y019453D02*
X025950Y019453D01*
X025950Y019530D02*
X026028Y019530D01*
X026244Y019608D02*
X024947Y019608D01*
X024947Y019685D02*
X026244Y019685D01*
X026521Y019685D02*
X026874Y019685D01*
X026874Y019762D02*
X026521Y019762D01*
X026521Y019839D02*
X026874Y019839D01*
X026874Y019917D02*
X026521Y019917D01*
X026521Y019994D02*
X026874Y019994D01*
X026874Y020071D02*
X026521Y020071D01*
X026521Y020148D02*
X026874Y020148D01*
X026874Y020225D02*
X026521Y020225D01*
X026521Y020303D02*
X026874Y020303D01*
X026874Y020380D02*
X026521Y020380D01*
X026521Y020457D02*
X026874Y020457D01*
X026874Y020534D02*
X026521Y020534D01*
X026521Y020612D02*
X026874Y020612D01*
X026874Y020689D02*
X026521Y020689D01*
X026521Y020766D02*
X026874Y020766D01*
X026874Y020843D02*
X026521Y020843D01*
X026521Y020921D02*
X026874Y020921D01*
X026874Y020998D02*
X026521Y020998D01*
X026521Y021075D02*
X026874Y021075D01*
X026874Y021152D02*
X026516Y021152D01*
X026439Y021230D02*
X026874Y021230D01*
X026383Y021090D02*
X026383Y018826D01*
X025891Y018334D01*
X026187Y018372D02*
X026874Y018372D01*
X026874Y018449D02*
X026202Y018449D01*
X026279Y018526D02*
X026874Y018526D01*
X026874Y018603D02*
X026357Y018603D01*
X026434Y018681D02*
X026874Y018681D01*
X026874Y018758D02*
X026511Y018758D01*
X026521Y018835D02*
X026874Y018835D01*
X026874Y018912D02*
X026521Y018912D01*
X026521Y018990D02*
X026874Y018990D01*
X026874Y019067D02*
X026521Y019067D01*
X026521Y019144D02*
X026874Y019144D01*
X026874Y019221D02*
X026521Y019221D01*
X026521Y019299D02*
X026874Y019299D01*
X026874Y019376D02*
X026521Y019376D01*
X026521Y019453D02*
X026874Y019453D01*
X026874Y019530D02*
X026521Y019530D01*
X026521Y019608D02*
X026874Y019608D01*
X026244Y020286D02*
X026227Y020303D01*
X025751Y020303D01*
X025693Y020245D01*
X025693Y020165D01*
X025498Y020165D01*
X025498Y020245D01*
X025440Y020303D01*
X025751Y020303D01*
X025693Y020225D02*
X025498Y020225D01*
X025440Y020303D02*
X025360Y020303D01*
X025360Y020596D01*
X025440Y020596D01*
X025498Y020655D01*
X025498Y021131D01*
X025481Y021148D01*
X025665Y021148D01*
X025662Y021143D01*
X025653Y021108D01*
X025653Y020932D01*
X025950Y020932D01*
X025950Y021148D01*
X026028Y021148D01*
X026028Y020932D01*
X025950Y020932D01*
X025950Y020853D01*
X026028Y020853D01*
X026028Y020556D01*
X026204Y020556D01*
X026240Y020566D01*
X026244Y020568D01*
X026244Y020286D01*
X026244Y020303D02*
X026227Y020303D01*
X026244Y020380D02*
X025360Y020380D01*
X025360Y020457D02*
X026244Y020457D01*
X026244Y020534D02*
X025360Y020534D01*
X025455Y020612D02*
X025680Y020612D01*
X025681Y020610D02*
X025707Y020584D01*
X025738Y020566D01*
X025774Y020556D01*
X025950Y020556D01*
X025950Y020853D01*
X025653Y020853D01*
X025653Y020678D01*
X025662Y020642D01*
X025681Y020610D01*
X025653Y020689D02*
X025498Y020689D01*
X025498Y020766D02*
X025653Y020766D01*
X025653Y020843D02*
X025498Y020843D01*
X025498Y020921D02*
X025950Y020921D01*
X025950Y020998D02*
X026028Y020998D01*
X026028Y020932D02*
X026244Y020932D01*
X026244Y020853D01*
X026028Y020853D01*
X026028Y020932D01*
X026028Y020921D02*
X026244Y020921D01*
X026383Y021090D02*
X026186Y021286D01*
X024503Y021286D01*
X024503Y020893D02*
X024513Y020893D01*
X024808Y020597D01*
X024808Y018531D01*
X024947Y018835D02*
X026196Y018835D01*
X026028Y018912D02*
X025950Y018912D01*
X025950Y018990D02*
X026028Y018990D01*
X026028Y019067D02*
X025950Y019067D01*
X025705Y018912D02*
X025485Y018912D01*
X025534Y018990D02*
X025657Y018990D01*
X025653Y019067D02*
X025538Y019067D01*
X025538Y019144D02*
X025653Y019144D01*
X025653Y019299D02*
X025538Y019299D01*
X025538Y019376D02*
X025653Y019376D01*
X025658Y019453D02*
X025533Y019453D01*
X025480Y019530D02*
X025711Y019530D01*
X025700Y019762D02*
X025491Y019762D01*
X025498Y019839D02*
X025693Y019839D01*
X025241Y019530D02*
X025162Y019530D01*
X025162Y019453D02*
X025241Y019453D01*
X025241Y019376D02*
X025162Y019376D01*
X024669Y019357D02*
X024669Y019279D01*
X024454Y019279D01*
X024454Y019357D01*
X024669Y019357D01*
X024669Y019299D02*
X024454Y019299D01*
X024454Y019279D02*
X024454Y018983D01*
X024375Y019061D01*
X024375Y019279D01*
X024159Y019279D01*
X024159Y019357D01*
X024375Y019357D01*
X024375Y019279D01*
X024454Y019279D01*
X024454Y019221D02*
X024375Y019221D01*
X024375Y019144D02*
X024454Y019144D01*
X024454Y019067D02*
X024375Y019067D01*
X024447Y018990D02*
X024454Y018990D01*
X024316Y018924D02*
X024119Y018924D01*
X024020Y019023D01*
X024020Y020607D01*
X023824Y020607D02*
X023824Y019023D01*
X023627Y018826D01*
X021265Y018826D01*
X020674Y018235D01*
X020674Y017349D01*
X020535Y017677D02*
X020157Y017677D01*
X020183Y017754D02*
X020535Y017754D01*
X020535Y017831D02*
X020183Y017831D01*
X020183Y017908D02*
X020535Y017908D01*
X020535Y017986D02*
X020183Y017986D01*
X020183Y018063D02*
X020535Y018063D01*
X020535Y018140D02*
X020183Y018140D01*
X020144Y018217D02*
X020535Y018217D01*
X020537Y018294D02*
X018804Y018294D01*
X018804Y018372D02*
X020614Y018372D01*
X020692Y018449D02*
X018804Y018449D01*
X018804Y018526D02*
X020769Y018526D01*
X020846Y018603D02*
X018804Y018603D01*
X018804Y018681D02*
X018809Y018681D01*
X019410Y019530D02*
X019577Y019530D01*
X019550Y019608D02*
X019487Y019608D01*
X019719Y019839D02*
X019847Y019839D01*
X019847Y019849D02*
X019847Y019968D01*
X019926Y020046D01*
X019926Y019849D01*
X019847Y019849D01*
X019847Y019917D02*
X019926Y019917D01*
X019926Y019994D02*
X019873Y019994D01*
X019926Y019839D02*
X020870Y019839D01*
X020870Y019762D02*
X020223Y019762D01*
X020223Y019685D02*
X020870Y019685D01*
X020870Y019917D02*
X020223Y019917D01*
X020223Y019994D02*
X020870Y019994D01*
X020870Y020071D02*
X020207Y020071D01*
X019926Y019762D02*
X019847Y019762D01*
X019847Y019685D02*
X019926Y019685D01*
X019926Y019608D02*
X019847Y019608D01*
X019847Y019530D02*
X019926Y019530D01*
X021166Y020696D02*
X021166Y020991D01*
X021363Y021188D01*
X021560Y021483D02*
X021757Y021680D01*
X022554Y021680D01*
X022554Y021877D02*
X021461Y021877D01*
X022052Y022566D02*
X020772Y022566D01*
X019493Y021286D01*
X017387Y021286D01*
X017387Y022074D02*
X019985Y022074D01*
X020576Y022664D01*
X020576Y024239D01*
X021068Y024731D01*
X021265Y024731D01*
X021954Y024731D01*
X023135Y025912D01*
X023922Y025912D01*
X024020Y025519D02*
X025103Y025519D01*
X025891Y026306D01*
X025891Y027782D01*
X026284Y027290D02*
X026284Y029456D01*
X025792Y029948D01*
X023627Y029948D01*
X023627Y030145D02*
X024217Y030145D01*
X024355Y030282D01*
X024454Y030342D01*
X024414Y030342D01*
X024355Y030282D01*
X024020Y030440D02*
X023922Y030342D01*
X023627Y030342D01*
X023627Y030538D02*
X023627Y030637D01*
X024119Y031129D01*
X024611Y031129D01*
X024650Y031129D01*
X024808Y031523D02*
X024414Y031523D01*
X024217Y031326D01*
X024020Y031326D01*
X023528Y030834D01*
X023331Y030834D01*
X023135Y030834D02*
X023135Y031129D01*
X023233Y031227D01*
X023627Y031227D01*
X023863Y031464D01*
X023863Y031759D01*
X024552Y031759D01*
X024709Y031916D01*
X024709Y032999D01*
X025005Y033294D01*
X025202Y033294D01*
X025398Y032704D02*
X025359Y032664D01*
X024965Y032664D01*
X024906Y032605D01*
X024906Y031621D01*
X024808Y031523D01*
X025300Y031818D02*
X025359Y031759D01*
X025398Y032605D02*
X025438Y032645D01*
X025457Y032645D01*
X025398Y032704D01*
X025438Y032645D02*
X025497Y032704D01*
X026186Y032704D01*
X025891Y030735D02*
X024119Y030735D01*
X024020Y030637D01*
X024020Y030440D01*
X023627Y029751D02*
X025398Y029751D01*
X025891Y029259D01*
X025891Y028570D01*
X025497Y029160D02*
X025497Y027290D01*
X026284Y026503D02*
X026284Y026306D01*
X025300Y025322D01*
X024217Y025322D01*
X023627Y024731D01*
X023627Y022556D01*
X023824Y022556D02*
X023824Y024436D01*
X024119Y024731D01*
X025497Y024731D01*
X025103Y024338D02*
X024217Y024338D01*
X024020Y024141D01*
X024020Y022556D01*
X024217Y022556D02*
X024709Y023048D01*
X024709Y023944D01*
X024906Y022566D02*
X024906Y022271D01*
X024709Y022074D01*
X024503Y022074D01*
X023627Y021483D02*
X023528Y021483D01*
X023528Y021582D01*
X023135Y021975D02*
X023135Y022074D01*
X023036Y022074D01*
X022839Y022556D02*
X022652Y022556D01*
X022446Y022763D01*
X022446Y024534D01*
X022347Y024633D01*
X021954Y025027D02*
X023430Y026503D01*
X023430Y026700D01*
X023233Y026897D01*
X023036Y026897D01*
X022741Y027192D01*
X022741Y028471D01*
X022938Y028471D02*
X022938Y029160D01*
X022446Y029653D01*
X022347Y029751D01*
X021265Y029751D01*
X021265Y029948D02*
X022150Y029948D01*
X022249Y029849D01*
X022347Y029751D01*
X022249Y029849D02*
X021757Y030342D01*
X021757Y030834D01*
X021954Y030834D02*
X021954Y031188D01*
X022150Y031326D01*
X022150Y031424D01*
X022150Y031326D02*
X022347Y031188D01*
X022347Y030834D01*
X022150Y030834D02*
X022150Y031286D01*
X022111Y031326D01*
X021363Y031326D01*
X021560Y030834D02*
X021166Y030834D01*
X020713Y031286D01*
X020772Y031424D01*
X020772Y030637D02*
X020812Y030538D01*
X021265Y030538D01*
X020772Y029849D02*
X020772Y029790D01*
X021009Y029554D01*
X021265Y029554D01*
X021265Y029357D02*
X020517Y029357D01*
X020280Y029062D01*
X020241Y029062D01*
X020477Y028668D02*
X020772Y028668D01*
X021068Y028964D01*
X021265Y028964D01*
X021265Y029160D02*
X020969Y029160D01*
X020871Y029062D01*
X020772Y029062D01*
X020477Y028668D02*
X020379Y028570D01*
X020379Y028275D01*
X020280Y028275D01*
X020871Y028275D02*
X021265Y028570D01*
X021265Y028767D01*
X021560Y028471D02*
X021560Y027389D01*
X021265Y027094D01*
X020772Y027094D01*
X020772Y026798D01*
X020772Y027094D02*
X020280Y027094D01*
X020182Y027192D01*
X020182Y026405D02*
X021560Y026405D01*
X021757Y026601D01*
X021757Y028471D01*
X021954Y028471D02*
X021954Y025420D01*
X021757Y025223D01*
X020871Y025223D01*
X020674Y025027D01*
X019887Y025814D01*
X018706Y025814D01*
X018509Y026011D01*
X018509Y027192D01*
X018115Y027586D01*
X017623Y027586D01*
X016639Y028570D01*
X016639Y041956D01*
X015556Y043038D01*
X015556Y045105D01*
X015753Y045302D01*
X018312Y045302D01*
X018607Y045007D01*
X018607Y044318D01*
X018107Y044318D02*
X018107Y044916D01*
X017918Y045105D01*
X015950Y045105D01*
X015753Y044908D01*
X015753Y043137D01*
X016835Y042054D01*
X016835Y028668D01*
X017721Y027782D01*
X018213Y027782D01*
X018706Y027290D01*
X018706Y026208D01*
X018902Y026011D01*
X020083Y026011D01*
X020674Y025420D01*
X020674Y025027D02*
X019985Y024338D01*
X019985Y022763D01*
X019690Y022468D01*
X017387Y022468D01*
X017387Y022271D02*
X019788Y022271D01*
X020280Y022763D01*
X020280Y024338D01*
X020969Y025027D01*
X021954Y025027D01*
X022347Y026011D02*
X022150Y026208D01*
X022150Y028471D01*
X022347Y028471D02*
X022347Y026700D01*
X022741Y026306D01*
X022839Y026601D02*
X022544Y026897D01*
X022544Y028471D01*
X023331Y028471D02*
X023528Y028275D01*
X023528Y027979D01*
X023528Y027782D01*
X023922Y028373D02*
X023922Y026700D01*
X023135Y026601D02*
X022839Y026601D01*
X024020Y025519D02*
X023430Y024928D01*
X023430Y022556D01*
X023186Y020341D02*
X023186Y020303D01*
X023373Y020303D01*
X024159Y019826D02*
X024176Y019809D01*
X024652Y019809D01*
X024669Y019826D01*
X024669Y019642D01*
X024665Y019645D01*
X024629Y019654D01*
X024454Y019654D01*
X024454Y019357D01*
X024375Y019357D01*
X024375Y019654D01*
X024199Y019654D01*
X024164Y019645D01*
X024159Y019642D01*
X024159Y019826D01*
X024159Y019762D02*
X024669Y019762D01*
X024669Y019685D02*
X024159Y019685D01*
X024375Y019608D02*
X024454Y019608D01*
X024454Y019530D02*
X024375Y019530D01*
X024375Y019453D02*
X024454Y019453D01*
X024454Y019376D02*
X024375Y019376D01*
X024375Y019299D02*
X024159Y019299D01*
X024316Y018924D02*
X024414Y018826D01*
X024414Y017842D01*
X024513Y017743D01*
X024216Y017754D02*
X024120Y017754D01*
X024120Y017831D02*
X024216Y017831D01*
X024216Y017908D02*
X024120Y017908D01*
X024115Y017986D02*
X024221Y017986D01*
X024275Y018039D02*
X024275Y018039D01*
X024275Y018063D02*
X021206Y018063D01*
X021206Y017986D02*
X022744Y017986D01*
X022740Y017908D02*
X021206Y017908D01*
X021206Y017831D02*
X022740Y017831D01*
X022740Y017754D02*
X021206Y017754D01*
X021206Y017677D02*
X021212Y017677D01*
X021422Y017677D02*
X021501Y017677D01*
X021501Y017686D02*
X021501Y017389D01*
X021422Y017389D01*
X021422Y017310D01*
X021501Y017310D01*
X021501Y017389D01*
X021798Y017389D01*
X021798Y017565D01*
X021788Y017600D01*
X021770Y017632D01*
X021744Y017658D01*
X021712Y017676D01*
X021677Y017686D01*
X021501Y017686D01*
X021501Y017599D02*
X021422Y017599D01*
X021422Y017522D02*
X021501Y017522D01*
X021501Y017445D02*
X021422Y017445D01*
X021422Y017368D02*
X021206Y017368D01*
X021422Y017290D02*
X021501Y017290D01*
X021501Y017310D02*
X021501Y017013D01*
X021677Y017013D01*
X021712Y017023D01*
X021744Y017041D01*
X021770Y017067D01*
X021788Y017099D01*
X021798Y017134D01*
X021798Y017310D01*
X021501Y017310D01*
X021501Y017368D02*
X022465Y017368D01*
X022542Y017445D02*
X021798Y017445D01*
X021798Y017522D02*
X022619Y017522D01*
X022696Y017599D02*
X021788Y017599D01*
X021710Y017677D02*
X022740Y017677D01*
X022934Y017445D02*
X023685Y017445D01*
X023708Y017368D02*
X022857Y017368D01*
X023036Y017743D02*
X022408Y017115D01*
X022400Y017115D01*
X022400Y016615D02*
X021515Y016615D01*
X021461Y016562D01*
X021165Y016518D02*
X021121Y016518D01*
X021165Y016441D02*
X021044Y016441D01*
X020970Y016363D02*
X021165Y016363D01*
X021165Y016286D02*
X020970Y016286D01*
X020970Y016209D02*
X021145Y016209D01*
X021113Y016132D02*
X020970Y016132D01*
X020970Y016055D02*
X021109Y016055D01*
X021126Y015977D02*
X020970Y015977D01*
X020970Y015900D02*
X021165Y015900D01*
X021174Y015823D02*
X020961Y015823D01*
X020970Y015514D02*
X021165Y015514D01*
X021165Y015437D02*
X020970Y015437D01*
X020970Y015128D02*
X021165Y015128D01*
X021165Y015050D02*
X020970Y015050D01*
X021355Y014896D02*
X023134Y014896D01*
X023134Y014973D02*
X018916Y014973D01*
X018832Y014664D02*
X018804Y014664D01*
X018804Y014587D02*
X020279Y014587D01*
X020279Y014510D02*
X018804Y014510D01*
X018804Y014432D02*
X020279Y014432D01*
X020279Y014355D02*
X018804Y014355D01*
X018804Y014278D02*
X020279Y014278D01*
X020279Y014201D02*
X018804Y014201D01*
X018804Y014124D02*
X020315Y014124D01*
X020837Y014124D02*
X021102Y014124D01*
X021067Y014201D02*
X020872Y014201D01*
X020872Y014278D02*
X021067Y014278D01*
X021067Y014355D02*
X020872Y014355D01*
X020872Y014432D02*
X021067Y014432D01*
X021067Y014510D02*
X020872Y014510D01*
X020872Y014587D02*
X021067Y014587D01*
X021432Y014819D02*
X023134Y014819D01*
X023199Y014741D02*
X021502Y014741D01*
X021630Y014664D02*
X021932Y014664D01*
X021940Y014679D02*
X021922Y014647D01*
X021913Y014612D01*
X021913Y014436D01*
X022209Y014436D01*
X022209Y014357D01*
X021913Y014357D01*
X021913Y014181D01*
X021922Y014146D01*
X021940Y014114D01*
X021966Y014088D01*
X021998Y014070D01*
X022034Y014060D01*
X022209Y014060D01*
X022209Y014357D01*
X022288Y014357D01*
X022288Y014060D01*
X022464Y014060D01*
X022499Y014070D01*
X022531Y014088D01*
X022557Y014114D01*
X022576Y014146D01*
X022585Y014181D01*
X022585Y014357D01*
X022288Y014357D01*
X022288Y014436D01*
X022209Y014436D01*
X022209Y014733D01*
X022034Y014733D01*
X021998Y014723D01*
X021966Y014705D01*
X021940Y014679D01*
X021913Y014587D02*
X021659Y014587D01*
X021659Y014510D02*
X021913Y014510D01*
X021913Y014355D02*
X021659Y014355D01*
X021659Y014278D02*
X021913Y014278D01*
X021913Y014201D02*
X021659Y014201D01*
X021624Y014124D02*
X021935Y014124D01*
X022209Y014124D02*
X022288Y014124D01*
X022288Y014201D02*
X022209Y014201D01*
X022209Y014278D02*
X022288Y014278D01*
X022288Y014355D02*
X022209Y014355D01*
X022209Y014432D02*
X021659Y014432D01*
X021502Y014046D02*
X023190Y014046D01*
X023268Y013969D02*
X021502Y013969D01*
X021502Y013892D02*
X023345Y013892D01*
X023422Y013815D02*
X021502Y013815D01*
X021502Y013737D02*
X023499Y013737D01*
X023577Y013660D02*
X021502Y013660D01*
X021502Y013583D02*
X023654Y013583D01*
X023629Y013506D02*
X021502Y013506D01*
X021502Y013428D02*
X023577Y013428D01*
X023577Y013351D02*
X021502Y013351D01*
X021502Y013274D02*
X023577Y013274D01*
X023577Y013197D02*
X021502Y013197D01*
X021502Y013119D02*
X021728Y013119D01*
X021588Y013042D02*
X021502Y013042D01*
X021502Y012965D02*
X021511Y012965D01*
X021224Y012965D02*
X019937Y012965D01*
X019937Y013042D02*
X021224Y013042D01*
X021224Y013119D02*
X019937Y013119D01*
X019937Y013197D02*
X021224Y013197D01*
X021224Y013274D02*
X019900Y013274D01*
X019879Y013295D02*
X019107Y013295D01*
X019049Y013237D01*
X019049Y012328D01*
X019107Y012270D01*
X018804Y012270D01*
X018804Y012347D02*
X019049Y012347D01*
X019049Y012424D02*
X018804Y012424D01*
X018804Y012501D02*
X019049Y012501D01*
X019049Y012579D02*
X018804Y012579D01*
X018804Y012656D02*
X019049Y012656D01*
X019049Y012733D02*
X018804Y012733D01*
X018804Y012810D02*
X019049Y012810D01*
X019049Y012888D02*
X018804Y012888D01*
X018804Y012965D02*
X019049Y012965D01*
X019049Y013042D02*
X018804Y013042D01*
X018804Y013119D02*
X019049Y013119D01*
X019049Y013197D02*
X018804Y013197D01*
X018804Y013274D02*
X019086Y013274D01*
X018804Y013351D02*
X021224Y013351D01*
X021224Y013428D02*
X018804Y013428D01*
X018804Y013506D02*
X021224Y013506D01*
X021224Y013583D02*
X018804Y013583D01*
X018804Y013660D02*
X021224Y013660D01*
X021224Y013737D02*
X018804Y013737D01*
X018804Y013815D02*
X021224Y013815D01*
X021224Y013892D02*
X018804Y013892D01*
X018804Y013969D02*
X021224Y013969D01*
X021224Y014046D02*
X018804Y014046D01*
X019879Y013295D02*
X019937Y013237D01*
X019937Y012618D01*
X020520Y012035D01*
X020807Y012035D01*
X020825Y012053D01*
X020919Y012092D01*
X021020Y012092D01*
X021113Y012053D01*
X021185Y011982D01*
X021224Y011888D01*
X021224Y011787D01*
X021185Y011694D01*
X021113Y011622D01*
X021020Y011583D01*
X020919Y011583D01*
X020825Y011622D01*
X020807Y011640D01*
X020356Y011640D01*
X019726Y012270D01*
X019107Y012270D01*
X019107Y012035D02*
X019049Y011977D01*
X019049Y011186D01*
X019107Y011128D01*
X019879Y011128D01*
X019937Y011186D01*
X019937Y011977D01*
X019879Y012035D01*
X019107Y012035D01*
X019049Y011961D02*
X018804Y011961D01*
X018804Y012038D02*
X019958Y012038D01*
X019937Y011961D02*
X020035Y011961D01*
X020112Y011884D02*
X019937Y011884D01*
X019937Y011806D02*
X020189Y011806D01*
X020267Y011729D02*
X019937Y011729D01*
X019937Y011652D02*
X020344Y011652D01*
X019937Y011575D02*
X021331Y011575D01*
X021254Y011652D02*
X021143Y011652D01*
X021200Y011729D02*
X021224Y011729D01*
X021224Y011806D02*
X021224Y011806D01*
X021224Y011884D02*
X021224Y011884D01*
X021224Y011961D02*
X021194Y011961D01*
X021224Y012038D02*
X021129Y012038D01*
X021224Y012115D02*
X020440Y012115D01*
X020517Y012038D02*
X020810Y012038D01*
X021224Y012192D02*
X020363Y012192D01*
X020285Y012270D02*
X021224Y012270D01*
X021224Y012347D02*
X020208Y012347D01*
X020131Y012424D02*
X021224Y012424D01*
X021224Y012501D02*
X020054Y012501D01*
X019976Y012579D02*
X021224Y012579D01*
X021224Y012656D02*
X019937Y012656D01*
X019937Y012733D02*
X021224Y012733D01*
X021224Y012810D02*
X019937Y012810D01*
X019937Y012888D02*
X021224Y012888D01*
X021502Y012424D02*
X021568Y012424D01*
X021502Y012347D02*
X021681Y012347D01*
X021502Y012270D02*
X023577Y012270D01*
X023577Y012347D02*
X022029Y012347D01*
X022142Y012424D02*
X023577Y012424D01*
X023577Y012501D02*
X022212Y012501D01*
X022244Y012579D02*
X023577Y012579D01*
X023577Y012656D02*
X022269Y012656D01*
X022269Y012733D02*
X023577Y012733D01*
X023577Y012810D02*
X022268Y012810D01*
X022236Y012888D02*
X023577Y012888D01*
X023577Y012965D02*
X022200Y012965D01*
X022122Y013042D02*
X023577Y013042D01*
X023577Y013119D02*
X021982Y013119D01*
X022563Y014124D02*
X022775Y014124D01*
X022740Y014201D02*
X022585Y014201D01*
X022585Y014278D02*
X022740Y014278D01*
X022740Y014355D02*
X022585Y014355D01*
X022585Y014436D02*
X022585Y014612D01*
X022576Y014647D01*
X022557Y014679D01*
X022531Y014705D01*
X022499Y014723D01*
X022464Y014733D01*
X022288Y014733D01*
X022288Y014436D01*
X022585Y014436D01*
X022585Y014510D02*
X022740Y014510D01*
X022740Y014587D02*
X022585Y014587D01*
X022566Y014664D02*
X022770Y014664D01*
X022740Y014432D02*
X022288Y014432D01*
X022288Y014510D02*
X022209Y014510D01*
X022209Y014587D02*
X022288Y014587D01*
X022288Y014664D02*
X022209Y014664D01*
X021758Y015050D02*
X023134Y015050D01*
X023134Y015128D02*
X021758Y015128D01*
X021758Y015205D02*
X023134Y015205D01*
X023134Y015282D02*
X021758Y015282D01*
X021758Y015359D02*
X023134Y015359D01*
X023134Y015437D02*
X022917Y015437D01*
X022934Y015514D02*
X023134Y015514D01*
X023134Y015591D02*
X022934Y015591D01*
X022934Y015668D02*
X023134Y015668D01*
X023134Y015746D02*
X022934Y015746D01*
X022888Y015823D02*
X023102Y015823D01*
X023025Y015900D02*
X022880Y015900D01*
X023198Y016286D02*
X023527Y016286D01*
X023527Y016209D02*
X023275Y016209D01*
X023352Y016132D02*
X023527Y016132D01*
X023527Y016055D02*
X023430Y016055D01*
X023507Y015977D02*
X023527Y015977D01*
X023527Y016363D02*
X021758Y016363D01*
X021758Y016286D02*
X021875Y016286D01*
X021879Y016441D02*
X021758Y016441D01*
X021731Y016827D02*
X021916Y016827D01*
X021915Y016904D02*
X021206Y016904D01*
X021206Y016981D02*
X021866Y016981D01*
X021866Y017059D02*
X021761Y017059D01*
X021798Y017136D02*
X021866Y017136D01*
X021866Y017213D02*
X021798Y017213D01*
X021798Y017290D02*
X021880Y017290D01*
X021501Y017213D02*
X021422Y017213D01*
X021422Y017136D02*
X021501Y017136D01*
X021501Y017059D02*
X021422Y017059D01*
X020929Y017059D02*
X020917Y017059D01*
X020929Y016981D02*
X020223Y016981D01*
X020214Y016904D02*
X020929Y016904D01*
X021068Y016660D02*
X020969Y016562D01*
X020674Y016562D01*
X020674Y016070D01*
X021363Y016070D02*
X021461Y016070D01*
X021507Y016115D01*
X022400Y016115D01*
X022400Y015615D02*
X021794Y015615D01*
X021812Y015437D02*
X021883Y015437D01*
X022921Y016441D02*
X023527Y016441D01*
X023527Y016518D02*
X022934Y016518D01*
X022934Y016595D02*
X023527Y016595D01*
X023527Y016672D02*
X022934Y016672D01*
X022934Y016750D02*
X023527Y016750D01*
X023527Y016827D02*
X022884Y016827D01*
X022884Y016904D02*
X023497Y016904D01*
X023748Y017213D02*
X023862Y017213D01*
X023825Y017136D02*
X023926Y017136D01*
X023926Y017059D02*
X023902Y017059D01*
X023923Y016981D02*
X023926Y016981D01*
X023923Y016904D02*
X023975Y016904D01*
X023976Y016827D02*
X023923Y016827D01*
X023923Y016750D02*
X023926Y016750D01*
X023923Y016672D02*
X023926Y016672D01*
X023923Y016595D02*
X023926Y016595D01*
X023923Y016518D02*
X023926Y016518D01*
X023923Y016441D02*
X023939Y016441D01*
X023923Y016363D02*
X023968Y016363D01*
X024439Y016363D02*
X024481Y016363D01*
X024481Y016286D02*
X024439Y016286D01*
X024439Y016209D02*
X024481Y016209D01*
X024481Y016132D02*
X025004Y016132D01*
X024997Y015900D02*
X025034Y015900D01*
X024948Y015823D02*
X026874Y015823D01*
X026874Y015900D02*
X026353Y015900D01*
X026384Y015977D02*
X026874Y015977D01*
X026874Y016055D02*
X026384Y016055D01*
X026384Y016132D02*
X026874Y016132D01*
X026874Y016209D02*
X026384Y016209D01*
X026384Y016286D02*
X026874Y016286D01*
X026874Y016363D02*
X026384Y016363D01*
X026349Y016441D02*
X026874Y016441D01*
X026874Y016518D02*
X025147Y016518D01*
X025069Y016595D02*
X026874Y016595D01*
X026874Y016672D02*
X026338Y016672D01*
X026384Y016750D02*
X026874Y016750D01*
X026874Y016827D02*
X026384Y016827D01*
X026384Y016904D02*
X026874Y016904D01*
X026874Y016981D02*
X026384Y016981D01*
X026384Y017059D02*
X026874Y017059D01*
X026874Y017136D02*
X026384Y017136D01*
X026364Y017213D02*
X026874Y017213D01*
X026874Y017290D02*
X026226Y017290D01*
X026226Y017368D02*
X026874Y017368D01*
X026874Y017445D02*
X026188Y017445D01*
X026187Y017522D02*
X026874Y017522D01*
X026874Y017599D02*
X026187Y017599D01*
X026187Y017677D02*
X026874Y017677D01*
X026874Y017754D02*
X026187Y017754D01*
X026140Y017831D02*
X026874Y017831D01*
X026874Y017908D02*
X025596Y017908D01*
X025592Y017986D02*
X026874Y017986D01*
X026874Y018063D02*
X026154Y018063D01*
X026187Y018140D02*
X026874Y018140D01*
X026874Y018217D02*
X026187Y018217D01*
X026187Y018294D02*
X026874Y018294D01*
X026087Y017349D02*
X025891Y017546D01*
X025694Y017743D01*
X025300Y017743D01*
X025594Y017445D02*
X024023Y017445D01*
X024100Y017368D02*
X025594Y017368D01*
X026087Y017349D02*
X026087Y016956D01*
X026874Y015746D02*
X025132Y015746D01*
X025066Y015615D02*
X024460Y015615D01*
X024439Y015900D02*
X024481Y015900D01*
X024481Y015977D02*
X024439Y015977D01*
X024439Y016055D02*
X024481Y016055D01*
X024460Y016115D02*
X024664Y016115D01*
X024709Y016070D01*
X024853Y016615D02*
X024460Y016615D01*
X024853Y016615D02*
X025300Y016168D01*
X025049Y016672D02*
X024994Y016672D01*
X024994Y016750D02*
X025004Y016750D01*
X025004Y016827D02*
X024944Y016827D01*
X024944Y016904D02*
X025004Y016904D01*
X025141Y017115D02*
X025300Y016956D01*
X025141Y017115D02*
X024460Y017115D01*
X024423Y017153D01*
X024119Y017153D01*
X023824Y017448D01*
X023824Y017743D01*
X023527Y017754D02*
X023332Y017754D01*
X023332Y017831D02*
X023527Y017831D01*
X023527Y017908D02*
X023332Y017908D01*
X023328Y017986D02*
X023532Y017986D01*
X023527Y017677D02*
X023332Y017677D01*
X023332Y017599D02*
X023527Y017599D01*
X023527Y017522D02*
X023332Y017522D01*
X023670Y017290D02*
X023785Y017290D01*
X024120Y017522D02*
X024216Y017522D01*
X024216Y017599D02*
X024120Y017599D01*
X024120Y017677D02*
X024216Y017677D01*
X024275Y018140D02*
X021267Y018140D01*
X021344Y018217D02*
X024275Y018217D01*
X024020Y018531D02*
X021461Y018531D01*
X021068Y018137D01*
X021068Y016660D01*
X020431Y017059D02*
X020223Y017059D01*
X020390Y017599D02*
X018804Y017599D01*
X017524Y016956D02*
X018706Y015775D01*
X017524Y016168D02*
X017131Y016562D01*
X015950Y016562D01*
X015654Y016857D01*
X015654Y017586D01*
X015851Y017586D02*
X015851Y017054D01*
X015950Y016956D01*
X017524Y016956D01*
X017032Y016365D02*
X015457Y016365D01*
X015064Y016759D01*
X015064Y017586D01*
X014867Y017586D02*
X014867Y016562D01*
X015359Y016070D01*
X016835Y016070D01*
X017131Y015775D01*
X017131Y011542D01*
X017524Y011149D01*
X018174Y011149D01*
X018804Y011111D02*
X021795Y011111D01*
X021872Y011034D02*
X018804Y011034D01*
X018804Y010957D02*
X019055Y010957D01*
X019063Y010965D02*
X019037Y010939D01*
X019019Y010907D01*
X019009Y010872D01*
X019009Y010322D01*
X019454Y010322D01*
X019454Y010993D01*
X019130Y010993D01*
X019095Y010983D01*
X019063Y010965D01*
X019011Y010879D02*
X018804Y010879D01*
X018804Y010802D02*
X019009Y010802D01*
X019009Y010725D02*
X018804Y010725D01*
X018804Y010648D02*
X019009Y010648D01*
X019009Y010570D02*
X018804Y010570D01*
X018804Y010493D02*
X019009Y010493D01*
X019009Y010416D02*
X018804Y010416D01*
X018804Y010339D02*
X019009Y010339D01*
X019009Y010243D02*
X019009Y009693D01*
X019019Y009658D01*
X019037Y009626D01*
X019063Y009600D01*
X019095Y009582D01*
X019130Y009572D01*
X019454Y009572D01*
X019454Y010243D01*
X019532Y010243D01*
X019532Y009572D01*
X019856Y009572D01*
X019891Y009582D01*
X019923Y009600D01*
X019949Y009626D01*
X019967Y009658D01*
X019977Y009693D01*
X019977Y010243D01*
X019532Y010243D01*
X019532Y010322D01*
X019454Y010322D01*
X019454Y010243D01*
X019009Y010243D01*
X019009Y010184D02*
X018725Y010184D01*
X018649Y010107D02*
X019009Y010107D01*
X019009Y010030D02*
X012661Y010030D01*
X012641Y010010D02*
X012758Y010127D01*
X012821Y010279D01*
X012821Y010444D01*
X012758Y010596D01*
X012641Y010712D01*
X012489Y010776D01*
X012324Y010776D01*
X012172Y010712D01*
X012055Y010596D01*
X011992Y010444D01*
X011992Y010279D01*
X012055Y010127D01*
X012172Y010010D01*
X012324Y009947D01*
X012489Y009947D01*
X012641Y010010D01*
X012738Y010107D02*
X015416Y010107D01*
X015339Y010184D02*
X012781Y010184D01*
X012813Y010261D02*
X015262Y010261D01*
X015261Y010339D02*
X012821Y010339D01*
X012821Y010416D02*
X015261Y010416D01*
X015261Y010493D02*
X012800Y010493D01*
X012768Y010570D02*
X014153Y010570D01*
X014128Y010648D02*
X012706Y010648D01*
X012611Y010725D02*
X014128Y010725D01*
X014128Y010802D02*
X010528Y010802D01*
X010528Y010872D02*
X010518Y010907D01*
X010500Y010939D01*
X010474Y010965D01*
X010442Y010983D01*
X010407Y010993D01*
X010083Y010993D01*
X010083Y010322D01*
X010528Y010322D01*
X010528Y010872D01*
X010526Y010879D02*
X014128Y010879D01*
X014128Y010957D02*
X010482Y010957D01*
X010488Y011188D02*
X013155Y011188D01*
X013232Y011111D02*
X009650Y011111D01*
X010005Y010957D02*
X010083Y010957D01*
X010083Y010879D02*
X010005Y010879D01*
X010005Y010802D02*
X010083Y010802D01*
X010083Y010725D02*
X010005Y010725D01*
X010005Y010648D02*
X010083Y010648D01*
X010083Y010570D02*
X010005Y010570D01*
X010005Y010493D02*
X010083Y010493D01*
X010083Y010416D02*
X010005Y010416D01*
X010005Y010339D02*
X010083Y010339D01*
X010044Y010282D02*
X010123Y010282D01*
X010143Y010263D01*
X010083Y010261D02*
X011999Y010261D01*
X011992Y010339D02*
X010528Y010339D01*
X010528Y010416D02*
X011992Y010416D01*
X012013Y010493D02*
X010528Y010493D01*
X010528Y010570D02*
X012044Y010570D01*
X012107Y010648D02*
X010528Y010648D01*
X010528Y010725D02*
X012202Y010725D01*
X012031Y010184D02*
X010528Y010184D01*
X010528Y010107D02*
X012075Y010107D01*
X012152Y010030D02*
X010528Y010030D01*
X010528Y009953D02*
X012310Y009953D01*
X012502Y009953D02*
X019009Y009953D01*
X019009Y009875D02*
X010528Y009875D01*
X010528Y009798D02*
X019009Y009798D01*
X019009Y009721D02*
X010528Y009721D01*
X010510Y009644D02*
X019027Y009644D01*
X019454Y009644D02*
X019532Y009644D01*
X019532Y009721D02*
X019454Y009721D01*
X019454Y009798D02*
X019532Y009798D01*
X019532Y009875D02*
X019454Y009875D01*
X019454Y009953D02*
X019532Y009953D01*
X019532Y010030D02*
X019454Y010030D01*
X019454Y010107D02*
X019532Y010107D01*
X019532Y010184D02*
X019454Y010184D01*
X019454Y010261D02*
X018803Y010261D01*
X018804Y011188D02*
X019049Y011188D01*
X019049Y011266D02*
X018804Y011266D01*
X018804Y011343D02*
X019049Y011343D01*
X019049Y011420D02*
X018804Y011420D01*
X018804Y011497D02*
X019049Y011497D01*
X019049Y011575D02*
X018804Y011575D01*
X018804Y011652D02*
X019049Y011652D01*
X019049Y011729D02*
X018804Y011729D01*
X018804Y011806D02*
X019049Y011806D01*
X019049Y011884D02*
X018804Y011884D01*
X018804Y012115D02*
X019880Y012115D01*
X019803Y012192D02*
X018804Y012192D01*
X018174Y011936D02*
X017820Y011936D01*
X017328Y012428D01*
X017328Y016070D01*
X017032Y016365D01*
X017524Y016168D02*
X017524Y012920D01*
X017721Y012723D01*
X018174Y012723D01*
X016934Y012920D02*
X016934Y015578D01*
X016639Y015873D01*
X015162Y015873D01*
X014670Y016365D01*
X014670Y017586D01*
X014473Y017586D02*
X014473Y016267D01*
X015556Y015184D01*
X015556Y012133D01*
X015753Y011936D01*
X016107Y011936D01*
X016107Y011149D02*
X015654Y011149D01*
X015359Y011444D01*
X015359Y014987D01*
X014276Y016070D01*
X014276Y017586D01*
X013686Y017586D02*
X013686Y018727D01*
X012997Y018727D02*
X012898Y018629D01*
X012898Y017586D01*
X012702Y017586D02*
X012702Y019121D01*
X013194Y018137D02*
X013095Y018038D01*
X013095Y017586D01*
X012702Y020105D02*
X012702Y024830D01*
X012111Y024830D01*
X011914Y025027D01*
X011914Y025971D01*
X011717Y025971D02*
X011717Y025420D01*
X011619Y025322D01*
X010930Y025971D02*
X010930Y030932D01*
X009749Y032113D01*
X007585Y032113D01*
X007583Y032111D01*
X007583Y032544D02*
X009810Y032544D01*
X009847Y032507D01*
X010536Y033294D02*
X010420Y033410D01*
X007583Y033410D01*
X007583Y032977D02*
X008152Y032977D01*
X008174Y032999D01*
X008133Y033844D02*
X007583Y033844D01*
X007583Y034277D02*
X009058Y034277D01*
X008371Y035066D02*
X008270Y035166D01*
X007721Y035166D01*
X008174Y033885D02*
X008133Y033844D01*
X008174Y030735D02*
X008148Y030710D01*
X007633Y030710D01*
X009749Y029849D02*
X010005Y029987D01*
X010005Y030641D01*
X010733Y029912D01*
X010733Y025971D01*
X012505Y025971D02*
X012505Y025322D01*
X012702Y024830D02*
X012898Y024830D01*
X015064Y024830D01*
X015064Y025971D01*
X015261Y025971D02*
X015261Y026405D01*
X015162Y026503D01*
X014965Y026503D01*
X014867Y026601D01*
X014867Y025971D01*
X015457Y025971D02*
X015457Y026897D01*
X015261Y027094D01*
X015654Y027881D02*
X015654Y025971D01*
X015851Y025971D02*
X015851Y025322D01*
X015950Y025223D01*
X016146Y025420D02*
X016737Y025420D01*
X017131Y025814D01*
X017328Y025912D01*
X017328Y026700D01*
X018115Y026700D02*
X018115Y025912D01*
X018509Y025420D02*
X018312Y025223D01*
X017387Y025223D01*
X017387Y025027D02*
X018017Y025027D01*
X018115Y024928D01*
X018115Y024338D01*
X018213Y024239D01*
X019099Y024239D01*
X019198Y024141D01*
X019198Y023845D01*
X019237Y023806D01*
X019296Y023747D01*
X019296Y023058D01*
X018607Y023747D02*
X018568Y023786D01*
X018568Y023806D01*
X018056Y023806D01*
X017918Y023944D01*
X017918Y024534D01*
X017820Y024633D01*
X017387Y024633D01*
X017387Y024830D02*
X015064Y024830D01*
X016048Y025519D02*
X016146Y025420D01*
X016048Y025519D02*
X016048Y025971D01*
X016245Y025971D02*
X016245Y026503D01*
X016146Y026601D01*
X016442Y026995D02*
X016442Y025971D01*
X016639Y025971D02*
X016639Y027684D01*
X016442Y027881D01*
X016442Y028078D01*
X016245Y028275D01*
X016245Y030538D01*
X015654Y031129D01*
X015654Y040479D01*
X014670Y041464D01*
X014670Y043334D01*
X012209Y045794D01*
X012209Y046188D01*
X012372Y046385D02*
X012354Y046404D01*
X012260Y046442D01*
X012159Y046442D01*
X012065Y046404D01*
X012053Y046391D01*
X012053Y046463D01*
X012251Y046463D01*
X012309Y046521D01*
X012309Y046640D01*
X012449Y046640D01*
X012703Y046893D01*
X012703Y047171D01*
X021925Y047171D01*
X021922Y047167D01*
X021913Y047132D01*
X021913Y046838D01*
X022131Y046838D01*
X022013Y046838D01*
X021757Y046582D01*
X021913Y046564D02*
X017161Y046564D01*
X017150Y046536D02*
X017188Y046630D01*
X017188Y046731D01*
X017150Y046824D01*
X017078Y046896D01*
X016984Y046934D01*
X016883Y046934D01*
X016790Y046896D01*
X016718Y046824D01*
X016716Y046819D01*
X016581Y046819D01*
X016500Y046738D01*
X016205Y046443D01*
X016168Y046531D01*
X016096Y046604D01*
X016001Y046643D01*
X015898Y046643D01*
X015803Y046604D01*
X015731Y046531D01*
X015691Y046436D01*
X015691Y046385D01*
X012372Y046385D01*
X012338Y046410D02*
X015691Y046410D01*
X015713Y046487D02*
X015602Y046487D01*
X015597Y046482D02*
X015655Y046541D01*
X015655Y047017D01*
X015597Y047075D01*
X015121Y047075D01*
X015063Y047017D01*
X015063Y046541D01*
X015121Y046482D01*
X015597Y046482D01*
X015655Y046564D02*
X015764Y046564D01*
X015655Y046642D02*
X015895Y046642D01*
X016004Y046642D02*
X016404Y046642D01*
X016481Y046719D02*
X015655Y046719D01*
X015655Y046796D02*
X016558Y046796D01*
X016639Y046680D02*
X016934Y046680D01*
X016934Y046582D01*
X017098Y046485D02*
X017150Y046536D01*
X017127Y046485D02*
X017098Y046485D01*
X017101Y046487D02*
X021934Y046487D01*
X021940Y046476D02*
X021922Y046508D01*
X021913Y046544D01*
X021913Y046838D01*
X022131Y046838D01*
X022131Y046838D01*
X022131Y046423D01*
X022228Y046423D01*
X022263Y046432D01*
X022295Y046450D01*
X022307Y046463D01*
X022504Y046463D01*
X022504Y046385D01*
X020358Y046385D01*
X020358Y046387D01*
X020300Y046445D01*
X019867Y046445D01*
X019809Y046387D01*
X019809Y046385D01*
X019571Y046385D01*
X019571Y046387D01*
X019512Y046445D01*
X019080Y046445D01*
X019021Y046387D01*
X019021Y046385D01*
X018818Y046385D01*
X018814Y046399D01*
X018795Y046431D01*
X018769Y046457D01*
X018738Y046475D01*
X018702Y046485D01*
X018548Y046485D01*
X018548Y046385D01*
X018469Y046385D01*
X018469Y046485D01*
X018315Y046485D01*
X018280Y046475D01*
X018248Y046457D01*
X018222Y046431D01*
X018204Y046399D01*
X018200Y046385D01*
X018030Y046385D01*
X018026Y046399D01*
X018008Y046431D01*
X017982Y046457D01*
X017950Y046475D01*
X017915Y046485D01*
X017761Y046485D01*
X017761Y046385D01*
X017682Y046385D01*
X017682Y046485D01*
X017528Y046485D01*
X017492Y046475D01*
X017460Y046457D01*
X017435Y046431D01*
X017416Y046399D01*
X017412Y046385D01*
X017243Y046385D01*
X017239Y046399D01*
X017221Y046431D01*
X017195Y046457D01*
X017163Y046475D01*
X017127Y046485D01*
X017233Y046410D02*
X017422Y046410D01*
X017682Y046410D02*
X017761Y046410D01*
X018020Y046410D02*
X018210Y046410D01*
X018469Y046410D02*
X018548Y046410D01*
X018808Y046410D02*
X019045Y046410D01*
X019547Y046410D02*
X019832Y046410D01*
X020335Y046410D02*
X022504Y046410D01*
X022131Y046423D02*
X022131Y046838D01*
X022131Y046838D01*
X022131Y046796D02*
X022131Y046796D01*
X022131Y046719D02*
X022131Y046719D01*
X022131Y046642D02*
X022131Y046642D01*
X022131Y046564D02*
X022131Y046564D01*
X022131Y046487D02*
X022131Y046487D01*
X022131Y046423D02*
X022034Y046423D01*
X021998Y046432D01*
X021966Y046450D01*
X021940Y046476D01*
X021913Y046642D02*
X017188Y046642D01*
X017188Y046719D02*
X021913Y046719D01*
X021913Y046796D02*
X017161Y046796D01*
X017100Y046873D02*
X021913Y046873D01*
X021913Y046951D02*
X015655Y046951D01*
X015655Y046873D02*
X016767Y046873D01*
X016639Y046680D02*
X015359Y045401D01*
X015359Y042940D01*
X016442Y041857D01*
X016442Y028471D01*
X016934Y027979D01*
X016934Y027881D01*
X017032Y027782D01*
X017623Y028176D02*
X018509Y028176D01*
X018902Y027782D01*
X018902Y026897D01*
X019394Y026405D01*
X019394Y027192D02*
X019394Y027684D01*
X018607Y028471D01*
X017623Y028471D01*
X017328Y028767D01*
X017328Y036542D01*
X017524Y036739D01*
X019591Y036739D01*
X020477Y037625D01*
X020477Y042940D01*
X022898Y045361D01*
X022898Y046838D01*
X022643Y046838D02*
X022643Y045401D01*
X020280Y043038D01*
X020280Y037723D01*
X019493Y036936D01*
X017426Y036936D01*
X017131Y036641D01*
X017131Y028668D01*
X017623Y028176D01*
X016442Y026995D02*
X016343Y027094D01*
X016048Y027094D01*
X016048Y030440D01*
X015457Y031031D01*
X015457Y040381D01*
X014473Y041365D01*
X014473Y043235D01*
X011914Y045794D01*
X011914Y046798D01*
X011875Y046838D01*
X011619Y046838D02*
X011619Y046188D01*
X011363Y046523D02*
X011225Y046385D01*
X011225Y045991D01*
X013981Y043235D01*
X013981Y030932D01*
X014769Y030145D01*
X015359Y030145D01*
X015654Y029849D01*
X015654Y028471D01*
X014867Y028373D02*
X014276Y028373D01*
X014080Y028176D01*
X014080Y027586D01*
X014080Y026798D02*
X013883Y026798D01*
X013489Y026405D01*
X013489Y025971D01*
X013686Y025971D02*
X013686Y025519D01*
X013883Y025322D01*
X013292Y025322D02*
X013292Y025971D01*
X012898Y025971D02*
X012898Y024830D01*
X012898Y025971D02*
X012898Y026503D01*
X013194Y026798D01*
X012800Y027192D01*
X012800Y027979D01*
X012603Y028176D01*
X012406Y026798D02*
X012702Y026503D01*
X012702Y025971D01*
X009001Y025223D02*
X008961Y025223D01*
X008666Y025519D01*
X008371Y025617D02*
X008272Y025716D01*
X007977Y025716D01*
X008371Y025617D02*
X008371Y025125D01*
X008469Y025027D01*
X009001Y025027D01*
X009001Y024830D02*
X008076Y024830D01*
X007977Y024928D01*
X008174Y022861D02*
X009001Y022861D01*
X009001Y018924D02*
X010044Y018924D01*
X010143Y018826D01*
X010143Y018432D02*
X009946Y018235D01*
X009946Y017586D01*
X009749Y017586D02*
X009749Y016956D01*
X009847Y016857D01*
X009060Y017940D02*
X009001Y017999D01*
X009001Y018334D01*
X009001Y018727D02*
X008371Y018727D01*
X008272Y018629D01*
X010143Y018432D02*
X010536Y018432D01*
X009974Y014819D02*
X014642Y014819D01*
X014853Y014278D02*
X015182Y014278D01*
X015220Y014201D02*
X014904Y014201D01*
X014924Y014124D02*
X015220Y014124D01*
X015220Y014046D02*
X014923Y014046D01*
X014891Y013969D02*
X015220Y013969D01*
X015220Y013892D02*
X014868Y013892D01*
X014868Y013815D02*
X015220Y013815D01*
X015220Y013737D02*
X014868Y013737D01*
X014868Y013660D02*
X015220Y013660D01*
X015220Y013583D02*
X014868Y013583D01*
X015160Y013506D02*
X015220Y013506D01*
X015212Y013428D02*
X015220Y013428D01*
X015212Y013351D02*
X015220Y013351D01*
X015212Y013274D02*
X015220Y013274D01*
X015212Y013197D02*
X015220Y013197D01*
X015212Y013119D02*
X015220Y013119D01*
X015212Y013042D02*
X015220Y013042D01*
X015212Y012965D02*
X015220Y012965D01*
X015212Y012888D02*
X015220Y012888D01*
X015212Y012810D02*
X015220Y012810D01*
X015212Y012733D02*
X015220Y012733D01*
X015212Y012656D02*
X015220Y012656D01*
X015212Y012579D02*
X015220Y012579D01*
X015212Y012501D02*
X015220Y012501D01*
X015212Y012424D02*
X015220Y012424D01*
X015212Y012347D02*
X015220Y012347D01*
X015212Y012270D02*
X015220Y012270D01*
X015220Y012192D02*
X015175Y012192D01*
X015220Y012115D02*
X012620Y012115D01*
X012697Y012038D02*
X015220Y012038D01*
X015220Y011961D02*
X012775Y011961D01*
X012852Y011884D02*
X015220Y011884D01*
X015220Y011806D02*
X012929Y011806D01*
X013006Y011729D02*
X015220Y011729D01*
X015220Y011652D02*
X015183Y011652D01*
X015212Y011575D02*
X015220Y011575D01*
X015212Y011497D02*
X015220Y011497D01*
X015212Y011420D02*
X015220Y011420D01*
X015212Y011343D02*
X015261Y011343D01*
X015261Y011266D02*
X015212Y011266D01*
X015212Y011188D02*
X015261Y011188D01*
X015261Y011111D02*
X015212Y011111D01*
X015212Y011034D02*
X015261Y011034D01*
X015261Y010957D02*
X015212Y010957D01*
X015212Y010879D02*
X015261Y010879D01*
X015261Y010802D02*
X015212Y010802D01*
X015212Y010725D02*
X015261Y010725D01*
X015261Y010648D02*
X015212Y010648D01*
X015187Y010570D02*
X015261Y010570D01*
X014670Y011109D02*
X013430Y011109D01*
X013470Y011266D02*
X014128Y011266D01*
X014128Y011343D02*
X013393Y011343D01*
X013315Y011420D02*
X014128Y011420D01*
X014128Y011497D02*
X013238Y011497D01*
X013161Y011575D02*
X014128Y011575D01*
X014157Y011652D02*
X013084Y011652D01*
X012923Y011420D02*
X010488Y011420D01*
X010488Y011343D02*
X013000Y011343D01*
X013077Y011266D02*
X010488Y011266D01*
X010488Y011497D02*
X012846Y011497D01*
X012768Y011575D02*
X010488Y011575D01*
X010488Y011652D02*
X012691Y011652D01*
X012614Y011729D02*
X010488Y011729D01*
X010488Y011806D02*
X012537Y011806D01*
X012459Y011884D02*
X010488Y011884D01*
X010488Y011961D02*
X012382Y011961D01*
X012305Y012038D02*
X009650Y012038D01*
X009650Y012115D02*
X012228Y012115D01*
X012150Y012192D02*
X009650Y012192D01*
X010430Y012270D02*
X010488Y012328D01*
X010488Y012424D02*
X011919Y012424D01*
X011842Y012501D02*
X010488Y012501D01*
X010488Y012579D02*
X011764Y012579D01*
X011687Y012656D02*
X010488Y012656D01*
X010488Y012733D02*
X011610Y012733D01*
X011533Y012810D02*
X010488Y012810D01*
X010488Y012888D02*
X011455Y012888D01*
X011378Y012965D02*
X010488Y012965D01*
X010488Y013042D02*
X011301Y013042D01*
X011224Y013119D02*
X010488Y013119D01*
X010488Y013197D02*
X011146Y013197D01*
X011069Y013274D02*
X010451Y013274D01*
X010921Y013815D02*
X014472Y013815D01*
X014472Y013892D02*
X010844Y013892D01*
X010766Y013969D02*
X013834Y013969D01*
X013425Y014124D02*
X013212Y014124D01*
X013207Y014114D02*
X013225Y014146D01*
X013235Y014181D01*
X013235Y014357D01*
X012938Y014357D01*
X012938Y014436D01*
X013235Y014436D01*
X013235Y014612D01*
X013225Y014647D01*
X013207Y014679D01*
X013181Y014705D01*
X013149Y014723D01*
X013114Y014733D01*
X012938Y014733D01*
X012938Y014436D01*
X012859Y014436D01*
X012859Y014357D01*
X012938Y014357D01*
X012938Y014060D01*
X013114Y014060D01*
X013149Y014070D01*
X013181Y014088D01*
X013207Y014114D01*
X013235Y014201D02*
X013390Y014201D01*
X013390Y014278D02*
X013235Y014278D01*
X013235Y014355D02*
X013390Y014355D01*
X013390Y014432D02*
X012938Y014432D01*
X012938Y014355D02*
X012859Y014355D01*
X012859Y014357D02*
X012859Y014060D01*
X012683Y014060D01*
X012648Y014070D01*
X012616Y014088D01*
X012590Y014114D01*
X012572Y014146D01*
X012562Y014181D01*
X012562Y014357D01*
X012859Y014357D01*
X012859Y014432D02*
X012014Y014432D01*
X012014Y014355D02*
X012562Y014355D01*
X012562Y014278D02*
X012014Y014278D01*
X012014Y014201D02*
X012562Y014201D01*
X012585Y014124D02*
X011978Y014124D01*
X012014Y014510D02*
X012562Y014510D01*
X012562Y014436D02*
X012859Y014436D01*
X012859Y014733D01*
X012683Y014733D01*
X012648Y014723D01*
X012616Y014705D01*
X012590Y014679D01*
X012572Y014647D01*
X012562Y014612D01*
X012562Y014436D01*
X012562Y014587D02*
X012014Y014587D01*
X011984Y014664D02*
X012581Y014664D01*
X012859Y014664D02*
X012938Y014664D01*
X012938Y014587D02*
X012859Y014587D01*
X012859Y014510D02*
X012938Y014510D01*
X012938Y014278D02*
X012859Y014278D01*
X012859Y014201D02*
X012938Y014201D01*
X012938Y014124D02*
X012859Y014124D01*
X013235Y014510D02*
X013390Y014510D01*
X013390Y014587D02*
X013235Y014587D01*
X013215Y014664D02*
X013419Y014664D01*
X014180Y013506D02*
X011230Y013506D01*
X011153Y013583D02*
X014472Y013583D01*
X014472Y013660D02*
X011075Y013660D01*
X010998Y013737D02*
X014472Y013737D01*
X014128Y013428D02*
X011307Y013428D01*
X011384Y013351D02*
X014128Y013351D01*
X014128Y013274D02*
X011462Y013274D01*
X011539Y013197D02*
X014128Y013197D01*
X014128Y013119D02*
X012533Y013119D01*
X012674Y013042D02*
X014128Y013042D01*
X014128Y012965D02*
X012751Y012965D01*
X012787Y012888D02*
X014128Y012888D01*
X014128Y012810D02*
X012819Y012810D01*
X012821Y012733D02*
X014128Y012733D01*
X014128Y012656D02*
X012821Y012656D01*
X012795Y012579D02*
X014128Y012579D01*
X014128Y012501D02*
X012763Y012501D01*
X012693Y012424D02*
X014128Y012424D01*
X014128Y012347D02*
X012580Y012347D01*
X012466Y012270D02*
X014128Y012270D01*
X014165Y012192D02*
X012543Y012192D01*
X011994Y012810D02*
X011925Y012810D01*
X011848Y012888D02*
X012026Y012888D01*
X012062Y012965D02*
X011770Y012965D01*
X011693Y013042D02*
X012139Y013042D01*
X012280Y013119D02*
X011616Y013119D01*
X010634Y014587D02*
X009742Y014587D01*
X009650Y010322D02*
X010005Y010322D01*
X010005Y010243D01*
X009650Y010243D01*
X009650Y010322D01*
X009650Y010261D02*
X010005Y010261D01*
X010005Y010184D02*
X010083Y010184D01*
X010083Y010107D02*
X010005Y010107D01*
X010005Y010030D02*
X010083Y010030D01*
X010083Y009953D02*
X010005Y009953D01*
X010005Y009875D02*
X010083Y009875D01*
X010083Y009798D02*
X010005Y009798D01*
X010005Y009721D02*
X010083Y009721D01*
X010083Y009644D02*
X010005Y009644D01*
X009650Y009566D02*
X024316Y009566D01*
X024316Y009489D02*
X009650Y009489D01*
X009650Y009412D02*
X024316Y009412D01*
X024316Y009335D02*
X009650Y009335D01*
X009454Y009335D02*
X007388Y009335D01*
X007388Y009412D02*
X009454Y009412D01*
X009454Y009489D02*
X007388Y009489D01*
X007388Y009566D02*
X009454Y009566D01*
X016107Y012723D02*
X016737Y012723D01*
X016934Y012920D01*
X019454Y010957D02*
X019532Y010957D01*
X019532Y010993D02*
X019532Y010322D01*
X019977Y010322D01*
X019977Y010872D01*
X019967Y010907D01*
X019949Y010939D01*
X019923Y010965D01*
X019891Y010983D01*
X019856Y010993D01*
X019532Y010993D01*
X019532Y010879D02*
X019454Y010879D01*
X019454Y010802D02*
X019532Y010802D01*
X019532Y010725D02*
X019454Y010725D01*
X019454Y010648D02*
X019532Y010648D01*
X019532Y010570D02*
X019454Y010570D01*
X019454Y010493D02*
X019532Y010493D01*
X019532Y010416D02*
X019454Y010416D01*
X019454Y010339D02*
X019532Y010339D01*
X019493Y010282D02*
X019670Y010282D01*
X019591Y010263D01*
X019532Y010261D02*
X021448Y010261D01*
X021441Y010279D02*
X021504Y010127D01*
X021620Y010010D01*
X021773Y009947D01*
X021938Y009947D01*
X022090Y010010D01*
X022206Y010127D01*
X022269Y010279D01*
X022269Y010444D01*
X022206Y010596D01*
X022090Y010712D01*
X021938Y010776D01*
X021773Y010776D01*
X021620Y010712D01*
X021504Y010596D01*
X021441Y010444D01*
X021441Y010279D01*
X021441Y010339D02*
X019977Y010339D01*
X019977Y010416D02*
X021441Y010416D01*
X021461Y010493D02*
X019977Y010493D01*
X019977Y010570D02*
X021493Y010570D01*
X021556Y010648D02*
X019977Y010648D01*
X019977Y010725D02*
X021650Y010725D01*
X022060Y010725D02*
X023577Y010725D01*
X023577Y010802D02*
X019977Y010802D01*
X019975Y010879D02*
X023577Y010879D01*
X023577Y010957D02*
X019931Y010957D01*
X019937Y011188D02*
X021718Y011188D01*
X021640Y011266D02*
X019937Y011266D01*
X019937Y011343D02*
X021563Y011343D01*
X021486Y011420D02*
X019937Y011420D01*
X019937Y011497D02*
X021409Y011497D01*
X021569Y011729D02*
X021625Y011729D01*
X021647Y011652D02*
X021681Y011652D01*
X021724Y011575D02*
X023577Y011575D01*
X023577Y011497D02*
X021801Y011497D01*
X021878Y011420D02*
X023577Y011420D01*
X023577Y011343D02*
X021956Y011343D01*
X022033Y011266D02*
X023577Y011266D01*
X023577Y010648D02*
X022155Y010648D01*
X022217Y010570D02*
X023602Y010570D01*
X024316Y010493D02*
X022249Y010493D01*
X022269Y010416D02*
X024316Y010416D01*
X024316Y010339D02*
X022269Y010339D01*
X022262Y010261D02*
X024316Y010261D01*
X024316Y010184D02*
X022230Y010184D01*
X022187Y010107D02*
X024316Y010107D01*
X024316Y010030D02*
X022110Y010030D01*
X021951Y009953D02*
X024316Y009953D01*
X024316Y009875D02*
X019977Y009875D01*
X019977Y009798D02*
X024316Y009798D01*
X024316Y009721D02*
X019977Y009721D01*
X019959Y009644D02*
X024316Y009644D01*
X024644Y012038D02*
X022014Y012038D01*
X021696Y012038D02*
X021502Y012038D01*
X021502Y011961D02*
X021631Y011961D01*
X021601Y011884D02*
X021502Y011884D01*
X021502Y011806D02*
X021601Y011806D01*
X021502Y012115D02*
X024630Y012115D01*
X024624Y012192D02*
X024630Y012192D01*
X024119Y012842D02*
X024119Y013314D01*
X023036Y014397D01*
X023984Y015205D02*
X025004Y015205D01*
X025004Y015282D02*
X023923Y015282D01*
X023923Y015359D02*
X025004Y015359D01*
X025004Y015437D02*
X024977Y015437D01*
X025066Y015615D02*
X025300Y015381D01*
X025019Y015128D02*
X024061Y015128D01*
X023943Y015437D02*
X023923Y015437D01*
X023923Y015514D02*
X023926Y015514D01*
X023923Y015591D02*
X023926Y015591D01*
X023923Y015668D02*
X023926Y015668D01*
X023923Y015746D02*
X023926Y015746D01*
X023923Y015823D02*
X023972Y015823D01*
X023724Y018294D02*
X021422Y018294D01*
X021499Y018372D02*
X023724Y018372D01*
X023594Y018990D02*
X023467Y018990D01*
X023471Y019067D02*
X023672Y019067D01*
X025498Y020998D02*
X025653Y020998D01*
X025653Y021075D02*
X025498Y021075D01*
X025950Y021075D02*
X026028Y021075D01*
X026028Y020843D02*
X025950Y020843D01*
X025950Y020766D02*
X026028Y020766D01*
X026028Y020689D02*
X025950Y020689D01*
X025950Y020612D02*
X026028Y020612D01*
X026048Y015668D02*
X026127Y015668D01*
X026127Y015591D02*
X026048Y015591D01*
X026048Y015514D02*
X026127Y015514D01*
X026127Y015437D02*
X026048Y015437D01*
X026127Y015359D02*
X026874Y015359D01*
X026874Y015282D02*
X026424Y015282D01*
X026424Y015205D02*
X026874Y015205D01*
X026874Y015128D02*
X026413Y015128D01*
X026324Y015050D02*
X026874Y015050D01*
X026874Y015437D02*
X026424Y015437D01*
X026424Y015514D02*
X026874Y015514D01*
X026874Y015591D02*
X026424Y015591D01*
X026391Y015668D02*
X026874Y015668D01*
X023614Y012192D02*
X021502Y012192D01*
X021480Y010184D02*
X019977Y010184D01*
X019977Y010107D02*
X021523Y010107D01*
X021601Y010030D02*
X019977Y010030D01*
X019977Y009953D02*
X021759Y009953D01*
X017387Y023255D02*
X016737Y023255D01*
X016639Y024436D02*
X017387Y024436D01*
X018509Y024731D02*
X018509Y025420D01*
X018509Y024731D02*
X018568Y024672D01*
X019237Y024672D02*
X019276Y024633D01*
X019296Y024633D01*
X019394Y029849D02*
X019985Y029849D01*
X022150Y031286D02*
X022150Y031326D01*
X022544Y030834D02*
X022544Y032901D01*
X022396Y033048D01*
X022741Y032901D02*
X022741Y030834D01*
X022938Y030834D02*
X022938Y031483D01*
X023135Y031621D01*
X023863Y032645D02*
X023824Y032704D01*
X023863Y032664D02*
X023863Y032645D01*
X022908Y033068D02*
X022741Y032901D01*
X023331Y033590D02*
X023331Y033836D01*
X023272Y033895D01*
X023272Y034151D02*
X023558Y034151D01*
X023824Y033885D01*
X022141Y035027D02*
X022141Y035056D01*
X022150Y035066D01*
X021855Y035066D01*
X022643Y036385D02*
X022741Y036385D01*
X022741Y037133D01*
X023528Y036405D02*
X023528Y036385D01*
X021225Y033531D02*
X021186Y033491D01*
X021127Y033491D01*
X018607Y034672D02*
X017820Y034672D01*
X016048Y031227D02*
X016048Y041956D01*
X015162Y042842D01*
X015162Y045597D01*
X015950Y046385D01*
X016187Y046487D02*
X016249Y046487D01*
X016327Y046564D02*
X016135Y046564D01*
X015644Y047028D02*
X021913Y047028D01*
X021913Y047105D02*
X012703Y047105D01*
X012703Y047028D02*
X014287Y047028D01*
X014275Y047017D02*
X014275Y046541D01*
X014334Y046482D01*
X014810Y046482D01*
X014868Y046541D01*
X014868Y047017D01*
X014810Y047075D01*
X014334Y047075D01*
X014275Y047017D01*
X014275Y046951D02*
X012703Y046951D01*
X012682Y046873D02*
X014275Y046873D01*
X014275Y046796D02*
X012605Y046796D01*
X012528Y046719D02*
X014275Y046719D01*
X014275Y046642D02*
X012451Y046642D01*
X012309Y046564D02*
X014275Y046564D01*
X014329Y046487D02*
X012275Y046487D01*
X012081Y046410D02*
X012053Y046410D01*
X011363Y046523D02*
X011363Y046838D01*
X011107Y046838D02*
X010889Y046838D01*
X011107Y046838D01*
X011107Y046838D01*
X010889Y046838D02*
X010889Y046544D01*
X010898Y046508D01*
X010917Y046476D01*
X010943Y046450D01*
X010975Y046432D01*
X011010Y046423D01*
X011086Y046423D01*
X011086Y046385D01*
X010634Y046385D01*
X010397Y046622D01*
X009947Y046622D01*
X009947Y046992D01*
X010126Y047171D01*
X010901Y047171D01*
X010898Y047167D01*
X010889Y047132D01*
X010889Y046838D01*
X010889Y046873D02*
X009947Y046873D01*
X009947Y046796D02*
X010889Y046796D01*
X010889Y046719D02*
X009947Y046719D01*
X009947Y046642D02*
X010889Y046642D01*
X010889Y046564D02*
X010454Y046564D01*
X010532Y046487D02*
X010911Y046487D01*
X011086Y046410D02*
X010609Y046410D01*
X010339Y046483D02*
X013391Y043432D01*
X013391Y030342D01*
X014080Y029653D01*
X015359Y029653D01*
X012013Y030538D02*
X011910Y030641D01*
X011461Y030641D01*
X011845Y032019D02*
X011910Y032019D01*
X011914Y032015D01*
X011914Y034279D02*
X011845Y034347D01*
X011845Y034369D01*
X012406Y037330D02*
X012288Y037448D01*
X012269Y037448D01*
X012269Y038511D02*
X012406Y038511D01*
X011107Y039790D02*
X010694Y039377D01*
X009847Y039377D01*
X009257Y038806D02*
X008863Y038806D01*
X008765Y038806D01*
X008666Y038905D01*
X008666Y039377D01*
X008863Y039377D02*
X008863Y039594D01*
X008765Y039692D01*
X008076Y039692D01*
X007780Y039397D01*
X007682Y039397D01*
X007682Y038609D02*
X007780Y038511D01*
X007780Y037920D01*
X008666Y037822D02*
X008666Y037428D01*
X008568Y037330D01*
X008666Y037822D02*
X008863Y038019D01*
X008863Y038235D01*
X009060Y038235D02*
X009060Y037920D01*
X009158Y037822D01*
X009257Y038235D02*
X009257Y038806D01*
X008765Y038806D02*
X008666Y038708D01*
X008666Y038235D01*
X009454Y038235D02*
X009650Y038235D01*
X009650Y038019D01*
X009946Y037723D01*
X014670Y038412D02*
X014670Y038471D01*
X014709Y038511D01*
X017623Y041660D02*
X017623Y042727D01*
X017607Y042743D01*
X017623Y042759D01*
X017623Y043334D01*
X017820Y043531D01*
X018509Y043531D01*
X018607Y043235D02*
X018902Y043531D01*
X019099Y043531D01*
X018607Y043235D02*
X018607Y042743D01*
X018607Y041660D01*
X018115Y042743D02*
X018115Y042751D01*
X018107Y042743D01*
X017607Y044318D02*
X016934Y044318D01*
X016934Y045893D02*
X016973Y045932D01*
X016934Y045932D01*
X017721Y045932D02*
X017761Y045932D01*
X017721Y045893D01*
X018509Y045893D02*
X018548Y045932D01*
X018509Y045932D01*
X019607Y045023D02*
X019690Y045105D01*
X019607Y045023D02*
X019607Y044318D01*
X019607Y042743D02*
X019607Y042464D01*
X019591Y042448D01*
X023037Y046385D02*
X023037Y046463D01*
X023274Y046463D01*
X023332Y046521D01*
X023332Y046697D01*
X023431Y046795D01*
X023431Y047254D01*
X023239Y047446D01*
X023468Y047446D01*
X023503Y047456D01*
X023535Y047474D01*
X023558Y047497D01*
X023581Y047474D01*
X023612Y047456D01*
X023648Y047446D01*
X024080Y047446D01*
X024080Y047920D01*
X024158Y047920D01*
X024158Y047446D01*
X024590Y047446D01*
X024625Y047456D01*
X024657Y047474D01*
X024683Y047500D01*
X024702Y047532D01*
X024711Y047567D01*
X024711Y047920D01*
X024158Y047920D01*
X024158Y047999D01*
X024711Y047999D01*
X024711Y048352D01*
X024702Y048387D01*
X024683Y048419D01*
X024657Y048445D01*
X024647Y048451D01*
X026874Y048451D01*
X026874Y046385D01*
X023037Y046385D01*
X023037Y046410D02*
X026874Y046410D01*
X026874Y046487D02*
X023299Y046487D01*
X023332Y046564D02*
X026874Y046564D01*
X026874Y046642D02*
X023332Y046642D01*
X023355Y046719D02*
X025586Y046719D01*
X025657Y046690D02*
X025927Y046690D01*
X026177Y046793D01*
X026368Y046984D01*
X026471Y047234D01*
X026471Y047504D01*
X026368Y047754D01*
X026177Y047945D01*
X025927Y048048D01*
X025657Y048048D01*
X025407Y047945D01*
X025216Y047754D01*
X025113Y047504D01*
X025113Y047234D01*
X025216Y046984D01*
X025407Y046793D01*
X025657Y046690D01*
X025404Y046796D02*
X023431Y046796D01*
X023431Y046873D02*
X025327Y046873D01*
X025250Y046951D02*
X023431Y046951D01*
X023431Y047028D02*
X025198Y047028D01*
X025166Y047105D02*
X023431Y047105D01*
X023431Y047182D02*
X025134Y047182D01*
X025113Y047260D02*
X023425Y047260D01*
X023348Y047337D02*
X025113Y047337D01*
X025113Y047414D02*
X023271Y047414D01*
X023552Y047491D02*
X023563Y047491D01*
X023527Y047920D02*
X024080Y047920D01*
X024080Y047999D01*
X023135Y047999D01*
X023135Y047920D01*
X023527Y047920D01*
X023135Y047955D02*
X024080Y047955D01*
X024119Y047960D02*
X024217Y047960D01*
X024158Y047955D02*
X025431Y047955D01*
X025340Y047878D02*
X024711Y047878D01*
X024711Y047800D02*
X025263Y047800D01*
X025203Y047723D02*
X024711Y047723D01*
X024711Y047646D02*
X025171Y047646D01*
X025139Y047569D02*
X024711Y047569D01*
X024674Y047491D02*
X025113Y047491D01*
X024711Y048032D02*
X025617Y048032D01*
X025967Y048032D02*
X026874Y048032D01*
X026874Y047955D02*
X026153Y047955D01*
X026244Y047878D02*
X026874Y047878D01*
X026874Y047800D02*
X026322Y047800D01*
X026381Y047723D02*
X026874Y047723D01*
X026874Y047646D02*
X026413Y047646D01*
X026445Y047569D02*
X026874Y047569D01*
X026874Y047491D02*
X026471Y047491D01*
X026471Y047414D02*
X026874Y047414D01*
X026874Y047337D02*
X026471Y047337D01*
X026471Y047260D02*
X026874Y047260D01*
X026874Y047182D02*
X026450Y047182D01*
X026418Y047105D02*
X026874Y047105D01*
X026874Y047028D02*
X026386Y047028D01*
X026334Y046951D02*
X026874Y046951D01*
X026874Y046873D02*
X026257Y046873D01*
X026180Y046796D02*
X026874Y046796D01*
X026874Y046719D02*
X025998Y046719D01*
X026874Y048109D02*
X024711Y048109D01*
X024711Y048187D02*
X026874Y048187D01*
X026874Y048264D02*
X024711Y048264D01*
X024711Y048341D02*
X026874Y048341D01*
X026874Y048418D02*
X024684Y048418D01*
X024158Y047878D02*
X024080Y047878D01*
X024080Y047800D02*
X024158Y047800D01*
X024158Y047723D02*
X024080Y047723D01*
X024080Y047646D02*
X024158Y047646D01*
X024158Y047569D02*
X024080Y047569D01*
X024080Y047491D02*
X024158Y047491D01*
X023135Y047960D02*
X023095Y047960D01*
X023056Y047955D02*
X022229Y047955D01*
X022229Y047920D02*
X022229Y047999D01*
X023056Y047999D01*
X023056Y047920D01*
X022602Y047920D01*
X022229Y047920D01*
X022190Y047960D02*
X022150Y047960D01*
X022150Y047955D02*
X021206Y047955D01*
X021206Y047920D02*
X021206Y047999D01*
X021758Y047999D01*
X022150Y047999D01*
X022150Y047920D01*
X021206Y047920D01*
X021166Y047960D02*
X021068Y047960D01*
X021127Y047955D02*
X020358Y047955D01*
X020358Y048032D02*
X020574Y048032D01*
X020574Y047999D02*
X021127Y047999D01*
X021127Y047920D01*
X020574Y047920D01*
X020574Y047567D01*
X020358Y047567D01*
X020358Y048451D01*
X020638Y048451D01*
X020628Y048445D01*
X020602Y048419D01*
X020584Y048387D01*
X020574Y048352D01*
X020574Y047999D01*
X020574Y048109D02*
X020358Y048109D01*
X020358Y048187D02*
X020574Y048187D01*
X020574Y048264D02*
X020358Y048264D01*
X020358Y048341D02*
X020574Y048341D01*
X020601Y048418D02*
X020358Y048418D01*
X020083Y047999D02*
X020083Y047960D01*
X020358Y047878D02*
X020574Y047878D01*
X020574Y047800D02*
X020358Y047800D01*
X020358Y047723D02*
X020574Y047723D01*
X020574Y047646D02*
X020358Y047646D01*
X020358Y047569D02*
X020574Y047569D01*
X020574Y047567D02*
X020574Y047567D01*
X019296Y047960D02*
X019296Y047999D01*
X017721Y047999D02*
X017721Y047960D01*
X016934Y047999D02*
X016934Y047960D01*
X016659Y047955D02*
X016128Y047955D01*
X016128Y048019D02*
X015792Y048019D01*
X015792Y048097D01*
X016128Y048097D01*
X016128Y048352D01*
X016119Y048387D01*
X016100Y048419D01*
X016075Y048445D01*
X016065Y048451D01*
X016659Y048451D01*
X016659Y047567D01*
X013687Y047567D01*
X013687Y047567D01*
X013687Y047920D01*
X013135Y047920D01*
X013135Y047999D01*
X013687Y047999D01*
X013687Y048352D01*
X013678Y048387D01*
X013660Y048419D01*
X013634Y048445D01*
X013624Y048451D01*
X015441Y048451D01*
X015431Y048445D01*
X015405Y048419D01*
X015387Y048387D01*
X015377Y048352D01*
X015377Y048097D01*
X015713Y048097D01*
X015713Y048019D01*
X015377Y048019D01*
X015377Y047764D01*
X015387Y047729D01*
X015405Y047697D01*
X015431Y047671D01*
X015463Y047653D01*
X015498Y047643D01*
X015713Y047643D01*
X015713Y048019D01*
X015792Y048019D01*
X015792Y047643D01*
X016007Y047643D01*
X016043Y047653D01*
X016075Y047671D01*
X016100Y047697D01*
X016119Y047729D01*
X016128Y047764D01*
X016128Y048019D01*
X016128Y048109D02*
X016659Y048109D01*
X016659Y048032D02*
X015792Y048032D01*
X015792Y048097D02*
X015713Y048097D01*
X015713Y048451D01*
X015792Y048451D01*
X015792Y048097D01*
X015792Y048109D02*
X015713Y048109D01*
X015713Y048032D02*
X014907Y048032D01*
X014907Y047955D02*
X015377Y047955D01*
X015377Y047878D02*
X014907Y047878D01*
X014907Y047800D02*
X015377Y047800D01*
X015390Y047723D02*
X014889Y047723D01*
X014907Y047741D02*
X014849Y047683D01*
X014294Y047683D01*
X014236Y047741D01*
X014236Y048375D01*
X014294Y048433D01*
X014849Y048433D01*
X014907Y048375D01*
X014907Y047741D01*
X014907Y048109D02*
X015377Y048109D01*
X015377Y048187D02*
X014907Y048187D01*
X014907Y048264D02*
X015377Y048264D01*
X015377Y048341D02*
X014907Y048341D01*
X014864Y048418D02*
X015404Y048418D01*
X015713Y048418D02*
X015792Y048418D01*
X015792Y048341D02*
X015713Y048341D01*
X015713Y048264D02*
X015792Y048264D01*
X015792Y048187D02*
X015713Y048187D01*
X015713Y047955D02*
X015792Y047955D01*
X015792Y047878D02*
X015713Y047878D01*
X015713Y047800D02*
X015792Y047800D01*
X015792Y047723D02*
X015713Y047723D01*
X015713Y047646D02*
X015792Y047646D01*
X016018Y047646D02*
X016659Y047646D01*
X016659Y047723D02*
X016116Y047723D01*
X016128Y047800D02*
X016659Y047800D01*
X016659Y047878D02*
X016128Y047878D01*
X016128Y048187D02*
X016659Y048187D01*
X016659Y048264D02*
X016128Y048264D01*
X016128Y048341D02*
X016659Y048341D01*
X016659Y048418D02*
X016101Y048418D01*
X015488Y047646D02*
X013687Y047646D01*
X013687Y047723D02*
X014254Y047723D01*
X014236Y047800D02*
X013687Y047800D01*
X013687Y047878D02*
X014236Y047878D01*
X014236Y047955D02*
X013135Y047955D01*
X013135Y047920D02*
X013135Y047567D01*
X013056Y047567D01*
X013056Y047920D01*
X013135Y047920D01*
X013135Y047878D02*
X013056Y047878D01*
X013056Y047920D02*
X012503Y047920D01*
X012111Y047920D01*
X012111Y047999D01*
X013056Y047999D01*
X013056Y048451D01*
X013135Y048451D01*
X013135Y047999D01*
X013056Y047999D01*
X013056Y047920D01*
X013056Y047955D02*
X012111Y047955D01*
X012032Y047955D02*
X011206Y047955D01*
X011206Y047920D02*
X011206Y047999D01*
X012032Y047999D01*
X012032Y047920D01*
X011578Y047920D01*
X011206Y047920D01*
X011127Y047920D02*
X010182Y047920D01*
X010182Y047567D01*
X010103Y047567D01*
X010103Y047920D01*
X010182Y047920D01*
X010182Y047999D01*
X010735Y047999D01*
X011127Y047999D01*
X011127Y047920D01*
X011127Y047955D02*
X010182Y047955D01*
X010182Y047999D02*
X010103Y047999D01*
X010103Y047920D01*
X009550Y047920D01*
X009550Y047567D01*
X009560Y047532D01*
X009578Y047500D01*
X009604Y047474D01*
X009636Y047456D01*
X009671Y047446D01*
X009842Y047446D01*
X009667Y047272D01*
X009551Y047156D01*
X009551Y046565D01*
X009371Y046385D01*
X007388Y046385D01*
X007388Y048451D01*
X009614Y048451D01*
X009604Y048445D01*
X009578Y048419D01*
X009560Y048387D01*
X009550Y048352D01*
X009550Y047999D01*
X010103Y047999D01*
X010103Y048451D01*
X010182Y048451D01*
X010182Y047999D01*
X010182Y048032D02*
X010103Y048032D01*
X010103Y047955D02*
X008831Y047955D01*
X008854Y047945D02*
X008604Y048048D01*
X008334Y048048D01*
X008084Y047945D01*
X007893Y047754D01*
X007790Y047504D01*
X007790Y047234D01*
X007893Y046984D01*
X008084Y046793D01*
X008334Y046690D01*
X008604Y046690D01*
X008854Y046793D01*
X009045Y046984D01*
X009149Y047234D01*
X009149Y047504D01*
X009045Y047754D01*
X008854Y047945D01*
X008922Y047878D02*
X009550Y047878D01*
X009550Y047800D02*
X008999Y047800D01*
X009058Y047723D02*
X009550Y047723D01*
X009550Y047646D02*
X009090Y047646D01*
X009122Y047569D02*
X009550Y047569D01*
X009587Y047491D02*
X009149Y047491D01*
X009149Y047414D02*
X009809Y047414D01*
X009732Y047337D02*
X009149Y047337D01*
X009149Y047260D02*
X009655Y047260D01*
X009578Y047182D02*
X009127Y047182D01*
X009095Y047105D02*
X009551Y047105D01*
X009551Y047028D02*
X009063Y047028D01*
X009012Y046951D02*
X009551Y046951D01*
X009551Y046873D02*
X008934Y046873D01*
X008857Y046796D02*
X009551Y046796D01*
X009551Y046719D02*
X008675Y046719D01*
X008264Y046719D02*
X007388Y046719D01*
X007388Y046796D02*
X008081Y046796D01*
X008004Y046873D02*
X007388Y046873D01*
X007388Y046951D02*
X007927Y046951D01*
X007875Y047028D02*
X007388Y047028D01*
X007388Y047105D02*
X007843Y047105D01*
X007811Y047182D02*
X007388Y047182D01*
X007388Y047260D02*
X007790Y047260D01*
X007790Y047337D02*
X007388Y047337D01*
X007388Y047414D02*
X007790Y047414D01*
X007790Y047491D02*
X007388Y047491D01*
X007388Y047569D02*
X007817Y047569D01*
X007849Y047646D02*
X007388Y047646D01*
X007388Y047723D02*
X007881Y047723D01*
X007940Y047800D02*
X007388Y047800D01*
X007388Y047878D02*
X008017Y047878D01*
X008108Y047955D02*
X007388Y047955D01*
X007388Y048032D02*
X008295Y048032D01*
X008644Y048032D02*
X009550Y048032D01*
X009550Y048109D02*
X007388Y048109D01*
X007388Y048187D02*
X009550Y048187D01*
X009550Y048264D02*
X007388Y048264D01*
X007388Y048341D02*
X009550Y048341D01*
X009578Y048418D02*
X007388Y048418D01*
X007388Y046642D02*
X009551Y046642D01*
X009550Y046564D02*
X007388Y046564D01*
X007388Y046487D02*
X009473Y046487D01*
X009396Y046410D02*
X007388Y046410D01*
X009749Y046483D02*
X010339Y046483D01*
X009947Y046951D02*
X010889Y046951D01*
X010889Y047028D02*
X009983Y047028D01*
X010060Y047105D02*
X010889Y047105D01*
X010182Y047569D02*
X010103Y047569D01*
X010103Y047646D02*
X010182Y047646D01*
X010182Y047723D02*
X010103Y047723D01*
X010103Y047800D02*
X010182Y047800D01*
X010182Y047878D02*
X010103Y047878D01*
X010103Y048109D02*
X010182Y048109D01*
X010182Y048187D02*
X010103Y048187D01*
X010103Y048264D02*
X010182Y048264D01*
X010182Y048341D02*
X010103Y048341D01*
X010103Y048418D02*
X010182Y048418D01*
X013056Y048418D02*
X013135Y048418D01*
X013135Y048341D02*
X013056Y048341D01*
X013056Y048264D02*
X013135Y048264D01*
X013135Y048187D02*
X013056Y048187D01*
X013056Y048109D02*
X013135Y048109D01*
X013135Y048032D02*
X013056Y048032D01*
X013056Y047800D02*
X013135Y047800D01*
X013135Y047723D02*
X013056Y047723D01*
X013056Y047646D02*
X013135Y047646D01*
X013135Y047569D02*
X013056Y047569D01*
X013687Y047569D02*
X016659Y047569D01*
X015074Y047028D02*
X014857Y047028D01*
X014868Y046951D02*
X015063Y046951D01*
X015063Y046873D02*
X014868Y046873D01*
X014868Y046796D02*
X015063Y046796D01*
X015063Y046719D02*
X014868Y046719D01*
X014868Y046642D02*
X015063Y046642D01*
X015063Y046564D02*
X014868Y046564D01*
X014815Y046487D02*
X015116Y046487D01*
X014236Y048032D02*
X013687Y048032D01*
X013687Y048109D02*
X014236Y048109D01*
X014236Y048187D02*
X013687Y048187D01*
X013687Y048264D02*
X014236Y048264D01*
X014236Y048341D02*
X013687Y048341D01*
X013660Y048418D02*
X014279Y048418D01*
X025989Y044531D02*
X026087Y044515D01*
X026087Y042546D02*
X025989Y042531D01*
X035044Y044416D02*
X038391Y047763D01*
X038095Y046975D02*
X035241Y044121D01*
X035241Y034377D01*
X036816Y032802D01*
X039769Y032802D01*
X035044Y025617D02*
X035044Y044416D01*
X039670Y043924D02*
X039670Y040775D01*
X039769Y040676D01*
X044394Y042349D02*
X045871Y040873D01*
X045871Y020794D01*
X042131Y017054D01*
X039769Y017054D01*
X039769Y024928D02*
X035733Y024928D01*
X035044Y025617D01*
X025497Y029160D02*
X025103Y029554D01*
X023627Y029554D01*
X023627Y029357D02*
X024808Y029357D01*
X025103Y029062D01*
X025103Y028570D01*
X024709Y028964D02*
X024709Y027290D01*
X023922Y028373D02*
X023627Y028668D01*
X023627Y028767D01*
X023627Y028964D02*
X023922Y028964D01*
X024316Y028570D01*
X024709Y028964D02*
X024513Y029160D01*
X023627Y029160D01*
X042032Y045794D02*
X042032Y047861D01*
X042229Y048058D01*
X044493Y048058D01*
X043706Y047369D02*
X043312Y047763D01*
X043706Y047369D02*
X051284Y047369D01*
X053843Y044810D01*
X053843Y018924D01*
X051973Y017054D01*
X049611Y017054D01*
X049611Y024928D02*
X052072Y024928D01*
X053548Y026405D01*
X053548Y044219D01*
X052564Y045204D01*
X046068Y045204D01*
X045674Y044121D02*
X045280Y043727D01*
X045674Y044121D02*
X051973Y044121D01*
X053253Y042842D01*
X053253Y035755D01*
X050300Y032802D01*
X049611Y032802D01*
X049611Y040676D02*
X047741Y040676D01*
X045674Y042743D01*
D54*
X024217Y034279D02*
X024034Y034406D01*
X023272Y034406D01*
X023272Y034662D02*
X022908Y034662D01*
X022524Y034279D01*
X022396Y034406D01*
X021776Y034406D01*
X021776Y034151D02*
X021491Y034151D01*
X021166Y034475D01*
X019788Y034475D01*
X019591Y034279D01*
X019595Y034275D01*
X018706Y034672D02*
X018646Y034731D01*
X018607Y034672D01*
X018676Y034662D01*
X021776Y034662D01*
X022141Y034662D02*
X022141Y035027D01*
X022141Y034662D02*
X022524Y034279D01*
X022908Y034662D02*
X022908Y035027D01*
X022652Y035027D02*
X022643Y035027D01*
X022643Y036385D01*
X021776Y033895D02*
X021097Y033895D01*
X020969Y034082D01*
X020930Y034082D01*
X021225Y033531D02*
X022141Y033531D01*
X022396Y033531D02*
X022396Y033048D01*
X022908Y033068D02*
X022908Y033531D01*
X022938Y023058D02*
X022938Y022960D01*
X023135Y022960D01*
X023233Y022861D01*
X023233Y022556D01*
X023036Y022556D02*
X023036Y022074D01*
X023627Y021483D02*
X024503Y021483D01*
X024217Y020607D02*
X024207Y020607D01*
X024414Y020401D01*
X024414Y020105D01*
X023135Y020007D02*
X023036Y020105D01*
X023036Y020607D01*
X022849Y020607D02*
X022839Y020607D01*
D55*
X022544Y020499D03*
X023135Y019219D03*
X024414Y019318D03*
X025202Y019219D03*
X025202Y020007D03*
X025202Y020893D03*
X025989Y020893D03*
X025989Y020007D03*
X025989Y019219D03*
X023922Y021188D03*
X023528Y021188D03*
X023135Y021188D03*
X023135Y021582D03*
X023528Y021582D03*
X023528Y021975D03*
X023135Y021975D03*
X023922Y021975D03*
X023922Y021582D03*
X025300Y022271D03*
X025891Y022664D03*
X022938Y023058D03*
X022938Y023845D03*
X022052Y024141D03*
X021265Y024141D03*
X021265Y023353D03*
X022052Y023353D03*
X021560Y021483D03*
X019887Y020597D03*
X019887Y019810D03*
X019099Y019712D03*
X019099Y018924D03*
X019887Y017940D03*
X019887Y017153D03*
X021461Y017349D03*
X021461Y016562D03*
X020576Y014397D03*
X018115Y014200D03*
X016146Y014200D03*
X016146Y014987D03*
X012997Y018727D03*
X010143Y018826D03*
X011717Y014397D03*
X016048Y020499D03*
X018509Y023058D03*
X016737Y023255D03*
X015950Y025223D03*
X016146Y026601D03*
X014080Y027586D03*
X012406Y026798D03*
X011619Y025322D03*
X013883Y025322D03*
X015359Y029653D03*
X016048Y031227D03*
X017721Y032408D03*
X018509Y032408D03*
X018509Y033196D03*
X017721Y033196D03*
X017820Y034672D03*
X018607Y034672D03*
X018607Y035460D03*
X017820Y035460D03*
X019394Y035361D03*
X019394Y036149D03*
X020182Y036149D03*
X020182Y035361D03*
X020182Y034082D03*
X020339Y033491D03*
X019591Y033491D03*
X020379Y032704D03*
X021127Y032704D03*
X021363Y032113D03*
X021363Y031326D03*
X022150Y031326D03*
X022150Y032113D03*
X023135Y032408D03*
X023824Y032704D03*
X023135Y031621D03*
X023036Y030243D03*
X022643Y030243D03*
X022643Y029849D03*
X023036Y029849D03*
X023036Y029456D03*
X022643Y029456D03*
X022643Y029062D03*
X023036Y029062D03*
X022249Y029062D03*
X022249Y029456D03*
X022249Y029849D03*
X021855Y029849D03*
X021855Y029456D03*
X021855Y029062D03*
X020772Y029062D03*
X020241Y029062D03*
X019493Y029062D03*
X019493Y028275D03*
X018509Y029062D03*
X018509Y029849D03*
X017721Y029849D03*
X017721Y029062D03*
X019394Y029849D03*
X019394Y030637D03*
X019985Y030637D03*
X019985Y031424D03*
X020772Y030637D03*
X021855Y030243D03*
X022249Y030243D03*
X020871Y028275D03*
X020871Y027487D03*
X020772Y026011D03*
X021560Y025617D03*
X023528Y027192D03*
X023528Y027979D03*
X024316Y027782D03*
X025103Y027782D03*
X024316Y028570D03*
X024414Y030342D03*
X025202Y030342D03*
X025398Y031129D03*
X025300Y031818D03*
X024611Y031129D03*
X026186Y031916D03*
X026678Y030735D03*
X025989Y033294D03*
X024217Y033491D03*
X023824Y033885D03*
X023331Y033590D03*
X022721Y034082D03*
X022721Y034475D03*
X022328Y034475D03*
X022328Y034082D03*
X021855Y035066D03*
X021461Y035558D03*
X021461Y036247D03*
X021363Y037133D03*
X021461Y037920D03*
X021461Y038708D03*
X021461Y039495D03*
X021363Y040282D03*
X021363Y041070D03*
X021461Y041857D03*
X021461Y042645D03*
X021757Y043531D03*
X022446Y044121D03*
X023725Y044219D03*
X024709Y044219D03*
X025595Y044515D03*
X026087Y044515D03*
X026580Y044515D03*
X026580Y042546D03*
X026087Y042546D03*
X025595Y042546D03*
X024709Y042842D03*
X023725Y042842D03*
X022839Y042645D03*
X022839Y041857D03*
X022839Y041070D03*
X022839Y040282D03*
X022839Y039495D03*
X022839Y038708D03*
X022839Y037920D03*
X023528Y037133D03*
X023528Y036405D03*
X022741Y036385D03*
X023233Y035027D03*
X020969Y034082D03*
X021127Y033491D03*
X024709Y026503D03*
X025497Y026503D03*
X019296Y025420D03*
X026087Y016168D03*
X026186Y012625D03*
X035635Y012133D03*
X035635Y013845D03*
X038489Y011149D03*
X039375Y009869D03*
X043706Y013314D03*
X045674Y013314D03*
X048036Y012428D03*
X048036Y011149D03*
X048135Y009869D03*
X053745Y012389D03*
X044985Y036149D03*
X044690Y036641D03*
X044394Y037133D03*
X044394Y042349D03*
X045674Y042743D03*
X045280Y043727D03*
X046068Y045204D03*
X046068Y046090D03*
X044493Y048058D03*
X043312Y047763D03*
X042032Y045794D03*
X042918Y045696D03*
X040851Y045007D03*
X039670Y043924D03*
X038095Y046975D03*
X038391Y047763D03*
X035536Y037133D03*
X035930Y036641D03*
X036324Y036149D03*
X026580Y046582D03*
X026580Y048156D03*
X025005Y048156D03*
X024217Y047960D03*
X023135Y047960D03*
X022150Y047960D03*
X021068Y047960D03*
X021757Y046582D03*
X019690Y045105D03*
X018509Y045893D03*
X017721Y045893D03*
X016934Y045893D03*
X015950Y046385D03*
X014572Y046779D03*
X014572Y048058D03*
X015753Y048058D03*
X017721Y047960D03*
X013095Y047960D03*
X012111Y047960D03*
X011127Y047960D03*
X010143Y047960D03*
X009257Y048156D03*
X009257Y046582D03*
X007682Y046582D03*
X007682Y048156D03*
X010831Y046877D03*
X010635Y044810D03*
X008863Y043137D03*
X008469Y043137D03*
X008076Y043137D03*
X009454Y041267D03*
X010044Y041267D03*
X010635Y041070D03*
X010635Y042251D03*
X008174Y032999D03*
X008568Y029849D03*
X007780Y029160D03*
X008666Y025519D03*
X007977Y024928D03*
X025005Y046582D03*
D56*
X021658Y045105D03*
X020871Y045105D03*
X019099Y043531D03*
X018509Y043531D03*
X018115Y042743D03*
X018607Y041660D03*
X017623Y041660D03*
X016934Y043531D03*
X019591Y042448D03*
X016934Y046680D03*
X016934Y047960D03*
X015359Y046779D03*
X018509Y047960D03*
X019296Y047960D03*
X020083Y047960D03*
X014670Y039594D03*
X014670Y039200D03*
X014670Y038806D03*
X014670Y038412D03*
X014670Y038019D03*
X014670Y037625D03*
X012406Y037330D03*
X012111Y037625D03*
X011225Y037428D03*
X011225Y038216D03*
X010339Y038216D03*
X009650Y038806D03*
X008863Y038806D03*
X009158Y037822D03*
X009355Y037330D03*
X009946Y036936D03*
X009355Y035755D03*
X008371Y035066D03*
X009058Y034277D03*
X008174Y033885D03*
X009847Y032507D03*
X010536Y033294D03*
X011914Y034279D03*
X011914Y032015D03*
X012013Y030538D03*
X014080Y028964D03*
X013391Y028176D03*
X013194Y027586D03*
X012406Y027586D03*
X012505Y025322D03*
X013292Y025322D03*
X014867Y026601D03*
X014867Y027586D03*
X015654Y028471D03*
X017032Y027782D03*
X018115Y025912D03*
X019394Y026405D03*
X019296Y024633D03*
X018607Y023747D03*
X016639Y024436D03*
X016639Y020597D03*
X013686Y018727D03*
X013194Y018137D03*
X010536Y018432D03*
X009060Y017940D03*
X008272Y018629D03*
X009847Y016857D03*
X012898Y014397D03*
X014670Y014101D03*
X017131Y010361D03*
X019591Y010263D03*
X020969Y011838D03*
X021855Y011838D03*
X022249Y014397D03*
X021363Y016070D03*
X024709Y016070D03*
X026087Y015381D03*
X021954Y019908D03*
X021166Y019908D03*
X021068Y021483D03*
X021068Y021975D03*
X022052Y022566D03*
X022347Y024633D03*
X021265Y024731D03*
X020674Y025420D03*
X022347Y026011D03*
X022741Y026306D03*
X023135Y026601D03*
X023036Y027290D03*
X025497Y024731D03*
X025103Y024338D03*
X024709Y023944D03*
X025595Y023156D03*
X024906Y022566D03*
X026481Y025519D03*
X018115Y014987D03*
X010143Y012822D03*
X009257Y011149D03*
X010143Y010263D03*
X009257Y009574D03*
X007682Y009574D03*
X007682Y011149D03*
X008174Y022861D03*
X007977Y025716D03*
X008174Y030735D03*
X007780Y036838D03*
X008272Y040282D03*
X010635Y040282D03*
X012406Y038511D03*
X012209Y046188D03*
X011619Y046188D03*
X043213Y041759D03*
D57*
X043213Y045401D01*
X042918Y045696D01*
X026481Y024338D02*
X026087Y023944D01*
X025595Y023944D01*
X025300Y022271D02*
X024906Y021877D01*
X024503Y021877D01*
X024503Y021680D02*
X025694Y021680D01*
X025891Y021877D01*
X025005Y021090D02*
X024503Y021090D01*
X025005Y021090D02*
X025202Y020893D01*
X025202Y020007D01*
X025989Y020007D01*
X023036Y027290D02*
X023135Y027487D01*
X023135Y028471D01*
X021127Y033491D02*
X020379Y033491D01*
X011619Y039298D02*
X011619Y040243D01*
X011540Y040460D01*
X011461Y040676D01*
X011619Y039298D02*
X011284Y038964D01*
X010733Y038964D01*
X010359Y039790D02*
X009847Y039790D01*
X009650Y039594D01*
X009650Y040578D01*
X009749Y040676D01*
X009749Y043531D01*
X009355Y043924D01*
X008469Y043924D01*
X008765Y043137D02*
X008863Y043137D01*
X009060Y042054D02*
X009158Y041956D01*
X009158Y040282D01*
X009060Y040282D01*
X009257Y039987D01*
X009257Y039377D01*
X009454Y039377D02*
X009454Y041267D01*
X008863Y041267D02*
X008666Y041070D01*
X008666Y039987D01*
X008765Y039889D01*
X008863Y039889D01*
X009060Y039692D01*
X009060Y039377D01*
X009650Y039377D02*
X009650Y039594D01*
X009847Y038235D02*
X009867Y038216D01*
X010339Y038216D01*
X009355Y036542D02*
X008568Y037330D01*
X008568Y036542D02*
X008568Y035755D01*
X007780Y036739D02*
X007780Y036838D01*
X007682Y039397D02*
X007682Y042251D01*
X010635Y042251D02*
X010654Y042251D01*
X010654Y044810D02*
X010635Y044810D01*
X010871Y046838D02*
X010831Y046877D01*
X010871Y046838D02*
X011107Y046838D01*
X011127Y047960D02*
X011166Y047960D01*
X012072Y047960D02*
X012111Y047960D01*
X023154Y046838D02*
X023194Y046838D01*
X023233Y046877D01*
X008961Y029849D02*
X008568Y029849D01*
X007780Y028373D02*
X007780Y027586D01*
X007780Y026405D02*
X009552Y026405D01*
X009749Y026208D01*
X009749Y025971D01*
D58*
X013686Y014397D02*
X013981Y014101D01*
X014670Y014101D01*
X014670Y012842D01*
X016107Y013511D02*
X016107Y014259D01*
X016146Y014200D01*
X018115Y014200D02*
X018174Y014141D01*
X018174Y013511D01*
X019493Y012782D02*
X020438Y011838D01*
X020969Y011838D01*
X021855Y011838D02*
X025398Y011838D01*
X025595Y012034D01*
X025595Y013412D01*
X025339Y013668D01*
X025339Y013806D01*
X025339Y013570D01*
X025891Y013117D02*
X026087Y012920D01*
X026087Y012822D01*
X026087Y012684D01*
X026146Y012625D01*
X026284Y012487D01*
X025891Y013117D02*
X025891Y014397D01*
X025694Y014594D01*
X023627Y014594D01*
X023331Y014889D01*
X023331Y015873D01*
X023089Y016115D01*
X022400Y016115D01*
X022408Y017115D02*
X023566Y017115D01*
X023725Y016956D01*
X023725Y015184D01*
X024020Y014889D01*
X025989Y014889D01*
X026383Y014495D01*
X026383Y013471D01*
X026442Y013806D01*
X025044Y012625D02*
X024532Y012625D01*
X024119Y012842D01*
X018174Y010361D02*
X017131Y010361D01*
X016107Y010361D01*
X010143Y012822D02*
X010103Y012782D01*
X010044Y012782D01*
X012269Y039574D02*
X012583Y039968D01*
X012564Y040538D01*
X012564Y040676D01*
X011540Y040460D02*
X011363Y040282D01*
X010635Y040282D01*
X010241Y040282D01*
X010044Y040479D01*
X010044Y041267D01*
X009060Y042054D02*
X007879Y042054D01*
X007682Y042251D01*
X007485Y042448D01*
X007485Y045696D01*
X007879Y046090D01*
X009355Y046090D01*
X009749Y046483D01*
X009749Y047074D01*
X010044Y047369D01*
X012505Y047369D01*
X012505Y046975D01*
X012367Y046838D01*
X012150Y046838D01*
X012505Y047369D02*
X023036Y047369D01*
X023233Y047172D01*
X023233Y046877D01*
X021658Y045893D02*
X020871Y045893D01*
X020831Y045932D01*
X020083Y045932D01*
X019296Y045932D01*
X018509Y047960D02*
X018509Y047999D01*
X035536Y037133D02*
X044394Y037133D01*
X044690Y036641D02*
X035930Y036641D01*
X036324Y036149D02*
X044985Y036149D01*
X042229Y045007D02*
X040851Y045007D01*
X042229Y045007D02*
X042918Y045696D01*
X043312Y046090D01*
X046068Y046090D01*
X048036Y012428D02*
X035930Y012428D01*
X035635Y012133D01*
X038489Y011149D02*
X048036Y011149D01*
X048135Y009869D02*
X039375Y009869D01*
D59*
X022396Y035027D02*
X022396Y035568D01*
X022150Y035755D01*
X022150Y036542D02*
X022150Y037133D01*
X022150Y037723D01*
X022150Y038511D02*
X022150Y038905D01*
X022150Y039692D02*
X022150Y040282D01*
X022150Y041168D01*
X022091Y041109D01*
X022150Y041070D01*
X022150Y041168D02*
X022150Y041660D01*
X022150Y042448D02*
X022152Y042511D01*
X022157Y042574D01*
X022166Y042636D01*
X022179Y042698D01*
X022195Y042759D01*
X022215Y042818D01*
X022239Y042877D01*
X022265Y042934D01*
X022295Y042990D01*
X022328Y043043D01*
X022364Y043095D01*
X022403Y043144D01*
X022445Y043191D01*
X022490Y043236D01*
X022537Y043278D01*
X022586Y043317D01*
X022638Y043353D01*
X022692Y043386D01*
X022747Y043416D01*
X022804Y043442D01*
X022863Y043466D01*
X022922Y043486D01*
X022983Y043502D01*
X023045Y043515D01*
X023107Y043524D01*
X023170Y043529D01*
X023233Y043531D01*
X025989Y043531D01*
D60*
X012150Y046838D02*
X012131Y046838D01*
D61*
X035635Y013845D02*
X036166Y013314D01*
X043706Y013314D01*
X045674Y013314D01*
X052820Y013314D01*
X053745Y012389D01*
M02*
