G75*
G70*
%OFA0B0*%
%FSLAX24Y24*%
%IPPOS*%
%LPD*%
%AMOC8*
5,1,8,0,0,1.08239X$1,22.5*
%
%ADD10C,0.0000*%
%ADD11C,0.0030*%
%ADD12C,0.0050*%
%ADD13C,0.0157*%
%ADD14C,0.0079*%
%ADD15C,0.0080*%
%ADD16C,0.0118*%
D10*
X007288Y009180D02*
X007288Y048550D01*
X026973Y048550D01*
X026973Y009180D01*
X007288Y009180D01*
X007889Y010361D02*
X007891Y010409D01*
X007897Y010456D01*
X007907Y010503D01*
X007920Y010549D01*
X007938Y010594D01*
X007959Y010637D01*
X007983Y010678D01*
X008011Y010717D01*
X008042Y010754D01*
X008076Y010788D01*
X008113Y010819D01*
X008152Y010847D01*
X008193Y010871D01*
X008236Y010892D01*
X008281Y010910D01*
X008327Y010923D01*
X008374Y010933D01*
X008421Y010939D01*
X008469Y010941D01*
X008517Y010939D01*
X008564Y010933D01*
X008611Y010923D01*
X008657Y010910D01*
X008702Y010892D01*
X008745Y010871D01*
X008786Y010847D01*
X008825Y010819D01*
X008862Y010788D01*
X008896Y010754D01*
X008927Y010717D01*
X008955Y010678D01*
X008979Y010637D01*
X009000Y010594D01*
X009018Y010549D01*
X009031Y010503D01*
X009041Y010456D01*
X009047Y010409D01*
X009049Y010361D01*
X009047Y010313D01*
X009041Y010266D01*
X009031Y010219D01*
X009018Y010173D01*
X009000Y010128D01*
X008979Y010085D01*
X008955Y010044D01*
X008927Y010005D01*
X008896Y009968D01*
X008862Y009934D01*
X008825Y009903D01*
X008786Y009875D01*
X008745Y009851D01*
X008702Y009830D01*
X008657Y009812D01*
X008611Y009799D01*
X008564Y009789D01*
X008517Y009783D01*
X008469Y009781D01*
X008421Y009783D01*
X008374Y009789D01*
X008327Y009799D01*
X008281Y009812D01*
X008236Y009830D01*
X008193Y009851D01*
X008152Y009875D01*
X008113Y009903D01*
X008076Y009934D01*
X008042Y009968D01*
X008011Y010005D01*
X007983Y010044D01*
X007959Y010085D01*
X007938Y010128D01*
X007920Y010173D01*
X007907Y010219D01*
X007897Y010266D01*
X007891Y010313D01*
X007889Y010361D01*
X012091Y010361D02*
X012093Y010396D01*
X012099Y010431D01*
X012109Y010465D01*
X012122Y010498D01*
X012139Y010529D01*
X012160Y010557D01*
X012183Y010584D01*
X012210Y010607D01*
X012238Y010628D01*
X012269Y010645D01*
X012302Y010658D01*
X012336Y010668D01*
X012371Y010674D01*
X012406Y010676D01*
X012441Y010674D01*
X012476Y010668D01*
X012510Y010658D01*
X012543Y010645D01*
X012574Y010628D01*
X012602Y010607D01*
X012629Y010584D01*
X012652Y010557D01*
X012673Y010529D01*
X012690Y010498D01*
X012703Y010465D01*
X012713Y010431D01*
X012719Y010396D01*
X012721Y010361D01*
X012719Y010326D01*
X012713Y010291D01*
X012703Y010257D01*
X012690Y010224D01*
X012673Y010193D01*
X012652Y010165D01*
X012629Y010138D01*
X012602Y010115D01*
X012574Y010094D01*
X012543Y010077D01*
X012510Y010064D01*
X012476Y010054D01*
X012441Y010048D01*
X012406Y010046D01*
X012371Y010048D01*
X012336Y010054D01*
X012302Y010064D01*
X012269Y010077D01*
X012238Y010094D01*
X012210Y010115D01*
X012183Y010138D01*
X012160Y010165D01*
X012139Y010193D01*
X012122Y010224D01*
X012109Y010257D01*
X012099Y010291D01*
X012093Y010326D01*
X012091Y010361D01*
X012091Y012723D02*
X012093Y012758D01*
X012099Y012793D01*
X012109Y012827D01*
X012122Y012860D01*
X012139Y012891D01*
X012160Y012919D01*
X012183Y012946D01*
X012210Y012969D01*
X012238Y012990D01*
X012269Y013007D01*
X012302Y013020D01*
X012336Y013030D01*
X012371Y013036D01*
X012406Y013038D01*
X012441Y013036D01*
X012476Y013030D01*
X012510Y013020D01*
X012543Y013007D01*
X012574Y012990D01*
X012602Y012969D01*
X012629Y012946D01*
X012652Y012919D01*
X012673Y012891D01*
X012690Y012860D01*
X012703Y012827D01*
X012713Y012793D01*
X012719Y012758D01*
X012721Y012723D01*
X012719Y012688D01*
X012713Y012653D01*
X012703Y012619D01*
X012690Y012586D01*
X012673Y012555D01*
X012652Y012527D01*
X012629Y012500D01*
X012602Y012477D01*
X012574Y012456D01*
X012543Y012439D01*
X012510Y012426D01*
X012476Y012416D01*
X012441Y012410D01*
X012406Y012408D01*
X012371Y012410D01*
X012336Y012416D01*
X012302Y012426D01*
X012269Y012439D01*
X012238Y012456D01*
X012210Y012477D01*
X012183Y012500D01*
X012160Y012527D01*
X012139Y012555D01*
X012122Y012586D01*
X012109Y012619D01*
X012099Y012653D01*
X012093Y012688D01*
X012091Y012723D01*
X021540Y012723D02*
X021542Y012758D01*
X021548Y012793D01*
X021558Y012827D01*
X021571Y012860D01*
X021588Y012891D01*
X021609Y012919D01*
X021632Y012946D01*
X021659Y012969D01*
X021687Y012990D01*
X021718Y013007D01*
X021751Y013020D01*
X021785Y013030D01*
X021820Y013036D01*
X021855Y013038D01*
X021890Y013036D01*
X021925Y013030D01*
X021959Y013020D01*
X021992Y013007D01*
X022023Y012990D01*
X022051Y012969D01*
X022078Y012946D01*
X022101Y012919D01*
X022122Y012891D01*
X022139Y012860D01*
X022152Y012827D01*
X022162Y012793D01*
X022168Y012758D01*
X022170Y012723D01*
X022168Y012688D01*
X022162Y012653D01*
X022152Y012619D01*
X022139Y012586D01*
X022122Y012555D01*
X022101Y012527D01*
X022078Y012500D01*
X022051Y012477D01*
X022023Y012456D01*
X021992Y012439D01*
X021959Y012426D01*
X021925Y012416D01*
X021890Y012410D01*
X021855Y012408D01*
X021820Y012410D01*
X021785Y012416D01*
X021751Y012426D01*
X021718Y012439D01*
X021687Y012456D01*
X021659Y012477D01*
X021632Y012500D01*
X021609Y012527D01*
X021588Y012555D01*
X021571Y012586D01*
X021558Y012619D01*
X021548Y012653D01*
X021542Y012688D01*
X021540Y012723D01*
X021540Y010361D02*
X021542Y010396D01*
X021548Y010431D01*
X021558Y010465D01*
X021571Y010498D01*
X021588Y010529D01*
X021609Y010557D01*
X021632Y010584D01*
X021659Y010607D01*
X021687Y010628D01*
X021718Y010645D01*
X021751Y010658D01*
X021785Y010668D01*
X021820Y010674D01*
X021855Y010676D01*
X021890Y010674D01*
X021925Y010668D01*
X021959Y010658D01*
X021992Y010645D01*
X022023Y010628D01*
X022051Y010607D01*
X022078Y010584D01*
X022101Y010557D01*
X022122Y010529D01*
X022139Y010498D01*
X022152Y010465D01*
X022162Y010431D01*
X022168Y010396D01*
X022170Y010361D01*
X022168Y010326D01*
X022162Y010291D01*
X022152Y010257D01*
X022139Y010224D01*
X022122Y010193D01*
X022101Y010165D01*
X022078Y010138D01*
X022051Y010115D01*
X022023Y010094D01*
X021992Y010077D01*
X021959Y010064D01*
X021925Y010054D01*
X021890Y010048D01*
X021855Y010046D01*
X021820Y010048D01*
X021785Y010054D01*
X021751Y010064D01*
X021718Y010077D01*
X021687Y010094D01*
X021659Y010115D01*
X021632Y010138D01*
X021609Y010165D01*
X021588Y010193D01*
X021571Y010224D01*
X021558Y010257D01*
X021548Y010291D01*
X021542Y010326D01*
X021540Y010361D01*
X025212Y010361D02*
X025214Y010409D01*
X025220Y010456D01*
X025230Y010503D01*
X025243Y010549D01*
X025261Y010594D01*
X025282Y010637D01*
X025306Y010678D01*
X025334Y010717D01*
X025365Y010754D01*
X025399Y010788D01*
X025436Y010819D01*
X025475Y010847D01*
X025516Y010871D01*
X025559Y010892D01*
X025604Y010910D01*
X025650Y010923D01*
X025697Y010933D01*
X025744Y010939D01*
X025792Y010941D01*
X025840Y010939D01*
X025887Y010933D01*
X025934Y010923D01*
X025980Y010910D01*
X026025Y010892D01*
X026068Y010871D01*
X026109Y010847D01*
X026148Y010819D01*
X026185Y010788D01*
X026219Y010754D01*
X026250Y010717D01*
X026278Y010678D01*
X026302Y010637D01*
X026323Y010594D01*
X026341Y010549D01*
X026354Y010503D01*
X026364Y010456D01*
X026370Y010409D01*
X026372Y010361D01*
X026370Y010313D01*
X026364Y010266D01*
X026354Y010219D01*
X026341Y010173D01*
X026323Y010128D01*
X026302Y010085D01*
X026278Y010044D01*
X026250Y010005D01*
X026219Y009968D01*
X026185Y009934D01*
X026148Y009903D01*
X026109Y009875D01*
X026068Y009851D01*
X026025Y009830D01*
X025980Y009812D01*
X025934Y009799D01*
X025887Y009789D01*
X025840Y009783D01*
X025792Y009781D01*
X025744Y009783D01*
X025697Y009789D01*
X025650Y009799D01*
X025604Y009812D01*
X025559Y009830D01*
X025516Y009851D01*
X025475Y009875D01*
X025436Y009903D01*
X025399Y009934D01*
X025365Y009968D01*
X025334Y010005D01*
X025306Y010044D01*
X025282Y010085D01*
X025261Y010128D01*
X025243Y010173D01*
X025230Y010219D01*
X025220Y010266D01*
X025214Y010313D01*
X025212Y010361D01*
X034847Y009180D02*
X034847Y048550D01*
X054532Y048550D01*
X054532Y009180D01*
X034847Y009180D01*
X035448Y010361D02*
X035450Y010409D01*
X035456Y010456D01*
X035466Y010503D01*
X035479Y010549D01*
X035497Y010594D01*
X035518Y010637D01*
X035542Y010678D01*
X035570Y010717D01*
X035601Y010754D01*
X035635Y010788D01*
X035672Y010819D01*
X035711Y010847D01*
X035752Y010871D01*
X035795Y010892D01*
X035840Y010910D01*
X035886Y010923D01*
X035933Y010933D01*
X035980Y010939D01*
X036028Y010941D01*
X036076Y010939D01*
X036123Y010933D01*
X036170Y010923D01*
X036216Y010910D01*
X036261Y010892D01*
X036304Y010871D01*
X036345Y010847D01*
X036384Y010819D01*
X036421Y010788D01*
X036455Y010754D01*
X036486Y010717D01*
X036514Y010678D01*
X036538Y010637D01*
X036559Y010594D01*
X036577Y010549D01*
X036590Y010503D01*
X036600Y010456D01*
X036606Y010409D01*
X036608Y010361D01*
X036606Y010313D01*
X036600Y010266D01*
X036590Y010219D01*
X036577Y010173D01*
X036559Y010128D01*
X036538Y010085D01*
X036514Y010044D01*
X036486Y010005D01*
X036455Y009968D01*
X036421Y009934D01*
X036384Y009903D01*
X036345Y009875D01*
X036304Y009851D01*
X036261Y009830D01*
X036216Y009812D01*
X036170Y009799D01*
X036123Y009789D01*
X036076Y009783D01*
X036028Y009781D01*
X035980Y009783D01*
X035933Y009789D01*
X035886Y009799D01*
X035840Y009812D01*
X035795Y009830D01*
X035752Y009851D01*
X035711Y009875D01*
X035672Y009903D01*
X035635Y009934D01*
X035601Y009968D01*
X035570Y010005D01*
X035542Y010044D01*
X035518Y010085D01*
X035497Y010128D01*
X035479Y010173D01*
X035466Y010219D01*
X035456Y010266D01*
X035450Y010313D01*
X035448Y010361D01*
X052771Y010361D02*
X052773Y010409D01*
X052779Y010456D01*
X052789Y010503D01*
X052802Y010549D01*
X052820Y010594D01*
X052841Y010637D01*
X052865Y010678D01*
X052893Y010717D01*
X052924Y010754D01*
X052958Y010788D01*
X052995Y010819D01*
X053034Y010847D01*
X053075Y010871D01*
X053118Y010892D01*
X053163Y010910D01*
X053209Y010923D01*
X053256Y010933D01*
X053303Y010939D01*
X053351Y010941D01*
X053399Y010939D01*
X053446Y010933D01*
X053493Y010923D01*
X053539Y010910D01*
X053584Y010892D01*
X053627Y010871D01*
X053668Y010847D01*
X053707Y010819D01*
X053744Y010788D01*
X053778Y010754D01*
X053809Y010717D01*
X053837Y010678D01*
X053861Y010637D01*
X053882Y010594D01*
X053900Y010549D01*
X053913Y010503D01*
X053923Y010456D01*
X053929Y010409D01*
X053931Y010361D01*
X053929Y010313D01*
X053923Y010266D01*
X053913Y010219D01*
X053900Y010173D01*
X053882Y010128D01*
X053861Y010085D01*
X053837Y010044D01*
X053809Y010005D01*
X053778Y009968D01*
X053744Y009934D01*
X053707Y009903D01*
X053668Y009875D01*
X053627Y009851D01*
X053584Y009830D01*
X053539Y009812D01*
X053493Y009799D01*
X053446Y009789D01*
X053399Y009783D01*
X053351Y009781D01*
X053303Y009783D01*
X053256Y009789D01*
X053209Y009799D01*
X053163Y009812D01*
X053118Y009830D01*
X053075Y009851D01*
X053034Y009875D01*
X052995Y009903D01*
X052958Y009934D01*
X052924Y009968D01*
X052893Y010005D01*
X052865Y010044D01*
X052841Y010085D01*
X052820Y010128D01*
X052802Y010173D01*
X052789Y010219D01*
X052779Y010266D01*
X052773Y010313D01*
X052771Y010361D01*
X052771Y047369D02*
X052773Y047417D01*
X052779Y047464D01*
X052789Y047511D01*
X052802Y047557D01*
X052820Y047602D01*
X052841Y047645D01*
X052865Y047686D01*
X052893Y047725D01*
X052924Y047762D01*
X052958Y047796D01*
X052995Y047827D01*
X053034Y047855D01*
X053075Y047879D01*
X053118Y047900D01*
X053163Y047918D01*
X053209Y047931D01*
X053256Y047941D01*
X053303Y047947D01*
X053351Y047949D01*
X053399Y047947D01*
X053446Y047941D01*
X053493Y047931D01*
X053539Y047918D01*
X053584Y047900D01*
X053627Y047879D01*
X053668Y047855D01*
X053707Y047827D01*
X053744Y047796D01*
X053778Y047762D01*
X053809Y047725D01*
X053837Y047686D01*
X053861Y047645D01*
X053882Y047602D01*
X053900Y047557D01*
X053913Y047511D01*
X053923Y047464D01*
X053929Y047417D01*
X053931Y047369D01*
X053929Y047321D01*
X053923Y047274D01*
X053913Y047227D01*
X053900Y047181D01*
X053882Y047136D01*
X053861Y047093D01*
X053837Y047052D01*
X053809Y047013D01*
X053778Y046976D01*
X053744Y046942D01*
X053707Y046911D01*
X053668Y046883D01*
X053627Y046859D01*
X053584Y046838D01*
X053539Y046820D01*
X053493Y046807D01*
X053446Y046797D01*
X053399Y046791D01*
X053351Y046789D01*
X053303Y046791D01*
X053256Y046797D01*
X053209Y046807D01*
X053163Y046820D01*
X053118Y046838D01*
X053075Y046859D01*
X053034Y046883D01*
X052995Y046911D01*
X052958Y046942D01*
X052924Y046976D01*
X052893Y047013D01*
X052865Y047052D01*
X052841Y047093D01*
X052820Y047136D01*
X052802Y047181D01*
X052789Y047227D01*
X052779Y047274D01*
X052773Y047321D01*
X052771Y047369D01*
X035448Y047369D02*
X035450Y047417D01*
X035456Y047464D01*
X035466Y047511D01*
X035479Y047557D01*
X035497Y047602D01*
X035518Y047645D01*
X035542Y047686D01*
X035570Y047725D01*
X035601Y047762D01*
X035635Y047796D01*
X035672Y047827D01*
X035711Y047855D01*
X035752Y047879D01*
X035795Y047900D01*
X035840Y047918D01*
X035886Y047931D01*
X035933Y047941D01*
X035980Y047947D01*
X036028Y047949D01*
X036076Y047947D01*
X036123Y047941D01*
X036170Y047931D01*
X036216Y047918D01*
X036261Y047900D01*
X036304Y047879D01*
X036345Y047855D01*
X036384Y047827D01*
X036421Y047796D01*
X036455Y047762D01*
X036486Y047725D01*
X036514Y047686D01*
X036538Y047645D01*
X036559Y047602D01*
X036577Y047557D01*
X036590Y047511D01*
X036600Y047464D01*
X036606Y047417D01*
X036608Y047369D01*
X036606Y047321D01*
X036600Y047274D01*
X036590Y047227D01*
X036577Y047181D01*
X036559Y047136D01*
X036538Y047093D01*
X036514Y047052D01*
X036486Y047013D01*
X036455Y046976D01*
X036421Y046942D01*
X036384Y046911D01*
X036345Y046883D01*
X036304Y046859D01*
X036261Y046838D01*
X036216Y046820D01*
X036170Y046807D01*
X036123Y046797D01*
X036076Y046791D01*
X036028Y046789D01*
X035980Y046791D01*
X035933Y046797D01*
X035886Y046807D01*
X035840Y046820D01*
X035795Y046838D01*
X035752Y046859D01*
X035711Y046883D01*
X035672Y046911D01*
X035635Y046942D01*
X035601Y046976D01*
X035570Y047013D01*
X035542Y047052D01*
X035518Y047093D01*
X035497Y047136D01*
X035479Y047181D01*
X035466Y047227D01*
X035456Y047274D01*
X035450Y047321D01*
X035448Y047369D01*
X025212Y047369D02*
X025214Y047417D01*
X025220Y047464D01*
X025230Y047511D01*
X025243Y047557D01*
X025261Y047602D01*
X025282Y047645D01*
X025306Y047686D01*
X025334Y047725D01*
X025365Y047762D01*
X025399Y047796D01*
X025436Y047827D01*
X025475Y047855D01*
X025516Y047879D01*
X025559Y047900D01*
X025604Y047918D01*
X025650Y047931D01*
X025697Y047941D01*
X025744Y047947D01*
X025792Y047949D01*
X025840Y047947D01*
X025887Y047941D01*
X025934Y047931D01*
X025980Y047918D01*
X026025Y047900D01*
X026068Y047879D01*
X026109Y047855D01*
X026148Y047827D01*
X026185Y047796D01*
X026219Y047762D01*
X026250Y047725D01*
X026278Y047686D01*
X026302Y047645D01*
X026323Y047602D01*
X026341Y047557D01*
X026354Y047511D01*
X026364Y047464D01*
X026370Y047417D01*
X026372Y047369D01*
X026370Y047321D01*
X026364Y047274D01*
X026354Y047227D01*
X026341Y047181D01*
X026323Y047136D01*
X026302Y047093D01*
X026278Y047052D01*
X026250Y047013D01*
X026219Y046976D01*
X026185Y046942D01*
X026148Y046911D01*
X026109Y046883D01*
X026068Y046859D01*
X026025Y046838D01*
X025980Y046820D01*
X025934Y046807D01*
X025887Y046797D01*
X025840Y046791D01*
X025792Y046789D01*
X025744Y046791D01*
X025697Y046797D01*
X025650Y046807D01*
X025604Y046820D01*
X025559Y046838D01*
X025516Y046859D01*
X025475Y046883D01*
X025436Y046911D01*
X025399Y046942D01*
X025365Y046976D01*
X025334Y047013D01*
X025306Y047052D01*
X025282Y047093D01*
X025261Y047136D01*
X025243Y047181D01*
X025230Y047227D01*
X025220Y047274D01*
X025214Y047321D01*
X025212Y047369D01*
X007889Y047369D02*
X007891Y047417D01*
X007897Y047464D01*
X007907Y047511D01*
X007920Y047557D01*
X007938Y047602D01*
X007959Y047645D01*
X007983Y047686D01*
X008011Y047725D01*
X008042Y047762D01*
X008076Y047796D01*
X008113Y047827D01*
X008152Y047855D01*
X008193Y047879D01*
X008236Y047900D01*
X008281Y047918D01*
X008327Y047931D01*
X008374Y047941D01*
X008421Y047947D01*
X008469Y047949D01*
X008517Y047947D01*
X008564Y047941D01*
X008611Y047931D01*
X008657Y047918D01*
X008702Y047900D01*
X008745Y047879D01*
X008786Y047855D01*
X008825Y047827D01*
X008862Y047796D01*
X008896Y047762D01*
X008927Y047725D01*
X008955Y047686D01*
X008979Y047645D01*
X009000Y047602D01*
X009018Y047557D01*
X009031Y047511D01*
X009041Y047464D01*
X009047Y047417D01*
X009049Y047369D01*
X009047Y047321D01*
X009041Y047274D01*
X009031Y047227D01*
X009018Y047181D01*
X009000Y047136D01*
X008979Y047093D01*
X008955Y047052D01*
X008927Y047013D01*
X008896Y046976D01*
X008862Y046942D01*
X008825Y046911D01*
X008786Y046883D01*
X008745Y046859D01*
X008702Y046838D01*
X008657Y046820D01*
X008611Y046807D01*
X008564Y046797D01*
X008517Y046791D01*
X008469Y046789D01*
X008421Y046791D01*
X008374Y046797D01*
X008327Y046807D01*
X008281Y046820D01*
X008236Y046838D01*
X008193Y046859D01*
X008152Y046883D01*
X008113Y046911D01*
X008076Y046942D01*
X008042Y046976D01*
X008011Y047013D01*
X007983Y047052D01*
X007959Y047093D01*
X007938Y047136D01*
X007920Y047181D01*
X007907Y047227D01*
X007897Y047274D01*
X007891Y047321D01*
X007889Y047369D01*
D11*
X035918Y043026D02*
X036114Y043026D01*
X036114Y043319D01*
X036216Y043319D02*
X036216Y043075D01*
X036264Y043026D01*
X036362Y043026D01*
X036411Y043075D01*
X036411Y043319D01*
X036513Y042977D02*
X036708Y042977D01*
X036810Y043075D02*
X036859Y043026D01*
X037006Y043026D01*
X037006Y043319D01*
X036859Y043319D01*
X036810Y043270D01*
X036810Y043075D01*
X037107Y043026D02*
X037303Y043026D01*
X037303Y043319D01*
X037107Y043319D01*
X037205Y043172D02*
X037303Y043172D01*
X037405Y043026D02*
X037600Y043026D01*
X037600Y043319D01*
X039935Y043348D02*
X039935Y043446D01*
X039984Y043495D01*
X040033Y043495D01*
X040082Y043446D01*
X040082Y043299D01*
X039984Y043299D01*
X039935Y043348D01*
X039935Y043198D02*
X039935Y043002D01*
X040130Y043198D01*
X040179Y043198D01*
X040228Y043149D01*
X040228Y043051D01*
X040179Y043002D01*
X040198Y043057D02*
X040247Y043008D01*
X040344Y043008D01*
X040393Y043057D01*
X040393Y043155D02*
X040296Y043204D01*
X040247Y043204D01*
X040198Y043155D01*
X040198Y043057D01*
X040179Y042900D02*
X040082Y042900D01*
X040033Y042852D01*
X040033Y042705D01*
X040033Y042803D02*
X039935Y042900D01*
X039935Y042705D02*
X040228Y042705D01*
X040228Y042852D01*
X040179Y042900D01*
X040393Y043155D02*
X040393Y043301D01*
X040198Y043301D01*
X040179Y043397D02*
X040082Y043299D01*
X040179Y043397D02*
X040228Y043495D01*
X040495Y043301D02*
X040690Y043301D01*
X040690Y043155D01*
X040593Y043204D01*
X040544Y043204D01*
X040495Y043155D01*
X040495Y043057D01*
X040544Y043008D01*
X040642Y043008D01*
X040690Y043057D01*
X040792Y043057D02*
X040841Y043008D01*
X040939Y043008D01*
X040988Y043057D01*
X040988Y043252D01*
X040939Y043301D01*
X040841Y043301D01*
X040792Y043252D01*
X041031Y042808D02*
X041080Y042808D01*
X041129Y042759D01*
X041129Y042612D01*
X041031Y042612D01*
X040982Y042661D01*
X040982Y042759D01*
X041031Y042808D01*
X041227Y042710D02*
X041129Y042612D01*
X041178Y042511D02*
X041129Y042462D01*
X041080Y042511D01*
X041031Y042511D01*
X040982Y042462D01*
X040982Y042364D01*
X041031Y042315D01*
X040982Y042213D02*
X041080Y042116D01*
X041080Y042164D02*
X041080Y042018D01*
X040982Y042018D02*
X041275Y042018D01*
X041275Y042164D01*
X041227Y042213D01*
X041129Y042213D01*
X041080Y042164D01*
X041227Y042315D02*
X041275Y042364D01*
X041275Y042462D01*
X041227Y042511D01*
X041178Y042511D01*
X041129Y042462D02*
X041129Y042413D01*
X041227Y042710D02*
X041275Y042808D01*
X042166Y043252D02*
X042362Y043057D01*
X042362Y043008D01*
X042464Y043057D02*
X042464Y043106D01*
X042512Y043155D01*
X042659Y043155D01*
X042659Y043057D01*
X042610Y043008D01*
X042512Y043008D01*
X042464Y043057D01*
X042561Y043252D02*
X042659Y043155D01*
X042561Y043252D02*
X042464Y043301D01*
X042362Y043301D02*
X042166Y043301D01*
X042166Y043252D01*
X042761Y043252D02*
X042810Y043301D01*
X042907Y043301D01*
X042956Y043252D01*
X042956Y043057D01*
X042907Y043008D01*
X042810Y043008D01*
X042761Y043057D01*
X043446Y043451D02*
X043446Y043500D01*
X043495Y043548D01*
X043641Y043548D01*
X043641Y043451D01*
X043592Y043402D01*
X043495Y043402D01*
X043446Y043451D01*
X043641Y043548D02*
X043544Y043646D01*
X043446Y043695D01*
X043743Y043695D02*
X043841Y043646D01*
X043939Y043548D01*
X043792Y043548D01*
X043743Y043500D01*
X043743Y043451D01*
X043792Y043402D01*
X043890Y043402D01*
X043939Y043451D01*
X043939Y043548D01*
X044040Y043451D02*
X044089Y043402D01*
X044187Y043402D01*
X044236Y043451D01*
X044236Y043646D01*
X044187Y043695D01*
X044089Y043695D01*
X044040Y043646D01*
X044722Y043593D02*
X045016Y043593D01*
X045016Y043739D01*
X044967Y043788D01*
X044869Y043788D01*
X044820Y043739D01*
X044820Y043593D01*
X044820Y043690D02*
X044722Y043788D01*
X044758Y043836D02*
X044758Y043934D01*
X044807Y043983D01*
X044869Y043988D02*
X044869Y044037D01*
X044820Y044085D01*
X044771Y044085D01*
X044722Y044037D01*
X044722Y043939D01*
X044771Y043890D01*
X044758Y043836D02*
X044807Y043788D01*
X045002Y043788D01*
X045051Y043836D01*
X045051Y043934D01*
X045002Y043983D01*
X045016Y043939D02*
X045016Y044037D01*
X044967Y044085D01*
X044918Y044085D01*
X044869Y044037D01*
X044904Y044085D02*
X044904Y044231D01*
X044856Y044280D01*
X044807Y044280D01*
X044758Y044231D01*
X044758Y044134D01*
X044807Y044085D01*
X044904Y044085D01*
X045002Y044183D01*
X045051Y044280D01*
X045016Y044236D02*
X045016Y044334D01*
X044967Y044383D01*
X044918Y044383D01*
X044869Y044334D01*
X044869Y044236D01*
X044918Y044187D01*
X044967Y044187D01*
X045016Y044236D01*
X045002Y044382D02*
X045051Y044431D01*
X045051Y044529D01*
X045002Y044578D01*
X044953Y044578D01*
X044758Y044382D01*
X044758Y044578D01*
X044675Y044646D02*
X044577Y044646D01*
X044529Y044695D01*
X044529Y044744D01*
X044577Y044792D01*
X044724Y044792D01*
X044724Y044695D01*
X044675Y044646D01*
X044724Y044792D02*
X044626Y044890D01*
X044529Y044939D01*
X044427Y044841D02*
X044329Y044939D01*
X044329Y044646D01*
X044427Y044646D02*
X044231Y044646D01*
X044722Y044334D02*
X044722Y044236D01*
X044771Y044187D01*
X044820Y044187D01*
X044869Y044236D01*
X044869Y044334D02*
X044820Y044383D01*
X044771Y044383D01*
X044722Y044334D01*
X044875Y044646D02*
X044826Y044695D01*
X044875Y044646D02*
X044972Y044646D01*
X045021Y044695D01*
X045021Y044890D01*
X044972Y044939D01*
X044875Y044939D01*
X044826Y044890D01*
X045511Y044890D02*
X045706Y044695D01*
X045706Y044646D01*
X045808Y044695D02*
X045857Y044646D01*
X045955Y044646D01*
X046004Y044695D01*
X046105Y044646D02*
X046203Y044744D01*
X046154Y044744D02*
X046301Y044744D01*
X046301Y044646D02*
X046301Y044939D01*
X046154Y044939D01*
X046105Y044890D01*
X046105Y044792D01*
X046154Y044744D01*
X046004Y044890D02*
X045955Y044939D01*
X045857Y044939D01*
X045808Y044890D01*
X045808Y044841D01*
X045857Y044792D01*
X045808Y044744D01*
X045808Y044695D01*
X045857Y044792D02*
X045906Y044792D01*
X045706Y044939D02*
X045511Y044939D01*
X045511Y044890D01*
X045016Y043939D02*
X044967Y043890D01*
X045166Y042478D02*
X045264Y042478D01*
X045313Y042430D01*
X045313Y042381D01*
X045264Y042332D01*
X045117Y042332D01*
X045117Y042234D02*
X045117Y042430D01*
X045166Y042478D01*
X045117Y042234D02*
X045166Y042185D01*
X045264Y042185D01*
X045313Y042234D01*
X045414Y042234D02*
X045463Y042185D01*
X045561Y042185D01*
X045610Y042234D01*
X045712Y042185D02*
X045809Y042283D01*
X045761Y042283D02*
X045907Y042283D01*
X045907Y042185D02*
X045907Y042478D01*
X045761Y042478D01*
X045712Y042430D01*
X045712Y042332D01*
X045761Y042283D01*
X045610Y042430D02*
X045561Y042478D01*
X045463Y042478D01*
X045414Y042430D01*
X045414Y042381D01*
X045463Y042332D01*
X045414Y042283D01*
X045414Y042234D01*
X045463Y042332D02*
X045512Y042332D01*
X044628Y042085D02*
X044481Y042085D01*
X044432Y042036D01*
X044432Y041938D01*
X044481Y041889D01*
X044628Y041889D01*
X044628Y041792D02*
X044628Y042085D01*
X044530Y041889D02*
X044432Y041792D01*
X044330Y041938D02*
X044135Y041938D01*
X044033Y041840D02*
X043838Y042036D01*
X043838Y041840D01*
X043887Y041792D01*
X043984Y041792D01*
X044033Y041840D01*
X044033Y042036D01*
X043984Y042085D01*
X043887Y042085D01*
X043838Y042036D01*
X044184Y042085D02*
X044330Y041938D01*
X044184Y041792D02*
X044184Y042085D01*
X042734Y043939D02*
X042490Y043939D01*
X042441Y043988D01*
X042441Y044086D01*
X042490Y044135D01*
X042734Y044135D01*
X042685Y044236D02*
X042636Y044236D01*
X042588Y044285D01*
X042588Y044383D01*
X042539Y044432D01*
X042490Y044432D01*
X042441Y044383D01*
X042441Y044285D01*
X042490Y044236D01*
X042539Y044236D01*
X042588Y044285D01*
X042588Y044383D02*
X042636Y044432D01*
X042685Y044432D01*
X042734Y044383D01*
X042734Y044285D01*
X042685Y044236D01*
X040031Y046396D02*
X040031Y046493D01*
X039982Y046542D01*
X040031Y046644D02*
X039885Y046644D01*
X039934Y046742D01*
X039934Y046790D01*
X039885Y046839D01*
X039787Y046839D01*
X039738Y046790D01*
X039738Y046693D01*
X039787Y046644D01*
X039787Y046542D02*
X039738Y046493D01*
X039738Y046396D01*
X039787Y046347D01*
X039982Y046347D01*
X040031Y046396D01*
X040031Y046644D02*
X040031Y046839D01*
X039982Y046941D02*
X040031Y046990D01*
X040031Y047088D01*
X039982Y047137D01*
X039934Y047137D01*
X039885Y047088D01*
X039885Y046990D01*
X039934Y046941D01*
X039982Y046941D01*
X039885Y046990D02*
X039836Y046941D01*
X039787Y046941D01*
X039738Y046990D01*
X039738Y047088D01*
X039787Y047137D01*
X039836Y047137D01*
X039885Y047088D01*
X040048Y047205D02*
X039999Y047254D01*
X039999Y047449D01*
X040048Y047498D01*
X040146Y047498D01*
X040194Y047449D01*
X040194Y047400D01*
X040146Y047352D01*
X039999Y047352D01*
X040048Y047205D02*
X040146Y047205D01*
X040194Y047254D01*
X040296Y047254D02*
X040345Y047205D01*
X040443Y047205D01*
X040492Y047254D01*
X040492Y047352D02*
X040394Y047400D01*
X040345Y047400D01*
X040296Y047352D01*
X040296Y047254D01*
X040492Y047352D02*
X040492Y047498D01*
X040296Y047498D01*
X040594Y047449D02*
X040642Y047498D01*
X040740Y047498D01*
X040789Y047449D01*
X040789Y047254D01*
X040740Y047205D01*
X040642Y047205D01*
X040594Y047254D01*
X041377Y047254D02*
X041426Y047205D01*
X041524Y047205D01*
X041572Y047254D01*
X041377Y047449D01*
X041377Y047254D01*
X041377Y047449D02*
X041426Y047498D01*
X041524Y047498D01*
X041572Y047449D01*
X041572Y047254D01*
X041674Y047254D02*
X041674Y047303D01*
X041723Y047352D01*
X041870Y047352D01*
X041870Y047254D01*
X041821Y047205D01*
X041723Y047205D01*
X041674Y047254D01*
X041772Y047449D02*
X041870Y047352D01*
X041772Y047449D02*
X041674Y047498D01*
X041972Y047449D02*
X042020Y047498D01*
X042118Y047498D01*
X042167Y047449D01*
X042167Y047254D01*
X042118Y047205D01*
X042020Y047205D01*
X041972Y047254D01*
X042755Y047254D02*
X042804Y047205D01*
X042902Y047205D01*
X042950Y047254D01*
X042950Y047352D02*
X042853Y047400D01*
X042804Y047400D01*
X042755Y047352D01*
X042755Y047254D01*
X042950Y047352D02*
X042950Y047498D01*
X042755Y047498D01*
X043052Y047449D02*
X043052Y047400D01*
X043101Y047352D01*
X043052Y047303D01*
X043052Y047254D01*
X043101Y047205D01*
X043199Y047205D01*
X043248Y047254D01*
X043350Y047205D02*
X043447Y047303D01*
X043398Y047303D02*
X043545Y047303D01*
X043545Y047205D02*
X043545Y047498D01*
X043398Y047498D01*
X043350Y047449D01*
X043350Y047352D01*
X043398Y047303D01*
X043248Y047449D02*
X043199Y047498D01*
X043101Y047498D01*
X043052Y047449D01*
X043101Y047352D02*
X043150Y047352D01*
X046891Y045615D02*
X046891Y045566D01*
X046940Y045517D01*
X046891Y045468D01*
X046891Y045419D01*
X046940Y045370D01*
X047037Y045370D01*
X047086Y045419D01*
X047188Y045419D02*
X047188Y045468D01*
X047237Y045517D01*
X047383Y045517D01*
X047383Y045419D01*
X047335Y045370D01*
X047237Y045370D01*
X047188Y045419D01*
X047383Y045517D02*
X047286Y045615D01*
X047188Y045663D01*
X047086Y045615D02*
X047037Y045663D01*
X046940Y045663D01*
X046891Y045615D01*
X046940Y045517D02*
X046988Y045517D01*
X047485Y045615D02*
X047534Y045663D01*
X047632Y045663D01*
X047681Y045615D01*
X047681Y045419D01*
X047632Y045370D01*
X047534Y045370D01*
X047485Y045419D01*
X047337Y044876D02*
X047385Y044827D01*
X047385Y044632D01*
X047337Y044583D01*
X047239Y044583D01*
X047190Y044632D01*
X047088Y044632D02*
X047039Y044583D01*
X046942Y044583D01*
X046893Y044632D01*
X046893Y044681D01*
X046942Y044729D01*
X047088Y044729D01*
X047088Y044632D01*
X047088Y044729D02*
X046990Y044827D01*
X046893Y044876D01*
X046791Y044729D02*
X046595Y044729D01*
X046644Y044583D02*
X046644Y044876D01*
X046791Y044729D01*
X047190Y044827D02*
X047239Y044876D01*
X047337Y044876D01*
X048108Y046990D02*
X048303Y046990D01*
X048206Y046990D02*
X048206Y047283D01*
X048303Y047186D01*
X048405Y047283D02*
X048405Y046990D01*
X048601Y047283D01*
X048601Y046990D01*
X048701Y046990D02*
X048799Y046990D01*
X048750Y046990D02*
X048750Y047283D01*
X048799Y047283D02*
X048701Y047283D01*
X048901Y047186D02*
X048901Y046990D01*
X048901Y047137D02*
X049096Y047137D01*
X049096Y047186D02*
X049096Y046990D01*
X049198Y046990D02*
X049198Y047283D01*
X049296Y047186D01*
X049393Y047283D01*
X049393Y046990D01*
X049495Y046942D02*
X049690Y046942D01*
X049792Y047039D02*
X049792Y047235D01*
X049841Y047283D01*
X049939Y047283D01*
X049988Y047235D01*
X049988Y047039D01*
X049939Y046990D01*
X049841Y046990D01*
X049792Y047039D01*
X050090Y047283D02*
X050285Y047283D01*
X050187Y047283D02*
X050187Y046990D01*
X049096Y047186D02*
X048998Y047283D01*
X048901Y047186D01*
X051851Y045266D02*
X051851Y045168D01*
X051900Y045120D01*
X052047Y045120D01*
X051949Y045120D02*
X051851Y045022D01*
X052047Y045022D02*
X052047Y045315D01*
X051900Y045315D01*
X051851Y045266D01*
X052149Y045315D02*
X052149Y045071D01*
X052197Y045022D01*
X052295Y045022D01*
X052344Y045071D01*
X052344Y045315D01*
X052446Y044973D02*
X052641Y044973D01*
X052743Y045071D02*
X052743Y045266D01*
X052792Y045315D01*
X052939Y045315D01*
X052939Y045022D01*
X052792Y045022D01*
X052743Y045071D01*
X053040Y045022D02*
X053236Y045022D01*
X053236Y045315D01*
X053040Y045315D01*
X053138Y045168D02*
X053236Y045168D01*
X053338Y045022D02*
X053533Y045022D01*
X053533Y045315D01*
X039019Y048028D02*
X039019Y048321D01*
X038873Y048321D01*
X038824Y048272D01*
X038824Y048174D01*
X038873Y048125D01*
X039019Y048125D01*
X038922Y048125D02*
X038824Y048028D01*
X038722Y048077D02*
X038673Y048028D01*
X038575Y048028D01*
X038527Y048077D01*
X038527Y048125D01*
X038575Y048174D01*
X038624Y048174D01*
X038575Y048174D02*
X038527Y048223D01*
X038527Y048272D01*
X038575Y048321D01*
X038673Y048321D01*
X038722Y048272D01*
X038425Y048174D02*
X038229Y048174D01*
X038278Y048028D02*
X038278Y048321D01*
X038425Y048174D01*
X038378Y047533D02*
X038280Y047533D01*
X038231Y047485D01*
X038231Y047436D01*
X038280Y047387D01*
X038231Y047338D01*
X038231Y047289D01*
X038280Y047240D01*
X038378Y047240D01*
X038427Y047289D01*
X038529Y047240D02*
X038626Y047338D01*
X038577Y047338D02*
X038724Y047338D01*
X038724Y047240D02*
X038724Y047533D01*
X038577Y047533D01*
X038529Y047485D01*
X038529Y047387D01*
X038577Y047338D01*
X038427Y047485D02*
X038378Y047533D01*
X038329Y047387D02*
X038280Y047387D01*
X038129Y047485D02*
X038081Y047533D01*
X037983Y047533D01*
X037934Y047485D01*
X037934Y047436D01*
X037983Y047387D01*
X037934Y047338D01*
X037934Y047289D01*
X037983Y047240D01*
X038081Y047240D01*
X038129Y047289D01*
X038032Y047387D02*
X037983Y047387D01*
X043531Y014016D02*
X043628Y014016D01*
X043677Y013967D01*
X043779Y014016D02*
X043779Y013723D01*
X043975Y014016D01*
X043975Y013723D01*
X044075Y013723D02*
X044173Y013723D01*
X044124Y013723D02*
X044124Y014016D01*
X044173Y014016D02*
X044075Y014016D01*
X044275Y013918D02*
X044275Y013723D01*
X044275Y013869D02*
X044470Y013869D01*
X044470Y013918D02*
X044372Y014016D01*
X044275Y013918D01*
X044470Y013918D02*
X044470Y013723D01*
X044572Y013723D02*
X044572Y014016D01*
X044670Y013918D01*
X044767Y014016D01*
X044767Y013723D01*
X044869Y013674D02*
X045064Y013674D01*
X045166Y013772D02*
X045166Y013967D01*
X045215Y014016D01*
X045313Y014016D01*
X045362Y013967D01*
X045362Y013772D01*
X045313Y013723D01*
X045215Y013723D01*
X045166Y013772D01*
X045464Y014016D02*
X045659Y014016D01*
X045561Y014016D02*
X045561Y013723D01*
X043677Y013723D02*
X043482Y013918D01*
X043482Y013967D01*
X043531Y014016D01*
X043482Y013723D02*
X043677Y013723D01*
X041514Y012617D02*
X041368Y012471D01*
X041368Y012666D01*
X041221Y012617D02*
X041514Y012617D01*
X041466Y012369D02*
X041270Y012369D01*
X041221Y012320D01*
X041221Y012222D01*
X041270Y012174D01*
X041466Y012174D01*
X041514Y012222D01*
X041514Y012320D01*
X041466Y012369D01*
X041319Y012271D02*
X041221Y012369D01*
X041270Y011387D02*
X041221Y011338D01*
X041221Y011240D01*
X041270Y011191D01*
X041270Y011089D02*
X041221Y011041D01*
X041221Y010943D01*
X041270Y010894D01*
X041466Y010894D01*
X041514Y010943D01*
X041514Y011041D01*
X041466Y011089D01*
X041270Y011089D01*
X041221Y011089D02*
X041319Y010992D01*
X041466Y011191D02*
X041514Y011240D01*
X041514Y011338D01*
X041466Y011387D01*
X041417Y011387D01*
X041368Y011338D01*
X041319Y011387D01*
X041270Y011387D01*
X041368Y011338D02*
X041368Y011289D01*
X041417Y010107D02*
X041466Y010107D01*
X041514Y010058D01*
X041514Y009961D01*
X041466Y009912D01*
X041466Y009810D02*
X041270Y009810D01*
X041221Y009761D01*
X041221Y009663D01*
X041270Y009615D01*
X041466Y009615D01*
X041514Y009663D01*
X041514Y009761D01*
X041466Y009810D01*
X041319Y009712D02*
X041221Y009810D01*
X041221Y009912D02*
X041417Y010107D01*
X041221Y010107D02*
X041221Y009912D01*
X037600Y012022D02*
X037405Y012022D01*
X037303Y012022D02*
X037107Y012022D01*
X037006Y012022D02*
X037006Y012315D01*
X036859Y012315D01*
X036810Y012266D01*
X036810Y012071D01*
X036859Y012022D01*
X037006Y012022D01*
X037205Y012168D02*
X037303Y012168D01*
X037303Y012022D02*
X037303Y012315D01*
X037107Y012315D01*
X037600Y012315D02*
X037600Y012022D01*
X036708Y011973D02*
X036513Y011973D01*
X036411Y012022D02*
X036411Y012315D01*
X036411Y012022D02*
X036216Y012022D01*
X036114Y012022D02*
X035918Y012022D01*
X036114Y012022D02*
X036114Y012315D01*
X047767Y012314D02*
X047865Y012216D01*
X047816Y012314D02*
X047767Y012265D01*
X047767Y012167D01*
X047816Y012118D01*
X048011Y012118D01*
X048060Y012167D01*
X048060Y012265D01*
X048011Y012314D01*
X047816Y012314D01*
X047816Y012415D02*
X047767Y012464D01*
X047767Y012562D01*
X047816Y012611D01*
X047914Y012611D01*
X047962Y012562D01*
X047962Y012513D01*
X047914Y012415D01*
X048060Y012415D01*
X048060Y012611D01*
X048060Y011331D02*
X048011Y011234D01*
X047914Y011136D01*
X047914Y011282D01*
X047865Y011331D01*
X047816Y011331D01*
X047767Y011282D01*
X047767Y011185D01*
X047816Y011136D01*
X047914Y011136D01*
X048011Y011034D02*
X047816Y011034D01*
X047767Y010985D01*
X047767Y010887D01*
X047816Y010839D01*
X048011Y010839D01*
X048060Y010887D01*
X048060Y010985D01*
X048011Y011034D01*
X047865Y010936D02*
X047767Y011034D01*
X048011Y010052D02*
X047816Y009856D01*
X047767Y009856D01*
X047767Y009754D02*
X047865Y009657D01*
X047816Y009754D02*
X047767Y009706D01*
X047767Y009608D01*
X047816Y009559D01*
X048011Y009559D01*
X048060Y009608D01*
X048060Y009706D01*
X048011Y009754D01*
X047816Y009754D01*
X048060Y009856D02*
X048060Y010052D01*
X048011Y010052D01*
X051851Y013920D02*
X051949Y014017D01*
X051900Y014017D02*
X052047Y014017D01*
X052047Y013920D02*
X052047Y014213D01*
X051900Y014213D01*
X051851Y014164D01*
X051851Y014066D01*
X051900Y014017D01*
X052149Y013920D02*
X052344Y013920D01*
X052344Y014213D01*
X052446Y013871D02*
X052641Y013871D01*
X052743Y013968D02*
X052743Y014164D01*
X052792Y014213D01*
X052939Y014213D01*
X052939Y013920D01*
X052792Y013920D01*
X052743Y013968D01*
X053040Y013920D02*
X053236Y013920D01*
X053236Y014213D01*
X053040Y014213D01*
X053138Y014066D02*
X053236Y014066D01*
X053338Y013920D02*
X053533Y013920D01*
X053533Y014213D01*
D12*
X053450Y013708D02*
X052072Y013708D01*
X052072Y012527D02*
X053450Y012527D01*
X045477Y012527D02*
X045477Y012330D01*
X045477Y011739D02*
X045477Y011542D01*
X045477Y010952D02*
X045477Y010755D01*
X045477Y010164D02*
X045477Y009968D01*
X045477Y009377D02*
X045477Y009279D01*
X043902Y009279D01*
X043902Y009377D01*
X043902Y009968D02*
X043902Y010164D01*
X043902Y010755D02*
X043902Y010952D01*
X043902Y011542D02*
X043902Y011739D01*
X043902Y012330D02*
X043902Y012527D01*
X043902Y013117D02*
X043902Y013216D01*
X045477Y013216D01*
X045477Y013117D01*
X037308Y012527D02*
X035930Y012527D01*
X035930Y013708D02*
X037308Y013708D01*
X037308Y043531D02*
X035930Y043531D01*
X035930Y044712D02*
X037308Y044712D01*
X040457Y043924D02*
X040457Y046286D01*
X040654Y046483D01*
X043017Y046483D01*
X043213Y046286D01*
X043213Y043924D01*
X043017Y043727D01*
X040654Y043727D01*
X040457Y043924D01*
X044099Y046188D02*
X044198Y046188D01*
X044099Y046188D02*
X044099Y047763D01*
X044198Y047763D01*
X044788Y047763D02*
X044985Y047763D01*
X045576Y047763D02*
X045772Y047763D01*
X046363Y047763D02*
X046560Y047763D01*
X047150Y047763D02*
X047347Y047763D01*
X047938Y047763D02*
X048036Y047763D01*
X048036Y046188D01*
X047938Y046188D01*
X047347Y046188D02*
X047150Y046188D01*
X046560Y046188D02*
X046363Y046188D01*
X045772Y046188D02*
X045576Y046188D01*
X044985Y046188D02*
X044788Y046188D01*
X052072Y044810D02*
X053450Y044810D01*
X053450Y043629D02*
X052072Y043629D01*
D13*
X040772Y044121D02*
X040774Y044139D01*
X040780Y044155D01*
X040789Y044170D01*
X040802Y044183D01*
X040817Y044192D01*
X040833Y044198D01*
X040851Y044200D01*
X040869Y044198D01*
X040885Y044192D01*
X040900Y044183D01*
X040913Y044170D01*
X040922Y044155D01*
X040928Y044139D01*
X040930Y044121D01*
X040928Y044103D01*
X040922Y044087D01*
X040913Y044072D01*
X040900Y044059D01*
X040885Y044050D01*
X040869Y044044D01*
X040851Y044042D01*
X040833Y044044D01*
X040817Y044050D01*
X040802Y044059D01*
X040789Y044072D01*
X040780Y044087D01*
X040774Y044103D01*
X040772Y044121D01*
D14*
X035792Y043432D02*
X035794Y043444D01*
X035799Y043455D01*
X035808Y043464D01*
X035819Y043469D01*
X035831Y043471D01*
X035843Y043469D01*
X035854Y043464D01*
X035863Y043455D01*
X035868Y043444D01*
X035870Y043432D01*
X035868Y043420D01*
X035863Y043409D01*
X035854Y043400D01*
X035843Y043395D01*
X035831Y043393D01*
X035819Y043395D01*
X035808Y043400D01*
X035799Y043409D01*
X035794Y043420D01*
X035792Y043432D01*
X053509Y044908D02*
X053511Y044920D01*
X053516Y044931D01*
X053525Y044940D01*
X053536Y044945D01*
X053548Y044947D01*
X053560Y044945D01*
X053571Y044940D01*
X053580Y044931D01*
X053585Y044920D01*
X053587Y044908D01*
X053585Y044896D01*
X053580Y044885D01*
X053571Y044876D01*
X053560Y044871D01*
X053548Y044869D01*
X053536Y044871D01*
X053525Y044876D01*
X053516Y044885D01*
X053511Y044896D01*
X053509Y044908D01*
X053509Y013806D02*
X053511Y013818D01*
X053516Y013829D01*
X053525Y013838D01*
X053536Y013843D01*
X053548Y013845D01*
X053560Y013843D01*
X053571Y013838D01*
X053580Y013829D01*
X053585Y013818D01*
X053587Y013806D01*
X053585Y013794D01*
X053580Y013783D01*
X053571Y013774D01*
X053560Y013769D01*
X053548Y013767D01*
X053536Y013769D01*
X053525Y013774D01*
X053516Y013783D01*
X053511Y013794D01*
X053509Y013806D01*
X035792Y012428D02*
X035794Y012440D01*
X035799Y012451D01*
X035808Y012460D01*
X035819Y012465D01*
X035831Y012467D01*
X035843Y012465D01*
X035854Y012460D01*
X035863Y012451D01*
X035868Y012440D01*
X035870Y012428D01*
X035868Y012416D01*
X035863Y012405D01*
X035854Y012396D01*
X035843Y012391D01*
X035831Y012389D01*
X035819Y012391D01*
X035808Y012396D01*
X035799Y012405D01*
X035794Y012416D01*
X035792Y012428D01*
D15*
X041954Y012113D02*
X041954Y011877D01*
X042269Y011877D01*
X042269Y011700D02*
X041954Y011700D01*
X041954Y011464D01*
X041954Y010834D02*
X041954Y010597D01*
X042269Y010597D01*
X042269Y010420D02*
X041954Y010420D01*
X041954Y010184D01*
X041954Y009554D02*
X041954Y009318D01*
X042269Y009318D01*
X041954Y012743D02*
X041954Y012979D01*
X042269Y012979D01*
X047013Y012979D02*
X047328Y012979D01*
X047328Y012743D01*
X047328Y012113D02*
X047328Y011877D01*
X047013Y011877D01*
X047013Y011700D02*
X047328Y011700D01*
X047328Y011464D01*
X047328Y010834D02*
X047328Y010597D01*
X047013Y010597D01*
X047013Y010420D02*
X047328Y010420D01*
X047328Y010184D01*
X047328Y009554D02*
X047328Y009318D01*
X047013Y009318D01*
D16*
X045537Y013412D02*
X045539Y013424D01*
X045544Y013435D01*
X045553Y013444D01*
X045564Y013449D01*
X045576Y013451D01*
X045588Y013449D01*
X045599Y013444D01*
X045608Y013435D01*
X045613Y013424D01*
X045615Y013412D01*
X045613Y013400D01*
X045608Y013389D01*
X045599Y013380D01*
X045588Y013375D01*
X045576Y013373D01*
X045564Y013375D01*
X045553Y013380D01*
X045544Y013389D01*
X045539Y013400D01*
X045537Y013412D01*
X048194Y046090D02*
X048196Y046102D01*
X048201Y046113D01*
X048210Y046122D01*
X048221Y046127D01*
X048233Y046129D01*
X048245Y046127D01*
X048256Y046122D01*
X048265Y046113D01*
X048270Y046102D01*
X048272Y046090D01*
X048270Y046078D01*
X048265Y046067D01*
X048256Y046058D01*
X048245Y046053D01*
X048233Y046051D01*
X048221Y046053D01*
X048210Y046058D01*
X048201Y046067D01*
X048196Y046078D01*
X048194Y046090D01*
M02*
