G75*
G70*
%OFA0B0*%
%FSLAX24Y24*%
%IPPOS*%
%LPD*%
%AMOC8*
5,1,8,0,0,1.08239X$1,22.5*
%
%ADD10C,0.0317*%
%ADD11C,0.0079*%
D10*
X005428Y002403D03*
X003952Y005848D03*
X004050Y006931D03*
X004050Y007915D03*
X003755Y009883D03*
X005330Y010966D03*
X004345Y011655D03*
X004148Y012639D03*
X004148Y013230D03*
X004148Y014017D03*
X004148Y014509D03*
X004148Y015297D03*
X004148Y016380D03*
X004148Y017167D03*
X004148Y017659D03*
X004148Y018446D03*
X005625Y017364D03*
X005526Y016576D03*
X006511Y015592D03*
X006215Y015002D03*
X005920Y014214D03*
X005526Y013820D03*
X005822Y013328D03*
X007396Y012344D03*
X008282Y013033D03*
X009660Y013919D03*
X010152Y013624D03*
X010152Y013230D03*
X010152Y012836D03*
X010251Y012443D03*
X010644Y012344D03*
X011333Y012344D03*
X011629Y012836D03*
X012219Y012738D03*
X012711Y013919D03*
X011924Y015887D03*
X011333Y016084D03*
X012613Y016675D03*
X012416Y017561D03*
X012613Y018053D03*
X012613Y018643D03*
X012613Y019332D03*
X011629Y019529D03*
X010841Y019037D03*
X010152Y018643D03*
X009562Y019135D03*
X008774Y019529D03*
X008578Y020710D03*
X008578Y021498D03*
X008774Y022383D03*
X009463Y023171D03*
X009562Y023958D03*
X010448Y023860D03*
X010448Y023072D03*
X011137Y023171D03*
X012515Y022679D03*
X013302Y022679D03*
X013499Y021301D03*
X012711Y021301D03*
X012908Y020513D03*
X013696Y020513D03*
X014483Y020415D03*
X014188Y019824D03*
X014188Y019037D03*
X014975Y019037D03*
X015467Y019037D03*
X015763Y019824D03*
X016255Y019037D03*
X016944Y019332D03*
X016747Y019824D03*
X015861Y020809D03*
X015763Y021301D03*
X015763Y021793D03*
X014483Y021202D03*
X014975Y019824D03*
X014975Y018250D03*
X016255Y018250D03*
X016845Y017856D03*
X017239Y017364D03*
X017436Y016970D03*
X017731Y016675D03*
X018715Y015887D03*
X019207Y016576D03*
X019700Y017069D03*
X020192Y016970D03*
X020684Y017069D03*
X021373Y016773D03*
X020684Y017856D03*
X020684Y018446D03*
X020093Y018446D03*
X019700Y017856D03*
X019306Y018446D03*
X019011Y017659D03*
X018223Y018840D03*
X018026Y019234D03*
X018125Y019824D03*
X018617Y020317D03*
X019207Y020415D03*
X019601Y021104D03*
X019601Y021596D03*
X018814Y021596D03*
X018026Y021301D03*
X017830Y022187D03*
X017436Y022187D03*
X018125Y022876D03*
X018420Y022482D03*
X018715Y022777D03*
X018814Y023269D03*
X019207Y022876D03*
X019207Y023663D03*
X019995Y023761D03*
X019995Y024549D03*
X018814Y024844D03*
X018814Y025435D03*
X018814Y026025D03*
X018223Y026025D03*
X017633Y026025D03*
X017633Y025435D03*
X018223Y025435D03*
X018223Y024844D03*
X017633Y024844D03*
X016550Y024844D03*
X016058Y024943D03*
X015270Y024943D03*
X014663Y025122D03*
X014106Y024566D03*
X013516Y025156D03*
X014072Y025713D03*
X014778Y025730D03*
X013991Y026714D03*
X013893Y027305D03*
X013893Y028092D03*
X013676Y029667D03*
X014463Y029667D03*
X014463Y030454D03*
X013676Y030474D03*
X013991Y031439D03*
X013991Y032226D03*
X013204Y032226D03*
X013204Y031439D03*
X015369Y029175D03*
X016156Y029273D03*
X016944Y029273D03*
X016845Y029864D03*
X016058Y029864D03*
X017239Y030848D03*
X017239Y031340D03*
X017239Y031832D03*
X016648Y032423D03*
X017239Y032915D03*
X017239Y033309D03*
X017239Y033801D03*
X017239Y034293D03*
X016648Y034785D03*
X017239Y035572D03*
X017239Y036065D03*
X017337Y036557D03*
X017633Y036950D03*
X018026Y037246D03*
X017633Y038033D03*
X018420Y038033D03*
X018912Y037541D03*
X019404Y037541D03*
X019896Y037541D03*
X020389Y037541D03*
X020979Y037935D03*
X021471Y037935D03*
X021963Y037935D03*
X020389Y036360D03*
X019896Y036360D03*
X019404Y036360D03*
X018912Y036261D03*
X018519Y035966D03*
X018420Y035474D03*
X019011Y034785D03*
X018420Y034293D03*
X018420Y033801D03*
X018420Y033407D03*
X018519Y032915D03*
X019306Y032915D03*
X019306Y032128D03*
X018519Y032147D03*
X019700Y031242D03*
X019011Y030848D03*
X018519Y030257D03*
X018519Y029864D03*
X018125Y029864D03*
X018125Y030257D03*
X019601Y029667D03*
X019995Y029765D03*
X020585Y029962D03*
X021373Y029962D03*
X021963Y028486D03*
X021274Y027797D03*
X020881Y026911D03*
X020881Y026124D03*
X020093Y026124D03*
X020093Y026911D03*
X019011Y027403D03*
X019011Y028191D03*
X019798Y028584D03*
X017928Y027994D03*
X017337Y027895D03*
X016944Y028486D03*
X016550Y027895D03*
X016156Y028486D03*
X015664Y028092D03*
X015763Y026517D03*
X016550Y026517D03*
X017928Y027206D03*
X015763Y024155D03*
X016255Y023368D03*
X017042Y023368D03*
X020389Y022482D03*
X021570Y023761D03*
X021865Y025828D03*
X020684Y020415D03*
X020389Y019726D03*
X020684Y019234D03*
X021373Y019234D03*
X021373Y018446D03*
X019798Y019234D03*
X019011Y019234D03*
X016452Y016773D03*
X015664Y016773D03*
X015172Y016773D03*
X014385Y016773D03*
X013893Y016872D03*
X016353Y013919D03*
X015861Y013525D03*
X016353Y013131D03*
X017141Y013919D03*
X018125Y014116D03*
X019503Y013230D03*
X018519Y012639D03*
X019306Y011950D03*
X020093Y011950D03*
X020487Y011458D03*
X020881Y011950D03*
X021274Y011458D03*
X020487Y010671D03*
X019700Y010671D03*
X018912Y010671D03*
X017731Y011557D03*
X015664Y011261D03*
X015172Y010671D03*
X015664Y010080D03*
X015664Y009588D03*
X015664Y008801D03*
X017239Y008604D03*
X017239Y007817D03*
X019404Y008210D03*
X020684Y009096D03*
X021767Y007324D03*
X021767Y006537D03*
X019503Y006537D03*
X018125Y002108D03*
X018519Y002009D03*
X014975Y002502D03*
X013400Y002502D03*
X013400Y004076D03*
X013400Y004864D03*
X014778Y005651D03*
X013696Y007029D03*
X013499Y007817D03*
X013007Y007817D03*
X012908Y007029D03*
X012908Y006242D03*
X011924Y007029D03*
X011530Y007817D03*
X011235Y008604D03*
X011333Y010179D03*
X010546Y010179D03*
X010546Y010966D03*
X011333Y010966D03*
X009562Y009883D03*
X008085Y009883D03*
X007396Y010671D03*
X007101Y011065D03*
X010251Y014116D03*
X008873Y017265D03*
X009562Y021006D03*
X010349Y021006D03*
X010349Y021793D03*
X007790Y022876D03*
X007790Y023663D03*
X008184Y025139D03*
X008479Y026124D03*
X008479Y026911D03*
X009267Y026911D03*
X009267Y026124D03*
X008085Y028289D03*
X007751Y028978D03*
X007751Y029372D03*
X007357Y029372D03*
X007357Y028978D03*
X006707Y028880D03*
X006314Y028880D03*
X005920Y028880D03*
X005920Y029273D03*
X005526Y028880D03*
X005526Y028092D03*
X005920Y028092D03*
X005920Y027698D03*
X006707Y027698D03*
X006707Y028092D03*
X007298Y028289D03*
X006707Y029273D03*
X008774Y031143D03*
X009956Y031242D03*
X009956Y030750D03*
X009956Y030257D03*
X009956Y029765D03*
X009956Y029273D03*
X013204Y026714D03*
X006117Y021301D03*
X006019Y020710D03*
X005034Y021399D03*
X004247Y021399D03*
X004247Y022187D03*
X005034Y022187D03*
X005526Y022187D03*
X004444Y020317D03*
X005920Y024254D03*
X004247Y025139D03*
X004837Y025927D03*
X004444Y027206D03*
X003263Y031832D03*
X003952Y032029D03*
X004247Y032226D03*
X004542Y032423D03*
X004542Y032029D03*
X003952Y032423D03*
X005330Y033013D03*
X005330Y033801D03*
X005625Y034391D03*
X004837Y034391D03*
X005428Y035277D03*
X006019Y035277D03*
X004936Y035966D03*
X003853Y036163D03*
X003459Y036163D03*
X003066Y036163D03*
X003558Y036950D03*
X005428Y037836D03*
X006019Y037836D03*
X006314Y038427D03*
X006314Y038820D03*
X006314Y039214D03*
X005920Y040002D03*
X005526Y040297D03*
X006707Y040100D03*
X007692Y040100D03*
X008479Y040297D03*
X008873Y040002D03*
X009759Y040198D03*
X012416Y040198D03*
X013696Y039411D03*
X014483Y039411D03*
X015270Y038033D03*
X016058Y038033D03*
X016845Y038033D03*
X016845Y040198D03*
X017633Y040198D03*
X018420Y040198D03*
X020979Y035966D03*
X021471Y035966D03*
X021963Y035966D03*
X030133Y038722D03*
X030625Y038427D03*
X031806Y037049D03*
X032396Y037344D03*
X032692Y037049D03*
X032790Y037639D03*
X032396Y037836D03*
X031511Y036261D03*
X035841Y038722D03*
X036826Y037147D03*
X037416Y036557D03*
X037810Y036065D03*
X038302Y037147D03*
X038893Y038230D03*
X039680Y038131D03*
X040467Y038131D03*
X041255Y038131D03*
X042042Y038230D03*
X045290Y037541D03*
X045585Y034588D03*
X038893Y040100D03*
X036137Y035769D03*
X033676Y040238D03*
X032003Y040198D03*
X008085Y036950D03*
X007987Y035966D03*
X006314Y036950D03*
X020093Y016478D03*
X021767Y015494D03*
X021767Y015100D03*
X021767Y014706D03*
X021767Y014313D03*
X021373Y014706D03*
X020979Y014706D03*
X020585Y014313D03*
X020782Y013230D03*
X020881Y012738D03*
X022062Y013131D03*
X015369Y012443D03*
X013696Y011360D03*
X013696Y010572D03*
X009267Y006537D03*
X011432Y005651D03*
X011432Y002502D03*
X028066Y005257D03*
X028066Y007423D03*
X030723Y005946D03*
X030920Y006340D03*
X033085Y006340D03*
X033243Y005907D03*
X031117Y003781D03*
X030133Y003486D03*
X031806Y002502D03*
X036038Y002994D03*
X039286Y002502D03*
X039286Y003781D03*
X041452Y005061D03*
X045192Y004372D03*
X045290Y005848D03*
X044798Y007817D03*
D11*
X002811Y003584D02*
X002811Y028387D01*
X006314Y028387D01*
X006314Y027502D01*
X004050Y027502D01*
X004036Y025294D01*
X004028Y025286D01*
X003989Y025191D01*
X003989Y025088D01*
X004028Y024993D01*
X004034Y024987D01*
X004018Y022308D01*
X003989Y022238D01*
X003989Y022135D01*
X004016Y022068D01*
X004013Y021509D01*
X003989Y021451D01*
X003989Y021348D01*
X004012Y021293D01*
X003995Y018658D01*
X003930Y018593D01*
X003890Y018498D01*
X003890Y018395D01*
X003930Y018300D01*
X003993Y018237D01*
X003991Y017866D01*
X003930Y017805D01*
X003890Y017710D01*
X003890Y017608D01*
X003930Y017513D01*
X003988Y017454D01*
X003987Y017371D01*
X003930Y017313D01*
X003890Y017218D01*
X003890Y017116D01*
X003930Y017021D01*
X003985Y016965D01*
X003983Y016579D01*
X003930Y016526D01*
X003890Y016431D01*
X003890Y016328D01*
X003930Y016233D01*
X003980Y016183D01*
X003976Y015489D01*
X003930Y015443D01*
X003890Y015348D01*
X003890Y015246D01*
X003930Y015151D01*
X003973Y015107D01*
X003971Y014697D01*
X003930Y014656D01*
X003890Y014561D01*
X003890Y014458D01*
X003930Y014363D01*
X003969Y014324D01*
X003968Y014202D01*
X003930Y014164D01*
X003890Y014069D01*
X003890Y013966D01*
X003930Y013871D01*
X003966Y013835D01*
X003963Y013410D01*
X003930Y013376D01*
X003890Y013281D01*
X003890Y013179D01*
X003930Y013084D01*
X003961Y013053D01*
X003959Y012815D01*
X003930Y012786D01*
X003890Y012691D01*
X003890Y012588D01*
X003930Y012493D01*
X003957Y012466D01*
X003952Y011557D01*
X005034Y010474D01*
X005034Y007029D01*
X010448Y007029D01*
X010841Y006635D01*
X010841Y002108D01*
X010940Y002009D01*
X013893Y002009D01*
X013991Y002108D01*
X013991Y006340D01*
X015074Y007423D01*
X015074Y012935D01*
X014778Y013230D01*
X013597Y013230D01*
X013499Y013328D01*
X013499Y014017D01*
X013696Y014214D01*
X017886Y014214D01*
X017867Y014167D01*
X017867Y014064D01*
X017906Y013970D01*
X017979Y013897D01*
X018073Y013858D01*
X018176Y013858D01*
X018271Y013897D01*
X018344Y013970D01*
X018383Y014064D01*
X018383Y014167D01*
X018363Y014214D01*
X020347Y014214D01*
X020367Y014166D01*
X020439Y014094D01*
X020534Y014054D01*
X020637Y014054D01*
X020732Y014094D01*
X020804Y014166D01*
X020824Y014214D01*
X021528Y014214D01*
X021548Y014166D01*
X021620Y014094D01*
X021715Y014054D01*
X021818Y014054D01*
X021913Y014094D01*
X021985Y014166D01*
X022005Y014214D01*
X022259Y014214D01*
X022259Y013300D01*
X022208Y013350D01*
X022113Y013390D01*
X022010Y013390D01*
X021916Y013350D01*
X021843Y013278D01*
X021804Y013183D01*
X021804Y013080D01*
X021843Y012985D01*
X021916Y012913D01*
X022010Y012873D01*
X022113Y012873D01*
X022208Y012913D01*
X022259Y012963D01*
X022259Y003683D01*
X020093Y003683D01*
X019995Y003584D01*
X019995Y001460D01*
X005034Y001460D01*
X005034Y003584D01*
X002811Y003584D01*
X002811Y003638D02*
X010841Y003638D01*
X010841Y003715D02*
X002811Y003715D01*
X002811Y003792D02*
X010841Y003792D01*
X010841Y003869D02*
X002811Y003869D01*
X002811Y003947D02*
X010841Y003947D01*
X010841Y004024D02*
X002811Y004024D01*
X002811Y004101D02*
X010841Y004101D01*
X010841Y004178D02*
X002811Y004178D01*
X002811Y004256D02*
X010841Y004256D01*
X010841Y004333D02*
X002811Y004333D01*
X002811Y004410D02*
X007698Y004410D01*
X007700Y004409D02*
X007881Y004409D01*
X008048Y004479D01*
X008175Y004606D01*
X008244Y004773D01*
X008244Y004954D01*
X008175Y005121D01*
X008048Y005249D01*
X007881Y005318D01*
X007700Y005318D01*
X007533Y005249D01*
X007405Y005121D01*
X007336Y004954D01*
X007336Y004773D01*
X007405Y004606D01*
X007533Y004479D01*
X007700Y004409D01*
X007882Y004410D02*
X010841Y004410D01*
X010841Y004487D02*
X008056Y004487D01*
X008133Y004565D02*
X010841Y004565D01*
X010841Y004642D02*
X008190Y004642D01*
X008222Y004719D02*
X010841Y004719D01*
X010841Y004796D02*
X008244Y004796D01*
X008244Y004874D02*
X010841Y004874D01*
X010841Y004951D02*
X008244Y004951D01*
X008214Y005028D02*
X010841Y005028D01*
X010841Y005105D02*
X008182Y005105D01*
X008114Y005182D02*
X010841Y005182D01*
X010841Y005260D02*
X008021Y005260D01*
X007559Y005260D02*
X002811Y005260D01*
X002811Y005337D02*
X010841Y005337D01*
X010841Y005414D02*
X002811Y005414D01*
X002811Y005491D02*
X010841Y005491D01*
X010841Y005569D02*
X002811Y005569D01*
X002811Y005646D02*
X003789Y005646D01*
X003805Y005629D02*
X003900Y005590D01*
X004003Y005590D01*
X004098Y005629D01*
X004170Y005702D01*
X004210Y005797D01*
X004210Y005899D01*
X004170Y005994D01*
X004098Y006067D01*
X004003Y006106D01*
X003900Y006106D01*
X003805Y006067D01*
X003733Y005994D01*
X003693Y005899D01*
X003693Y005797D01*
X003733Y005702D01*
X003805Y005629D01*
X003724Y005723D02*
X002811Y005723D01*
X002811Y005800D02*
X003693Y005800D01*
X003693Y005878D02*
X002811Y005878D01*
X002811Y005955D02*
X003716Y005955D01*
X003771Y006032D02*
X002811Y006032D01*
X002811Y006109D02*
X010841Y006109D01*
X010841Y006032D02*
X004132Y006032D01*
X004187Y005955D02*
X010841Y005955D01*
X010841Y005878D02*
X004210Y005878D01*
X004210Y005800D02*
X010841Y005800D01*
X010841Y005723D02*
X004179Y005723D01*
X004115Y005646D02*
X010841Y005646D01*
X010980Y005646D02*
X011174Y005646D01*
X011174Y005600D02*
X011213Y005505D01*
X011286Y005432D01*
X011381Y005393D01*
X011483Y005393D01*
X011578Y005432D01*
X011651Y005505D01*
X011690Y005600D01*
X011690Y005703D01*
X011651Y005797D01*
X011578Y005870D01*
X011483Y005909D01*
X011381Y005909D01*
X011286Y005870D01*
X011213Y005797D01*
X011174Y005703D01*
X011174Y005600D01*
X011187Y005569D02*
X010980Y005569D01*
X010980Y005491D02*
X011227Y005491D01*
X011330Y005414D02*
X010980Y005414D01*
X010980Y005337D02*
X013852Y005337D01*
X013852Y005414D02*
X011534Y005414D01*
X011637Y005491D02*
X013852Y005491D01*
X013852Y005569D02*
X011677Y005569D01*
X011690Y005646D02*
X013852Y005646D01*
X013852Y005723D02*
X011681Y005723D01*
X011648Y005800D02*
X013852Y005800D01*
X013852Y005878D02*
X011560Y005878D01*
X011304Y005878D02*
X010980Y005878D01*
X010980Y005955D02*
X013852Y005955D01*
X013852Y006032D02*
X013064Y006032D01*
X013054Y006023D02*
X013127Y006096D01*
X013166Y006190D01*
X013166Y006293D01*
X013127Y006388D01*
X013054Y006461D01*
X012960Y006500D01*
X012857Y006500D01*
X012762Y006461D01*
X012689Y006388D01*
X012650Y006293D01*
X012650Y006190D01*
X012689Y006096D01*
X012762Y006023D01*
X012857Y005984D01*
X012960Y005984D01*
X013054Y006023D01*
X013133Y006109D02*
X013852Y006109D01*
X013852Y006187D02*
X013165Y006187D01*
X013166Y006264D02*
X013852Y006264D01*
X013852Y006341D02*
X013146Y006341D01*
X013097Y006418D02*
X013873Y006418D01*
X013852Y006398D02*
X013852Y002165D01*
X013835Y002148D01*
X010997Y002148D01*
X010980Y002165D01*
X010980Y006693D01*
X010899Y006774D01*
X010505Y007168D01*
X005173Y007168D01*
X005173Y010531D01*
X005092Y010613D01*
X004091Y011614D01*
X004095Y012382D01*
X004097Y012381D01*
X004200Y012381D01*
X004295Y012421D01*
X004367Y012493D01*
X004407Y012588D01*
X004407Y012691D01*
X004367Y012786D01*
X004295Y012858D01*
X004200Y012897D01*
X004099Y012897D01*
X004104Y013759D01*
X004200Y013759D01*
X004295Y013799D01*
X004367Y013871D01*
X004407Y013966D01*
X004407Y014069D01*
X004367Y014164D01*
X004295Y014236D01*
X004229Y014263D01*
X004295Y014291D01*
X004367Y014363D01*
X004407Y014458D01*
X004407Y014561D01*
X004367Y014656D01*
X004295Y014728D01*
X004200Y014768D01*
X004110Y014768D01*
X004123Y016909D01*
X004200Y016909D01*
X004295Y016948D01*
X004367Y017021D01*
X004407Y017116D01*
X004407Y017218D01*
X004367Y017313D01*
X004295Y017386D01*
X004229Y017413D01*
X004295Y017440D01*
X004367Y017513D01*
X004407Y017608D01*
X004407Y017710D01*
X004367Y017805D01*
X004295Y017878D01*
X004200Y017917D01*
X004130Y017917D01*
X004150Y021160D01*
X004196Y021141D01*
X004298Y021141D01*
X004393Y021180D01*
X004466Y021253D01*
X004505Y021348D01*
X004505Y021451D01*
X004466Y021545D01*
X004393Y021618D01*
X004298Y021657D01*
X004196Y021657D01*
X004153Y021640D01*
X004154Y021946D01*
X004196Y021929D01*
X004298Y021929D01*
X004393Y021968D01*
X004466Y022040D01*
X004505Y022135D01*
X004505Y022238D01*
X004466Y022333D01*
X004393Y022405D01*
X004298Y022445D01*
X004196Y022445D01*
X004157Y022429D01*
X004173Y024891D01*
X004196Y024881D01*
X004298Y024881D01*
X004393Y024921D01*
X004466Y024993D01*
X004505Y025088D01*
X004505Y025191D01*
X004466Y025286D01*
X004393Y025358D01*
X004298Y025397D01*
X004196Y025397D01*
X004176Y025389D01*
X004188Y027363D01*
X006371Y027363D01*
X006453Y027444D01*
X006453Y028445D01*
X006452Y028446D01*
X007877Y028446D01*
X007867Y028435D01*
X007827Y028340D01*
X007827Y028238D01*
X007867Y028143D01*
X007939Y028070D01*
X008034Y028031D01*
X008137Y028031D01*
X008232Y028070D01*
X008304Y028143D01*
X008344Y028238D01*
X008344Y028340D01*
X008304Y028435D01*
X008294Y028446D01*
X009226Y028446D01*
X009307Y028527D01*
X009307Y040551D01*
X022259Y040551D01*
X022259Y014353D01*
X022025Y014353D01*
X022025Y014364D01*
X021985Y014459D01*
X021935Y014509D01*
X021985Y014560D01*
X022025Y014655D01*
X022025Y014758D01*
X021985Y014853D01*
X021935Y014903D01*
X021985Y014954D01*
X022025Y015049D01*
X022025Y015151D01*
X021985Y015246D01*
X021935Y015297D01*
X021985Y015347D01*
X022025Y015442D01*
X022025Y015545D01*
X021985Y015640D01*
X021913Y015713D01*
X021818Y015752D01*
X021715Y015752D01*
X021620Y015713D01*
X021548Y015640D01*
X021508Y015545D01*
X021508Y015442D01*
X021548Y015347D01*
X021598Y015297D01*
X021548Y015246D01*
X021508Y015151D01*
X021508Y015049D01*
X021548Y014954D01*
X021598Y014903D01*
X021570Y014874D01*
X021519Y014925D01*
X021424Y014964D01*
X021321Y014964D01*
X021227Y014925D01*
X021176Y014874D01*
X021125Y014925D01*
X021030Y014964D01*
X020928Y014964D01*
X020833Y014925D01*
X020760Y014853D01*
X020721Y014758D01*
X020721Y014655D01*
X020760Y014560D01*
X020833Y014487D01*
X020928Y014448D01*
X021030Y014448D01*
X021125Y014487D01*
X021176Y014538D01*
X021227Y014487D01*
X021321Y014448D01*
X021424Y014448D01*
X021519Y014487D01*
X021570Y014538D01*
X021598Y014509D01*
X021548Y014459D01*
X021508Y014364D01*
X021508Y014353D01*
X020844Y014353D01*
X020844Y014364D01*
X020804Y014459D01*
X020732Y014531D01*
X020637Y014571D01*
X020534Y014571D01*
X020439Y014531D01*
X020367Y014459D01*
X020327Y014364D01*
X020327Y014353D01*
X018227Y014353D01*
X018176Y014374D01*
X018073Y014374D01*
X018023Y014353D01*
X013638Y014353D01*
X013557Y014272D01*
X013360Y014075D01*
X013360Y013271D01*
X013441Y013190D01*
X013540Y013091D01*
X014721Y013091D01*
X014935Y012877D01*
X014935Y010773D01*
X014914Y010722D01*
X014914Y010620D01*
X014935Y010569D01*
X014935Y007480D01*
X013852Y006398D01*
X013950Y006496D02*
X012970Y006496D01*
X012847Y006496D02*
X010980Y006496D01*
X010980Y006573D02*
X014027Y006573D01*
X014105Y006650D02*
X010980Y006650D01*
X010946Y006727D02*
X014182Y006727D01*
X014259Y006805D02*
X013828Y006805D01*
X013842Y006810D02*
X013747Y006771D01*
X013644Y006771D01*
X013549Y006810D01*
X013477Y006883D01*
X013438Y006978D01*
X013438Y007080D01*
X013477Y007175D01*
X013549Y007248D01*
X013644Y007287D01*
X013747Y007287D01*
X013842Y007248D01*
X013914Y007175D01*
X013954Y007080D01*
X013954Y006978D01*
X013914Y006883D01*
X013842Y006810D01*
X013913Y006882D02*
X014336Y006882D01*
X014414Y006959D02*
X013946Y006959D01*
X013954Y007036D02*
X014491Y007036D01*
X014568Y007114D02*
X013940Y007114D01*
X013899Y007191D02*
X014645Y007191D01*
X014723Y007268D02*
X013794Y007268D01*
X013598Y007268D02*
X012022Y007268D01*
X011975Y007287D02*
X012070Y007248D01*
X012143Y007175D01*
X012182Y007080D01*
X012182Y006978D01*
X012143Y006883D01*
X012070Y006810D01*
X011975Y006771D01*
X011873Y006771D01*
X011778Y006810D01*
X011705Y006883D01*
X011666Y006978D01*
X011666Y007080D01*
X011705Y007175D01*
X011778Y007248D01*
X011873Y007287D01*
X011975Y007287D01*
X011826Y007268D02*
X005173Y007268D01*
X005173Y007345D02*
X014800Y007345D01*
X014877Y007422D02*
X005173Y007422D01*
X005173Y007500D02*
X014935Y007500D01*
X014935Y007577D02*
X013103Y007577D01*
X013058Y007558D02*
X013153Y007598D01*
X013226Y007670D01*
X013265Y007765D01*
X013265Y007868D01*
X013226Y007963D01*
X013153Y008035D01*
X013058Y008075D01*
X012955Y008075D01*
X012860Y008035D01*
X012788Y007963D01*
X012749Y007868D01*
X012749Y007765D01*
X012788Y007670D01*
X012860Y007598D01*
X012955Y007558D01*
X013058Y007558D01*
X012911Y007577D02*
X005173Y007577D01*
X005173Y007654D02*
X012804Y007654D01*
X012763Y007731D02*
X005173Y007731D01*
X005173Y007809D02*
X012749Y007809D01*
X012756Y007886D02*
X005173Y007886D01*
X005173Y007963D02*
X012788Y007963D01*
X012873Y008040D02*
X005173Y008040D01*
X005173Y008118D02*
X014935Y008118D01*
X014935Y008195D02*
X005173Y008195D01*
X005173Y008272D02*
X014935Y008272D01*
X014935Y008349D02*
X011295Y008349D01*
X011286Y008346D02*
X011381Y008385D01*
X011454Y008458D01*
X011493Y008553D01*
X011493Y008655D01*
X011454Y008750D01*
X011381Y008823D01*
X011286Y008862D01*
X011184Y008862D01*
X011089Y008823D01*
X011016Y008750D01*
X010977Y008655D01*
X010977Y008553D01*
X011016Y008458D01*
X011089Y008385D01*
X011184Y008346D01*
X011286Y008346D01*
X011175Y008349D02*
X005173Y008349D01*
X005173Y008427D02*
X011047Y008427D01*
X010997Y008504D02*
X005173Y008504D01*
X005173Y008581D02*
X010977Y008581D01*
X010978Y008658D02*
X005173Y008658D01*
X005173Y008736D02*
X011010Y008736D01*
X011079Y008813D02*
X005173Y008813D01*
X005173Y008890D02*
X014935Y008890D01*
X014935Y008813D02*
X011391Y008813D01*
X011460Y008736D02*
X014935Y008736D01*
X014935Y008658D02*
X011492Y008658D01*
X011493Y008581D02*
X014935Y008581D01*
X014935Y008504D02*
X011473Y008504D01*
X011423Y008427D02*
X014935Y008427D01*
X015074Y008427D02*
X022259Y008427D01*
X022259Y008504D02*
X015074Y008504D01*
X015074Y008581D02*
X015520Y008581D01*
X015518Y008582D02*
X015613Y008543D01*
X015716Y008543D01*
X015810Y008582D01*
X015883Y008655D01*
X015922Y008749D01*
X015922Y008852D01*
X015883Y008947D01*
X015810Y009020D01*
X015716Y009059D01*
X015613Y009059D01*
X015518Y009020D01*
X015445Y008947D01*
X015406Y008852D01*
X015406Y008749D01*
X015445Y008655D01*
X015518Y008582D01*
X015444Y008658D02*
X015074Y008658D01*
X015074Y008736D02*
X015412Y008736D01*
X015406Y008813D02*
X015074Y008813D01*
X015074Y008890D02*
X015422Y008890D01*
X015466Y008967D02*
X015074Y008967D01*
X015074Y009045D02*
X015578Y009045D01*
X015750Y009045D02*
X022259Y009045D01*
X022259Y009122D02*
X015074Y009122D01*
X015074Y009199D02*
X022259Y009199D01*
X022259Y009276D02*
X015074Y009276D01*
X015074Y009353D02*
X015556Y009353D01*
X015518Y009369D02*
X015613Y009330D01*
X015716Y009330D01*
X015810Y009369D01*
X015883Y009442D01*
X015922Y009537D01*
X015922Y009640D01*
X015883Y009734D01*
X015810Y009807D01*
X015745Y009834D01*
X015810Y009861D01*
X015883Y009934D01*
X015922Y010029D01*
X015922Y010132D01*
X015883Y010227D01*
X015810Y010299D01*
X015716Y010338D01*
X015613Y010338D01*
X015518Y010299D01*
X015445Y010227D01*
X015406Y010132D01*
X015406Y010029D01*
X015445Y009934D01*
X015518Y009861D01*
X015584Y009834D01*
X015518Y009807D01*
X015445Y009734D01*
X015406Y009640D01*
X015406Y009537D01*
X015445Y009442D01*
X015518Y009369D01*
X015457Y009431D02*
X015074Y009431D01*
X015074Y009508D02*
X015418Y009508D01*
X015406Y009585D02*
X015074Y009585D01*
X015074Y009662D02*
X015416Y009662D01*
X015451Y009740D02*
X015074Y009740D01*
X015074Y009817D02*
X015542Y009817D01*
X015485Y009894D02*
X015074Y009894D01*
X015074Y009971D02*
X015430Y009971D01*
X015406Y010049D02*
X015074Y010049D01*
X015074Y010126D02*
X015406Y010126D01*
X015436Y010203D02*
X015074Y010203D01*
X015074Y010280D02*
X015499Y010280D01*
X015829Y010280D02*
X022259Y010280D01*
X022259Y010203D02*
X015893Y010203D01*
X015922Y010126D02*
X022259Y010126D01*
X022259Y010049D02*
X015922Y010049D01*
X015898Y009971D02*
X022259Y009971D01*
X022259Y009894D02*
X015843Y009894D01*
X015786Y009817D02*
X022259Y009817D01*
X022259Y009740D02*
X015878Y009740D01*
X015913Y009662D02*
X022259Y009662D01*
X022259Y009585D02*
X015922Y009585D01*
X015910Y009508D02*
X022259Y009508D01*
X022259Y009431D02*
X015872Y009431D01*
X015772Y009353D02*
X022259Y009353D01*
X022259Y008967D02*
X015863Y008967D01*
X015907Y008890D02*
X022259Y008890D01*
X022259Y008813D02*
X015922Y008813D01*
X015917Y008736D02*
X022259Y008736D01*
X022259Y008658D02*
X015885Y008658D01*
X015808Y008581D02*
X022259Y008581D01*
X022259Y008349D02*
X015074Y008349D01*
X015074Y008272D02*
X022259Y008272D01*
X022259Y008195D02*
X015074Y008195D01*
X015074Y008118D02*
X022259Y008118D01*
X022259Y008040D02*
X017373Y008040D01*
X017385Y008035D02*
X017290Y008075D01*
X017188Y008075D01*
X017093Y008035D01*
X017020Y007963D01*
X016981Y007868D01*
X016981Y007765D01*
X017020Y007670D01*
X017093Y007598D01*
X017188Y007558D01*
X017290Y007558D01*
X017385Y007598D01*
X017458Y007670D01*
X017497Y007765D01*
X017497Y007868D01*
X017458Y007963D01*
X017385Y008035D01*
X017457Y007963D02*
X022259Y007963D01*
X022259Y007886D02*
X017490Y007886D01*
X017497Y007809D02*
X022259Y007809D01*
X022259Y007731D02*
X017483Y007731D01*
X017442Y007654D02*
X022259Y007654D01*
X022259Y007577D02*
X021831Y007577D01*
X021818Y007583D02*
X021715Y007583D01*
X021620Y007543D01*
X021548Y007471D01*
X021508Y007376D01*
X021508Y007273D01*
X021548Y007178D01*
X021620Y007106D01*
X021715Y007066D01*
X021818Y007066D01*
X021913Y007106D01*
X021985Y007178D01*
X022025Y007273D01*
X022025Y007376D01*
X021985Y007471D01*
X021913Y007543D01*
X021818Y007583D01*
X021702Y007577D02*
X017335Y007577D01*
X017143Y007577D02*
X015074Y007577D01*
X015074Y007654D02*
X017036Y007654D01*
X016995Y007731D02*
X015074Y007731D01*
X015074Y007809D02*
X016981Y007809D01*
X016988Y007886D02*
X015074Y007886D01*
X015074Y007963D02*
X017021Y007963D01*
X017105Y008040D02*
X015074Y008040D01*
X014935Y008040D02*
X013141Y008040D01*
X013225Y007963D02*
X014935Y007963D01*
X014935Y007886D02*
X013257Y007886D01*
X013265Y007809D02*
X014935Y007809D01*
X014935Y007731D02*
X013251Y007731D01*
X013209Y007654D02*
X014935Y007654D01*
X015074Y007500D02*
X021577Y007500D01*
X021528Y007422D02*
X015073Y007422D01*
X014996Y007345D02*
X021508Y007345D01*
X021511Y007268D02*
X014919Y007268D01*
X014842Y007191D02*
X021543Y007191D01*
X021612Y007114D02*
X014764Y007114D01*
X014687Y007036D02*
X022259Y007036D01*
X022259Y006959D02*
X014610Y006959D01*
X014533Y006882D02*
X022259Y006882D01*
X022259Y006805D02*
X014455Y006805D01*
X014378Y006727D02*
X022259Y006727D01*
X022259Y006650D02*
X014301Y006650D01*
X014224Y006573D02*
X022259Y006573D01*
X022259Y006496D02*
X014146Y006496D01*
X014069Y006418D02*
X022259Y006418D01*
X022259Y006341D02*
X013992Y006341D01*
X013991Y006264D02*
X022259Y006264D01*
X022259Y006187D02*
X013991Y006187D01*
X013991Y006109D02*
X022259Y006109D01*
X022259Y006032D02*
X013991Y006032D01*
X013991Y005955D02*
X022259Y005955D01*
X022259Y005878D02*
X014906Y005878D01*
X014925Y005870D02*
X014830Y005909D01*
X014727Y005909D01*
X014632Y005870D01*
X014560Y005797D01*
X014520Y005703D01*
X014520Y005600D01*
X014560Y005505D01*
X014632Y005432D01*
X014727Y005393D01*
X014830Y005393D01*
X014925Y005432D01*
X014997Y005505D01*
X015036Y005600D01*
X015036Y005703D01*
X014997Y005797D01*
X014925Y005870D01*
X014994Y005800D02*
X022259Y005800D01*
X022259Y005723D02*
X015028Y005723D01*
X015036Y005646D02*
X022259Y005646D01*
X022259Y005569D02*
X015024Y005569D01*
X014984Y005491D02*
X022259Y005491D01*
X022259Y005414D02*
X014881Y005414D01*
X014676Y005414D02*
X013991Y005414D01*
X013991Y005337D02*
X022259Y005337D01*
X022259Y005260D02*
X017470Y005260D01*
X017496Y005249D02*
X017329Y005318D01*
X017149Y005318D01*
X016982Y005249D01*
X016854Y005121D01*
X016785Y004954D01*
X016785Y004773D01*
X016854Y004606D01*
X016982Y004479D01*
X017149Y004409D01*
X017329Y004409D01*
X017496Y004479D01*
X017624Y004606D01*
X017693Y004773D01*
X017693Y004954D01*
X017624Y005121D01*
X017496Y005249D01*
X017563Y005182D02*
X022259Y005182D01*
X022259Y005105D02*
X017631Y005105D01*
X017663Y005028D02*
X022259Y005028D01*
X022259Y004951D02*
X017693Y004951D01*
X017693Y004874D02*
X022259Y004874D01*
X022259Y004796D02*
X017693Y004796D01*
X017671Y004719D02*
X022259Y004719D01*
X022259Y004642D02*
X017639Y004642D01*
X017582Y004565D02*
X022259Y004565D01*
X022259Y004487D02*
X017505Y004487D01*
X017331Y004410D02*
X022259Y004410D01*
X022259Y004333D02*
X013991Y004333D01*
X013991Y004410D02*
X017147Y004410D01*
X016973Y004487D02*
X013991Y004487D01*
X013991Y004565D02*
X016896Y004565D01*
X016839Y004642D02*
X013991Y004642D01*
X013991Y004719D02*
X016807Y004719D01*
X016785Y004796D02*
X013991Y004796D01*
X013991Y004874D02*
X016785Y004874D01*
X016785Y004951D02*
X013991Y004951D01*
X013991Y005028D02*
X016815Y005028D01*
X016847Y005105D02*
X013991Y005105D01*
X013991Y005182D02*
X016915Y005182D01*
X017008Y005260D02*
X013991Y005260D01*
X013852Y005260D02*
X010980Y005260D01*
X010980Y005182D02*
X013852Y005182D01*
X013852Y005105D02*
X013492Y005105D01*
X013452Y005122D02*
X013349Y005122D01*
X013254Y005083D01*
X013182Y005010D01*
X013142Y004915D01*
X013142Y004812D01*
X013182Y004718D01*
X013254Y004645D01*
X013349Y004606D01*
X013452Y004606D01*
X013547Y004645D01*
X013619Y004718D01*
X013659Y004812D01*
X013659Y004915D01*
X013619Y005010D01*
X013547Y005083D01*
X013452Y005122D01*
X013309Y005105D02*
X010980Y005105D01*
X010980Y005028D02*
X013200Y005028D01*
X013157Y004951D02*
X010980Y004951D01*
X010980Y004874D02*
X013142Y004874D01*
X013149Y004796D02*
X010980Y004796D01*
X010980Y004719D02*
X013181Y004719D01*
X013262Y004642D02*
X010980Y004642D01*
X010980Y004565D02*
X013852Y004565D01*
X013852Y004642D02*
X013539Y004642D01*
X013620Y004719D02*
X013852Y004719D01*
X013852Y004796D02*
X013652Y004796D01*
X013659Y004874D02*
X013852Y004874D01*
X013852Y004951D02*
X013644Y004951D01*
X013601Y005028D02*
X013852Y005028D01*
X013991Y005491D02*
X014573Y005491D01*
X014533Y005569D02*
X013991Y005569D01*
X013991Y005646D02*
X014520Y005646D01*
X014529Y005723D02*
X013991Y005723D01*
X013991Y005800D02*
X014563Y005800D01*
X014651Y005878D02*
X013991Y005878D01*
X013563Y006805D02*
X012056Y006805D01*
X012142Y006882D02*
X013478Y006882D01*
X013445Y006959D02*
X012174Y006959D01*
X012182Y007036D02*
X013438Y007036D01*
X013451Y007114D02*
X012168Y007114D01*
X012127Y007191D02*
X013492Y007191D01*
X012720Y006418D02*
X010980Y006418D01*
X010980Y006341D02*
X012670Y006341D01*
X012650Y006264D02*
X010980Y006264D01*
X010980Y006187D02*
X012652Y006187D01*
X012684Y006109D02*
X010980Y006109D01*
X010980Y006032D02*
X012753Y006032D01*
X011792Y006805D02*
X010868Y006805D01*
X010791Y006882D02*
X011706Y006882D01*
X011674Y006959D02*
X010714Y006959D01*
X010637Y007036D02*
X011666Y007036D01*
X011680Y007114D02*
X010559Y007114D01*
X010518Y006959D02*
X004308Y006959D01*
X004308Y006982D02*
X004269Y007077D01*
X004196Y007150D01*
X004101Y007189D01*
X003999Y007189D01*
X003904Y007150D01*
X003831Y007077D01*
X003792Y006982D01*
X003792Y006879D01*
X003831Y006785D01*
X003904Y006712D01*
X003999Y006673D01*
X004101Y006673D01*
X004196Y006712D01*
X004269Y006785D01*
X004308Y006879D01*
X004308Y006982D01*
X004286Y007036D02*
X005034Y007036D01*
X005034Y007114D02*
X004232Y007114D01*
X004308Y006882D02*
X010595Y006882D01*
X010672Y006805D02*
X004277Y006805D01*
X004212Y006727D02*
X009092Y006727D01*
X009120Y006756D02*
X009048Y006683D01*
X009008Y006588D01*
X009008Y006486D01*
X009048Y006391D01*
X009120Y006318D01*
X009215Y006279D01*
X009318Y006279D01*
X009413Y006318D01*
X009485Y006391D01*
X009525Y006486D01*
X009525Y006588D01*
X009485Y006683D01*
X009413Y006756D01*
X009318Y006795D01*
X009215Y006795D01*
X009120Y006756D01*
X009034Y006650D02*
X002811Y006650D01*
X002811Y006573D02*
X009008Y006573D01*
X009008Y006496D02*
X002811Y006496D01*
X002811Y006418D02*
X009036Y006418D01*
X009097Y006341D02*
X002811Y006341D01*
X002811Y006264D02*
X010841Y006264D01*
X010841Y006341D02*
X009436Y006341D01*
X009497Y006418D02*
X010841Y006418D01*
X010841Y006496D02*
X009525Y006496D01*
X009525Y006573D02*
X010841Y006573D01*
X010827Y006650D02*
X009499Y006650D01*
X009441Y006727D02*
X010749Y006727D01*
X010841Y006187D02*
X002811Y006187D01*
X002811Y006727D02*
X003888Y006727D01*
X003823Y006805D02*
X002811Y006805D01*
X002811Y006882D02*
X003792Y006882D01*
X003792Y006959D02*
X002811Y006959D01*
X002811Y007036D02*
X003814Y007036D01*
X003868Y007114D02*
X002811Y007114D01*
X002811Y007191D02*
X005034Y007191D01*
X005034Y007268D02*
X002811Y007268D01*
X002811Y007345D02*
X005034Y007345D01*
X005034Y007422D02*
X002811Y007422D01*
X002811Y007500D02*
X005034Y007500D01*
X005034Y007577D02*
X002811Y007577D01*
X002811Y007654D02*
X005034Y007654D01*
X005034Y007731D02*
X004231Y007731D01*
X004196Y007696D02*
X004269Y007769D01*
X004308Y007864D01*
X004308Y007966D01*
X004269Y008061D01*
X004196Y008134D01*
X004101Y008173D01*
X003999Y008173D01*
X003904Y008134D01*
X003831Y008061D01*
X003792Y007966D01*
X003792Y007864D01*
X003831Y007769D01*
X003904Y007696D01*
X003999Y007657D01*
X004101Y007657D01*
X004196Y007696D01*
X004285Y007809D02*
X005034Y007809D01*
X005034Y007886D02*
X004308Y007886D01*
X004308Y007963D02*
X005034Y007963D01*
X005034Y008040D02*
X004277Y008040D01*
X004212Y008118D02*
X005034Y008118D01*
X005034Y008195D02*
X002811Y008195D01*
X002811Y008272D02*
X005034Y008272D01*
X005034Y008349D02*
X002811Y008349D01*
X002811Y008427D02*
X005034Y008427D01*
X005034Y008504D02*
X002811Y008504D01*
X002811Y008581D02*
X005034Y008581D01*
X005034Y008658D02*
X002811Y008658D01*
X002811Y008736D02*
X005034Y008736D01*
X005034Y008813D02*
X002811Y008813D01*
X002811Y008890D02*
X005034Y008890D01*
X005034Y008967D02*
X002811Y008967D01*
X002811Y009045D02*
X005034Y009045D01*
X005034Y009122D02*
X002811Y009122D01*
X002811Y009199D02*
X005034Y009199D01*
X005034Y009276D02*
X002811Y009276D01*
X002811Y009353D02*
X005034Y009353D01*
X005034Y009431D02*
X002811Y009431D01*
X002811Y009508D02*
X005034Y009508D01*
X005034Y009585D02*
X002811Y009585D01*
X002811Y009662D02*
X003614Y009662D01*
X003609Y009665D02*
X003703Y009625D01*
X003806Y009625D01*
X003901Y009665D01*
X003974Y009737D01*
X004013Y009832D01*
X004013Y009935D01*
X003974Y010030D01*
X003901Y010102D01*
X003806Y010142D01*
X003703Y010142D01*
X003609Y010102D01*
X003536Y010030D01*
X003497Y009935D01*
X003497Y009832D01*
X003536Y009737D01*
X003609Y009665D01*
X003535Y009740D02*
X002811Y009740D01*
X002811Y009817D02*
X003503Y009817D01*
X003497Y009894D02*
X002811Y009894D01*
X002811Y009971D02*
X003512Y009971D01*
X003555Y010049D02*
X002811Y010049D01*
X002811Y010126D02*
X003665Y010126D01*
X003844Y010126D02*
X005034Y010126D01*
X005034Y010203D02*
X002811Y010203D01*
X002811Y010280D02*
X005034Y010280D01*
X005034Y010358D02*
X002811Y010358D01*
X002811Y010435D02*
X005034Y010435D01*
X004996Y010512D02*
X002811Y010512D01*
X002811Y010589D02*
X004919Y010589D01*
X004842Y010667D02*
X002811Y010667D01*
X002811Y010744D02*
X004764Y010744D01*
X004687Y010821D02*
X002811Y010821D01*
X002811Y010898D02*
X004610Y010898D01*
X004533Y010976D02*
X002811Y010976D01*
X002811Y011053D02*
X004456Y011053D01*
X004378Y011130D02*
X002811Y011130D01*
X002811Y011207D02*
X004301Y011207D01*
X004224Y011284D02*
X002811Y011284D01*
X002811Y011362D02*
X004147Y011362D01*
X004069Y011439D02*
X002811Y011439D01*
X002811Y011516D02*
X003992Y011516D01*
X003952Y011593D02*
X002811Y011593D01*
X002811Y011671D02*
X003952Y011671D01*
X003953Y011748D02*
X002811Y011748D01*
X002811Y011825D02*
X003953Y011825D01*
X003954Y011902D02*
X002811Y011902D01*
X002811Y011980D02*
X003954Y011980D01*
X003955Y012057D02*
X002811Y012057D01*
X002811Y012134D02*
X003955Y012134D01*
X003956Y012211D02*
X002811Y012211D01*
X002811Y012289D02*
X003956Y012289D01*
X003957Y012366D02*
X002811Y012366D01*
X002811Y012443D02*
X003957Y012443D01*
X003918Y012520D02*
X002811Y012520D01*
X002811Y012598D02*
X003890Y012598D01*
X003890Y012675D02*
X002811Y012675D01*
X002811Y012752D02*
X003916Y012752D01*
X003959Y012829D02*
X002811Y012829D01*
X002811Y012907D02*
X003960Y012907D01*
X003960Y012984D02*
X002811Y012984D01*
X002811Y013061D02*
X003952Y013061D01*
X003907Y013138D02*
X002811Y013138D01*
X002811Y013215D02*
X003890Y013215D01*
X003895Y013293D02*
X002811Y013293D01*
X002811Y013370D02*
X003927Y013370D01*
X003963Y013447D02*
X002811Y013447D01*
X002811Y013524D02*
X003964Y013524D01*
X003964Y013602D02*
X002811Y013602D01*
X002811Y013679D02*
X003965Y013679D01*
X003965Y013756D02*
X002811Y013756D01*
X002811Y013833D02*
X003966Y013833D01*
X003913Y013911D02*
X002811Y013911D01*
X002811Y013988D02*
X003890Y013988D01*
X003890Y014065D02*
X002811Y014065D01*
X002811Y014142D02*
X003921Y014142D01*
X003968Y014220D02*
X002811Y014220D01*
X002811Y014297D02*
X003968Y014297D01*
X003925Y014374D02*
X002811Y014374D01*
X002811Y014451D02*
X003893Y014451D01*
X003890Y014529D02*
X002811Y014529D01*
X002811Y014606D02*
X003909Y014606D01*
X003957Y014683D02*
X002811Y014683D01*
X002811Y014760D02*
X003971Y014760D01*
X003972Y014838D02*
X002811Y014838D01*
X002811Y014915D02*
X003972Y014915D01*
X003973Y014992D02*
X002811Y014992D01*
X002811Y015069D02*
X003973Y015069D01*
X003934Y015147D02*
X002811Y015147D01*
X002811Y015224D02*
X003899Y015224D01*
X003890Y015301D02*
X002811Y015301D01*
X002811Y015378D02*
X003903Y015378D01*
X003942Y015455D02*
X002811Y015455D01*
X002811Y015533D02*
X003976Y015533D01*
X003977Y015610D02*
X002811Y015610D01*
X002811Y015687D02*
X003977Y015687D01*
X003978Y015764D02*
X002811Y015764D01*
X002811Y015842D02*
X003978Y015842D01*
X003979Y015919D02*
X002811Y015919D01*
X002811Y015996D02*
X003979Y015996D01*
X003979Y016073D02*
X002811Y016073D01*
X002811Y016151D02*
X003980Y016151D01*
X003935Y016228D02*
X002811Y016228D01*
X002811Y016305D02*
X003900Y016305D01*
X003890Y016382D02*
X002811Y016382D01*
X002811Y016460D02*
X003902Y016460D01*
X003941Y016537D02*
X002811Y016537D01*
X002811Y016614D02*
X003983Y016614D01*
X003983Y016691D02*
X002811Y016691D01*
X002811Y016769D02*
X003984Y016769D01*
X003984Y016846D02*
X002811Y016846D01*
X002811Y016923D02*
X003985Y016923D01*
X003950Y017000D02*
X002811Y017000D01*
X002811Y017078D02*
X003906Y017078D01*
X003890Y017155D02*
X002811Y017155D01*
X002811Y017232D02*
X003896Y017232D01*
X003928Y017309D02*
X002811Y017309D01*
X002811Y017386D02*
X003988Y017386D01*
X003979Y017464D02*
X002811Y017464D01*
X002811Y017541D02*
X003918Y017541D01*
X003890Y017618D02*
X002811Y017618D01*
X002811Y017695D02*
X003890Y017695D01*
X003916Y017773D02*
X002811Y017773D01*
X002811Y017850D02*
X003974Y017850D01*
X003991Y017927D02*
X002811Y017927D01*
X002811Y018004D02*
X003991Y018004D01*
X003992Y018082D02*
X002811Y018082D01*
X002811Y018159D02*
X003992Y018159D01*
X003993Y018236D02*
X002811Y018236D01*
X002811Y018313D02*
X003924Y018313D01*
X003892Y018391D02*
X002811Y018391D01*
X002811Y018468D02*
X003890Y018468D01*
X003910Y018545D02*
X002811Y018545D01*
X002811Y018622D02*
X003959Y018622D01*
X003996Y018700D02*
X002811Y018700D01*
X002811Y018777D02*
X003996Y018777D01*
X003997Y018854D02*
X002811Y018854D01*
X002811Y018931D02*
X003997Y018931D01*
X003998Y019009D02*
X002811Y019009D01*
X002811Y019086D02*
X003998Y019086D01*
X003999Y019163D02*
X002811Y019163D01*
X002811Y019240D02*
X003999Y019240D01*
X003999Y019317D02*
X002811Y019317D01*
X002811Y019395D02*
X004000Y019395D01*
X004000Y019472D02*
X002811Y019472D01*
X002811Y019549D02*
X004001Y019549D01*
X004001Y019626D02*
X002811Y019626D01*
X002811Y019704D02*
X004002Y019704D01*
X004002Y019781D02*
X002811Y019781D01*
X002811Y019858D02*
X004003Y019858D01*
X004003Y019935D02*
X002811Y019935D01*
X002811Y020013D02*
X004004Y020013D01*
X004004Y020090D02*
X002811Y020090D01*
X002811Y020167D02*
X004005Y020167D01*
X004005Y020244D02*
X002811Y020244D01*
X002811Y020322D02*
X004006Y020322D01*
X004006Y020399D02*
X002811Y020399D01*
X002811Y020476D02*
X004007Y020476D01*
X004007Y020553D02*
X002811Y020553D01*
X002811Y020631D02*
X004008Y020631D01*
X004008Y020708D02*
X002811Y020708D01*
X002811Y020785D02*
X004009Y020785D01*
X004009Y020862D02*
X002811Y020862D01*
X002811Y020940D02*
X004009Y020940D01*
X004010Y021017D02*
X002811Y021017D01*
X002811Y021094D02*
X004010Y021094D01*
X004011Y021171D02*
X002811Y021171D01*
X002811Y021248D02*
X004011Y021248D01*
X003998Y021326D02*
X002811Y021326D01*
X002811Y021403D02*
X003989Y021403D01*
X004001Y021480D02*
X002811Y021480D01*
X002811Y021557D02*
X004013Y021557D01*
X004014Y021635D02*
X002811Y021635D01*
X002811Y021712D02*
X004014Y021712D01*
X004015Y021789D02*
X002811Y021789D01*
X002811Y021866D02*
X004015Y021866D01*
X004016Y021944D02*
X002811Y021944D01*
X002811Y022021D02*
X004016Y022021D01*
X004004Y022098D02*
X002811Y022098D01*
X002811Y022175D02*
X003989Y022175D01*
X003995Y022253D02*
X002811Y022253D01*
X002811Y022330D02*
X004018Y022330D01*
X004019Y022407D02*
X002811Y022407D01*
X002811Y022484D02*
X004019Y022484D01*
X004020Y022562D02*
X002811Y022562D01*
X002811Y022639D02*
X004020Y022639D01*
X004020Y022716D02*
X002811Y022716D01*
X002811Y022793D02*
X004021Y022793D01*
X004021Y022871D02*
X002811Y022871D01*
X002811Y022948D02*
X004022Y022948D01*
X004022Y023025D02*
X002811Y023025D01*
X002811Y023102D02*
X004023Y023102D01*
X004023Y023180D02*
X002811Y023180D01*
X002811Y023257D02*
X004024Y023257D01*
X004024Y023334D02*
X002811Y023334D01*
X002811Y023411D02*
X004025Y023411D01*
X004025Y023488D02*
X002811Y023488D01*
X002811Y023566D02*
X004026Y023566D01*
X004026Y023643D02*
X002811Y023643D01*
X002811Y023720D02*
X004027Y023720D01*
X004027Y023797D02*
X002811Y023797D01*
X002811Y023875D02*
X004028Y023875D01*
X004028Y023952D02*
X002811Y023952D01*
X002811Y024029D02*
X004029Y024029D01*
X004029Y024106D02*
X002811Y024106D01*
X002811Y024184D02*
X004030Y024184D01*
X004030Y024261D02*
X002811Y024261D01*
X002811Y024338D02*
X004030Y024338D01*
X004031Y024415D02*
X002811Y024415D01*
X002811Y024493D02*
X004031Y024493D01*
X004032Y024570D02*
X002811Y024570D01*
X002811Y024647D02*
X004032Y024647D01*
X004033Y024724D02*
X002811Y024724D01*
X002811Y024802D02*
X004033Y024802D01*
X004034Y024879D02*
X002811Y024879D01*
X002811Y024956D02*
X004034Y024956D01*
X004011Y025033D02*
X002811Y025033D01*
X002811Y025111D02*
X003989Y025111D01*
X003989Y025188D02*
X002811Y025188D01*
X002811Y025265D02*
X004020Y025265D01*
X004037Y025342D02*
X002811Y025342D01*
X002811Y025419D02*
X004037Y025419D01*
X004038Y025497D02*
X002811Y025497D01*
X002811Y025574D02*
X004038Y025574D01*
X004039Y025651D02*
X002811Y025651D01*
X002811Y025728D02*
X004039Y025728D01*
X004040Y025806D02*
X002811Y025806D01*
X002811Y025883D02*
X004040Y025883D01*
X004040Y025960D02*
X002811Y025960D01*
X002811Y026037D02*
X004041Y026037D01*
X004041Y026115D02*
X002811Y026115D01*
X002811Y026192D02*
X004042Y026192D01*
X004042Y026269D02*
X002811Y026269D01*
X002811Y026346D02*
X004043Y026346D01*
X004043Y026424D02*
X002811Y026424D01*
X002811Y026501D02*
X004044Y026501D01*
X004044Y026578D02*
X002811Y026578D01*
X002811Y026655D02*
X004045Y026655D01*
X004045Y026733D02*
X002811Y026733D01*
X002811Y026810D02*
X004046Y026810D01*
X004046Y026887D02*
X002811Y026887D01*
X002811Y026964D02*
X004047Y026964D01*
X004047Y027042D02*
X002811Y027042D01*
X002811Y027119D02*
X004048Y027119D01*
X004048Y027196D02*
X002811Y027196D01*
X002811Y027273D02*
X004049Y027273D01*
X004049Y027350D02*
X002811Y027350D01*
X002811Y027428D02*
X004050Y027428D01*
X004188Y027350D02*
X013634Y027350D01*
X013634Y027356D02*
X013634Y027253D01*
X013674Y027159D01*
X013746Y027086D01*
X013841Y027047D01*
X013944Y027047D01*
X014039Y027086D01*
X014111Y027159D01*
X014151Y027253D01*
X014151Y027356D01*
X014111Y027451D01*
X014039Y027524D01*
X013944Y027563D01*
X013841Y027563D01*
X013746Y027524D01*
X013674Y027451D01*
X013634Y027356D01*
X013664Y027428D02*
X006436Y027428D01*
X006453Y027505D02*
X013728Y027505D01*
X013634Y027273D02*
X004187Y027273D01*
X004187Y027196D02*
X013658Y027196D01*
X013713Y027119D02*
X009424Y027119D01*
X009413Y027130D02*
X009318Y027169D01*
X009215Y027169D01*
X009120Y027130D01*
X009048Y027057D01*
X009008Y026962D01*
X009008Y026860D01*
X009048Y026765D01*
X009120Y026692D01*
X009215Y026653D01*
X009318Y026653D01*
X009413Y026692D01*
X009485Y026765D01*
X009525Y026860D01*
X009525Y026962D01*
X009485Y027057D01*
X009413Y027130D01*
X009492Y027042D02*
X017728Y027042D01*
X017709Y027060D02*
X017782Y026987D01*
X017877Y026948D01*
X017979Y026948D01*
X018074Y026987D01*
X018147Y027060D01*
X018186Y027155D01*
X018186Y027258D01*
X018147Y027353D01*
X018074Y027425D01*
X017979Y027464D01*
X017877Y027464D01*
X017782Y027425D01*
X017709Y027353D01*
X017670Y027258D01*
X017670Y027155D01*
X017709Y027060D01*
X017685Y027119D02*
X014072Y027119D01*
X014127Y027196D02*
X017670Y027196D01*
X017676Y027273D02*
X014151Y027273D01*
X014151Y027350D02*
X017708Y027350D01*
X017788Y027428D02*
X014121Y027428D01*
X014057Y027505D02*
X018773Y027505D01*
X018792Y027549D02*
X018753Y027454D01*
X018753Y027352D01*
X018792Y027257D01*
X018864Y027184D01*
X018959Y027145D01*
X019062Y027145D01*
X019157Y027184D01*
X019229Y027257D01*
X019269Y027352D01*
X019269Y027454D01*
X019229Y027549D01*
X019157Y027622D01*
X019062Y027661D01*
X018959Y027661D01*
X018864Y027622D01*
X018792Y027549D01*
X018825Y027582D02*
X006453Y027582D01*
X006453Y027659D02*
X017232Y027659D01*
X017191Y027676D02*
X017286Y027637D01*
X017389Y027637D01*
X017484Y027676D01*
X017556Y027749D01*
X017596Y027844D01*
X017596Y027947D01*
X017556Y028041D01*
X017484Y028114D01*
X017389Y028153D01*
X017286Y028153D01*
X017191Y028114D01*
X017119Y028041D01*
X017079Y027947D01*
X017079Y027844D01*
X017119Y027749D01*
X017191Y027676D01*
X017131Y027737D02*
X006453Y027737D01*
X006453Y027814D02*
X017092Y027814D01*
X017079Y027891D02*
X006453Y027891D01*
X006453Y027968D02*
X017088Y027968D01*
X017123Y028046D02*
X008172Y028046D01*
X008284Y028123D02*
X017212Y028123D01*
X017462Y028123D02*
X022259Y028123D01*
X022259Y028200D02*
X008328Y028200D01*
X008344Y028277D02*
X021807Y028277D01*
X021817Y028267D02*
X021912Y028228D01*
X022015Y028228D01*
X022110Y028267D01*
X022182Y028340D01*
X022221Y028434D01*
X022221Y028537D01*
X022182Y028632D01*
X022110Y028705D01*
X022015Y028744D01*
X021912Y028744D01*
X021817Y028705D01*
X021745Y028632D01*
X021705Y028537D01*
X021705Y028434D01*
X021745Y028340D01*
X021817Y028267D01*
X021738Y028355D02*
X008338Y028355D01*
X008306Y028432D02*
X021706Y028432D01*
X021705Y028509D02*
X009289Y028509D01*
X009307Y028586D02*
X021726Y028586D01*
X021776Y028664D02*
X009307Y028664D01*
X009307Y028741D02*
X021905Y028741D01*
X022022Y028741D02*
X022259Y028741D01*
X022259Y028818D02*
X009307Y028818D01*
X009307Y028895D02*
X022259Y028895D01*
X022259Y028973D02*
X009307Y028973D01*
X009307Y029050D02*
X016021Y029050D01*
X016010Y029054D02*
X016105Y029015D01*
X016208Y029015D01*
X016303Y029054D01*
X016375Y029127D01*
X016725Y029127D01*
X016797Y029054D01*
X016892Y029015D01*
X016995Y029015D01*
X017090Y029054D01*
X017163Y029127D01*
X017202Y029222D01*
X017202Y029325D01*
X017163Y029419D01*
X017090Y029492D01*
X016995Y029531D01*
X016892Y029531D01*
X016797Y029492D01*
X016725Y029419D01*
X016686Y029325D01*
X016686Y029222D01*
X016725Y029127D01*
X016693Y029204D02*
X016407Y029204D01*
X016414Y029222D02*
X016375Y029127D01*
X016414Y029222D02*
X016414Y029325D01*
X016375Y029419D01*
X016303Y029492D01*
X016208Y029531D01*
X016105Y029531D01*
X016010Y029492D01*
X015937Y029419D01*
X015898Y029325D01*
X015898Y029222D01*
X015937Y029127D01*
X016010Y029054D01*
X015937Y029127D02*
X009307Y029127D01*
X009307Y029204D02*
X015905Y029204D01*
X015898Y029281D02*
X009307Y029281D01*
X009307Y029359D02*
X015912Y029359D01*
X015954Y029436D02*
X009307Y029436D01*
X009307Y029513D02*
X016061Y029513D01*
X016251Y029513D02*
X016849Y029513D01*
X016897Y029606D02*
X016991Y029645D01*
X017064Y029718D01*
X017103Y029812D01*
X017103Y029915D01*
X017064Y030010D01*
X016991Y030083D01*
X016897Y030122D01*
X016794Y030122D01*
X016699Y030083D01*
X016626Y030010D01*
X016587Y029915D01*
X016587Y029812D01*
X016626Y029718D01*
X016699Y029645D01*
X016794Y029606D01*
X016897Y029606D01*
X017014Y029668D02*
X019343Y029668D01*
X019343Y029718D02*
X019343Y029616D01*
X019382Y029521D01*
X019455Y029448D01*
X019550Y029409D01*
X019653Y029409D01*
X019747Y029448D01*
X019820Y029521D01*
X019836Y029559D01*
X019849Y029547D01*
X019944Y029507D01*
X020046Y029507D01*
X020141Y029547D01*
X020214Y029619D01*
X020253Y029714D01*
X020253Y029817D01*
X020214Y029912D01*
X020141Y029984D01*
X020046Y030023D01*
X019944Y030023D01*
X019849Y029984D01*
X019776Y029912D01*
X019760Y029873D01*
X019747Y029886D01*
X019653Y029925D01*
X019550Y029925D01*
X019455Y029886D01*
X019382Y029813D01*
X019343Y029718D01*
X019354Y029745D02*
X017075Y029745D01*
X017103Y029822D02*
X019391Y029822D01*
X019488Y029899D02*
X017103Y029899D01*
X017078Y029977D02*
X019841Y029977D01*
X019771Y029899D02*
X019714Y029899D01*
X019812Y029513D02*
X019929Y029513D01*
X020061Y029513D02*
X022259Y029513D01*
X022259Y029436D02*
X019718Y029436D01*
X019484Y029436D02*
X017146Y029436D01*
X017188Y029359D02*
X022259Y029359D01*
X022259Y029281D02*
X017202Y029281D01*
X017195Y029204D02*
X022259Y029204D01*
X022259Y029127D02*
X017163Y029127D01*
X017079Y029050D02*
X022259Y029050D01*
X022259Y028664D02*
X022151Y028664D01*
X022201Y028586D02*
X022259Y028586D01*
X022259Y028509D02*
X022221Y028509D01*
X022220Y028432D02*
X022259Y028432D01*
X022259Y028355D02*
X022188Y028355D01*
X022120Y028277D02*
X022259Y028277D01*
X022259Y028046D02*
X017552Y028046D01*
X017586Y027968D02*
X022259Y027968D01*
X022259Y027891D02*
X017596Y027891D01*
X017583Y027814D02*
X022259Y027814D01*
X022259Y027737D02*
X017544Y027737D01*
X017443Y027659D02*
X018955Y027659D01*
X019066Y027659D02*
X022259Y027659D01*
X022259Y027582D02*
X019197Y027582D01*
X019248Y027505D02*
X022259Y027505D01*
X022259Y027428D02*
X019269Y027428D01*
X019268Y027350D02*
X022259Y027350D01*
X022259Y027273D02*
X019236Y027273D01*
X019169Y027196D02*
X022259Y027196D01*
X022259Y027119D02*
X020251Y027119D01*
X020240Y027130D02*
X020145Y027169D01*
X020042Y027169D01*
X019947Y027130D01*
X019874Y027057D01*
X019835Y026962D01*
X019835Y026860D01*
X019874Y026765D01*
X019947Y026692D01*
X020042Y026653D01*
X020145Y026653D01*
X020240Y026692D01*
X020312Y026765D01*
X020351Y026860D01*
X020351Y026962D01*
X020312Y027057D01*
X020240Y027130D01*
X020319Y027042D02*
X022259Y027042D01*
X022259Y026964D02*
X020351Y026964D01*
X020351Y026887D02*
X022259Y026887D01*
X022259Y026810D02*
X020331Y026810D01*
X020280Y026733D02*
X022259Y026733D01*
X022259Y026655D02*
X020150Y026655D01*
X020036Y026655D02*
X016772Y026655D01*
X016769Y026664D02*
X016696Y026736D01*
X016601Y026775D01*
X016499Y026775D01*
X016404Y026736D01*
X016331Y026664D01*
X016292Y026569D01*
X016292Y026466D01*
X016331Y026371D01*
X016404Y026299D01*
X016499Y026259D01*
X016601Y026259D01*
X016696Y026299D01*
X016769Y026371D01*
X016808Y026466D01*
X016808Y026569D01*
X016769Y026664D01*
X016804Y026578D02*
X022259Y026578D01*
X022259Y026501D02*
X016808Y026501D01*
X016791Y026424D02*
X022259Y026424D01*
X022259Y026346D02*
X020230Y026346D01*
X020240Y026342D02*
X020145Y026382D01*
X020042Y026382D01*
X019947Y026342D01*
X019874Y026270D01*
X019835Y026175D01*
X019835Y026072D01*
X019874Y025977D01*
X019947Y025905D01*
X020042Y025866D01*
X020145Y025866D01*
X020240Y025905D01*
X020312Y025977D01*
X020351Y026072D01*
X020351Y026175D01*
X020312Y026270D01*
X020240Y026342D01*
X020312Y026269D02*
X022259Y026269D01*
X022259Y026192D02*
X020344Y026192D01*
X020351Y026115D02*
X022259Y026115D01*
X022259Y026037D02*
X022021Y026037D01*
X022011Y026047D02*
X021916Y026086D01*
X021814Y026086D01*
X021719Y026047D01*
X021646Y025975D01*
X021607Y025880D01*
X021607Y025777D01*
X021646Y025682D01*
X021719Y025610D01*
X021814Y025570D01*
X021916Y025570D01*
X022011Y025610D01*
X022084Y025682D01*
X022123Y025777D01*
X022123Y025880D01*
X022084Y025975D01*
X022011Y026047D01*
X022090Y025960D02*
X022259Y025960D01*
X022259Y025883D02*
X022122Y025883D01*
X022123Y025806D02*
X022259Y025806D01*
X022259Y025728D02*
X022103Y025728D01*
X022053Y025651D02*
X022259Y025651D01*
X022259Y025574D02*
X021925Y025574D01*
X021805Y025574D02*
X014987Y025574D01*
X014997Y025584D02*
X015036Y025679D01*
X015036Y025781D01*
X014997Y025876D01*
X014925Y025949D01*
X014830Y025988D01*
X014727Y025988D01*
X014632Y025949D01*
X014560Y025876D01*
X014520Y025781D01*
X014520Y025679D01*
X014560Y025584D01*
X014632Y025511D01*
X014727Y025472D01*
X014830Y025472D01*
X014925Y025511D01*
X014997Y025584D01*
X015025Y025651D02*
X021677Y025651D01*
X021627Y025728D02*
X015036Y025728D01*
X015026Y025806D02*
X021607Y025806D01*
X021608Y025883D02*
X020187Y025883D01*
X020295Y025960D02*
X021640Y025960D01*
X021709Y026037D02*
X020337Y026037D01*
X020000Y025883D02*
X014990Y025883D01*
X014897Y025960D02*
X019892Y025960D01*
X019850Y026037D02*
X009510Y026037D01*
X009525Y026072D02*
X009485Y025977D01*
X009413Y025905D01*
X009318Y025866D01*
X009215Y025866D01*
X009120Y025905D01*
X009048Y025977D01*
X009008Y026072D01*
X009008Y026175D01*
X009048Y026270D01*
X009120Y026342D01*
X009215Y026382D01*
X009318Y026382D01*
X009413Y026342D01*
X009485Y026270D01*
X009525Y026175D01*
X009525Y026072D01*
X009525Y026115D02*
X019835Y026115D01*
X019842Y026192D02*
X009518Y026192D01*
X009486Y026269D02*
X016475Y026269D01*
X016356Y026346D02*
X009403Y026346D01*
X009130Y026346D02*
X008616Y026346D01*
X008625Y026342D02*
X008530Y026382D01*
X008428Y026382D01*
X008333Y026342D01*
X008260Y026270D01*
X008221Y026175D01*
X008221Y026072D01*
X008260Y025977D01*
X008333Y025905D01*
X008428Y025866D01*
X008530Y025866D01*
X008625Y025905D01*
X008698Y025977D01*
X008737Y026072D01*
X008737Y026175D01*
X008698Y026270D01*
X008625Y026342D01*
X008698Y026269D02*
X009047Y026269D01*
X009015Y026192D02*
X008730Y026192D01*
X008737Y026115D02*
X009008Y026115D01*
X009023Y026037D02*
X008723Y026037D01*
X008681Y025960D02*
X009065Y025960D01*
X009173Y025883D02*
X008573Y025883D01*
X008386Y025883D02*
X004179Y025883D01*
X004179Y025960D02*
X008278Y025960D01*
X008235Y026037D02*
X004180Y026037D01*
X004180Y026115D02*
X008221Y026115D01*
X008228Y026192D02*
X004181Y026192D01*
X004181Y026269D02*
X008260Y026269D01*
X008342Y026346D02*
X004182Y026346D01*
X004182Y026424D02*
X016309Y026424D01*
X016292Y026501D02*
X014143Y026501D01*
X014137Y026495D02*
X014210Y026568D01*
X014249Y026663D01*
X014249Y026766D01*
X014210Y026860D01*
X014137Y026933D01*
X014042Y026972D01*
X013940Y026972D01*
X013845Y026933D01*
X013772Y026860D01*
X013733Y026766D01*
X013733Y026663D01*
X013772Y026568D01*
X013845Y026495D01*
X013940Y026456D01*
X014042Y026456D01*
X014137Y026495D01*
X014214Y026578D02*
X016296Y026578D01*
X016328Y026655D02*
X014246Y026655D01*
X014249Y026733D02*
X016400Y026733D01*
X016700Y026733D02*
X019907Y026733D01*
X019856Y026810D02*
X014231Y026810D01*
X014183Y026887D02*
X019835Y026887D01*
X019836Y026964D02*
X018018Y026964D01*
X018128Y027042D02*
X019868Y027042D01*
X019936Y027119D02*
X018171Y027119D01*
X018186Y027196D02*
X018853Y027196D01*
X018785Y027273D02*
X018180Y027273D01*
X018148Y027350D02*
X018753Y027350D01*
X018753Y027428D02*
X018068Y027428D01*
X017838Y026964D02*
X014062Y026964D01*
X013920Y026964D02*
X013274Y026964D01*
X013255Y026972D02*
X013152Y026972D01*
X013057Y026933D01*
X012985Y026860D01*
X012945Y026766D01*
X012945Y026663D01*
X012985Y026568D01*
X013057Y026495D01*
X013152Y026456D01*
X013255Y026456D01*
X013350Y026495D01*
X013422Y026568D01*
X013462Y026663D01*
X013462Y026766D01*
X013422Y026860D01*
X013350Y026933D01*
X013255Y026972D01*
X013133Y026964D02*
X009524Y026964D01*
X009525Y026887D02*
X013011Y026887D01*
X012964Y026810D02*
X009504Y026810D01*
X009453Y026733D02*
X012945Y026733D01*
X012949Y026655D02*
X009324Y026655D01*
X009209Y026655D02*
X004184Y026655D01*
X004183Y026578D02*
X012981Y026578D01*
X013052Y026501D02*
X004183Y026501D01*
X004184Y026733D02*
X009080Y026733D01*
X009029Y026810D02*
X004184Y026810D01*
X004185Y026887D02*
X009008Y026887D01*
X009009Y026964D02*
X004185Y026964D01*
X004186Y027042D02*
X009041Y027042D01*
X009109Y027119D02*
X004186Y027119D01*
X004178Y025806D02*
X013831Y025806D01*
X013814Y025764D02*
X013814Y025662D01*
X013854Y025567D01*
X013926Y025494D01*
X014021Y025455D01*
X014124Y025455D01*
X014219Y025494D01*
X014291Y025567D01*
X014331Y025662D01*
X014331Y025764D01*
X014291Y025859D01*
X014219Y025932D01*
X014124Y025971D01*
X014021Y025971D01*
X013926Y025932D01*
X013854Y025859D01*
X013814Y025764D01*
X013814Y025728D02*
X004178Y025728D01*
X004177Y025651D02*
X013819Y025651D01*
X013851Y025574D02*
X004177Y025574D01*
X004176Y025497D02*
X013924Y025497D01*
X014221Y025497D02*
X014667Y025497D01*
X014569Y025574D02*
X014294Y025574D01*
X014326Y025651D02*
X014532Y025651D01*
X014520Y025728D02*
X014331Y025728D01*
X014313Y025806D02*
X014530Y025806D01*
X014566Y025883D02*
X014268Y025883D01*
X014150Y025960D02*
X014660Y025960D01*
X014890Y025497D02*
X022259Y025497D01*
X022259Y025419D02*
X004176Y025419D01*
X004409Y025342D02*
X008022Y025342D01*
X008038Y025358D02*
X007965Y025286D01*
X007926Y025191D01*
X007926Y025088D01*
X007965Y024993D01*
X008038Y024921D01*
X008133Y024881D01*
X008235Y024881D01*
X008330Y024921D01*
X008403Y024993D01*
X008442Y025088D01*
X008442Y025191D01*
X008403Y025286D01*
X008330Y025358D01*
X008235Y025397D01*
X008133Y025397D01*
X008038Y025358D01*
X007957Y025265D02*
X004474Y025265D01*
X004505Y025188D02*
X007926Y025188D01*
X007926Y025111D02*
X004505Y025111D01*
X004482Y025033D02*
X007948Y025033D01*
X008002Y024956D02*
X004429Y024956D01*
X004173Y024879D02*
X014577Y024879D01*
X014612Y024864D02*
X014714Y024864D01*
X014809Y024904D01*
X014882Y024976D01*
X014921Y025071D01*
X014921Y025174D01*
X014882Y025269D01*
X014809Y025341D01*
X014714Y025381D01*
X014612Y025381D01*
X014517Y025341D01*
X014444Y025269D01*
X014405Y025174D01*
X014405Y025071D01*
X014444Y024976D01*
X014517Y024904D01*
X014612Y024864D01*
X014749Y024879D02*
X015805Y024879D01*
X015800Y024891D02*
X015839Y024796D01*
X015912Y024724D01*
X016007Y024684D01*
X016109Y024684D01*
X016204Y024724D01*
X016277Y024796D01*
X016292Y024833D01*
X016292Y024793D01*
X016331Y024698D01*
X016404Y024625D01*
X016499Y024586D01*
X016601Y024586D01*
X016696Y024625D01*
X016769Y024698D01*
X016808Y024793D01*
X016808Y024895D01*
X016769Y024990D01*
X016696Y025063D01*
X016601Y025102D01*
X016499Y025102D01*
X016404Y025063D01*
X016331Y024990D01*
X016316Y024954D01*
X016316Y024994D01*
X016277Y025089D01*
X016204Y025161D01*
X016109Y025201D01*
X016007Y025201D01*
X015912Y025161D01*
X015839Y025089D01*
X015800Y024994D01*
X015800Y024891D01*
X015800Y024956D02*
X014862Y024956D01*
X014905Y025033D02*
X015816Y025033D01*
X015861Y025111D02*
X014921Y025111D01*
X014915Y025188D02*
X015975Y025188D01*
X016140Y025188D02*
X022259Y025188D01*
X022259Y025265D02*
X014883Y025265D01*
X014807Y025342D02*
X022259Y025342D01*
X022259Y025111D02*
X016255Y025111D01*
X016300Y025033D02*
X016374Y025033D01*
X016317Y024956D02*
X016316Y024956D01*
X016292Y024802D02*
X016279Y024802D01*
X016320Y024724D02*
X016205Y024724D01*
X016382Y024647D02*
X014352Y024647D01*
X014364Y024617D02*
X014325Y024712D01*
X014252Y024785D01*
X014158Y024824D01*
X014055Y024824D01*
X013960Y024785D01*
X013887Y024712D01*
X013848Y024617D01*
X013848Y024514D01*
X013887Y024419D01*
X013960Y024347D01*
X014055Y024308D01*
X014158Y024308D01*
X014252Y024347D01*
X014325Y024419D01*
X014364Y024514D01*
X014364Y024617D01*
X014364Y024570D02*
X019737Y024570D01*
X019737Y024600D02*
X019737Y024497D01*
X019776Y024403D01*
X019849Y024330D01*
X019944Y024291D01*
X020046Y024291D01*
X020141Y024330D01*
X020214Y024403D01*
X020253Y024497D01*
X020253Y024600D01*
X020214Y024695D01*
X020141Y024768D01*
X020046Y024807D01*
X019944Y024807D01*
X019849Y024768D01*
X019776Y024695D01*
X019737Y024600D01*
X019756Y024647D02*
X016718Y024647D01*
X016780Y024724D02*
X019805Y024724D01*
X019931Y024802D02*
X016808Y024802D01*
X016808Y024879D02*
X022259Y024879D01*
X022259Y024956D02*
X016783Y024956D01*
X016726Y025033D02*
X022259Y025033D01*
X022259Y024802D02*
X020059Y024802D01*
X020184Y024724D02*
X022259Y024724D01*
X022259Y024647D02*
X020234Y024647D01*
X020253Y024570D02*
X022259Y024570D01*
X022259Y024493D02*
X020251Y024493D01*
X020219Y024415D02*
X022259Y024415D01*
X022259Y024338D02*
X020149Y024338D01*
X019841Y024338D02*
X014231Y024338D01*
X014321Y024415D02*
X019771Y024415D01*
X019739Y024493D02*
X014355Y024493D01*
X014313Y024724D02*
X015911Y024724D01*
X015837Y024802D02*
X014211Y024802D01*
X014001Y024802D02*
X004172Y024802D01*
X004172Y024724D02*
X013900Y024724D01*
X013861Y024647D02*
X004171Y024647D01*
X004171Y024570D02*
X013848Y024570D01*
X013857Y024493D02*
X006017Y024493D01*
X005971Y024512D02*
X006066Y024472D01*
X006139Y024400D01*
X006178Y024305D01*
X006178Y024202D01*
X006139Y024107D01*
X006066Y024035D01*
X005971Y023995D01*
X005869Y023995D01*
X005774Y024035D01*
X005701Y024107D01*
X005662Y024202D01*
X005662Y024305D01*
X005701Y024400D01*
X005774Y024472D01*
X005869Y024512D01*
X005971Y024512D01*
X005823Y024493D02*
X004170Y024493D01*
X004170Y024415D02*
X005717Y024415D01*
X005676Y024338D02*
X004169Y024338D01*
X004169Y024261D02*
X005662Y024261D01*
X005670Y024184D02*
X004168Y024184D01*
X004168Y024106D02*
X005702Y024106D01*
X005787Y024029D02*
X004167Y024029D01*
X004167Y023952D02*
X021395Y023952D01*
X021423Y023980D02*
X021351Y023908D01*
X021312Y023813D01*
X021312Y023710D01*
X021351Y023615D01*
X021423Y023543D01*
X021518Y023503D01*
X021621Y023503D01*
X021716Y023543D01*
X021788Y023615D01*
X021828Y023710D01*
X021828Y023813D01*
X021788Y023908D01*
X021716Y023980D01*
X021621Y024020D01*
X021518Y024020D01*
X021423Y023980D01*
X021337Y023875D02*
X019361Y023875D01*
X019354Y023882D02*
X019259Y023921D01*
X019156Y023921D01*
X019061Y023882D01*
X018989Y023809D01*
X018949Y023714D01*
X018949Y023612D01*
X018989Y023517D01*
X019061Y023444D01*
X019156Y023405D01*
X019259Y023405D01*
X019354Y023444D01*
X019426Y023517D01*
X019466Y023612D01*
X019466Y023714D01*
X019426Y023809D01*
X019354Y023882D01*
X019431Y023797D02*
X021312Y023797D01*
X021312Y023720D02*
X019463Y023720D01*
X019466Y023643D02*
X021339Y023643D01*
X021400Y023566D02*
X019447Y023566D01*
X019398Y023488D02*
X022259Y023488D01*
X022259Y023411D02*
X019274Y023411D01*
X019141Y023411D02*
X019034Y023411D01*
X019033Y023415D02*
X018960Y023488D01*
X018865Y023527D01*
X018762Y023527D01*
X018668Y023488D01*
X018595Y023415D01*
X018556Y023321D01*
X018556Y023218D01*
X018595Y023123D01*
X018668Y023050D01*
X018704Y023035D01*
X018664Y023035D01*
X018569Y022996D01*
X018497Y022923D01*
X018457Y022829D01*
X018457Y022740D01*
X018369Y022740D01*
X018344Y022730D01*
X018383Y022824D01*
X018383Y022927D01*
X018344Y023022D01*
X018271Y023094D01*
X018176Y023134D01*
X018073Y023134D01*
X017979Y023094D01*
X017906Y023022D01*
X017867Y022927D01*
X017867Y022824D01*
X017906Y022729D01*
X017979Y022657D01*
X018073Y022617D01*
X018176Y022617D01*
X018201Y022628D01*
X018162Y022533D01*
X018162Y022431D01*
X018201Y022336D01*
X018274Y022263D01*
X018369Y022224D01*
X018471Y022224D01*
X018566Y022263D01*
X018639Y022336D01*
X018678Y022431D01*
X018678Y022519D01*
X018767Y022519D01*
X018862Y022558D01*
X018934Y022631D01*
X018973Y022726D01*
X018973Y022829D01*
X018934Y022923D01*
X018862Y022996D01*
X018825Y023011D01*
X018865Y023011D01*
X018960Y023050D01*
X019033Y023123D01*
X019072Y023218D01*
X019072Y023321D01*
X019033Y023415D01*
X019017Y023488D02*
X018959Y023488D01*
X018968Y023566D02*
X017209Y023566D01*
X017188Y023587D02*
X017093Y023626D01*
X016991Y023626D01*
X016896Y023587D01*
X016823Y023514D01*
X016784Y023419D01*
X016784Y023316D01*
X016823Y023222D01*
X016896Y023149D01*
X016991Y023110D01*
X017093Y023110D01*
X017188Y023149D01*
X017261Y023222D01*
X017300Y023316D01*
X017300Y023419D01*
X017261Y023514D01*
X017188Y023587D01*
X017271Y023488D02*
X018668Y023488D01*
X018593Y023411D02*
X017300Y023411D01*
X017300Y023334D02*
X018561Y023334D01*
X018556Y023257D02*
X017276Y023257D01*
X017219Y023180D02*
X018572Y023180D01*
X018616Y023102D02*
X018252Y023102D01*
X018340Y023025D02*
X018639Y023025D01*
X018521Y022948D02*
X018374Y022948D01*
X018383Y022871D02*
X018475Y022871D01*
X018457Y022793D02*
X018370Y022793D01*
X018174Y022562D02*
X004158Y022562D01*
X004159Y022639D02*
X007687Y022639D01*
X007644Y022657D02*
X007739Y022617D01*
X007841Y022617D01*
X007936Y022657D01*
X008009Y022729D01*
X008048Y022824D01*
X008048Y022927D01*
X008009Y023022D01*
X007936Y023094D01*
X007841Y023134D01*
X007739Y023134D01*
X007644Y023094D01*
X007571Y023022D01*
X007532Y022927D01*
X007532Y022824D01*
X007571Y022729D01*
X007644Y022657D01*
X007585Y022716D02*
X004159Y022716D01*
X004160Y022793D02*
X007545Y022793D01*
X007532Y022871D02*
X004160Y022871D01*
X004161Y022948D02*
X007541Y022948D01*
X007575Y023025D02*
X004161Y023025D01*
X004162Y023102D02*
X007663Y023102D01*
X007917Y023102D02*
X010190Y023102D01*
X010190Y023124D02*
X010190Y023021D01*
X010229Y022926D01*
X010301Y022854D01*
X010396Y022814D01*
X010499Y022814D01*
X010594Y022854D01*
X010666Y022926D01*
X010706Y023021D01*
X010706Y023124D01*
X010666Y023219D01*
X010594Y023291D01*
X010499Y023331D01*
X010396Y023331D01*
X010301Y023291D01*
X010229Y023219D01*
X010190Y023124D01*
X010213Y023180D02*
X004162Y023180D01*
X004163Y023257D02*
X010267Y023257D01*
X010190Y023025D02*
X008006Y023025D01*
X008040Y022948D02*
X010220Y022948D01*
X010285Y022871D02*
X008048Y022871D01*
X008035Y022793D02*
X017880Y022793D01*
X017867Y022871D02*
X010611Y022871D01*
X010675Y022948D02*
X011001Y022948D01*
X010990Y022952D02*
X011085Y022913D01*
X011188Y022913D01*
X011283Y022952D01*
X011355Y023025D01*
X011395Y023120D01*
X011395Y023222D01*
X011355Y023317D01*
X011283Y023390D01*
X011188Y023429D01*
X011085Y023429D01*
X010990Y023390D01*
X010918Y023317D01*
X010879Y023222D01*
X010879Y023120D01*
X010918Y023025D01*
X010706Y023025D01*
X010706Y023102D02*
X010886Y023102D01*
X010879Y023180D02*
X010683Y023180D01*
X010628Y023257D02*
X010893Y023257D01*
X010935Y023334D02*
X004163Y023334D01*
X004163Y023411D02*
X011042Y023411D01*
X011231Y023411D02*
X016784Y023411D01*
X016784Y023334D02*
X011339Y023334D01*
X011380Y023257D02*
X016809Y023257D01*
X016865Y023180D02*
X011395Y023180D01*
X011388Y023102D02*
X017998Y023102D01*
X017909Y023025D02*
X011356Y023025D01*
X011273Y022948D02*
X017875Y022948D01*
X017919Y022716D02*
X007996Y022716D01*
X007893Y022639D02*
X018022Y022639D01*
X018162Y022484D02*
X004158Y022484D01*
X004389Y022407D02*
X005384Y022407D01*
X005380Y022405D02*
X005308Y022333D01*
X005268Y022238D01*
X005268Y022135D01*
X005308Y022040D01*
X005380Y021968D01*
X005475Y021929D01*
X005578Y021929D01*
X005673Y021968D01*
X005745Y022040D01*
X005784Y022135D01*
X005784Y022238D01*
X005745Y022333D01*
X005673Y022405D01*
X005578Y022445D01*
X005475Y022445D01*
X005380Y022405D01*
X005306Y022330D02*
X004467Y022330D01*
X004499Y022253D02*
X005274Y022253D01*
X005268Y022175D02*
X004505Y022175D01*
X004490Y022098D02*
X005284Y022098D01*
X005327Y022021D02*
X004446Y022021D01*
X004335Y021944D02*
X005438Y021944D01*
X005614Y021944D02*
X015548Y021944D01*
X015544Y021939D02*
X015504Y021844D01*
X015504Y021742D01*
X015544Y021647D01*
X015616Y021574D01*
X015682Y021547D01*
X015616Y021520D01*
X015544Y021447D01*
X015504Y021352D01*
X015504Y021249D01*
X015544Y021155D01*
X015616Y021082D01*
X015711Y021043D01*
X015752Y021043D01*
X015715Y021027D01*
X015642Y020955D01*
X015603Y020860D01*
X015603Y020757D01*
X015642Y020662D01*
X015715Y020590D01*
X015810Y020551D01*
X015912Y020551D01*
X016007Y020590D01*
X016080Y020662D01*
X016119Y020757D01*
X016119Y020860D01*
X016080Y020955D01*
X016007Y021027D01*
X015912Y021067D01*
X015872Y021067D01*
X015909Y021082D01*
X015981Y021155D01*
X016021Y021249D01*
X016021Y021352D01*
X015981Y021447D01*
X015909Y021520D01*
X015843Y021547D01*
X015909Y021574D01*
X015981Y021647D01*
X016021Y021742D01*
X016021Y021844D01*
X015981Y021939D01*
X015909Y022012D01*
X015814Y022051D01*
X015711Y022051D01*
X015616Y022012D01*
X015544Y021939D01*
X015514Y021866D02*
X004154Y021866D01*
X004153Y021789D02*
X015504Y021789D01*
X015517Y021712D02*
X004153Y021712D01*
X004353Y021635D02*
X015556Y021635D01*
X015657Y021557D02*
X012766Y021557D01*
X012763Y021559D02*
X012660Y021559D01*
X012565Y021520D01*
X012493Y021447D01*
X012453Y021352D01*
X012453Y021249D01*
X012493Y021155D01*
X012565Y021082D01*
X012660Y021043D01*
X012763Y021043D01*
X012858Y021082D01*
X012930Y021155D01*
X012970Y021249D01*
X012970Y021352D01*
X012930Y021447D01*
X012858Y021520D01*
X012763Y021559D01*
X012657Y021557D02*
X006172Y021557D01*
X006168Y021559D02*
X006066Y021559D01*
X005971Y021520D01*
X005898Y021447D01*
X005859Y021352D01*
X005859Y021249D01*
X005898Y021155D01*
X005971Y021082D01*
X006066Y021043D01*
X006168Y021043D01*
X006263Y021082D01*
X006336Y021155D01*
X006375Y021249D01*
X006375Y021352D01*
X006336Y021447D01*
X006263Y021520D01*
X006168Y021559D01*
X006062Y021557D02*
X004454Y021557D01*
X004493Y021480D02*
X005931Y021480D01*
X005880Y021403D02*
X004505Y021403D01*
X004496Y021326D02*
X005859Y021326D01*
X005859Y021248D02*
X004461Y021248D01*
X004371Y021171D02*
X005891Y021171D01*
X005959Y021094D02*
X004149Y021094D01*
X004149Y021017D02*
X010091Y021017D01*
X010091Y021057D02*
X010091Y020954D01*
X010130Y020859D01*
X010203Y020787D01*
X010298Y020747D01*
X010401Y020747D01*
X010495Y020787D01*
X010568Y020859D01*
X010607Y020954D01*
X010607Y021057D01*
X010568Y021152D01*
X010495Y021224D01*
X010401Y021264D01*
X010298Y021264D01*
X010203Y021224D01*
X010130Y021152D01*
X010091Y021057D01*
X010106Y021094D02*
X006275Y021094D01*
X006343Y021171D02*
X010150Y021171D01*
X010261Y021248D02*
X006375Y021248D01*
X006375Y021326D02*
X012453Y021326D01*
X012454Y021248D02*
X010437Y021248D01*
X010548Y021171D02*
X012486Y021171D01*
X012553Y021094D02*
X010592Y021094D01*
X010607Y021017D02*
X015704Y021017D01*
X015636Y020940D02*
X010601Y020940D01*
X010569Y020862D02*
X015604Y020862D01*
X015603Y020785D02*
X010491Y020785D01*
X010207Y020785D02*
X008826Y020785D01*
X008836Y020762D02*
X008796Y020856D01*
X008724Y020929D01*
X008629Y020968D01*
X008526Y020968D01*
X008431Y020929D01*
X008359Y020856D01*
X008319Y020762D01*
X008319Y020659D01*
X008359Y020564D01*
X008431Y020491D01*
X008526Y020452D01*
X008629Y020452D01*
X008724Y020491D01*
X008796Y020564D01*
X008836Y020659D01*
X008836Y020762D01*
X008836Y020708D02*
X012738Y020708D01*
X012762Y020732D02*
X012689Y020660D01*
X012650Y020565D01*
X012650Y020462D01*
X012689Y020367D01*
X012762Y020295D01*
X012857Y020255D01*
X012960Y020255D01*
X013054Y020295D01*
X013127Y020367D01*
X013166Y020462D01*
X013166Y020565D01*
X013127Y020660D01*
X013054Y020732D01*
X012960Y020771D01*
X012857Y020771D01*
X012762Y020732D01*
X012677Y020631D02*
X008824Y020631D01*
X008786Y020553D02*
X012650Y020553D01*
X012650Y020476D02*
X008687Y020476D01*
X008468Y020476D02*
X006128Y020476D01*
X006165Y020491D02*
X006237Y020564D01*
X006277Y020659D01*
X006277Y020762D01*
X006237Y020856D01*
X006165Y020929D01*
X006070Y020968D01*
X005967Y020968D01*
X005872Y020929D01*
X005800Y020856D01*
X005760Y020762D01*
X005760Y020659D01*
X005800Y020564D01*
X005872Y020491D01*
X005967Y020452D01*
X006070Y020452D01*
X006165Y020491D01*
X006227Y020553D02*
X008369Y020553D01*
X008331Y020631D02*
X006265Y020631D01*
X006277Y020708D02*
X008319Y020708D01*
X008329Y020785D02*
X006267Y020785D01*
X006231Y020862D02*
X008365Y020862D01*
X008457Y020940D02*
X006139Y020940D01*
X005898Y020940D02*
X004148Y020940D01*
X004148Y020862D02*
X005806Y020862D01*
X005770Y020785D02*
X004147Y020785D01*
X004147Y020708D02*
X005760Y020708D01*
X005772Y020631D02*
X004146Y020631D01*
X004146Y020553D02*
X004341Y020553D01*
X004297Y020535D02*
X004225Y020463D01*
X004186Y020368D01*
X004186Y020265D01*
X004225Y020170D01*
X004297Y020098D01*
X004392Y020058D01*
X004495Y020058D01*
X004590Y020098D01*
X004663Y020170D01*
X004702Y020265D01*
X004702Y020368D01*
X004663Y020463D01*
X004590Y020535D01*
X004495Y020575D01*
X004392Y020575D01*
X004297Y020535D01*
X004238Y020476D02*
X004145Y020476D01*
X004145Y020399D02*
X004198Y020399D01*
X004186Y020322D02*
X004144Y020322D01*
X004144Y020244D02*
X004194Y020244D01*
X004228Y020167D02*
X004143Y020167D01*
X004143Y020090D02*
X004316Y020090D01*
X004143Y020013D02*
X014011Y020013D01*
X014042Y020043D02*
X013969Y019971D01*
X013930Y019876D01*
X013930Y019773D01*
X013969Y019678D01*
X014042Y019606D01*
X014136Y019566D01*
X014239Y019566D01*
X014334Y019606D01*
X014407Y019678D01*
X014446Y019773D01*
X014446Y019876D01*
X014407Y019971D01*
X014334Y020043D01*
X014239Y020083D01*
X014136Y020083D01*
X014042Y020043D01*
X013954Y019935D02*
X004142Y019935D01*
X004142Y019858D02*
X013930Y019858D01*
X013930Y019781D02*
X004141Y019781D01*
X004141Y019704D02*
X013958Y019704D01*
X014021Y019626D02*
X004140Y019626D01*
X004140Y019549D02*
X016796Y019549D01*
X016797Y019551D02*
X016725Y019478D01*
X016686Y019384D01*
X016686Y019281D01*
X016725Y019186D01*
X016797Y019113D01*
X016892Y019074D01*
X016995Y019074D01*
X017090Y019113D01*
X017163Y019186D01*
X017202Y019281D01*
X017202Y019384D01*
X017163Y019478D01*
X017090Y019551D01*
X016995Y019590D01*
X016892Y019590D01*
X016797Y019551D01*
X016722Y019472D02*
X004139Y019472D01*
X004139Y019395D02*
X016690Y019395D01*
X016686Y019317D02*
X009745Y019317D01*
X009781Y019282D02*
X009708Y019354D01*
X009613Y019394D01*
X009510Y019394D01*
X009416Y019354D01*
X009343Y019282D01*
X009304Y019187D01*
X009304Y019084D01*
X009343Y018989D01*
X009416Y018917D01*
X009510Y018877D01*
X009613Y018877D01*
X009708Y018917D01*
X009781Y018989D01*
X009820Y019084D01*
X009820Y019187D01*
X009781Y019282D01*
X009798Y019240D02*
X010680Y019240D01*
X010695Y019256D02*
X010623Y019183D01*
X010583Y019088D01*
X010583Y018986D01*
X010623Y018891D01*
X010695Y018818D01*
X010790Y018779D01*
X010893Y018779D01*
X010988Y018818D01*
X011060Y018891D01*
X011099Y018986D01*
X011099Y019088D01*
X011060Y019183D01*
X010988Y019256D01*
X010893Y019295D01*
X010790Y019295D01*
X010695Y019256D01*
X010614Y019163D02*
X009820Y019163D01*
X009820Y019086D02*
X010583Y019086D01*
X010583Y019009D02*
X009789Y019009D01*
X009723Y018931D02*
X010606Y018931D01*
X010659Y018854D02*
X010307Y018854D01*
X010299Y018862D02*
X010204Y018901D01*
X010101Y018901D01*
X010006Y018862D01*
X009934Y018790D01*
X009894Y018695D01*
X009894Y018592D01*
X009934Y018497D01*
X010006Y018424D01*
X010101Y018385D01*
X010204Y018385D01*
X010299Y018424D01*
X010371Y018497D01*
X010410Y018592D01*
X010410Y018695D01*
X010371Y018790D01*
X010299Y018862D01*
X010376Y018777D02*
X017970Y018777D01*
X017965Y018789D02*
X018004Y018694D01*
X018077Y018621D01*
X018172Y018582D01*
X018275Y018582D01*
X018369Y018621D01*
X018442Y018694D01*
X018481Y018789D01*
X018481Y018891D01*
X018442Y018986D01*
X018369Y019059D01*
X018275Y019098D01*
X018172Y019098D01*
X018077Y019059D01*
X018004Y018986D01*
X017965Y018891D01*
X017965Y018789D01*
X017965Y018854D02*
X015649Y018854D01*
X015614Y018818D02*
X015686Y018891D01*
X015725Y018986D01*
X015725Y019088D01*
X015686Y019183D01*
X015614Y019256D01*
X015519Y019295D01*
X015416Y019295D01*
X015321Y019256D01*
X015249Y019183D01*
X015209Y019088D01*
X015209Y018986D01*
X015249Y018891D01*
X015321Y018818D01*
X015416Y018779D01*
X015519Y018779D01*
X015614Y018818D01*
X015703Y018931D02*
X017982Y018931D01*
X018027Y019009D02*
X015725Y019009D01*
X015725Y019086D02*
X016864Y019086D01*
X016748Y019163D02*
X015695Y019163D01*
X015629Y019240D02*
X016702Y019240D01*
X017023Y019086D02*
X018142Y019086D01*
X018305Y019086D02*
X018794Y019086D01*
X018792Y019088D02*
X018864Y019015D01*
X018959Y018976D01*
X019062Y018976D01*
X019157Y019015D01*
X019229Y019088D01*
X019269Y019183D01*
X019269Y019285D01*
X019229Y019380D01*
X019157Y019453D01*
X019062Y019492D01*
X018959Y019492D01*
X018864Y019453D01*
X018792Y019380D01*
X018753Y019285D01*
X018753Y019183D01*
X018792Y019088D01*
X018761Y019163D02*
X017139Y019163D01*
X017185Y019240D02*
X018753Y019240D01*
X018766Y019317D02*
X017202Y019317D01*
X017197Y019395D02*
X018806Y019395D01*
X018911Y019472D02*
X017165Y019472D01*
X017092Y019549D02*
X020200Y019549D01*
X020170Y019580D02*
X020242Y019507D01*
X020337Y019468D01*
X020440Y019468D01*
X020535Y019507D01*
X020607Y019580D01*
X020647Y019675D01*
X020647Y019777D01*
X020607Y019872D01*
X020535Y019945D01*
X020440Y019984D01*
X020337Y019984D01*
X020242Y019945D01*
X020170Y019872D01*
X020130Y019777D01*
X020130Y019675D01*
X020170Y019580D01*
X020150Y019626D02*
X018292Y019626D01*
X018271Y019606D02*
X018344Y019678D01*
X018383Y019773D01*
X018383Y019876D01*
X018344Y019971D01*
X018271Y020043D01*
X018176Y020083D01*
X018073Y020083D01*
X017979Y020043D01*
X017906Y019971D01*
X017867Y019876D01*
X017867Y019773D01*
X017906Y019678D01*
X017979Y019606D01*
X018073Y019566D01*
X018176Y019566D01*
X018271Y019606D01*
X018354Y019704D02*
X020130Y019704D01*
X020132Y019781D02*
X018383Y019781D01*
X018383Y019858D02*
X020164Y019858D01*
X020233Y019935D02*
X018358Y019935D01*
X018302Y020013D02*
X022259Y020013D01*
X022259Y020090D02*
X018744Y020090D01*
X018763Y020098D02*
X018836Y020170D01*
X018875Y020265D01*
X018875Y020368D01*
X018836Y020463D01*
X018763Y020535D01*
X018668Y020575D01*
X018566Y020575D01*
X018471Y020535D01*
X018398Y020463D01*
X018359Y020368D01*
X018359Y020265D01*
X018398Y020170D01*
X018471Y020098D01*
X018566Y020058D01*
X018668Y020058D01*
X018763Y020098D01*
X018833Y020167D02*
X019131Y020167D01*
X019156Y020157D02*
X019259Y020157D01*
X019354Y020196D01*
X019426Y020269D01*
X019466Y020364D01*
X019466Y020466D01*
X019426Y020561D01*
X019354Y020634D01*
X019259Y020673D01*
X019156Y020673D01*
X019061Y020634D01*
X018989Y020561D01*
X018949Y020466D01*
X018949Y020364D01*
X018989Y020269D01*
X019061Y020196D01*
X019156Y020157D01*
X019284Y020167D02*
X022259Y020167D01*
X022259Y020244D02*
X019402Y020244D01*
X019448Y020322D02*
X022259Y020322D01*
X022259Y020399D02*
X019466Y020399D01*
X019462Y020476D02*
X022259Y020476D01*
X022259Y020553D02*
X019430Y020553D01*
X019357Y020631D02*
X022259Y020631D01*
X022259Y020708D02*
X016099Y020708D01*
X016119Y020785D02*
X022259Y020785D01*
X022259Y020862D02*
X019692Y020862D01*
X019653Y020846D02*
X019747Y020885D01*
X019820Y020958D01*
X019859Y021053D01*
X019859Y021155D01*
X019820Y021250D01*
X019747Y021323D01*
X019682Y021350D01*
X019747Y021377D01*
X019820Y021450D01*
X019859Y021545D01*
X019859Y021647D01*
X019820Y021742D01*
X019747Y021815D01*
X019653Y021854D01*
X019550Y021854D01*
X019455Y021815D01*
X019382Y021742D01*
X019343Y021647D01*
X019343Y021545D01*
X019382Y021450D01*
X019455Y021377D01*
X019521Y021350D01*
X019455Y021323D01*
X019382Y021250D01*
X019343Y021155D01*
X019343Y021053D01*
X019382Y020958D01*
X019455Y020885D01*
X019550Y020846D01*
X019653Y020846D01*
X019510Y020862D02*
X016118Y020862D01*
X016086Y020940D02*
X019401Y020940D01*
X019358Y021017D02*
X016018Y021017D01*
X015921Y021094D02*
X017868Y021094D01*
X017880Y021082D02*
X017975Y021043D01*
X018078Y021043D01*
X018173Y021082D01*
X018245Y021155D01*
X018284Y021249D01*
X018284Y021248D02*
X019382Y021248D01*
X019350Y021171D02*
X018252Y021171D01*
X018284Y021249D02*
X018284Y021352D01*
X018245Y021447D01*
X018173Y021520D01*
X018078Y021559D01*
X017975Y021559D01*
X017880Y021520D01*
X017808Y021447D01*
X017768Y021352D01*
X017768Y021249D01*
X017808Y021155D01*
X017880Y021082D01*
X017801Y021171D02*
X015988Y021171D01*
X016020Y021248D02*
X017769Y021248D01*
X017768Y021326D02*
X016021Y021326D01*
X016000Y021403D02*
X017789Y021403D01*
X017841Y021480D02*
X015948Y021480D01*
X015869Y021557D02*
X017972Y021557D01*
X018081Y021557D02*
X019343Y021557D01*
X019343Y021635D02*
X015969Y021635D01*
X016008Y021712D02*
X019370Y021712D01*
X019429Y021789D02*
X016021Y021789D01*
X016012Y021866D02*
X022259Y021866D01*
X022259Y021789D02*
X019773Y021789D01*
X019833Y021712D02*
X022259Y021712D01*
X022259Y021635D02*
X019859Y021635D01*
X019859Y021557D02*
X022259Y021557D01*
X022259Y021480D02*
X019833Y021480D01*
X019773Y021403D02*
X022259Y021403D01*
X022259Y021326D02*
X019740Y021326D01*
X019821Y021248D02*
X022259Y021248D01*
X022259Y021171D02*
X019853Y021171D01*
X019859Y021094D02*
X022259Y021094D01*
X022259Y021017D02*
X019844Y021017D01*
X019802Y020940D02*
X022259Y020940D01*
X022259Y019935D02*
X020544Y019935D01*
X020613Y019858D02*
X022259Y019858D01*
X022259Y019781D02*
X020645Y019781D01*
X020647Y019704D02*
X022259Y019704D01*
X022259Y019626D02*
X020627Y019626D01*
X020577Y019549D02*
X022259Y019549D01*
X022259Y019472D02*
X021472Y019472D01*
X021519Y019453D02*
X021424Y019492D01*
X021321Y019492D01*
X021227Y019453D01*
X021154Y019380D01*
X021115Y019285D01*
X021115Y019183D01*
X021154Y019088D01*
X021227Y019015D01*
X021321Y018976D01*
X021424Y018976D01*
X021519Y019015D01*
X021592Y019088D01*
X021631Y019183D01*
X021631Y019285D01*
X021592Y019380D01*
X021519Y019453D01*
X021577Y019395D02*
X022259Y019395D01*
X022259Y019317D02*
X021618Y019317D01*
X021631Y019240D02*
X022259Y019240D01*
X022259Y019163D02*
X021623Y019163D01*
X021590Y019086D02*
X022259Y019086D01*
X022259Y019009D02*
X021503Y019009D01*
X021242Y019009D02*
X019141Y019009D01*
X019228Y019086D02*
X021156Y019086D01*
X021123Y019163D02*
X019261Y019163D01*
X019269Y019240D02*
X021115Y019240D01*
X021128Y019317D02*
X019255Y019317D01*
X019215Y019395D02*
X021169Y019395D01*
X021273Y019472D02*
X020450Y019472D01*
X020327Y019472D02*
X019110Y019472D01*
X018880Y019009D02*
X018420Y019009D01*
X018465Y018931D02*
X022259Y018931D01*
X022259Y018854D02*
X018481Y018854D01*
X018476Y018777D02*
X022259Y018777D01*
X022259Y018700D02*
X021436Y018700D01*
X021424Y018705D02*
X021321Y018705D01*
X021227Y018665D01*
X021154Y018593D01*
X021115Y018498D01*
X021115Y018395D01*
X021154Y018300D01*
X021227Y018228D01*
X021321Y018188D01*
X021424Y018188D01*
X021519Y018228D01*
X021592Y018300D01*
X021631Y018395D01*
X021631Y018498D01*
X021592Y018593D01*
X021519Y018665D01*
X021424Y018705D01*
X021309Y018700D02*
X020157Y018700D01*
X020145Y018705D02*
X020042Y018705D01*
X019947Y018665D01*
X019874Y018593D01*
X019835Y018498D01*
X019835Y018395D01*
X019874Y018300D01*
X019947Y018228D01*
X020042Y018188D01*
X020145Y018188D01*
X020240Y018228D01*
X020312Y018300D01*
X020351Y018395D01*
X020351Y018498D01*
X020312Y018593D01*
X020240Y018665D01*
X020145Y018705D01*
X020030Y018700D02*
X019369Y018700D01*
X019357Y018705D02*
X019255Y018705D01*
X019160Y018665D01*
X019087Y018593D01*
X019048Y018498D01*
X019048Y018395D01*
X019087Y018300D01*
X019160Y018228D01*
X019255Y018188D01*
X019357Y018188D01*
X019452Y018228D01*
X019525Y018300D01*
X019564Y018395D01*
X019564Y018498D01*
X019525Y018593D01*
X019452Y018665D01*
X019357Y018705D01*
X019242Y018700D02*
X018444Y018700D01*
X018370Y018622D02*
X019117Y018622D01*
X019067Y018545D02*
X010391Y018545D01*
X010410Y018622D02*
X018076Y018622D01*
X018002Y018700D02*
X010408Y018700D01*
X010342Y018468D02*
X019048Y018468D01*
X019050Y018391D02*
X010217Y018391D01*
X010088Y018391D02*
X004133Y018391D01*
X004133Y018468D02*
X009963Y018468D01*
X009914Y018545D02*
X004133Y018545D01*
X004134Y018622D02*
X009894Y018622D01*
X009896Y018700D02*
X004134Y018700D01*
X004135Y018777D02*
X009928Y018777D01*
X009998Y018854D02*
X004135Y018854D01*
X004136Y018931D02*
X009401Y018931D01*
X009335Y019009D02*
X004136Y019009D01*
X004137Y019086D02*
X009304Y019086D01*
X009304Y019163D02*
X004137Y019163D01*
X004138Y019240D02*
X009326Y019240D01*
X009379Y019317D02*
X004138Y019317D01*
X004571Y020090D02*
X018490Y020090D01*
X018401Y020167D02*
X014559Y020167D01*
X014534Y020157D02*
X014629Y020196D01*
X014702Y020269D01*
X014741Y020364D01*
X014741Y020466D01*
X014702Y020561D01*
X014629Y020634D01*
X014534Y020673D01*
X014432Y020673D01*
X014337Y020634D01*
X014264Y020561D01*
X014225Y020466D01*
X014225Y020364D01*
X014264Y020269D01*
X014337Y020196D01*
X014432Y020157D01*
X014534Y020157D01*
X014407Y020167D02*
X004659Y020167D01*
X004693Y020244D02*
X014289Y020244D01*
X014242Y020322D02*
X013082Y020322D01*
X013140Y020399D02*
X014225Y020399D01*
X014229Y020476D02*
X013166Y020476D01*
X013166Y020553D02*
X014261Y020553D01*
X014334Y020631D02*
X013139Y020631D01*
X013079Y020708D02*
X015623Y020708D01*
X015674Y020631D02*
X014632Y020631D01*
X014705Y020553D02*
X015803Y020553D01*
X015919Y020553D02*
X018514Y020553D01*
X018411Y020476D02*
X014737Y020476D01*
X014741Y020399D02*
X018372Y020399D01*
X018359Y020322D02*
X014724Y020322D01*
X014678Y020244D02*
X018367Y020244D01*
X018720Y020553D02*
X018985Y020553D01*
X018953Y020476D02*
X018822Y020476D01*
X018862Y020399D02*
X018949Y020399D01*
X018967Y020322D02*
X018875Y020322D01*
X018866Y020244D02*
X019013Y020244D01*
X019058Y020631D02*
X016048Y020631D01*
X015814Y020083D02*
X015711Y020083D01*
X015616Y020043D01*
X015544Y019971D01*
X015504Y019876D01*
X015504Y019773D01*
X015544Y019678D01*
X015616Y019606D01*
X015711Y019566D01*
X015814Y019566D01*
X015909Y019606D01*
X015981Y019678D01*
X016021Y019773D01*
X016021Y019876D01*
X015981Y019971D01*
X015909Y020043D01*
X015814Y020083D01*
X015939Y020013D02*
X017948Y020013D01*
X017891Y019935D02*
X015996Y019935D01*
X016021Y019858D02*
X017867Y019858D01*
X017867Y019781D02*
X016021Y019781D01*
X015992Y019704D02*
X017895Y019704D01*
X017958Y019626D02*
X015930Y019626D01*
X015596Y019626D02*
X014355Y019626D01*
X014417Y019704D02*
X015533Y019704D01*
X015504Y019781D02*
X014446Y019781D01*
X014446Y019858D02*
X015504Y019858D01*
X015529Y019935D02*
X014421Y019935D01*
X014365Y020013D02*
X015586Y020013D01*
X015306Y019240D02*
X014350Y019240D01*
X014334Y019256D02*
X014239Y019295D01*
X014136Y019295D01*
X014042Y019256D01*
X013969Y019183D01*
X013930Y019088D01*
X013930Y018986D01*
X013969Y018891D01*
X014042Y018818D01*
X014136Y018779D01*
X014239Y018779D01*
X014334Y018818D01*
X014407Y018891D01*
X014446Y018986D01*
X014446Y019088D01*
X014407Y019183D01*
X014334Y019256D01*
X014415Y019163D02*
X015240Y019163D01*
X015209Y019086D02*
X014446Y019086D01*
X014446Y019009D02*
X015209Y019009D01*
X015232Y018931D02*
X014423Y018931D01*
X014370Y018854D02*
X015285Y018854D01*
X016626Y018002D02*
X016587Y017907D01*
X016587Y017805D01*
X016626Y017710D01*
X016699Y017637D01*
X016794Y017598D01*
X016897Y017598D01*
X016991Y017637D01*
X017064Y017710D01*
X017103Y017805D01*
X017103Y017907D01*
X017064Y018002D01*
X016991Y018075D01*
X016897Y018114D01*
X016794Y018114D01*
X016699Y018075D01*
X016626Y018002D01*
X016629Y018004D02*
X012871Y018004D01*
X012871Y018001D02*
X012832Y017907D01*
X012759Y017834D01*
X012664Y017795D01*
X012562Y017795D01*
X012467Y017834D01*
X012394Y017907D01*
X012355Y018001D01*
X012355Y018104D01*
X012394Y018199D01*
X012467Y018272D01*
X012562Y018311D01*
X012664Y018311D01*
X012759Y018272D01*
X012832Y018199D01*
X012871Y018104D01*
X012871Y018001D01*
X012840Y017927D02*
X016595Y017927D01*
X016587Y017850D02*
X012775Y017850D01*
X012635Y017707D02*
X012562Y017779D01*
X012467Y017819D01*
X012365Y017819D01*
X012270Y017779D01*
X012197Y017707D01*
X012158Y017612D01*
X012158Y017509D01*
X012197Y017414D01*
X012270Y017342D01*
X012365Y017303D01*
X012467Y017303D01*
X012562Y017342D01*
X012635Y017414D01*
X012674Y017509D01*
X012674Y017612D01*
X012635Y017707D01*
X012640Y017695D02*
X016641Y017695D01*
X016600Y017773D02*
X012569Y017773D01*
X012451Y017850D02*
X004323Y017850D01*
X004381Y017773D02*
X012263Y017773D01*
X012193Y017695D02*
X004407Y017695D01*
X004407Y017618D02*
X012161Y017618D01*
X012158Y017541D02*
X004379Y017541D01*
X004318Y017464D02*
X008706Y017464D01*
X008727Y017484D02*
X008654Y017412D01*
X008615Y017317D01*
X008615Y017214D01*
X008654Y017119D01*
X008727Y017047D01*
X008821Y017007D01*
X008924Y017007D01*
X009019Y017047D01*
X009092Y017119D01*
X009131Y017214D01*
X009131Y017317D01*
X009092Y017412D01*
X009019Y017484D01*
X008924Y017523D01*
X008821Y017523D01*
X008727Y017484D01*
X008644Y017386D02*
X004293Y017386D01*
X004369Y017309D02*
X008615Y017309D01*
X008615Y017232D02*
X004401Y017232D01*
X004407Y017155D02*
X008639Y017155D01*
X008696Y017078D02*
X004391Y017078D01*
X004347Y017000D02*
X014258Y017000D01*
X014238Y016992D02*
X014166Y016919D01*
X014127Y016825D01*
X014127Y016722D01*
X014166Y016627D01*
X014238Y016554D01*
X014333Y016515D01*
X014436Y016515D01*
X014531Y016554D01*
X014603Y016627D01*
X014643Y016722D01*
X014643Y016825D01*
X014603Y016919D01*
X014531Y016992D01*
X014436Y017031D01*
X014333Y017031D01*
X014238Y016992D01*
X014169Y016923D02*
X012688Y016923D01*
X012664Y016933D02*
X012562Y016933D01*
X012467Y016894D01*
X012394Y016821D01*
X012355Y016726D01*
X012355Y016623D01*
X012394Y016529D01*
X012467Y016456D01*
X012562Y016417D01*
X012664Y016417D01*
X012759Y016456D01*
X012832Y016529D01*
X012871Y016623D01*
X012871Y016726D01*
X012832Y016821D01*
X012759Y016894D01*
X012664Y016933D01*
X012538Y016923D02*
X004234Y016923D01*
X004123Y016846D02*
X012419Y016846D01*
X012372Y016769D02*
X005699Y016769D01*
X005673Y016795D02*
X005578Y016834D01*
X005475Y016834D01*
X005380Y016795D01*
X005308Y016723D01*
X005268Y016628D01*
X005268Y016525D01*
X005308Y016430D01*
X005380Y016358D01*
X005475Y016318D01*
X005578Y016318D01*
X005673Y016358D01*
X005745Y016430D01*
X005784Y016525D01*
X005784Y016628D01*
X005745Y016723D01*
X005673Y016795D01*
X005758Y016691D02*
X012355Y016691D01*
X012359Y016614D02*
X005784Y016614D01*
X005784Y016537D02*
X012391Y016537D01*
X012463Y016460D02*
X005757Y016460D01*
X005697Y016382D02*
X019036Y016382D01*
X019061Y016358D02*
X019156Y016318D01*
X019259Y016318D01*
X019354Y016358D01*
X019426Y016430D01*
X019466Y016525D01*
X019466Y016628D01*
X019426Y016723D01*
X019354Y016795D01*
X019259Y016834D01*
X019156Y016834D01*
X019061Y016795D01*
X018989Y016723D01*
X018949Y016628D01*
X018949Y016525D01*
X018989Y016430D01*
X019061Y016358D01*
X018976Y016460D02*
X017881Y016460D01*
X017877Y016456D02*
X017950Y016529D01*
X017989Y016623D01*
X017989Y016726D01*
X017950Y016821D01*
X017877Y016894D01*
X017782Y016933D01*
X017694Y016933D01*
X017694Y017021D01*
X017655Y017116D01*
X017582Y017189D01*
X017487Y017228D01*
X017462Y017228D01*
X017497Y017312D01*
X017497Y017415D01*
X017458Y017510D01*
X017385Y017583D01*
X017290Y017622D01*
X017188Y017622D01*
X017093Y017583D01*
X017020Y017510D01*
X016981Y017415D01*
X016981Y017312D01*
X017020Y017218D01*
X017093Y017145D01*
X017188Y017106D01*
X017213Y017106D01*
X017178Y017021D01*
X017178Y016919D01*
X017217Y016824D01*
X017290Y016751D01*
X017384Y016712D01*
X017473Y016712D01*
X017473Y016623D01*
X017512Y016529D01*
X017585Y016456D01*
X017680Y016417D01*
X017782Y016417D01*
X017877Y016456D01*
X017953Y016537D02*
X018949Y016537D01*
X018949Y016614D02*
X017985Y016614D01*
X017989Y016691D02*
X018976Y016691D01*
X019035Y016769D02*
X017972Y016769D01*
X017925Y016846D02*
X019563Y016846D01*
X019553Y016850D02*
X019648Y016810D01*
X019751Y016810D01*
X019846Y016850D01*
X019918Y016922D01*
X019958Y017017D01*
X019958Y017120D01*
X019918Y017215D01*
X019846Y017287D01*
X019751Y017327D01*
X019648Y017327D01*
X019553Y017287D01*
X019481Y017215D01*
X019441Y017120D01*
X019441Y017017D01*
X019481Y016922D01*
X019553Y016850D01*
X019480Y016923D02*
X017806Y016923D01*
X017694Y017000D02*
X019448Y017000D01*
X019441Y017078D02*
X017671Y017078D01*
X017616Y017155D02*
X019456Y017155D01*
X019498Y017232D02*
X017464Y017232D01*
X017496Y017309D02*
X019606Y017309D01*
X019793Y017309D02*
X020591Y017309D01*
X020633Y017327D02*
X020538Y017287D01*
X020465Y017215D01*
X020426Y017120D01*
X020426Y017017D01*
X020465Y016922D01*
X020538Y016850D01*
X020633Y016810D01*
X020735Y016810D01*
X020830Y016850D01*
X020903Y016922D01*
X020942Y017017D01*
X020942Y017120D01*
X020903Y017215D01*
X020830Y017287D01*
X020735Y017327D01*
X020633Y017327D01*
X020777Y017309D02*
X022259Y017309D01*
X022259Y017232D02*
X020885Y017232D01*
X020928Y017155D02*
X022259Y017155D01*
X022259Y017078D02*
X020942Y017078D01*
X020935Y017000D02*
X021247Y017000D01*
X021227Y016992D02*
X021154Y016919D01*
X021115Y016825D01*
X021115Y016722D01*
X021154Y016627D01*
X021227Y016554D01*
X021321Y016515D01*
X021424Y016515D01*
X021519Y016554D01*
X021592Y016627D01*
X021631Y016722D01*
X021631Y016825D01*
X021592Y016919D01*
X021519Y016992D01*
X021424Y017031D01*
X021321Y017031D01*
X021227Y016992D01*
X021158Y016923D02*
X020903Y016923D01*
X020821Y016846D02*
X021124Y016846D01*
X021115Y016769D02*
X019380Y016769D01*
X019439Y016691D02*
X019942Y016691D01*
X019947Y016697D02*
X019874Y016624D01*
X019835Y016529D01*
X019835Y016427D01*
X019874Y016332D01*
X019947Y016259D01*
X020042Y016220D01*
X020145Y016220D01*
X020240Y016259D01*
X020312Y016332D01*
X020351Y016427D01*
X020351Y016529D01*
X020312Y016624D01*
X020240Y016697D01*
X020145Y016736D01*
X020042Y016736D01*
X019947Y016697D01*
X019870Y016614D02*
X019466Y016614D01*
X019466Y016537D02*
X019838Y016537D01*
X019835Y016460D02*
X019438Y016460D01*
X019378Y016382D02*
X019854Y016382D01*
X019901Y016305D02*
X011475Y016305D01*
X011480Y016303D02*
X011385Y016342D01*
X011282Y016342D01*
X011187Y016303D01*
X011115Y016230D01*
X011075Y016136D01*
X011075Y016033D01*
X011115Y015938D01*
X011187Y015865D01*
X011282Y015826D01*
X011385Y015826D01*
X011480Y015865D01*
X011552Y015938D01*
X011592Y016033D01*
X011592Y016136D01*
X011552Y016230D01*
X011480Y016303D01*
X011553Y016228D02*
X020023Y016228D01*
X020164Y016228D02*
X022259Y016228D01*
X022259Y016305D02*
X020285Y016305D01*
X020333Y016382D02*
X022259Y016382D01*
X022259Y016460D02*
X020351Y016460D01*
X020348Y016537D02*
X021269Y016537D01*
X021167Y016614D02*
X020316Y016614D01*
X020245Y016691D02*
X021127Y016691D01*
X021477Y016537D02*
X022259Y016537D01*
X022259Y016614D02*
X021579Y016614D01*
X021618Y016691D02*
X022259Y016691D01*
X022259Y016769D02*
X021631Y016769D01*
X021622Y016846D02*
X022259Y016846D01*
X022259Y016923D02*
X021588Y016923D01*
X021499Y017000D02*
X022259Y017000D01*
X022259Y017386D02*
X017497Y017386D01*
X017477Y017464D02*
X018841Y017464D01*
X018864Y017440D02*
X018959Y017401D01*
X019062Y017401D01*
X019157Y017440D01*
X019229Y017513D01*
X019269Y017608D01*
X019269Y017710D01*
X019229Y017805D01*
X019157Y017878D01*
X019062Y017917D01*
X018959Y017917D01*
X018864Y017878D01*
X018792Y017805D01*
X018753Y017710D01*
X018753Y017608D01*
X018792Y017513D01*
X018864Y017440D01*
X018780Y017541D02*
X017427Y017541D01*
X017299Y017618D02*
X018753Y017618D01*
X018753Y017695D02*
X017050Y017695D01*
X017090Y017773D02*
X018778Y017773D01*
X018836Y017850D02*
X017103Y017850D01*
X017095Y017927D02*
X022259Y017927D01*
X022259Y017850D02*
X019185Y017850D01*
X019243Y017773D02*
X022259Y017773D01*
X022259Y017695D02*
X019269Y017695D01*
X019269Y017618D02*
X022259Y017618D01*
X022259Y017541D02*
X019241Y017541D01*
X019180Y017464D02*
X022259Y017464D01*
X022259Y018004D02*
X017062Y018004D01*
X016975Y018082D02*
X022259Y018082D01*
X022259Y018159D02*
X012848Y018159D01*
X012871Y018082D02*
X016716Y018082D01*
X016745Y017618D02*
X012672Y017618D01*
X012674Y017541D02*
X017051Y017541D01*
X017001Y017464D02*
X012655Y017464D01*
X012607Y017386D02*
X016981Y017386D01*
X016982Y017309D02*
X012484Y017309D01*
X012349Y017309D02*
X009131Y017309D01*
X009131Y017232D02*
X017014Y017232D01*
X017083Y017155D02*
X009106Y017155D01*
X009050Y017078D02*
X017201Y017078D01*
X017178Y017000D02*
X015791Y017000D01*
X015810Y016992D02*
X015716Y017031D01*
X015613Y017031D01*
X015518Y016992D01*
X015445Y016919D01*
X015406Y016825D01*
X015406Y016722D01*
X015445Y016627D01*
X015518Y016554D01*
X015613Y016515D01*
X015716Y016515D01*
X015810Y016554D01*
X015883Y016627D01*
X015922Y016722D01*
X015922Y016825D01*
X015883Y016919D01*
X015810Y016992D01*
X015879Y016923D02*
X017178Y016923D01*
X017208Y016846D02*
X015913Y016846D01*
X015922Y016769D02*
X017272Y016769D01*
X017473Y016691D02*
X015910Y016691D01*
X015870Y016614D02*
X017477Y016614D01*
X017509Y016537D02*
X015768Y016537D01*
X015560Y016537D02*
X014488Y016537D01*
X014591Y016614D02*
X015458Y016614D01*
X015419Y016691D02*
X014630Y016691D01*
X014643Y016769D02*
X015406Y016769D01*
X015415Y016846D02*
X014634Y016846D01*
X014600Y016923D02*
X015449Y016923D01*
X015538Y017000D02*
X014511Y017000D01*
X014135Y016846D02*
X012807Y016846D01*
X012854Y016769D02*
X014127Y016769D01*
X014139Y016691D02*
X012871Y016691D01*
X012867Y016614D02*
X014179Y016614D01*
X014281Y016537D02*
X012835Y016537D01*
X012763Y016460D02*
X017581Y016460D01*
X018497Y016034D02*
X018457Y015939D01*
X018457Y015836D01*
X018497Y015741D01*
X018569Y015669D01*
X018664Y015629D01*
X018767Y015629D01*
X018862Y015669D01*
X018934Y015741D01*
X018973Y015836D01*
X018973Y015939D01*
X018934Y016034D01*
X018862Y016106D01*
X018767Y016146D01*
X018664Y016146D01*
X018569Y016106D01*
X018497Y016034D01*
X018481Y015996D02*
X012158Y015996D01*
X012143Y016034D02*
X012070Y016106D01*
X011975Y016146D01*
X011873Y016146D01*
X011778Y016106D01*
X011705Y016034D01*
X011666Y015939D01*
X011666Y015836D01*
X011705Y015741D01*
X011778Y015669D01*
X011873Y015629D01*
X011975Y015629D01*
X012070Y015669D01*
X012143Y015741D01*
X012182Y015836D01*
X012182Y015939D01*
X012143Y016034D01*
X012103Y016073D02*
X018536Y016073D01*
X018457Y015919D02*
X012182Y015919D01*
X012182Y015842D02*
X018457Y015842D01*
X018487Y015764D02*
X012152Y015764D01*
X012089Y015687D02*
X018551Y015687D01*
X018880Y015687D02*
X021595Y015687D01*
X021535Y015610D02*
X006769Y015610D01*
X006769Y015643D02*
X006729Y015738D01*
X006657Y015811D01*
X006562Y015850D01*
X006459Y015850D01*
X006364Y015811D01*
X006292Y015738D01*
X006253Y015643D01*
X006253Y015541D01*
X006292Y015446D01*
X006364Y015373D01*
X006459Y015334D01*
X006562Y015334D01*
X006657Y015373D01*
X006729Y015446D01*
X006769Y015541D01*
X006769Y015643D01*
X006751Y015687D02*
X011759Y015687D01*
X011696Y015764D02*
X006703Y015764D01*
X006583Y015842D02*
X011245Y015842D01*
X011134Y015919D02*
X004117Y015919D01*
X004118Y015996D02*
X011091Y015996D01*
X011075Y016073D02*
X004118Y016073D01*
X004119Y016151D02*
X011082Y016151D01*
X011114Y016228D02*
X004119Y016228D01*
X004120Y016305D02*
X011192Y016305D01*
X011585Y016151D02*
X022259Y016151D01*
X022259Y016073D02*
X018894Y016073D01*
X018950Y015996D02*
X022259Y015996D01*
X022259Y015919D02*
X018973Y015919D01*
X018973Y015842D02*
X022259Y015842D01*
X022259Y015764D02*
X018944Y015764D01*
X019836Y016846D02*
X020547Y016846D01*
X020465Y016923D02*
X019919Y016923D01*
X019951Y017000D02*
X020433Y017000D01*
X020426Y017078D02*
X019958Y017078D01*
X019943Y017155D02*
X020440Y017155D01*
X020482Y017232D02*
X019901Y017232D01*
X019939Y018236D02*
X019461Y018236D01*
X019530Y018313D02*
X019869Y018313D01*
X019837Y018391D02*
X019562Y018391D01*
X019564Y018468D02*
X019835Y018468D01*
X019855Y018545D02*
X019544Y018545D01*
X019495Y018622D02*
X019904Y018622D01*
X020282Y018622D02*
X021184Y018622D01*
X021134Y018545D02*
X020332Y018545D01*
X020351Y018468D02*
X021115Y018468D01*
X021117Y018391D02*
X020350Y018391D01*
X020318Y018313D02*
X021149Y018313D01*
X021218Y018236D02*
X020248Y018236D01*
X019151Y018236D02*
X012795Y018236D01*
X012431Y018236D02*
X004132Y018236D01*
X004131Y018159D02*
X012378Y018159D01*
X012355Y018082D02*
X004131Y018082D01*
X004130Y018004D02*
X012355Y018004D01*
X012386Y017927D02*
X004130Y017927D01*
X004132Y018313D02*
X019082Y018313D01*
X017179Y017618D02*
X016946Y017618D01*
X014006Y018854D02*
X011023Y018854D01*
X011077Y018931D02*
X013952Y018931D01*
X013930Y019009D02*
X011099Y019009D01*
X011099Y019086D02*
X013930Y019086D01*
X013961Y019163D02*
X011069Y019163D01*
X011003Y019240D02*
X014026Y019240D01*
X012735Y020322D02*
X004702Y020322D01*
X004689Y020399D02*
X012676Y020399D01*
X012870Y021094D02*
X015604Y021094D01*
X015537Y021171D02*
X012937Y021171D01*
X012969Y021248D02*
X015505Y021248D01*
X015504Y021326D02*
X012970Y021326D01*
X012948Y021403D02*
X015526Y021403D01*
X015577Y021480D02*
X012897Y021480D01*
X012526Y021480D02*
X006303Y021480D01*
X006354Y021403D02*
X012474Y021403D01*
X010990Y022952D02*
X010918Y023025D01*
X010097Y020940D02*
X008698Y020940D01*
X008791Y020862D02*
X010129Y020862D01*
X009039Y017464D02*
X012177Y017464D01*
X012225Y017386D02*
X009102Y017386D01*
X011422Y015842D02*
X011666Y015842D01*
X011666Y015919D02*
X011533Y015919D01*
X011576Y015996D02*
X011690Y015996D01*
X011745Y016073D02*
X011592Y016073D01*
X010397Y014335D02*
X010302Y014374D01*
X010199Y014374D01*
X010105Y014335D01*
X010032Y014262D01*
X009993Y014167D01*
X009993Y014064D01*
X010032Y013970D01*
X010105Y013897D01*
X010141Y013882D01*
X010101Y013882D01*
X010006Y013842D01*
X009934Y013770D01*
X009894Y013675D01*
X009894Y013572D01*
X009934Y013477D01*
X009984Y013427D01*
X009934Y013376D01*
X009894Y013281D01*
X009894Y013179D01*
X009934Y013084D01*
X009984Y013033D01*
X009934Y012982D01*
X009894Y012888D01*
X009894Y012785D01*
X009934Y012690D01*
X010006Y012617D01*
X010045Y012601D01*
X010032Y012589D01*
X009993Y012494D01*
X009993Y012391D01*
X010032Y012296D01*
X010105Y012224D01*
X010199Y012184D01*
X010302Y012184D01*
X010397Y012224D01*
X010410Y012236D01*
X010426Y012198D01*
X010498Y012125D01*
X010593Y012086D01*
X010696Y012086D01*
X010791Y012125D01*
X010863Y012198D01*
X010903Y012293D01*
X010903Y012395D01*
X010863Y012490D01*
X010791Y012563D01*
X010696Y012602D01*
X010593Y012602D01*
X010498Y012563D01*
X010486Y012550D01*
X010470Y012589D01*
X010397Y012661D01*
X010358Y012677D01*
X010371Y012690D01*
X010410Y012785D01*
X010410Y012888D01*
X010371Y012982D01*
X010321Y013033D01*
X010371Y013084D01*
X010410Y013179D01*
X010410Y013281D01*
X010371Y013376D01*
X010321Y013427D01*
X010371Y013477D01*
X010410Y013572D01*
X010410Y013675D01*
X010371Y013770D01*
X010299Y013842D01*
X010262Y013858D01*
X010302Y013858D01*
X010397Y013897D01*
X010470Y013970D01*
X010509Y014064D01*
X010509Y014167D01*
X010470Y014262D01*
X010397Y014335D01*
X010435Y014297D02*
X013582Y014297D01*
X013505Y014220D02*
X010487Y014220D01*
X010509Y014142D02*
X012576Y014142D01*
X012565Y014138D02*
X012493Y014065D01*
X010509Y014065D01*
X010477Y013988D02*
X012461Y013988D01*
X012453Y013970D02*
X012453Y013868D01*
X012493Y013773D01*
X012565Y013700D01*
X012660Y013661D01*
X012763Y013661D01*
X012858Y013700D01*
X012930Y013773D01*
X012970Y013868D01*
X012970Y013970D01*
X012930Y014065D01*
X013360Y014065D01*
X013360Y013988D02*
X012962Y013988D01*
X012970Y013911D02*
X013360Y013911D01*
X013360Y013833D02*
X012955Y013833D01*
X012914Y013756D02*
X013360Y013756D01*
X013360Y013679D02*
X012807Y013679D01*
X012616Y013679D02*
X010409Y013679D01*
X010410Y013602D02*
X013360Y013602D01*
X013360Y013524D02*
X010391Y013524D01*
X010341Y013447D02*
X013360Y013447D01*
X013360Y013370D02*
X010374Y013370D01*
X010406Y013293D02*
X013360Y013293D01*
X013415Y013215D02*
X010410Y013215D01*
X010394Y013138D02*
X013493Y013138D01*
X013534Y013293D02*
X015748Y013293D01*
X015715Y013306D02*
X015810Y013267D01*
X015912Y013267D01*
X016007Y013306D01*
X016080Y013379D01*
X016119Y013474D01*
X016119Y013577D01*
X016080Y013671D01*
X016007Y013744D01*
X015912Y013783D01*
X015810Y013783D01*
X015715Y013744D01*
X015642Y013671D01*
X015603Y013577D01*
X015603Y013474D01*
X015642Y013379D01*
X015715Y013306D01*
X015651Y013370D02*
X013499Y013370D01*
X013499Y013447D02*
X015614Y013447D01*
X015603Y013524D02*
X013499Y013524D01*
X013499Y013602D02*
X015613Y013602D01*
X015650Y013679D02*
X013499Y013679D01*
X013499Y013756D02*
X015744Y013756D01*
X015978Y013756D02*
X016151Y013756D01*
X016134Y013773D02*
X016207Y013700D01*
X016302Y013661D01*
X016404Y013661D01*
X016499Y013700D01*
X016572Y013773D01*
X016611Y013868D01*
X016611Y013970D01*
X016572Y014065D01*
X016499Y014138D01*
X016404Y014177D01*
X016302Y014177D01*
X016207Y014138D01*
X016134Y014065D01*
X016095Y013970D01*
X016095Y013868D01*
X016134Y013773D01*
X016109Y013833D02*
X013499Y013833D01*
X013499Y013911D02*
X016095Y013911D01*
X016102Y013988D02*
X013499Y013988D01*
X013547Y014065D02*
X016134Y014065D01*
X016218Y014142D02*
X013624Y014142D01*
X013428Y014142D02*
X012846Y014142D01*
X012858Y014138D02*
X012763Y014177D01*
X012660Y014177D01*
X012565Y014138D01*
X012493Y014065D02*
X012453Y013970D01*
X012453Y013911D02*
X010411Y013911D01*
X010308Y013833D02*
X012467Y013833D01*
X012509Y013756D02*
X010377Y013756D01*
X010091Y013911D02*
X009918Y013911D01*
X009918Y013868D02*
X009879Y013773D01*
X009806Y013700D01*
X009712Y013661D01*
X009609Y013661D01*
X009514Y013700D01*
X009441Y013773D01*
X009402Y013868D01*
X009402Y013970D01*
X009441Y014065D01*
X009514Y014138D01*
X009609Y014177D01*
X009712Y014177D01*
X009806Y014138D01*
X009879Y014065D01*
X009918Y013970D01*
X009918Y013868D01*
X009904Y013833D02*
X009997Y013833D01*
X009928Y013756D02*
X009863Y013756D01*
X009896Y013679D02*
X009755Y013679D01*
X009894Y013602D02*
X004103Y013602D01*
X004103Y013679D02*
X009565Y013679D01*
X009458Y013756D02*
X004104Y013756D01*
X004102Y013524D02*
X005653Y013524D01*
X005675Y013547D02*
X005603Y013475D01*
X005564Y013380D01*
X005564Y013277D01*
X005603Y013182D01*
X005675Y013110D01*
X005770Y013070D01*
X005873Y013070D01*
X005968Y013110D01*
X006040Y013182D01*
X006080Y013277D01*
X006080Y013380D01*
X006040Y013475D01*
X005968Y013547D01*
X005873Y013586D01*
X005770Y013586D01*
X005675Y013547D01*
X005592Y013447D02*
X004102Y013447D01*
X004102Y013370D02*
X005564Y013370D01*
X005564Y013293D02*
X004101Y013293D01*
X004101Y013215D02*
X005589Y013215D01*
X005647Y013138D02*
X004100Y013138D01*
X004100Y013061D02*
X008024Y013061D01*
X008024Y013084D02*
X008024Y012982D01*
X008063Y012887D01*
X008136Y012814D01*
X008231Y012775D01*
X008334Y012775D01*
X008428Y012814D01*
X008501Y012887D01*
X008540Y012982D01*
X008540Y013084D01*
X008501Y013179D01*
X008428Y013252D01*
X008334Y013291D01*
X008231Y013291D01*
X008136Y013252D01*
X008063Y013179D01*
X008024Y013084D01*
X008046Y013138D02*
X005997Y013138D01*
X006054Y013215D02*
X008100Y013215D01*
X008024Y012984D02*
X004099Y012984D01*
X004099Y012907D02*
X008055Y012907D01*
X008121Y012829D02*
X004324Y012829D01*
X004381Y012752D02*
X009908Y012752D01*
X009894Y012829D02*
X008444Y012829D01*
X008509Y012907D02*
X009902Y012907D01*
X009935Y012984D02*
X008540Y012984D01*
X008540Y013061D02*
X009956Y013061D01*
X009911Y013138D02*
X008518Y013138D01*
X008465Y013215D02*
X009894Y013215D01*
X009899Y013293D02*
X006080Y013293D01*
X006080Y013370D02*
X009931Y013370D01*
X009964Y013447D02*
X006052Y013447D01*
X005991Y013524D02*
X009914Y013524D01*
X009911Y013988D02*
X010024Y013988D01*
X009993Y014065D02*
X009879Y014065D01*
X009795Y014142D02*
X009993Y014142D01*
X010014Y014220D02*
X006178Y014220D01*
X006178Y014266D02*
X006139Y014360D01*
X006066Y014433D01*
X005971Y014472D01*
X005869Y014472D01*
X005774Y014433D01*
X005701Y014360D01*
X005662Y014266D01*
X005662Y014163D01*
X005701Y014068D01*
X005774Y013995D01*
X005869Y013956D01*
X005971Y013956D01*
X006066Y013995D01*
X006139Y014068D01*
X006178Y014163D01*
X006178Y014266D01*
X006165Y014297D02*
X010067Y014297D01*
X009525Y014142D02*
X006170Y014142D01*
X006136Y014065D02*
X009441Y014065D01*
X009409Y013988D02*
X006048Y013988D01*
X005792Y013988D02*
X004407Y013988D01*
X004407Y014065D02*
X005704Y014065D01*
X005670Y014142D02*
X004376Y014142D01*
X004311Y014220D02*
X005662Y014220D01*
X005675Y014297D02*
X004301Y014297D01*
X004372Y014374D02*
X005715Y014374D01*
X005818Y014451D02*
X004404Y014451D01*
X004407Y014529D02*
X020436Y014529D01*
X020364Y014451D02*
X006022Y014451D01*
X006125Y014374D02*
X020332Y014374D01*
X020391Y014142D02*
X018383Y014142D01*
X018383Y014065D02*
X020508Y014065D01*
X020662Y014065D02*
X021689Y014065D01*
X021572Y014142D02*
X020780Y014142D01*
X020839Y014374D02*
X021513Y014374D01*
X021545Y014451D02*
X021432Y014451D01*
X021314Y014451D02*
X021038Y014451D01*
X020920Y014451D02*
X020807Y014451D01*
X020792Y014529D02*
X020734Y014529D01*
X020741Y014606D02*
X004388Y014606D01*
X004340Y014683D02*
X020721Y014683D01*
X020722Y014760D02*
X006307Y014760D01*
X006267Y014743D02*
X006362Y014783D01*
X006434Y014855D01*
X006473Y014950D01*
X006473Y015053D01*
X006434Y015148D01*
X006362Y015220D01*
X006267Y015260D01*
X006164Y015260D01*
X006069Y015220D01*
X005997Y015148D01*
X005957Y015053D01*
X005957Y014950D01*
X005997Y014855D01*
X006069Y014783D01*
X006164Y014743D01*
X006267Y014743D01*
X006123Y014760D02*
X004217Y014760D01*
X004111Y014838D02*
X006014Y014838D01*
X005972Y014915D02*
X004111Y014915D01*
X004112Y014992D02*
X005957Y014992D01*
X005964Y015069D02*
X004112Y015069D01*
X004112Y015147D02*
X005996Y015147D01*
X006077Y015224D02*
X004113Y015224D01*
X004113Y015301D02*
X021594Y015301D01*
X021538Y015224D02*
X006353Y015224D01*
X006435Y015147D02*
X021508Y015147D01*
X021508Y015069D02*
X006467Y015069D01*
X006473Y014992D02*
X021532Y014992D01*
X021529Y014915D02*
X021587Y014915D01*
X021946Y014915D02*
X022259Y014915D01*
X022259Y014992D02*
X022001Y014992D01*
X022025Y015069D02*
X022259Y015069D01*
X022259Y015147D02*
X022025Y015147D01*
X021995Y015224D02*
X022259Y015224D01*
X022259Y015301D02*
X021939Y015301D01*
X021998Y015378D02*
X022259Y015378D01*
X022259Y015455D02*
X022025Y015455D01*
X022025Y015533D02*
X022259Y015533D01*
X022259Y015610D02*
X021998Y015610D01*
X021938Y015687D02*
X022259Y015687D01*
X021508Y015533D02*
X006765Y015533D01*
X006733Y015455D02*
X021508Y015455D01*
X021535Y015378D02*
X006662Y015378D01*
X006360Y015378D02*
X004114Y015378D01*
X004114Y015455D02*
X006288Y015455D01*
X006256Y015533D02*
X004115Y015533D01*
X004115Y015610D02*
X006253Y015610D01*
X006271Y015687D02*
X004116Y015687D01*
X004116Y015764D02*
X006318Y015764D01*
X006439Y015842D02*
X004117Y015842D01*
X004120Y016382D02*
X005355Y016382D01*
X005295Y016460D02*
X004121Y016460D01*
X004121Y016537D02*
X005268Y016537D01*
X005268Y016614D02*
X004122Y016614D01*
X004122Y016691D02*
X005295Y016691D01*
X005354Y016769D02*
X004122Y016769D01*
X006416Y014838D02*
X020754Y014838D01*
X020823Y014915D02*
X006459Y014915D01*
X004384Y013911D02*
X009402Y013911D01*
X009416Y013833D02*
X004330Y013833D01*
X004407Y012675D02*
X009949Y012675D01*
X010041Y012598D02*
X004407Y012598D01*
X004378Y012520D02*
X010004Y012520D01*
X009993Y012443D02*
X004317Y012443D01*
X004095Y012366D02*
X010003Y012366D01*
X010040Y012289D02*
X004095Y012289D01*
X004094Y012211D02*
X010134Y012211D01*
X010367Y012211D02*
X010420Y012211D01*
X010489Y012134D02*
X004094Y012134D01*
X004093Y012057D02*
X014935Y012057D01*
X014935Y012134D02*
X010800Y012134D01*
X010869Y012211D02*
X014935Y012211D01*
X014935Y012289D02*
X010901Y012289D01*
X010903Y012366D02*
X014935Y012366D01*
X014935Y012443D02*
X010883Y012443D01*
X010833Y012520D02*
X012072Y012520D01*
X012073Y012519D02*
X012168Y012480D01*
X012271Y012480D01*
X012365Y012519D01*
X012438Y012592D01*
X012477Y012686D01*
X012477Y012789D01*
X012438Y012884D01*
X012365Y012957D01*
X012271Y012996D01*
X012168Y012996D01*
X012073Y012957D01*
X012000Y012884D01*
X011961Y012789D01*
X011961Y012686D01*
X012000Y012592D01*
X012073Y012519D01*
X011998Y012598D02*
X011727Y012598D01*
X011680Y012578D02*
X011775Y012617D01*
X011848Y012690D01*
X011887Y012785D01*
X011887Y012888D01*
X011848Y012982D01*
X011775Y013055D01*
X011680Y013094D01*
X011577Y013094D01*
X011483Y013055D01*
X011410Y012982D01*
X011371Y012888D01*
X011371Y012785D01*
X011410Y012690D01*
X011483Y012617D01*
X011577Y012578D01*
X011680Y012578D01*
X011530Y012598D02*
X010707Y012598D01*
X010582Y012598D02*
X010461Y012598D01*
X010364Y012675D02*
X011425Y012675D01*
X011384Y012752D02*
X010397Y012752D01*
X010410Y012829D02*
X011371Y012829D01*
X011378Y012907D02*
X010403Y012907D01*
X010370Y012984D02*
X011411Y012984D01*
X011497Y013061D02*
X010348Y013061D01*
X011761Y013061D02*
X014751Y013061D01*
X014828Y012984D02*
X012300Y012984D01*
X012416Y012907D02*
X014906Y012907D01*
X014935Y012829D02*
X012461Y012829D01*
X012477Y012752D02*
X014935Y012752D01*
X014935Y012675D02*
X012473Y012675D01*
X012441Y012598D02*
X014935Y012598D01*
X014935Y012520D02*
X012367Y012520D01*
X011966Y012675D02*
X011832Y012675D01*
X011873Y012752D02*
X011961Y012752D01*
X011978Y012829D02*
X011887Y012829D01*
X011879Y012907D02*
X012023Y012907D01*
X012139Y012984D02*
X011846Y012984D01*
X012930Y014065D02*
X012858Y014138D01*
X014793Y013215D02*
X016109Y013215D01*
X016095Y013183D02*
X016095Y013080D01*
X016134Y012985D01*
X016207Y012913D01*
X016302Y012873D01*
X016404Y012873D01*
X016499Y012913D01*
X016572Y012985D01*
X016611Y013080D01*
X016611Y013183D01*
X016572Y013278D01*
X016499Y013350D01*
X016404Y013390D01*
X016302Y013390D01*
X016207Y013350D01*
X016134Y013278D01*
X016095Y013183D01*
X016095Y013138D02*
X014870Y013138D01*
X014947Y013061D02*
X016103Y013061D01*
X016136Y012984D02*
X015024Y012984D01*
X015074Y012907D02*
X016222Y012907D01*
X016485Y012907D02*
X020684Y012907D01*
X020662Y012884D02*
X020623Y012789D01*
X020623Y012686D01*
X020662Y012592D01*
X020735Y012519D01*
X020829Y012480D01*
X020932Y012480D01*
X021027Y012519D01*
X021100Y012592D01*
X021139Y012686D01*
X021139Y012789D01*
X021100Y012884D01*
X021027Y012957D01*
X020932Y012996D01*
X020829Y012996D01*
X020735Y012957D01*
X020662Y012884D01*
X020639Y012829D02*
X018694Y012829D01*
X018665Y012858D02*
X018570Y012897D01*
X018467Y012897D01*
X018372Y012858D01*
X018300Y012786D01*
X018260Y012691D01*
X018260Y012588D01*
X018300Y012493D01*
X018372Y012421D01*
X018467Y012381D01*
X018570Y012381D01*
X018665Y012421D01*
X018737Y012493D01*
X018777Y012588D01*
X018777Y012691D01*
X018737Y012786D01*
X018665Y012858D01*
X018751Y012752D02*
X020623Y012752D01*
X020627Y012675D02*
X018777Y012675D01*
X018777Y012598D02*
X020659Y012598D01*
X020733Y012520D02*
X018749Y012520D01*
X018687Y012443D02*
X022259Y012443D01*
X022259Y012366D02*
X015074Y012366D01*
X015074Y012443D02*
X018350Y012443D01*
X018288Y012520D02*
X015074Y012520D01*
X015074Y012598D02*
X018260Y012598D01*
X018260Y012675D02*
X015074Y012675D01*
X015074Y012752D02*
X018286Y012752D01*
X018343Y012829D02*
X015074Y012829D01*
X015074Y012289D02*
X022259Y012289D01*
X022259Y012211D02*
X015074Y012211D01*
X015074Y012134D02*
X022259Y012134D01*
X022259Y012057D02*
X015074Y012057D01*
X015074Y011980D02*
X022259Y011980D01*
X022259Y011902D02*
X015074Y011902D01*
X015074Y011825D02*
X022259Y011825D01*
X022259Y011748D02*
X015074Y011748D01*
X015074Y011671D02*
X020334Y011671D01*
X020341Y011677D02*
X020268Y011604D01*
X020229Y011510D01*
X020229Y011407D01*
X020268Y011312D01*
X020341Y011239D01*
X020436Y011200D01*
X020538Y011200D01*
X020633Y011239D01*
X020706Y011312D01*
X020745Y011407D01*
X020745Y011510D01*
X020706Y011604D01*
X020633Y011677D01*
X020538Y011716D01*
X020436Y011716D01*
X020341Y011677D01*
X020264Y011593D02*
X015074Y011593D01*
X015074Y011516D02*
X015605Y011516D01*
X015613Y011520D02*
X015518Y011480D01*
X015445Y011408D01*
X015406Y011313D01*
X015406Y011210D01*
X015445Y011115D01*
X015518Y011043D01*
X015613Y011003D01*
X015716Y011003D01*
X015810Y011043D01*
X015883Y011115D01*
X015922Y011210D01*
X015922Y011313D01*
X015883Y011408D01*
X015810Y011480D01*
X015716Y011520D01*
X015613Y011520D01*
X015724Y011516D02*
X020232Y011516D01*
X020229Y011439D02*
X015852Y011439D01*
X015902Y011362D02*
X020248Y011362D01*
X020296Y011284D02*
X015922Y011284D01*
X015921Y011207D02*
X020419Y011207D01*
X020555Y011207D02*
X021206Y011207D01*
X021223Y011200D02*
X021128Y011239D01*
X021056Y011312D01*
X021016Y011407D01*
X021016Y011510D01*
X021056Y011604D01*
X021128Y011677D01*
X021223Y011716D01*
X021326Y011716D01*
X021421Y011677D01*
X021493Y011604D01*
X021533Y011510D01*
X021533Y011407D01*
X021493Y011312D01*
X021421Y011239D01*
X021326Y011200D01*
X021223Y011200D01*
X021343Y011207D02*
X022259Y011207D01*
X022259Y011130D02*
X015889Y011130D01*
X015821Y011053D02*
X022259Y011053D01*
X022259Y010976D02*
X015074Y010976D01*
X015074Y011053D02*
X015508Y011053D01*
X015439Y011130D02*
X015074Y011130D01*
X015074Y011207D02*
X015407Y011207D01*
X015406Y011284D02*
X015074Y011284D01*
X015074Y011362D02*
X015426Y011362D01*
X015477Y011439D02*
X015074Y011439D01*
X014935Y011439D02*
X004266Y011439D01*
X004343Y011362D02*
X014935Y011362D01*
X014935Y011284D02*
X007245Y011284D01*
X007247Y011283D02*
X007153Y011323D01*
X007050Y011323D01*
X006955Y011283D01*
X006882Y011211D01*
X006843Y011116D01*
X006843Y011013D01*
X006882Y010918D01*
X006955Y010846D01*
X007050Y010806D01*
X007153Y010806D01*
X007247Y010846D01*
X007320Y010918D01*
X007359Y011013D01*
X007359Y011116D01*
X007320Y011211D01*
X007247Y011283D01*
X007321Y011207D02*
X010454Y011207D01*
X010495Y011224D02*
X010400Y011185D01*
X010327Y011112D01*
X010288Y011017D01*
X010288Y010915D01*
X010327Y010820D01*
X010400Y010747D01*
X010495Y010708D01*
X010597Y010708D01*
X010692Y010747D01*
X010765Y010820D01*
X010804Y010915D01*
X010804Y011017D01*
X010765Y011112D01*
X010692Y011185D01*
X010597Y011224D01*
X010495Y011224D01*
X010638Y011207D02*
X011241Y011207D01*
X011282Y011224D02*
X011187Y011185D01*
X011115Y011112D01*
X011075Y011017D01*
X011075Y010915D01*
X011115Y010820D01*
X011187Y010747D01*
X011282Y010708D01*
X011385Y010708D01*
X011480Y010747D01*
X011552Y010820D01*
X011592Y010915D01*
X011592Y011017D01*
X011552Y011112D01*
X011480Y011185D01*
X011385Y011224D01*
X011282Y011224D01*
X011426Y011207D02*
X014935Y011207D01*
X014935Y011130D02*
X011535Y011130D01*
X011577Y011053D02*
X014935Y011053D01*
X014935Y010976D02*
X011592Y010976D01*
X011585Y010898D02*
X014935Y010898D01*
X014935Y010821D02*
X013770Y010821D01*
X013747Y010831D02*
X013644Y010831D01*
X013549Y010791D01*
X013477Y010719D01*
X013438Y010624D01*
X013438Y010521D01*
X013477Y010426D01*
X013549Y010354D01*
X013644Y010314D01*
X013747Y010314D01*
X013842Y010354D01*
X013914Y010426D01*
X013954Y010521D01*
X013954Y010624D01*
X013914Y010719D01*
X013842Y010791D01*
X013747Y010831D01*
X013621Y010821D02*
X011553Y010821D01*
X011471Y010744D02*
X013502Y010744D01*
X013455Y010667D02*
X005038Y010667D01*
X004961Y010744D02*
X010408Y010744D01*
X010327Y010821D02*
X007188Y010821D01*
X007300Y010898D02*
X010295Y010898D01*
X010288Y010976D02*
X007344Y010976D01*
X007359Y011053D02*
X010303Y011053D01*
X010345Y011130D02*
X007353Y011130D01*
X006958Y011284D02*
X004420Y011284D01*
X004497Y011207D02*
X006881Y011207D01*
X006849Y011130D02*
X004574Y011130D01*
X004652Y011053D02*
X006843Y011053D01*
X006859Y010976D02*
X004729Y010976D01*
X004806Y010898D02*
X006902Y010898D01*
X007015Y010821D02*
X004883Y010821D01*
X005115Y010589D02*
X013438Y010589D01*
X013441Y010512D02*
X005173Y010512D01*
X005173Y010435D02*
X013473Y010435D01*
X013545Y010358D02*
X005173Y010358D01*
X005173Y010280D02*
X014935Y010280D01*
X014935Y010203D02*
X005173Y010203D01*
X005173Y010126D02*
X009473Y010126D01*
X009510Y010142D02*
X009416Y010102D01*
X009343Y010030D01*
X009304Y009935D01*
X009304Y009832D01*
X009343Y009737D01*
X009416Y009665D01*
X009510Y009625D01*
X009613Y009625D01*
X009708Y009665D01*
X009781Y009737D01*
X009820Y009832D01*
X009820Y009935D01*
X009781Y010030D01*
X009708Y010102D01*
X009613Y010142D01*
X009510Y010142D01*
X009651Y010126D02*
X014935Y010126D01*
X014935Y010049D02*
X009762Y010049D01*
X009805Y009971D02*
X014935Y009971D01*
X014935Y009894D02*
X009820Y009894D01*
X009814Y009817D02*
X014935Y009817D01*
X014935Y009740D02*
X009782Y009740D01*
X009703Y009662D02*
X014935Y009662D01*
X014935Y009585D02*
X005173Y009585D01*
X005173Y009508D02*
X014935Y009508D01*
X014935Y009431D02*
X005173Y009431D01*
X005173Y009353D02*
X014935Y009353D01*
X014935Y009276D02*
X005173Y009276D01*
X005173Y009199D02*
X014935Y009199D01*
X014935Y009122D02*
X005173Y009122D01*
X005173Y009045D02*
X014935Y009045D01*
X014935Y008967D02*
X005173Y008967D01*
X005173Y009662D02*
X009421Y009662D01*
X009342Y009740D02*
X005173Y009740D01*
X005173Y009817D02*
X009310Y009817D01*
X009304Y009894D02*
X005173Y009894D01*
X005173Y009971D02*
X009319Y009971D01*
X009362Y010049D02*
X005173Y010049D01*
X005034Y010049D02*
X003955Y010049D01*
X003998Y009971D02*
X005034Y009971D01*
X005034Y009894D02*
X004013Y009894D01*
X004007Y009817D02*
X005034Y009817D01*
X005034Y009740D02*
X003975Y009740D01*
X003896Y009662D02*
X005034Y009662D01*
X003888Y008118D02*
X002811Y008118D01*
X002811Y008040D02*
X003823Y008040D01*
X003792Y007963D02*
X002811Y007963D01*
X002811Y007886D02*
X003792Y007886D01*
X003815Y007809D02*
X002811Y007809D01*
X002811Y007731D02*
X003869Y007731D01*
X005173Y007191D02*
X011721Y007191D01*
X011216Y005800D02*
X010980Y005800D01*
X010980Y005723D02*
X011182Y005723D01*
X010980Y004487D02*
X013852Y004487D01*
X013852Y004410D02*
X010980Y004410D01*
X010980Y004333D02*
X013345Y004333D01*
X013349Y004334D02*
X013254Y004295D01*
X013182Y004223D01*
X013142Y004128D01*
X013142Y004025D01*
X013182Y003930D01*
X013254Y003858D01*
X013349Y003818D01*
X013452Y003818D01*
X013547Y003858D01*
X013619Y003930D01*
X013659Y004025D01*
X013659Y004128D01*
X013619Y004223D01*
X013547Y004295D01*
X013452Y004334D01*
X013349Y004334D01*
X013456Y004333D02*
X013852Y004333D01*
X013852Y004256D02*
X013586Y004256D01*
X013638Y004178D02*
X013852Y004178D01*
X013852Y004101D02*
X013659Y004101D01*
X013658Y004024D02*
X013852Y004024D01*
X013852Y003947D02*
X013626Y003947D01*
X013558Y003869D02*
X013852Y003869D01*
X013852Y003792D02*
X010980Y003792D01*
X010980Y003715D02*
X013852Y003715D01*
X013852Y003638D02*
X010980Y003638D01*
X010980Y003560D02*
X013852Y003560D01*
X013852Y003483D02*
X010980Y003483D01*
X010980Y003406D02*
X013852Y003406D01*
X013852Y003329D02*
X010980Y003329D01*
X010980Y003251D02*
X013852Y003251D01*
X013852Y003174D02*
X010980Y003174D01*
X010980Y003097D02*
X013852Y003097D01*
X013852Y003020D02*
X010980Y003020D01*
X010980Y002943D02*
X013852Y002943D01*
X013852Y002865D02*
X010980Y002865D01*
X010980Y002788D02*
X013852Y002788D01*
X013852Y002711D02*
X010980Y002711D01*
X010980Y002634D02*
X013852Y002634D01*
X013852Y002556D02*
X010980Y002556D01*
X010980Y002479D02*
X013852Y002479D01*
X013852Y002402D02*
X010980Y002402D01*
X010980Y002325D02*
X013852Y002325D01*
X013852Y002247D02*
X010980Y002247D01*
X010980Y002170D02*
X013852Y002170D01*
X013991Y002170D02*
X016928Y002170D01*
X016982Y002116D02*
X017149Y002047D01*
X017329Y002047D01*
X017496Y002116D01*
X017624Y002244D01*
X017693Y002411D01*
X017693Y002592D01*
X017624Y002759D01*
X017496Y002887D01*
X017329Y002956D01*
X017149Y002956D01*
X016982Y002887D01*
X016854Y002759D01*
X016785Y002592D01*
X016785Y002411D01*
X016854Y002244D01*
X016982Y002116D01*
X017038Y002093D02*
X013976Y002093D01*
X013899Y002016D02*
X017884Y002016D01*
X017867Y002057D02*
X017906Y001962D01*
X017979Y001889D01*
X018073Y001850D01*
X018176Y001850D01*
X018271Y001889D01*
X018284Y001902D01*
X018300Y001863D01*
X018372Y001791D01*
X018467Y001751D01*
X018570Y001751D01*
X018665Y001791D01*
X018737Y001863D01*
X018777Y001958D01*
X018777Y002061D01*
X018737Y002156D01*
X018665Y002228D01*
X018570Y002268D01*
X018467Y002268D01*
X018372Y002228D01*
X018360Y002216D01*
X018344Y002254D01*
X018271Y002327D01*
X018176Y002366D01*
X018073Y002366D01*
X017979Y002327D01*
X017906Y002254D01*
X017867Y002159D01*
X017867Y002057D01*
X017867Y002093D02*
X017440Y002093D01*
X017550Y002170D02*
X017871Y002170D01*
X017903Y002247D02*
X017625Y002247D01*
X017657Y002325D02*
X017977Y002325D01*
X018273Y002325D02*
X019995Y002325D01*
X019995Y002402D02*
X017689Y002402D01*
X017693Y002479D02*
X019995Y002479D01*
X019995Y002556D02*
X017693Y002556D01*
X017676Y002634D02*
X019995Y002634D01*
X019995Y002711D02*
X017644Y002711D01*
X017595Y002788D02*
X019995Y002788D01*
X019995Y002865D02*
X017518Y002865D01*
X017362Y002943D02*
X019995Y002943D01*
X019995Y003020D02*
X013991Y003020D01*
X013991Y003097D02*
X019995Y003097D01*
X019995Y003174D02*
X013991Y003174D01*
X013991Y003251D02*
X019995Y003251D01*
X019995Y003329D02*
X013991Y003329D01*
X013991Y003406D02*
X019995Y003406D01*
X019995Y003483D02*
X013991Y003483D01*
X013991Y003560D02*
X019995Y003560D01*
X020048Y003638D02*
X013991Y003638D01*
X013991Y003715D02*
X022259Y003715D01*
X022259Y003792D02*
X013991Y003792D01*
X013991Y003869D02*
X022259Y003869D01*
X022259Y003947D02*
X013991Y003947D01*
X013991Y004024D02*
X022259Y004024D01*
X022259Y004101D02*
X013991Y004101D01*
X013991Y004178D02*
X022259Y004178D01*
X022259Y004256D02*
X013991Y004256D01*
X013215Y004256D02*
X010980Y004256D01*
X010980Y004178D02*
X013163Y004178D01*
X013142Y004101D02*
X010980Y004101D01*
X010980Y004024D02*
X013143Y004024D01*
X013175Y003947D02*
X010980Y003947D01*
X010980Y003869D02*
X013242Y003869D01*
X013991Y002943D02*
X017116Y002943D01*
X016960Y002865D02*
X013991Y002865D01*
X013991Y002788D02*
X016883Y002788D01*
X016834Y002711D02*
X013991Y002711D01*
X013991Y002634D02*
X016802Y002634D01*
X016785Y002556D02*
X013991Y002556D01*
X013991Y002479D02*
X016785Y002479D01*
X016789Y002402D02*
X013991Y002402D01*
X013991Y002325D02*
X016821Y002325D01*
X016853Y002247D02*
X013991Y002247D01*
X010934Y002016D02*
X005034Y002016D01*
X005034Y002093D02*
X007590Y002093D01*
X007533Y002116D02*
X007700Y002047D01*
X007881Y002047D01*
X008048Y002116D01*
X008175Y002244D01*
X008244Y002411D01*
X008244Y002592D01*
X008175Y002759D01*
X008048Y002887D01*
X007881Y002956D01*
X007700Y002956D01*
X007533Y002887D01*
X007405Y002759D01*
X007336Y002592D01*
X007336Y002411D01*
X007405Y002244D01*
X007533Y002116D01*
X007479Y002170D02*
X005034Y002170D01*
X005034Y002247D02*
X007404Y002247D01*
X007372Y002325D02*
X005034Y002325D01*
X005034Y002402D02*
X007340Y002402D01*
X007336Y002479D02*
X005034Y002479D01*
X005034Y002556D02*
X007336Y002556D01*
X007353Y002634D02*
X005034Y002634D01*
X005034Y002711D02*
X007385Y002711D01*
X007434Y002788D02*
X005034Y002788D01*
X005034Y002865D02*
X007511Y002865D01*
X007667Y002943D02*
X005034Y002943D01*
X005034Y003020D02*
X010841Y003020D01*
X010841Y003097D02*
X005034Y003097D01*
X005034Y003174D02*
X010841Y003174D01*
X010841Y003251D02*
X005034Y003251D01*
X005034Y003329D02*
X010841Y003329D01*
X010841Y003406D02*
X005034Y003406D01*
X005034Y003483D02*
X010841Y003483D01*
X010841Y003560D02*
X005034Y003560D01*
X005034Y001938D02*
X017929Y001938D01*
X018046Y001861D02*
X005034Y001861D01*
X005034Y001784D02*
X018389Y001784D01*
X018302Y001861D02*
X018204Y001861D01*
X018346Y002247D02*
X018418Y002247D01*
X018619Y002247D02*
X019995Y002247D01*
X019995Y002170D02*
X018723Y002170D01*
X018763Y002093D02*
X019995Y002093D01*
X019995Y002016D02*
X018777Y002016D01*
X018768Y001938D02*
X019995Y001938D01*
X019995Y001861D02*
X018735Y001861D01*
X018648Y001784D02*
X019995Y001784D01*
X019995Y001707D02*
X005034Y001707D01*
X005034Y001629D02*
X019995Y001629D01*
X019995Y001552D02*
X005034Y001552D01*
X005034Y001475D02*
X019995Y001475D01*
X021921Y007114D02*
X022259Y007114D01*
X022259Y007191D02*
X021991Y007191D01*
X022023Y007268D02*
X022259Y007268D01*
X022259Y007345D02*
X022025Y007345D01*
X022005Y007422D02*
X022259Y007422D01*
X022259Y007500D02*
X021956Y007500D01*
X022259Y010358D02*
X015074Y010358D01*
X015074Y010435D02*
X022259Y010435D01*
X022259Y010512D02*
X015074Y010512D01*
X015074Y010589D02*
X022259Y010589D01*
X022259Y010667D02*
X015074Y010667D01*
X015074Y010744D02*
X022259Y010744D01*
X022259Y010821D02*
X015074Y010821D01*
X015074Y010898D02*
X022259Y010898D01*
X022259Y011284D02*
X021466Y011284D01*
X021514Y011362D02*
X022259Y011362D01*
X022259Y011439D02*
X021533Y011439D01*
X021530Y011516D02*
X022259Y011516D01*
X022259Y011593D02*
X021498Y011593D01*
X021427Y011671D02*
X022259Y011671D01*
X022259Y012520D02*
X021028Y012520D01*
X021102Y012598D02*
X022259Y012598D01*
X022259Y012675D02*
X021134Y012675D01*
X021139Y012752D02*
X022259Y012752D01*
X022259Y012829D02*
X021122Y012829D01*
X021077Y012907D02*
X021930Y012907D01*
X021845Y012984D02*
X020961Y012984D01*
X020800Y012984D02*
X019583Y012984D01*
X019554Y012972D02*
X019649Y013011D01*
X019722Y013084D01*
X019761Y013179D01*
X019761Y013281D01*
X019722Y013376D01*
X019649Y013449D01*
X019554Y013488D01*
X019451Y013488D01*
X019357Y013449D01*
X019284Y013376D01*
X019245Y013281D01*
X019245Y013179D01*
X019284Y013084D01*
X019357Y013011D01*
X019451Y012972D01*
X019554Y012972D01*
X019423Y012984D02*
X016570Y012984D01*
X016603Y013061D02*
X019307Y013061D01*
X019261Y013138D02*
X016611Y013138D01*
X016598Y013215D02*
X019245Y013215D01*
X019249Y013293D02*
X016557Y013293D01*
X016452Y013370D02*
X019281Y013370D01*
X019355Y013447D02*
X016108Y013447D01*
X016119Y013524D02*
X022259Y013524D01*
X022259Y013447D02*
X019650Y013447D01*
X019724Y013370D02*
X021963Y013370D01*
X021858Y013293D02*
X019756Y013293D01*
X019761Y013215D02*
X021817Y013215D01*
X021804Y013138D02*
X019744Y013138D01*
X019699Y013061D02*
X021812Y013061D01*
X022193Y012907D02*
X022259Y012907D01*
X022259Y013370D02*
X022161Y013370D01*
X022259Y013602D02*
X016109Y013602D01*
X016072Y013679D02*
X016258Y013679D01*
X016448Y013679D02*
X022259Y013679D01*
X022259Y013756D02*
X016555Y013756D01*
X016597Y013833D02*
X022259Y013833D01*
X022259Y013911D02*
X018285Y013911D01*
X018351Y013988D02*
X022259Y013988D01*
X022259Y014065D02*
X021844Y014065D01*
X021961Y014142D02*
X022259Y014142D01*
X022259Y014374D02*
X022020Y014374D01*
X021988Y014451D02*
X022259Y014451D01*
X022259Y014529D02*
X021954Y014529D01*
X022004Y014606D02*
X022259Y014606D01*
X022259Y014683D02*
X022025Y014683D01*
X022024Y014760D02*
X022259Y014760D01*
X022259Y014838D02*
X021992Y014838D01*
X021579Y014529D02*
X021560Y014529D01*
X021186Y014529D02*
X021166Y014529D01*
X021136Y014915D02*
X021216Y014915D01*
X021122Y011671D02*
X020640Y011671D01*
X020710Y011593D02*
X021051Y011593D01*
X021019Y011516D02*
X020742Y011516D01*
X020745Y011439D02*
X021016Y011439D01*
X021035Y011362D02*
X020726Y011362D01*
X020678Y011284D02*
X021083Y011284D01*
X017965Y013911D02*
X016611Y013911D01*
X016604Y013988D02*
X017898Y013988D01*
X017867Y014065D02*
X016572Y014065D01*
X016488Y014142D02*
X017867Y014142D01*
X016254Y013370D02*
X016071Y013370D01*
X016149Y013293D02*
X015974Y013293D01*
X014935Y011980D02*
X004093Y011980D01*
X004092Y011902D02*
X014935Y011902D01*
X014935Y011825D02*
X004092Y011825D01*
X004091Y011748D02*
X014935Y011748D01*
X014935Y011671D02*
X004091Y011671D01*
X004111Y011593D02*
X014935Y011593D01*
X014935Y011516D02*
X004188Y011516D01*
X010684Y010744D02*
X011196Y010744D01*
X011114Y010821D02*
X010765Y010821D01*
X010797Y010898D02*
X011082Y010898D01*
X011075Y010976D02*
X010804Y010976D01*
X010790Y011053D02*
X011090Y011053D01*
X011132Y011130D02*
X010747Y011130D01*
X013889Y010744D02*
X014923Y010744D01*
X014914Y010667D02*
X013936Y010667D01*
X013954Y010589D02*
X014926Y010589D01*
X014935Y010512D02*
X013950Y010512D01*
X013918Y010435D02*
X014935Y010435D01*
X014935Y010358D02*
X013846Y010358D01*
X007466Y005182D02*
X002811Y005182D01*
X002811Y005105D02*
X007398Y005105D01*
X007366Y005028D02*
X002811Y005028D01*
X002811Y004951D02*
X007336Y004951D01*
X007336Y004874D02*
X002811Y004874D01*
X002811Y004796D02*
X007336Y004796D01*
X007358Y004719D02*
X002811Y004719D01*
X002811Y004642D02*
X007390Y004642D01*
X007447Y004565D02*
X002811Y004565D01*
X002811Y004487D02*
X007524Y004487D01*
X007913Y002943D02*
X010841Y002943D01*
X010841Y002865D02*
X008069Y002865D01*
X008146Y002788D02*
X010841Y002788D01*
X010841Y002711D02*
X008195Y002711D01*
X008227Y002634D02*
X010841Y002634D01*
X010841Y002556D02*
X008244Y002556D01*
X008244Y002479D02*
X010841Y002479D01*
X010841Y002402D02*
X008241Y002402D01*
X008209Y002325D02*
X010841Y002325D01*
X010841Y002247D02*
X008177Y002247D01*
X008101Y002170D02*
X010841Y002170D01*
X010856Y002093D02*
X007991Y002093D01*
X021528Y018236D02*
X022259Y018236D01*
X022259Y018313D02*
X021597Y018313D01*
X021629Y018391D02*
X022259Y018391D01*
X022259Y018468D02*
X021631Y018468D01*
X021611Y018545D02*
X022259Y018545D01*
X022259Y018622D02*
X021562Y018622D01*
X019343Y021094D02*
X018185Y021094D01*
X018284Y021326D02*
X019462Y021326D01*
X019429Y021403D02*
X018263Y021403D01*
X018212Y021480D02*
X019370Y021480D01*
X018541Y022253D02*
X020268Y022253D01*
X020242Y022263D02*
X020337Y022224D01*
X020440Y022224D01*
X020535Y022263D01*
X020607Y022336D01*
X020647Y022431D01*
X020647Y022533D01*
X020607Y022628D01*
X020535Y022701D01*
X020440Y022740D01*
X020337Y022740D01*
X020242Y022701D01*
X020170Y022628D01*
X020130Y022533D01*
X020130Y022431D01*
X020170Y022336D01*
X020242Y022263D01*
X020176Y022330D02*
X018633Y022330D01*
X018668Y022407D02*
X020140Y022407D01*
X020130Y022484D02*
X018678Y022484D01*
X018865Y022562D02*
X020142Y022562D01*
X020180Y022639D02*
X018937Y022639D01*
X018969Y022716D02*
X020279Y022716D01*
X020498Y022716D02*
X022259Y022716D01*
X022259Y022639D02*
X020597Y022639D01*
X020635Y022562D02*
X022259Y022562D01*
X022259Y022484D02*
X020647Y022484D01*
X020637Y022407D02*
X022259Y022407D01*
X022259Y022330D02*
X020602Y022330D01*
X020510Y022253D02*
X022259Y022253D01*
X022259Y022175D02*
X018088Y022175D01*
X018088Y022135D02*
X018088Y022238D01*
X018048Y022333D01*
X017976Y022405D01*
X017881Y022445D01*
X017778Y022445D01*
X017683Y022405D01*
X017633Y022355D01*
X017582Y022405D01*
X017487Y022445D01*
X017384Y022445D01*
X017290Y022405D01*
X017217Y022333D01*
X017178Y022238D01*
X017178Y022135D01*
X017217Y022040D01*
X017290Y021968D01*
X017384Y021929D01*
X017487Y021929D01*
X017582Y021968D01*
X017633Y022018D01*
X017683Y021968D01*
X017778Y021929D01*
X017881Y021929D01*
X017976Y021968D01*
X018048Y022040D01*
X018088Y022135D01*
X018072Y022098D02*
X022259Y022098D01*
X022259Y022021D02*
X018029Y022021D01*
X017917Y021944D02*
X022259Y021944D01*
X022259Y022793D02*
X018973Y022793D01*
X018956Y022871D02*
X022259Y022871D01*
X022259Y022948D02*
X018910Y022948D01*
X018899Y023025D02*
X022259Y023025D01*
X022259Y023102D02*
X019012Y023102D01*
X019056Y023180D02*
X022259Y023180D01*
X022259Y023257D02*
X019072Y023257D01*
X019066Y023334D02*
X022259Y023334D01*
X022259Y023566D02*
X021739Y023566D01*
X021800Y023643D02*
X022259Y023643D01*
X022259Y023720D02*
X021828Y023720D01*
X021828Y023797D02*
X022259Y023797D01*
X022259Y023875D02*
X021802Y023875D01*
X021744Y023952D02*
X022259Y023952D01*
X022259Y024029D02*
X006053Y024029D01*
X006138Y024106D02*
X022259Y024106D01*
X022259Y024184D02*
X006170Y024184D01*
X006178Y024261D02*
X022259Y024261D01*
X019957Y026346D02*
X016744Y026346D01*
X016625Y026269D02*
X019874Y026269D01*
X019054Y023875D02*
X004166Y023875D01*
X004166Y023797D02*
X018984Y023797D01*
X018952Y023720D02*
X004165Y023720D01*
X004165Y023643D02*
X018949Y023643D01*
X018172Y022407D02*
X017972Y022407D01*
X018050Y022330D02*
X018207Y022330D01*
X018299Y022253D02*
X018082Y022253D01*
X017687Y022407D02*
X017578Y022407D01*
X017294Y022407D02*
X005669Y022407D01*
X005746Y022330D02*
X017216Y022330D01*
X017184Y022253D02*
X005778Y022253D01*
X005784Y022175D02*
X017178Y022175D01*
X017193Y022098D02*
X005769Y022098D01*
X005726Y022021D02*
X015639Y022021D01*
X015887Y022021D02*
X017237Y022021D01*
X017348Y021944D02*
X015977Y021944D01*
X017524Y021944D02*
X017742Y021944D01*
X016813Y023488D02*
X004164Y023488D01*
X004164Y023566D02*
X016875Y023566D01*
X014464Y024956D02*
X008366Y024956D01*
X008419Y025033D02*
X014421Y025033D01*
X014405Y025111D02*
X008442Y025111D01*
X008442Y025188D02*
X014411Y025188D01*
X014443Y025265D02*
X008411Y025265D01*
X008346Y025342D02*
X014519Y025342D01*
X013995Y025960D02*
X009468Y025960D01*
X009360Y025883D02*
X013877Y025883D01*
X013839Y026501D02*
X013355Y026501D01*
X013427Y026578D02*
X013768Y026578D01*
X013736Y026655D02*
X013459Y026655D01*
X013462Y026733D02*
X013733Y026733D01*
X013751Y026810D02*
X013443Y026810D01*
X013396Y026887D02*
X013799Y026887D01*
X013892Y024415D02*
X006123Y024415D01*
X006164Y024338D02*
X013981Y024338D01*
X009168Y028584D02*
X009168Y040551D01*
X002811Y040551D01*
X002811Y028584D01*
X009168Y028584D01*
X009168Y028586D02*
X002811Y028586D01*
X002811Y028664D02*
X009168Y028664D01*
X009168Y028741D02*
X007853Y028741D01*
X007897Y028759D02*
X007970Y028832D01*
X008009Y028927D01*
X008009Y029029D01*
X007970Y029124D01*
X007919Y029175D01*
X007970Y029225D01*
X008009Y029320D01*
X008009Y029423D01*
X007970Y029518D01*
X007897Y029590D01*
X009168Y029590D01*
X009168Y029513D02*
X007972Y029513D01*
X008004Y029436D02*
X009168Y029436D01*
X009168Y029359D02*
X008009Y029359D01*
X007993Y029281D02*
X009168Y029281D01*
X009168Y029204D02*
X007948Y029204D01*
X007967Y029127D02*
X009168Y029127D01*
X009168Y029050D02*
X008000Y029050D01*
X008009Y028973D02*
X009168Y028973D01*
X009168Y028895D02*
X007996Y028895D01*
X007956Y028818D02*
X009168Y028818D01*
X009307Y029590D02*
X019353Y029590D01*
X019390Y029513D02*
X017039Y029513D01*
X016741Y029436D02*
X016359Y029436D01*
X016400Y029359D02*
X016700Y029359D01*
X016686Y029281D02*
X016414Y029281D01*
X016291Y029050D02*
X016809Y029050D01*
X016676Y029668D02*
X009307Y029668D01*
X009307Y029745D02*
X016615Y029745D01*
X016587Y029822D02*
X009307Y029822D01*
X009307Y029899D02*
X016587Y029899D01*
X016613Y029977D02*
X009307Y029977D01*
X009307Y030054D02*
X016670Y030054D01*
X017020Y030054D02*
X022259Y030054D01*
X022259Y030131D02*
X009307Y030131D01*
X009307Y030208D02*
X014383Y030208D01*
X014412Y030196D02*
X014515Y030196D01*
X014610Y030236D01*
X014682Y030308D01*
X014721Y030403D01*
X014721Y030506D01*
X014682Y030601D01*
X014610Y030673D01*
X014515Y030712D01*
X014412Y030712D01*
X014317Y030673D01*
X014245Y030601D01*
X014205Y030506D01*
X014205Y030403D01*
X014245Y030308D01*
X014317Y030236D01*
X014412Y030196D01*
X014544Y030208D02*
X022259Y030208D01*
X022259Y030286D02*
X014660Y030286D01*
X014705Y030363D02*
X022259Y030363D01*
X022259Y030440D02*
X014721Y030440D01*
X014717Y030517D02*
X022259Y030517D01*
X022259Y030595D02*
X014685Y030595D01*
X014611Y030672D02*
X022259Y030672D01*
X022259Y030749D02*
X009307Y030749D01*
X009307Y030672D02*
X013509Y030672D01*
X013530Y030693D02*
X013457Y030620D01*
X013418Y030525D01*
X013418Y030423D01*
X013457Y030328D01*
X013530Y030255D01*
X013625Y030216D01*
X013727Y030216D01*
X013822Y030255D01*
X013895Y030328D01*
X013934Y030423D01*
X013934Y030525D01*
X013895Y030620D01*
X013822Y030693D01*
X013727Y030732D01*
X013625Y030732D01*
X013530Y030693D01*
X013447Y030595D02*
X009307Y030595D01*
X009307Y030517D02*
X013418Y030517D01*
X013418Y030440D02*
X009307Y030440D01*
X009307Y030363D02*
X013443Y030363D01*
X013499Y030286D02*
X009307Y030286D01*
X009168Y030286D02*
X002811Y030286D01*
X002811Y030363D02*
X009168Y030363D01*
X009168Y030440D02*
X002811Y030440D01*
X002811Y030517D02*
X009168Y030517D01*
X009168Y030595D02*
X002811Y030595D01*
X002811Y030672D02*
X009168Y030672D01*
X009168Y030749D02*
X002811Y030749D01*
X002811Y030826D02*
X009168Y030826D01*
X009168Y030904D02*
X008870Y030904D01*
X008826Y030885D02*
X008921Y030924D01*
X008993Y030997D01*
X009033Y031092D01*
X009033Y031195D01*
X008993Y031290D01*
X009168Y031290D01*
X009168Y031367D02*
X008909Y031367D01*
X008921Y031362D02*
X008826Y031401D01*
X008723Y031401D01*
X008628Y031362D01*
X008556Y031290D01*
X002811Y031290D01*
X002811Y031367D02*
X008640Y031367D01*
X008556Y031290D02*
X008516Y031195D01*
X008516Y031092D01*
X008556Y030997D01*
X008628Y030924D01*
X008723Y030885D01*
X008826Y030885D01*
X008679Y030904D02*
X002811Y030904D01*
X002811Y030981D02*
X008572Y030981D01*
X008530Y031058D02*
X002811Y031058D01*
X002811Y031135D02*
X008516Y031135D01*
X008524Y031213D02*
X002811Y031213D01*
X002811Y031444D02*
X009168Y031444D01*
X009168Y031521D02*
X002811Y031521D01*
X002811Y031599D02*
X003152Y031599D01*
X003116Y031613D02*
X003211Y031574D01*
X003314Y031574D01*
X003409Y031613D01*
X003481Y031686D01*
X003521Y031781D01*
X003521Y031884D01*
X003481Y031978D01*
X003409Y032051D01*
X003314Y032090D01*
X003211Y032090D01*
X003116Y032051D01*
X003044Y031978D01*
X003004Y031884D01*
X003004Y031781D01*
X003044Y031686D01*
X003116Y031613D01*
X003054Y031676D02*
X002811Y031676D01*
X002811Y031753D02*
X003016Y031753D01*
X003004Y031830D02*
X002811Y031830D01*
X002811Y031908D02*
X003014Y031908D01*
X003050Y031985D02*
X002811Y031985D01*
X002811Y032062D02*
X003143Y032062D01*
X003382Y032062D02*
X009168Y032062D01*
X009168Y031985D02*
X003475Y031985D01*
X003511Y031908D02*
X009168Y031908D01*
X009168Y031830D02*
X003521Y031830D01*
X003509Y031753D02*
X009168Y031753D01*
X009168Y031676D02*
X003471Y031676D01*
X003373Y031599D02*
X009168Y031599D01*
X009307Y031599D02*
X012999Y031599D01*
X012985Y031585D02*
X012945Y031490D01*
X012945Y031387D01*
X012985Y031292D01*
X013057Y031220D01*
X013152Y031180D01*
X013255Y031180D01*
X013350Y031220D01*
X013422Y031292D01*
X013462Y031387D01*
X013462Y031490D01*
X013422Y031585D01*
X013350Y031657D01*
X013255Y031697D01*
X013152Y031697D01*
X013057Y031657D01*
X012985Y031585D01*
X012959Y031521D02*
X009307Y031521D01*
X009307Y031444D02*
X012945Y031444D01*
X012954Y031367D02*
X009307Y031367D01*
X009307Y031290D02*
X012987Y031290D01*
X013075Y031213D02*
X009307Y031213D01*
X009307Y031135D02*
X019464Y031135D01*
X019481Y031096D02*
X019553Y031023D01*
X019648Y030984D01*
X019751Y030984D01*
X019846Y031023D01*
X019918Y031096D01*
X019958Y031190D01*
X019958Y031293D01*
X019918Y031388D01*
X019846Y031461D01*
X019751Y031500D01*
X019648Y031500D01*
X019553Y031461D01*
X019481Y031388D01*
X019441Y031293D01*
X019441Y031190D01*
X019481Y031096D01*
X019518Y031058D02*
X009307Y031058D01*
X009307Y030981D02*
X022259Y030981D01*
X022259Y031058D02*
X019881Y031058D01*
X019935Y031135D02*
X022259Y031135D01*
X022259Y031213D02*
X019958Y031213D01*
X019958Y031290D02*
X022259Y031290D01*
X022259Y031367D02*
X019927Y031367D01*
X019862Y031444D02*
X022259Y031444D01*
X022259Y031521D02*
X014236Y031521D01*
X014249Y031490D02*
X014210Y031585D01*
X014137Y031657D01*
X014042Y031697D01*
X013940Y031697D01*
X013845Y031657D01*
X013772Y031585D01*
X013733Y031490D01*
X013733Y031387D01*
X013772Y031292D01*
X013845Y031220D01*
X013940Y031180D01*
X014042Y031180D01*
X014137Y031220D01*
X014210Y031292D01*
X014249Y031387D01*
X014249Y031490D01*
X014249Y031444D02*
X019537Y031444D01*
X019472Y031367D02*
X014241Y031367D01*
X014207Y031290D02*
X019441Y031290D01*
X019441Y031213D02*
X014120Y031213D01*
X013862Y031213D02*
X013332Y031213D01*
X013420Y031290D02*
X013775Y031290D01*
X013741Y031367D02*
X013453Y031367D01*
X013462Y031444D02*
X013733Y031444D01*
X013746Y031521D02*
X013449Y031521D01*
X013408Y031599D02*
X013786Y031599D01*
X013890Y031676D02*
X013305Y031676D01*
X013102Y031676D02*
X009307Y031676D01*
X009307Y031753D02*
X022259Y031753D01*
X022259Y031676D02*
X014092Y031676D01*
X014196Y031599D02*
X022259Y031599D01*
X022259Y031830D02*
X009307Y031830D01*
X009307Y031908D02*
X018422Y031908D01*
X018467Y031889D02*
X018372Y031928D01*
X018300Y032001D01*
X018260Y032096D01*
X018260Y032199D01*
X018300Y032293D01*
X018372Y032366D01*
X018467Y032405D01*
X018570Y032405D01*
X018665Y032366D01*
X018737Y032293D01*
X018777Y032199D01*
X018777Y032096D01*
X018737Y032001D01*
X018665Y031928D01*
X018570Y031889D01*
X018467Y031889D01*
X018615Y031908D02*
X022259Y031908D01*
X022259Y031985D02*
X018721Y031985D01*
X018763Y032062D02*
X022259Y032062D01*
X022259Y032139D02*
X018777Y032139D01*
X018769Y032217D02*
X022259Y032217D01*
X022259Y032294D02*
X018737Y032294D01*
X018653Y032371D02*
X022259Y032371D01*
X022259Y032448D02*
X014129Y032448D01*
X014137Y032445D02*
X014042Y032484D01*
X013940Y032484D01*
X013845Y032445D01*
X013772Y032372D01*
X013733Y032277D01*
X013733Y032175D01*
X013772Y032080D01*
X013845Y032007D01*
X013940Y031968D01*
X014042Y031968D01*
X014137Y032007D01*
X014210Y032080D01*
X014249Y032175D01*
X014249Y032277D01*
X014210Y032372D01*
X014137Y032445D01*
X014210Y032371D02*
X018385Y032371D01*
X018300Y032294D02*
X014242Y032294D01*
X014249Y032217D02*
X018268Y032217D01*
X018260Y032139D02*
X014234Y032139D01*
X014192Y032062D02*
X018274Y032062D01*
X018316Y031985D02*
X014083Y031985D01*
X013898Y031985D02*
X009307Y031985D01*
X009307Y032062D02*
X013790Y032062D01*
X013747Y032139D02*
X009307Y032139D01*
X009307Y032217D02*
X013733Y032217D01*
X013740Y032294D02*
X009307Y032294D01*
X009307Y032371D02*
X013772Y032371D01*
X013853Y032448D02*
X009307Y032448D01*
X009307Y032526D02*
X022259Y032526D01*
X022259Y032603D02*
X009307Y032603D01*
X009307Y032680D02*
X018411Y032680D01*
X018372Y032696D02*
X018467Y032657D01*
X018570Y032657D01*
X018665Y032696D01*
X018737Y032769D01*
X018777Y032864D01*
X018777Y032966D01*
X018737Y033061D01*
X018665Y033134D01*
X018570Y033173D01*
X018467Y033173D01*
X018372Y033134D01*
X018300Y033061D01*
X018260Y032966D01*
X018260Y032864D01*
X018300Y032769D01*
X018372Y032696D01*
X018311Y032757D02*
X009307Y032757D01*
X009307Y032835D02*
X018272Y032835D01*
X018260Y032912D02*
X009307Y032912D01*
X009307Y032989D02*
X018270Y032989D01*
X018305Y033066D02*
X009307Y033066D01*
X009307Y033144D02*
X018396Y033144D01*
X018641Y033144D02*
X022259Y033144D01*
X022259Y033221D02*
X009307Y033221D01*
X009307Y033298D02*
X022259Y033298D01*
X022259Y033375D02*
X009307Y033375D01*
X009307Y033452D02*
X022259Y033452D01*
X022259Y033530D02*
X009307Y033530D01*
X009307Y033607D02*
X022259Y033607D01*
X022259Y033684D02*
X009307Y033684D01*
X009307Y033761D02*
X022259Y033761D01*
X022259Y033839D02*
X009307Y033839D01*
X009307Y033916D02*
X022259Y033916D01*
X022259Y033993D02*
X009307Y033993D01*
X009307Y034070D02*
X022259Y034070D01*
X022259Y034148D02*
X009307Y034148D01*
X009307Y034225D02*
X022259Y034225D01*
X022259Y034302D02*
X009307Y034302D01*
X009307Y034379D02*
X022259Y034379D01*
X022259Y034457D02*
X009307Y034457D01*
X009307Y034534D02*
X022259Y034534D01*
X022259Y034611D02*
X009307Y034611D01*
X009307Y034688D02*
X022259Y034688D01*
X022259Y034766D02*
X009307Y034766D01*
X009307Y034843D02*
X022259Y034843D01*
X022259Y034920D02*
X009307Y034920D01*
X009307Y034997D02*
X022259Y034997D01*
X022259Y035075D02*
X009307Y035075D01*
X009307Y035152D02*
X022259Y035152D01*
X022259Y035229D02*
X009307Y035229D01*
X009307Y035306D02*
X022259Y035306D01*
X022259Y035383D02*
X009307Y035383D01*
X009307Y035461D02*
X022259Y035461D01*
X022259Y035538D02*
X009307Y035538D01*
X009307Y035615D02*
X022259Y035615D01*
X022259Y035692D02*
X009307Y035692D01*
X009307Y035770D02*
X022259Y035770D01*
X022259Y035847D02*
X009307Y035847D01*
X009307Y035924D02*
X022259Y035924D01*
X022259Y036001D02*
X009307Y036001D01*
X009307Y036079D02*
X022259Y036079D01*
X022259Y036156D02*
X009307Y036156D01*
X009307Y036233D02*
X022259Y036233D01*
X022259Y036310D02*
X009307Y036310D01*
X009307Y036388D02*
X022259Y036388D01*
X022259Y036465D02*
X009307Y036465D01*
X009307Y036542D02*
X022259Y036542D01*
X022259Y036619D02*
X009307Y036619D01*
X009307Y036697D02*
X022259Y036697D01*
X022259Y036774D02*
X009307Y036774D01*
X009307Y036851D02*
X022259Y036851D01*
X022259Y036928D02*
X009307Y036928D01*
X009307Y037006D02*
X022259Y037006D01*
X022259Y037083D02*
X009307Y037083D01*
X009307Y037160D02*
X022259Y037160D01*
X022259Y037237D02*
X009307Y037237D01*
X009307Y037315D02*
X022259Y037315D01*
X022259Y037392D02*
X009307Y037392D01*
X009307Y037469D02*
X022259Y037469D01*
X022259Y037546D02*
X009307Y037546D01*
X009307Y037623D02*
X022259Y037623D01*
X022259Y037701D02*
X009307Y037701D01*
X009307Y037778D02*
X015212Y037778D01*
X015219Y037775D02*
X015124Y037814D01*
X015052Y037887D01*
X015012Y037982D01*
X015012Y038084D01*
X015052Y038179D01*
X015124Y038252D01*
X015219Y038291D01*
X015322Y038291D01*
X015417Y038252D01*
X015489Y038179D01*
X015529Y038084D01*
X015529Y037982D01*
X015489Y037887D01*
X015417Y037814D01*
X015322Y037775D01*
X015219Y037775D01*
X015329Y037778D02*
X015999Y037778D01*
X016007Y037775D02*
X016109Y037775D01*
X016204Y037814D01*
X016277Y037887D01*
X016316Y037982D01*
X016316Y038084D01*
X016277Y038179D01*
X016204Y038252D01*
X016109Y038291D01*
X016007Y038291D01*
X015912Y038252D01*
X015839Y038179D01*
X015800Y038084D01*
X015800Y037982D01*
X015839Y037887D01*
X015912Y037814D01*
X016007Y037775D01*
X016116Y037778D02*
X016787Y037778D01*
X016794Y037775D02*
X016897Y037775D01*
X016991Y037814D01*
X017064Y037887D01*
X017103Y037982D01*
X017103Y038084D01*
X017064Y038179D01*
X016991Y038252D01*
X016897Y038291D01*
X016794Y038291D01*
X016699Y038252D01*
X016626Y038179D01*
X016587Y038084D01*
X016587Y037982D01*
X016626Y037887D01*
X016699Y037814D01*
X016794Y037775D01*
X016904Y037778D02*
X017574Y037778D01*
X017581Y037775D02*
X017684Y037775D01*
X017779Y037814D01*
X017851Y037887D01*
X017891Y037982D01*
X017891Y038084D01*
X017851Y038179D01*
X017779Y038252D01*
X017684Y038291D01*
X017581Y038291D01*
X017486Y038252D01*
X017414Y038179D01*
X017375Y038084D01*
X017375Y037982D01*
X017414Y037887D01*
X017486Y037814D01*
X017581Y037775D01*
X017691Y037778D02*
X018362Y037778D01*
X018369Y037775D02*
X018471Y037775D01*
X018566Y037814D01*
X018639Y037887D01*
X018678Y037982D01*
X018678Y038084D01*
X018639Y038179D01*
X018566Y038252D01*
X018471Y038291D01*
X018369Y038291D01*
X018274Y038252D01*
X018201Y038179D01*
X018162Y038084D01*
X018162Y037982D01*
X018201Y037887D01*
X018274Y037814D01*
X018369Y037775D01*
X018479Y037778D02*
X022259Y037778D01*
X022259Y037855D02*
X018607Y037855D01*
X018658Y037932D02*
X022259Y037932D01*
X022259Y038010D02*
X018678Y038010D01*
X018677Y038087D02*
X022259Y038087D01*
X022259Y038164D02*
X018645Y038164D01*
X018577Y038241D02*
X022259Y038241D01*
X022259Y038319D02*
X009307Y038319D01*
X009307Y038396D02*
X022259Y038396D01*
X022259Y038473D02*
X009307Y038473D01*
X009307Y038550D02*
X022259Y038550D01*
X022259Y038628D02*
X009307Y038628D01*
X009307Y038705D02*
X022259Y038705D01*
X022259Y038782D02*
X009307Y038782D01*
X009307Y038859D02*
X020866Y038859D01*
X020768Y038900D02*
X021033Y038790D01*
X021319Y038790D01*
X021583Y038900D01*
X021786Y039102D01*
X021895Y039366D01*
X021895Y039653D01*
X021786Y039917D01*
X021583Y040119D01*
X021319Y040229D01*
X021033Y040229D01*
X020768Y040119D01*
X020566Y039917D01*
X020457Y039653D01*
X020457Y039366D01*
X020566Y039102D01*
X020768Y038900D01*
X020732Y038937D02*
X009307Y038937D01*
X009307Y039014D02*
X020654Y039014D01*
X020577Y039091D02*
X009307Y039091D01*
X009307Y039168D02*
X013607Y039168D01*
X013644Y039153D02*
X013747Y039153D01*
X013842Y039192D01*
X013914Y039265D01*
X013954Y039360D01*
X013954Y039462D01*
X013914Y039557D01*
X013842Y039630D01*
X013747Y039669D01*
X013644Y039669D01*
X013549Y039630D01*
X013477Y039557D01*
X013438Y039462D01*
X013438Y039360D01*
X013477Y039265D01*
X013549Y039192D01*
X013644Y039153D01*
X013784Y039168D02*
X020539Y039168D01*
X020507Y039246D02*
X013895Y039246D01*
X013938Y039323D02*
X020475Y039323D01*
X020457Y039400D02*
X013954Y039400D01*
X013948Y039477D02*
X020457Y039477D01*
X020457Y039554D02*
X013916Y039554D01*
X013837Y039632D02*
X020457Y039632D01*
X020480Y039709D02*
X009307Y039709D01*
X009307Y039786D02*
X020512Y039786D01*
X020544Y039863D02*
X009307Y039863D01*
X009307Y039941D02*
X012364Y039941D01*
X012365Y039940D02*
X012467Y039940D01*
X012562Y039980D01*
X012635Y040052D01*
X012674Y040147D01*
X012674Y040250D01*
X012635Y040345D01*
X012562Y040417D01*
X012467Y040457D01*
X012365Y040457D01*
X012270Y040417D01*
X012197Y040345D01*
X012158Y040250D01*
X012158Y040147D01*
X012197Y040052D01*
X012270Y039980D01*
X012365Y039940D01*
X012468Y039941D02*
X020590Y039941D01*
X020667Y040018D02*
X012601Y040018D01*
X012653Y040095D02*
X020744Y040095D01*
X020897Y040172D02*
X012674Y040172D01*
X012674Y040250D02*
X022259Y040250D01*
X022259Y040327D02*
X012642Y040327D01*
X012575Y040404D02*
X022259Y040404D01*
X022259Y040481D02*
X009307Y040481D01*
X009307Y040404D02*
X012257Y040404D01*
X012190Y040327D02*
X009307Y040327D01*
X009307Y040250D02*
X012158Y040250D01*
X012158Y040172D02*
X009307Y040172D01*
X009307Y040095D02*
X012180Y040095D01*
X012232Y040018D02*
X009307Y040018D01*
X009168Y040018D02*
X004362Y040018D01*
X004285Y040095D02*
X009168Y040095D01*
X009168Y040172D02*
X004132Y040172D01*
X004261Y040119D02*
X003996Y040229D01*
X003710Y040229D01*
X003446Y040119D01*
X003243Y039917D01*
X003134Y039653D01*
X003134Y039366D01*
X003243Y039102D01*
X003446Y038900D01*
X003710Y038790D01*
X003996Y038790D01*
X004261Y038900D01*
X004463Y039102D01*
X004573Y039366D01*
X004573Y039653D01*
X004463Y039917D01*
X004261Y040119D01*
X004439Y039941D02*
X009168Y039941D01*
X009168Y039863D02*
X004485Y039863D01*
X004517Y039786D02*
X009168Y039786D01*
X009168Y039709D02*
X004549Y039709D01*
X004573Y039632D02*
X009168Y039632D01*
X009168Y039554D02*
X004573Y039554D01*
X004573Y039477D02*
X009168Y039477D01*
X009168Y039400D02*
X004573Y039400D01*
X004554Y039323D02*
X009168Y039323D01*
X009168Y039246D02*
X004522Y039246D01*
X004490Y039168D02*
X009168Y039168D01*
X009168Y039091D02*
X004452Y039091D01*
X004375Y039014D02*
X009168Y039014D01*
X009168Y038937D02*
X004298Y038937D01*
X004163Y038859D02*
X009168Y038859D01*
X009168Y038782D02*
X002811Y038782D01*
X002811Y038705D02*
X009168Y038705D01*
X009168Y038628D02*
X002811Y038628D01*
X002811Y038550D02*
X009168Y038550D01*
X009168Y038473D02*
X002811Y038473D01*
X002811Y038396D02*
X009168Y038396D01*
X009168Y038319D02*
X002811Y038319D01*
X002811Y038241D02*
X009168Y038241D01*
X009168Y038164D02*
X002811Y038164D01*
X002811Y038087D02*
X009168Y038087D01*
X009168Y038010D02*
X002811Y038010D01*
X002811Y037932D02*
X009168Y037932D01*
X009168Y037855D02*
X002811Y037855D01*
X002811Y037778D02*
X009168Y037778D01*
X009168Y037701D02*
X002811Y037701D01*
X002811Y037623D02*
X009168Y037623D01*
X009168Y037546D02*
X002811Y037546D01*
X002811Y037469D02*
X009168Y037469D01*
X009168Y037392D02*
X002811Y037392D01*
X002811Y037315D02*
X009168Y037315D01*
X009168Y037237D02*
X002811Y037237D01*
X002811Y037160D02*
X003402Y037160D01*
X003412Y037169D02*
X003339Y037097D01*
X003300Y037002D01*
X003300Y036899D01*
X003339Y036804D01*
X003412Y036732D01*
X003507Y036692D01*
X003609Y036692D01*
X003704Y036732D01*
X003777Y036804D01*
X003816Y036899D01*
X003816Y037002D01*
X003777Y037097D01*
X003704Y037169D01*
X003609Y037209D01*
X003507Y037209D01*
X003412Y037169D01*
X003333Y037083D02*
X002811Y037083D01*
X002811Y037006D02*
X003301Y037006D01*
X003300Y036928D02*
X002811Y036928D01*
X002811Y036851D02*
X003320Y036851D01*
X003369Y036774D02*
X002811Y036774D01*
X002811Y036697D02*
X003496Y036697D01*
X003620Y036697D02*
X006252Y036697D01*
X006262Y036692D02*
X006365Y036692D01*
X006460Y036732D01*
X006533Y036804D01*
X006572Y036899D01*
X006572Y037002D01*
X006533Y037097D01*
X006460Y037169D01*
X006365Y037209D01*
X006262Y037209D01*
X006168Y037169D01*
X006095Y037097D01*
X006056Y037002D01*
X006056Y036899D01*
X006095Y036804D01*
X006168Y036732D01*
X006262Y036692D01*
X006375Y036697D02*
X008024Y036697D01*
X008034Y036692D02*
X008137Y036692D01*
X008232Y036732D01*
X008304Y036804D01*
X008344Y036899D01*
X008344Y037002D01*
X008304Y037097D01*
X008232Y037169D01*
X008137Y037209D01*
X008034Y037209D01*
X007939Y037169D01*
X007867Y037097D01*
X007827Y037002D01*
X007827Y036899D01*
X007867Y036804D01*
X007939Y036732D01*
X008034Y036692D01*
X008147Y036697D02*
X009168Y036697D01*
X009168Y036774D02*
X008274Y036774D01*
X008324Y036851D02*
X009168Y036851D01*
X009168Y036928D02*
X008344Y036928D01*
X008342Y037006D02*
X009168Y037006D01*
X009168Y037083D02*
X008310Y037083D01*
X008241Y037160D02*
X009168Y037160D01*
X009168Y036619D02*
X002811Y036619D01*
X002811Y036542D02*
X009168Y036542D01*
X009168Y036465D02*
X002811Y036465D01*
X002811Y036388D02*
X009168Y036388D01*
X009168Y036310D02*
X002811Y036310D01*
X002811Y036233D02*
X009168Y036233D01*
X009168Y036156D02*
X008162Y036156D01*
X008133Y036185D02*
X008038Y036224D01*
X007936Y036224D01*
X007841Y036185D01*
X007768Y036112D01*
X007729Y036017D01*
X007729Y035915D01*
X007768Y035820D01*
X007841Y035747D01*
X007936Y035708D01*
X008038Y035708D01*
X008133Y035747D01*
X008206Y035820D01*
X008245Y035915D01*
X008245Y036017D01*
X008206Y036112D01*
X008133Y036185D01*
X008220Y036079D02*
X009168Y036079D01*
X009168Y036001D02*
X008245Y036001D01*
X008245Y035924D02*
X009168Y035924D01*
X009168Y035847D02*
X008217Y035847D01*
X008156Y035770D02*
X009168Y035770D01*
X009168Y035692D02*
X002811Y035692D01*
X002811Y035615D02*
X009168Y035615D01*
X009168Y035538D02*
X002811Y035538D01*
X002811Y035461D02*
X009168Y035461D01*
X009168Y035383D02*
X002811Y035383D01*
X002811Y035306D02*
X009168Y035306D01*
X009168Y035229D02*
X002811Y035229D01*
X002811Y035152D02*
X009168Y035152D01*
X009168Y035075D02*
X002811Y035075D01*
X002811Y034997D02*
X009168Y034997D01*
X009168Y034920D02*
X002811Y034920D01*
X002811Y034843D02*
X009168Y034843D01*
X009168Y034766D02*
X002811Y034766D01*
X002811Y034688D02*
X009168Y034688D01*
X009168Y034611D02*
X004981Y034611D01*
X004984Y034610D02*
X004889Y034649D01*
X004786Y034649D01*
X004691Y034610D01*
X004619Y034538D01*
X004579Y034443D01*
X004579Y034340D01*
X004619Y034245D01*
X004691Y034173D01*
X004786Y034133D01*
X004889Y034133D01*
X004984Y034173D01*
X005056Y034245D01*
X005096Y034340D01*
X005096Y034443D01*
X005056Y034538D01*
X004984Y034610D01*
X005058Y034534D02*
X009168Y034534D01*
X009168Y034457D02*
X005090Y034457D01*
X005096Y034379D02*
X009168Y034379D01*
X009168Y034302D02*
X005080Y034302D01*
X005036Y034225D02*
X009168Y034225D01*
X009168Y034148D02*
X004924Y034148D01*
X004751Y034148D02*
X002811Y034148D01*
X002811Y034225D02*
X004639Y034225D01*
X004595Y034302D02*
X002811Y034302D01*
X002811Y034379D02*
X004579Y034379D01*
X004585Y034457D02*
X002811Y034457D01*
X002811Y034534D02*
X004617Y034534D01*
X004693Y034611D02*
X002811Y034611D01*
X002811Y034070D02*
X009168Y034070D01*
X009168Y033993D02*
X002811Y033993D01*
X002811Y033916D02*
X009168Y033916D01*
X009168Y033839D02*
X002811Y033839D01*
X002811Y033761D02*
X009168Y033761D01*
X009168Y033684D02*
X002811Y033684D01*
X002811Y033607D02*
X009168Y033607D01*
X009168Y033530D02*
X002811Y033530D01*
X002811Y033452D02*
X009168Y033452D01*
X009168Y033375D02*
X002811Y033375D01*
X002811Y033298D02*
X009168Y033298D01*
X009168Y033221D02*
X005487Y033221D01*
X005476Y033232D02*
X005381Y033271D01*
X005278Y033271D01*
X005183Y033232D01*
X005111Y033160D01*
X005071Y033065D01*
X005071Y032962D01*
X005111Y032867D01*
X005183Y032795D01*
X005278Y032755D01*
X005381Y032755D01*
X005476Y032795D01*
X005548Y032867D01*
X005588Y032962D01*
X005588Y033065D01*
X005548Y033160D01*
X005476Y033232D01*
X005555Y033144D02*
X009168Y033144D01*
X009168Y033066D02*
X005587Y033066D01*
X005588Y032989D02*
X009168Y032989D01*
X009168Y032912D02*
X005567Y032912D01*
X005516Y032835D02*
X009168Y032835D01*
X009168Y032757D02*
X005386Y032757D01*
X005273Y032757D02*
X002811Y032757D01*
X002811Y032680D02*
X009168Y032680D01*
X009168Y032603D02*
X002811Y032603D01*
X002811Y032526D02*
X009168Y032526D01*
X009168Y032448D02*
X002811Y032448D01*
X002811Y032371D02*
X009168Y032371D01*
X009168Y032294D02*
X002811Y032294D01*
X002811Y032217D02*
X009168Y032217D01*
X009168Y032139D02*
X002811Y032139D01*
X002811Y032835D02*
X005143Y032835D01*
X005092Y032912D02*
X002811Y032912D01*
X002811Y032989D02*
X005071Y032989D01*
X005072Y033066D02*
X002811Y033066D01*
X002811Y033144D02*
X005104Y033144D01*
X005172Y033221D02*
X002811Y033221D01*
X002811Y035770D02*
X004767Y035770D01*
X004790Y035747D02*
X004884Y035708D01*
X004987Y035708D01*
X005082Y035747D01*
X005155Y035820D01*
X005194Y035915D01*
X005194Y036017D01*
X005155Y036112D01*
X005082Y036185D01*
X004987Y036224D01*
X004884Y036224D01*
X004790Y036185D01*
X004717Y036112D01*
X004678Y036017D01*
X004678Y035915D01*
X004717Y035820D01*
X004790Y035747D01*
X004706Y035847D02*
X002811Y035847D01*
X002811Y035924D02*
X004678Y035924D01*
X004678Y036001D02*
X002811Y036001D01*
X002811Y036079D02*
X004703Y036079D01*
X004761Y036156D02*
X002811Y036156D01*
X003746Y036774D02*
X006125Y036774D01*
X006076Y036851D02*
X003796Y036851D01*
X003816Y036928D02*
X006056Y036928D01*
X006057Y037006D02*
X003814Y037006D01*
X003782Y037083D02*
X006089Y037083D01*
X006158Y037160D02*
X003713Y037160D01*
X005111Y036156D02*
X007812Y036156D01*
X007754Y036079D02*
X005169Y036079D01*
X005194Y036001D02*
X007729Y036001D01*
X007729Y035924D02*
X005194Y035924D01*
X005166Y035847D02*
X007757Y035847D01*
X007818Y035770D02*
X005104Y035770D01*
X006502Y036774D02*
X007897Y036774D01*
X007847Y036851D02*
X006552Y036851D01*
X006572Y036928D02*
X007827Y036928D01*
X007829Y037006D02*
X006570Y037006D01*
X006538Y037083D02*
X007861Y037083D01*
X007930Y037160D02*
X006469Y037160D01*
X009307Y037855D02*
X015083Y037855D01*
X015033Y037932D02*
X009307Y037932D01*
X009307Y038010D02*
X015012Y038010D01*
X015013Y038087D02*
X009307Y038087D01*
X009307Y038164D02*
X015045Y038164D01*
X015114Y038241D02*
X009307Y038241D01*
X009307Y039246D02*
X013496Y039246D01*
X013453Y039323D02*
X009307Y039323D01*
X009307Y039400D02*
X013438Y039400D01*
X013444Y039477D02*
X009307Y039477D01*
X009307Y039554D02*
X013476Y039554D01*
X013554Y039632D02*
X009307Y039632D01*
X009168Y040250D02*
X002811Y040250D01*
X002811Y040327D02*
X009168Y040327D01*
X009168Y040404D02*
X002811Y040404D01*
X002811Y040481D02*
X009168Y040481D01*
X003574Y040172D02*
X002811Y040172D01*
X002811Y040095D02*
X003422Y040095D01*
X003344Y040018D02*
X002811Y040018D01*
X002811Y039941D02*
X003267Y039941D01*
X003221Y039863D02*
X002811Y039863D01*
X002811Y039786D02*
X003189Y039786D01*
X003157Y039709D02*
X002811Y039709D01*
X002811Y039632D02*
X003134Y039632D01*
X003134Y039554D02*
X002811Y039554D01*
X002811Y039477D02*
X003134Y039477D01*
X003134Y039400D02*
X002811Y039400D01*
X002811Y039323D02*
X003152Y039323D01*
X003184Y039246D02*
X002811Y039246D01*
X002811Y039168D02*
X003216Y039168D01*
X003254Y039091D02*
X002811Y039091D01*
X002811Y039014D02*
X003331Y039014D01*
X003409Y038937D02*
X002811Y038937D01*
X002811Y038859D02*
X003543Y038859D01*
X008921Y031362D02*
X008993Y031290D01*
X009025Y031213D02*
X009168Y031213D01*
X009168Y031135D02*
X009033Y031135D01*
X009018Y031058D02*
X009168Y031058D01*
X009168Y030981D02*
X008977Y030981D01*
X009307Y030904D02*
X022259Y030904D01*
X022259Y030826D02*
X009307Y030826D01*
X009168Y030208D02*
X002811Y030208D01*
X002811Y030131D02*
X009168Y030131D01*
X009168Y030054D02*
X002811Y030054D01*
X002811Y029977D02*
X009168Y029977D01*
X009168Y029899D02*
X002811Y029899D01*
X002811Y029822D02*
X009168Y029822D01*
X009168Y029745D02*
X002811Y029745D01*
X002811Y029668D02*
X009168Y029668D01*
X007897Y029590D02*
X007802Y029630D01*
X007699Y029630D01*
X007605Y029590D01*
X007503Y029590D01*
X007554Y029540D01*
X007605Y029590D01*
X007503Y029590D02*
X007408Y029630D01*
X007306Y029630D01*
X007211Y029590D01*
X002811Y029590D01*
X002811Y029513D02*
X007136Y029513D01*
X007138Y029518D02*
X007099Y029423D01*
X007099Y029320D01*
X007138Y029225D01*
X007189Y029175D01*
X007138Y029124D01*
X007099Y029029D01*
X007099Y028927D01*
X007138Y028832D01*
X007211Y028759D01*
X007306Y028720D01*
X007408Y028720D01*
X007503Y028759D01*
X007554Y028810D01*
X007605Y028759D01*
X007699Y028720D01*
X007802Y028720D01*
X007897Y028759D01*
X007649Y028741D02*
X007459Y028741D01*
X007255Y028741D02*
X002811Y028741D01*
X002811Y028818D02*
X007152Y028818D01*
X007112Y028895D02*
X002811Y028895D01*
X002811Y028973D02*
X007099Y028973D01*
X007107Y029050D02*
X002811Y029050D01*
X002811Y029127D02*
X007141Y029127D01*
X007159Y029204D02*
X002811Y029204D01*
X002811Y029281D02*
X007115Y029281D01*
X007099Y029359D02*
X002811Y029359D01*
X002811Y029436D02*
X007104Y029436D01*
X007138Y029518D02*
X007211Y029590D01*
X007865Y028432D02*
X006453Y028432D01*
X006453Y028355D02*
X007833Y028355D01*
X007827Y028277D02*
X006453Y028277D01*
X006453Y028200D02*
X007843Y028200D01*
X007886Y028123D02*
X006453Y028123D01*
X006453Y028046D02*
X007998Y028046D01*
X006314Y028046D02*
X002811Y028046D01*
X002811Y028123D02*
X006314Y028123D01*
X006314Y028200D02*
X002811Y028200D01*
X002811Y028277D02*
X006314Y028277D01*
X006314Y028355D02*
X002811Y028355D01*
X002811Y027968D02*
X006314Y027968D01*
X006314Y027891D02*
X002811Y027891D01*
X002811Y027814D02*
X006314Y027814D01*
X006314Y027737D02*
X002811Y027737D01*
X002811Y027659D02*
X006314Y027659D01*
X006314Y027582D02*
X002811Y027582D01*
X002811Y027505D02*
X006314Y027505D01*
X004159Y021944D02*
X004154Y021944D01*
X004546Y020553D02*
X005810Y020553D01*
X005909Y020476D02*
X004649Y020476D01*
X013853Y030286D02*
X014267Y030286D01*
X014222Y030363D02*
X013909Y030363D01*
X013934Y030440D02*
X014205Y030440D01*
X014210Y030517D02*
X013934Y030517D01*
X013905Y030595D02*
X014242Y030595D01*
X014316Y030672D02*
X013843Y030672D01*
X018626Y032680D02*
X022259Y032680D01*
X022259Y032757D02*
X018726Y032757D01*
X018765Y032835D02*
X022259Y032835D01*
X022259Y032912D02*
X018777Y032912D01*
X018767Y032989D02*
X022259Y032989D01*
X022259Y033066D02*
X018732Y033066D01*
X020149Y029977D02*
X022259Y029977D01*
X022259Y029899D02*
X020219Y029899D01*
X020251Y029822D02*
X022259Y029822D01*
X022259Y029745D02*
X020253Y029745D01*
X020234Y029668D02*
X022259Y029668D01*
X022259Y029590D02*
X020185Y029590D01*
X018233Y037855D02*
X017820Y037855D01*
X017870Y037932D02*
X018182Y037932D01*
X018162Y038010D02*
X017891Y038010D01*
X017890Y038087D02*
X018163Y038087D01*
X018195Y038164D02*
X017858Y038164D01*
X017789Y038241D02*
X018263Y038241D01*
X017476Y038241D02*
X017002Y038241D01*
X017070Y038164D02*
X017408Y038164D01*
X017376Y038087D02*
X017102Y038087D01*
X017103Y038010D02*
X017375Y038010D01*
X017395Y037932D02*
X017083Y037932D01*
X017032Y037855D02*
X017446Y037855D01*
X016658Y037855D02*
X016245Y037855D01*
X016296Y037932D02*
X016608Y037932D01*
X016587Y038010D02*
X016316Y038010D01*
X016315Y038087D02*
X016588Y038087D01*
X016620Y038164D02*
X016283Y038164D01*
X016215Y038241D02*
X016689Y038241D01*
X015901Y038241D02*
X015427Y038241D01*
X015496Y038164D02*
X015833Y038164D01*
X015801Y038087D02*
X015528Y038087D01*
X015529Y038010D02*
X015800Y038010D01*
X015820Y037932D02*
X015508Y037932D01*
X015458Y037855D02*
X015871Y037855D01*
X021486Y038859D02*
X022259Y038859D01*
X022259Y038937D02*
X021620Y038937D01*
X021698Y039014D02*
X022259Y039014D01*
X022259Y039091D02*
X021775Y039091D01*
X021813Y039168D02*
X022259Y039168D01*
X022259Y039246D02*
X021845Y039246D01*
X021877Y039323D02*
X022259Y039323D01*
X022259Y039400D02*
X021895Y039400D01*
X021895Y039477D02*
X022259Y039477D01*
X022259Y039554D02*
X021895Y039554D01*
X021895Y039632D02*
X022259Y039632D01*
X022259Y039709D02*
X021872Y039709D01*
X021840Y039786D02*
X022259Y039786D01*
X022259Y039863D02*
X021808Y039863D01*
X021762Y039941D02*
X022259Y039941D01*
X022259Y040018D02*
X021685Y040018D01*
X021608Y040095D02*
X022259Y040095D01*
X022259Y040172D02*
X021455Y040172D01*
M02*
