G75*
G70*
%OFA0B0*%
%FSLAX24Y24*%
%IPPOS*%
%LPD*%
%AMOC8*
5,1,8,0,0,1.08239X$1,22.5*
%
%ADD10R,0.0709X0.0748*%
%ADD11R,0.0906X0.0748*%
%ADD12R,0.0157X0.0551*%
%ADD13R,0.2638X0.0748*%
%ADD14R,0.0433X0.0748*%
%ADD15R,0.0748X0.0748*%
%ADD16R,0.0394X0.0472*%
%ADD17R,0.0276X0.0472*%
%ADD18R,0.0394X0.0433*%
%ADD19R,0.0433X0.0394*%
%ADD20R,0.0394X0.0138*%
%ADD21R,0.0138X0.0394*%
%ADD22R,0.0850X0.0850*%
%ADD23R,0.0630X0.0512*%
%ADD24R,0.1000X0.0300*%
%ADD25R,0.0600X0.1600*%
%ADD26R,0.0315X0.0315*%
%ADD27R,0.0827X0.0551*%
%ADD28R,0.0110X0.0335*%
%ADD29R,0.1358X0.1358*%
%ADD30R,0.0335X0.0110*%
%ADD31R,0.0591X0.0197*%
%ADD32R,0.0551X0.0827*%
%ADD33R,0.1772X0.1772*%
%ADD34R,0.0551X0.0866*%
%ADD35R,0.0551X0.0945*%
D10*
X009260Y036430D03*
X010166Y036430D03*
D11*
X011189Y036430D03*
X008237Y036430D03*
D12*
X009201Y035307D03*
X009457Y035307D03*
X009713Y035307D03*
X009969Y035307D03*
X010225Y035307D03*
D13*
X009382Y031430D03*
D14*
X009422Y028989D03*
D15*
X010445Y028989D03*
X008319Y028989D03*
D16*
X013918Y031107D03*
D17*
X014528Y031107D03*
X014961Y031107D03*
X015394Y031107D03*
X015827Y031107D03*
X016260Y031107D03*
X016693Y031107D03*
X017126Y031107D03*
X017559Y031107D03*
X017993Y031107D03*
D18*
X011406Y029520D03*
X011406Y028851D03*
X007784Y032174D03*
X007784Y032843D03*
X008807Y021347D03*
X008807Y020678D03*
X008059Y021012D03*
X007390Y021012D03*
X007252Y019477D03*
X007252Y018807D03*
X009674Y016741D03*
X010343Y016741D03*
X010618Y017961D03*
X009949Y017961D03*
X010284Y018985D03*
X010284Y019654D03*
X010973Y019674D03*
X010973Y019004D03*
X013158Y019201D03*
X013158Y019870D03*
X013178Y018689D03*
X013178Y018020D03*
X013654Y017244D03*
X013827Y018020D03*
X013827Y018689D03*
X014323Y017244D03*
X015205Y017272D03*
X015205Y017941D03*
X016071Y017981D03*
X016071Y017311D03*
X015678Y016800D03*
X015678Y016130D03*
X016465Y016130D03*
X016465Y016800D03*
X012272Y015579D03*
X012272Y014910D03*
X012292Y013571D03*
X012292Y012902D03*
X012292Y012390D03*
X012292Y011721D03*
X012252Y009634D03*
X012252Y008965D03*
D19*
X010933Y013433D03*
X010914Y014339D03*
X011583Y014339D03*
X011603Y015087D03*
X012272Y014221D03*
X011603Y013433D03*
X010933Y015087D03*
X012941Y014221D03*
X012981Y011071D03*
X012981Y010284D03*
X012311Y010284D03*
X012311Y011071D03*
X014674Y018571D03*
X015343Y018571D03*
X013926Y019201D03*
X013926Y019870D03*
X014280Y020520D03*
X014949Y020520D03*
X014937Y021331D03*
X014516Y021957D03*
X013847Y021957D03*
X014268Y021331D03*
X014063Y023670D03*
X013394Y023670D03*
X011170Y024811D03*
X011170Y025481D03*
X010520Y024556D03*
X010134Y023752D03*
X009465Y023752D03*
X009457Y022981D03*
X010126Y022981D03*
X009851Y024556D03*
X008059Y024949D03*
X007390Y024949D03*
X007390Y024162D03*
X008059Y024162D03*
X008059Y023374D03*
X007390Y023374D03*
X007390Y022587D03*
X008059Y022587D03*
X008059Y021800D03*
X007390Y021800D03*
X009378Y020638D03*
X010048Y020638D03*
X018453Y016721D03*
X018453Y016052D03*
X021012Y018237D03*
X021681Y018237D03*
X022646Y014418D03*
X023315Y014418D03*
X023611Y023965D03*
X022941Y023965D03*
X022941Y024752D03*
X022981Y025304D03*
X022981Y025973D03*
X023611Y024752D03*
X023642Y027359D03*
X023642Y028146D03*
X024311Y028146D03*
X024311Y027359D03*
X009292Y032945D03*
X009292Y033615D03*
D20*
X011056Y017569D03*
X011056Y017313D03*
X011056Y017057D03*
X011056Y016802D03*
X012552Y016802D03*
X012552Y017057D03*
X012552Y017313D03*
X012552Y017569D03*
D21*
X012187Y017933D03*
X011931Y017933D03*
X011676Y017933D03*
X011420Y017933D03*
X011420Y016437D03*
X011676Y016437D03*
X011931Y016437D03*
X012187Y016437D03*
D22*
X011804Y017185D03*
D23*
X009552Y018815D03*
X009552Y019721D03*
X008056Y019721D03*
X008056Y018815D03*
D24*
X016370Y023028D03*
X016370Y023528D03*
X016370Y024028D03*
X016370Y024528D03*
X016370Y025028D03*
X018520Y025028D03*
X018520Y024528D03*
X018520Y024028D03*
X018520Y023528D03*
X018528Y023028D03*
D25*
X013209Y007713D03*
X012209Y007713D03*
X011209Y007713D03*
D26*
X018453Y014811D03*
X018453Y015402D03*
X010579Y025441D03*
X009989Y025441D03*
X009241Y034142D03*
X009241Y034733D03*
D27*
X012331Y027902D03*
X012331Y026130D03*
X015914Y026130D03*
X015914Y027902D03*
D28*
X012744Y022882D03*
X012548Y022882D03*
X012351Y022882D03*
X012154Y022882D03*
X011957Y022882D03*
X011760Y022882D03*
X011563Y022882D03*
X011367Y022882D03*
X011170Y022882D03*
X010973Y022882D03*
X010973Y020520D03*
X011170Y020520D03*
X011367Y020520D03*
X011563Y020520D03*
X011760Y020520D03*
X011957Y020520D03*
X012154Y020520D03*
X012351Y020520D03*
X012548Y020520D03*
X012744Y020520D03*
X021154Y026176D03*
X021351Y026176D03*
X021548Y026176D03*
X021744Y026176D03*
X021941Y026176D03*
X022138Y026176D03*
X022335Y026176D03*
X022532Y026176D03*
X022532Y028124D03*
X022335Y028124D03*
X022138Y028124D03*
X021941Y028124D03*
X021744Y028124D03*
X021548Y028124D03*
X021351Y028124D03*
X021154Y028124D03*
D29*
X021843Y027150D03*
D30*
X022817Y027248D03*
X022817Y027052D03*
X022817Y026855D03*
X022817Y026658D03*
X022817Y026461D03*
X022817Y027445D03*
X022817Y027642D03*
X022817Y027839D03*
X020868Y027839D03*
X020868Y027642D03*
X020868Y027445D03*
X020868Y027248D03*
X020868Y027052D03*
X020868Y026855D03*
X020868Y026658D03*
X020868Y026461D03*
X013040Y022587D03*
X013040Y022390D03*
X013040Y022193D03*
X013040Y021996D03*
X013040Y021800D03*
X013040Y021603D03*
X013040Y021406D03*
X013040Y021209D03*
X013040Y021012D03*
X013040Y020815D03*
X010678Y020815D03*
X010678Y021012D03*
X010678Y021209D03*
X010678Y021406D03*
X010678Y021603D03*
X010678Y021800D03*
X010678Y021996D03*
X010678Y022193D03*
X010678Y022390D03*
X010678Y022587D03*
D31*
X020471Y022685D03*
X020471Y022185D03*
X020471Y021685D03*
X020471Y021185D03*
X020471Y020685D03*
X020471Y020185D03*
X020471Y023185D03*
X022735Y023185D03*
X022735Y022685D03*
X022735Y022185D03*
X022735Y021685D03*
X022735Y021185D03*
X022735Y020685D03*
X022735Y020185D03*
D32*
X021406Y017390D03*
X019634Y017390D03*
X019634Y013807D03*
X021406Y013807D03*
D33*
X011859Y021701D03*
D34*
X022363Y017922D03*
X023363Y017922D03*
X023363Y015441D03*
D35*
X022363Y015441D03*
M02*
