G75*
G70*
%OFA0B0*%
%FSLAX24Y24*%
%IPPOS*%
%LPD*%
%AMOC8*
5,1,8,0,0,1.08239X$1,22.5*
%
%ADD10R,0.1673X0.0591*%
%ADD11R,0.0394X0.0394*%
%ADD12R,0.0276X0.0098*%
%ADD13R,0.0098X0.0276*%
%ADD14C,0.0122*%
%ADD15R,0.0591X0.0433*%
%ADD16R,0.0354X0.0315*%
%ADD17R,0.0394X0.0650*%
%ADD18R,0.0650X0.0394*%
D10*
X021373Y035950D03*
X021373Y037950D03*
D11*
X028656Y037639D03*
X029050Y037049D03*
X029444Y037639D03*
X029837Y037049D03*
X029542Y036261D03*
X030330Y036261D03*
X030822Y036261D03*
X031609Y036261D03*
X032101Y036261D03*
X032889Y036261D03*
X033381Y036557D03*
X034168Y036557D03*
X034660Y036557D03*
X034857Y037147D03*
X034070Y037147D03*
X034070Y037935D03*
X034857Y037935D03*
X034660Y038722D03*
X035251Y038919D03*
X034660Y039509D03*
X035251Y039706D03*
X035152Y040297D03*
X034660Y040297D03*
X033873Y040297D03*
X033873Y039509D03*
X033873Y038722D03*
X035940Y040297D03*
X035448Y036557D03*
X034168Y035769D03*
X033381Y035769D03*
X029444Y038427D03*
X029444Y039214D03*
X029444Y040002D03*
X030034Y040198D03*
X030822Y040198D03*
X028656Y040002D03*
X028656Y039214D03*
X028656Y038427D03*
D12*
X030861Y038525D03*
X030861Y038328D03*
X030861Y038131D03*
X030861Y038722D03*
X030861Y038919D03*
X030861Y039116D03*
X030861Y039313D03*
X030861Y039509D03*
X032849Y039509D03*
X032849Y039313D03*
X032849Y039116D03*
X032849Y038919D03*
X032849Y038722D03*
X032849Y038525D03*
X032849Y038328D03*
X032849Y038131D03*
D13*
X032593Y037777D03*
X032396Y037777D03*
X032200Y037777D03*
X032003Y037777D03*
X031806Y037777D03*
X031609Y037777D03*
X031412Y037777D03*
X031215Y037777D03*
X031215Y039864D03*
X031412Y039864D03*
X031609Y039864D03*
X031806Y039864D03*
X032003Y039864D03*
X032200Y039864D03*
X032396Y039864D03*
X032593Y039864D03*
D14*
X032453Y039369D02*
X031355Y039369D01*
X032453Y039369D02*
X032453Y038271D01*
X031355Y038271D01*
X031355Y039369D01*
X031355Y038392D02*
X032453Y038392D01*
X032453Y038513D02*
X031355Y038513D01*
X031355Y038634D02*
X032453Y038634D01*
X032453Y038755D02*
X031355Y038755D01*
X031355Y038876D02*
X032453Y038876D01*
X032453Y038997D02*
X031355Y038997D01*
X031355Y039118D02*
X032453Y039118D01*
X032453Y039239D02*
X031355Y039239D01*
X031355Y039360D02*
X032453Y039360D01*
D15*
X025507Y004864D03*
X025507Y005454D03*
X026688Y005454D03*
X026688Y004864D03*
X041648Y004864D03*
X041648Y005454D03*
X042830Y005454D03*
X042830Y004864D03*
X042830Y036557D03*
X042830Y037147D03*
X041648Y037147D03*
X041648Y036557D03*
X026688Y036557D03*
X026688Y037147D03*
X025507Y037147D03*
X025507Y036557D03*
D16*
X036038Y005435D03*
X036038Y004687D03*
X036038Y004155D03*
X036038Y003407D03*
X036038Y002876D03*
X036038Y002128D03*
X036865Y002502D03*
X036865Y003781D03*
X036865Y005061D03*
X032101Y004943D03*
X032101Y004194D03*
X032101Y003663D03*
X032101Y002915D03*
X032101Y002383D03*
X032101Y001635D03*
X031274Y002009D03*
X031274Y003289D03*
X031274Y004569D03*
D17*
X036924Y038181D03*
X037711Y038181D03*
X038499Y038181D03*
X039286Y038181D03*
X040074Y038181D03*
X040074Y040051D03*
X039286Y040051D03*
X038499Y040051D03*
X037711Y040051D03*
X036924Y040051D03*
D18*
X035005Y005651D03*
X035005Y004864D03*
X035005Y004076D03*
X035005Y003289D03*
X035005Y002502D03*
X033135Y002502D03*
X033135Y003289D03*
X033135Y004076D03*
X033135Y004864D03*
X033135Y005651D03*
M02*
