G75*
G70*
%OFA0B0*%
%FSLAX24Y24*%
%IPPOS*%
%LPD*%
%AMOC8*
5,1,8,0,0,1.08239X$1,22.5*
%
%ADD10R,0.1673X0.0591*%
%ADD11R,0.0394X0.0394*%
%ADD12R,0.0276X0.0098*%
%ADD13R,0.0098X0.0276*%
%ADD14C,0.0122*%
%ADD15R,0.0591X0.0433*%
%ADD16R,0.1378X0.1299*%
%ADD17R,0.0354X0.0315*%
%ADD18R,0.0394X0.0650*%
%ADD19R,0.0650X0.0394*%
%ADD20C,0.0317*%
%ADD21C,0.0079*%
%ADD22C,0.0118*%
%ADD23C,0.0157*%
%ADD24C,0.0197*%
%ADD25C,0.0394*%
D10*
X021373Y035950D03*
X021373Y037950D03*
D11*
X030625Y037639D03*
X031019Y037049D03*
X031806Y037049D03*
X031412Y037639D03*
X031412Y038427D03*
X031412Y039214D03*
X030625Y039214D03*
X030625Y038427D03*
X030625Y040002D03*
X031412Y040002D03*
X032003Y040198D03*
X032790Y040198D03*
X035841Y040297D03*
X035841Y039509D03*
X035841Y038722D03*
X036629Y038722D03*
X037219Y038919D03*
X036629Y039509D03*
X037219Y039706D03*
X037121Y040297D03*
X036629Y040297D03*
X037908Y040297D03*
X036826Y037935D03*
X036038Y037935D03*
X036038Y037147D03*
X036137Y036557D03*
X036629Y036557D03*
X036826Y037147D03*
X037416Y036557D03*
X036137Y035769D03*
X035349Y035769D03*
X034857Y036261D03*
X035349Y036557D03*
X034070Y036261D03*
X033578Y036261D03*
X032790Y036261D03*
X032298Y036261D03*
X031511Y036261D03*
D12*
X032830Y038131D03*
X032830Y038328D03*
X032830Y038525D03*
X032830Y038722D03*
X032830Y038919D03*
X032830Y039116D03*
X032830Y039313D03*
X032830Y039509D03*
X034818Y039509D03*
X034818Y039313D03*
X034818Y039116D03*
X034818Y038919D03*
X034818Y038722D03*
X034818Y038525D03*
X034818Y038328D03*
X034818Y038131D03*
D13*
X034562Y037777D03*
X034365Y037777D03*
X034168Y037777D03*
X033971Y037777D03*
X033774Y037777D03*
X033578Y037777D03*
X033381Y037777D03*
X033184Y037777D03*
X033184Y039864D03*
X033381Y039864D03*
X033578Y039864D03*
X033774Y039864D03*
X033971Y039864D03*
X034168Y039864D03*
X034365Y039864D03*
X034562Y039864D03*
D14*
X034422Y039369D02*
X033324Y039369D01*
X034422Y039369D02*
X034422Y038271D01*
X033324Y038271D01*
X033324Y039369D01*
X033324Y038392D02*
X034422Y038392D01*
X034422Y038513D02*
X033324Y038513D01*
X033324Y038634D02*
X034422Y038634D01*
X034422Y038755D02*
X033324Y038755D01*
X033324Y038876D02*
X034422Y038876D01*
X034422Y038997D02*
X033324Y038997D01*
X033324Y039118D02*
X034422Y039118D01*
X034422Y039239D02*
X033324Y039239D01*
X033324Y039360D02*
X034422Y039360D01*
D15*
X028656Y037147D03*
X028656Y036557D03*
X027475Y036557D03*
X027475Y037147D03*
X043617Y037147D03*
X043617Y036557D03*
X044798Y036557D03*
X044798Y037147D03*
X044798Y005454D03*
X044798Y004864D03*
X043617Y004864D03*
X043617Y005454D03*
X028656Y005454D03*
X028656Y004864D03*
X027475Y004864D03*
X027475Y005454D03*
D16*
X027081Y005887D03*
X027081Y004431D03*
X029050Y004431D03*
X029050Y005887D03*
X043223Y005887D03*
X043223Y004431D03*
X045192Y004431D03*
X045192Y005887D03*
X045192Y036124D03*
X045192Y037580D03*
X043223Y037580D03*
X043223Y036124D03*
X029050Y036124D03*
X029050Y037580D03*
X027081Y037580D03*
X027081Y036124D03*
D17*
X038007Y005435D03*
X038007Y004687D03*
X038007Y004155D03*
X038007Y003407D03*
X038007Y002876D03*
X038007Y002128D03*
X038833Y002502D03*
X038833Y003781D03*
X038833Y005061D03*
X034070Y004943D03*
X034070Y004194D03*
X033243Y004569D03*
X034070Y003663D03*
X034070Y002915D03*
X033243Y003289D03*
X034070Y002383D03*
X033243Y002009D03*
X034070Y001635D03*
D18*
X038893Y038181D03*
X039680Y038181D03*
X040467Y038181D03*
X041255Y038181D03*
X042042Y038181D03*
X042042Y040051D03*
X041255Y040051D03*
X040467Y040051D03*
X039680Y040051D03*
X038893Y040051D03*
D19*
X036973Y005651D03*
X036973Y004864D03*
X036973Y004076D03*
X036973Y003289D03*
X036973Y002502D03*
X035103Y002502D03*
X035103Y003289D03*
X035103Y004076D03*
X035103Y004864D03*
X035103Y005651D03*
D20*
X033243Y005907D03*
X033085Y006340D03*
X030920Y006340D03*
X030723Y005946D03*
X031117Y003781D03*
X030133Y003486D03*
X031806Y002502D03*
X028066Y005257D03*
X028066Y007423D03*
X021767Y007324D03*
X021767Y006537D03*
X019503Y006537D03*
X019404Y008210D03*
X020684Y009096D03*
X020487Y010671D03*
X020487Y011458D03*
X020093Y011950D03*
X019306Y011950D03*
X018519Y012639D03*
X019503Y013230D03*
X020585Y014313D03*
X020979Y014706D03*
X021373Y014706D03*
X021767Y014706D03*
X021767Y014313D03*
X021767Y015100D03*
X021767Y015494D03*
X021373Y016773D03*
X020684Y017069D03*
X020192Y016970D03*
X019700Y017069D03*
X019207Y016576D03*
X018715Y015887D03*
X017731Y016675D03*
X017436Y016970D03*
X017239Y017364D03*
X016845Y017856D03*
X016255Y018250D03*
X016255Y019037D03*
X016944Y019332D03*
X016747Y019824D03*
X015763Y019824D03*
X015467Y019037D03*
X014975Y019037D03*
X014975Y019824D03*
X014483Y020415D03*
X014188Y019824D03*
X014188Y019037D03*
X014975Y018250D03*
X015172Y016773D03*
X015664Y016773D03*
X016452Y016773D03*
X014385Y016773D03*
X013893Y016872D03*
X012613Y016675D03*
X012416Y017561D03*
X012613Y018053D03*
X012613Y018643D03*
X012613Y019332D03*
X011629Y019529D03*
X010841Y019037D03*
X010152Y018643D03*
X009562Y019135D03*
X008774Y019529D03*
X008578Y020710D03*
X008578Y021498D03*
X008774Y022383D03*
X009463Y023171D03*
X009562Y023958D03*
X010448Y023860D03*
X010448Y023072D03*
X011137Y023171D03*
X012515Y022679D03*
X013302Y022679D03*
X013499Y021301D03*
X012711Y021301D03*
X012908Y020513D03*
X013696Y020513D03*
X014483Y021202D03*
X015763Y021301D03*
X015763Y021793D03*
X015861Y020809D03*
X017436Y022187D03*
X017830Y022187D03*
X018420Y022482D03*
X018715Y022777D03*
X018814Y023269D03*
X019207Y022876D03*
X019207Y023663D03*
X019995Y023761D03*
X019995Y024549D03*
X018814Y024844D03*
X018814Y025435D03*
X018814Y026025D03*
X018223Y026025D03*
X017633Y026025D03*
X017633Y025435D03*
X018223Y025435D03*
X018223Y024844D03*
X017633Y024844D03*
X016550Y024844D03*
X016058Y024943D03*
X015270Y024943D03*
X014663Y025122D03*
X014106Y024566D03*
X013516Y025156D03*
X014072Y025713D03*
X014778Y025730D03*
X013991Y026714D03*
X013893Y027305D03*
X013893Y028092D03*
X013676Y029667D03*
X014463Y029667D03*
X014463Y030454D03*
X013676Y030474D03*
X013991Y031439D03*
X013991Y032226D03*
X013204Y032226D03*
X013204Y031439D03*
X015369Y029175D03*
X016156Y029273D03*
X016944Y029273D03*
X016845Y029864D03*
X016058Y029864D03*
X017239Y030848D03*
X017239Y031340D03*
X017239Y031832D03*
X016648Y032423D03*
X017239Y032915D03*
X017239Y033309D03*
X017239Y033801D03*
X017239Y034293D03*
X016648Y034785D03*
X017239Y035572D03*
X017239Y036065D03*
X017337Y036557D03*
X017633Y036950D03*
X018026Y037246D03*
X017633Y038033D03*
X018420Y038033D03*
X018912Y037541D03*
X019404Y037541D03*
X019896Y037541D03*
X020389Y037541D03*
X020979Y037935D03*
X021471Y037935D03*
X021963Y037935D03*
X020389Y036360D03*
X019896Y036360D03*
X019404Y036360D03*
X018912Y036261D03*
X018519Y035966D03*
X018420Y035474D03*
X019011Y034785D03*
X018420Y034293D03*
X018420Y033801D03*
X018420Y033407D03*
X018519Y032915D03*
X019306Y032915D03*
X019306Y032128D03*
X018519Y032147D03*
X019700Y031242D03*
X019011Y030848D03*
X018519Y030257D03*
X018519Y029864D03*
X018125Y029864D03*
X018125Y030257D03*
X019601Y029667D03*
X019995Y029765D03*
X020585Y029962D03*
X021373Y029962D03*
X021963Y028486D03*
X021274Y027797D03*
X020881Y026911D03*
X020881Y026124D03*
X020093Y026124D03*
X020093Y026911D03*
X019011Y027403D03*
X019011Y028191D03*
X019798Y028584D03*
X017928Y027994D03*
X017337Y027895D03*
X016944Y028486D03*
X016550Y027895D03*
X016156Y028486D03*
X015664Y028092D03*
X015763Y026517D03*
X016550Y026517D03*
X017928Y027206D03*
X015763Y024155D03*
X016255Y023368D03*
X017042Y023368D03*
X018125Y022876D03*
X018814Y021596D03*
X018026Y021301D03*
X018617Y020317D03*
X019207Y020415D03*
X019601Y021104D03*
X019601Y021596D03*
X020389Y022482D03*
X021570Y023761D03*
X021865Y025828D03*
X020684Y020415D03*
X020389Y019726D03*
X020684Y019234D03*
X021373Y019234D03*
X021373Y018446D03*
X020684Y018446D03*
X020684Y017856D03*
X020093Y018446D03*
X019700Y017856D03*
X019306Y018446D03*
X019011Y017659D03*
X018223Y018840D03*
X018026Y019234D03*
X018125Y019824D03*
X019011Y019234D03*
X019798Y019234D03*
X020093Y016478D03*
X018125Y014116D03*
X017141Y013919D03*
X016353Y013919D03*
X015861Y013525D03*
X016353Y013131D03*
X015369Y012443D03*
X015664Y011261D03*
X015172Y010671D03*
X015664Y010080D03*
X015664Y009588D03*
X015664Y008801D03*
X017239Y008604D03*
X017239Y007817D03*
X014778Y005651D03*
X013400Y004864D03*
X013400Y004076D03*
X013400Y002502D03*
X014975Y002502D03*
X018125Y002108D03*
X018519Y002009D03*
X013696Y007029D03*
X013499Y007817D03*
X013007Y007817D03*
X012908Y007029D03*
X012908Y006242D03*
X011924Y007029D03*
X011530Y007817D03*
X011235Y008604D03*
X011333Y010179D03*
X010546Y010179D03*
X010546Y010966D03*
X011333Y010966D03*
X011333Y012344D03*
X010644Y012344D03*
X010251Y012443D03*
X010152Y012836D03*
X010152Y013230D03*
X010152Y013624D03*
X010251Y014116D03*
X009660Y013919D03*
X008282Y013033D03*
X007396Y012344D03*
X007101Y011065D03*
X007396Y010671D03*
X008085Y009883D03*
X009562Y009883D03*
X012219Y012738D03*
X011629Y012836D03*
X012711Y013919D03*
X011924Y015887D03*
X011333Y016084D03*
X008873Y017265D03*
X006511Y015592D03*
X006215Y015002D03*
X005920Y014214D03*
X005526Y013820D03*
X005822Y013328D03*
X004148Y013230D03*
X004148Y014017D03*
X004148Y014509D03*
X004148Y015297D03*
X004148Y016380D03*
X004148Y017167D03*
X004148Y017659D03*
X004148Y018446D03*
X005625Y017364D03*
X005526Y016576D03*
X004444Y020317D03*
X004247Y021399D03*
X005034Y021399D03*
X005034Y022187D03*
X005526Y022187D03*
X006117Y021301D03*
X006019Y020710D03*
X004247Y022187D03*
X005920Y024254D03*
X004247Y025139D03*
X004837Y025927D03*
X004444Y027206D03*
X005526Y028092D03*
X005920Y028092D03*
X005920Y027698D03*
X006707Y027698D03*
X006707Y028092D03*
X007298Y028289D03*
X006707Y028880D03*
X006314Y028880D03*
X005920Y028880D03*
X005920Y029273D03*
X005526Y028880D03*
X006707Y029273D03*
X007357Y029372D03*
X007751Y029372D03*
X007751Y028978D03*
X007357Y028978D03*
X008085Y028289D03*
X008479Y026911D03*
X008479Y026124D03*
X009267Y026124D03*
X009267Y026911D03*
X008184Y025139D03*
X007790Y023663D03*
X007790Y022876D03*
X009562Y021006D03*
X010349Y021006D03*
X010349Y021793D03*
X013204Y026714D03*
X009956Y029273D03*
X009956Y029765D03*
X009956Y030257D03*
X009956Y030750D03*
X009956Y031242D03*
X008774Y031143D03*
X005330Y033013D03*
X005330Y033801D03*
X005625Y034391D03*
X004837Y034391D03*
X005428Y035277D03*
X006019Y035277D03*
X004936Y035966D03*
X003853Y036163D03*
X003459Y036163D03*
X003066Y036163D03*
X003558Y036950D03*
X005428Y037836D03*
X006019Y037836D03*
X006314Y038427D03*
X006314Y038820D03*
X006314Y039214D03*
X005920Y040002D03*
X005526Y040297D03*
X006707Y040100D03*
X007692Y040100D03*
X008479Y040297D03*
X008873Y040002D03*
X009759Y040198D03*
X012416Y040198D03*
X013696Y039411D03*
X014483Y039411D03*
X015270Y038033D03*
X016058Y038033D03*
X016845Y038033D03*
X016845Y040198D03*
X017633Y040198D03*
X018420Y040198D03*
X020979Y035966D03*
X021471Y035966D03*
X021963Y035966D03*
X030133Y038722D03*
X030625Y038427D03*
X031806Y037049D03*
X032396Y037344D03*
X032692Y037049D03*
X032790Y037639D03*
X032396Y037836D03*
X031511Y036261D03*
X035841Y038722D03*
X036826Y037147D03*
X037416Y036557D03*
X037810Y036065D03*
X038302Y037147D03*
X038893Y038230D03*
X039680Y038131D03*
X040467Y038131D03*
X041255Y038131D03*
X042042Y038230D03*
X045290Y037541D03*
X045585Y034588D03*
X038893Y040100D03*
X036137Y035769D03*
X033676Y040238D03*
X032003Y040198D03*
X008085Y036950D03*
X007987Y035966D03*
X006314Y036950D03*
X004542Y032423D03*
X004247Y032226D03*
X004542Y032029D03*
X003952Y032029D03*
X003952Y032423D03*
X003263Y031832D03*
X020782Y013230D03*
X020881Y012738D03*
X020881Y011950D03*
X021274Y011458D03*
X019700Y010671D03*
X018912Y010671D03*
X017731Y011557D03*
X013696Y011360D03*
X013696Y010572D03*
X009267Y006537D03*
X011432Y005651D03*
X011432Y002502D03*
X005428Y002403D03*
X003952Y005848D03*
X004050Y006931D03*
X004050Y007915D03*
X003755Y009883D03*
X005330Y010966D03*
X004345Y011655D03*
X004148Y012639D03*
X022062Y013131D03*
X036038Y002994D03*
X039286Y002502D03*
X039286Y003781D03*
X041452Y005061D03*
X045192Y004372D03*
X045290Y005848D03*
X044798Y007817D03*
D21*
X022259Y007809D02*
X018657Y007809D01*
X018657Y007886D02*
X022259Y007886D01*
X022259Y007963D02*
X018657Y007963D01*
X018657Y008040D02*
X022259Y008040D01*
X022259Y008118D02*
X018657Y008118D01*
X018657Y008195D02*
X022259Y008195D01*
X022259Y008272D02*
X018657Y008272D01*
X018657Y008349D02*
X022259Y008349D01*
X022259Y008427D02*
X018657Y008427D01*
X018657Y008504D02*
X022259Y008504D01*
X022259Y008581D02*
X018657Y008581D01*
X018657Y008658D02*
X022259Y008658D01*
X022259Y008736D02*
X018657Y008736D01*
X018657Y008813D02*
X022259Y008813D01*
X022259Y008890D02*
X018657Y008890D01*
X018657Y008967D02*
X022259Y008967D01*
X022259Y009045D02*
X018657Y009045D01*
X018657Y009122D02*
X022259Y009122D01*
X022259Y009199D02*
X018657Y009199D01*
X018657Y009276D02*
X022259Y009276D01*
X022259Y009353D02*
X018657Y009353D01*
X018657Y009431D02*
X022259Y009431D01*
X022259Y009508D02*
X018657Y009508D01*
X018657Y009585D02*
X022259Y009585D01*
X022259Y009662D02*
X018657Y009662D01*
X018657Y009740D02*
X022259Y009740D01*
X022259Y009817D02*
X018657Y009817D01*
X018657Y009894D02*
X022259Y009894D01*
X022259Y009971D02*
X018657Y009971D01*
X018657Y010049D02*
X022259Y010049D01*
X022259Y010126D02*
X018657Y010126D01*
X018657Y010203D02*
X022259Y010203D01*
X022259Y010280D02*
X018657Y010280D01*
X018657Y010358D02*
X022259Y010358D01*
X022259Y010435D02*
X018657Y010435D01*
X018657Y010512D02*
X022259Y010512D01*
X022259Y010589D02*
X018657Y010589D01*
X018657Y010667D02*
X022259Y010667D01*
X022259Y010744D02*
X018657Y010744D01*
X018657Y010821D02*
X022259Y010821D01*
X022259Y010898D02*
X018657Y010898D01*
X018657Y010976D02*
X022259Y010976D01*
X022259Y011053D02*
X018657Y011053D01*
X018657Y011130D02*
X022259Y011130D01*
X022259Y011207D02*
X021343Y011207D01*
X021326Y011200D02*
X021421Y011239D01*
X021493Y011312D01*
X021533Y011407D01*
X021533Y011510D01*
X021493Y011604D01*
X021421Y011677D01*
X021326Y011716D01*
X021223Y011716D01*
X021128Y011677D01*
X021056Y011604D01*
X021016Y011510D01*
X021016Y011407D01*
X021056Y011312D01*
X021128Y011239D01*
X021223Y011200D01*
X021326Y011200D01*
X021206Y011207D02*
X020555Y011207D01*
X020538Y011200D02*
X020633Y011239D01*
X020706Y011312D01*
X020745Y011407D01*
X020745Y011510D01*
X020706Y011604D01*
X020633Y011677D01*
X020538Y011716D01*
X020436Y011716D01*
X020341Y011677D01*
X020268Y011604D01*
X020229Y011510D01*
X020229Y011407D01*
X020268Y011312D01*
X020341Y011239D01*
X020436Y011200D01*
X020538Y011200D01*
X020419Y011207D02*
X018657Y011207D01*
X018657Y011284D02*
X020296Y011284D01*
X020248Y011362D02*
X018657Y011362D01*
X018657Y011439D02*
X020229Y011439D01*
X020232Y011516D02*
X018657Y011516D01*
X018657Y011593D02*
X020264Y011593D01*
X020334Y011671D02*
X018657Y011671D01*
X018657Y011748D02*
X022259Y011748D01*
X022259Y011825D02*
X018657Y011825D01*
X018657Y011902D02*
X022259Y011902D01*
X022259Y011980D02*
X018657Y011980D01*
X018657Y012057D02*
X022259Y012057D01*
X022259Y012134D02*
X018657Y012134D01*
X018657Y012211D02*
X022259Y012211D01*
X022259Y012289D02*
X018657Y012289D01*
X018657Y012366D02*
X022259Y012366D01*
X022259Y012443D02*
X018687Y012443D01*
X018665Y012421D02*
X018737Y012493D01*
X018777Y012588D01*
X018777Y012691D01*
X018737Y012786D01*
X018665Y012858D01*
X018576Y012895D01*
X018773Y013091D01*
X019281Y013091D01*
X019284Y013084D01*
X019357Y013011D01*
X019451Y012972D01*
X019554Y012972D01*
X019649Y013011D01*
X019722Y013084D01*
X019761Y013179D01*
X019761Y013281D01*
X019722Y013376D01*
X019711Y013386D01*
X021611Y013386D01*
X021807Y013190D01*
X021804Y013183D01*
X021804Y013080D01*
X021843Y012985D01*
X021916Y012913D01*
X022010Y012873D01*
X022113Y012873D01*
X022208Y012913D01*
X022259Y012963D01*
X022259Y003683D01*
X020093Y003683D01*
X019995Y003584D01*
X019995Y001460D01*
X015435Y001460D01*
X015832Y001857D01*
X015915Y001940D01*
X015960Y002049D01*
X015960Y008860D01*
X015915Y008969D01*
X015832Y009052D01*
X015723Y009097D01*
X015605Y009097D01*
X015496Y009052D01*
X015413Y008969D01*
X015368Y008860D01*
X015368Y002231D01*
X015049Y001912D01*
X010767Y001912D01*
X008352Y004328D01*
X008243Y004373D01*
X005034Y004373D01*
X005034Y007029D01*
X010448Y007029D01*
X010841Y006635D01*
X010841Y002108D01*
X010940Y002009D01*
X013893Y002009D01*
X013991Y002108D01*
X013991Y006340D01*
X015074Y007423D01*
X015074Y012935D01*
X014778Y013230D01*
X012613Y013230D01*
X012515Y013328D01*
X012515Y014017D01*
X012573Y014075D01*
X016145Y014075D01*
X016134Y014065D01*
X016095Y013970D01*
X016095Y013868D01*
X016134Y013773D01*
X016207Y013700D01*
X016294Y013664D01*
X016083Y013664D01*
X016080Y013671D01*
X016007Y013744D01*
X015912Y013783D01*
X015810Y013783D01*
X015715Y013744D01*
X015642Y013671D01*
X015603Y013577D01*
X015603Y013474D01*
X015642Y013379D01*
X015715Y013306D01*
X015810Y013267D01*
X015912Y013267D01*
X016007Y013306D01*
X016080Y013379D01*
X016083Y013386D01*
X016294Y013386D01*
X016207Y013350D01*
X016134Y013278D01*
X016095Y013183D01*
X016095Y013080D01*
X016134Y012985D01*
X016207Y012913D01*
X016302Y012873D01*
X016404Y012873D01*
X016499Y012913D01*
X016572Y012985D01*
X016611Y013080D01*
X016611Y013183D01*
X016572Y013278D01*
X016499Y013350D01*
X016412Y013386D01*
X017280Y013386D01*
X017575Y013091D01*
X018379Y013091D01*
X018460Y013172D01*
X018674Y013386D01*
X019294Y013386D01*
X019284Y013376D01*
X019281Y013369D01*
X018658Y013369D01*
X018577Y013287D01*
X017986Y012697D01*
X017986Y002330D01*
X017979Y002327D01*
X017906Y002254D01*
X017867Y002159D01*
X017867Y002057D01*
X017906Y001962D01*
X017979Y001889D01*
X018073Y001850D01*
X018176Y001850D01*
X018271Y001889D01*
X018284Y001902D01*
X018300Y001863D01*
X018372Y001791D01*
X018467Y001751D01*
X018570Y001751D01*
X018665Y001791D01*
X018737Y001863D01*
X018777Y001958D01*
X018777Y002061D01*
X018737Y002156D01*
X018665Y002228D01*
X018657Y002231D01*
X018657Y012417D01*
X018665Y012421D01*
X018749Y012520D02*
X020733Y012520D01*
X020735Y012519D02*
X020829Y012480D01*
X020932Y012480D01*
X021027Y012519D01*
X021100Y012592D01*
X021139Y012686D01*
X021139Y012789D01*
X021100Y012884D01*
X021027Y012957D01*
X020932Y012996D01*
X020829Y012996D01*
X020735Y012957D01*
X020662Y012884D01*
X020623Y012789D01*
X020623Y012686D01*
X020662Y012592D01*
X020735Y012519D01*
X020659Y012598D02*
X018777Y012598D01*
X018777Y012675D02*
X020627Y012675D01*
X020623Y012752D02*
X018751Y012752D01*
X018694Y012829D02*
X020639Y012829D01*
X020684Y012907D02*
X018588Y012907D01*
X018665Y012984D02*
X019423Y012984D01*
X019307Y013061D02*
X018743Y013061D01*
X018715Y013230D02*
X018125Y012639D01*
X018125Y002108D01*
X017884Y002016D02*
X015947Y002016D01*
X015960Y002093D02*
X017038Y002093D01*
X016982Y002116D02*
X017149Y002047D01*
X017329Y002047D01*
X017496Y002116D01*
X017624Y002244D01*
X017693Y002411D01*
X017693Y002592D01*
X017624Y002759D01*
X017496Y002887D01*
X017329Y002956D01*
X017149Y002956D01*
X016982Y002887D01*
X016854Y002759D01*
X016785Y002592D01*
X016785Y002411D01*
X016854Y002244D01*
X016982Y002116D01*
X016928Y002170D02*
X015960Y002170D01*
X015960Y002247D02*
X016853Y002247D01*
X016821Y002325D02*
X015960Y002325D01*
X015960Y002402D02*
X016789Y002402D01*
X016785Y002479D02*
X015960Y002479D01*
X015960Y002556D02*
X016785Y002556D01*
X016802Y002634D02*
X015960Y002634D01*
X015960Y002711D02*
X016834Y002711D01*
X016883Y002788D02*
X015960Y002788D01*
X015960Y002865D02*
X016960Y002865D01*
X017116Y002943D02*
X015960Y002943D01*
X015960Y003020D02*
X017986Y003020D01*
X017986Y003097D02*
X015960Y003097D01*
X015960Y003174D02*
X017986Y003174D01*
X017986Y003251D02*
X015960Y003251D01*
X015960Y003329D02*
X017986Y003329D01*
X017986Y003406D02*
X015960Y003406D01*
X015960Y003483D02*
X017986Y003483D01*
X017986Y003560D02*
X015960Y003560D01*
X015960Y003638D02*
X017986Y003638D01*
X017986Y003715D02*
X015960Y003715D01*
X015960Y003792D02*
X017986Y003792D01*
X017986Y003869D02*
X015960Y003869D01*
X015960Y003947D02*
X017986Y003947D01*
X017986Y004024D02*
X015960Y004024D01*
X015960Y004101D02*
X017986Y004101D01*
X017986Y004178D02*
X015960Y004178D01*
X015960Y004256D02*
X017986Y004256D01*
X017986Y004333D02*
X015960Y004333D01*
X015960Y004410D02*
X017147Y004410D01*
X017149Y004409D02*
X017329Y004409D01*
X017496Y004479D01*
X017624Y004606D01*
X017693Y004773D01*
X017693Y004954D01*
X017624Y005121D01*
X017496Y005249D01*
X017329Y005318D01*
X017149Y005318D01*
X016982Y005249D01*
X016854Y005121D01*
X016785Y004954D01*
X016785Y004773D01*
X016854Y004606D01*
X016982Y004479D01*
X017149Y004409D01*
X017331Y004410D02*
X017986Y004410D01*
X017986Y004487D02*
X017505Y004487D01*
X017582Y004565D02*
X017986Y004565D01*
X017986Y004642D02*
X017639Y004642D01*
X017671Y004719D02*
X017986Y004719D01*
X017986Y004796D02*
X017693Y004796D01*
X017693Y004874D02*
X017986Y004874D01*
X017986Y004951D02*
X017693Y004951D01*
X017663Y005028D02*
X017986Y005028D01*
X017986Y005105D02*
X017631Y005105D01*
X017563Y005182D02*
X017986Y005182D01*
X017986Y005260D02*
X017470Y005260D01*
X017008Y005260D02*
X015960Y005260D01*
X015960Y005337D02*
X017986Y005337D01*
X017986Y005414D02*
X015960Y005414D01*
X015960Y005491D02*
X017986Y005491D01*
X017986Y005569D02*
X015960Y005569D01*
X015960Y005646D02*
X017986Y005646D01*
X017986Y005723D02*
X015960Y005723D01*
X015960Y005800D02*
X017986Y005800D01*
X017986Y005878D02*
X015960Y005878D01*
X015960Y005955D02*
X017986Y005955D01*
X017986Y006032D02*
X015960Y006032D01*
X015960Y006109D02*
X017986Y006109D01*
X017986Y006187D02*
X015960Y006187D01*
X015960Y006264D02*
X017986Y006264D01*
X017986Y006341D02*
X015960Y006341D01*
X015960Y006418D02*
X017986Y006418D01*
X017986Y006496D02*
X015960Y006496D01*
X015960Y006573D02*
X017986Y006573D01*
X017986Y006650D02*
X015960Y006650D01*
X015960Y006727D02*
X017986Y006727D01*
X017986Y006805D02*
X015960Y006805D01*
X015960Y006882D02*
X017986Y006882D01*
X017986Y006959D02*
X015960Y006959D01*
X015960Y007036D02*
X017986Y007036D01*
X017986Y007114D02*
X015960Y007114D01*
X015960Y007191D02*
X017986Y007191D01*
X017986Y007268D02*
X015960Y007268D01*
X015960Y007345D02*
X017986Y007345D01*
X017986Y007422D02*
X015960Y007422D01*
X015960Y007500D02*
X017986Y007500D01*
X017986Y007577D02*
X017335Y007577D01*
X017290Y007558D02*
X017385Y007598D01*
X017458Y007670D01*
X017497Y007765D01*
X017497Y007868D01*
X017458Y007963D01*
X017385Y008035D01*
X017290Y008075D01*
X017188Y008075D01*
X017093Y008035D01*
X017020Y007963D01*
X016981Y007868D01*
X016981Y007765D01*
X017020Y007670D01*
X017093Y007598D01*
X017188Y007558D01*
X017290Y007558D01*
X017143Y007577D02*
X015960Y007577D01*
X015960Y007654D02*
X017036Y007654D01*
X016995Y007731D02*
X015960Y007731D01*
X015960Y007809D02*
X016981Y007809D01*
X016988Y007886D02*
X015960Y007886D01*
X015960Y007963D02*
X017021Y007963D01*
X017105Y008040D02*
X015960Y008040D01*
X015960Y008118D02*
X017986Y008118D01*
X017986Y008195D02*
X015960Y008195D01*
X015960Y008272D02*
X017986Y008272D01*
X017986Y008349D02*
X015960Y008349D01*
X015960Y008427D02*
X017986Y008427D01*
X017986Y008504D02*
X015960Y008504D01*
X015960Y008581D02*
X017986Y008581D01*
X017986Y008658D02*
X015960Y008658D01*
X015960Y008736D02*
X017986Y008736D01*
X017986Y008813D02*
X015960Y008813D01*
X015948Y008890D02*
X017986Y008890D01*
X017986Y008967D02*
X015916Y008967D01*
X015839Y009045D02*
X017986Y009045D01*
X017986Y009122D02*
X015074Y009122D01*
X015074Y009199D02*
X017986Y009199D01*
X017986Y009276D02*
X015074Y009276D01*
X015074Y009353D02*
X015480Y009353D01*
X015496Y009337D02*
X015605Y009292D01*
X015723Y009292D01*
X015832Y009337D01*
X015915Y009420D01*
X015960Y009529D01*
X015960Y010139D01*
X015960Y011320D01*
X015915Y011429D01*
X015832Y011513D01*
X015723Y011558D01*
X015605Y011558D01*
X015496Y011513D01*
X015413Y011429D01*
X015368Y011320D01*
X015368Y009529D01*
X015413Y009420D01*
X015496Y009337D01*
X015409Y009431D02*
X015074Y009431D01*
X015074Y009508D02*
X015377Y009508D01*
X015368Y009585D02*
X015074Y009585D01*
X015074Y009662D02*
X015368Y009662D01*
X015368Y009740D02*
X015074Y009740D01*
X015074Y009817D02*
X015368Y009817D01*
X015368Y009894D02*
X015074Y009894D01*
X015074Y009971D02*
X015368Y009971D01*
X015368Y010049D02*
X015074Y010049D01*
X015074Y010126D02*
X015368Y010126D01*
X015368Y010203D02*
X015074Y010203D01*
X015074Y010280D02*
X015368Y010280D01*
X015368Y010358D02*
X015074Y010358D01*
X015074Y010435D02*
X015368Y010435D01*
X015368Y010512D02*
X015074Y010512D01*
X015074Y010589D02*
X015368Y010589D01*
X015368Y010667D02*
X015074Y010667D01*
X015074Y010744D02*
X015368Y010744D01*
X015368Y010821D02*
X015074Y010821D01*
X015074Y010898D02*
X015368Y010898D01*
X015368Y010976D02*
X015074Y010976D01*
X015074Y011053D02*
X015368Y011053D01*
X015368Y011130D02*
X015074Y011130D01*
X015074Y011207D02*
X015368Y011207D01*
X015368Y011284D02*
X015074Y011284D01*
X015074Y011362D02*
X015385Y011362D01*
X015423Y011439D02*
X015074Y011439D01*
X015074Y011516D02*
X015505Y011516D01*
X015823Y011516D02*
X017986Y011516D01*
X017986Y011439D02*
X015906Y011439D01*
X015943Y011362D02*
X017986Y011362D01*
X017986Y011284D02*
X015960Y011284D01*
X015960Y011207D02*
X017986Y011207D01*
X017986Y011130D02*
X015960Y011130D01*
X015960Y011053D02*
X017986Y011053D01*
X017986Y010976D02*
X015960Y010976D01*
X015960Y010898D02*
X017986Y010898D01*
X017986Y010821D02*
X015960Y010821D01*
X015960Y010744D02*
X017986Y010744D01*
X017986Y010667D02*
X015960Y010667D01*
X015960Y010589D02*
X017986Y010589D01*
X017986Y010512D02*
X015960Y010512D01*
X015960Y010435D02*
X017986Y010435D01*
X017986Y010358D02*
X015960Y010358D01*
X015960Y010280D02*
X017986Y010280D01*
X017986Y010203D02*
X015960Y010203D01*
X015960Y010126D02*
X017986Y010126D01*
X017986Y010049D02*
X015960Y010049D01*
X015960Y009971D02*
X017986Y009971D01*
X017986Y009894D02*
X015960Y009894D01*
X015960Y009817D02*
X017986Y009817D01*
X017986Y009740D02*
X015960Y009740D01*
X015960Y009662D02*
X017986Y009662D01*
X017986Y009585D02*
X015960Y009585D01*
X015952Y009508D02*
X017986Y009508D01*
X017986Y009431D02*
X015920Y009431D01*
X015848Y009353D02*
X017986Y009353D01*
X017986Y008040D02*
X017373Y008040D01*
X017457Y007963D02*
X017986Y007963D01*
X017986Y007886D02*
X017490Y007886D01*
X017497Y007809D02*
X017986Y007809D01*
X017986Y007731D02*
X017483Y007731D01*
X017442Y007654D02*
X017986Y007654D01*
X018657Y007654D02*
X022259Y007654D01*
X022259Y007577D02*
X021831Y007577D01*
X021818Y007583D02*
X021715Y007583D01*
X021620Y007543D01*
X021548Y007471D01*
X021508Y007376D01*
X021508Y007273D01*
X021548Y007178D01*
X021620Y007106D01*
X021715Y007066D01*
X021818Y007066D01*
X021913Y007106D01*
X021985Y007178D01*
X022025Y007273D01*
X022025Y007376D01*
X021985Y007471D01*
X021913Y007543D01*
X021818Y007583D01*
X021702Y007577D02*
X018657Y007577D01*
X018657Y007500D02*
X021577Y007500D01*
X021528Y007422D02*
X018657Y007422D01*
X018657Y007345D02*
X021508Y007345D01*
X021511Y007268D02*
X018657Y007268D01*
X018657Y007191D02*
X021543Y007191D01*
X021612Y007114D02*
X018657Y007114D01*
X018657Y007036D02*
X022259Y007036D01*
X022259Y006959D02*
X018657Y006959D01*
X018657Y006882D02*
X022259Y006882D01*
X022259Y006805D02*
X018657Y006805D01*
X018657Y006727D02*
X022259Y006727D01*
X022259Y006650D02*
X018657Y006650D01*
X018657Y006573D02*
X022259Y006573D01*
X022259Y006496D02*
X018657Y006496D01*
X018657Y006418D02*
X022259Y006418D01*
X022259Y006341D02*
X018657Y006341D01*
X018657Y006264D02*
X022259Y006264D01*
X022259Y006187D02*
X018657Y006187D01*
X018657Y006109D02*
X022259Y006109D01*
X022259Y006032D02*
X018657Y006032D01*
X018657Y005955D02*
X022259Y005955D01*
X022259Y005878D02*
X018657Y005878D01*
X018657Y005800D02*
X022259Y005800D01*
X022259Y005723D02*
X018657Y005723D01*
X018657Y005646D02*
X022259Y005646D01*
X022259Y005569D02*
X018657Y005569D01*
X018657Y005491D02*
X022259Y005491D01*
X022259Y005414D02*
X018657Y005414D01*
X018657Y005337D02*
X022259Y005337D01*
X022259Y005260D02*
X018657Y005260D01*
X018657Y005182D02*
X022259Y005182D01*
X022259Y005105D02*
X018657Y005105D01*
X018657Y005028D02*
X022259Y005028D01*
X022259Y004951D02*
X018657Y004951D01*
X018657Y004874D02*
X022259Y004874D01*
X022259Y004796D02*
X018657Y004796D01*
X018657Y004719D02*
X022259Y004719D01*
X022259Y004642D02*
X018657Y004642D01*
X018657Y004565D02*
X022259Y004565D01*
X022259Y004487D02*
X018657Y004487D01*
X018657Y004410D02*
X022259Y004410D01*
X022259Y004333D02*
X018657Y004333D01*
X018657Y004256D02*
X022259Y004256D01*
X022259Y004178D02*
X018657Y004178D01*
X018657Y004101D02*
X022259Y004101D01*
X022259Y004024D02*
X018657Y004024D01*
X018657Y003947D02*
X022259Y003947D01*
X022259Y003869D02*
X018657Y003869D01*
X018657Y003792D02*
X022259Y003792D01*
X022259Y003715D02*
X018657Y003715D01*
X018657Y003638D02*
X020048Y003638D01*
X019995Y003560D02*
X018657Y003560D01*
X018657Y003483D02*
X019995Y003483D01*
X019995Y003406D02*
X018657Y003406D01*
X018657Y003329D02*
X019995Y003329D01*
X019995Y003251D02*
X018657Y003251D01*
X018657Y003174D02*
X019995Y003174D01*
X019995Y003097D02*
X018657Y003097D01*
X018657Y003020D02*
X019995Y003020D01*
X019995Y002943D02*
X018657Y002943D01*
X018657Y002865D02*
X019995Y002865D01*
X019995Y002788D02*
X018657Y002788D01*
X018657Y002711D02*
X019995Y002711D01*
X019995Y002634D02*
X018657Y002634D01*
X018657Y002556D02*
X019995Y002556D01*
X019995Y002479D02*
X018657Y002479D01*
X018657Y002402D02*
X019995Y002402D01*
X019995Y002325D02*
X018657Y002325D01*
X018657Y002247D02*
X019995Y002247D01*
X019995Y002170D02*
X018723Y002170D01*
X018763Y002093D02*
X019995Y002093D01*
X019995Y002016D02*
X018777Y002016D01*
X018768Y001938D02*
X019995Y001938D01*
X019995Y001861D02*
X018735Y001861D01*
X018648Y001784D02*
X019995Y001784D01*
X019995Y001707D02*
X015682Y001707D01*
X015759Y001784D02*
X018389Y001784D01*
X018302Y001861D02*
X018204Y001861D01*
X018046Y001861D02*
X015836Y001861D01*
X015832Y001857D02*
X015832Y001857D01*
X015914Y001938D02*
X017929Y001938D01*
X017867Y002093D02*
X017440Y002093D01*
X017550Y002170D02*
X017871Y002170D01*
X017903Y002247D02*
X017625Y002247D01*
X017657Y002325D02*
X017977Y002325D01*
X017986Y002402D02*
X017689Y002402D01*
X017693Y002479D02*
X017986Y002479D01*
X017986Y002556D02*
X017693Y002556D01*
X017676Y002634D02*
X017986Y002634D01*
X017986Y002711D02*
X017644Y002711D01*
X017595Y002788D02*
X017986Y002788D01*
X017986Y002865D02*
X017518Y002865D01*
X017362Y002943D02*
X017986Y002943D01*
X018519Y002009D02*
X018519Y012639D01*
X018196Y012907D02*
X016485Y012907D01*
X016570Y012984D02*
X018273Y012984D01*
X018350Y013061D02*
X016603Y013061D01*
X016611Y013138D02*
X017528Y013138D01*
X017451Y013215D02*
X016598Y013215D01*
X016557Y013293D02*
X017374Y013293D01*
X017296Y013370D02*
X016452Y013370D01*
X016254Y013370D02*
X016071Y013370D01*
X016149Y013293D02*
X015974Y013293D01*
X016109Y013215D02*
X014793Y013215D01*
X014870Y013138D02*
X016095Y013138D01*
X016103Y013061D02*
X014947Y013061D01*
X015024Y012984D02*
X016136Y012984D01*
X016222Y012907D02*
X015074Y012907D01*
X015074Y012829D02*
X018119Y012829D01*
X018041Y012752D02*
X015074Y012752D01*
X015074Y012675D02*
X017986Y012675D01*
X017986Y012598D02*
X015074Y012598D01*
X015074Y012520D02*
X017986Y012520D01*
X017986Y012443D02*
X015074Y012443D01*
X015074Y012366D02*
X017986Y012366D01*
X017986Y012289D02*
X015074Y012289D01*
X015074Y012211D02*
X017986Y012211D01*
X017986Y012134D02*
X015074Y012134D01*
X015074Y012057D02*
X017986Y012057D01*
X017986Y011980D02*
X015074Y011980D01*
X015074Y011902D02*
X017986Y011902D01*
X017986Y011825D02*
X015074Y011825D01*
X015074Y011748D02*
X017986Y011748D01*
X017986Y011671D02*
X015074Y011671D01*
X015074Y011593D02*
X017986Y011593D01*
X018426Y013138D02*
X018427Y013138D01*
X018503Y013215D02*
X018505Y013215D01*
X018581Y013293D02*
X018582Y013293D01*
X018658Y013370D02*
X019281Y013370D01*
X019503Y013230D02*
X018715Y013230D01*
X018617Y013525D02*
X018322Y013230D01*
X017633Y013230D01*
X017337Y013525D01*
X015861Y013525D01*
X015603Y013524D02*
X012515Y013524D01*
X012515Y013447D02*
X015614Y013447D01*
X015651Y013370D02*
X012515Y013370D01*
X012550Y013293D02*
X015748Y013293D01*
X015613Y013602D02*
X012515Y013602D01*
X012515Y013679D02*
X015650Y013679D01*
X015744Y013756D02*
X012515Y013756D01*
X012515Y013833D02*
X016109Y013833D01*
X016095Y013911D02*
X012515Y013911D01*
X012515Y013988D02*
X016102Y013988D01*
X016134Y014065D02*
X012562Y014065D01*
X012416Y014214D02*
X018026Y014214D01*
X018125Y014116D01*
X018363Y014214D02*
X020347Y014214D01*
X020367Y014166D01*
X020439Y014094D01*
X020534Y014054D01*
X020637Y014054D01*
X020732Y014094D01*
X020804Y014166D01*
X020824Y014214D01*
X020881Y014214D01*
X020922Y014174D01*
X021545Y014174D01*
X021548Y014166D01*
X021620Y014094D01*
X021715Y014054D01*
X021818Y014054D01*
X021913Y014094D01*
X021985Y014166D01*
X022005Y014214D01*
X022259Y014214D01*
X022259Y013300D01*
X022208Y013350D01*
X022113Y013390D01*
X022010Y013390D01*
X022003Y013387D01*
X021807Y013583D01*
X021726Y013664D01*
X018559Y013664D01*
X018264Y013369D01*
X017690Y013369D01*
X017476Y013583D01*
X017395Y013664D01*
X016412Y013664D01*
X016499Y013700D01*
X016572Y013773D01*
X016611Y013868D01*
X016611Y013970D01*
X016572Y014065D01*
X016562Y014075D01*
X017867Y014075D01*
X017867Y014064D01*
X017906Y013970D01*
X017979Y013897D01*
X018073Y013858D01*
X018176Y013858D01*
X018271Y013897D01*
X018344Y013970D01*
X018383Y014064D01*
X018383Y014167D01*
X018363Y014214D01*
X018383Y014142D02*
X020391Y014142D01*
X020508Y014065D02*
X018383Y014065D01*
X018351Y013988D02*
X022259Y013988D01*
X022259Y014065D02*
X021844Y014065D01*
X021961Y014142D02*
X022259Y014142D01*
X022259Y013911D02*
X018285Y013911D01*
X017965Y013911D02*
X016611Y013911D01*
X016604Y013988D02*
X017898Y013988D01*
X017867Y014065D02*
X016572Y014065D01*
X016597Y013833D02*
X022259Y013833D01*
X022259Y013756D02*
X016555Y013756D01*
X016448Y013679D02*
X022259Y013679D01*
X022259Y013602D02*
X021788Y013602D01*
X021865Y013524D02*
X022259Y013524D01*
X022259Y013447D02*
X021942Y013447D01*
X022161Y013370D02*
X022259Y013370D01*
X022062Y013131D02*
X021668Y013525D01*
X018617Y013525D01*
X018497Y013602D02*
X017457Y013602D01*
X017534Y013524D02*
X018420Y013524D01*
X018343Y013447D02*
X017612Y013447D01*
X017689Y013370D02*
X018265Y013370D01*
X019583Y012984D02*
X020800Y012984D01*
X020961Y012984D02*
X021845Y012984D01*
X021812Y013061D02*
X019699Y013061D01*
X019744Y013138D02*
X021804Y013138D01*
X021782Y013215D02*
X019761Y013215D01*
X019756Y013293D02*
X021704Y013293D01*
X021627Y013370D02*
X019724Y013370D01*
X020662Y014065D02*
X021689Y014065D01*
X021572Y014142D02*
X020780Y014142D01*
X020585Y014313D02*
X020487Y014411D01*
X012219Y014411D01*
X010251Y012443D01*
X010152Y012836D02*
X011924Y014608D01*
X020684Y014608D01*
X020979Y014313D01*
X021767Y014313D01*
X021767Y014706D02*
X021274Y015198D01*
X011333Y015198D01*
X010251Y014116D01*
X010152Y013624D02*
X011530Y015002D01*
X021078Y015002D01*
X021373Y014706D01*
X020979Y014706D02*
X020881Y014805D01*
X011727Y014805D01*
X010152Y013230D01*
X009660Y013919D02*
X011137Y015395D01*
X021471Y015395D01*
X021767Y015100D01*
X021767Y015494D02*
X021668Y015494D01*
X021570Y015592D01*
X010841Y015592D01*
X008282Y013033D01*
X006117Y014017D02*
X005920Y014214D01*
X006117Y014017D02*
X006117Y010080D01*
X005920Y009883D01*
X003755Y009883D01*
X003459Y010179D02*
X005723Y010179D01*
X005822Y010277D01*
X005822Y013328D01*
X006314Y014903D02*
X006314Y009982D01*
X006019Y009687D01*
X004148Y009687D01*
X003755Y009293D01*
X003755Y007226D01*
X004050Y006931D01*
X003361Y006242D02*
X003361Y010080D01*
X003459Y010179D01*
X004247Y009490D02*
X004050Y009293D01*
X004050Y007915D01*
X005034Y006959D02*
X010518Y006959D01*
X010595Y006882D02*
X005034Y006882D01*
X005034Y006805D02*
X010672Y006805D01*
X010749Y006727D02*
X009441Y006727D01*
X009413Y006756D02*
X009318Y006795D01*
X009215Y006795D01*
X009120Y006756D01*
X009048Y006683D01*
X009008Y006588D01*
X009008Y006486D01*
X009048Y006391D01*
X009120Y006318D01*
X009215Y006279D01*
X009318Y006279D01*
X009413Y006318D01*
X009485Y006391D01*
X009525Y006486D01*
X009525Y006588D01*
X009485Y006683D01*
X009413Y006756D01*
X009499Y006650D02*
X010827Y006650D01*
X010841Y006573D02*
X009525Y006573D01*
X009525Y006496D02*
X010841Y006496D01*
X010841Y006418D02*
X009497Y006418D01*
X009436Y006341D02*
X010841Y006341D01*
X010841Y006264D02*
X005034Y006264D01*
X005034Y006341D02*
X009097Y006341D01*
X009036Y006418D02*
X005034Y006418D01*
X005034Y006496D02*
X009008Y006496D01*
X009008Y006573D02*
X005034Y006573D01*
X005034Y006650D02*
X009034Y006650D01*
X009092Y006727D02*
X005034Y006727D01*
X005034Y006187D02*
X010841Y006187D01*
X010841Y006109D02*
X005034Y006109D01*
X005034Y006032D02*
X010841Y006032D01*
X010841Y005955D02*
X005034Y005955D01*
X005034Y005878D02*
X010841Y005878D01*
X010841Y005800D02*
X005034Y005800D01*
X005034Y005723D02*
X010841Y005723D01*
X010841Y005646D02*
X005034Y005646D01*
X005034Y005569D02*
X010841Y005569D01*
X010841Y005491D02*
X005034Y005491D01*
X005034Y005414D02*
X010841Y005414D01*
X010841Y005337D02*
X005034Y005337D01*
X005034Y005260D02*
X007559Y005260D01*
X007533Y005249D02*
X007405Y005121D01*
X007336Y004954D01*
X007336Y004773D01*
X007405Y004606D01*
X007533Y004479D01*
X007700Y004409D01*
X007881Y004409D01*
X008048Y004479D01*
X008175Y004606D01*
X008244Y004773D01*
X008244Y004954D01*
X008175Y005121D01*
X008048Y005249D01*
X007881Y005318D01*
X007700Y005318D01*
X007533Y005249D01*
X007466Y005182D02*
X005034Y005182D01*
X005034Y005105D02*
X007398Y005105D01*
X007366Y005028D02*
X005034Y005028D01*
X005034Y004951D02*
X007336Y004951D01*
X007336Y004874D02*
X005034Y004874D01*
X005034Y004796D02*
X007336Y004796D01*
X007358Y004719D02*
X005034Y004719D01*
X005034Y004642D02*
X007390Y004642D01*
X007447Y004565D02*
X005034Y004565D01*
X005034Y004487D02*
X007524Y004487D01*
X007698Y004410D02*
X005034Y004410D01*
X005034Y003780D02*
X008061Y003780D01*
X010381Y001460D01*
X005034Y001460D01*
X005034Y003780D01*
X005034Y003715D02*
X008126Y003715D01*
X008204Y003638D02*
X005034Y003638D01*
X005034Y003560D02*
X008281Y003560D01*
X008358Y003483D02*
X005034Y003483D01*
X005034Y003406D02*
X008435Y003406D01*
X008513Y003329D02*
X005034Y003329D01*
X005034Y003251D02*
X008590Y003251D01*
X008667Y003174D02*
X005034Y003174D01*
X005034Y003097D02*
X008744Y003097D01*
X008822Y003020D02*
X005034Y003020D01*
X005034Y002943D02*
X007667Y002943D01*
X007700Y002956D02*
X007533Y002887D01*
X007405Y002759D01*
X007336Y002592D01*
X007336Y002411D01*
X007405Y002244D01*
X007533Y002116D01*
X007700Y002047D01*
X007881Y002047D01*
X008048Y002116D01*
X008175Y002244D01*
X008244Y002411D01*
X008244Y002592D01*
X008175Y002759D01*
X008048Y002887D01*
X007881Y002956D01*
X007700Y002956D01*
X007511Y002865D02*
X005034Y002865D01*
X005034Y002788D02*
X007434Y002788D01*
X007385Y002711D02*
X005034Y002711D01*
X005034Y002634D02*
X007353Y002634D01*
X007336Y002556D02*
X005034Y002556D01*
X005034Y002479D02*
X007336Y002479D01*
X007340Y002402D02*
X005034Y002402D01*
X005034Y002325D02*
X007372Y002325D01*
X007404Y002247D02*
X005034Y002247D01*
X005034Y002170D02*
X007479Y002170D01*
X007590Y002093D02*
X005034Y002093D01*
X005034Y002016D02*
X009826Y002016D01*
X009748Y002093D02*
X007991Y002093D01*
X008101Y002170D02*
X009671Y002170D01*
X009594Y002247D02*
X008177Y002247D01*
X008209Y002325D02*
X009517Y002325D01*
X009439Y002402D02*
X008241Y002402D01*
X008244Y002479D02*
X009362Y002479D01*
X009285Y002556D02*
X008244Y002556D01*
X008227Y002634D02*
X009208Y002634D01*
X009131Y002711D02*
X008195Y002711D01*
X008146Y002788D02*
X009053Y002788D01*
X008976Y002865D02*
X008069Y002865D01*
X007913Y002943D02*
X008899Y002943D01*
X009350Y003329D02*
X010841Y003329D01*
X010841Y003406D02*
X009273Y003406D01*
X009196Y003483D02*
X010841Y003483D01*
X010841Y003560D02*
X009119Y003560D01*
X009041Y003638D02*
X010841Y003638D01*
X010841Y003715D02*
X008964Y003715D01*
X008887Y003792D02*
X010841Y003792D01*
X010841Y003869D02*
X008810Y003869D01*
X008733Y003947D02*
X010841Y003947D01*
X010841Y004024D02*
X008655Y004024D01*
X008578Y004101D02*
X010841Y004101D01*
X010841Y004178D02*
X008501Y004178D01*
X008424Y004256D02*
X010841Y004256D01*
X010841Y004333D02*
X008339Y004333D01*
X008133Y004565D02*
X010841Y004565D01*
X010841Y004642D02*
X008190Y004642D01*
X008222Y004719D02*
X010841Y004719D01*
X010841Y004796D02*
X008244Y004796D01*
X008244Y004874D02*
X010841Y004874D01*
X010841Y004951D02*
X008244Y004951D01*
X008214Y005028D02*
X010841Y005028D01*
X010841Y005105D02*
X008182Y005105D01*
X008114Y005182D02*
X010841Y005182D01*
X010841Y005260D02*
X008021Y005260D01*
X008056Y004487D02*
X010841Y004487D01*
X010841Y004410D02*
X007882Y004410D01*
X009428Y003251D02*
X010841Y003251D01*
X010841Y003174D02*
X009505Y003174D01*
X009582Y003097D02*
X010841Y003097D01*
X010841Y003020D02*
X009659Y003020D01*
X009737Y002943D02*
X010841Y002943D01*
X010841Y002865D02*
X009814Y002865D01*
X009891Y002788D02*
X010841Y002788D01*
X010841Y002711D02*
X009968Y002711D01*
X010046Y002634D02*
X010841Y002634D01*
X010841Y002556D02*
X010123Y002556D01*
X010200Y002479D02*
X010841Y002479D01*
X010841Y002402D02*
X010277Y002402D01*
X010355Y002325D02*
X010841Y002325D01*
X010841Y002247D02*
X010432Y002247D01*
X010509Y002170D02*
X010841Y002170D01*
X010856Y002093D02*
X010586Y002093D01*
X010664Y002016D02*
X010934Y002016D01*
X010741Y001938D02*
X015076Y001938D01*
X015153Y002016D02*
X013899Y002016D01*
X013976Y002093D02*
X015230Y002093D01*
X015307Y002170D02*
X013991Y002170D01*
X013991Y002247D02*
X015368Y002247D01*
X015368Y002325D02*
X013991Y002325D01*
X013991Y002402D02*
X015368Y002402D01*
X015368Y002479D02*
X013991Y002479D01*
X013991Y002556D02*
X015368Y002556D01*
X015368Y002634D02*
X013991Y002634D01*
X013991Y002711D02*
X015368Y002711D01*
X015368Y002788D02*
X013991Y002788D01*
X013991Y002865D02*
X015368Y002865D01*
X015368Y002943D02*
X013991Y002943D01*
X013991Y003020D02*
X015368Y003020D01*
X015368Y003097D02*
X013991Y003097D01*
X013991Y003174D02*
X015368Y003174D01*
X015368Y003251D02*
X013991Y003251D01*
X013991Y003329D02*
X015368Y003329D01*
X015368Y003406D02*
X013991Y003406D01*
X013991Y003483D02*
X015368Y003483D01*
X015368Y003560D02*
X013991Y003560D01*
X013991Y003638D02*
X015368Y003638D01*
X015368Y003715D02*
X013991Y003715D01*
X013991Y003792D02*
X015368Y003792D01*
X015368Y003869D02*
X013991Y003869D01*
X013991Y003947D02*
X015368Y003947D01*
X015368Y004024D02*
X013991Y004024D01*
X013991Y004101D02*
X015368Y004101D01*
X015368Y004178D02*
X013991Y004178D01*
X013991Y004256D02*
X015368Y004256D01*
X015368Y004333D02*
X013991Y004333D01*
X013991Y004410D02*
X015368Y004410D01*
X015368Y004487D02*
X013991Y004487D01*
X013991Y004565D02*
X015368Y004565D01*
X015368Y004642D02*
X013991Y004642D01*
X013991Y004719D02*
X015368Y004719D01*
X015368Y004796D02*
X013991Y004796D01*
X013991Y004874D02*
X015368Y004874D01*
X015368Y004951D02*
X013991Y004951D01*
X013991Y005028D02*
X015368Y005028D01*
X015368Y005105D02*
X013991Y005105D01*
X013991Y005182D02*
X015368Y005182D01*
X015368Y005260D02*
X013991Y005260D01*
X013991Y005337D02*
X015368Y005337D01*
X015368Y005414D02*
X014881Y005414D01*
X014925Y005432D02*
X014997Y005505D01*
X015036Y005600D01*
X015036Y005703D01*
X014997Y005797D01*
X014925Y005870D01*
X014830Y005909D01*
X014727Y005909D01*
X014632Y005870D01*
X014560Y005797D01*
X014520Y005703D01*
X014520Y005600D01*
X014560Y005505D01*
X014632Y005432D01*
X014727Y005393D01*
X014830Y005393D01*
X014925Y005432D01*
X014984Y005491D02*
X015368Y005491D01*
X015368Y005569D02*
X015024Y005569D01*
X015036Y005646D02*
X015368Y005646D01*
X015368Y005723D02*
X015028Y005723D01*
X014994Y005800D02*
X015368Y005800D01*
X015368Y005878D02*
X014906Y005878D01*
X014651Y005878D02*
X013991Y005878D01*
X013991Y005955D02*
X015368Y005955D01*
X015368Y006032D02*
X013991Y006032D01*
X013991Y006109D02*
X015368Y006109D01*
X015368Y006187D02*
X013991Y006187D01*
X013991Y006264D02*
X015368Y006264D01*
X015368Y006341D02*
X013992Y006341D01*
X014069Y006418D02*
X015368Y006418D01*
X015368Y006496D02*
X014146Y006496D01*
X014224Y006573D02*
X015368Y006573D01*
X015368Y006650D02*
X014301Y006650D01*
X014378Y006727D02*
X015368Y006727D01*
X015368Y006805D02*
X014455Y006805D01*
X014533Y006882D02*
X015368Y006882D01*
X015368Y006959D02*
X014610Y006959D01*
X014687Y007036D02*
X015368Y007036D01*
X015368Y007114D02*
X014764Y007114D01*
X014842Y007191D02*
X015368Y007191D01*
X015368Y007268D02*
X014919Y007268D01*
X014996Y007345D02*
X015368Y007345D01*
X015368Y007422D02*
X015073Y007422D01*
X015074Y007500D02*
X015368Y007500D01*
X015368Y007577D02*
X015074Y007577D01*
X015074Y007654D02*
X015368Y007654D01*
X015368Y007731D02*
X015074Y007731D01*
X015074Y007809D02*
X015368Y007809D01*
X015368Y007886D02*
X015074Y007886D01*
X015074Y007963D02*
X015368Y007963D01*
X015368Y008040D02*
X015074Y008040D01*
X015074Y008118D02*
X015368Y008118D01*
X015368Y008195D02*
X015074Y008195D01*
X015074Y008272D02*
X015368Y008272D01*
X015368Y008349D02*
X015074Y008349D01*
X015074Y008427D02*
X015368Y008427D01*
X015368Y008504D02*
X015074Y008504D01*
X015074Y008581D02*
X015368Y008581D01*
X015368Y008658D02*
X015074Y008658D01*
X015074Y008736D02*
X015368Y008736D01*
X015368Y008813D02*
X015074Y008813D01*
X015074Y008890D02*
X015381Y008890D01*
X015413Y008967D02*
X015074Y008967D01*
X015074Y009045D02*
X015489Y009045D01*
X014563Y005800D02*
X013991Y005800D01*
X013991Y005723D02*
X014529Y005723D01*
X014520Y005646D02*
X013991Y005646D01*
X013991Y005569D02*
X014533Y005569D01*
X014573Y005491D02*
X013991Y005491D01*
X013991Y005414D02*
X014676Y005414D01*
X013400Y004864D02*
X012515Y005750D01*
X012515Y012443D01*
X012219Y012738D01*
X011629Y012836D02*
X012318Y012147D01*
X012318Y005257D01*
X012613Y004962D01*
X013400Y004076D01*
X011432Y005651D02*
X011432Y006537D01*
X011924Y007029D01*
X011235Y008604D02*
X009759Y008604D01*
X009562Y008801D01*
X009562Y009883D01*
X010644Y012344D02*
X012416Y014214D01*
X012022Y015789D02*
X011924Y015887D01*
X012022Y015789D02*
X018617Y015789D01*
X018715Y015887D01*
X018420Y015986D02*
X018715Y016281D01*
X018715Y019726D01*
X019207Y020218D01*
X019207Y020415D01*
X018912Y020218D02*
X018912Y020907D01*
X019011Y021006D01*
X019306Y021006D01*
X019404Y021104D01*
X019601Y021104D01*
X019601Y021596D02*
X019306Y021891D01*
X018322Y021891D01*
X017731Y021301D01*
X017731Y016675D01*
X017436Y016970D02*
X017436Y017069D01*
X017534Y017167D01*
X017534Y021399D01*
X018223Y022088D01*
X018519Y022088D01*
X018715Y022285D01*
X018715Y022777D01*
X018420Y022482D02*
X018322Y022580D01*
X017928Y022580D01*
X017830Y022679D01*
X015861Y022679D01*
X015763Y022580D01*
X015763Y021789D01*
X015770Y021781D01*
X015770Y021785D01*
X015763Y021793D01*
X015770Y021781D02*
X015782Y021793D01*
X015763Y021301D02*
X015467Y021301D01*
X015467Y022679D01*
X015664Y022876D01*
X018125Y022876D01*
X017633Y022482D02*
X017830Y022285D01*
X017830Y022187D01*
X017633Y022482D02*
X017042Y022482D01*
X016648Y022088D01*
X016648Y020809D01*
X016944Y020809D01*
X017042Y020710D01*
X017042Y019431D01*
X016944Y019332D01*
X016944Y017954D01*
X016845Y017856D01*
X017239Y017364D02*
X017337Y017462D01*
X017337Y022088D01*
X017436Y022187D01*
X017731Y021301D02*
X018026Y021301D01*
X018617Y020317D02*
X018125Y019824D01*
X018519Y019824D02*
X018912Y020218D01*
X018519Y019824D02*
X018519Y016380D01*
X018322Y016183D01*
X012318Y016183D01*
X011235Y017265D01*
X008873Y017265D01*
X008184Y018643D02*
X006117Y016576D01*
X005526Y016576D01*
X006511Y015592D02*
X006511Y009883D01*
X006117Y009490D01*
X004247Y009490D01*
X003361Y006242D02*
X003755Y005848D01*
X003952Y005848D01*
X005034Y001938D02*
X009903Y001938D01*
X009980Y001861D02*
X005034Y001861D01*
X005034Y001784D02*
X010057Y001784D01*
X010135Y001707D02*
X005034Y001707D01*
X005034Y001629D02*
X010212Y001629D01*
X010289Y001552D02*
X005034Y001552D01*
X005034Y001475D02*
X010366Y001475D01*
X015450Y001475D02*
X019995Y001475D01*
X019995Y001552D02*
X015527Y001552D01*
X015605Y001629D02*
X019995Y001629D01*
X016973Y004487D02*
X015960Y004487D01*
X015960Y004565D02*
X016896Y004565D01*
X016839Y004642D02*
X015960Y004642D01*
X015960Y004719D02*
X016807Y004719D01*
X016785Y004796D02*
X015960Y004796D01*
X015960Y004874D02*
X016785Y004874D01*
X016785Y004951D02*
X015960Y004951D01*
X015960Y005028D02*
X016815Y005028D01*
X016847Y005105D02*
X015960Y005105D01*
X015960Y005182D02*
X016915Y005182D01*
X018657Y007731D02*
X022259Y007731D01*
X022259Y007500D02*
X021956Y007500D01*
X022005Y007422D02*
X022259Y007422D01*
X022259Y007345D02*
X022025Y007345D01*
X022023Y007268D02*
X022259Y007268D01*
X022259Y007191D02*
X021991Y007191D01*
X021921Y007114D02*
X022259Y007114D01*
X022259Y011284D02*
X021466Y011284D01*
X021514Y011362D02*
X022259Y011362D01*
X022259Y011439D02*
X021533Y011439D01*
X021530Y011516D02*
X022259Y011516D01*
X022259Y011593D02*
X021498Y011593D01*
X021427Y011671D02*
X022259Y011671D01*
X022259Y012520D02*
X021028Y012520D01*
X021102Y012598D02*
X022259Y012598D01*
X022259Y012675D02*
X021134Y012675D01*
X021139Y012752D02*
X022259Y012752D01*
X022259Y012829D02*
X021122Y012829D01*
X021077Y012907D02*
X021930Y012907D01*
X022193Y012907D02*
X022259Y012907D01*
X021122Y011671D02*
X020640Y011671D01*
X020710Y011593D02*
X021051Y011593D01*
X021019Y011516D02*
X020742Y011516D01*
X020745Y011439D02*
X021016Y011439D01*
X021035Y011362D02*
X020726Y011362D01*
X020678Y011284D02*
X021083Y011284D01*
X016258Y013679D02*
X016072Y013679D01*
X016151Y013756D02*
X015978Y013756D01*
X018420Y015986D02*
X012219Y015986D01*
X012022Y016183D01*
X011432Y016183D01*
X011333Y016084D01*
X012416Y016380D02*
X018223Y016380D01*
X018322Y016478D01*
X018322Y018742D01*
X018223Y018840D01*
X019011Y017659D02*
X019011Y016773D01*
X019207Y016576D01*
X019404Y016773D02*
X019700Y016478D01*
X020093Y016478D01*
X019404Y016773D02*
X019404Y018053D01*
X019503Y018151D01*
X019700Y018151D01*
X019798Y018250D01*
X019798Y018545D01*
X020093Y018840D01*
X020093Y023269D01*
X020585Y023761D01*
X021570Y023761D01*
X020389Y022482D02*
X020389Y019726D01*
X020389Y017659D01*
X020585Y017462D01*
X021176Y017462D01*
X021373Y017265D01*
X021373Y016773D01*
X016648Y020809D02*
X015861Y020809D01*
X015467Y021301D02*
X014975Y020809D01*
X014188Y020809D01*
X013991Y020612D01*
X013991Y020317D01*
X013696Y020021D01*
X013696Y018250D01*
X013597Y018151D01*
X012711Y018151D01*
X012613Y018053D01*
X012219Y017757D02*
X012416Y017561D01*
X012219Y017757D02*
X012219Y019824D01*
X011727Y020317D01*
X011727Y023269D01*
X011137Y023860D01*
X011137Y037344D01*
X011826Y038033D01*
X015270Y038033D01*
X016058Y038033D02*
X016058Y038427D01*
X015959Y038525D01*
X011924Y038525D01*
X010841Y037443D01*
X010841Y019037D01*
X010152Y018643D02*
X012416Y016380D01*
X012613Y016675D02*
X011137Y018151D01*
X011137Y023171D01*
X009956Y024450D02*
X009956Y019529D01*
X009562Y019135D01*
X008184Y018643D02*
X008184Y023663D01*
X010251Y025730D01*
X010251Y037541D01*
X011629Y038919D01*
X017141Y038919D01*
X017633Y038427D01*
X017633Y038033D01*
X018420Y038033D02*
X018420Y038919D01*
X018223Y039116D01*
X011530Y039116D01*
X010054Y037639D01*
X010054Y031931D01*
X009660Y031537D01*
X009660Y025435D01*
X008184Y023958D01*
X007101Y023958D01*
X006511Y023368D01*
X006511Y021202D01*
X006019Y020710D01*
X006117Y021301D02*
X005920Y021498D01*
X005920Y024254D01*
X009956Y024450D02*
X010546Y025041D01*
X010546Y037541D01*
X011727Y038722D01*
X016648Y038722D01*
X016845Y038525D01*
X016845Y038033D01*
X021373Y037950D02*
X021471Y037935D01*
X021471Y035966D02*
X021373Y035950D01*
X026393Y038427D02*
X026393Y040551D01*
X032947Y040551D01*
X032890Y040495D01*
X032552Y040495D01*
X032494Y040436D01*
X032494Y039960D01*
X032552Y039902D01*
X033028Y039902D01*
X033035Y039909D01*
X033035Y039685D01*
X033093Y039627D01*
X033274Y039627D01*
X033282Y039635D01*
X033290Y039627D01*
X033471Y039627D01*
X033479Y039635D01*
X033487Y039627D01*
X033668Y039627D01*
X033676Y039635D01*
X033684Y039627D01*
X033865Y039627D01*
X033873Y039635D01*
X033881Y039627D01*
X034062Y039627D01*
X034070Y039635D01*
X034078Y039627D01*
X034258Y039627D01*
X034267Y039635D01*
X034275Y039627D01*
X034455Y039627D01*
X034463Y039635D01*
X034471Y039627D01*
X034607Y039627D01*
X034581Y039600D01*
X034581Y039495D01*
X034545Y039530D01*
X034499Y039556D01*
X034448Y039570D01*
X033912Y039570D01*
X033912Y038860D01*
X033833Y038860D01*
X033833Y038781D01*
X033123Y038781D01*
X033123Y038245D01*
X033137Y038194D01*
X033163Y038148D01*
X033201Y038111D01*
X033246Y038085D01*
X033297Y038071D01*
X033833Y038071D01*
X033833Y038781D01*
X033912Y038781D01*
X033912Y038071D01*
X034448Y038071D01*
X034499Y038085D01*
X034545Y038111D01*
X034581Y038146D01*
X034581Y038041D01*
X034607Y038014D01*
X034471Y038014D01*
X034463Y038006D01*
X034455Y038014D01*
X034275Y038014D01*
X034267Y038006D01*
X034258Y038014D01*
X034078Y038014D01*
X034070Y038006D01*
X034062Y038014D01*
X033881Y038014D01*
X033873Y038006D01*
X033865Y038014D01*
X033684Y038014D01*
X033676Y038006D01*
X033668Y038014D01*
X033487Y038014D01*
X033479Y038006D01*
X033471Y038014D01*
X033290Y038014D01*
X033282Y038006D01*
X033274Y038014D01*
X033093Y038014D01*
X033035Y037956D01*
X033035Y037916D01*
X032870Y037916D01*
X032849Y037894D01*
X032841Y037897D01*
X032739Y037897D01*
X032655Y037863D01*
X032655Y037888D01*
X032651Y037895D01*
X032739Y037983D01*
X033008Y037983D01*
X033067Y038041D01*
X033067Y038222D01*
X033059Y038230D01*
X033067Y038238D01*
X033067Y038419D01*
X033059Y038427D01*
X033067Y038435D01*
X033067Y038616D01*
X033059Y038624D01*
X033067Y038632D01*
X033067Y038772D01*
X033079Y038784D01*
X033097Y038816D01*
X033107Y038851D01*
X033107Y038919D01*
X033107Y038986D01*
X033097Y039022D01*
X033079Y039054D01*
X033067Y039066D01*
X033067Y039206D01*
X033059Y039214D01*
X033067Y039222D01*
X033067Y039403D01*
X033059Y039411D01*
X033067Y039419D01*
X033067Y039600D01*
X033008Y039658D01*
X032651Y039658D01*
X032592Y039600D01*
X032592Y039451D01*
X032159Y039451D01*
X031708Y039902D01*
X031708Y039959D01*
X031765Y039902D01*
X032241Y039902D01*
X032299Y039960D01*
X032299Y040436D01*
X032241Y040495D01*
X031765Y040495D01*
X031707Y040436D01*
X031707Y040241D01*
X031650Y040298D01*
X031174Y040298D01*
X031116Y040240D01*
X031116Y039764D01*
X031174Y039705D01*
X031512Y039705D01*
X031963Y039254D01*
X031708Y039254D01*
X031708Y039452D01*
X031650Y039510D01*
X031174Y039510D01*
X031116Y039452D01*
X031116Y039353D01*
X030921Y039353D01*
X030921Y039452D01*
X030863Y039510D01*
X030387Y039510D01*
X030370Y039493D01*
X030370Y039722D01*
X030387Y039705D01*
X030863Y039705D01*
X030921Y039764D01*
X030921Y040240D01*
X030863Y040298D01*
X030387Y040298D01*
X030329Y040240D01*
X030329Y040140D01*
X030272Y040140D01*
X030174Y040042D01*
X030092Y039961D01*
X030092Y038980D01*
X030081Y038980D01*
X029986Y038941D01*
X029914Y038868D01*
X029875Y038773D01*
X029875Y038671D01*
X029914Y038576D01*
X029986Y038503D01*
X030081Y038464D01*
X030184Y038464D01*
X030279Y038503D01*
X030329Y038553D01*
X030329Y038189D01*
X030387Y038131D01*
X030863Y038131D01*
X030921Y038189D01*
X030921Y038665D01*
X030863Y038723D01*
X030391Y038723D01*
X030391Y038773D01*
X030359Y038850D01*
X030370Y038861D01*
X030370Y038886D01*
X030381Y038908D01*
X030373Y038932D01*
X030387Y038918D01*
X030863Y038918D01*
X030921Y038976D01*
X030921Y039075D01*
X031116Y039075D01*
X031116Y038976D01*
X031174Y038918D01*
X031650Y038918D01*
X031708Y038976D01*
X031708Y038977D01*
X032552Y038977D01*
X032552Y038919D01*
X032830Y038919D01*
X033107Y038919D01*
X032830Y038919D01*
X032830Y038919D01*
X032830Y038919D01*
X032552Y038919D01*
X032552Y038861D01*
X031650Y038861D01*
X031512Y038723D01*
X031174Y038723D01*
X031116Y038665D01*
X031116Y038189D01*
X031174Y038131D01*
X031609Y038131D01*
X031414Y037936D01*
X031174Y037936D01*
X031116Y037877D01*
X031116Y037778D01*
X030921Y037778D01*
X030921Y037877D01*
X030863Y037936D01*
X030387Y037936D01*
X030329Y037877D01*
X030329Y037401D01*
X030387Y037343D01*
X030722Y037343D01*
X030710Y037331D01*
X030692Y037299D01*
X030682Y037264D01*
X030682Y037088D01*
X030979Y037088D01*
X030979Y037009D01*
X031058Y037009D01*
X031058Y036713D01*
X031234Y036713D01*
X031269Y036722D01*
X031301Y036740D01*
X031327Y036766D01*
X031345Y036798D01*
X031355Y036834D01*
X031355Y037009D01*
X031058Y037009D01*
X031058Y037088D01*
X031355Y037088D01*
X031355Y037264D01*
X031345Y037299D01*
X031327Y037331D01*
X031315Y037343D01*
X031566Y037343D01*
X031510Y037287D01*
X031510Y036811D01*
X031568Y036753D01*
X032044Y036753D01*
X032102Y036811D01*
X032102Y037287D01*
X032044Y037345D01*
X031945Y037345D01*
X031945Y037779D01*
X032355Y038190D01*
X032554Y038190D01*
X032455Y038091D01*
X032448Y038094D01*
X032345Y038094D01*
X032250Y038055D01*
X032178Y037982D01*
X032138Y037888D01*
X032138Y037785D01*
X032178Y037690D01*
X032250Y037617D01*
X032316Y037590D01*
X032250Y037563D01*
X032178Y037490D01*
X032138Y037395D01*
X032138Y037293D01*
X032178Y037198D01*
X032250Y037125D01*
X032345Y037086D01*
X032434Y037086D01*
X032434Y036997D01*
X032473Y036903D01*
X032546Y036830D01*
X032640Y036791D01*
X032743Y036791D01*
X032838Y036830D01*
X032911Y036903D01*
X032914Y036910D01*
X032947Y036910D01*
X032733Y036695D01*
X032715Y036678D01*
X029936Y036655D01*
X029936Y038427D01*
X026393Y038427D01*
X026393Y038473D02*
X030059Y038473D01*
X029939Y038550D02*
X026393Y038550D01*
X026393Y038628D02*
X029892Y038628D01*
X029875Y038705D02*
X026393Y038705D01*
X026393Y038782D02*
X029878Y038782D01*
X029910Y038859D02*
X027785Y038859D01*
X027883Y038900D02*
X028085Y039102D01*
X028195Y039366D01*
X028195Y039653D01*
X028085Y039917D01*
X027883Y040119D01*
X027618Y040229D01*
X027332Y040229D01*
X027068Y040119D01*
X026865Y039917D01*
X026756Y039653D01*
X026756Y039366D01*
X026865Y039102D01*
X027068Y038900D01*
X027332Y038790D01*
X027618Y038790D01*
X027883Y038900D01*
X027920Y038937D02*
X029982Y038937D01*
X030092Y039014D02*
X027997Y039014D01*
X028074Y039091D02*
X030092Y039091D01*
X030092Y039168D02*
X028113Y039168D01*
X028145Y039246D02*
X030092Y039246D01*
X030092Y039323D02*
X028177Y039323D01*
X028195Y039400D02*
X030092Y039400D01*
X030092Y039477D02*
X028195Y039477D01*
X028195Y039554D02*
X030092Y039554D01*
X030092Y039632D02*
X028195Y039632D01*
X028171Y039709D02*
X030092Y039709D01*
X030092Y039786D02*
X028139Y039786D01*
X028107Y039863D02*
X030092Y039863D01*
X030092Y039941D02*
X028061Y039941D01*
X027984Y040018D02*
X030150Y040018D01*
X030227Y040095D02*
X027907Y040095D01*
X027755Y040172D02*
X030329Y040172D01*
X030339Y040250D02*
X026393Y040250D01*
X026393Y040327D02*
X031707Y040327D01*
X031707Y040404D02*
X026393Y040404D01*
X026393Y040481D02*
X031751Y040481D01*
X031707Y040250D02*
X031698Y040250D01*
X031708Y039941D02*
X031726Y039941D01*
X031747Y039863D02*
X033035Y039863D01*
X033035Y039786D02*
X031824Y039786D01*
X031901Y039709D02*
X033035Y039709D01*
X033035Y039632D02*
X033088Y039632D01*
X033067Y039554D02*
X033243Y039554D01*
X033246Y039556D02*
X033201Y039530D01*
X033163Y039493D01*
X033137Y039447D01*
X033123Y039396D01*
X033123Y038860D01*
X033833Y038860D01*
X033833Y039570D01*
X033297Y039570D01*
X033246Y039556D01*
X033279Y039632D02*
X033285Y039632D01*
X033476Y039632D02*
X033482Y039632D01*
X033673Y039632D02*
X033679Y039632D01*
X033833Y039554D02*
X033912Y039554D01*
X033912Y039477D02*
X033833Y039477D01*
X033833Y039400D02*
X033912Y039400D01*
X033912Y039323D02*
X033833Y039323D01*
X033833Y039246D02*
X033912Y039246D01*
X033912Y039168D02*
X033833Y039168D01*
X033833Y039091D02*
X033912Y039091D01*
X033912Y039014D02*
X033833Y039014D01*
X033833Y038937D02*
X033912Y038937D01*
X033833Y038859D02*
X033107Y038859D01*
X033107Y038937D02*
X033123Y038937D01*
X033123Y039014D02*
X033099Y039014D01*
X033123Y039091D02*
X033067Y039091D01*
X033067Y039168D02*
X033123Y039168D01*
X033123Y039246D02*
X033067Y039246D01*
X033067Y039323D02*
X033123Y039323D01*
X033124Y039400D02*
X033067Y039400D01*
X033067Y039477D02*
X033154Y039477D01*
X032830Y039313D02*
X032101Y039313D01*
X031412Y040002D01*
X031116Y040018D02*
X030921Y040018D01*
X030921Y040095D02*
X031116Y040095D01*
X031116Y040172D02*
X030921Y040172D01*
X030911Y040250D02*
X031126Y040250D01*
X031116Y039941D02*
X030921Y039941D01*
X030921Y039863D02*
X031116Y039863D01*
X031116Y039786D02*
X030921Y039786D01*
X030866Y039709D02*
X031171Y039709D01*
X031141Y039477D02*
X030896Y039477D01*
X030921Y039400D02*
X031116Y039400D01*
X031412Y039214D02*
X030625Y039214D01*
X030921Y039014D02*
X031116Y039014D01*
X031156Y038937D02*
X030881Y038937D01*
X030881Y038705D02*
X031156Y038705D01*
X031116Y038628D02*
X030921Y038628D01*
X030921Y038550D02*
X031116Y038550D01*
X031116Y038473D02*
X030921Y038473D01*
X030921Y038396D02*
X031116Y038396D01*
X031116Y038319D02*
X030921Y038319D01*
X030921Y038241D02*
X031116Y038241D01*
X031141Y038164D02*
X030896Y038164D01*
X030866Y037932D02*
X031171Y037932D01*
X031116Y037855D02*
X030921Y037855D01*
X030921Y037501D02*
X031116Y037501D01*
X031116Y037401D01*
X031132Y037385D01*
X031058Y037385D01*
X031058Y037088D01*
X030979Y037088D01*
X030979Y037385D01*
X030905Y037385D01*
X030921Y037401D01*
X030921Y037501D01*
X030921Y037469D02*
X031116Y037469D01*
X031126Y037392D02*
X030911Y037392D01*
X030979Y037315D02*
X031058Y037315D01*
X031058Y037237D02*
X030979Y037237D01*
X030979Y037160D02*
X031058Y037160D01*
X031058Y037083D02*
X031510Y037083D01*
X031510Y037160D02*
X031355Y037160D01*
X031355Y037237D02*
X031510Y037237D01*
X031537Y037315D02*
X031337Y037315D01*
X031355Y037006D02*
X031510Y037006D01*
X031510Y036928D02*
X031355Y036928D01*
X031355Y036851D02*
X031510Y036851D01*
X031547Y036774D02*
X031331Y036774D01*
X031058Y036774D02*
X030979Y036774D01*
X030979Y036713D02*
X030979Y037009D01*
X030682Y037009D01*
X030682Y036834D01*
X030692Y036798D01*
X030710Y036766D01*
X030736Y036740D01*
X030768Y036722D01*
X030803Y036713D01*
X030979Y036713D01*
X030979Y036851D02*
X031058Y036851D01*
X031058Y036928D02*
X030979Y036928D01*
X030979Y037006D02*
X031058Y037006D01*
X030979Y037083D02*
X029936Y037083D01*
X029936Y037160D02*
X030682Y037160D01*
X030682Y037237D02*
X029936Y037237D01*
X029936Y037315D02*
X030700Y037315D01*
X030682Y037006D02*
X029936Y037006D01*
X029936Y036928D02*
X030682Y036928D01*
X030682Y036851D02*
X029936Y036851D01*
X029936Y036774D02*
X030706Y036774D01*
X030338Y037392D02*
X029936Y037392D01*
X029936Y037469D02*
X030329Y037469D01*
X030329Y037546D02*
X029936Y037546D01*
X029936Y037623D02*
X030329Y037623D01*
X030329Y037701D02*
X029936Y037701D01*
X029936Y037778D02*
X030329Y037778D01*
X030329Y037855D02*
X029936Y037855D01*
X029936Y037932D02*
X030384Y037932D01*
X030353Y038164D02*
X029936Y038164D01*
X029936Y038087D02*
X031565Y038087D01*
X031488Y038010D02*
X029936Y038010D01*
X029936Y038241D02*
X030329Y038241D01*
X030329Y038319D02*
X029936Y038319D01*
X029936Y038396D02*
X030329Y038396D01*
X030329Y038473D02*
X030206Y038473D01*
X030326Y038550D02*
X030329Y038550D01*
X030387Y038782D02*
X031571Y038782D01*
X031649Y038859D02*
X030368Y038859D01*
X030231Y038919D02*
X030133Y038722D01*
X030231Y038919D02*
X030231Y039903D01*
X030330Y040002D01*
X030625Y040002D01*
X030383Y039709D02*
X030370Y039709D01*
X030370Y039632D02*
X031586Y039632D01*
X031663Y039554D02*
X030370Y039554D01*
X031412Y039214D02*
X031511Y039116D01*
X032830Y039116D01*
X032552Y038937D02*
X031669Y038937D01*
X031707Y038722D02*
X031412Y038427D01*
X031707Y038722D02*
X032830Y038722D01*
X032830Y038525D02*
X032200Y038525D01*
X031412Y037738D01*
X031412Y037639D01*
X030625Y037639D01*
X031806Y037836D02*
X031806Y037049D01*
X032102Y037083D02*
X032434Y037083D01*
X032434Y037006D02*
X032102Y037006D01*
X032102Y036928D02*
X032462Y036928D01*
X032524Y036851D02*
X032102Y036851D01*
X032065Y036774D02*
X032811Y036774D01*
X032859Y036851D02*
X032888Y036851D01*
X032734Y036697D02*
X029936Y036697D01*
X031806Y037836D02*
X032298Y038328D01*
X032830Y038328D01*
X032830Y038131D02*
X032692Y038131D01*
X032396Y037836D01*
X032157Y037932D02*
X032098Y037932D01*
X032138Y037855D02*
X032021Y037855D01*
X031945Y037778D02*
X032141Y037778D01*
X032173Y037701D02*
X031945Y037701D01*
X031945Y037623D02*
X032244Y037623D01*
X032234Y037546D02*
X031945Y037546D01*
X031945Y037469D02*
X032169Y037469D01*
X032138Y037392D02*
X031945Y037392D01*
X032074Y037315D02*
X032138Y037315D01*
X032161Y037237D02*
X032102Y037237D01*
X032102Y037160D02*
X032216Y037160D01*
X032396Y037344D02*
X033184Y037344D01*
X033381Y037541D01*
X033381Y037777D01*
X033578Y037777D02*
X033578Y037541D01*
X033085Y037049D01*
X032692Y037049D01*
X032790Y036557D02*
X032790Y036261D01*
X032298Y036261D01*
X032790Y036557D02*
X033774Y037541D01*
X033774Y037777D01*
X033971Y037777D02*
X033971Y036950D01*
X033578Y036557D01*
X033578Y036261D01*
X034070Y036261D02*
X034168Y036360D01*
X034168Y037777D01*
X034365Y037777D02*
X034365Y036754D01*
X034857Y036261D01*
X035251Y035868D02*
X034267Y035868D01*
X034070Y036065D01*
X034070Y036261D01*
X034562Y037344D02*
X035349Y036557D01*
X035743Y036163D01*
X036530Y036163D01*
X036629Y036261D01*
X036629Y036557D01*
X036586Y036853D02*
X036391Y036853D01*
X036383Y036845D01*
X036375Y036853D01*
X036278Y036853D01*
X036334Y036909D01*
X036334Y037385D01*
X036276Y037443D01*
X035800Y037443D01*
X035742Y037385D01*
X035742Y037286D01*
X035702Y037286D01*
X035291Y037697D01*
X035291Y037895D01*
X035309Y037877D01*
X035390Y037796D01*
X035742Y037796D01*
X035742Y037697D01*
X035800Y037638D01*
X036276Y037638D01*
X036334Y037697D01*
X036334Y037796D01*
X036529Y037796D01*
X036529Y037697D01*
X036588Y037638D01*
X037064Y037638D01*
X037122Y037697D01*
X037122Y038173D01*
X037064Y038231D01*
X036588Y038231D01*
X036529Y038173D01*
X036529Y038073D01*
X036334Y038073D01*
X036334Y038173D01*
X036276Y038231D01*
X035800Y038231D01*
X035742Y038173D01*
X035742Y038073D01*
X035505Y038073D01*
X035488Y038091D01*
X035488Y038484D01*
X035407Y038566D01*
X035308Y038664D01*
X035095Y038664D01*
X035095Y038722D01*
X034818Y038722D01*
X034818Y038722D01*
X035095Y038722D01*
X035095Y038780D01*
X035545Y038780D01*
X035545Y038484D01*
X035603Y038426D01*
X036079Y038426D01*
X036138Y038484D01*
X036138Y038960D01*
X036121Y038977D01*
X036293Y038977D01*
X036529Y039213D01*
X036867Y039213D01*
X036925Y039271D01*
X036925Y039371D01*
X037080Y039371D01*
X037119Y039410D01*
X037457Y039410D01*
X037516Y039468D01*
X037516Y039944D01*
X037457Y040003D01*
X037361Y040003D01*
X037417Y040059D01*
X037417Y040535D01*
X037401Y040551D01*
X037628Y040551D01*
X037612Y040535D01*
X037612Y040059D01*
X037670Y040001D01*
X038102Y040001D01*
X038115Y039992D01*
X038163Y039944D01*
X038163Y037369D01*
X038156Y037366D01*
X038083Y037293D01*
X038044Y037199D01*
X038044Y037096D01*
X038083Y037001D01*
X038156Y036928D01*
X037949Y036928D01*
X037949Y036851D02*
X041944Y036851D01*
X041944Y036774D02*
X037949Y036774D01*
X037949Y036721D02*
X037949Y038780D01*
X037867Y038861D01*
X037670Y039058D01*
X037516Y039058D01*
X037516Y039157D01*
X037457Y039215D01*
X036981Y039215D01*
X036923Y039157D01*
X036923Y039019D01*
X036911Y039030D01*
X036879Y039049D01*
X036844Y039058D01*
X036668Y039058D01*
X036668Y038761D01*
X036589Y038761D01*
X036589Y038683D01*
X036293Y038683D01*
X036293Y038507D01*
X036302Y038471D01*
X036320Y038440D01*
X036346Y038414D01*
X036378Y038395D01*
X036414Y038386D01*
X036589Y038386D01*
X036589Y038683D01*
X036668Y038683D01*
X036668Y038386D01*
X036844Y038386D01*
X036879Y038395D01*
X036911Y038414D01*
X036937Y038440D01*
X036955Y038471D01*
X036965Y038507D01*
X036965Y038639D01*
X036981Y038623D01*
X037457Y038623D01*
X037516Y038681D01*
X037516Y038780D01*
X037556Y038780D01*
X037671Y038665D01*
X037671Y036836D01*
X037654Y036853D01*
X037178Y036853D01*
X037120Y036795D01*
X037120Y036714D01*
X036925Y036712D01*
X036925Y036795D01*
X036869Y036851D01*
X037064Y036851D01*
X037176Y036851D01*
X037122Y036909D02*
X037122Y037385D01*
X037064Y037443D01*
X036588Y037443D01*
X036529Y037385D01*
X036529Y036909D01*
X036586Y036853D01*
X036529Y036928D02*
X036334Y036928D01*
X036334Y037006D02*
X036529Y037006D01*
X036529Y037083D02*
X036334Y037083D01*
X036334Y037160D02*
X036529Y037160D01*
X036529Y037237D02*
X036334Y037237D01*
X036334Y037315D02*
X036529Y037315D01*
X036536Y037392D02*
X036328Y037392D01*
X036334Y037701D02*
X036529Y037701D01*
X036529Y037778D02*
X036334Y037778D01*
X036334Y038087D02*
X036529Y038087D01*
X036529Y038164D02*
X036334Y038164D01*
X036377Y038396D02*
X035488Y038396D01*
X035488Y038473D02*
X035556Y038473D01*
X035545Y038550D02*
X035422Y038550D01*
X035345Y038628D02*
X035545Y038628D01*
X035545Y038705D02*
X035095Y038705D01*
X035251Y038525D02*
X035349Y038427D01*
X035349Y038033D01*
X035448Y037935D01*
X036038Y037935D01*
X036826Y037935D01*
X037122Y037932D02*
X037671Y037932D01*
X037671Y037855D02*
X037122Y037855D01*
X037122Y037778D02*
X037671Y037778D01*
X037671Y037701D02*
X037122Y037701D01*
X037122Y038010D02*
X037671Y038010D01*
X037671Y038087D02*
X037122Y038087D01*
X037122Y038164D02*
X037671Y038164D01*
X037671Y038241D02*
X035488Y038241D01*
X035488Y038164D02*
X035742Y038164D01*
X035742Y038087D02*
X035492Y038087D01*
X035488Y038319D02*
X037671Y038319D01*
X037671Y038396D02*
X036880Y038396D01*
X036956Y038473D02*
X037671Y038473D01*
X037671Y038550D02*
X036965Y038550D01*
X036965Y038628D02*
X036976Y038628D01*
X036668Y038628D02*
X036589Y038628D01*
X036589Y038705D02*
X036138Y038705D01*
X036138Y038782D02*
X036293Y038782D01*
X036293Y038761D02*
X036589Y038761D01*
X036589Y039058D01*
X036414Y039058D01*
X036378Y039049D01*
X036346Y039030D01*
X036320Y039004D01*
X036302Y038973D01*
X036293Y038937D01*
X036293Y038761D01*
X036293Y038859D02*
X036138Y038859D01*
X036138Y038937D02*
X036293Y038937D01*
X036329Y039014D02*
X036330Y039014D01*
X036407Y039091D02*
X036923Y039091D01*
X036934Y039168D02*
X036484Y039168D01*
X036589Y039014D02*
X036668Y039014D01*
X036668Y038937D02*
X036589Y038937D01*
X036589Y038859D02*
X036668Y038859D01*
X036668Y038782D02*
X036589Y038782D01*
X036589Y038550D02*
X036668Y038550D01*
X036668Y038473D02*
X036589Y038473D01*
X036589Y038396D02*
X036668Y038396D01*
X036302Y038473D02*
X036127Y038473D01*
X036138Y038550D02*
X036293Y038550D01*
X036293Y038628D02*
X036138Y038628D01*
X035841Y038722D02*
X035644Y038919D01*
X034818Y038919D01*
X034818Y039116D02*
X036235Y039116D01*
X036629Y039509D01*
X037022Y039509D01*
X037219Y039706D01*
X037516Y039709D02*
X038163Y039709D01*
X038163Y039786D02*
X037516Y039786D01*
X037516Y039863D02*
X038163Y039863D01*
X038163Y039941D02*
X037516Y039941D01*
X037653Y040018D02*
X037376Y040018D01*
X037417Y040095D02*
X037612Y040095D01*
X037612Y040172D02*
X037417Y040172D01*
X037417Y040250D02*
X037612Y040250D01*
X037612Y040327D02*
X037417Y040327D01*
X037417Y040404D02*
X037612Y040404D01*
X037612Y040481D02*
X037417Y040481D01*
X037121Y040297D02*
X036629Y040297D01*
X036235Y039903D01*
X035644Y039903D01*
X035251Y039509D01*
X034818Y039509D01*
X034818Y039313D02*
X035644Y039313D01*
X035841Y039509D01*
X035113Y039864D02*
X035546Y040297D01*
X035841Y040297D01*
X035113Y039864D02*
X034562Y039864D01*
X034466Y039632D02*
X034460Y039632D01*
X034503Y039554D02*
X034581Y039554D01*
X034269Y039632D02*
X034264Y039632D01*
X034073Y039632D02*
X034067Y039632D01*
X033876Y039632D02*
X033870Y039632D01*
X033774Y039864D02*
X033774Y040100D01*
X033676Y040238D01*
X033971Y040100D02*
X034070Y040198D01*
X034070Y040297D01*
X033833Y040533D01*
X033125Y040533D01*
X032790Y040198D01*
X032494Y040172D02*
X032299Y040172D01*
X032299Y040095D02*
X032494Y040095D01*
X032494Y040018D02*
X032299Y040018D01*
X032279Y039941D02*
X032514Y039941D01*
X032494Y040250D02*
X032299Y040250D01*
X032299Y040327D02*
X032494Y040327D01*
X032494Y040404D02*
X032299Y040404D01*
X032254Y040481D02*
X032539Y040481D01*
X032624Y039632D02*
X031978Y039632D01*
X032056Y039554D02*
X032592Y039554D01*
X032592Y039477D02*
X032133Y039477D01*
X031895Y039323D02*
X031708Y039323D01*
X031708Y039400D02*
X031818Y039400D01*
X031740Y039477D02*
X031683Y039477D01*
X032330Y038164D02*
X032528Y038164D01*
X032327Y038087D02*
X032253Y038087D01*
X032205Y038010D02*
X032176Y038010D01*
X032689Y037932D02*
X033035Y037932D01*
X033035Y038010D02*
X033089Y038010D01*
X033067Y038087D02*
X033242Y038087D01*
X033279Y038010D02*
X033286Y038010D01*
X033476Y038010D02*
X033483Y038010D01*
X033673Y038010D02*
X033679Y038010D01*
X033833Y038087D02*
X033912Y038087D01*
X033912Y038164D02*
X033833Y038164D01*
X033833Y038241D02*
X033912Y038241D01*
X033912Y038319D02*
X033833Y038319D01*
X033833Y038396D02*
X033912Y038396D01*
X033912Y038473D02*
X033833Y038473D01*
X033833Y038550D02*
X033912Y038550D01*
X033912Y038628D02*
X033833Y038628D01*
X033833Y038705D02*
X033912Y038705D01*
X033971Y038722D02*
X033873Y038820D01*
X033833Y038782D02*
X033077Y038782D01*
X033067Y038705D02*
X033123Y038705D01*
X033123Y038628D02*
X033063Y038628D01*
X033067Y038550D02*
X033123Y038550D01*
X033123Y038473D02*
X033067Y038473D01*
X033067Y038396D02*
X033123Y038396D01*
X033123Y038319D02*
X033067Y038319D01*
X033067Y038241D02*
X033124Y038241D01*
X033154Y038164D02*
X033067Y038164D01*
X033184Y037777D02*
X032928Y037777D01*
X032790Y037639D01*
X033869Y038010D02*
X033876Y038010D01*
X034066Y038010D02*
X034073Y038010D01*
X034263Y038010D02*
X034270Y038010D01*
X034460Y038010D02*
X034467Y038010D01*
X034504Y038087D02*
X034581Y038087D01*
X034818Y038131D02*
X034818Y037679D01*
X035940Y036557D01*
X036137Y036557D01*
X036376Y036851D02*
X036389Y036851D01*
X036038Y037147D02*
X035644Y037147D01*
X035152Y037639D01*
X035152Y038230D01*
X035054Y038328D01*
X034818Y038328D01*
X034818Y038525D02*
X035251Y038525D01*
X034818Y038722D02*
X033971Y038722D01*
X034562Y037777D02*
X034562Y037344D01*
X035291Y037701D02*
X035742Y037701D01*
X035742Y037778D02*
X035291Y037778D01*
X035291Y037855D02*
X035331Y037855D01*
X035364Y037623D02*
X037671Y037623D01*
X037671Y037546D02*
X035442Y037546D01*
X035519Y037469D02*
X037671Y037469D01*
X037671Y037392D02*
X037115Y037392D01*
X037122Y037315D02*
X037671Y037315D01*
X037671Y037237D02*
X037122Y037237D01*
X037122Y037160D02*
X037671Y037160D01*
X037671Y037083D02*
X037122Y037083D01*
X037122Y037006D02*
X037671Y037006D01*
X037671Y036928D02*
X037122Y036928D01*
X037122Y036909D02*
X037064Y036851D01*
X037120Y036774D02*
X036925Y036774D01*
X037656Y036851D02*
X037671Y036851D01*
X037949Y036721D02*
X041944Y036754D01*
X041944Y037757D01*
X041804Y037757D01*
X041746Y037815D01*
X041746Y038547D01*
X041804Y038605D01*
X042280Y038605D01*
X042338Y038547D01*
X042338Y038427D01*
X045840Y038427D01*
X045840Y040551D01*
X038188Y040551D01*
X038204Y040535D01*
X038204Y040266D01*
X038246Y040239D01*
X038261Y040239D01*
X038292Y040208D01*
X038328Y040184D01*
X038331Y040168D01*
X038359Y040140D01*
X038441Y040059D01*
X038441Y037369D01*
X038448Y037366D01*
X038521Y037293D01*
X038560Y037199D01*
X038560Y037096D01*
X038521Y037001D01*
X038448Y036928D01*
X041944Y036928D01*
X041944Y037006D02*
X038523Y037006D01*
X038555Y037083D02*
X041944Y037083D01*
X041944Y037160D02*
X038560Y037160D01*
X038544Y037237D02*
X041944Y037237D01*
X041944Y037315D02*
X038500Y037315D01*
X038441Y037392D02*
X041944Y037392D01*
X041944Y037469D02*
X038441Y037469D01*
X038441Y037546D02*
X041944Y037546D01*
X041944Y037623D02*
X038441Y037623D01*
X038441Y037701D02*
X041944Y037701D01*
X041783Y037778D02*
X041514Y037778D01*
X041493Y037757D02*
X041551Y037815D01*
X041551Y038547D01*
X041493Y038605D01*
X041017Y038605D01*
X040959Y038547D01*
X040959Y037815D01*
X041017Y037757D01*
X041493Y037757D01*
X041551Y037855D02*
X041746Y037855D01*
X041746Y037932D02*
X041551Y037932D01*
X041551Y038010D02*
X041746Y038010D01*
X041746Y038087D02*
X041551Y038087D01*
X041551Y038164D02*
X041746Y038164D01*
X041746Y038241D02*
X041551Y038241D01*
X041551Y038319D02*
X041746Y038319D01*
X041746Y038396D02*
X041551Y038396D01*
X041551Y038473D02*
X041746Y038473D01*
X041750Y038550D02*
X041547Y038550D01*
X041255Y038181D02*
X041255Y038131D01*
X040959Y038164D02*
X040764Y038164D01*
X040764Y038087D02*
X040959Y038087D01*
X040959Y038010D02*
X040764Y038010D01*
X040764Y037932D02*
X040959Y037932D01*
X040959Y037855D02*
X040764Y037855D01*
X040764Y037815D02*
X040764Y038547D01*
X040705Y038605D01*
X040229Y038605D01*
X040171Y038547D01*
X040171Y037815D01*
X040229Y037757D01*
X040705Y037757D01*
X040764Y037815D01*
X040727Y037778D02*
X040995Y037778D01*
X040959Y038241D02*
X040764Y038241D01*
X040764Y038319D02*
X040959Y038319D01*
X040959Y038396D02*
X040764Y038396D01*
X040764Y038473D02*
X040959Y038473D01*
X040962Y038550D02*
X040760Y038550D01*
X040467Y038181D02*
X040467Y038131D01*
X040171Y038164D02*
X039976Y038164D01*
X039976Y038087D02*
X040171Y038087D01*
X040171Y038010D02*
X039976Y038010D01*
X039976Y037932D02*
X040171Y037932D01*
X040171Y037855D02*
X039976Y037855D01*
X039976Y037815D02*
X039976Y038547D01*
X039918Y038605D01*
X039442Y038605D01*
X039384Y038547D01*
X039384Y037815D01*
X039442Y037757D01*
X039918Y037757D01*
X039976Y037815D01*
X039939Y037778D02*
X040208Y037778D01*
X040171Y038241D02*
X039976Y038241D01*
X039976Y038319D02*
X040171Y038319D01*
X040171Y038396D02*
X039976Y038396D01*
X039976Y038473D02*
X040171Y038473D01*
X040175Y038550D02*
X039972Y038550D01*
X039680Y038181D02*
X039680Y038131D01*
X039384Y038164D02*
X039189Y038164D01*
X039189Y038087D02*
X039384Y038087D01*
X039384Y038010D02*
X039189Y038010D01*
X039189Y037932D02*
X039384Y037932D01*
X039384Y037855D02*
X039189Y037855D01*
X039189Y037815D02*
X039189Y038547D01*
X039131Y038605D01*
X038655Y038605D01*
X038596Y038547D01*
X038596Y037815D01*
X038655Y037757D01*
X039131Y037757D01*
X039189Y037815D01*
X039152Y037778D02*
X039421Y037778D01*
X039384Y038241D02*
X039189Y038241D01*
X039189Y038319D02*
X039384Y038319D01*
X039384Y038396D02*
X039189Y038396D01*
X039189Y038473D02*
X039384Y038473D01*
X039387Y038550D02*
X039185Y038550D01*
X038893Y038230D02*
X038893Y038181D01*
X038596Y038164D02*
X038441Y038164D01*
X038441Y038087D02*
X038596Y038087D01*
X038596Y038010D02*
X038441Y038010D01*
X038441Y037932D02*
X038596Y037932D01*
X038596Y037855D02*
X038441Y037855D01*
X038441Y037778D02*
X038633Y037778D01*
X038596Y038241D02*
X038441Y038241D01*
X038441Y038319D02*
X038596Y038319D01*
X038596Y038396D02*
X038441Y038396D01*
X038441Y038473D02*
X038596Y038473D01*
X038600Y038550D02*
X038441Y038550D01*
X038441Y038628D02*
X045840Y038628D01*
X045840Y038705D02*
X038441Y038705D01*
X038441Y038782D02*
X045840Y038782D01*
X045840Y038859D02*
X045108Y038859D01*
X045206Y038900D02*
X044941Y038790D01*
X044655Y038790D01*
X044391Y038900D01*
X044188Y039102D01*
X044079Y039366D01*
X044079Y039653D01*
X044188Y039917D01*
X044391Y040119D01*
X044655Y040229D01*
X044941Y040229D01*
X045206Y040119D01*
X045408Y039917D01*
X045517Y039653D01*
X045517Y039366D01*
X045408Y039102D01*
X045206Y038900D01*
X045242Y038937D02*
X045840Y038937D01*
X045840Y039014D02*
X045320Y039014D01*
X045397Y039091D02*
X045840Y039091D01*
X045840Y039168D02*
X045435Y039168D01*
X045467Y039246D02*
X045840Y039246D01*
X045840Y039323D02*
X045499Y039323D01*
X045517Y039400D02*
X045840Y039400D01*
X045840Y039477D02*
X045517Y039477D01*
X045517Y039554D02*
X045840Y039554D01*
X045840Y039632D02*
X045517Y039632D01*
X045494Y039709D02*
X045840Y039709D01*
X045840Y039786D02*
X045462Y039786D01*
X045430Y039863D02*
X045840Y039863D01*
X045840Y039941D02*
X045384Y039941D01*
X045307Y040018D02*
X045840Y040018D01*
X045840Y040095D02*
X045230Y040095D01*
X045077Y040172D02*
X045840Y040172D01*
X045840Y040250D02*
X042378Y040250D01*
X042378Y040327D02*
X045840Y040327D01*
X045840Y040404D02*
X042376Y040404D01*
X042378Y040394D02*
X042369Y040429D01*
X042350Y040461D01*
X042325Y040487D01*
X042293Y040505D01*
X042257Y040515D01*
X042081Y040515D01*
X042081Y040090D01*
X042003Y040090D01*
X042003Y040515D01*
X041827Y040515D01*
X041791Y040505D01*
X041760Y040487D01*
X041734Y040461D01*
X041715Y040429D01*
X041706Y040394D01*
X041706Y040090D01*
X042003Y040090D01*
X042003Y040011D01*
X042081Y040011D01*
X042081Y039587D01*
X042257Y039587D01*
X042293Y039596D01*
X042325Y039614D01*
X042350Y039640D01*
X042369Y039672D01*
X042378Y039708D01*
X042378Y040011D01*
X042081Y040011D01*
X042081Y040090D01*
X042378Y040090D01*
X042378Y040394D01*
X042330Y040481D02*
X045840Y040481D01*
X044519Y040172D02*
X042378Y040172D01*
X042378Y040095D02*
X044366Y040095D01*
X044289Y040018D02*
X042081Y040018D01*
X042081Y040095D02*
X042003Y040095D01*
X042003Y040018D02*
X041294Y040018D01*
X041294Y040011D02*
X041294Y040090D01*
X041591Y040090D01*
X041591Y040394D01*
X041581Y040429D01*
X041563Y040461D01*
X041537Y040487D01*
X041505Y040505D01*
X041470Y040515D01*
X041294Y040515D01*
X041294Y040090D01*
X041215Y040090D01*
X041215Y040011D01*
X041294Y040011D01*
X041294Y039587D01*
X041470Y039587D01*
X041505Y039596D01*
X041537Y039614D01*
X041563Y039640D01*
X041581Y039672D01*
X041591Y039708D01*
X041591Y040011D01*
X041294Y040011D01*
X041294Y039941D02*
X041215Y039941D01*
X041215Y040011D02*
X041215Y039587D01*
X041040Y039587D01*
X041004Y039596D01*
X040972Y039614D01*
X040946Y039640D01*
X040928Y039672D01*
X040919Y039708D01*
X040919Y040011D01*
X041215Y040011D01*
X041215Y040018D02*
X040764Y040018D01*
X040764Y040095D02*
X040919Y040095D01*
X040919Y040090D02*
X041215Y040090D01*
X041215Y040515D01*
X041040Y040515D01*
X041004Y040505D01*
X040972Y040487D01*
X040946Y040461D01*
X040928Y040429D01*
X040919Y040394D01*
X040919Y040090D01*
X040919Y040172D02*
X040764Y040172D01*
X040764Y040250D02*
X040919Y040250D01*
X040919Y040327D02*
X040764Y040327D01*
X040764Y040404D02*
X040921Y040404D01*
X040967Y040481D02*
X038204Y040481D01*
X038204Y040404D02*
X038596Y040404D01*
X038596Y040417D02*
X038596Y039685D01*
X038655Y039627D01*
X039131Y039627D01*
X039189Y039685D01*
X039189Y039892D01*
X039384Y039892D01*
X039384Y039685D01*
X039442Y039627D01*
X039918Y039627D01*
X039976Y039685D01*
X039976Y039892D01*
X040171Y039892D01*
X040171Y039685D01*
X040229Y039627D01*
X040705Y039627D01*
X040764Y039685D01*
X040764Y040417D01*
X040705Y040475D01*
X040229Y040475D01*
X040171Y040417D01*
X040171Y040209D01*
X039976Y040209D01*
X039976Y040417D01*
X039918Y040475D01*
X039442Y040475D01*
X039384Y040417D01*
X039384Y040209D01*
X039189Y040209D01*
X039189Y040417D01*
X039131Y040475D01*
X038655Y040475D01*
X038596Y040417D01*
X038596Y040327D02*
X038204Y040327D01*
X038229Y040250D02*
X038596Y040250D01*
X038596Y040172D02*
X038331Y040172D01*
X038405Y040095D02*
X038596Y040095D01*
X038596Y040018D02*
X038441Y040018D01*
X038441Y039941D02*
X038596Y039941D01*
X038596Y039863D02*
X038441Y039863D01*
X038441Y039786D02*
X038596Y039786D01*
X038596Y039709D02*
X038441Y039709D01*
X038441Y039632D02*
X038649Y039632D01*
X038441Y039554D02*
X044079Y039554D01*
X044079Y039477D02*
X038441Y039477D01*
X038441Y039400D02*
X044079Y039400D01*
X044097Y039323D02*
X038441Y039323D01*
X038441Y039246D02*
X044129Y039246D01*
X044161Y039168D02*
X038441Y039168D01*
X038441Y039091D02*
X044199Y039091D01*
X044276Y039014D02*
X038441Y039014D01*
X038441Y038937D02*
X044354Y038937D01*
X044488Y038859D02*
X038441Y038859D01*
X038163Y038859D02*
X037869Y038859D01*
X037946Y038782D02*
X038163Y038782D01*
X038163Y038705D02*
X037949Y038705D01*
X037949Y038628D02*
X038163Y038628D01*
X038163Y038550D02*
X037949Y038550D01*
X037949Y038473D02*
X038163Y038473D01*
X038163Y038396D02*
X037949Y038396D01*
X037949Y038319D02*
X038163Y038319D01*
X038163Y038241D02*
X037949Y038241D01*
X037949Y038164D02*
X038163Y038164D01*
X038163Y038087D02*
X037949Y038087D01*
X037949Y038010D02*
X038163Y038010D01*
X038163Y037932D02*
X037949Y037932D01*
X037949Y037855D02*
X038163Y037855D01*
X038163Y037778D02*
X037949Y037778D01*
X037949Y037701D02*
X038163Y037701D01*
X038163Y037623D02*
X037949Y037623D01*
X037949Y037546D02*
X038163Y037546D01*
X038163Y037469D02*
X037949Y037469D01*
X037949Y037392D02*
X038163Y037392D01*
X038104Y037315D02*
X037949Y037315D01*
X037949Y037237D02*
X038060Y037237D01*
X038044Y037160D02*
X037949Y037160D01*
X037949Y037083D02*
X038049Y037083D01*
X038081Y037006D02*
X037949Y037006D01*
X038156Y036928D02*
X038251Y036889D01*
X038353Y036889D01*
X038448Y036928D01*
X038302Y037147D02*
X038302Y040002D01*
X038204Y040100D01*
X037908Y040297D01*
X038163Y039632D02*
X037516Y039632D01*
X037516Y039554D02*
X038163Y039554D01*
X038163Y039477D02*
X037516Y039477D01*
X037504Y039168D02*
X038163Y039168D01*
X038163Y039091D02*
X037516Y039091D01*
X037613Y038919D02*
X037810Y038722D01*
X037810Y036065D01*
X035742Y037315D02*
X035673Y037315D01*
X035748Y037392D02*
X035596Y037392D01*
X035251Y035868D02*
X035349Y035769D01*
X037462Y038628D02*
X037671Y038628D01*
X037631Y038705D02*
X037516Y038705D01*
X037613Y038919D02*
X037219Y038919D01*
X036899Y039246D02*
X038163Y039246D01*
X038163Y039323D02*
X036925Y039323D01*
X037109Y039400D02*
X038163Y039400D01*
X038163Y039014D02*
X037714Y039014D01*
X037792Y038937D02*
X038163Y038937D01*
X039136Y039632D02*
X039437Y039632D01*
X039384Y039709D02*
X039189Y039709D01*
X039189Y039786D02*
X039384Y039786D01*
X039384Y039863D02*
X039189Y039863D01*
X038893Y040051D02*
X038893Y040100D01*
X039189Y040250D02*
X039384Y040250D01*
X039384Y040327D02*
X039189Y040327D01*
X039189Y040404D02*
X039384Y040404D01*
X039976Y040404D02*
X040171Y040404D01*
X040171Y040327D02*
X039976Y040327D01*
X039976Y040250D02*
X040171Y040250D01*
X040171Y039863D02*
X039976Y039863D01*
X039976Y039786D02*
X040171Y039786D01*
X040171Y039709D02*
X039976Y039709D01*
X039923Y039632D02*
X040224Y039632D01*
X040710Y039632D02*
X040955Y039632D01*
X040919Y039709D02*
X040764Y039709D01*
X040764Y039786D02*
X040919Y039786D01*
X040919Y039863D02*
X040764Y039863D01*
X040764Y039941D02*
X040919Y039941D01*
X041215Y039863D02*
X041294Y039863D01*
X041294Y039786D02*
X041215Y039786D01*
X041215Y039709D02*
X041294Y039709D01*
X041294Y039632D02*
X041215Y039632D01*
X041554Y039632D02*
X041742Y039632D01*
X041734Y039640D02*
X041760Y039614D01*
X041791Y039596D01*
X041827Y039587D01*
X042003Y039587D01*
X042003Y040011D01*
X041706Y040011D01*
X041706Y039708D01*
X041715Y039672D01*
X041734Y039640D01*
X041706Y039709D02*
X041591Y039709D01*
X041591Y039786D02*
X041706Y039786D01*
X041706Y039863D02*
X041591Y039863D01*
X041591Y039941D02*
X041706Y039941D01*
X041706Y040095D02*
X041591Y040095D01*
X041591Y040172D02*
X041706Y040172D01*
X041706Y040250D02*
X041591Y040250D01*
X041591Y040327D02*
X041706Y040327D01*
X041709Y040404D02*
X041588Y040404D01*
X041543Y040481D02*
X041754Y040481D01*
X042003Y040481D02*
X042081Y040481D01*
X042081Y040404D02*
X042003Y040404D01*
X042003Y040327D02*
X042081Y040327D01*
X042081Y040250D02*
X042003Y040250D01*
X042003Y040172D02*
X042081Y040172D01*
X042081Y039941D02*
X042003Y039941D01*
X042003Y039863D02*
X042081Y039863D01*
X042081Y039786D02*
X042003Y039786D01*
X042003Y039709D02*
X042081Y039709D01*
X042081Y039632D02*
X042003Y039632D01*
X042342Y039632D02*
X044079Y039632D01*
X044102Y039709D02*
X042378Y039709D01*
X042378Y039786D02*
X044134Y039786D01*
X044166Y039863D02*
X042378Y039863D01*
X042378Y039941D02*
X044212Y039941D01*
X045840Y038550D02*
X042335Y038550D01*
X042338Y038473D02*
X045840Y038473D01*
X043617Y037147D02*
X043223Y037541D01*
X043223Y037580D01*
X043223Y037639D01*
X042042Y038181D02*
X042042Y038230D01*
X041294Y040095D02*
X041215Y040095D01*
X041215Y040172D02*
X041294Y040172D01*
X041294Y040250D02*
X041215Y040250D01*
X041215Y040327D02*
X041294Y040327D01*
X041294Y040404D02*
X041215Y040404D01*
X041215Y040481D02*
X041294Y040481D01*
X033971Y040100D02*
X033971Y039864D01*
X027196Y040172D02*
X026393Y040172D01*
X026393Y040095D02*
X027044Y040095D01*
X026966Y040018D02*
X026393Y040018D01*
X026393Y039941D02*
X026889Y039941D01*
X026843Y039863D02*
X026393Y039863D01*
X026393Y039786D02*
X026811Y039786D01*
X026779Y039709D02*
X026393Y039709D01*
X026393Y039632D02*
X026756Y039632D01*
X026756Y039554D02*
X026393Y039554D01*
X026393Y039477D02*
X026756Y039477D01*
X026756Y039400D02*
X026393Y039400D01*
X026393Y039323D02*
X026774Y039323D01*
X026806Y039246D02*
X026393Y039246D01*
X026393Y039168D02*
X026838Y039168D01*
X026876Y039091D02*
X026393Y039091D01*
X026393Y039014D02*
X026954Y039014D01*
X027031Y038937D02*
X026393Y038937D01*
X026393Y038859D02*
X027165Y038859D01*
X018912Y030553D02*
X015172Y030553D01*
X014778Y030159D01*
X014778Y025730D01*
X016550Y024844D02*
X016944Y024450D01*
X019207Y024450D01*
X019306Y024549D01*
X019306Y028584D01*
X019995Y029273D01*
X019995Y029765D01*
X019601Y029667D02*
X019601Y029864D01*
X018912Y030553D01*
X008085Y036950D02*
X006314Y036950D01*
X006215Y015002D02*
X006314Y014903D01*
D22*
X018814Y023269D02*
X018814Y023958D01*
X019011Y024155D01*
X021963Y024155D01*
X022160Y024352D01*
X022160Y028289D01*
X021963Y028486D01*
X026786Y033998D02*
X026786Y007128D01*
X026983Y006931D01*
X030231Y006931D01*
X030822Y006340D01*
X030920Y006340D01*
X030723Y005946D02*
X029936Y006734D01*
X026589Y006734D01*
X026491Y006832D01*
X026491Y035277D01*
X027081Y035868D01*
X027081Y036124D01*
X027475Y036517D01*
X027475Y036557D01*
X027475Y037147D02*
X027475Y037482D01*
X027574Y037580D01*
X027731Y037580D01*
X027967Y037344D01*
X027967Y035277D01*
X026786Y033998D01*
X027081Y033899D02*
X027081Y007521D01*
X027475Y007128D01*
X030723Y007128D01*
X031609Y006242D01*
X032396Y006242D01*
X032790Y006635D01*
X041353Y006635D01*
X042042Y007324D01*
X044995Y007324D01*
X045192Y007521D01*
X045192Y033407D01*
X043223Y035376D01*
X043223Y036124D01*
X043617Y036517D01*
X043617Y036557D01*
X044798Y036557D02*
X044798Y036517D01*
X045192Y036124D01*
X045093Y036025D01*
X045093Y034194D01*
X045487Y033801D01*
X045487Y007226D01*
X045290Y007029D01*
X042239Y007029D01*
X041550Y006340D01*
X033085Y006340D01*
X032987Y006340D01*
X032692Y006045D01*
X032692Y003387D01*
X032790Y003289D01*
X033243Y003289D01*
X033676Y002895D02*
X033696Y002915D01*
X034070Y002915D01*
X033676Y002895D02*
X033676Y001714D01*
X033774Y001616D01*
X034050Y001616D01*
X034070Y001635D01*
X034089Y001616D01*
X034857Y001616D01*
X035103Y001862D01*
X035103Y002256D01*
X035349Y002502D01*
X036973Y002502D01*
X037022Y002452D01*
X037022Y001714D01*
X037121Y001616D01*
X038204Y001616D01*
X038400Y001813D01*
X038400Y002895D01*
X038381Y002876D01*
X038007Y002876D01*
X038026Y002895D01*
X038400Y002895D02*
X038400Y004175D01*
X038400Y005356D01*
X038322Y005435D01*
X038007Y005435D01*
X037928Y004765D02*
X037072Y004765D01*
X036973Y004864D01*
X036973Y004076D02*
X037515Y004076D01*
X038007Y003584D01*
X038007Y003407D01*
X037613Y003092D02*
X037613Y002206D01*
X037692Y002128D01*
X038007Y002128D01*
X038833Y002502D02*
X039286Y002502D01*
X039581Y002502D01*
X042534Y002502D01*
X043223Y003191D01*
X043223Y004431D01*
X043617Y004824D01*
X043617Y004864D01*
X043617Y005454D02*
X043617Y005494D01*
X043223Y005887D01*
X043184Y005848D01*
X042436Y005848D01*
X042042Y005454D01*
X042042Y003978D01*
X041845Y003781D01*
X039286Y003781D01*
X038833Y003781D01*
X038400Y004175D02*
X038026Y004175D01*
X038007Y004155D01*
X038007Y004687D02*
X037928Y004765D01*
X038833Y005061D02*
X041452Y005061D01*
X041648Y006045D02*
X042337Y006734D01*
X045585Y006734D01*
X045782Y006931D01*
X045782Y034391D01*
X045585Y034588D01*
X044896Y037147D02*
X045290Y037541D01*
X045231Y037541D01*
X045192Y037580D01*
X044896Y037147D02*
X044798Y037147D01*
X040467Y040051D02*
X039680Y040051D01*
X038942Y040051D01*
X038893Y040100D01*
X029050Y037580D02*
X028656Y037187D01*
X028656Y037147D01*
X028263Y037147D01*
X028164Y037049D01*
X028164Y034982D01*
X027081Y033899D01*
X029050Y036124D02*
X028656Y036517D01*
X028656Y036557D01*
X027574Y037580D02*
X027081Y037580D01*
X004444Y033407D02*
X003459Y033407D01*
X003263Y033210D01*
X003263Y031832D01*
X027081Y005887D02*
X027475Y005494D01*
X027475Y005454D01*
X027475Y004864D02*
X027318Y004706D01*
X027318Y004431D01*
X028263Y003486D01*
X030133Y003486D01*
X030526Y003781D02*
X031117Y003781D01*
X030526Y003781D02*
X029877Y004431D01*
X029050Y004431D01*
X029050Y004470D01*
X028656Y004864D01*
X028656Y005454D02*
X028656Y005494D01*
X029050Y005887D01*
X029050Y005848D01*
X030231Y005848D01*
X031707Y004372D01*
X031707Y002600D01*
X031806Y002502D01*
X032396Y002206D02*
X032593Y002009D01*
X033243Y002009D01*
X034070Y002383D02*
X034089Y002403D01*
X034365Y002403D01*
X034463Y002502D01*
X034463Y003191D01*
X034562Y003289D01*
X035103Y003289D01*
X035103Y002502D02*
X035349Y002502D01*
X034562Y003683D02*
X034089Y003683D01*
X034070Y003663D01*
X034562Y003683D02*
X034956Y004076D01*
X035103Y004076D01*
X035103Y004864D02*
X034148Y004864D01*
X034070Y004943D01*
X034070Y004194D02*
X033794Y004194D01*
X033676Y004076D01*
X033676Y002895D01*
X032396Y002206D02*
X032396Y006242D01*
X033243Y005907D02*
X033381Y006045D01*
X041648Y006045D01*
X044798Y005454D02*
X044896Y005454D01*
X045290Y005848D01*
X045152Y005848D01*
X045192Y005887D01*
X044798Y004864D02*
X044798Y004824D01*
X045192Y004431D01*
X045192Y004372D02*
X045133Y004372D01*
X037613Y003092D02*
X037416Y003289D01*
X036973Y003289D01*
X033243Y004569D02*
X033243Y005907D01*
X027318Y004431D02*
X027081Y004431D01*
D23*
X007987Y035966D02*
X004936Y035966D01*
D24*
X004444Y036655D02*
X004148Y036950D01*
X003558Y036950D01*
X004444Y036655D02*
X004444Y033407D01*
X004641Y033210D01*
X005133Y033210D01*
X005330Y033013D01*
X027475Y033702D02*
X027475Y008013D01*
X028066Y007423D01*
X027081Y005887D02*
X027515Y005454D01*
X027869Y005454D01*
X028066Y005257D01*
X035103Y005651D02*
X036038Y005651D01*
X036038Y002994D01*
X036038Y005651D02*
X036973Y005651D01*
X036924Y005651D01*
X044798Y007817D02*
X044798Y033210D01*
X042928Y035080D01*
X042534Y035080D01*
X042239Y035376D01*
X042239Y037049D01*
X042770Y037580D01*
X043223Y037580D01*
X029050Y036124D02*
X029050Y035277D01*
X027475Y033702D01*
X045192Y004431D02*
X045192Y004372D01*
D25*
X008184Y004076D02*
X004247Y004076D01*
X002967Y005356D01*
X002967Y020907D01*
X003755Y021694D01*
X003755Y026124D01*
X004345Y026714D01*
X007593Y026714D01*
X008774Y027895D01*
X008774Y031143D01*
X015664Y011261D02*
X015664Y010080D01*
X015664Y009588D01*
X015664Y008801D02*
X015664Y002108D01*
X015172Y001616D01*
X010644Y001616D01*
X008184Y004076D01*
M02*
