%
M48
M72
T01C0.0150
T02C0.0157
T03C0.0630
T04C0.1160
%
T01
X7682Y9574
X7682Y11149
X9257Y11149
X10143Y10263
X9257Y9574
X10143Y12822
X12898Y14397
X14670Y14101
X17131Y10361
X19591Y10263
X20969Y11838
X21855Y11838
X22249Y14397
X21363Y16070
X24709Y16070
X26087Y15381
X21954Y19908
X21166Y19908
X21068Y21483
X21068Y21975
X22052Y22566
X22347Y24633
X21265Y24731
X20674Y25420
X22347Y26011
X22741Y26306
X23135Y26601
X23036Y27290
X25497Y24731
X25103Y24338
X24709Y23944
X25595Y23156
X24906Y22566
X26481Y25519
X19394Y26405
X18115Y25912
X19296Y24633
X18607Y23747
X16639Y24436
X14867Y26601
X14867Y27586
X15654Y28471
X17032Y27782
X14080Y28964
X13391Y28176
X13194Y27586
X12406Y27586
X12505Y25322
X13292Y25322
X12013Y30538
X11914Y32015
X10536Y33294
X9847Y32507
X9058Y34277
X8371Y35066
X9355Y35755
X9946Y36936
X9355Y37330
X9158Y37822
X8863Y38806
X9650Y38806
X10339Y38216
X11225Y38216
X11225Y37428
X12111Y37625
X12406Y37330
X12406Y38511
X14670Y38412
X14670Y38019
X14670Y37625
X14670Y38806
X14670Y39200
X14670Y39594
X17623Y41660
X18607Y41660
X18115Y42743
X18509Y43531
X19099Y43531
X19591Y42448
X20871Y45105
X21658Y45105
X20083Y47960
X19296Y47960
X18509Y47960
X16934Y47960
X16934Y46680
X15359Y46779
X16934Y43531
X12209Y46188
X11619Y46188
X10635Y40282
X8272Y40282
X7780Y36838
X8174Y33885
X8174Y30735
X7977Y25716
X8174Y22861
X8272Y18629
X9060Y17940
X9847Y16857
X10536Y18432
X13194Y18137
X13686Y18727
X16639Y20597
X18115Y14987
X11914Y34279
X43213Y41759
T02
X44394Y42349
X45674Y42743
X45280Y43727
X46068Y45204
X46068Y46090
X44493Y48058
X43312Y47763
X42032Y45794
X42918Y45696
X40851Y45007
X39670Y43924
X38095Y46975
X38391Y47763
X35536Y37133
X35930Y36641
X36324Y36149
X44394Y37133
X44690Y36641
X44985Y36149
X26678Y30735
X26186Y31916
X25398Y31129
X25300Y31818
X24611Y31129
X24414Y30342
X25202Y30342
X24316Y28570
X24316Y27782
X25103Y27782
X24709Y26503
X25497Y26503
X23528Y27192
X23528Y27979
X23036Y29062
X22643Y29062
X22643Y29456
X23036Y29456
X23036Y29849
X22643Y29849
X22643Y30243
X23036Y30243
X22249Y30243
X22249Y29849
X22249Y29456
X21855Y29456
X21855Y29849
X21855Y30243
X22150Y31326
X21363Y31326
X21363Y32113
X21127Y32704
X20379Y32704
X20339Y33491
X20182Y34082
X20969Y34082
X21127Y33491
X22328Y34082
X22721Y34082
X22721Y34475
X22328Y34475
X21855Y35066
X21461Y35558
X21461Y36247
X21363Y37133
X21461Y37920
X21461Y38708
X21461Y39495
X21363Y40282
X21363Y41070
X21461Y41857
X21461Y42645
X21757Y43531
X22446Y44121
X23725Y44219
X24709Y44219
X25595Y44515
X26087Y44515
X26580Y44515
X26580Y42546
X26087Y42546
X25595Y42546
X24709Y42842
X23725Y42842
X22839Y42645
X22839Y41857
X22839Y41070
X22839Y40282
X22839Y39495
X22839Y38708
X22839Y37920
X23528Y37133
X23528Y36405
X22741Y36385
X23233Y35027
X23824Y33885
X24217Y33491
X23824Y32704
X23135Y32408
X23135Y31621
X22150Y32113
X20772Y30637
X19985Y30637
X19394Y30637
X19394Y29849
X19493Y29062
X20241Y29062
X20772Y29062
X20871Y28275
X20871Y27487
X20772Y26011
X21560Y25617
X21265Y24141
X22052Y24141
X22052Y23353
X21265Y23353
X22938Y23058
X22938Y23845
X23135Y21975
X23135Y21582
X23528Y21582
X23528Y21975
X23922Y21975
X23922Y21582
X23922Y21188
X23528Y21188
X23135Y21188
X22544Y20499
X23135Y19219
X24414Y19318
X25202Y19219
X25202Y20007
X25202Y20893
X25989Y20893
X25989Y20007
X25989Y19219
X25300Y22271
X25891Y22664
X21560Y21483
X19887Y20597
X19887Y19810
X19099Y19712
X19099Y18924
X19887Y17940
X19887Y17153
X21461Y17349
X21461Y16562
X20576Y14397
X18115Y14200
X16146Y14200
X16146Y14987
X12997Y18727
X10143Y18826
X11717Y14397
X16048Y20499
X18509Y23058
X16737Y23255
X15950Y25223
X16146Y26601
X14080Y27586
X12406Y26798
X11619Y25322
X13883Y25322
X15359Y29653
X16048Y31227
X17721Y32408
X18509Y32408
X18509Y33196
X17721Y33196
X17820Y34672
X18607Y34672
X18607Y35460
X17820Y35460
X19394Y35361
X19394Y36149
X20182Y36149
X20182Y35361
X19591Y33491
X19985Y31424
X18509Y29849
X18509Y29062
X17721Y29062
X17721Y29849
X19493Y28275
X21855Y29062
X22249Y29062
X19296Y25420
X23331Y33590
X25989Y33294
X19690Y45105
X18509Y45893
X17721Y45893
X16934Y45893
X15950Y46385
X14572Y46779
X14572Y48058
X15753Y48058
X17721Y47960
X21068Y47960
X22150Y47960
X23135Y47960
X24217Y47960
X25005Y48156
X25005Y46582
X26580Y46582
X26580Y48156
X21757Y46582
X13095Y47960
X12111Y47960
X11127Y47960
X10143Y47960
X9257Y48156
X9257Y46582
X7682Y46582
X7682Y48156
X10831Y46877
X10635Y44810
X8863Y43137
X8469Y43137
X8076Y43137
X9454Y41267
X10044Y41267
X10635Y41070
X10635Y42251
X8174Y32999
X8568Y29849
X7780Y29160
X8666Y25519
X7977Y24928
X26087Y16168
X26186Y12625
X35635Y12133
X35635Y13845
X38489Y11149
X39375Y9869
X43706Y13314
X45674Y13314
X48036Y12428
X48036Y11149
X48135Y9869
X53745Y12389
T03
X21855Y12723
X21855Y10361
X12406Y10361
X12406Y12723
T04
X8469Y10361
X25792Y10361
X36028Y10361
X53351Y10361
X53351Y47369
X36028Y47369
X25792Y47369
X8469Y47369
M30
