G75*
G70*
%OFA0B0*%
%FSLAX24Y24*%
%IPPOS*%
%LPD*%
%AMOC8*
5,1,8,0,0,1.08239X$1,22.5*
%
%ADD10C,0.0710*%
%ADD11R,0.1753X0.0671*%
%ADD12R,0.0474X0.0474*%
%ADD13R,0.0356X0.0178*%
%ADD14R,0.0178X0.0356*%
%ADD15C,0.0130*%
%ADD16R,0.0671X0.0513*%
%ADD17R,0.0434X0.0395*%
%ADD18R,0.0474X0.0730*%
%ADD19R,0.0730X0.0474*%
%ADD20C,0.1240*%
%ADD21C,0.0500*%
%ADD22C,0.0397*%
D10*
X007790Y002502D03*
X007790Y004864D03*
X017239Y004864D03*
X017239Y002502D03*
D11*
X021373Y035950D03*
X021373Y037950D03*
D12*
X028656Y037639D03*
X029050Y037049D03*
X029444Y037639D03*
X029837Y037049D03*
X029542Y036261D03*
X030330Y036261D03*
X030822Y036261D03*
X031609Y036261D03*
X032101Y036261D03*
X032889Y036261D03*
X033381Y036557D03*
X034168Y036557D03*
X034660Y036557D03*
X034857Y037147D03*
X034070Y037147D03*
X034070Y037935D03*
X034857Y037935D03*
X034660Y038722D03*
X035251Y038919D03*
X034660Y039509D03*
X035251Y039706D03*
X035152Y040297D03*
X034660Y040297D03*
X033873Y040297D03*
X033873Y039509D03*
X033873Y038722D03*
X035940Y040297D03*
X035448Y036557D03*
X034168Y035769D03*
X033381Y035769D03*
X029444Y038427D03*
X029444Y039214D03*
X029444Y040002D03*
X030034Y040198D03*
X030822Y040198D03*
X028656Y040002D03*
X028656Y039214D03*
X028656Y038427D03*
D13*
X030861Y038525D03*
X030861Y038328D03*
X030861Y038131D03*
X030861Y038722D03*
X030861Y038919D03*
X030861Y039116D03*
X030861Y039313D03*
X030861Y039509D03*
X032849Y039509D03*
X032849Y039313D03*
X032849Y039116D03*
X032849Y038919D03*
X032849Y038722D03*
X032849Y038525D03*
X032849Y038328D03*
X032849Y038131D03*
D14*
X032593Y037777D03*
X032396Y037777D03*
X032200Y037777D03*
X032003Y037777D03*
X031806Y037777D03*
X031609Y037777D03*
X031412Y037777D03*
X031215Y037777D03*
X031215Y039864D03*
X031412Y039864D03*
X031609Y039864D03*
X031806Y039864D03*
X032003Y039864D03*
X032200Y039864D03*
X032396Y039864D03*
X032593Y039864D03*
D15*
X032489Y039405D02*
X031319Y039405D01*
X032489Y039405D02*
X032489Y038235D01*
X031319Y038235D01*
X031319Y039405D01*
X031319Y038364D02*
X032489Y038364D01*
X032489Y038493D02*
X031319Y038493D01*
X031319Y038622D02*
X032489Y038622D01*
X032489Y038751D02*
X031319Y038751D01*
X031319Y038880D02*
X032489Y038880D01*
X032489Y039009D02*
X031319Y039009D01*
X031319Y039138D02*
X032489Y039138D01*
X032489Y039267D02*
X031319Y039267D01*
X031319Y039396D02*
X032489Y039396D01*
D16*
X026688Y037147D03*
X026688Y036557D03*
X025507Y036557D03*
X025507Y037147D03*
X041648Y037147D03*
X041648Y036557D03*
X042830Y036557D03*
X042830Y037147D03*
X042830Y005454D03*
X042830Y004864D03*
X041648Y004864D03*
X041648Y005454D03*
X026688Y005454D03*
X026688Y004864D03*
X025507Y004864D03*
X025507Y005454D03*
D17*
X031274Y004569D03*
X032101Y004943D03*
X032101Y004194D03*
X032101Y003663D03*
X032101Y002915D03*
X032101Y002383D03*
X032101Y001635D03*
X031274Y002009D03*
X031274Y003289D03*
X036038Y003407D03*
X036038Y002876D03*
X036038Y002128D03*
X036865Y002502D03*
X036865Y003781D03*
X036038Y004155D03*
X036038Y004687D03*
X036038Y005435D03*
X036865Y005061D03*
D18*
X036924Y038181D03*
X037711Y038181D03*
X038499Y038181D03*
X039286Y038181D03*
X040074Y038181D03*
X040074Y040051D03*
X039286Y040051D03*
X038499Y040051D03*
X037711Y040051D03*
X036924Y040051D03*
D19*
X035005Y005651D03*
X035005Y004864D03*
X035005Y004076D03*
X035005Y003289D03*
X035005Y002502D03*
X033135Y002502D03*
X033135Y003289D03*
X033135Y004076D03*
X033135Y004864D03*
X033135Y005651D03*
D20*
X025507Y002502D03*
X021176Y002502D03*
X003853Y002502D03*
X003853Y039509D03*
X021176Y039509D03*
X025507Y039509D03*
X042830Y039509D03*
X042830Y002502D03*
D21*
X003023Y002502D02*
X003025Y002559D01*
X003031Y002616D01*
X003041Y002673D01*
X003054Y002728D01*
X003072Y002783D01*
X003093Y002836D01*
X003118Y002888D01*
X003146Y002938D01*
X003178Y002985D01*
X003213Y003031D01*
X003251Y003074D01*
X003292Y003114D01*
X003336Y003151D01*
X003382Y003185D01*
X003430Y003216D01*
X003480Y003243D01*
X003532Y003267D01*
X003586Y003288D01*
X003640Y003304D01*
X003696Y003317D01*
X003753Y003326D01*
X003810Y003331D01*
X003867Y003332D01*
X003925Y003329D01*
X003981Y003322D01*
X004038Y003311D01*
X004093Y003297D01*
X004147Y003278D01*
X004200Y003256D01*
X004251Y003230D01*
X004301Y003201D01*
X004348Y003168D01*
X004393Y003133D01*
X004435Y003094D01*
X004474Y003052D01*
X004511Y003008D01*
X004544Y002962D01*
X004574Y002913D01*
X004601Y002862D01*
X004624Y002810D01*
X004643Y002756D01*
X004659Y002701D01*
X004671Y002645D01*
X004679Y002588D01*
X004683Y002531D01*
X004683Y002473D01*
X004679Y002416D01*
X004671Y002359D01*
X004659Y002303D01*
X004643Y002248D01*
X004624Y002194D01*
X004601Y002142D01*
X004574Y002091D01*
X004544Y002042D01*
X004511Y001996D01*
X004474Y001952D01*
X004435Y001910D01*
X004393Y001871D01*
X004348Y001836D01*
X004301Y001803D01*
X004251Y001774D01*
X004200Y001748D01*
X004147Y001726D01*
X004093Y001707D01*
X004038Y001693D01*
X003981Y001682D01*
X003925Y001675D01*
X003867Y001672D01*
X003810Y001673D01*
X003753Y001678D01*
X003696Y001687D01*
X003640Y001700D01*
X003586Y001716D01*
X003532Y001737D01*
X003480Y001761D01*
X003430Y001788D01*
X003382Y001819D01*
X003336Y001853D01*
X003292Y001890D01*
X003251Y001930D01*
X003213Y001973D01*
X003178Y002019D01*
X003146Y002066D01*
X003118Y002116D01*
X003093Y002168D01*
X003072Y002221D01*
X003054Y002276D01*
X003041Y002331D01*
X003031Y002388D01*
X003025Y002445D01*
X003023Y002502D01*
X020346Y002502D02*
X020348Y002559D01*
X020354Y002616D01*
X020364Y002673D01*
X020377Y002728D01*
X020395Y002783D01*
X020416Y002836D01*
X020441Y002888D01*
X020469Y002938D01*
X020501Y002985D01*
X020536Y003031D01*
X020574Y003074D01*
X020615Y003114D01*
X020659Y003151D01*
X020705Y003185D01*
X020753Y003216D01*
X020803Y003243D01*
X020855Y003267D01*
X020909Y003288D01*
X020963Y003304D01*
X021019Y003317D01*
X021076Y003326D01*
X021133Y003331D01*
X021190Y003332D01*
X021248Y003329D01*
X021304Y003322D01*
X021361Y003311D01*
X021416Y003297D01*
X021470Y003278D01*
X021523Y003256D01*
X021574Y003230D01*
X021624Y003201D01*
X021671Y003168D01*
X021716Y003133D01*
X021758Y003094D01*
X021797Y003052D01*
X021834Y003008D01*
X021867Y002962D01*
X021897Y002913D01*
X021924Y002862D01*
X021947Y002810D01*
X021966Y002756D01*
X021982Y002701D01*
X021994Y002645D01*
X022002Y002588D01*
X022006Y002531D01*
X022006Y002473D01*
X022002Y002416D01*
X021994Y002359D01*
X021982Y002303D01*
X021966Y002248D01*
X021947Y002194D01*
X021924Y002142D01*
X021897Y002091D01*
X021867Y002042D01*
X021834Y001996D01*
X021797Y001952D01*
X021758Y001910D01*
X021716Y001871D01*
X021671Y001836D01*
X021624Y001803D01*
X021574Y001774D01*
X021523Y001748D01*
X021470Y001726D01*
X021416Y001707D01*
X021361Y001693D01*
X021304Y001682D01*
X021248Y001675D01*
X021190Y001672D01*
X021133Y001673D01*
X021076Y001678D01*
X021019Y001687D01*
X020963Y001700D01*
X020909Y001716D01*
X020855Y001737D01*
X020803Y001761D01*
X020753Y001788D01*
X020705Y001819D01*
X020659Y001853D01*
X020615Y001890D01*
X020574Y001930D01*
X020536Y001973D01*
X020501Y002019D01*
X020469Y002066D01*
X020441Y002116D01*
X020416Y002168D01*
X020395Y002221D01*
X020377Y002276D01*
X020364Y002331D01*
X020354Y002388D01*
X020348Y002445D01*
X020346Y002502D01*
X024677Y002502D02*
X024679Y002559D01*
X024685Y002616D01*
X024695Y002673D01*
X024708Y002728D01*
X024726Y002783D01*
X024747Y002836D01*
X024772Y002888D01*
X024800Y002938D01*
X024832Y002985D01*
X024867Y003031D01*
X024905Y003074D01*
X024946Y003114D01*
X024990Y003151D01*
X025036Y003185D01*
X025084Y003216D01*
X025134Y003243D01*
X025186Y003267D01*
X025240Y003288D01*
X025294Y003304D01*
X025350Y003317D01*
X025407Y003326D01*
X025464Y003331D01*
X025521Y003332D01*
X025579Y003329D01*
X025635Y003322D01*
X025692Y003311D01*
X025747Y003297D01*
X025801Y003278D01*
X025854Y003256D01*
X025905Y003230D01*
X025955Y003201D01*
X026002Y003168D01*
X026047Y003133D01*
X026089Y003094D01*
X026128Y003052D01*
X026165Y003008D01*
X026198Y002962D01*
X026228Y002913D01*
X026255Y002862D01*
X026278Y002810D01*
X026297Y002756D01*
X026313Y002701D01*
X026325Y002645D01*
X026333Y002588D01*
X026337Y002531D01*
X026337Y002473D01*
X026333Y002416D01*
X026325Y002359D01*
X026313Y002303D01*
X026297Y002248D01*
X026278Y002194D01*
X026255Y002142D01*
X026228Y002091D01*
X026198Y002042D01*
X026165Y001996D01*
X026128Y001952D01*
X026089Y001910D01*
X026047Y001871D01*
X026002Y001836D01*
X025955Y001803D01*
X025905Y001774D01*
X025854Y001748D01*
X025801Y001726D01*
X025747Y001707D01*
X025692Y001693D01*
X025635Y001682D01*
X025579Y001675D01*
X025521Y001672D01*
X025464Y001673D01*
X025407Y001678D01*
X025350Y001687D01*
X025294Y001700D01*
X025240Y001716D01*
X025186Y001737D01*
X025134Y001761D01*
X025084Y001788D01*
X025036Y001819D01*
X024990Y001853D01*
X024946Y001890D01*
X024905Y001930D01*
X024867Y001973D01*
X024832Y002019D01*
X024800Y002066D01*
X024772Y002116D01*
X024747Y002168D01*
X024726Y002221D01*
X024708Y002276D01*
X024695Y002331D01*
X024685Y002388D01*
X024679Y002445D01*
X024677Y002502D01*
X042000Y002502D02*
X042002Y002559D01*
X042008Y002616D01*
X042018Y002673D01*
X042031Y002728D01*
X042049Y002783D01*
X042070Y002836D01*
X042095Y002888D01*
X042123Y002938D01*
X042155Y002985D01*
X042190Y003031D01*
X042228Y003074D01*
X042269Y003114D01*
X042313Y003151D01*
X042359Y003185D01*
X042407Y003216D01*
X042457Y003243D01*
X042509Y003267D01*
X042563Y003288D01*
X042617Y003304D01*
X042673Y003317D01*
X042730Y003326D01*
X042787Y003331D01*
X042844Y003332D01*
X042902Y003329D01*
X042958Y003322D01*
X043015Y003311D01*
X043070Y003297D01*
X043124Y003278D01*
X043177Y003256D01*
X043228Y003230D01*
X043278Y003201D01*
X043325Y003168D01*
X043370Y003133D01*
X043412Y003094D01*
X043451Y003052D01*
X043488Y003008D01*
X043521Y002962D01*
X043551Y002913D01*
X043578Y002862D01*
X043601Y002810D01*
X043620Y002756D01*
X043636Y002701D01*
X043648Y002645D01*
X043656Y002588D01*
X043660Y002531D01*
X043660Y002473D01*
X043656Y002416D01*
X043648Y002359D01*
X043636Y002303D01*
X043620Y002248D01*
X043601Y002194D01*
X043578Y002142D01*
X043551Y002091D01*
X043521Y002042D01*
X043488Y001996D01*
X043451Y001952D01*
X043412Y001910D01*
X043370Y001871D01*
X043325Y001836D01*
X043278Y001803D01*
X043228Y001774D01*
X043177Y001748D01*
X043124Y001726D01*
X043070Y001707D01*
X043015Y001693D01*
X042958Y001682D01*
X042902Y001675D01*
X042844Y001672D01*
X042787Y001673D01*
X042730Y001678D01*
X042673Y001687D01*
X042617Y001700D01*
X042563Y001716D01*
X042509Y001737D01*
X042457Y001761D01*
X042407Y001788D01*
X042359Y001819D01*
X042313Y001853D01*
X042269Y001890D01*
X042228Y001930D01*
X042190Y001973D01*
X042155Y002019D01*
X042123Y002066D01*
X042095Y002116D01*
X042070Y002168D01*
X042049Y002221D01*
X042031Y002276D01*
X042018Y002331D01*
X042008Y002388D01*
X042002Y002445D01*
X042000Y002502D01*
X042000Y039509D02*
X042002Y039566D01*
X042008Y039623D01*
X042018Y039680D01*
X042031Y039735D01*
X042049Y039790D01*
X042070Y039843D01*
X042095Y039895D01*
X042123Y039945D01*
X042155Y039992D01*
X042190Y040038D01*
X042228Y040081D01*
X042269Y040121D01*
X042313Y040158D01*
X042359Y040192D01*
X042407Y040223D01*
X042457Y040250D01*
X042509Y040274D01*
X042563Y040295D01*
X042617Y040311D01*
X042673Y040324D01*
X042730Y040333D01*
X042787Y040338D01*
X042844Y040339D01*
X042902Y040336D01*
X042958Y040329D01*
X043015Y040318D01*
X043070Y040304D01*
X043124Y040285D01*
X043177Y040263D01*
X043228Y040237D01*
X043278Y040208D01*
X043325Y040175D01*
X043370Y040140D01*
X043412Y040101D01*
X043451Y040059D01*
X043488Y040015D01*
X043521Y039969D01*
X043551Y039920D01*
X043578Y039869D01*
X043601Y039817D01*
X043620Y039763D01*
X043636Y039708D01*
X043648Y039652D01*
X043656Y039595D01*
X043660Y039538D01*
X043660Y039480D01*
X043656Y039423D01*
X043648Y039366D01*
X043636Y039310D01*
X043620Y039255D01*
X043601Y039201D01*
X043578Y039149D01*
X043551Y039098D01*
X043521Y039049D01*
X043488Y039003D01*
X043451Y038959D01*
X043412Y038917D01*
X043370Y038878D01*
X043325Y038843D01*
X043278Y038810D01*
X043228Y038781D01*
X043177Y038755D01*
X043124Y038733D01*
X043070Y038714D01*
X043015Y038700D01*
X042958Y038689D01*
X042902Y038682D01*
X042844Y038679D01*
X042787Y038680D01*
X042730Y038685D01*
X042673Y038694D01*
X042617Y038707D01*
X042563Y038723D01*
X042509Y038744D01*
X042457Y038768D01*
X042407Y038795D01*
X042359Y038826D01*
X042313Y038860D01*
X042269Y038897D01*
X042228Y038937D01*
X042190Y038980D01*
X042155Y039026D01*
X042123Y039073D01*
X042095Y039123D01*
X042070Y039175D01*
X042049Y039228D01*
X042031Y039283D01*
X042018Y039338D01*
X042008Y039395D01*
X042002Y039452D01*
X042000Y039509D01*
X024677Y039509D02*
X024679Y039566D01*
X024685Y039623D01*
X024695Y039680D01*
X024708Y039735D01*
X024726Y039790D01*
X024747Y039843D01*
X024772Y039895D01*
X024800Y039945D01*
X024832Y039992D01*
X024867Y040038D01*
X024905Y040081D01*
X024946Y040121D01*
X024990Y040158D01*
X025036Y040192D01*
X025084Y040223D01*
X025134Y040250D01*
X025186Y040274D01*
X025240Y040295D01*
X025294Y040311D01*
X025350Y040324D01*
X025407Y040333D01*
X025464Y040338D01*
X025521Y040339D01*
X025579Y040336D01*
X025635Y040329D01*
X025692Y040318D01*
X025747Y040304D01*
X025801Y040285D01*
X025854Y040263D01*
X025905Y040237D01*
X025955Y040208D01*
X026002Y040175D01*
X026047Y040140D01*
X026089Y040101D01*
X026128Y040059D01*
X026165Y040015D01*
X026198Y039969D01*
X026228Y039920D01*
X026255Y039869D01*
X026278Y039817D01*
X026297Y039763D01*
X026313Y039708D01*
X026325Y039652D01*
X026333Y039595D01*
X026337Y039538D01*
X026337Y039480D01*
X026333Y039423D01*
X026325Y039366D01*
X026313Y039310D01*
X026297Y039255D01*
X026278Y039201D01*
X026255Y039149D01*
X026228Y039098D01*
X026198Y039049D01*
X026165Y039003D01*
X026128Y038959D01*
X026089Y038917D01*
X026047Y038878D01*
X026002Y038843D01*
X025955Y038810D01*
X025905Y038781D01*
X025854Y038755D01*
X025801Y038733D01*
X025747Y038714D01*
X025692Y038700D01*
X025635Y038689D01*
X025579Y038682D01*
X025521Y038679D01*
X025464Y038680D01*
X025407Y038685D01*
X025350Y038694D01*
X025294Y038707D01*
X025240Y038723D01*
X025186Y038744D01*
X025134Y038768D01*
X025084Y038795D01*
X025036Y038826D01*
X024990Y038860D01*
X024946Y038897D01*
X024905Y038937D01*
X024867Y038980D01*
X024832Y039026D01*
X024800Y039073D01*
X024772Y039123D01*
X024747Y039175D01*
X024726Y039228D01*
X024708Y039283D01*
X024695Y039338D01*
X024685Y039395D01*
X024679Y039452D01*
X024677Y039509D01*
X020346Y039509D02*
X020348Y039566D01*
X020354Y039623D01*
X020364Y039680D01*
X020377Y039735D01*
X020395Y039790D01*
X020416Y039843D01*
X020441Y039895D01*
X020469Y039945D01*
X020501Y039992D01*
X020536Y040038D01*
X020574Y040081D01*
X020615Y040121D01*
X020659Y040158D01*
X020705Y040192D01*
X020753Y040223D01*
X020803Y040250D01*
X020855Y040274D01*
X020909Y040295D01*
X020963Y040311D01*
X021019Y040324D01*
X021076Y040333D01*
X021133Y040338D01*
X021190Y040339D01*
X021248Y040336D01*
X021304Y040329D01*
X021361Y040318D01*
X021416Y040304D01*
X021470Y040285D01*
X021523Y040263D01*
X021574Y040237D01*
X021624Y040208D01*
X021671Y040175D01*
X021716Y040140D01*
X021758Y040101D01*
X021797Y040059D01*
X021834Y040015D01*
X021867Y039969D01*
X021897Y039920D01*
X021924Y039869D01*
X021947Y039817D01*
X021966Y039763D01*
X021982Y039708D01*
X021994Y039652D01*
X022002Y039595D01*
X022006Y039538D01*
X022006Y039480D01*
X022002Y039423D01*
X021994Y039366D01*
X021982Y039310D01*
X021966Y039255D01*
X021947Y039201D01*
X021924Y039149D01*
X021897Y039098D01*
X021867Y039049D01*
X021834Y039003D01*
X021797Y038959D01*
X021758Y038917D01*
X021716Y038878D01*
X021671Y038843D01*
X021624Y038810D01*
X021574Y038781D01*
X021523Y038755D01*
X021470Y038733D01*
X021416Y038714D01*
X021361Y038700D01*
X021304Y038689D01*
X021248Y038682D01*
X021190Y038679D01*
X021133Y038680D01*
X021076Y038685D01*
X021019Y038694D01*
X020963Y038707D01*
X020909Y038723D01*
X020855Y038744D01*
X020803Y038768D01*
X020753Y038795D01*
X020705Y038826D01*
X020659Y038860D01*
X020615Y038897D01*
X020574Y038937D01*
X020536Y038980D01*
X020501Y039026D01*
X020469Y039073D01*
X020441Y039123D01*
X020416Y039175D01*
X020395Y039228D01*
X020377Y039283D01*
X020364Y039338D01*
X020354Y039395D01*
X020348Y039452D01*
X020346Y039509D01*
X003023Y039509D02*
X003025Y039566D01*
X003031Y039623D01*
X003041Y039680D01*
X003054Y039735D01*
X003072Y039790D01*
X003093Y039843D01*
X003118Y039895D01*
X003146Y039945D01*
X003178Y039992D01*
X003213Y040038D01*
X003251Y040081D01*
X003292Y040121D01*
X003336Y040158D01*
X003382Y040192D01*
X003430Y040223D01*
X003480Y040250D01*
X003532Y040274D01*
X003586Y040295D01*
X003640Y040311D01*
X003696Y040324D01*
X003753Y040333D01*
X003810Y040338D01*
X003867Y040339D01*
X003925Y040336D01*
X003981Y040329D01*
X004038Y040318D01*
X004093Y040304D01*
X004147Y040285D01*
X004200Y040263D01*
X004251Y040237D01*
X004301Y040208D01*
X004348Y040175D01*
X004393Y040140D01*
X004435Y040101D01*
X004474Y040059D01*
X004511Y040015D01*
X004544Y039969D01*
X004574Y039920D01*
X004601Y039869D01*
X004624Y039817D01*
X004643Y039763D01*
X004659Y039708D01*
X004671Y039652D01*
X004679Y039595D01*
X004683Y039538D01*
X004683Y039480D01*
X004679Y039423D01*
X004671Y039366D01*
X004659Y039310D01*
X004643Y039255D01*
X004624Y039201D01*
X004601Y039149D01*
X004574Y039098D01*
X004544Y039049D01*
X004511Y039003D01*
X004474Y038959D01*
X004435Y038917D01*
X004393Y038878D01*
X004348Y038843D01*
X004301Y038810D01*
X004251Y038781D01*
X004200Y038755D01*
X004147Y038733D01*
X004093Y038714D01*
X004038Y038700D01*
X003981Y038689D01*
X003925Y038682D01*
X003867Y038679D01*
X003810Y038680D01*
X003753Y038685D01*
X003696Y038694D01*
X003640Y038707D01*
X003586Y038723D01*
X003532Y038744D01*
X003480Y038768D01*
X003430Y038795D01*
X003382Y038826D01*
X003336Y038860D01*
X003292Y038897D01*
X003251Y038937D01*
X003213Y038980D01*
X003178Y039026D01*
X003146Y039073D01*
X003118Y039123D01*
X003093Y039175D01*
X003072Y039228D01*
X003054Y039283D01*
X003041Y039338D01*
X003031Y039395D01*
X003025Y039452D01*
X003023Y039509D01*
D22*
X003558Y036950D03*
X003459Y036163D03*
X003066Y036163D03*
X003853Y036163D03*
X004936Y035966D03*
X005428Y035277D03*
X006019Y035277D03*
X005625Y034391D03*
X005330Y033801D03*
X004837Y034391D03*
X005330Y033013D03*
X004542Y032423D03*
X004247Y032226D03*
X004542Y032029D03*
X003952Y032029D03*
X003952Y032423D03*
X003263Y031832D03*
X005920Y029273D03*
X005920Y028880D03*
X005526Y028880D03*
X005526Y028092D03*
X005920Y028092D03*
X005920Y027698D03*
X006707Y027698D03*
X006707Y028092D03*
X007298Y028289D03*
X006707Y028880D03*
X006314Y028880D03*
X006707Y029273D03*
X007357Y029372D03*
X007751Y029372D03*
X007751Y028978D03*
X007357Y028978D03*
X008085Y028289D03*
X008479Y026911D03*
X009267Y026911D03*
X009267Y026124D03*
X008479Y026124D03*
X008184Y025139D03*
X007790Y023663D03*
X007790Y022876D03*
X008774Y022383D03*
X008578Y021498D03*
X008578Y020710D03*
X009562Y021006D03*
X010349Y021006D03*
X010349Y021793D03*
X010448Y023072D03*
X011137Y023171D03*
X010448Y023860D03*
X009562Y023958D03*
X009463Y023171D03*
X012515Y022679D03*
X013302Y022679D03*
X013499Y021301D03*
X012711Y021301D03*
X012908Y020513D03*
X013696Y020513D03*
X014483Y020415D03*
X014188Y019824D03*
X014188Y019037D03*
X014975Y019037D03*
X014975Y019824D03*
X015763Y019824D03*
X015467Y019037D03*
X016255Y019037D03*
X016747Y019824D03*
X016944Y019332D03*
X018026Y019234D03*
X018223Y018840D03*
X019011Y019234D03*
X019798Y019234D03*
X020389Y019726D03*
X020684Y019234D03*
X021373Y019234D03*
X021373Y018446D03*
X020684Y018446D03*
X020684Y017856D03*
X020093Y018446D03*
X019700Y017856D03*
X019306Y018446D03*
X019011Y017659D03*
X019700Y017069D03*
X020192Y016970D03*
X020684Y017069D03*
X021373Y016773D03*
X020093Y016478D03*
X019207Y016576D03*
X018715Y015887D03*
X017731Y016675D03*
X017436Y016970D03*
X017239Y017364D03*
X016845Y017856D03*
X016255Y018250D03*
X014975Y018250D03*
X015172Y016773D03*
X015664Y016773D03*
X016452Y016773D03*
X014385Y016773D03*
X013893Y016872D03*
X012613Y016675D03*
X012416Y017561D03*
X012613Y018053D03*
X012613Y018643D03*
X012613Y019332D03*
X011629Y019529D03*
X010841Y019037D03*
X010152Y018643D03*
X009562Y019135D03*
X008774Y019529D03*
X008873Y017265D03*
X011333Y016084D03*
X011924Y015887D03*
X010251Y014116D03*
X010152Y013624D03*
X010152Y013230D03*
X010152Y012836D03*
X010251Y012443D03*
X010644Y012344D03*
X011333Y012344D03*
X011629Y012836D03*
X012219Y012738D03*
X012711Y013525D03*
X012711Y013919D03*
X013696Y011360D03*
X013696Y010572D03*
X015172Y010671D03*
X015664Y010080D03*
X015664Y009588D03*
X015664Y008801D03*
X017239Y008604D03*
X017239Y007817D03*
X019404Y008210D03*
X020684Y009096D03*
X020487Y010671D03*
X020487Y011458D03*
X020093Y011950D03*
X019306Y011950D03*
X018519Y012639D03*
X019503Y013230D03*
X020585Y014313D03*
X020979Y014706D03*
X021373Y014706D03*
X021767Y014706D03*
X021767Y014313D03*
X021767Y015100D03*
X021767Y015494D03*
X020782Y013230D03*
X020881Y012738D03*
X020881Y011950D03*
X021274Y011458D03*
X019700Y010671D03*
X018912Y010671D03*
X017239Y010277D03*
X015664Y011261D03*
X015467Y012443D03*
X016353Y013131D03*
X015861Y013525D03*
X016353Y013919D03*
X017141Y013919D03*
X018125Y014116D03*
X022062Y013131D03*
X021767Y007324D03*
X021767Y006537D03*
X019503Y006537D03*
X018125Y002108D03*
X018519Y002009D03*
X014975Y002502D03*
X013400Y002502D03*
X013400Y004076D03*
X013400Y004864D03*
X014778Y005651D03*
X013696Y007029D03*
X013499Y007817D03*
X013007Y007817D03*
X012908Y007029D03*
X012908Y006242D03*
X011924Y007029D03*
X011530Y007817D03*
X011235Y008604D03*
X011333Y010179D03*
X010546Y010179D03*
X010546Y010966D03*
X011333Y010966D03*
X009562Y009883D03*
X008085Y009883D03*
X007396Y010671D03*
X007101Y011065D03*
X007396Y012344D03*
X008282Y013033D03*
X009660Y013919D03*
X006511Y015592D03*
X006215Y015002D03*
X005920Y014214D03*
X005526Y013820D03*
X005822Y013328D03*
X004148Y013230D03*
X004148Y014017D03*
X004148Y014509D03*
X004148Y015297D03*
X004148Y016380D03*
X004148Y017167D03*
X004148Y017659D03*
X004148Y018446D03*
X005625Y017364D03*
X005526Y016576D03*
X004444Y020317D03*
X004247Y021399D03*
X005034Y021399D03*
X005034Y022187D03*
X005526Y022187D03*
X006117Y021301D03*
X006019Y020710D03*
X004247Y022187D03*
X005920Y024254D03*
X004247Y025139D03*
X004837Y025927D03*
X004444Y027206D03*
X008774Y031143D03*
X009956Y031242D03*
X009956Y030750D03*
X009956Y030257D03*
X009956Y029765D03*
X009956Y029273D03*
X013204Y031439D03*
X013991Y031439D03*
X013991Y032226D03*
X013204Y032226D03*
X013676Y030474D03*
X014463Y030454D03*
X014463Y029667D03*
X013676Y029667D03*
X013893Y028092D03*
X013893Y027305D03*
X013991Y026714D03*
X013204Y026714D03*
X014072Y025713D03*
X014778Y025730D03*
X014663Y025122D03*
X015270Y024943D03*
X016058Y024943D03*
X016550Y024844D03*
X015763Y024155D03*
X016255Y023368D03*
X017042Y023368D03*
X018125Y022876D03*
X018420Y022482D03*
X018715Y022777D03*
X018814Y023269D03*
X019207Y022876D03*
X019207Y023663D03*
X019995Y023761D03*
X019995Y024549D03*
X018814Y024844D03*
X018814Y025435D03*
X018814Y026025D03*
X018223Y026025D03*
X018223Y025435D03*
X018223Y024844D03*
X017633Y024844D03*
X017633Y025435D03*
X017633Y026025D03*
X016550Y026517D03*
X015763Y026517D03*
X016550Y027895D03*
X016156Y028486D03*
X015664Y028092D03*
X015369Y029175D03*
X016156Y029273D03*
X016058Y029864D03*
X016845Y029864D03*
X016944Y029273D03*
X016944Y028486D03*
X017337Y027895D03*
X017928Y027994D03*
X017928Y027206D03*
X019011Y027403D03*
X019011Y028191D03*
X019798Y028584D03*
X019601Y029667D03*
X019995Y029765D03*
X020585Y029962D03*
X021373Y029962D03*
X021963Y028486D03*
X021274Y027797D03*
X020881Y026911D03*
X020881Y026124D03*
X020093Y026124D03*
X020093Y026911D03*
X021865Y025828D03*
X021570Y023761D03*
X020389Y022482D03*
X019601Y021596D03*
X019601Y021104D03*
X019207Y020415D03*
X018617Y020317D03*
X018125Y019824D03*
X018026Y021301D03*
X018814Y021596D03*
X017830Y022187D03*
X017436Y022187D03*
X015763Y021793D03*
X015763Y021301D03*
X015861Y020809D03*
X014483Y021202D03*
X014106Y024566D03*
X013516Y025156D03*
X018125Y029864D03*
X018125Y030257D03*
X018519Y030257D03*
X018519Y029864D03*
X019011Y030848D03*
X019700Y031242D03*
X019306Y032128D03*
X019306Y032915D03*
X018519Y032915D03*
X018420Y033407D03*
X018420Y033801D03*
X018420Y034293D03*
X019011Y034785D03*
X018420Y035474D03*
X018519Y035966D03*
X018912Y036261D03*
X019404Y036360D03*
X019896Y036360D03*
X020389Y036360D03*
X020979Y035966D03*
X021471Y035966D03*
X021963Y035966D03*
X020389Y037541D03*
X019896Y037541D03*
X019404Y037541D03*
X018912Y037541D03*
X018420Y038033D03*
X017633Y038033D03*
X016845Y038033D03*
X016058Y038033D03*
X015270Y038033D03*
X014483Y039411D03*
X013696Y039411D03*
X012416Y040198D03*
X009759Y040198D03*
X008873Y040002D03*
X008479Y040297D03*
X007692Y040100D03*
X006707Y040100D03*
X005920Y040002D03*
X005526Y040297D03*
X006314Y039214D03*
X006314Y038820D03*
X006314Y038427D03*
X006019Y037836D03*
X005428Y037836D03*
X006314Y036950D03*
X008085Y036950D03*
X007987Y035966D03*
X016648Y034785D03*
X017239Y034293D03*
X017239Y033801D03*
X017239Y033309D03*
X017239Y032915D03*
X016648Y032423D03*
X017239Y031832D03*
X017239Y031340D03*
X017239Y030848D03*
X018519Y032147D03*
X017239Y035572D03*
X017239Y036065D03*
X017337Y036557D03*
X017633Y036950D03*
X018026Y037246D03*
X017633Y040198D03*
X016845Y040198D03*
X018420Y040198D03*
X020979Y037935D03*
X021471Y037935D03*
X021963Y037935D03*
X028164Y038722D03*
X028656Y038427D03*
X029837Y037049D03*
X030428Y037344D03*
X030723Y037049D03*
X030822Y037639D03*
X030428Y037836D03*
X029542Y036261D03*
X030034Y040198D03*
X031707Y040238D03*
X033873Y038722D03*
X034857Y037147D03*
X035448Y036557D03*
X035841Y036065D03*
X036333Y037147D03*
X036924Y038230D03*
X037711Y038131D03*
X038499Y038131D03*
X039286Y038131D03*
X040074Y038230D03*
X036924Y040100D03*
X034168Y035769D03*
X043322Y037541D03*
X043617Y034588D03*
X020684Y020415D03*
X026097Y007423D03*
X026097Y005257D03*
X028164Y003486D03*
X029148Y003781D03*
X029837Y002502D03*
X028755Y005946D03*
X028952Y006340D03*
X031117Y006340D03*
X031274Y005907D03*
X034070Y002994D03*
X037318Y002502D03*
X037318Y003781D03*
X039483Y005061D03*
X043223Y004372D03*
X043322Y005848D03*
X042830Y007817D03*
X011432Y005651D03*
X009267Y006537D03*
X011432Y002502D03*
X005428Y002403D03*
X003952Y005848D03*
X004050Y006931D03*
X004050Y007915D03*
X003755Y009883D03*
X005330Y010966D03*
X004345Y011655D03*
X004148Y012639D03*
M02*
