G75*
G70*
%OFA0B0*%
%FSLAX24Y24*%
%IPPOS*%
%LPD*%
%AMOC8*
5,1,8,0,0,1.08239X$1,22.5*
%
%ADD10R,0.0709X0.0748*%
%ADD11R,0.0906X0.0748*%
%ADD12R,0.0157X0.0551*%
%ADD13R,0.2638X0.0748*%
%ADD14R,0.0433X0.0748*%
%ADD15R,0.0748X0.0748*%
%ADD16R,0.0394X0.0472*%
%ADD17R,0.0276X0.0472*%
%ADD18R,0.3425X0.0630*%
%ADD19R,0.0276X0.2992*%
%ADD20R,0.1024X0.0551*%
%ADD21R,0.0276X0.3150*%
%ADD22R,0.0394X0.0433*%
%ADD23R,0.0433X0.0394*%
%ADD24R,0.0394X0.0138*%
%ADD25R,0.0138X0.0394*%
%ADD26R,0.0850X0.0850*%
%ADD27R,0.0630X0.0512*%
%ADD28R,0.1000X0.0300*%
%ADD29R,0.0600X0.1600*%
%ADD30R,0.0315X0.0315*%
%ADD31R,0.0827X0.0551*%
%ADD32R,0.0110X0.0335*%
%ADD33R,0.1358X0.1358*%
%ADD34R,0.0335X0.0110*%
%ADD35C,0.1004*%
%ADD36OC8,0.0740*%
%ADD37R,0.0591X0.0197*%
%ADD38R,0.0551X0.0827*%
%ADD39R,0.1772X0.1772*%
%ADD40R,0.0551X0.0866*%
%ADD41R,0.0551X0.0945*%
%ADD42C,0.0079*%
%ADD43C,0.0100*%
%ADD44C,0.0317*%
%ADD45C,0.0118*%
%ADD46C,0.0197*%
%ADD47C,0.0181*%
D10*
X009260Y036430D03*
X010166Y036430D03*
D11*
X011189Y036430D03*
X008237Y036430D03*
D12*
X009201Y035307D03*
X009457Y035307D03*
X009713Y035307D03*
X009969Y035307D03*
X010225Y035307D03*
D13*
X009382Y031430D03*
D14*
X009422Y028989D03*
D15*
X010445Y028989D03*
X008319Y028989D03*
D16*
X013918Y031107D03*
D17*
X014528Y031107D03*
X014961Y031107D03*
X015394Y031107D03*
X015827Y031107D03*
X016260Y031107D03*
X016693Y031107D03*
X017126Y031107D03*
X017559Y031107D03*
X017993Y031107D03*
D18*
X016044Y033390D03*
D19*
X017894Y035083D03*
D20*
X013937Y037170D03*
D21*
X018367Y032878D03*
D22*
X011406Y029520D03*
X011406Y028851D03*
X007784Y032174D03*
X007784Y032843D03*
X008807Y021347D03*
X008807Y020678D03*
X008059Y021012D03*
X007390Y021012D03*
X007252Y019477D03*
X007252Y018807D03*
X009674Y016741D03*
X010343Y016741D03*
X010618Y017961D03*
X009949Y017961D03*
X010284Y018985D03*
X010284Y019654D03*
X010973Y019674D03*
X010973Y019004D03*
X013158Y019201D03*
X013158Y019870D03*
X013178Y018689D03*
X013178Y018020D03*
X013654Y017244D03*
X013827Y018020D03*
X013827Y018689D03*
X014323Y017244D03*
X015205Y017272D03*
X015205Y017941D03*
X016071Y017981D03*
X016071Y017311D03*
X015678Y016800D03*
X015678Y016130D03*
X016465Y016130D03*
X016465Y016800D03*
X012272Y015579D03*
X012272Y014910D03*
X012292Y013571D03*
X012292Y012902D03*
X012292Y012390D03*
X012292Y011721D03*
X012252Y009634D03*
X012252Y008965D03*
D23*
X012311Y010284D03*
X012311Y011071D03*
X012981Y011071D03*
X012981Y010284D03*
X011603Y013433D03*
X011583Y014339D03*
X010914Y014339D03*
X010933Y015087D03*
X011603Y015087D03*
X012272Y014221D03*
X012941Y014221D03*
X010933Y013433D03*
X014674Y018571D03*
X015343Y018571D03*
X013926Y019201D03*
X013926Y019870D03*
X014280Y020520D03*
X014949Y020520D03*
X014937Y021331D03*
X014516Y021957D03*
X013847Y021957D03*
X014268Y021331D03*
X014063Y023670D03*
X013394Y023670D03*
X011170Y024811D03*
X011170Y025481D03*
X010520Y024556D03*
X010134Y023752D03*
X009465Y023752D03*
X009457Y022981D03*
X010126Y022981D03*
X009851Y024556D03*
X008059Y024949D03*
X007390Y024949D03*
X007390Y024162D03*
X008059Y024162D03*
X008059Y023374D03*
X007390Y023374D03*
X007390Y022587D03*
X008059Y022587D03*
X008059Y021800D03*
X007390Y021800D03*
X009378Y020638D03*
X010048Y020638D03*
X018453Y016721D03*
X018453Y016052D03*
X021012Y018237D03*
X021681Y018237D03*
X022646Y014418D03*
X023315Y014418D03*
X023611Y023965D03*
X022941Y023965D03*
X022941Y024752D03*
X022981Y025304D03*
X022981Y025973D03*
X023611Y024752D03*
X023642Y027359D03*
X023642Y028146D03*
X024311Y028146D03*
X024311Y027359D03*
X009292Y032945D03*
X009292Y033615D03*
D24*
X011056Y017569D03*
X011056Y017313D03*
X011056Y017057D03*
X011056Y016802D03*
X012552Y016802D03*
X012552Y017057D03*
X012552Y017313D03*
X012552Y017569D03*
D25*
X012187Y017933D03*
X011931Y017933D03*
X011676Y017933D03*
X011420Y017933D03*
X011420Y016437D03*
X011676Y016437D03*
X011931Y016437D03*
X012187Y016437D03*
D26*
X011804Y017185D03*
D27*
X009552Y018815D03*
X009552Y019721D03*
X008056Y019721D03*
X008056Y018815D03*
D28*
X016370Y023028D03*
X016370Y023528D03*
X016370Y024028D03*
X016370Y024528D03*
X016370Y025028D03*
X018520Y025028D03*
X018520Y024528D03*
X018520Y024028D03*
X018520Y023528D03*
X018528Y023028D03*
D29*
X013209Y007713D03*
X012209Y007713D03*
X011209Y007713D03*
D30*
X018453Y014811D03*
X018453Y015402D03*
X010579Y025441D03*
X009989Y025441D03*
X009241Y034142D03*
X009241Y034733D03*
D31*
X012331Y027902D03*
X012331Y026130D03*
X015914Y026130D03*
X015914Y027902D03*
D32*
X012744Y022882D03*
X012548Y022882D03*
X012351Y022882D03*
X012154Y022882D03*
X011957Y022882D03*
X011760Y022882D03*
X011563Y022882D03*
X011367Y022882D03*
X011170Y022882D03*
X010973Y022882D03*
X010973Y020520D03*
X011170Y020520D03*
X011367Y020520D03*
X011563Y020520D03*
X011760Y020520D03*
X011957Y020520D03*
X012154Y020520D03*
X012351Y020520D03*
X012548Y020520D03*
X012744Y020520D03*
X021154Y026176D03*
X021351Y026176D03*
X021548Y026176D03*
X021744Y026176D03*
X021941Y026176D03*
X022138Y026176D03*
X022335Y026176D03*
X022532Y026176D03*
X022532Y028124D03*
X022335Y028124D03*
X022138Y028124D03*
X021941Y028124D03*
X021744Y028124D03*
X021548Y028124D03*
X021351Y028124D03*
X021154Y028124D03*
D33*
X021843Y027150D03*
D34*
X022817Y027248D03*
X022817Y027052D03*
X022817Y026855D03*
X022817Y026658D03*
X022817Y026461D03*
X022817Y027445D03*
X022817Y027642D03*
X022817Y027839D03*
X020868Y027839D03*
X020868Y027642D03*
X020868Y027445D03*
X020868Y027248D03*
X020868Y027052D03*
X020868Y026855D03*
X020868Y026658D03*
X020868Y026461D03*
X013040Y022587D03*
X013040Y022390D03*
X013040Y022193D03*
X013040Y021996D03*
X013040Y021800D03*
X013040Y021603D03*
X013040Y021406D03*
X013040Y021209D03*
X013040Y021012D03*
X013040Y020815D03*
X010678Y020815D03*
X010678Y021012D03*
X010678Y021209D03*
X010678Y021406D03*
X010678Y021603D03*
X010678Y021800D03*
X010678Y021996D03*
X010678Y022193D03*
X010678Y022390D03*
X010678Y022587D03*
D35*
X020363Y009993D03*
X021150Y009244D03*
X020363Y007788D03*
X021150Y006823D03*
X021150Y011469D03*
X020481Y032307D03*
X021268Y033784D03*
X020481Y034532D03*
X021268Y035989D03*
X020481Y036953D03*
D36*
X018154Y020118D03*
X018154Y019118D03*
X018154Y018118D03*
X017154Y018118D03*
X017154Y019118D03*
X017154Y020118D03*
D37*
X020471Y020185D03*
X020471Y020685D03*
X020471Y021185D03*
X020471Y021685D03*
X020471Y022185D03*
X020471Y022685D03*
X020471Y023185D03*
X022735Y023185D03*
X022735Y022685D03*
X022735Y022185D03*
X022735Y021685D03*
X022735Y021185D03*
X022735Y020685D03*
X022735Y020185D03*
D38*
X021406Y017390D03*
X019634Y017390D03*
X019634Y013807D03*
X021406Y013807D03*
D39*
X011859Y021701D03*
D40*
X022363Y017922D03*
X023363Y017922D03*
X023363Y015441D03*
D41*
X022363Y015441D03*
D42*
X005678Y006268D02*
X005678Y037528D01*
X013341Y037528D01*
X013307Y037494D01*
X013307Y036845D01*
X013377Y036776D01*
X014498Y036776D01*
X014567Y036845D01*
X014567Y037494D01*
X014534Y037528D01*
X020248Y037528D01*
X020129Y037479D01*
X019955Y037304D01*
X019861Y037076D01*
X019861Y036830D01*
X019955Y036602D01*
X020129Y036427D01*
X020357Y036333D01*
X020604Y036333D01*
X020829Y036426D01*
X020742Y036340D01*
X020667Y036157D01*
X020171Y036157D01*
X019565Y035550D01*
X019466Y035452D01*
X019466Y032557D01*
X019785Y032238D01*
X019876Y032147D01*
X019955Y031956D01*
X020129Y031782D01*
X020357Y031687D01*
X020604Y031687D01*
X020832Y031782D01*
X021006Y031956D01*
X021101Y032184D01*
X021101Y032431D01*
X021006Y032659D01*
X020832Y032833D01*
X020604Y032928D01*
X020357Y032928D01*
X020129Y032833D01*
X019955Y032659D01*
X019921Y032577D01*
X019802Y032696D01*
X019802Y035313D01*
X020310Y035820D01*
X020667Y035820D01*
X020742Y035637D01*
X020917Y035463D01*
X021145Y035368D01*
X021391Y035368D01*
X021619Y035463D01*
X021794Y035637D01*
X021888Y035865D01*
X021888Y036112D01*
X021794Y036340D01*
X021619Y036514D01*
X021391Y036609D01*
X021145Y036609D01*
X020920Y036516D01*
X021006Y036602D01*
X021101Y036830D01*
X021101Y037076D01*
X021006Y037304D01*
X020832Y037479D01*
X020713Y037528D01*
X025126Y037528D01*
X025126Y006268D01*
X021430Y006268D01*
X021501Y006298D01*
X021676Y006472D01*
X021770Y006700D01*
X021770Y006947D01*
X021676Y007174D01*
X021501Y007349D01*
X021273Y007443D01*
X021027Y007443D01*
X020802Y007350D01*
X020888Y007437D01*
X020983Y007664D01*
X020983Y007911D01*
X020888Y008139D01*
X020714Y008313D01*
X020486Y008408D01*
X020239Y008408D01*
X020038Y008325D01*
X019556Y008711D01*
X019556Y010194D01*
X019822Y010461D01*
X019954Y010461D01*
X019837Y010344D01*
X019743Y010116D01*
X019743Y009869D01*
X019837Y009641D01*
X020011Y009467D01*
X020239Y009372D01*
X020486Y009372D01*
X020541Y009395D01*
X020530Y009368D01*
X020530Y009121D01*
X020624Y008893D01*
X020799Y008719D01*
X021027Y008624D01*
X021273Y008624D01*
X021501Y008719D01*
X021676Y008893D01*
X021770Y009121D01*
X021770Y009368D01*
X021676Y009596D01*
X021501Y009770D01*
X021487Y009776D01*
X024137Y009776D01*
X024940Y010579D01*
X025067Y010706D01*
X025067Y028169D01*
X024989Y028248D01*
X024862Y028374D01*
X024646Y028374D01*
X024646Y028392D01*
X024577Y028461D01*
X024122Y028461D01*
X024122Y028806D01*
X024231Y028915D01*
X024330Y029013D01*
X025126Y029013D01*
X025126Y028936D02*
X024252Y028936D01*
X024175Y028859D02*
X025126Y028859D01*
X025126Y028781D02*
X024122Y028781D01*
X024122Y028704D02*
X025126Y028704D01*
X025126Y028627D02*
X024122Y028627D01*
X024122Y028550D02*
X025126Y028550D01*
X025126Y028472D02*
X024122Y028472D01*
X023807Y028472D02*
X023040Y028472D01*
X023036Y028474D02*
X022926Y028474D01*
X022824Y028432D01*
X022746Y028354D01*
X022705Y028255D01*
X022705Y028341D01*
X022636Y028410D01*
X022503Y028410D01*
X022503Y028413D01*
X022544Y028413D01*
X022645Y028455D01*
X022723Y028533D01*
X022765Y028634D01*
X022765Y028744D01*
X022723Y028846D01*
X022645Y028924D01*
X022544Y028966D01*
X022434Y028966D01*
X022332Y028924D01*
X022254Y028846D01*
X022212Y028744D01*
X022212Y028650D01*
X022167Y028605D01*
X022167Y028410D01*
X022034Y028410D01*
X021965Y028341D01*
X021965Y027908D01*
X022034Y027839D01*
X022532Y027839D01*
X022532Y026461D01*
X021154Y026461D01*
X021154Y026565D01*
X021085Y026634D01*
X020652Y026634D01*
X020583Y026565D01*
X020583Y026357D01*
X020652Y026288D01*
X020700Y026288D01*
X020700Y025300D01*
X020659Y025282D01*
X020581Y025204D01*
X020538Y025103D01*
X020538Y024993D01*
X020581Y024891D01*
X020647Y024824D01*
X020647Y024191D01*
X020943Y023895D01*
X020943Y023050D01*
X020794Y022902D01*
X020127Y022902D01*
X020078Y022854D01*
X019761Y022854D01*
X019663Y022755D01*
X019575Y022667D01*
X019481Y022667D01*
X019379Y022625D01*
X019301Y022547D01*
X019259Y022445D01*
X019259Y022335D01*
X019289Y022263D01*
X018775Y022263D01*
X018708Y022330D01*
X018607Y022372D01*
X018496Y022372D01*
X018395Y022330D01*
X018317Y022252D01*
X018275Y022150D01*
X018275Y022040D01*
X018317Y021938D01*
X018395Y021860D01*
X018411Y021854D01*
X018243Y021854D01*
X018031Y022066D01*
X018031Y023260D01*
X019069Y023260D01*
X019138Y023329D01*
X019138Y023727D01*
X019087Y023778D01*
X019138Y023829D01*
X019138Y024227D01*
X019087Y024278D01*
X019138Y024329D01*
X019138Y024360D01*
X019578Y024360D01*
X019694Y024476D01*
X019788Y024476D01*
X019889Y024518D01*
X019967Y024596D01*
X020010Y024697D01*
X020010Y024807D01*
X019967Y024909D01*
X019901Y024976D01*
X019901Y025806D01*
X019802Y025905D01*
X019606Y026102D01*
X019507Y026200D01*
X019488Y026200D01*
X019517Y026272D01*
X019517Y026382D01*
X019475Y026484D01*
X019397Y026562D01*
X019296Y026604D01*
X019197Y026604D01*
X019222Y026666D01*
X019222Y026776D01*
X019180Y026878D01*
X019140Y026918D01*
X019180Y026958D01*
X019222Y027059D01*
X019222Y027092D01*
X019431Y026883D01*
X019854Y026883D01*
X019761Y026790D01*
X019761Y026452D01*
X019695Y026386D01*
X019653Y026284D01*
X019653Y026174D01*
X019695Y026072D01*
X019773Y025994D01*
X019874Y025952D01*
X019985Y025952D01*
X020086Y025994D01*
X020164Y026072D01*
X020206Y026174D01*
X020206Y026284D01*
X020164Y026386D01*
X020098Y026452D01*
X020098Y026651D01*
X020133Y026687D01*
X020647Y026687D01*
X020652Y026681D01*
X021085Y026681D01*
X021154Y026751D01*
X021154Y027839D01*
X021849Y027839D01*
X021918Y027908D01*
X021918Y028341D01*
X021913Y028346D01*
X021913Y028608D01*
X021936Y028631D01*
X021978Y028733D01*
X021978Y028843D01*
X021936Y028945D01*
X021858Y029022D01*
X021756Y029065D01*
X021646Y029065D01*
X021584Y029039D01*
X021584Y029040D01*
X021542Y029141D01*
X021464Y029219D01*
X021363Y029261D01*
X021252Y029261D01*
X021151Y029219D01*
X021073Y029141D01*
X021031Y029040D01*
X021031Y029007D01*
X020983Y029054D01*
X018876Y029054D01*
X018292Y028471D01*
X018198Y028432D01*
X018120Y028354D01*
X018078Y028252D01*
X018078Y028142D01*
X018120Y028040D01*
X018198Y027963D01*
X018300Y027920D01*
X018410Y027920D01*
X018512Y027963D01*
X018589Y028040D01*
X018632Y028142D01*
X018632Y028252D01*
X018607Y028311D01*
X019015Y028718D01*
X019567Y028718D01*
X019498Y028649D01*
X019456Y028548D01*
X019456Y028437D01*
X019498Y028336D01*
X019576Y028258D01*
X019603Y028246D01*
X019576Y028235D01*
X019498Y028157D01*
X019456Y028055D01*
X019456Y027945D01*
X019498Y027844D01*
X019538Y027804D01*
X019498Y027764D01*
X019456Y027662D01*
X019456Y027629D01*
X019310Y027775D01*
X019212Y027873D01*
X018679Y027873D01*
X018482Y027676D01*
X009525Y027676D01*
X009427Y027578D01*
X008246Y026397D01*
X006966Y026397D01*
X006868Y026298D01*
X006179Y025609D01*
X006179Y022616D01*
X006277Y022517D01*
X007056Y021739D01*
X007056Y021554D01*
X007125Y021485D01*
X007458Y021485D01*
X007448Y021461D01*
X007448Y021367D01*
X007428Y021347D01*
X007144Y021347D01*
X007075Y021278D01*
X007075Y020747D01*
X007144Y020678D01*
X007636Y020678D01*
X007705Y020747D01*
X007705Y021129D01*
X007744Y021129D01*
X007744Y020747D01*
X007814Y020678D01*
X008305Y020678D01*
X008374Y020747D01*
X008374Y020844D01*
X008493Y020844D01*
X008493Y020412D01*
X008562Y020343D01*
X008589Y020343D01*
X008541Y020294D01*
X008443Y020196D01*
X008443Y019166D01*
X008419Y019189D01*
X007692Y019189D01*
X007622Y019120D01*
X007622Y018976D01*
X007567Y018976D01*
X007567Y019073D01*
X007498Y019142D01*
X007007Y019142D01*
X006937Y019073D01*
X006937Y018542D01*
X007007Y018473D01*
X007498Y018473D01*
X007567Y018542D01*
X007567Y018639D01*
X007622Y018639D01*
X007622Y018511D01*
X007692Y018441D01*
X008419Y018441D01*
X008489Y018511D01*
X008489Y018647D01*
X008550Y018647D01*
X008649Y018746D01*
X008779Y018876D01*
X008779Y020057D01*
X009149Y020057D01*
X009118Y020026D01*
X009118Y019416D01*
X009188Y019347D01*
X009915Y019347D01*
X009969Y019400D01*
X009969Y019388D01*
X010038Y019319D01*
X010530Y019319D01*
X010599Y019388D01*
X010599Y019860D01*
X010658Y019860D01*
X010658Y019408D01*
X010727Y019339D01*
X011150Y019339D01*
X011150Y019339D01*
X010727Y019339D01*
X010658Y019270D01*
X010658Y018739D01*
X010727Y018670D01*
X011150Y018670D01*
X011150Y017756D01*
X011064Y017756D01*
X010933Y017894D01*
X010933Y018226D01*
X010864Y018296D01*
X010373Y018296D01*
X010304Y018226D01*
X010304Y017696D01*
X010352Y017647D01*
X010327Y017647D01*
X010225Y017605D01*
X010148Y017527D01*
X010105Y017426D01*
X010105Y017315D01*
X010148Y017214D01*
X010225Y017136D01*
X010327Y017094D01*
X010437Y017094D01*
X010473Y017108D01*
X010440Y017075D01*
X010097Y017075D01*
X010028Y017006D01*
X010028Y016475D01*
X010097Y016406D01*
X010589Y016406D01*
X010658Y016475D01*
X010658Y016818D01*
X010729Y016889D01*
X010791Y016889D01*
X010810Y016870D01*
X011301Y016870D01*
X011370Y016940D01*
X011370Y017175D01*
X011360Y017185D01*
X011370Y017196D01*
X011370Y017431D01*
X011360Y017441D01*
X011370Y017451D01*
X011370Y017618D01*
X011537Y017618D01*
X011548Y017629D01*
X011558Y017618D01*
X011793Y017618D01*
X011804Y017629D01*
X011814Y017618D01*
X012049Y017618D01*
X012059Y017629D01*
X012070Y017618D01*
X012237Y017618D01*
X012237Y017451D01*
X012247Y017441D01*
X012237Y017431D01*
X012237Y017196D01*
X012306Y017126D01*
X012751Y017126D01*
X012782Y017095D01*
X012125Y017095D01*
X012056Y017026D01*
X012056Y016868D01*
X012006Y016918D01*
X011514Y016918D01*
X011445Y016849D01*
X011445Y015402D01*
X011337Y015402D01*
X011268Y015333D01*
X011268Y014841D01*
X011337Y014772D01*
X011435Y014772D01*
X011435Y014654D01*
X011318Y014654D01*
X011248Y014585D01*
X011248Y014093D01*
X011318Y014024D01*
X011454Y014024D01*
X011454Y013748D01*
X011337Y013748D01*
X011268Y013679D01*
X011199Y013748D01*
X010668Y013748D01*
X010599Y013679D01*
X010599Y013188D01*
X010668Y013118D01*
X011199Y013118D01*
X011268Y013188D01*
X011268Y013679D01*
X011268Y013188D01*
X011337Y013118D01*
X011741Y013118D01*
X011741Y006937D01*
X010333Y006937D01*
X010264Y006868D01*
X010264Y006268D01*
X005678Y006268D01*
X005678Y006304D02*
X010264Y006304D01*
X010264Y006382D02*
X005678Y006382D01*
X005678Y006459D02*
X010264Y006459D01*
X010264Y006536D02*
X005678Y006536D01*
X005678Y006613D02*
X010264Y006613D01*
X010264Y006691D02*
X005678Y006691D01*
X005678Y006768D02*
X010264Y006768D01*
X010264Y006845D02*
X005678Y006845D01*
X005678Y006922D02*
X010318Y006922D01*
X011741Y007000D02*
X005678Y007000D01*
X005678Y007077D02*
X011741Y007077D01*
X011741Y007154D02*
X005678Y007154D01*
X005678Y007231D02*
X011741Y007231D01*
X011741Y007309D02*
X005678Y007309D01*
X005678Y007386D02*
X011741Y007386D01*
X011741Y007463D02*
X005678Y007463D01*
X005678Y007540D02*
X011741Y007540D01*
X011741Y007618D02*
X005678Y007618D01*
X005678Y007695D02*
X011741Y007695D01*
X011741Y007772D02*
X005678Y007772D01*
X005678Y007849D02*
X011741Y007849D01*
X011741Y007927D02*
X005678Y007927D01*
X005678Y008004D02*
X011741Y008004D01*
X011741Y008081D02*
X005678Y008081D01*
X005678Y008158D02*
X011741Y008158D01*
X011741Y008235D02*
X005678Y008235D01*
X005678Y008313D02*
X011741Y008313D01*
X011741Y008390D02*
X005678Y008390D01*
X005678Y008467D02*
X011741Y008467D01*
X011741Y008544D02*
X005678Y008544D01*
X005678Y008622D02*
X011741Y008622D01*
X011741Y008699D02*
X005678Y008699D01*
X005678Y008776D02*
X011741Y008776D01*
X011741Y008853D02*
X005678Y008853D01*
X005678Y008931D02*
X011741Y008931D01*
X011741Y009008D02*
X005678Y009008D01*
X005678Y009085D02*
X011741Y009085D01*
X011741Y009162D02*
X005678Y009162D01*
X005678Y009240D02*
X011741Y009240D01*
X011741Y009317D02*
X005678Y009317D01*
X005678Y009394D02*
X011741Y009394D01*
X011741Y009471D02*
X005678Y009471D01*
X005678Y009549D02*
X011741Y009549D01*
X011741Y009626D02*
X005678Y009626D01*
X005678Y009703D02*
X011741Y009703D01*
X011741Y009780D02*
X005678Y009780D01*
X005678Y009858D02*
X011741Y009858D01*
X011741Y009935D02*
X005678Y009935D01*
X005678Y010012D02*
X011741Y010012D01*
X011741Y010089D02*
X005678Y010089D01*
X005678Y010166D02*
X011741Y010166D01*
X011741Y010244D02*
X005678Y010244D01*
X005678Y010321D02*
X011741Y010321D01*
X011741Y010398D02*
X005678Y010398D01*
X005678Y010475D02*
X011741Y010475D01*
X011741Y010553D02*
X005678Y010553D01*
X005678Y010630D02*
X011741Y010630D01*
X011741Y010707D02*
X005678Y010707D01*
X005678Y010784D02*
X011741Y010784D01*
X011741Y010862D02*
X005678Y010862D01*
X005678Y010939D02*
X011741Y010939D01*
X011741Y011016D02*
X005678Y011016D01*
X005678Y011093D02*
X011741Y011093D01*
X011741Y011171D02*
X005678Y011171D01*
X005678Y011248D02*
X011741Y011248D01*
X011741Y011325D02*
X005678Y011325D01*
X005678Y011402D02*
X011741Y011402D01*
X011741Y011480D02*
X005678Y011480D01*
X005678Y011557D02*
X011741Y011557D01*
X011741Y011634D02*
X005678Y011634D01*
X005678Y011711D02*
X011741Y011711D01*
X011741Y011789D02*
X005678Y011789D01*
X005678Y011866D02*
X011741Y011866D01*
X011741Y011943D02*
X005678Y011943D01*
X005678Y012020D02*
X011741Y012020D01*
X011741Y012098D02*
X005678Y012098D01*
X005678Y012175D02*
X011741Y012175D01*
X011741Y012252D02*
X005678Y012252D01*
X005678Y012329D02*
X011741Y012329D01*
X011741Y012406D02*
X005678Y012406D01*
X005678Y012484D02*
X011741Y012484D01*
X011741Y012561D02*
X005678Y012561D01*
X005678Y012638D02*
X011741Y012638D01*
X011741Y012715D02*
X005678Y012715D01*
X005678Y012793D02*
X011741Y012793D01*
X011741Y012870D02*
X005678Y012870D01*
X005678Y012947D02*
X011741Y012947D01*
X011741Y013024D02*
X005678Y013024D01*
X005678Y013102D02*
X011741Y013102D01*
X011277Y013179D02*
X011259Y013179D01*
X011268Y013256D02*
X011268Y013256D01*
X011268Y013333D02*
X011268Y013333D01*
X011268Y013411D02*
X011268Y013411D01*
X011268Y013488D02*
X011268Y013488D01*
X011268Y013565D02*
X011268Y013565D01*
X011268Y013642D02*
X011268Y013642D01*
X011228Y013720D02*
X011308Y013720D01*
X011454Y013797D02*
X005678Y013797D01*
X005678Y013874D02*
X011454Y013874D01*
X011454Y013951D02*
X005678Y013951D01*
X005678Y014029D02*
X011313Y014029D01*
X011248Y014106D02*
X005678Y014106D01*
X005678Y014183D02*
X011248Y014183D01*
X011248Y014260D02*
X005678Y014260D01*
X005678Y014337D02*
X011248Y014337D01*
X011248Y014415D02*
X005678Y014415D01*
X005678Y014492D02*
X011248Y014492D01*
X011248Y014569D02*
X005678Y014569D01*
X005678Y014646D02*
X011310Y014646D01*
X011435Y014724D02*
X005678Y014724D01*
X005678Y014801D02*
X011308Y014801D01*
X011268Y014878D02*
X005678Y014878D01*
X005678Y014955D02*
X011268Y014955D01*
X011268Y015033D02*
X005678Y015033D01*
X005678Y015110D02*
X011268Y015110D01*
X011268Y015187D02*
X005678Y015187D01*
X005678Y015264D02*
X011268Y015264D01*
X011277Y015342D02*
X005678Y015342D01*
X005678Y015419D02*
X011445Y015419D01*
X011445Y015496D02*
X005678Y015496D01*
X005678Y015573D02*
X011445Y015573D01*
X011445Y015651D02*
X005678Y015651D01*
X005678Y015728D02*
X011445Y015728D01*
X011445Y015805D02*
X005678Y015805D01*
X005678Y015882D02*
X011445Y015882D01*
X011445Y015960D02*
X005678Y015960D01*
X005678Y016037D02*
X011445Y016037D01*
X011445Y016114D02*
X005678Y016114D01*
X005678Y016191D02*
X011445Y016191D01*
X011445Y016268D02*
X005678Y016268D01*
X005678Y016346D02*
X011445Y016346D01*
X011445Y016423D02*
X010606Y016423D01*
X010658Y016500D02*
X011445Y016500D01*
X011445Y016577D02*
X010658Y016577D01*
X010658Y016655D02*
X011445Y016655D01*
X011445Y016732D02*
X010658Y016732D01*
X010658Y016809D02*
X011445Y016809D01*
X011483Y016886D02*
X011317Y016886D01*
X011370Y016964D02*
X012056Y016964D01*
X012056Y016886D02*
X012037Y016886D01*
X012071Y017041D02*
X011370Y017041D01*
X011370Y017118D02*
X012759Y017118D01*
X012552Y017057D02*
X011975Y017057D01*
X011859Y017174D01*
X011815Y017174D01*
X012237Y017195D02*
X011370Y017195D01*
X011370Y017273D02*
X012237Y017273D01*
X012237Y017350D02*
X011370Y017350D01*
X011370Y017427D02*
X012237Y017427D01*
X012237Y017504D02*
X011370Y017504D01*
X011370Y017582D02*
X012237Y017582D01*
X012174Y018276D02*
X012174Y020235D01*
X012174Y020151D01*
X012271Y020054D01*
X012271Y019973D01*
X012313Y019871D01*
X012391Y019793D01*
X012493Y019751D01*
X012574Y019751D01*
X012632Y019693D01*
X012843Y019693D01*
X012843Y019605D01*
X012912Y019536D01*
X012843Y019467D01*
X012843Y018936D01*
X012912Y018867D01*
X013404Y018867D01*
X013473Y018936D01*
X013473Y019467D01*
X013404Y019536D01*
X013473Y019605D01*
X013473Y019892D01*
X013561Y019775D01*
X013561Y019761D01*
X013591Y019731D01*
X013591Y019625D01*
X013660Y019556D01*
X014191Y019556D01*
X014260Y019625D01*
X014260Y020116D01*
X014191Y020185D01*
X013673Y020185D01*
X013602Y020281D01*
X013602Y020294D01*
X013600Y020296D01*
X013657Y020352D01*
X013945Y020352D01*
X013945Y020274D01*
X014014Y020205D01*
X014545Y020205D01*
X014615Y020274D01*
X014684Y020205D01*
X015215Y020205D01*
X015284Y020274D01*
X015284Y020766D01*
X015215Y020835D01*
X014684Y020835D01*
X014615Y020766D01*
X014615Y020274D01*
X014615Y020766D01*
X014545Y020835D01*
X014014Y020835D01*
X013945Y020766D01*
X013945Y020688D01*
X013657Y020688D01*
X013590Y020755D01*
X013489Y020797D01*
X013378Y020797D01*
X013325Y020775D01*
X013325Y021313D01*
X013256Y021382D01*
X012824Y021382D01*
X012754Y021313D01*
X012754Y020806D01*
X012640Y020806D01*
X012571Y020736D01*
X012571Y020305D01*
X012528Y020305D01*
X012528Y020593D01*
X012524Y020597D01*
X012524Y020736D01*
X012455Y020806D01*
X012174Y020806D01*
X012174Y020963D01*
X012104Y021032D01*
X011219Y021032D01*
X011150Y020963D01*
X011150Y020806D01*
X010963Y020806D01*
X010963Y022597D01*
X011274Y022597D01*
X011343Y022666D01*
X011343Y023099D01*
X011338Y023104D01*
X011338Y023739D01*
X011043Y024035D01*
X011043Y024496D01*
X011395Y024496D01*
X011395Y023104D01*
X011390Y023099D01*
X011390Y022666D01*
X011459Y022597D01*
X012754Y022597D01*
X012754Y021696D01*
X012824Y021626D01*
X013256Y021626D01*
X013261Y021631D01*
X013265Y021631D01*
X013364Y021533D01*
X013462Y021435D01*
X013933Y021435D01*
X013933Y021085D01*
X014003Y021016D01*
X014534Y021016D01*
X014603Y021085D01*
X014672Y021016D01*
X015203Y021016D01*
X015272Y021085D01*
X015272Y021577D01*
X015203Y021646D01*
X014786Y021646D01*
X014851Y021711D01*
X014851Y022203D01*
X014782Y022272D01*
X014251Y022272D01*
X014181Y022203D01*
X014112Y022272D01*
X013750Y022272D01*
X013798Y022320D01*
X014141Y022320D01*
X014166Y022310D01*
X014276Y022310D01*
X014378Y022352D01*
X014456Y022430D01*
X014498Y022532D01*
X014498Y022642D01*
X014456Y022744D01*
X014378Y022822D01*
X014276Y022864D01*
X014166Y022864D01*
X014064Y022822D01*
X013986Y022744D01*
X013950Y022657D01*
X013710Y022657D01*
X013710Y022740D01*
X013668Y022842D01*
X013590Y022920D01*
X013489Y022962D01*
X013378Y022962D01*
X013277Y022920D01*
X013208Y022851D01*
X013208Y022954D01*
X013274Y023021D01*
X013317Y023122D01*
X013317Y023233D01*
X013274Y023334D01*
X013254Y023355D01*
X013660Y023355D01*
X013729Y023424D01*
X013798Y023355D01*
X014329Y023355D01*
X014395Y023420D01*
X014461Y023393D01*
X014571Y023393D01*
X014673Y023435D01*
X014751Y023513D01*
X014793Y023615D01*
X014793Y023725D01*
X014751Y023826D01*
X014673Y023904D01*
X014571Y023947D01*
X014461Y023947D01*
X014395Y023919D01*
X014329Y023985D01*
X013798Y023985D01*
X013729Y023915D01*
X013729Y023915D01*
X013729Y023424D01*
X013729Y023915D01*
X013660Y023985D01*
X013156Y023985D01*
X013176Y024005D01*
X013218Y024107D01*
X013218Y024217D01*
X013176Y024319D01*
X013098Y024397D01*
X012996Y024439D01*
X013021Y024500D01*
X013021Y024611D01*
X012979Y024712D01*
X012901Y024790D01*
X012800Y024832D01*
X012689Y024832D01*
X012588Y024790D01*
X012519Y024721D01*
X012519Y024978D01*
X015135Y024978D01*
X015135Y023108D01*
X015183Y023061D01*
X015150Y023061D01*
X015048Y023019D01*
X014970Y022941D01*
X014928Y022839D01*
X014928Y022729D01*
X014970Y022627D01*
X015048Y022549D01*
X015150Y022507D01*
X015244Y022507D01*
X015726Y022025D01*
X015824Y021927D01*
X016163Y021927D01*
X016229Y021860D01*
X016331Y021818D01*
X016441Y021818D01*
X016543Y021860D01*
X016621Y021938D01*
X016663Y022040D01*
X016663Y022150D01*
X016633Y022222D01*
X017694Y022222D01*
X017694Y021927D01*
X017793Y021828D01*
X018104Y021517D01*
X020078Y021517D01*
X020127Y021469D01*
X020815Y021469D01*
X020884Y021538D01*
X020884Y021833D01*
X020815Y021902D01*
X020127Y021902D01*
X020078Y021854D01*
X018692Y021854D01*
X018708Y021860D01*
X018775Y021927D01*
X020450Y021927D01*
X020492Y021969D01*
X020815Y021969D01*
X020884Y022038D01*
X020884Y022333D01*
X020815Y022402D01*
X020127Y022402D01*
X020057Y022333D01*
X020057Y022263D01*
X019783Y022263D01*
X019813Y022335D01*
X019813Y022429D01*
X019901Y022517D01*
X020078Y022517D01*
X020127Y022469D01*
X020815Y022469D01*
X020863Y022517D01*
X020885Y022517D01*
X021139Y022772D01*
X021139Y022419D01*
X021336Y022222D01*
X021336Y021771D01*
X020919Y021354D01*
X020863Y021354D01*
X020815Y021402D01*
X020127Y021402D01*
X020057Y021333D01*
X020057Y021038D01*
X020127Y020969D01*
X020815Y020969D01*
X020863Y021017D01*
X021058Y021017D01*
X021157Y021116D01*
X021574Y021533D01*
X021672Y021632D01*
X021672Y022361D01*
X021574Y022460D01*
X021476Y022558D01*
X021476Y023067D01*
X021533Y023009D01*
X022350Y023009D01*
X022390Y022969D01*
X023079Y022969D01*
X023148Y023038D01*
X023148Y023333D01*
X023079Y023402D01*
X022390Y023402D01*
X022334Y023346D01*
X021672Y023346D01*
X021672Y024726D01*
X021739Y024792D01*
X021747Y024811D01*
X021843Y024771D01*
X021953Y024771D01*
X022055Y024813D01*
X022124Y024882D01*
X022124Y024092D01*
X022320Y023895D01*
X022419Y023797D01*
X022607Y023797D01*
X022607Y023719D01*
X022676Y023650D01*
X023207Y023650D01*
X023276Y023719D01*
X023345Y023650D01*
X023876Y023650D01*
X023945Y023719D01*
X023945Y023797D01*
X023978Y023797D01*
X024044Y023730D01*
X024146Y023688D01*
X024256Y023688D01*
X024339Y023722D01*
X024339Y011063D01*
X023875Y010599D01*
X021200Y010599D01*
X021122Y010678D01*
X021307Y010863D01*
X021501Y010943D01*
X021676Y011118D01*
X021770Y011346D01*
X021770Y011592D01*
X021676Y011820D01*
X021501Y011995D01*
X021273Y012089D01*
X021027Y012089D01*
X020799Y011995D01*
X020624Y011820D01*
X020530Y011592D01*
X020530Y011346D01*
X020624Y011118D01*
X020787Y010955D01*
X020726Y010894D01*
X019643Y010894D01*
X019249Y010500D01*
X019122Y010374D01*
X019122Y008683D01*
X019114Y008672D01*
X019122Y008595D01*
X019122Y008517D01*
X019132Y008507D01*
X019134Y008494D01*
X019194Y008445D01*
X019249Y008390D01*
X019263Y008390D01*
X019772Y007983D01*
X019743Y007911D01*
X019743Y007664D01*
X019837Y007437D01*
X020011Y007262D01*
X020239Y007168D01*
X020486Y007168D01*
X020711Y007261D01*
X020624Y007174D01*
X020530Y006947D01*
X020530Y006700D01*
X020624Y006472D01*
X020799Y006298D01*
X020870Y006268D01*
X014142Y006268D01*
X014142Y006868D01*
X014073Y006937D01*
X012764Y006937D01*
X012764Y016041D01*
X012695Y016111D01*
X012140Y016111D01*
X012140Y016465D01*
X015923Y016465D01*
X015993Y016534D01*
X015993Y016651D01*
X016150Y016651D01*
X016150Y016534D01*
X016219Y016465D01*
X016711Y016465D01*
X016780Y016534D01*
X016780Y017065D01*
X016711Y017134D01*
X016386Y017134D01*
X016386Y017577D01*
X016317Y017646D01*
X015825Y017646D01*
X015756Y017715D01*
X015756Y018246D01*
X015825Y018315D01*
X016317Y018315D01*
X016386Y018246D01*
X016386Y017715D01*
X016317Y017646D01*
X015825Y017646D01*
X015756Y017577D01*
X015756Y017134D01*
X015520Y017134D01*
X015520Y017537D01*
X015451Y017607D01*
X015520Y017676D01*
X015520Y018207D01*
X015471Y018256D01*
X015608Y018256D01*
X015678Y018325D01*
X015678Y018817D01*
X015608Y018886D01*
X015077Y018886D01*
X015008Y018817D01*
X014939Y018886D01*
X014408Y018886D01*
X014339Y018817D01*
X014339Y018514D01*
X014126Y018301D01*
X014073Y018355D01*
X013581Y018355D01*
X013512Y018286D01*
X013512Y018188D01*
X013493Y018188D01*
X013493Y018286D01*
X013423Y018355D01*
X012932Y018355D01*
X012863Y018286D01*
X012863Y018276D01*
X012174Y018276D01*
X012174Y018277D02*
X012863Y018277D01*
X012931Y018354D02*
X012174Y018354D01*
X012174Y018431D02*
X014256Y018431D01*
X014179Y018354D02*
X014074Y018354D01*
X014334Y018508D02*
X012174Y018508D01*
X012174Y018586D02*
X014339Y018586D01*
X014339Y018663D02*
X012174Y018663D01*
X012174Y018740D02*
X014339Y018740D01*
X014339Y018817D02*
X012174Y018817D01*
X012174Y018895D02*
X012884Y018895D01*
X012843Y018972D02*
X012174Y018972D01*
X012174Y019049D02*
X012843Y019049D01*
X012843Y019126D02*
X012174Y019126D01*
X012174Y019204D02*
X012843Y019204D01*
X012843Y019281D02*
X012174Y019281D01*
X012174Y019358D02*
X012843Y019358D01*
X012843Y019435D02*
X012174Y019435D01*
X012174Y019513D02*
X012889Y019513D01*
X012912Y019536D02*
X013404Y019536D01*
X012912Y019536D01*
X012858Y019590D02*
X012174Y019590D01*
X012174Y019667D02*
X012843Y019667D01*
X012581Y019744D02*
X012174Y019744D01*
X012174Y019822D02*
X012363Y019822D01*
X012301Y019899D02*
X012174Y019899D01*
X012174Y019976D02*
X012271Y019976D01*
X012271Y020053D02*
X012174Y020053D01*
X012174Y020131D02*
X012195Y020131D01*
X012174Y020208D02*
X012174Y020208D01*
X012174Y020235D02*
X012174Y020235D01*
X012528Y020362D02*
X012571Y020362D01*
X012571Y020439D02*
X012528Y020439D01*
X012528Y020517D02*
X012571Y020517D01*
X012548Y020520D02*
X012449Y021111D01*
X011957Y021603D01*
X012156Y020980D02*
X012754Y020980D01*
X012754Y020903D02*
X012174Y020903D01*
X012174Y020826D02*
X012754Y020826D01*
X012583Y020748D02*
X012512Y020748D01*
X012524Y020671D02*
X012571Y020671D01*
X012571Y020594D02*
X012527Y020594D01*
X012754Y021057D02*
X010963Y021057D01*
X010963Y020980D02*
X011167Y020980D01*
X011150Y020903D02*
X010963Y020903D01*
X010963Y020826D02*
X011150Y020826D01*
X010963Y021135D02*
X012754Y021135D01*
X012754Y021212D02*
X010963Y021212D01*
X010963Y021289D02*
X012754Y021289D01*
X012808Y021366D02*
X010963Y021366D01*
X010963Y021444D02*
X013453Y021444D01*
X013376Y021521D02*
X010963Y021521D01*
X010963Y021598D02*
X013299Y021598D01*
X013272Y021366D02*
X013933Y021366D01*
X013933Y021289D02*
X013325Y021289D01*
X013325Y021212D02*
X013933Y021212D01*
X013933Y021135D02*
X013325Y021135D01*
X013325Y021057D02*
X013961Y021057D01*
X014005Y020826D02*
X013325Y020826D01*
X013325Y020903D02*
X019259Y020903D01*
X019259Y020859D02*
X019301Y020757D01*
X019368Y020690D01*
X019368Y019507D01*
X019147Y019287D01*
X018642Y019287D01*
X018642Y019321D01*
X018356Y019607D01*
X017952Y019607D01*
X017666Y019321D01*
X017666Y018916D01*
X017952Y018630D01*
X018356Y018630D01*
X018642Y018916D01*
X018642Y018950D01*
X019287Y018950D01*
X019605Y019269D01*
X019704Y019368D01*
X019704Y020690D01*
X019771Y020757D01*
X019813Y020859D01*
X019813Y020969D01*
X019771Y021071D01*
X019693Y021148D01*
X019591Y021191D01*
X019481Y021191D01*
X019379Y021148D01*
X019301Y021071D01*
X019259Y020969D01*
X019259Y020859D01*
X019273Y020826D02*
X015224Y020826D01*
X015284Y020748D02*
X019310Y020748D01*
X019368Y020671D02*
X015284Y020671D01*
X015284Y020594D02*
X017939Y020594D01*
X017952Y020607D02*
X017666Y020321D01*
X017666Y019916D01*
X017952Y019630D01*
X018356Y019630D01*
X018642Y019916D01*
X018642Y020321D01*
X018356Y020607D01*
X017952Y020607D01*
X017862Y020517D02*
X015284Y020517D01*
X015284Y020439D02*
X017785Y020439D01*
X017707Y020362D02*
X015284Y020362D01*
X015284Y020285D02*
X017666Y020285D01*
X017666Y020208D02*
X015217Y020208D01*
X014681Y020208D02*
X014548Y020208D01*
X014615Y020285D02*
X014615Y020285D01*
X014615Y020362D02*
X014615Y020362D01*
X014615Y020439D02*
X014615Y020439D01*
X014615Y020517D02*
X014615Y020517D01*
X014615Y020594D02*
X014615Y020594D01*
X014615Y020671D02*
X014615Y020671D01*
X014615Y020748D02*
X014615Y020748D01*
X014674Y020826D02*
X014555Y020826D01*
X014575Y021057D02*
X014631Y021057D01*
X014603Y021085D02*
X014603Y021577D01*
X014668Y021642D01*
X014537Y021642D01*
X014603Y021577D01*
X014603Y021085D01*
X014603Y021135D02*
X014603Y021135D01*
X014603Y021212D02*
X014603Y021212D01*
X014603Y021289D02*
X014603Y021289D01*
X014603Y021366D02*
X014603Y021366D01*
X014603Y021444D02*
X014603Y021444D01*
X014603Y021521D02*
X014603Y021521D01*
X014582Y021598D02*
X014624Y021598D01*
X014815Y021675D02*
X017946Y021675D01*
X018023Y021598D02*
X015251Y021598D01*
X015272Y021521D02*
X018100Y021521D01*
X017869Y021753D02*
X014851Y021753D01*
X014851Y021830D02*
X016303Y021830D01*
X016183Y021907D02*
X014851Y021907D01*
X014851Y021984D02*
X015767Y021984D01*
X015726Y022025D02*
X015726Y022025D01*
X015690Y022062D02*
X014851Y022062D01*
X014851Y022139D02*
X015612Y022139D01*
X015535Y022216D02*
X014838Y022216D01*
X015107Y022525D02*
X014495Y022525D01*
X014498Y022602D02*
X014995Y022602D01*
X014949Y022679D02*
X014482Y022679D01*
X014443Y022757D02*
X014928Y022757D01*
X014928Y022834D02*
X014348Y022834D01*
X014094Y022834D02*
X013672Y022834D01*
X013704Y022757D02*
X013999Y022757D01*
X013959Y022679D02*
X013710Y022679D01*
X013599Y022911D02*
X014958Y022911D01*
X015018Y022988D02*
X013242Y022988D01*
X013268Y022911D02*
X013208Y022911D01*
X013293Y023066D02*
X015178Y023066D01*
X015135Y023143D02*
X013317Y023143D01*
X013317Y023220D02*
X015135Y023220D01*
X015135Y023297D02*
X013290Y023297D01*
X013679Y023375D02*
X013778Y023375D01*
X013729Y023452D02*
X013729Y023452D01*
X013729Y023529D02*
X013729Y023529D01*
X013729Y023606D02*
X013729Y023606D01*
X013729Y023684D02*
X013729Y023684D01*
X013729Y023761D02*
X013729Y023761D01*
X013729Y023838D02*
X013729Y023838D01*
X013203Y024070D02*
X015135Y024070D01*
X015135Y024147D02*
X013218Y024147D01*
X013215Y024224D02*
X015135Y024224D01*
X015135Y024301D02*
X013183Y024301D01*
X013116Y024379D02*
X015135Y024379D01*
X015135Y024456D02*
X013003Y024456D01*
X012996Y024439D02*
X012996Y024439D01*
X013021Y024533D02*
X015135Y024533D01*
X015135Y024610D02*
X013021Y024610D01*
X012989Y024688D02*
X015135Y024688D01*
X015135Y024765D02*
X012927Y024765D01*
X012562Y024765D02*
X012519Y024765D01*
X012519Y024842D02*
X015135Y024842D01*
X015135Y024919D02*
X012519Y024919D01*
X013164Y023993D02*
X015135Y023993D01*
X015135Y023915D02*
X014647Y023915D01*
X014739Y023838D02*
X015135Y023838D01*
X015135Y023761D02*
X014778Y023761D01*
X014793Y023684D02*
X015135Y023684D01*
X015135Y023606D02*
X014790Y023606D01*
X014758Y023529D02*
X015135Y023529D01*
X015135Y023452D02*
X014690Y023452D01*
X014349Y023375D02*
X015135Y023375D01*
X015304Y022448D02*
X014463Y022448D01*
X014396Y022370D02*
X015381Y022370D01*
X015458Y022293D02*
X013771Y022293D01*
X014168Y022216D02*
X014195Y022216D01*
X014181Y022203D02*
X014181Y021771D01*
X014181Y022203D01*
X014181Y022139D02*
X014181Y022139D01*
X014181Y022062D02*
X014181Y022062D01*
X014181Y021984D02*
X014181Y021984D01*
X014181Y021907D02*
X014181Y021907D01*
X014181Y021830D02*
X014181Y021830D01*
X014181Y021771D02*
X014181Y021771D01*
X013945Y020748D02*
X013597Y020748D01*
X013325Y020980D02*
X019264Y020980D01*
X019296Y021057D02*
X015244Y021057D01*
X015272Y021135D02*
X019365Y021135D01*
X019706Y021135D02*
X020057Y021135D01*
X020057Y021212D02*
X015272Y021212D01*
X015272Y021289D02*
X020057Y021289D01*
X020091Y021366D02*
X015272Y021366D01*
X015272Y021444D02*
X021009Y021444D01*
X021086Y021521D02*
X020867Y021521D01*
X020884Y021598D02*
X021163Y021598D01*
X021241Y021675D02*
X020884Y021675D01*
X020884Y021753D02*
X021318Y021753D01*
X021336Y021830D02*
X020884Y021830D01*
X020830Y021984D02*
X021336Y021984D01*
X021336Y021907D02*
X018755Y021907D01*
X018745Y022293D02*
X019276Y022293D01*
X019259Y022370D02*
X019120Y022370D01*
X019102Y022352D02*
X019180Y022430D01*
X019222Y022532D01*
X019222Y022626D01*
X019605Y023009D01*
X020086Y023009D01*
X020127Y022969D01*
X020815Y022969D01*
X020884Y023038D01*
X020884Y023333D01*
X020815Y023402D01*
X020590Y023402D01*
X020590Y023446D01*
X020656Y023513D01*
X020698Y023615D01*
X020698Y023725D01*
X020656Y023826D01*
X020578Y023904D01*
X020477Y023947D01*
X020367Y023947D01*
X020265Y023904D01*
X020187Y023826D01*
X020145Y023725D01*
X020145Y023615D01*
X020187Y023513D01*
X020254Y023446D01*
X020254Y023402D01*
X020127Y023402D01*
X020070Y023346D01*
X019466Y023346D01*
X019368Y023247D01*
X018984Y022864D01*
X018890Y022864D01*
X018788Y022822D01*
X018711Y022744D01*
X018668Y022642D01*
X018668Y022532D01*
X018711Y022430D01*
X018788Y022352D01*
X018890Y022310D01*
X019000Y022310D01*
X019102Y022352D01*
X019187Y022448D02*
X019260Y022448D01*
X019292Y022525D02*
X019219Y022525D01*
X019222Y022602D02*
X019356Y022602D01*
X019275Y022679D02*
X019587Y022679D01*
X019665Y022757D02*
X019353Y022757D01*
X019430Y022834D02*
X019742Y022834D01*
X019584Y022988D02*
X020107Y022988D01*
X020099Y023375D02*
X019138Y023375D01*
X019138Y023452D02*
X020248Y023452D01*
X020180Y023529D02*
X019138Y023529D01*
X019138Y023606D02*
X020148Y023606D01*
X020145Y023684D02*
X019138Y023684D01*
X019104Y023761D02*
X020160Y023761D01*
X020198Y023838D02*
X019138Y023838D01*
X019138Y023915D02*
X020291Y023915D01*
X020552Y023915D02*
X020923Y023915D01*
X020943Y023838D02*
X020645Y023838D01*
X020684Y023761D02*
X020943Y023761D01*
X020943Y023684D02*
X020698Y023684D01*
X020695Y023606D02*
X020943Y023606D01*
X020943Y023529D02*
X020663Y023529D01*
X020595Y023452D02*
X020943Y023452D01*
X020943Y023375D02*
X020842Y023375D01*
X020884Y023297D02*
X020943Y023297D01*
X020943Y023220D02*
X020884Y023220D01*
X020884Y023143D02*
X020943Y023143D01*
X020943Y023066D02*
X020884Y023066D01*
X020881Y022988D02*
X020835Y022988D01*
X020803Y022911D02*
X019507Y022911D01*
X019263Y023143D02*
X018031Y023143D01*
X018031Y023220D02*
X019341Y023220D01*
X019418Y023297D02*
X019107Y023297D01*
X019186Y023066D02*
X018031Y023066D01*
X018031Y022988D02*
X019109Y022988D01*
X019032Y022911D02*
X018031Y022911D01*
X018031Y022834D02*
X018818Y022834D01*
X018723Y022757D02*
X018031Y022757D01*
X018031Y022679D02*
X018684Y022679D01*
X018668Y022602D02*
X018031Y022602D01*
X018031Y022525D02*
X018671Y022525D01*
X018703Y022448D02*
X018031Y022448D01*
X018031Y022370D02*
X018493Y022370D01*
X018610Y022370D02*
X018770Y022370D01*
X018358Y022293D02*
X018031Y022293D01*
X018031Y022216D02*
X018302Y022216D01*
X018275Y022139D02*
X018031Y022139D01*
X018035Y022062D02*
X018275Y022062D01*
X018298Y021984D02*
X018113Y021984D01*
X018190Y021907D02*
X018348Y021907D01*
X017792Y021830D02*
X016470Y021830D01*
X016590Y021907D02*
X017714Y021907D01*
X017694Y021984D02*
X016640Y021984D01*
X016663Y022062D02*
X017694Y022062D01*
X017694Y022139D02*
X016663Y022139D01*
X016636Y022216D02*
X017694Y022216D01*
X017694Y022558D02*
X016161Y022558D01*
X015959Y022760D01*
X016919Y022760D01*
X016941Y022782D01*
X016977Y022746D01*
X017079Y022704D01*
X017189Y022704D01*
X017291Y022746D01*
X017369Y022824D01*
X017411Y022926D01*
X017411Y023036D01*
X017369Y023138D01*
X017291Y023215D01*
X017189Y023258D01*
X017079Y023258D01*
X016988Y023220D01*
X016988Y023227D01*
X016937Y023278D01*
X016988Y023329D01*
X016988Y023727D01*
X016937Y023778D01*
X016988Y023829D01*
X016988Y023860D01*
X017182Y023860D01*
X017214Y023829D01*
X017315Y023787D01*
X017426Y023787D01*
X017527Y023829D01*
X017605Y023907D01*
X017647Y024008D01*
X017647Y024118D01*
X017605Y024220D01*
X017540Y024285D01*
X017626Y024321D01*
X017704Y024399D01*
X017746Y024500D01*
X017746Y024611D01*
X017704Y024712D01*
X017637Y024779D01*
X017637Y025273D01*
X018031Y025667D01*
X018031Y025907D01*
X018097Y025973D01*
X018139Y026075D01*
X018139Y026151D01*
X018198Y026092D01*
X018300Y026050D01*
X018410Y026050D01*
X018512Y026092D01*
X018530Y026111D01*
X018679Y025962D01*
X018777Y025864D01*
X019368Y025864D01*
X019565Y025667D01*
X019565Y024976D01*
X019498Y024909D01*
X019456Y024807D01*
X019456Y024713D01*
X019439Y024696D01*
X019138Y024696D01*
X019138Y024727D01*
X019087Y024778D01*
X019138Y024829D01*
X019138Y025227D01*
X019069Y025296D01*
X017971Y025296D01*
X017902Y025227D01*
X017902Y024829D01*
X017953Y024778D01*
X017902Y024727D01*
X017902Y024329D01*
X017953Y024278D01*
X017902Y024227D01*
X017902Y024144D01*
X017694Y023936D01*
X017694Y022558D01*
X017694Y022602D02*
X016117Y022602D01*
X016039Y022679D02*
X017694Y022679D01*
X017694Y022757D02*
X017302Y022757D01*
X017373Y022834D02*
X017694Y022834D01*
X017694Y022911D02*
X017405Y022911D01*
X017411Y022988D02*
X017694Y022988D01*
X017694Y023066D02*
X017399Y023066D01*
X017364Y023143D02*
X017694Y023143D01*
X017694Y023220D02*
X017280Y023220D01*
X016989Y023220D02*
X016988Y023220D01*
X016957Y023297D02*
X017694Y023297D01*
X017694Y023375D02*
X016988Y023375D01*
X016988Y023452D02*
X017694Y023452D01*
X017694Y023529D02*
X016988Y023529D01*
X016988Y023606D02*
X017694Y023606D01*
X017694Y023684D02*
X016988Y023684D01*
X016954Y023761D02*
X017694Y023761D01*
X017694Y023838D02*
X017537Y023838D01*
X017609Y023915D02*
X017694Y023915D01*
X017641Y023993D02*
X017751Y023993D01*
X017828Y024070D02*
X017647Y024070D01*
X017635Y024147D02*
X017902Y024147D01*
X017902Y024224D02*
X017601Y024224D01*
X017579Y024301D02*
X017930Y024301D01*
X017902Y024379D02*
X017684Y024379D01*
X017727Y024456D02*
X017902Y024456D01*
X017902Y024533D02*
X017746Y024533D01*
X017746Y024610D02*
X017902Y024610D01*
X017902Y024688D02*
X017714Y024688D01*
X017651Y024765D02*
X017940Y024765D01*
X017902Y024842D02*
X017637Y024842D01*
X017637Y024919D02*
X017902Y024919D01*
X017902Y024997D02*
X017637Y024997D01*
X017637Y025074D02*
X017902Y025074D01*
X017902Y025151D02*
X017637Y025151D01*
X017637Y025228D02*
X017904Y025228D01*
X017747Y025383D02*
X019565Y025383D01*
X019565Y025460D02*
X017824Y025460D01*
X017901Y025537D02*
X019565Y025537D01*
X019565Y025615D02*
X017978Y025615D01*
X018031Y025692D02*
X019540Y025692D01*
X019462Y025769D02*
X018031Y025769D01*
X018031Y025846D02*
X019385Y025846D01*
X019629Y026078D02*
X019692Y026078D01*
X019706Y026001D02*
X019766Y026001D01*
X019783Y025924D02*
X020700Y025924D01*
X020700Y026001D02*
X020093Y026001D01*
X020167Y026078D02*
X020700Y026078D01*
X020700Y026155D02*
X020199Y026155D01*
X020206Y026232D02*
X020700Y026232D01*
X020630Y026310D02*
X020196Y026310D01*
X020163Y026387D02*
X020583Y026387D01*
X020583Y026464D02*
X020098Y026464D01*
X020098Y026541D02*
X020583Y026541D01*
X020637Y026619D02*
X020098Y026619D01*
X019761Y026619D02*
X019203Y026619D01*
X019222Y026696D02*
X019761Y026696D01*
X019761Y026773D02*
X019222Y026773D01*
X019191Y026850D02*
X019821Y026850D01*
X019761Y026541D02*
X019418Y026541D01*
X019483Y026464D02*
X019761Y026464D01*
X019696Y026387D02*
X019515Y026387D01*
X019517Y026310D02*
X019663Y026310D01*
X019653Y026232D02*
X019501Y026232D01*
X019552Y026155D02*
X019660Y026155D01*
X019606Y026102D02*
X019606Y026102D01*
X019802Y025905D02*
X019802Y025905D01*
X019861Y025846D02*
X020700Y025846D01*
X020700Y025769D02*
X019901Y025769D01*
X019901Y025692D02*
X020700Y025692D01*
X020700Y025615D02*
X019901Y025615D01*
X019901Y025537D02*
X020700Y025537D01*
X020700Y025460D02*
X019901Y025460D01*
X019901Y025383D02*
X020700Y025383D01*
X020700Y025306D02*
X019901Y025306D01*
X019901Y025228D02*
X020605Y025228D01*
X020559Y025151D02*
X019901Y025151D01*
X019901Y025074D02*
X020538Y025074D01*
X020538Y024997D02*
X019901Y024997D01*
X019957Y024919D02*
X020569Y024919D01*
X020629Y024842D02*
X019995Y024842D01*
X020010Y024765D02*
X020647Y024765D01*
X020647Y024688D02*
X020006Y024688D01*
X019974Y024610D02*
X020647Y024610D01*
X020647Y024533D02*
X019905Y024533D01*
X019674Y024456D02*
X020647Y024456D01*
X020647Y024379D02*
X019597Y024379D01*
X019456Y024765D02*
X019100Y024765D01*
X019138Y024842D02*
X019470Y024842D01*
X019508Y024919D02*
X019138Y024919D01*
X019138Y024997D02*
X019565Y024997D01*
X019565Y025074D02*
X019138Y025074D01*
X019138Y025151D02*
X019565Y025151D01*
X019565Y025228D02*
X019137Y025228D01*
X019565Y025306D02*
X017669Y025306D01*
X018047Y025924D02*
X018717Y025924D01*
X018640Y026001D02*
X018109Y026001D01*
X018139Y026078D02*
X018233Y026078D01*
X018477Y026078D02*
X018563Y026078D01*
X019150Y026928D02*
X019387Y026928D01*
X019309Y027005D02*
X019200Y027005D01*
X019222Y027082D02*
X019232Y027082D01*
X019385Y027700D02*
X019472Y027700D01*
X019512Y027777D02*
X019308Y027777D01*
X019230Y027855D02*
X019493Y027855D01*
X019461Y027932D02*
X018437Y027932D01*
X018558Y028009D02*
X019456Y028009D01*
X019469Y028086D02*
X018608Y028086D01*
X018632Y028164D02*
X019504Y028164D01*
X019590Y028241D02*
X018632Y028241D01*
X018615Y028318D02*
X019516Y028318D01*
X019473Y028395D02*
X018692Y028395D01*
X018769Y028472D02*
X019456Y028472D01*
X019457Y028550D02*
X018847Y028550D01*
X018924Y028627D02*
X019489Y028627D01*
X019553Y028704D02*
X019001Y028704D01*
X018757Y028936D02*
X017294Y028936D01*
X017294Y029013D02*
X018834Y029013D01*
X018680Y028859D02*
X017294Y028859D01*
X017294Y028781D02*
X018603Y028781D01*
X018526Y028704D02*
X017294Y028704D01*
X017294Y028627D02*
X018448Y028627D01*
X018371Y028550D02*
X017294Y028550D01*
X017294Y028511D02*
X017294Y030752D01*
X017313Y030752D01*
X017343Y030782D01*
X017373Y030752D01*
X017746Y030752D01*
X017776Y030782D01*
X017806Y030752D01*
X018179Y030752D01*
X018248Y030822D01*
X018248Y031185D01*
X018553Y031185D01*
X018622Y031255D01*
X018622Y034502D01*
X018553Y034571D01*
X018180Y034571D01*
X018150Y034541D01*
X018150Y036628D01*
X018081Y036697D01*
X017707Y036697D01*
X017638Y036628D01*
X017638Y033823D01*
X014282Y033823D01*
X014213Y033754D01*
X014213Y033026D01*
X014282Y032957D01*
X017805Y032957D01*
X017874Y033026D01*
X017874Y033469D01*
X018081Y033469D01*
X018111Y033499D01*
X018111Y031461D01*
X017806Y031461D01*
X017776Y031431D01*
X017746Y031461D01*
X017373Y031461D01*
X017343Y031431D01*
X017313Y031461D01*
X016940Y031461D01*
X016870Y031392D01*
X016870Y030822D01*
X016940Y030752D01*
X016958Y030752D01*
X016958Y028372D01*
X017192Y028138D01*
X017192Y028044D01*
X017234Y027942D01*
X017312Y027864D01*
X017414Y027822D01*
X017524Y027822D01*
X017626Y027864D01*
X017704Y027942D01*
X017746Y028044D01*
X017746Y028154D01*
X017704Y028256D01*
X017626Y028334D01*
X017524Y028376D01*
X017430Y028376D01*
X017294Y028511D01*
X017333Y028472D02*
X018294Y028472D01*
X018161Y028395D02*
X017410Y028395D01*
X017641Y028318D02*
X018105Y028318D01*
X018078Y028241D02*
X017710Y028241D01*
X017742Y028164D02*
X018078Y028164D01*
X018101Y028086D02*
X017746Y028086D01*
X017731Y028009D02*
X018151Y028009D01*
X018272Y027932D02*
X017693Y027932D01*
X017603Y027855D02*
X018660Y027855D01*
X018583Y027777D02*
X017047Y027777D01*
X017035Y027766D02*
X017113Y027844D01*
X017155Y027945D01*
X017155Y028055D01*
X017113Y028157D01*
X017035Y028235D01*
X016933Y028277D01*
X016839Y028277D01*
X016428Y028688D01*
X016428Y030752D01*
X016447Y030752D01*
X016516Y030822D01*
X016516Y031392D01*
X016447Y031461D01*
X016074Y031461D01*
X016044Y031431D01*
X016014Y031461D01*
X015985Y031461D01*
X015985Y031538D01*
X016030Y031584D01*
X016073Y031685D01*
X016073Y031796D01*
X016030Y031897D01*
X015952Y031975D01*
X015851Y032017D01*
X015741Y032017D01*
X015639Y031975D01*
X015561Y031897D01*
X015519Y031796D01*
X015519Y031685D01*
X015561Y031584D01*
X015639Y031506D01*
X015670Y031493D01*
X015670Y031461D01*
X015640Y031461D01*
X015611Y031431D01*
X015581Y031461D01*
X015207Y031461D01*
X015178Y031431D01*
X015148Y031461D01*
X014774Y031461D01*
X014744Y031431D01*
X014715Y031461D01*
X014341Y031461D01*
X014272Y031392D01*
X014272Y030822D01*
X014341Y030752D01*
X014715Y030752D01*
X014744Y030782D01*
X014774Y030752D01*
X014793Y030752D01*
X014793Y029046D01*
X014784Y028991D01*
X014793Y028978D01*
X014793Y028962D01*
X014832Y028923D01*
X014940Y028772D01*
X014928Y028744D01*
X014928Y028634D01*
X014970Y028533D01*
X015048Y028455D01*
X015150Y028413D01*
X015260Y028413D01*
X015362Y028455D01*
X015440Y028533D01*
X015482Y028634D01*
X015482Y028744D01*
X015440Y028846D01*
X015362Y028924D01*
X015260Y028966D01*
X015214Y028966D01*
X015129Y029086D01*
X015129Y030752D01*
X015148Y030752D01*
X015178Y030782D01*
X015207Y030752D01*
X015226Y030752D01*
X015226Y029415D01*
X015519Y029122D01*
X015519Y029028D01*
X015561Y028926D01*
X015639Y028848D01*
X015741Y028806D01*
X015851Y028806D01*
X015952Y028848D01*
X016030Y028926D01*
X016073Y029028D01*
X016073Y029138D01*
X016030Y029240D01*
X015952Y029318D01*
X015851Y029360D01*
X015757Y029360D01*
X015562Y029554D01*
X015562Y030752D01*
X015581Y030752D01*
X015611Y030782D01*
X015640Y030752D01*
X016014Y030752D01*
X016044Y030782D01*
X016074Y030752D01*
X016092Y030752D01*
X016092Y028549D01*
X016601Y028039D01*
X016601Y027945D01*
X016644Y027844D01*
X016722Y027766D01*
X016823Y027724D01*
X016933Y027724D01*
X017035Y027766D01*
X017118Y027855D02*
X017335Y027855D01*
X017244Y027932D02*
X017150Y027932D01*
X017155Y028009D02*
X017206Y028009D01*
X017192Y028086D02*
X017142Y028086D01*
X017166Y028164D02*
X017107Y028164D01*
X017089Y028241D02*
X017021Y028241D01*
X017012Y028318D02*
X016798Y028318D01*
X016721Y028395D02*
X016958Y028395D01*
X016958Y028472D02*
X016644Y028472D01*
X016567Y028550D02*
X016958Y028550D01*
X016958Y028627D02*
X016490Y028627D01*
X016428Y028704D02*
X016958Y028704D01*
X016958Y028781D02*
X016428Y028781D01*
X016428Y028859D02*
X016958Y028859D01*
X016958Y028936D02*
X016428Y028936D01*
X016428Y029013D02*
X016958Y029013D01*
X016958Y029090D02*
X016428Y029090D01*
X016428Y029168D02*
X016958Y029168D01*
X016958Y029245D02*
X016428Y029245D01*
X016428Y029322D02*
X016958Y029322D01*
X016958Y029399D02*
X016428Y029399D01*
X016428Y029477D02*
X016958Y029477D01*
X016958Y029554D02*
X016428Y029554D01*
X016428Y029631D02*
X016958Y029631D01*
X016958Y029708D02*
X016428Y029708D01*
X016428Y029786D02*
X016958Y029786D01*
X016958Y029863D02*
X016428Y029863D01*
X016428Y029940D02*
X016958Y029940D01*
X016958Y030017D02*
X016428Y030017D01*
X016428Y030095D02*
X016958Y030095D01*
X016958Y030172D02*
X016428Y030172D01*
X016428Y030249D02*
X016958Y030249D01*
X016958Y030326D02*
X016428Y030326D01*
X016428Y030403D02*
X016958Y030403D01*
X016958Y030481D02*
X016428Y030481D01*
X016428Y030558D02*
X016958Y030558D01*
X016958Y030635D02*
X016428Y030635D01*
X016428Y030712D02*
X016958Y030712D01*
X016902Y030790D02*
X016484Y030790D01*
X016516Y030867D02*
X016870Y030867D01*
X016870Y030944D02*
X016516Y030944D01*
X016516Y031021D02*
X016870Y031021D01*
X016870Y031099D02*
X016516Y031099D01*
X016516Y031176D02*
X016870Y031176D01*
X016870Y031253D02*
X016516Y031253D01*
X016516Y031330D02*
X016870Y031330D01*
X016886Y031408D02*
X016500Y031408D01*
X016053Y031639D02*
X018111Y031639D01*
X018111Y031562D02*
X016009Y031562D01*
X015985Y031485D02*
X018111Y031485D01*
X018111Y031717D02*
X016073Y031717D01*
X016073Y031794D02*
X018111Y031794D01*
X018111Y031871D02*
X016041Y031871D01*
X015979Y031948D02*
X018111Y031948D01*
X018111Y032026D02*
X011780Y032026D01*
X011780Y032103D02*
X018111Y032103D01*
X018111Y032180D02*
X011780Y032180D01*
X011780Y032257D02*
X018111Y032257D01*
X018111Y032334D02*
X011780Y032334D01*
X011780Y032412D02*
X018111Y032412D01*
X018111Y032489D02*
X011780Y032489D01*
X011780Y032566D02*
X018111Y032566D01*
X018111Y032643D02*
X011780Y032643D01*
X011780Y032721D02*
X018111Y032721D01*
X018111Y032798D02*
X011780Y032798D01*
X011780Y032875D02*
X018111Y032875D01*
X018111Y032952D02*
X011780Y032952D01*
X011780Y033030D02*
X014213Y033030D01*
X014213Y033107D02*
X011780Y033107D01*
X011780Y033184D02*
X014213Y033184D01*
X014213Y033261D02*
X011727Y033261D01*
X011780Y033208D02*
X010402Y034586D01*
X010402Y034963D01*
X010422Y034983D01*
X010422Y035632D01*
X010352Y035701D01*
X010097Y035701D01*
X010097Y035701D01*
X010097Y035701D01*
X009841Y035701D01*
X009841Y035701D01*
X009841Y035701D01*
X009585Y035701D01*
X009585Y035701D01*
X009585Y035701D01*
X009329Y035701D01*
X009260Y035632D01*
X009260Y034983D01*
X009329Y034914D01*
X009545Y034914D01*
X009545Y034243D01*
X009536Y034239D01*
X009516Y034219D01*
X009516Y034349D01*
X009447Y034418D01*
X009034Y034418D01*
X008965Y034349D01*
X008965Y033936D01*
X008999Y033902D01*
X008957Y033860D01*
X008957Y033369D01*
X009026Y033300D01*
X009557Y033300D01*
X009626Y033369D01*
X009626Y033732D01*
X009638Y033727D01*
X009748Y033727D01*
X009850Y033770D01*
X009928Y033848D01*
X009939Y033875D01*
X009951Y033848D01*
X010029Y033770D01*
X010130Y033727D01*
X010240Y033727D01*
X010342Y033770D01*
X010420Y033848D01*
X010452Y033924D01*
X011347Y033029D01*
X011347Y032598D01*
X009566Y032598D01*
X009566Y032639D01*
X009626Y032699D01*
X009626Y033191D01*
X009557Y033260D01*
X009026Y033260D01*
X008957Y033191D01*
X008957Y032699D01*
X009026Y032630D01*
X009230Y032630D01*
X009230Y032598D01*
X007163Y032598D01*
X007065Y032499D01*
X007065Y030195D01*
X007163Y030096D01*
X008639Y030096D01*
X008639Y027832D01*
X008738Y027734D01*
X010058Y027734D01*
X010157Y027832D01*
X010157Y028496D01*
X010868Y028496D01*
X010937Y028566D01*
X010937Y028683D01*
X011091Y028683D01*
X011091Y028585D01*
X011160Y028516D01*
X011652Y028516D01*
X011721Y028585D01*
X011721Y029116D01*
X011652Y029185D01*
X011160Y029185D01*
X011091Y029116D01*
X011091Y029019D01*
X010937Y029019D01*
X010937Y029412D01*
X010868Y029481D01*
X010662Y029481D01*
X010662Y029548D01*
X011209Y030096D01*
X011535Y030096D01*
X011633Y030195D01*
X011633Y030520D01*
X011653Y030540D01*
X011780Y030667D01*
X011780Y033208D01*
X011649Y033339D02*
X014213Y033339D01*
X014213Y033416D02*
X011572Y033416D01*
X011495Y033493D02*
X014213Y033493D01*
X014213Y033570D02*
X011418Y033570D01*
X011341Y033648D02*
X014213Y033648D01*
X014213Y033725D02*
X011263Y033725D01*
X011186Y033802D02*
X014261Y033802D01*
X015612Y031948D02*
X011780Y031948D01*
X011780Y031871D02*
X015550Y031871D01*
X015519Y031794D02*
X011780Y031794D01*
X011780Y031717D02*
X015519Y031717D01*
X015538Y031639D02*
X011780Y031639D01*
X011780Y031562D02*
X015583Y031562D01*
X015670Y031485D02*
X011780Y031485D01*
X011780Y031408D02*
X014288Y031408D01*
X014272Y031330D02*
X011780Y031330D01*
X011780Y031253D02*
X014272Y031253D01*
X014272Y031176D02*
X011780Y031176D01*
X011780Y031099D02*
X014272Y031099D01*
X014272Y031021D02*
X011780Y031021D01*
X011780Y030944D02*
X014272Y030944D01*
X014272Y030867D02*
X011780Y030867D01*
X011780Y030790D02*
X014304Y030790D01*
X014793Y030712D02*
X011780Y030712D01*
X011749Y030635D02*
X014793Y030635D01*
X014793Y030558D02*
X011671Y030558D01*
X011633Y030481D02*
X014793Y030481D01*
X014793Y030403D02*
X011633Y030403D01*
X011633Y030326D02*
X014793Y030326D01*
X014793Y030249D02*
X011633Y030249D01*
X011610Y030172D02*
X014793Y030172D01*
X014793Y030095D02*
X011208Y030095D01*
X011131Y030017D02*
X014793Y030017D01*
X014793Y029940D02*
X011053Y029940D01*
X010976Y029863D02*
X014793Y029863D01*
X014793Y029786D02*
X010899Y029786D01*
X010822Y029708D02*
X014793Y029708D01*
X014793Y029631D02*
X010744Y029631D01*
X010667Y029554D02*
X014793Y029554D01*
X014793Y029477D02*
X010872Y029477D01*
X010937Y029399D02*
X014793Y029399D01*
X014793Y029322D02*
X010937Y029322D01*
X010937Y029245D02*
X014793Y029245D01*
X014793Y029168D02*
X011669Y029168D01*
X011721Y029090D02*
X014793Y029090D01*
X014787Y029013D02*
X011721Y029013D01*
X011721Y028936D02*
X014819Y028936D01*
X014878Y028859D02*
X011721Y028859D01*
X011721Y028781D02*
X014933Y028781D01*
X014928Y028704D02*
X011721Y028704D01*
X011721Y028627D02*
X014931Y028627D01*
X014963Y028550D02*
X011685Y028550D01*
X011127Y028550D02*
X010921Y028550D01*
X010937Y028627D02*
X011091Y028627D01*
X011091Y029090D02*
X010937Y029090D01*
X010937Y029168D02*
X011142Y029168D01*
X010933Y030432D02*
X009919Y030432D01*
X009820Y030334D01*
X009820Y028070D01*
X009004Y028070D01*
X009004Y030363D01*
X008947Y030363D01*
X008877Y030432D01*
X007401Y030432D01*
X007401Y032261D01*
X007448Y032261D01*
X007448Y032213D01*
X007744Y032213D01*
X007744Y032134D01*
X007448Y032134D01*
X007448Y031939D01*
X007457Y031903D01*
X007475Y031872D01*
X007501Y031846D01*
X007533Y031827D01*
X007569Y031818D01*
X007744Y031818D01*
X007744Y032134D01*
X007823Y032134D01*
X007823Y031818D01*
X007924Y031818D01*
X007924Y031469D01*
X009343Y031469D01*
X009343Y031943D01*
X008120Y031943D01*
X008120Y032134D01*
X007823Y032134D01*
X007823Y032213D01*
X008120Y032213D01*
X008120Y032261D01*
X011297Y032261D01*
X011297Y030796D01*
X010933Y030432D01*
X010982Y030481D02*
X007401Y030481D01*
X007401Y030558D02*
X011059Y030558D01*
X011136Y030635D02*
X007401Y030635D01*
X007401Y030712D02*
X011213Y030712D01*
X011291Y030790D02*
X007401Y030790D01*
X007401Y030867D02*
X011297Y030867D01*
X011297Y030944D02*
X010787Y030944D01*
X010813Y030970D01*
X010831Y031002D01*
X010841Y031037D01*
X010841Y031390D01*
X009422Y031390D01*
X009422Y031469D01*
X010841Y031469D01*
X010841Y031822D01*
X010831Y031857D01*
X010813Y031889D01*
X010787Y031915D01*
X010755Y031933D01*
X010720Y031943D01*
X009422Y031943D01*
X009422Y031469D01*
X009343Y031469D01*
X009343Y031390D01*
X009422Y031390D01*
X009422Y030916D01*
X010720Y030916D01*
X010755Y030926D01*
X010787Y030944D01*
X010836Y031021D02*
X011297Y031021D01*
X011297Y031099D02*
X010841Y031099D01*
X010841Y031176D02*
X011297Y031176D01*
X011297Y031253D02*
X010841Y031253D01*
X010841Y031330D02*
X011297Y031330D01*
X011297Y031408D02*
X009422Y031408D01*
X009398Y031445D02*
X010382Y031445D01*
X010841Y031485D02*
X011297Y031485D01*
X011297Y031562D02*
X010841Y031562D01*
X010841Y031639D02*
X011297Y031639D01*
X011297Y031717D02*
X010841Y031717D01*
X010841Y031794D02*
X011297Y031794D01*
X011297Y031871D02*
X010823Y031871D01*
X011297Y031948D02*
X008120Y031948D01*
X008120Y032026D02*
X011297Y032026D01*
X011297Y032103D02*
X008120Y032103D01*
X008120Y032257D02*
X011297Y032257D01*
X011297Y032180D02*
X007823Y032180D01*
X007823Y032103D02*
X007744Y032103D01*
X007744Y032180D02*
X007401Y032180D01*
X007401Y032103D02*
X007448Y032103D01*
X007448Y032026D02*
X007401Y032026D01*
X007401Y031948D02*
X007448Y031948D01*
X007476Y031871D02*
X007401Y031871D01*
X007401Y031794D02*
X007924Y031794D01*
X007924Y031717D02*
X007401Y031717D01*
X007401Y031639D02*
X007924Y031639D01*
X007924Y031562D02*
X007401Y031562D01*
X007401Y031485D02*
X007924Y031485D01*
X007924Y031390D02*
X007924Y031037D01*
X007934Y031002D01*
X007952Y030970D01*
X007978Y030944D01*
X008010Y030926D01*
X008045Y030916D01*
X009343Y030916D01*
X009343Y031390D01*
X007924Y031390D01*
X007924Y031330D02*
X007401Y031330D01*
X007401Y031253D02*
X007924Y031253D01*
X007924Y031176D02*
X007401Y031176D01*
X007401Y031099D02*
X007924Y031099D01*
X007928Y031021D02*
X007401Y031021D01*
X007401Y030944D02*
X007978Y030944D01*
X007401Y031408D02*
X009343Y031408D01*
X009343Y031485D02*
X009422Y031485D01*
X009422Y031562D02*
X009343Y031562D01*
X009343Y031639D02*
X009422Y031639D01*
X009422Y031717D02*
X009343Y031717D01*
X009343Y031794D02*
X009422Y031794D01*
X009422Y031871D02*
X009343Y031871D01*
X009343Y031330D02*
X009422Y031330D01*
X009422Y031253D02*
X009343Y031253D01*
X009343Y031176D02*
X009422Y031176D01*
X009422Y031099D02*
X009343Y031099D01*
X009343Y031021D02*
X009422Y031021D01*
X009422Y030944D02*
X009343Y030944D01*
X008906Y030403D02*
X009890Y030403D01*
X009820Y030326D02*
X009004Y030326D01*
X009004Y030249D02*
X009820Y030249D01*
X009820Y030172D02*
X009004Y030172D01*
X009004Y030095D02*
X009820Y030095D01*
X009820Y030017D02*
X009004Y030017D01*
X009004Y029940D02*
X009820Y029940D01*
X009820Y029863D02*
X009004Y029863D01*
X009004Y029786D02*
X009820Y029786D01*
X009820Y029708D02*
X009004Y029708D01*
X009004Y029631D02*
X009820Y029631D01*
X009820Y029554D02*
X009004Y029554D01*
X009004Y029477D02*
X009124Y029477D01*
X009120Y029474D02*
X009094Y029448D01*
X009075Y029416D01*
X009066Y029381D01*
X009066Y029028D01*
X009382Y029028D01*
X009382Y028949D01*
X009066Y028949D01*
X009066Y028596D01*
X009075Y028561D01*
X009094Y028529D01*
X009120Y028503D01*
X009151Y028485D01*
X009187Y028475D01*
X009382Y028475D01*
X009382Y028949D01*
X009461Y028949D01*
X009461Y028475D01*
X009657Y028475D01*
X009692Y028485D01*
X009724Y028503D01*
X009750Y028529D01*
X009768Y028561D01*
X009778Y028596D01*
X009778Y028949D01*
X009461Y028949D01*
X009461Y029028D01*
X009382Y029028D01*
X009382Y029502D01*
X009187Y029502D01*
X009151Y029492D01*
X009120Y029474D01*
X009071Y029399D02*
X009004Y029399D01*
X009004Y029322D02*
X009066Y029322D01*
X009066Y029245D02*
X009004Y029245D01*
X009004Y029168D02*
X009066Y029168D01*
X009066Y029090D02*
X009004Y029090D01*
X009004Y029013D02*
X009382Y029013D01*
X009382Y028936D02*
X009461Y028936D01*
X009461Y029013D02*
X009820Y029013D01*
X009778Y029028D02*
X009778Y029381D01*
X009768Y029416D01*
X009750Y029448D01*
X009724Y029474D01*
X009692Y029492D01*
X009657Y029502D01*
X009461Y029502D01*
X009461Y029028D01*
X009778Y029028D01*
X009778Y029090D02*
X009820Y029090D01*
X009820Y029168D02*
X009778Y029168D01*
X009778Y029245D02*
X009820Y029245D01*
X009820Y029322D02*
X009778Y029322D01*
X009773Y029399D02*
X009820Y029399D01*
X009820Y029477D02*
X009719Y029477D01*
X009461Y029477D02*
X009382Y029477D01*
X009382Y029399D02*
X009461Y029399D01*
X009461Y029322D02*
X009382Y029322D01*
X009382Y029245D02*
X009461Y029245D01*
X009461Y029168D02*
X009382Y029168D01*
X009382Y029090D02*
X009461Y029090D01*
X009461Y028859D02*
X009382Y028859D01*
X009382Y028781D02*
X009461Y028781D01*
X009461Y028704D02*
X009382Y028704D01*
X009382Y028627D02*
X009461Y028627D01*
X009461Y028550D02*
X009382Y028550D01*
X009082Y028550D02*
X009004Y028550D01*
X009004Y028627D02*
X009066Y028627D01*
X009066Y028704D02*
X009004Y028704D01*
X009004Y028781D02*
X009066Y028781D01*
X009066Y028859D02*
X009004Y028859D01*
X009004Y028936D02*
X009066Y028936D01*
X008639Y028936D02*
X005678Y028936D01*
X005678Y029013D02*
X008639Y029013D01*
X008639Y029090D02*
X005678Y029090D01*
X005678Y029168D02*
X008639Y029168D01*
X008639Y029245D02*
X005678Y029245D01*
X005678Y029322D02*
X008639Y029322D01*
X008639Y029399D02*
X005678Y029399D01*
X005678Y029477D02*
X008639Y029477D01*
X008639Y029554D02*
X005678Y029554D01*
X005678Y029631D02*
X008639Y029631D01*
X008639Y029708D02*
X005678Y029708D01*
X005678Y029786D02*
X008639Y029786D01*
X008639Y029863D02*
X005678Y029863D01*
X005678Y029940D02*
X008639Y029940D01*
X008639Y030017D02*
X005678Y030017D01*
X005678Y030095D02*
X008639Y030095D01*
X008639Y028859D02*
X005678Y028859D01*
X005678Y028781D02*
X008639Y028781D01*
X008639Y028704D02*
X005678Y028704D01*
X005678Y028627D02*
X008639Y028627D01*
X008639Y028550D02*
X005678Y028550D01*
X005678Y028472D02*
X008639Y028472D01*
X008639Y028395D02*
X005678Y028395D01*
X005678Y028318D02*
X008639Y028318D01*
X008639Y028241D02*
X005678Y028241D01*
X005678Y028164D02*
X008639Y028164D01*
X008639Y028086D02*
X005678Y028086D01*
X005678Y028009D02*
X008639Y028009D01*
X008639Y027932D02*
X005678Y027932D01*
X005678Y027855D02*
X008639Y027855D01*
X008694Y027777D02*
X005678Y027777D01*
X005678Y027700D02*
X018506Y027700D01*
X017294Y029090D02*
X021052Y029090D01*
X021031Y029013D02*
X021025Y029013D01*
X021099Y029168D02*
X017294Y029168D01*
X017294Y029245D02*
X021212Y029245D01*
X021403Y029245D02*
X022329Y029245D01*
X022332Y029242D02*
X022434Y029200D01*
X022544Y029200D01*
X022645Y029242D01*
X022723Y029320D01*
X022765Y029422D01*
X022765Y029532D01*
X022723Y029634D01*
X022645Y029711D01*
X022544Y029754D01*
X022434Y029754D01*
X022332Y029711D01*
X022254Y029634D01*
X022212Y029532D01*
X022212Y029422D01*
X022254Y029320D01*
X022332Y029242D01*
X022253Y029322D02*
X017294Y029322D01*
X017294Y029399D02*
X022221Y029399D01*
X022212Y029477D02*
X017294Y029477D01*
X017294Y029554D02*
X022221Y029554D01*
X022253Y029631D02*
X017294Y029631D01*
X017294Y029708D02*
X022329Y029708D01*
X022434Y030027D02*
X022332Y030069D01*
X022254Y030147D01*
X022212Y030248D01*
X022212Y030359D01*
X022254Y030460D01*
X022332Y030538D01*
X022434Y030580D01*
X022544Y030580D01*
X022645Y030538D01*
X022723Y030460D01*
X022765Y030359D01*
X022765Y030248D01*
X022723Y030147D01*
X022645Y030069D01*
X022544Y030027D01*
X022434Y030027D01*
X022306Y030095D02*
X017294Y030095D01*
X017294Y030172D02*
X022243Y030172D01*
X022212Y030249D02*
X017294Y030249D01*
X017294Y030326D02*
X022212Y030326D01*
X022230Y030403D02*
X017294Y030403D01*
X017294Y030481D02*
X022274Y030481D01*
X022379Y030558D02*
X017294Y030558D01*
X017294Y030635D02*
X023994Y030635D01*
X023994Y030558D02*
X022598Y030558D01*
X022703Y030481D02*
X023994Y030481D01*
X023994Y030403D02*
X022747Y030403D01*
X022765Y030326D02*
X023994Y030326D01*
X023994Y030249D02*
X022765Y030249D01*
X022734Y030172D02*
X023994Y030172D01*
X023994Y030095D02*
X022671Y030095D01*
X022649Y029708D02*
X023994Y029708D01*
X023994Y029631D02*
X022724Y029631D01*
X022756Y029554D02*
X023994Y029554D01*
X023994Y029477D02*
X022765Y029477D01*
X022756Y029399D02*
X023994Y029399D01*
X023994Y029322D02*
X022724Y029322D01*
X022648Y029245D02*
X023994Y029245D01*
X023994Y029168D02*
X021516Y029168D01*
X021563Y029090D02*
X023931Y029090D01*
X023994Y029153D02*
X023797Y028956D01*
X023797Y028817D01*
X023807Y028806D01*
X023807Y028461D01*
X023377Y028461D01*
X023307Y028392D01*
X023307Y027998D01*
X023156Y027810D01*
X023103Y027810D01*
X023103Y027943D01*
X023099Y027947D01*
X023138Y027963D01*
X023215Y028040D01*
X023258Y028142D01*
X023258Y028252D01*
X023215Y028354D01*
X023138Y028432D01*
X023036Y028474D01*
X022922Y028472D02*
X022663Y028472D01*
X022651Y028395D02*
X022787Y028395D01*
X022731Y028318D02*
X022705Y028318D01*
X022730Y028550D02*
X023807Y028550D01*
X023807Y028627D02*
X022762Y028627D01*
X022765Y028704D02*
X023807Y028704D01*
X023807Y028781D02*
X022750Y028781D01*
X022711Y028859D02*
X023797Y028859D01*
X023797Y028936D02*
X022617Y028936D01*
X022360Y028936D02*
X021939Y028936D01*
X021971Y028859D02*
X022266Y028859D01*
X022227Y028781D02*
X021978Y028781D01*
X021966Y028704D02*
X022212Y028704D01*
X022188Y028627D02*
X021932Y028627D01*
X021913Y028550D02*
X022167Y028550D01*
X022167Y028472D02*
X021913Y028472D01*
X021913Y028395D02*
X022020Y028395D01*
X021965Y028318D02*
X021918Y028318D01*
X021918Y028241D02*
X021965Y028241D01*
X021965Y028164D02*
X021918Y028164D01*
X021918Y028086D02*
X021965Y028086D01*
X021965Y028009D02*
X021918Y028009D01*
X021918Y027932D02*
X021965Y027932D01*
X022019Y027855D02*
X021864Y027855D01*
X022532Y027777D02*
X021154Y027777D01*
X021154Y027700D02*
X022532Y027700D01*
X022532Y027623D02*
X021154Y027623D01*
X021154Y027546D02*
X022532Y027546D01*
X022532Y027468D02*
X021154Y027468D01*
X021154Y027391D02*
X022532Y027391D01*
X022532Y027314D02*
X021154Y027314D01*
X021154Y027237D02*
X022532Y027237D01*
X022532Y027159D02*
X021154Y027159D01*
X021154Y027082D02*
X022532Y027082D01*
X022532Y027005D02*
X021154Y027005D01*
X021154Y026928D02*
X022532Y026928D01*
X022532Y026850D02*
X021154Y026850D01*
X021154Y026773D02*
X022532Y026773D01*
X022532Y026696D02*
X021099Y026696D01*
X021100Y026619D02*
X022532Y026619D01*
X022532Y026541D02*
X021154Y026541D01*
X021154Y026464D02*
X022532Y026464D01*
X022646Y025900D02*
X022646Y025727D01*
X022715Y025658D01*
X023246Y025658D01*
X023315Y025727D01*
X023315Y025765D01*
X023348Y025765D01*
X023414Y025699D01*
X023516Y025657D01*
X023626Y025657D01*
X023728Y025699D01*
X023806Y025777D01*
X023807Y025780D01*
X023807Y025226D01*
X023648Y025067D01*
X023345Y025067D01*
X023276Y024998D01*
X023276Y024507D01*
X023345Y024437D01*
X023876Y024437D01*
X023945Y024507D01*
X023945Y024889D01*
X024133Y025076D01*
X024133Y025216D01*
X024122Y025226D01*
X024122Y027044D01*
X024339Y027044D01*
X024339Y024208D01*
X024256Y024242D01*
X024146Y024242D01*
X024044Y024200D01*
X023978Y024133D01*
X023945Y024133D01*
X023945Y024211D01*
X023876Y024280D01*
X023345Y024280D01*
X023276Y024211D01*
X023276Y023719D01*
X023276Y024211D01*
X023207Y024280D01*
X022676Y024280D01*
X022607Y024211D01*
X022607Y024133D01*
X022558Y024133D01*
X022460Y024231D01*
X022460Y024642D01*
X022517Y024584D01*
X022607Y024584D01*
X022607Y024507D01*
X022676Y024437D01*
X023207Y024437D01*
X023276Y024507D01*
X023276Y024998D01*
X023207Y025067D01*
X022676Y025067D01*
X022657Y025048D01*
X022657Y025609D01*
X022558Y025708D01*
X022376Y025890D01*
X022636Y025890D01*
X022646Y025900D01*
X022646Y025846D02*
X022420Y025846D01*
X022497Y025769D02*
X022646Y025769D01*
X022681Y025692D02*
X022574Y025692D01*
X022651Y025615D02*
X023807Y025615D01*
X023807Y025692D02*
X023711Y025692D01*
X023798Y025769D02*
X023807Y025769D01*
X023807Y025537D02*
X022657Y025537D01*
X022657Y025460D02*
X023807Y025460D01*
X023807Y025383D02*
X022657Y025383D01*
X022657Y025306D02*
X023807Y025306D01*
X023807Y025228D02*
X022657Y025228D01*
X022657Y025151D02*
X023732Y025151D01*
X023655Y025074D02*
X022657Y025074D01*
X022491Y024610D02*
X022460Y024610D01*
X022460Y024533D02*
X022607Y024533D01*
X022657Y024456D02*
X022460Y024456D01*
X022460Y024379D02*
X024339Y024379D01*
X024339Y024456D02*
X023895Y024456D01*
X023945Y024533D02*
X024339Y024533D01*
X024339Y024610D02*
X023945Y024610D01*
X023945Y024688D02*
X024339Y024688D01*
X024339Y024765D02*
X023945Y024765D01*
X023945Y024842D02*
X024339Y024842D01*
X024339Y024919D02*
X023976Y024919D01*
X024053Y024997D02*
X024339Y024997D01*
X024339Y025074D02*
X024131Y025074D01*
X024133Y025151D02*
X024339Y025151D01*
X024339Y025228D02*
X024122Y025228D01*
X024122Y025306D02*
X024339Y025306D01*
X024339Y025383D02*
X024122Y025383D01*
X024122Y025460D02*
X024339Y025460D01*
X024339Y025537D02*
X024122Y025537D01*
X024122Y025615D02*
X024339Y025615D01*
X024339Y025692D02*
X024122Y025692D01*
X024122Y025769D02*
X024339Y025769D01*
X024339Y025846D02*
X024122Y025846D01*
X024122Y025924D02*
X024339Y025924D01*
X024339Y026001D02*
X024122Y026001D01*
X024122Y026078D02*
X024339Y026078D01*
X024339Y026155D02*
X024122Y026155D01*
X024122Y026232D02*
X024339Y026232D01*
X024339Y026310D02*
X024122Y026310D01*
X024122Y026387D02*
X024339Y026387D01*
X024339Y026464D02*
X024122Y026464D01*
X024122Y026541D02*
X024339Y026541D01*
X024339Y026619D02*
X024122Y026619D01*
X024122Y026696D02*
X024339Y026696D01*
X024339Y026773D02*
X024122Y026773D01*
X024122Y026850D02*
X024339Y026850D01*
X024339Y026928D02*
X024122Y026928D01*
X024122Y027005D02*
X024339Y027005D01*
X023807Y027005D02*
X023103Y027005D01*
X023103Y027082D02*
X023338Y027082D01*
X023307Y027113D02*
X023377Y027044D01*
X023807Y027044D01*
X023807Y026087D01*
X023806Y026090D01*
X023728Y026168D01*
X023626Y026210D01*
X023516Y026210D01*
X023414Y026168D01*
X023348Y026102D01*
X023315Y026102D01*
X023315Y026219D01*
X023246Y026288D01*
X022985Y026288D01*
X023034Y026288D01*
X023103Y026357D01*
X023103Y026404D01*
X023119Y026388D01*
X023221Y026346D01*
X023331Y026346D01*
X023433Y026388D01*
X023511Y026466D01*
X023553Y026567D01*
X023553Y026678D01*
X023511Y026779D01*
X023433Y026857D01*
X023331Y026899D01*
X023221Y026899D01*
X023119Y026857D01*
X023103Y026841D01*
X023103Y027277D01*
X023307Y027277D01*
X023307Y027113D01*
X023307Y027159D02*
X023103Y027159D01*
X023103Y027237D02*
X023307Y027237D01*
X023103Y026928D02*
X023807Y026928D01*
X023807Y026850D02*
X023440Y026850D01*
X023513Y026773D02*
X023807Y026773D01*
X023807Y026696D02*
X023545Y026696D01*
X023553Y026619D02*
X023807Y026619D01*
X023807Y026541D02*
X023542Y026541D01*
X023509Y026464D02*
X023807Y026464D01*
X023807Y026387D02*
X023431Y026387D01*
X023301Y026232D02*
X023807Y026232D01*
X023807Y026155D02*
X023741Y026155D01*
X023807Y026310D02*
X023056Y026310D01*
X022985Y026288D02*
X022985Y026288D01*
X023103Y026387D02*
X023121Y026387D01*
X023315Y026155D02*
X023402Y026155D01*
X023431Y025692D02*
X023280Y025692D01*
X023276Y024997D02*
X023276Y024997D01*
X023276Y024919D02*
X023276Y024919D01*
X023276Y024842D02*
X023276Y024842D01*
X023276Y024765D02*
X023276Y024765D01*
X023276Y024688D02*
X023276Y024688D01*
X023276Y024610D02*
X023276Y024610D01*
X023276Y024533D02*
X023276Y024533D01*
X023225Y024456D02*
X023327Y024456D01*
X023289Y024224D02*
X023262Y024224D01*
X023276Y024147D02*
X023276Y024147D01*
X023276Y024070D02*
X023276Y024070D01*
X023276Y023993D02*
X023276Y023993D01*
X023276Y023915D02*
X023276Y023915D01*
X023276Y023838D02*
X023276Y023838D01*
X023276Y023761D02*
X023276Y023761D01*
X023240Y023684D02*
X023312Y023684D01*
X023106Y023375D02*
X024339Y023375D01*
X024339Y023452D02*
X021672Y023452D01*
X021672Y023529D02*
X024339Y023529D01*
X024339Y023606D02*
X021672Y023606D01*
X021672Y023684D02*
X022642Y023684D01*
X022607Y023761D02*
X021672Y023761D01*
X021672Y023838D02*
X022378Y023838D01*
X022300Y023915D02*
X021672Y023915D01*
X021672Y023993D02*
X022223Y023993D01*
X022146Y024070D02*
X021672Y024070D01*
X021672Y024147D02*
X022124Y024147D01*
X022124Y024224D02*
X021672Y024224D01*
X021672Y024301D02*
X022124Y024301D01*
X022124Y024379D02*
X021672Y024379D01*
X021672Y024456D02*
X022124Y024456D01*
X022124Y024533D02*
X021672Y024533D01*
X021672Y024610D02*
X022124Y024610D01*
X022124Y024688D02*
X021672Y024688D01*
X021712Y024765D02*
X022124Y024765D01*
X022124Y024842D02*
X022084Y024842D01*
X022460Y024301D02*
X024339Y024301D01*
X024339Y024224D02*
X024299Y024224D01*
X024104Y024224D02*
X023932Y024224D01*
X023945Y024147D02*
X023992Y024147D01*
X024014Y023761D02*
X023945Y023761D01*
X023910Y023684D02*
X024339Y023684D01*
X024339Y023297D02*
X023148Y023297D01*
X023148Y023220D02*
X024339Y023220D01*
X024339Y023143D02*
X023148Y023143D01*
X023148Y023066D02*
X024339Y023066D01*
X024339Y022988D02*
X023098Y022988D01*
X023079Y022902D02*
X022390Y022902D01*
X022342Y022854D01*
X022023Y022854D01*
X021956Y022920D01*
X021855Y022962D01*
X021745Y022962D01*
X021643Y022920D01*
X021565Y022842D01*
X021523Y022740D01*
X021523Y022630D01*
X021565Y022529D01*
X021643Y022451D01*
X021745Y022409D01*
X021855Y022409D01*
X021956Y022451D01*
X022023Y022517D01*
X022342Y022517D01*
X022390Y022469D01*
X023079Y022469D01*
X023148Y022538D01*
X023148Y022833D01*
X023079Y022902D01*
X023147Y022834D02*
X024339Y022834D01*
X024339Y022911D02*
X021965Y022911D01*
X021634Y022911D02*
X021476Y022911D01*
X021476Y022834D02*
X021561Y022834D01*
X021529Y022757D02*
X021476Y022757D01*
X021476Y022679D02*
X021523Y022679D01*
X021534Y022602D02*
X021476Y022602D01*
X021509Y022525D02*
X021569Y022525D01*
X021586Y022448D02*
X021650Y022448D01*
X021663Y022370D02*
X022359Y022370D01*
X022350Y022361D02*
X022124Y022361D01*
X022025Y022263D01*
X021828Y022066D01*
X021828Y020196D01*
X019554Y017922D01*
X019310Y017922D01*
X019241Y017852D01*
X019241Y016928D01*
X019310Y016859D01*
X019466Y016859D01*
X019466Y014339D01*
X019310Y014339D01*
X019241Y014270D01*
X019241Y013345D01*
X019310Y013276D01*
X019959Y013276D01*
X020028Y013345D01*
X020028Y014270D01*
X019959Y014339D01*
X019802Y014339D01*
X019802Y016859D01*
X019959Y016859D01*
X020028Y016928D01*
X020028Y017852D01*
X019994Y017886D01*
X022165Y020057D01*
X022165Y021927D01*
X022263Y022025D01*
X022334Y022025D01*
X022390Y021969D01*
X023079Y021969D01*
X023148Y022038D01*
X023148Y022333D01*
X023079Y022402D01*
X022390Y022402D01*
X022350Y022361D01*
X022055Y022293D02*
X021672Y022293D01*
X021672Y022216D02*
X021978Y022216D01*
X021901Y022139D02*
X021672Y022139D01*
X021672Y022062D02*
X021828Y022062D01*
X021828Y021984D02*
X021672Y021984D01*
X021672Y021907D02*
X021828Y021907D01*
X021828Y021830D02*
X021672Y021830D01*
X021672Y021753D02*
X021828Y021753D01*
X021828Y021675D02*
X021672Y021675D01*
X021639Y021598D02*
X021828Y021598D01*
X021828Y021521D02*
X021562Y021521D01*
X021574Y021533D02*
X021574Y021533D01*
X021484Y021444D02*
X021828Y021444D01*
X021828Y021366D02*
X021407Y021366D01*
X021330Y021289D02*
X021828Y021289D01*
X021828Y021212D02*
X021253Y021212D01*
X021176Y021135D02*
X021828Y021135D01*
X021828Y021057D02*
X021098Y021057D01*
X020826Y020980D02*
X021828Y020980D01*
X021828Y020903D02*
X019813Y020903D01*
X019808Y020980D02*
X020115Y020980D01*
X020127Y020902D02*
X020078Y020854D01*
X020025Y020854D01*
X019860Y020688D01*
X019761Y020590D01*
X019761Y019310D01*
X018876Y018424D01*
X018876Y017932D01*
X018285Y017342D01*
X018285Y017036D01*
X018188Y017036D01*
X018118Y016967D01*
X018118Y016475D01*
X018188Y016406D01*
X018719Y016406D01*
X018788Y016475D01*
X018788Y016967D01*
X018719Y017036D01*
X018621Y017036D01*
X018621Y017202D01*
X019113Y017694D01*
X019212Y017793D01*
X019212Y018285D01*
X019999Y019072D01*
X020098Y019171D01*
X020098Y020450D01*
X020121Y020474D01*
X020127Y020469D01*
X020815Y020469D01*
X020884Y020538D01*
X020884Y020833D01*
X020815Y020902D01*
X020127Y020902D01*
X019997Y020826D02*
X019799Y020826D01*
X019762Y020748D02*
X019920Y020748D01*
X019860Y020688D02*
X019860Y020688D01*
X019843Y020671D02*
X019704Y020671D01*
X019704Y020594D02*
X019766Y020594D01*
X019761Y020517D02*
X019704Y020517D01*
X019704Y020439D02*
X019761Y020439D01*
X019761Y020362D02*
X019704Y020362D01*
X019704Y020285D02*
X019761Y020285D01*
X019761Y020208D02*
X019704Y020208D01*
X019704Y020131D02*
X019761Y020131D01*
X019761Y020053D02*
X019704Y020053D01*
X019704Y019976D02*
X019761Y019976D01*
X019761Y019899D02*
X019704Y019899D01*
X019704Y019822D02*
X019761Y019822D01*
X019761Y019744D02*
X019704Y019744D01*
X019704Y019667D02*
X019761Y019667D01*
X019761Y019590D02*
X019704Y019590D01*
X019704Y019513D02*
X019761Y019513D01*
X019761Y019435D02*
X019704Y019435D01*
X019694Y019358D02*
X019761Y019358D01*
X019732Y019281D02*
X019617Y019281D01*
X019655Y019204D02*
X019540Y019204D01*
X019578Y019126D02*
X019463Y019126D01*
X019500Y019049D02*
X019385Y019049D01*
X019423Y018972D02*
X019308Y018972D01*
X019346Y018895D02*
X018620Y018895D01*
X018543Y018817D02*
X019269Y018817D01*
X019191Y018740D02*
X018466Y018740D01*
X018389Y018663D02*
X019114Y018663D01*
X019037Y018586D02*
X018377Y018586D01*
X018356Y018607D02*
X017952Y018607D01*
X017666Y018321D01*
X017666Y017916D01*
X017952Y017630D01*
X018356Y017630D01*
X018642Y017916D01*
X018642Y018321D01*
X018356Y018607D01*
X018454Y018508D02*
X018960Y018508D01*
X018882Y018431D02*
X018531Y018431D01*
X018609Y018354D02*
X018876Y018354D01*
X018876Y018277D02*
X018642Y018277D01*
X018642Y018199D02*
X018876Y018199D01*
X018876Y018122D02*
X018642Y018122D01*
X018642Y018045D02*
X018876Y018045D01*
X018876Y017968D02*
X018642Y017968D01*
X018616Y017891D02*
X018834Y017891D01*
X018757Y017813D02*
X018539Y017813D01*
X018462Y017736D02*
X018679Y017736D01*
X018602Y017659D02*
X018385Y017659D01*
X018525Y017582D02*
X016382Y017582D01*
X016386Y017504D02*
X018448Y017504D01*
X018370Y017427D02*
X016386Y017427D01*
X016386Y017350D02*
X018293Y017350D01*
X018285Y017273D02*
X016386Y017273D01*
X016386Y017195D02*
X018285Y017195D01*
X018285Y017118D02*
X016727Y017118D01*
X016780Y017041D02*
X018285Y017041D01*
X018118Y016964D02*
X016780Y016964D01*
X016780Y016886D02*
X018118Y016886D01*
X018118Y016809D02*
X016780Y016809D01*
X016780Y016732D02*
X018118Y016732D01*
X018118Y016655D02*
X016780Y016655D01*
X016780Y016577D02*
X018118Y016577D01*
X018118Y016500D02*
X016746Y016500D01*
X016184Y016500D02*
X015959Y016500D01*
X015993Y016577D02*
X016150Y016577D01*
X015756Y017195D02*
X015520Y017195D01*
X015520Y017273D02*
X015756Y017273D01*
X015756Y017350D02*
X015520Y017350D01*
X015520Y017427D02*
X015756Y017427D01*
X015756Y017504D02*
X015520Y017504D01*
X015476Y017582D02*
X015761Y017582D01*
X015813Y017659D02*
X015503Y017659D01*
X015451Y017607D02*
X015010Y017607D01*
X015010Y017607D01*
X015451Y017607D01*
X015520Y017736D02*
X015756Y017736D01*
X015756Y017813D02*
X015520Y017813D01*
X015520Y017891D02*
X015756Y017891D01*
X015756Y017968D02*
X015520Y017968D01*
X015520Y018045D02*
X015756Y018045D01*
X015756Y018122D02*
X015520Y018122D01*
X015520Y018199D02*
X015756Y018199D01*
X015787Y018277D02*
X015629Y018277D01*
X015678Y018354D02*
X016699Y018354D01*
X016666Y018321D02*
X016666Y017916D01*
X016952Y017630D01*
X017356Y017630D01*
X017642Y017916D01*
X017642Y018321D01*
X017356Y018607D01*
X016952Y018607D01*
X016666Y018321D01*
X016666Y018277D02*
X016356Y018277D01*
X016386Y018199D02*
X016666Y018199D01*
X016666Y018122D02*
X016386Y018122D01*
X016386Y018045D02*
X016666Y018045D01*
X016666Y017968D02*
X016386Y017968D01*
X016386Y017891D02*
X016692Y017891D01*
X016769Y017813D02*
X016386Y017813D01*
X016386Y017736D02*
X016846Y017736D01*
X016923Y017659D02*
X016330Y017659D01*
X016776Y018431D02*
X015678Y018431D01*
X015678Y018508D02*
X016854Y018508D01*
X016931Y018586D02*
X015678Y018586D01*
X015678Y018663D02*
X016919Y018663D01*
X016952Y018630D02*
X017356Y018630D01*
X017642Y018916D01*
X017642Y019321D01*
X017356Y019607D01*
X016952Y019607D01*
X016666Y019321D01*
X016666Y018916D01*
X016952Y018630D01*
X016842Y018740D02*
X015678Y018740D01*
X015677Y018817D02*
X016765Y018817D01*
X016687Y018895D02*
X013432Y018895D01*
X013473Y018972D02*
X016666Y018972D01*
X016666Y019049D02*
X013473Y019049D01*
X013473Y019126D02*
X016666Y019126D01*
X016666Y019204D02*
X013473Y019204D01*
X013473Y019281D02*
X016666Y019281D01*
X016703Y019358D02*
X013473Y019358D01*
X013473Y019435D02*
X016780Y019435D01*
X016858Y019513D02*
X013427Y019513D01*
X013458Y019590D02*
X013626Y019590D01*
X013591Y019667D02*
X013473Y019667D01*
X013473Y019744D02*
X013578Y019744D01*
X013526Y019822D02*
X013473Y019822D01*
X013656Y020208D02*
X014012Y020208D01*
X013945Y020285D02*
X013602Y020285D01*
X014246Y020131D02*
X017666Y020131D01*
X017666Y020053D02*
X014260Y020053D01*
X014260Y019976D02*
X017666Y019976D01*
X017683Y019899D02*
X014260Y019899D01*
X014260Y019822D02*
X017761Y019822D01*
X017838Y019744D02*
X014260Y019744D01*
X014260Y019667D02*
X017915Y019667D01*
X017935Y019590D02*
X017373Y019590D01*
X017450Y019513D02*
X017858Y019513D01*
X017780Y019435D02*
X017527Y019435D01*
X017605Y019358D02*
X017703Y019358D01*
X017666Y019281D02*
X017642Y019281D01*
X017642Y019204D02*
X017666Y019204D01*
X017666Y019126D02*
X017642Y019126D01*
X017642Y019049D02*
X017666Y019049D01*
X017666Y018972D02*
X017642Y018972D01*
X017620Y018895D02*
X017687Y018895D01*
X017765Y018817D02*
X017543Y018817D01*
X017466Y018740D02*
X017842Y018740D01*
X017919Y018663D02*
X017389Y018663D01*
X017377Y018586D02*
X017931Y018586D01*
X017854Y018508D02*
X017454Y018508D01*
X017531Y018431D02*
X017776Y018431D01*
X017699Y018354D02*
X017609Y018354D01*
X017642Y018277D02*
X017666Y018277D01*
X017666Y018199D02*
X017642Y018199D01*
X017642Y018122D02*
X017666Y018122D01*
X017666Y018045D02*
X017642Y018045D01*
X017642Y017968D02*
X017666Y017968D01*
X017692Y017891D02*
X017616Y017891D01*
X017539Y017813D02*
X017769Y017813D01*
X017846Y017736D02*
X017462Y017736D01*
X017385Y017659D02*
X017923Y017659D01*
X018621Y017195D02*
X019241Y017195D01*
X019241Y017118D02*
X018621Y017118D01*
X018621Y017041D02*
X019241Y017041D01*
X019241Y016964D02*
X018788Y016964D01*
X018788Y016886D02*
X019282Y016886D01*
X019466Y016809D02*
X018788Y016809D01*
X018788Y016732D02*
X019466Y016732D01*
X019466Y016655D02*
X018788Y016655D01*
X018788Y016577D02*
X019466Y016577D01*
X019466Y016500D02*
X018788Y016500D01*
X018736Y016423D02*
X019466Y016423D01*
X019466Y016346D02*
X018739Y016346D01*
X018719Y016367D02*
X018188Y016367D01*
X018118Y016297D01*
X018118Y015806D01*
X018188Y015737D01*
X018285Y015737D01*
X018285Y015678D01*
X018247Y015678D01*
X018178Y015608D01*
X018178Y015196D01*
X018247Y015126D01*
X018660Y015126D01*
X018729Y015196D01*
X018729Y015608D01*
X018660Y015678D01*
X018621Y015678D01*
X018621Y015737D01*
X018719Y015737D01*
X018788Y015806D01*
X018788Y016297D01*
X018719Y016367D01*
X018788Y016268D02*
X019466Y016268D01*
X019466Y016191D02*
X018788Y016191D01*
X018788Y016114D02*
X019466Y016114D01*
X019466Y016037D02*
X018788Y016037D01*
X018788Y015960D02*
X019466Y015960D01*
X019466Y015882D02*
X018788Y015882D01*
X018787Y015805D02*
X019466Y015805D01*
X019466Y015728D02*
X018621Y015728D01*
X018687Y015651D02*
X019466Y015651D01*
X019466Y015573D02*
X018729Y015573D01*
X018729Y015496D02*
X019466Y015496D01*
X019466Y015419D02*
X018729Y015419D01*
X018729Y015342D02*
X019466Y015342D01*
X019466Y015264D02*
X018729Y015264D01*
X018720Y015187D02*
X019466Y015187D01*
X019466Y015110D02*
X012764Y015110D01*
X012764Y015187D02*
X018186Y015187D01*
X018178Y015264D02*
X012764Y015264D01*
X012764Y015342D02*
X018178Y015342D01*
X018178Y015419D02*
X012764Y015419D01*
X012764Y015496D02*
X018178Y015496D01*
X018178Y015573D02*
X012764Y015573D01*
X012764Y015651D02*
X018220Y015651D01*
X018285Y015728D02*
X012764Y015728D01*
X012764Y015805D02*
X018119Y015805D01*
X018118Y015882D02*
X012764Y015882D01*
X012764Y015960D02*
X018118Y015960D01*
X018118Y016037D02*
X012764Y016037D01*
X012140Y016114D02*
X018118Y016114D01*
X018118Y016191D02*
X012140Y016191D01*
X012140Y016268D02*
X018118Y016268D01*
X018167Y016346D02*
X012140Y016346D01*
X012140Y016423D02*
X018171Y016423D01*
X018691Y017273D02*
X019241Y017273D01*
X019241Y017350D02*
X018769Y017350D01*
X018846Y017427D02*
X019241Y017427D01*
X019241Y017504D02*
X018923Y017504D01*
X019000Y017582D02*
X019241Y017582D01*
X019241Y017659D02*
X019078Y017659D01*
X019155Y017736D02*
X019241Y017736D01*
X019241Y017813D02*
X019212Y017813D01*
X019212Y017891D02*
X019279Y017891D01*
X019212Y017968D02*
X019600Y017968D01*
X019677Y018045D02*
X019212Y018045D01*
X019212Y018122D02*
X019755Y018122D01*
X019832Y018199D02*
X019212Y018199D01*
X019212Y018277D02*
X019909Y018277D01*
X019986Y018354D02*
X019281Y018354D01*
X019358Y018431D02*
X020064Y018431D01*
X020141Y018508D02*
X019435Y018508D01*
X019512Y018586D02*
X020218Y018586D01*
X020295Y018663D02*
X019590Y018663D01*
X019667Y018740D02*
X020373Y018740D01*
X020450Y018817D02*
X019744Y018817D01*
X019821Y018895D02*
X020527Y018895D01*
X020604Y018972D02*
X019899Y018972D01*
X019976Y019049D02*
X020681Y019049D01*
X020759Y019126D02*
X020053Y019126D01*
X020098Y019204D02*
X020836Y019204D01*
X020913Y019281D02*
X020098Y019281D01*
X020098Y019358D02*
X020990Y019358D01*
X021068Y019435D02*
X020098Y019435D01*
X020098Y019513D02*
X021145Y019513D01*
X021222Y019590D02*
X020098Y019590D01*
X020098Y019667D02*
X021299Y019667D01*
X021377Y019744D02*
X020098Y019744D01*
X020098Y019822D02*
X021454Y019822D01*
X021531Y019899D02*
X020098Y019899D01*
X020098Y019976D02*
X021608Y019976D01*
X021686Y020053D02*
X020098Y020053D01*
X020098Y020131D02*
X021763Y020131D01*
X021828Y020208D02*
X020098Y020208D01*
X020098Y020285D02*
X021828Y020285D01*
X021828Y020362D02*
X020098Y020362D01*
X020098Y020439D02*
X021828Y020439D01*
X021828Y020517D02*
X020863Y020517D01*
X020884Y020594D02*
X021828Y020594D01*
X021828Y020671D02*
X020884Y020671D01*
X020884Y020748D02*
X021828Y020748D01*
X021828Y020826D02*
X020884Y020826D01*
X020851Y021366D02*
X020932Y021366D01*
X020884Y022062D02*
X021336Y022062D01*
X021336Y022139D02*
X020884Y022139D01*
X020884Y022216D02*
X021336Y022216D01*
X021265Y022293D02*
X020884Y022293D01*
X020847Y022370D02*
X021188Y022370D01*
X021139Y022448D02*
X019831Y022448D01*
X019813Y022370D02*
X020095Y022370D01*
X020057Y022293D02*
X019795Y022293D01*
X020380Y022095D02*
X020471Y022185D01*
X020893Y022525D02*
X021139Y022525D01*
X021139Y022602D02*
X020970Y022602D01*
X021047Y022679D02*
X021139Y022679D01*
X021139Y022757D02*
X021124Y022757D01*
X021476Y022988D02*
X022371Y022988D01*
X022363Y023375D02*
X021672Y023375D01*
X021476Y023066D02*
X021477Y023066D01*
X021949Y022448D02*
X024339Y022448D01*
X024339Y022525D02*
X023135Y022525D01*
X023148Y022602D02*
X024339Y022602D01*
X024339Y022679D02*
X023148Y022679D01*
X023148Y022757D02*
X024339Y022757D01*
X024339Y022370D02*
X023110Y022370D01*
X023148Y022293D02*
X024339Y022293D01*
X024339Y022216D02*
X023148Y022216D01*
X023148Y022139D02*
X024339Y022139D01*
X024339Y022062D02*
X023148Y022062D01*
X023094Y021984D02*
X024339Y021984D01*
X024339Y021907D02*
X023855Y021907D01*
X023826Y021936D02*
X023904Y021858D01*
X023947Y021756D01*
X023947Y021646D01*
X023904Y021544D01*
X023826Y021466D01*
X023725Y021424D01*
X023615Y021424D01*
X023513Y021466D01*
X023446Y021533D01*
X023143Y021533D01*
X023079Y021469D01*
X022390Y021469D01*
X022321Y021538D01*
X022321Y021833D01*
X022390Y021902D01*
X023079Y021902D01*
X023112Y021869D01*
X023446Y021869D01*
X023513Y021936D01*
X023615Y021978D01*
X023725Y021978D01*
X023826Y021936D01*
X023916Y021830D02*
X024339Y021830D01*
X024339Y021753D02*
X023947Y021753D01*
X023947Y021675D02*
X024339Y021675D01*
X024339Y021598D02*
X023927Y021598D01*
X023881Y021521D02*
X024339Y021521D01*
X024339Y021444D02*
X023771Y021444D01*
X023568Y021444D02*
X022165Y021444D01*
X022165Y021521D02*
X022338Y021521D01*
X022321Y021598D02*
X022165Y021598D01*
X022165Y021675D02*
X022321Y021675D01*
X022321Y021753D02*
X022165Y021753D01*
X022165Y021830D02*
X022321Y021830D01*
X022375Y021984D02*
X022222Y021984D01*
X022165Y021907D02*
X023484Y021907D01*
X023458Y021521D02*
X023131Y021521D01*
X023079Y021402D02*
X022390Y021402D01*
X022321Y021333D01*
X022321Y021038D01*
X022390Y020969D01*
X023079Y020969D01*
X023127Y021017D01*
X023427Y021017D01*
X023797Y020647D01*
X023797Y015865D01*
X023756Y015825D01*
X023756Y015923D01*
X023687Y015993D01*
X023038Y015993D01*
X022969Y015923D01*
X022969Y014959D01*
X023038Y014890D01*
X023147Y014890D01*
X023147Y014733D01*
X023050Y014733D01*
X022981Y014663D01*
X022981Y014172D01*
X023050Y014103D01*
X023581Y014103D01*
X023650Y014172D01*
X023650Y014663D01*
X023581Y014733D01*
X023483Y014733D01*
X023483Y014890D01*
X023687Y014890D01*
X023756Y014959D01*
X023756Y015349D01*
X024133Y015726D01*
X024133Y020787D01*
X024035Y020885D01*
X023566Y021354D01*
X023127Y021354D01*
X023079Y021402D01*
X023114Y021366D02*
X024339Y021366D01*
X024339Y021289D02*
X023631Y021289D01*
X023708Y021212D02*
X024339Y021212D01*
X024339Y021135D02*
X023785Y021135D01*
X023862Y021057D02*
X024339Y021057D01*
X024339Y020980D02*
X023939Y020980D01*
X024017Y020903D02*
X024339Y020903D01*
X024339Y020826D02*
X024094Y020826D01*
X024133Y020748D02*
X024339Y020748D01*
X024339Y020671D02*
X024133Y020671D01*
X024133Y020594D02*
X024339Y020594D01*
X024339Y020517D02*
X024133Y020517D01*
X024133Y020439D02*
X024339Y020439D01*
X024339Y020362D02*
X024133Y020362D01*
X024133Y020285D02*
X024339Y020285D01*
X024339Y020208D02*
X024133Y020208D01*
X024133Y020131D02*
X024339Y020131D01*
X024339Y020053D02*
X024133Y020053D01*
X024133Y019976D02*
X024339Y019976D01*
X024339Y019899D02*
X024133Y019899D01*
X024133Y019822D02*
X024339Y019822D01*
X024339Y019744D02*
X024133Y019744D01*
X024133Y019667D02*
X024339Y019667D01*
X024339Y019590D02*
X024133Y019590D01*
X024133Y019513D02*
X024339Y019513D01*
X024339Y019435D02*
X024133Y019435D01*
X024133Y019358D02*
X024339Y019358D01*
X024339Y019281D02*
X024133Y019281D01*
X024133Y019204D02*
X024339Y019204D01*
X024339Y019126D02*
X024133Y019126D01*
X024133Y019049D02*
X024339Y019049D01*
X024339Y018972D02*
X024133Y018972D01*
X024133Y018895D02*
X024339Y018895D01*
X024339Y018817D02*
X024133Y018817D01*
X024133Y018740D02*
X024339Y018740D01*
X024339Y018663D02*
X024133Y018663D01*
X024133Y018586D02*
X024339Y018586D01*
X024339Y018508D02*
X024133Y018508D01*
X024133Y018431D02*
X024339Y018431D01*
X024339Y018354D02*
X024133Y018354D01*
X024133Y018277D02*
X024339Y018277D01*
X024339Y018199D02*
X024133Y018199D01*
X024133Y018122D02*
X024339Y018122D01*
X024339Y018045D02*
X024133Y018045D01*
X024133Y017968D02*
X024339Y017968D01*
X024339Y017891D02*
X024133Y017891D01*
X024133Y017813D02*
X024339Y017813D01*
X024339Y017736D02*
X024133Y017736D01*
X024133Y017659D02*
X024339Y017659D01*
X024339Y017582D02*
X024133Y017582D01*
X024133Y017504D02*
X024339Y017504D01*
X024339Y017427D02*
X024133Y017427D01*
X024133Y017350D02*
X024339Y017350D01*
X024339Y017273D02*
X024133Y017273D01*
X024133Y017195D02*
X024339Y017195D01*
X024339Y017118D02*
X024133Y017118D01*
X024133Y017041D02*
X024339Y017041D01*
X024339Y016964D02*
X024133Y016964D01*
X024133Y016886D02*
X024339Y016886D01*
X024339Y016809D02*
X024133Y016809D01*
X024133Y016732D02*
X024339Y016732D01*
X024339Y016655D02*
X024133Y016655D01*
X024133Y016577D02*
X024339Y016577D01*
X024339Y016500D02*
X024133Y016500D01*
X024133Y016423D02*
X024339Y016423D01*
X024339Y016346D02*
X024133Y016346D01*
X024133Y016268D02*
X024339Y016268D01*
X024339Y016191D02*
X024133Y016191D01*
X024133Y016114D02*
X024339Y016114D01*
X024339Y016037D02*
X024133Y016037D01*
X024133Y015960D02*
X024339Y015960D01*
X024339Y015882D02*
X024133Y015882D01*
X024133Y015805D02*
X024339Y015805D01*
X024339Y015728D02*
X024133Y015728D01*
X024058Y015651D02*
X024339Y015651D01*
X024339Y015573D02*
X023980Y015573D01*
X023903Y015496D02*
X024339Y015496D01*
X024339Y015419D02*
X023826Y015419D01*
X023756Y015342D02*
X024339Y015342D01*
X024339Y015264D02*
X023756Y015264D01*
X023756Y015187D02*
X024339Y015187D01*
X024339Y015110D02*
X023756Y015110D01*
X023756Y015033D02*
X024339Y015033D01*
X024339Y014955D02*
X023752Y014955D01*
X023483Y014878D02*
X024339Y014878D01*
X024339Y014801D02*
X023483Y014801D01*
X023590Y014724D02*
X024339Y014724D01*
X024339Y014646D02*
X023650Y014646D01*
X023650Y014569D02*
X024339Y014569D01*
X024339Y014492D02*
X023650Y014492D01*
X023650Y014415D02*
X024339Y014415D01*
X024339Y014337D02*
X023650Y014337D01*
X023650Y014260D02*
X024339Y014260D01*
X024339Y014183D02*
X023650Y014183D01*
X023584Y014106D02*
X024339Y014106D01*
X024339Y014029D02*
X020028Y014029D01*
X020028Y014106D02*
X023047Y014106D01*
X022981Y014183D02*
X020028Y014183D01*
X020028Y014260D02*
X022981Y014260D01*
X022981Y014337D02*
X019960Y014337D01*
X019802Y014415D02*
X022981Y014415D01*
X022981Y014492D02*
X019802Y014492D01*
X019802Y014569D02*
X022981Y014569D01*
X022981Y014646D02*
X019802Y014646D01*
X019802Y014724D02*
X023041Y014724D01*
X023147Y014801D02*
X019802Y014801D01*
X019802Y014878D02*
X023147Y014878D01*
X022973Y014955D02*
X019802Y014955D01*
X019802Y015033D02*
X022969Y015033D01*
X022969Y015110D02*
X019802Y015110D01*
X019802Y015187D02*
X022969Y015187D01*
X022969Y015264D02*
X019802Y015264D01*
X019802Y015342D02*
X022969Y015342D01*
X022969Y015419D02*
X019802Y015419D01*
X019802Y015496D02*
X022969Y015496D01*
X022969Y015573D02*
X019802Y015573D01*
X019802Y015651D02*
X022969Y015651D01*
X022969Y015728D02*
X019802Y015728D01*
X019802Y015805D02*
X022969Y015805D01*
X022969Y015882D02*
X019802Y015882D01*
X019802Y015960D02*
X023005Y015960D01*
X023720Y015960D02*
X023797Y015960D01*
X023797Y016037D02*
X019802Y016037D01*
X019802Y016114D02*
X023797Y016114D01*
X023797Y016191D02*
X019802Y016191D01*
X019802Y016268D02*
X023797Y016268D01*
X023797Y016346D02*
X019802Y016346D01*
X019802Y016423D02*
X023797Y016423D01*
X023797Y016500D02*
X019802Y016500D01*
X019802Y016577D02*
X023797Y016577D01*
X023797Y016655D02*
X019802Y016655D01*
X019802Y016732D02*
X023797Y016732D01*
X023797Y016809D02*
X019802Y016809D01*
X019987Y016886D02*
X023797Y016886D01*
X023797Y016964D02*
X020028Y016964D01*
X020028Y017041D02*
X023797Y017041D01*
X023797Y017118D02*
X020028Y017118D01*
X020028Y017195D02*
X023797Y017195D01*
X023797Y017273D02*
X020028Y017273D01*
X020028Y017350D02*
X023797Y017350D01*
X023797Y017427D02*
X022744Y017427D01*
X022756Y017440D02*
X022756Y017794D01*
X022952Y017990D01*
X023050Y018088D01*
X023050Y018384D01*
X023641Y018974D01*
X023641Y020590D01*
X023542Y020688D01*
X023377Y020854D01*
X023127Y020854D01*
X023079Y020902D01*
X022390Y020902D01*
X022321Y020833D01*
X022321Y020538D01*
X022390Y020469D01*
X023079Y020469D01*
X023127Y020517D01*
X023238Y020517D01*
X023305Y020450D01*
X023305Y019113D01*
X023000Y018808D01*
X022959Y018905D01*
X022882Y018983D01*
X022780Y019025D01*
X022670Y019025D01*
X022568Y018983D01*
X022490Y018905D01*
X022448Y018803D01*
X022448Y018693D01*
X022490Y018592D01*
X022568Y018514D01*
X022667Y018473D01*
X022038Y018473D01*
X022016Y018451D01*
X022016Y018482D01*
X021947Y018552D01*
X021416Y018552D01*
X021347Y018482D01*
X021347Y017991D01*
X021416Y017922D01*
X021947Y017922D01*
X021969Y017944D01*
X021969Y017440D01*
X022038Y017370D01*
X022687Y017370D01*
X022756Y017440D01*
X022756Y017504D02*
X023797Y017504D01*
X023797Y017582D02*
X022756Y017582D01*
X022756Y017659D02*
X023797Y017659D01*
X023797Y017736D02*
X022756Y017736D01*
X022775Y017813D02*
X023797Y017813D01*
X023797Y017891D02*
X022853Y017891D01*
X022930Y017968D02*
X023797Y017968D01*
X023797Y018045D02*
X023007Y018045D01*
X023050Y018122D02*
X023797Y018122D01*
X023797Y018199D02*
X023050Y018199D01*
X023050Y018277D02*
X023797Y018277D01*
X023797Y018354D02*
X023050Y018354D01*
X023098Y018431D02*
X023797Y018431D01*
X023797Y018508D02*
X023175Y018508D01*
X023253Y018586D02*
X023797Y018586D01*
X023797Y018663D02*
X023330Y018663D01*
X023407Y018740D02*
X023797Y018740D01*
X023797Y018817D02*
X023484Y018817D01*
X023562Y018895D02*
X023797Y018895D01*
X023797Y018972D02*
X023639Y018972D01*
X023641Y019049D02*
X023797Y019049D01*
X023797Y019126D02*
X023641Y019126D01*
X023641Y019204D02*
X023797Y019204D01*
X023797Y019281D02*
X023641Y019281D01*
X023641Y019358D02*
X023797Y019358D01*
X023797Y019435D02*
X023641Y019435D01*
X023641Y019513D02*
X023797Y019513D01*
X023797Y019590D02*
X023641Y019590D01*
X023641Y019667D02*
X023797Y019667D01*
X023797Y019744D02*
X023641Y019744D01*
X023641Y019822D02*
X023797Y019822D01*
X023797Y019899D02*
X023641Y019899D01*
X023641Y019976D02*
X023797Y019976D01*
X023797Y020053D02*
X023641Y020053D01*
X023641Y020131D02*
X023797Y020131D01*
X023797Y020208D02*
X023641Y020208D01*
X023641Y020285D02*
X023797Y020285D01*
X023797Y020362D02*
X023641Y020362D01*
X023641Y020439D02*
X023797Y020439D01*
X023797Y020517D02*
X023641Y020517D01*
X023637Y020594D02*
X023797Y020594D01*
X023773Y020671D02*
X023559Y020671D01*
X023482Y020748D02*
X023696Y020748D01*
X023618Y020826D02*
X023405Y020826D01*
X023541Y020903D02*
X022165Y020903D01*
X022165Y020980D02*
X022379Y020980D01*
X022321Y021057D02*
X022165Y021057D01*
X022165Y021135D02*
X022321Y021135D01*
X022321Y021212D02*
X022165Y021212D01*
X022165Y021289D02*
X022321Y021289D01*
X022355Y021366D02*
X022165Y021366D01*
X022165Y020826D02*
X022321Y020826D01*
X022321Y020748D02*
X022165Y020748D01*
X022165Y020671D02*
X022321Y020671D01*
X022321Y020594D02*
X022165Y020594D01*
X022165Y020517D02*
X022343Y020517D01*
X022390Y020402D02*
X022321Y020333D01*
X022321Y020038D01*
X022390Y019969D01*
X022567Y019969D01*
X022567Y019947D01*
X022565Y019945D01*
X022567Y019878D01*
X022567Y019811D01*
X022569Y019809D01*
X022570Y019753D01*
X022510Y019693D01*
X022468Y019591D01*
X022468Y019481D01*
X022510Y019379D01*
X022588Y019301D01*
X022689Y019259D01*
X022800Y019259D01*
X022901Y019301D01*
X022979Y019379D01*
X023021Y019481D01*
X023021Y019591D01*
X022979Y019693D01*
X022906Y019766D01*
X022903Y019883D01*
X022903Y019969D01*
X023079Y019969D01*
X023148Y020038D01*
X023148Y020333D01*
X023079Y020402D01*
X022390Y020402D01*
X022351Y020362D02*
X022165Y020362D01*
X022165Y020285D02*
X022321Y020285D01*
X022321Y020208D02*
X022165Y020208D01*
X022165Y020131D02*
X022321Y020131D01*
X022321Y020053D02*
X022161Y020053D01*
X022084Y019976D02*
X022383Y019976D01*
X022566Y019899D02*
X022007Y019899D01*
X021929Y019822D02*
X022567Y019822D01*
X022561Y019744D02*
X021852Y019744D01*
X021775Y019667D02*
X022499Y019667D01*
X022468Y019590D02*
X021698Y019590D01*
X021620Y019513D02*
X022468Y019513D01*
X022486Y019435D02*
X021543Y019435D01*
X021466Y019358D02*
X022531Y019358D01*
X022637Y019281D02*
X021389Y019281D01*
X021311Y019204D02*
X023305Y019204D01*
X023305Y019281D02*
X022852Y019281D01*
X022958Y019358D02*
X023305Y019358D01*
X023305Y019435D02*
X023003Y019435D01*
X023021Y019513D02*
X023305Y019513D01*
X023305Y019590D02*
X023021Y019590D01*
X022990Y019667D02*
X023305Y019667D01*
X023305Y019744D02*
X022928Y019744D01*
X022904Y019822D02*
X023305Y019822D01*
X023305Y019899D02*
X022903Y019899D01*
X023086Y019976D02*
X023305Y019976D01*
X023305Y020053D02*
X023148Y020053D01*
X023148Y020131D02*
X023305Y020131D01*
X023305Y020208D02*
X023148Y020208D01*
X023148Y020285D02*
X023305Y020285D01*
X023305Y020362D02*
X023119Y020362D01*
X023127Y020517D02*
X023238Y020517D01*
X023305Y020439D02*
X022165Y020439D01*
X023090Y020980D02*
X023464Y020980D01*
X023305Y019126D02*
X021234Y019126D01*
X021157Y019049D02*
X023241Y019049D01*
X023163Y018972D02*
X022893Y018972D01*
X022964Y018895D02*
X023086Y018895D01*
X023009Y018817D02*
X022996Y018817D01*
X022557Y018972D02*
X021080Y018972D01*
X021002Y018895D02*
X022486Y018895D01*
X022454Y018817D02*
X020925Y018817D01*
X020848Y018740D02*
X022448Y018740D01*
X022461Y018663D02*
X020771Y018663D01*
X020694Y018586D02*
X022496Y018586D01*
X022581Y018508D02*
X021990Y018508D01*
X021373Y018508D02*
X020616Y018508D01*
X020539Y018431D02*
X021347Y018431D01*
X021347Y018354D02*
X020462Y018354D01*
X020385Y018277D02*
X021347Y018277D01*
X021347Y018199D02*
X020307Y018199D01*
X020230Y018122D02*
X021347Y018122D01*
X021347Y018045D02*
X020153Y018045D01*
X020076Y017968D02*
X021370Y017968D01*
X021969Y017891D02*
X019998Y017891D01*
X020028Y017813D02*
X021969Y017813D01*
X021969Y017736D02*
X020028Y017736D01*
X020028Y017659D02*
X021969Y017659D01*
X021969Y017582D02*
X020028Y017582D01*
X020028Y017504D02*
X021969Y017504D01*
X021981Y017427D02*
X020028Y017427D01*
X019219Y019358D02*
X018605Y019358D01*
X018527Y019435D02*
X019296Y019435D01*
X019368Y019513D02*
X018450Y019513D01*
X018373Y019590D02*
X019368Y019590D01*
X019368Y019667D02*
X018393Y019667D01*
X018470Y019744D02*
X019368Y019744D01*
X019368Y019822D02*
X018547Y019822D01*
X018625Y019899D02*
X019368Y019899D01*
X019368Y019976D02*
X018642Y019976D01*
X018642Y020053D02*
X019368Y020053D01*
X019368Y020131D02*
X018642Y020131D01*
X018642Y020208D02*
X019368Y020208D01*
X019368Y020285D02*
X018642Y020285D01*
X018600Y020362D02*
X019368Y020362D01*
X019368Y020439D02*
X018523Y020439D01*
X018446Y020517D02*
X019368Y020517D01*
X019368Y020594D02*
X018369Y020594D01*
X019776Y021057D02*
X020057Y021057D01*
X020845Y023993D02*
X019138Y023993D01*
X019138Y024070D02*
X020768Y024070D01*
X020691Y024147D02*
X019138Y024147D01*
X019138Y024224D02*
X020647Y024224D01*
X020647Y024301D02*
X019111Y024301D01*
X017204Y023838D02*
X016988Y023838D01*
X016967Y022757D02*
X015962Y022757D01*
X016935Y019590D02*
X014225Y019590D01*
X015008Y018817D02*
X015009Y018817D01*
X015008Y018817D02*
X015008Y018325D01*
X015008Y018817D01*
X015008Y018740D02*
X015008Y018740D01*
X015008Y018663D02*
X015008Y018663D01*
X015008Y018586D02*
X015008Y018586D01*
X015008Y018508D02*
X015008Y018508D01*
X015008Y018431D02*
X015008Y018431D01*
X015008Y018354D02*
X015008Y018354D01*
X015008Y018325D02*
X014939Y018256D01*
X014557Y018256D01*
X014153Y017852D01*
X014142Y017852D01*
X014142Y017755D01*
X014861Y017755D01*
X014890Y017726D01*
X014890Y018207D01*
X014959Y018276D01*
X015058Y018276D01*
X015008Y018325D01*
X014960Y018277D02*
X015057Y018277D01*
X014890Y018199D02*
X014500Y018199D01*
X014423Y018122D02*
X014890Y018122D01*
X014890Y018045D02*
X014346Y018045D01*
X014269Y017968D02*
X014890Y017968D01*
X014890Y017891D02*
X014191Y017891D01*
X014142Y017813D02*
X014890Y017813D01*
X014880Y017736D02*
X014890Y017736D01*
X014722Y017419D02*
X014890Y017251D01*
X014890Y017095D01*
X013969Y017095D01*
X013969Y017419D01*
X014722Y017419D01*
X014791Y017350D02*
X013969Y017350D01*
X013969Y017273D02*
X014868Y017273D01*
X014890Y017195D02*
X013969Y017195D01*
X013969Y017118D02*
X014890Y017118D01*
X013512Y018199D02*
X013493Y018199D01*
X013493Y018277D02*
X013512Y018277D01*
X013581Y018354D02*
X013424Y018354D01*
X012187Y016802D02*
X012187Y016437D01*
X012764Y015033D02*
X019466Y015033D01*
X019466Y014955D02*
X012764Y014955D01*
X012764Y014878D02*
X019466Y014878D01*
X019466Y014801D02*
X012764Y014801D01*
X012764Y014724D02*
X019466Y014724D01*
X019466Y014646D02*
X012764Y014646D01*
X012764Y014569D02*
X019466Y014569D01*
X019466Y014492D02*
X012764Y014492D01*
X012764Y014415D02*
X019466Y014415D01*
X019308Y014337D02*
X012764Y014337D01*
X012764Y014260D02*
X019241Y014260D01*
X019241Y014183D02*
X012764Y014183D01*
X012764Y014106D02*
X019241Y014106D01*
X019241Y014029D02*
X012764Y014029D01*
X012764Y013951D02*
X019241Y013951D01*
X019241Y013874D02*
X012764Y013874D01*
X012764Y013797D02*
X019241Y013797D01*
X019241Y013720D02*
X012764Y013720D01*
X012764Y013642D02*
X019241Y013642D01*
X019241Y013565D02*
X012764Y013565D01*
X012764Y013488D02*
X019241Y013488D01*
X019241Y013411D02*
X012764Y013411D01*
X012764Y013333D02*
X019252Y013333D01*
X020016Y013333D02*
X024339Y013333D01*
X024339Y013256D02*
X012764Y013256D01*
X012764Y013179D02*
X024339Y013179D01*
X024339Y013102D02*
X012764Y013102D01*
X012764Y013024D02*
X024339Y013024D01*
X024339Y012947D02*
X012764Y012947D01*
X012764Y012870D02*
X024339Y012870D01*
X024339Y012793D02*
X012764Y012793D01*
X012764Y012715D02*
X024339Y012715D01*
X024339Y012638D02*
X012764Y012638D01*
X012764Y012561D02*
X024339Y012561D01*
X024339Y012484D02*
X012764Y012484D01*
X012764Y012406D02*
X024339Y012406D01*
X024339Y012329D02*
X012764Y012329D01*
X012764Y012252D02*
X024339Y012252D01*
X024339Y012175D02*
X012764Y012175D01*
X012764Y012098D02*
X024339Y012098D01*
X024339Y012020D02*
X021439Y012020D01*
X021553Y011943D02*
X024339Y011943D01*
X024339Y011866D02*
X021630Y011866D01*
X021689Y011789D02*
X024339Y011789D01*
X024339Y011711D02*
X021721Y011711D01*
X021753Y011634D02*
X024339Y011634D01*
X024339Y011557D02*
X021770Y011557D01*
X021770Y011480D02*
X024339Y011480D01*
X024339Y011402D02*
X021770Y011402D01*
X021762Y011325D02*
X024339Y011325D01*
X024339Y011248D02*
X021730Y011248D01*
X021698Y011171D02*
X024339Y011171D01*
X024339Y011093D02*
X021651Y011093D01*
X021574Y011016D02*
X024293Y011016D01*
X024215Y010939D02*
X021491Y010939D01*
X021306Y010862D02*
X024138Y010862D01*
X024061Y010784D02*
X021228Y010784D01*
X021151Y010707D02*
X023984Y010707D01*
X023906Y010630D02*
X021169Y010630D01*
X020770Y010939D02*
X012764Y010939D01*
X012764Y011016D02*
X020726Y011016D01*
X020649Y011093D02*
X012764Y011093D01*
X012764Y011171D02*
X020602Y011171D01*
X020570Y011248D02*
X012764Y011248D01*
X012764Y011325D02*
X020538Y011325D01*
X020530Y011402D02*
X012764Y011402D01*
X012764Y011480D02*
X020530Y011480D01*
X020530Y011557D02*
X012764Y011557D01*
X012764Y011634D02*
X020547Y011634D01*
X020579Y011711D02*
X012764Y011711D01*
X012764Y011789D02*
X020611Y011789D01*
X020670Y011866D02*
X012764Y011866D01*
X012764Y011943D02*
X020747Y011943D01*
X020861Y012020D02*
X012764Y012020D01*
X012764Y010862D02*
X019611Y010862D01*
X019533Y010784D02*
X012764Y010784D01*
X012764Y010707D02*
X019456Y010707D01*
X019379Y010630D02*
X012764Y010630D01*
X012764Y010553D02*
X019302Y010553D01*
X019224Y010475D02*
X012764Y010475D01*
X012764Y010398D02*
X019147Y010398D01*
X019122Y010321D02*
X012764Y010321D01*
X012764Y010244D02*
X019122Y010244D01*
X019122Y010166D02*
X012764Y010166D01*
X012764Y010089D02*
X019122Y010089D01*
X019122Y010012D02*
X012764Y010012D01*
X012764Y009935D02*
X019122Y009935D01*
X019122Y009858D02*
X012764Y009858D01*
X012764Y009780D02*
X019122Y009780D01*
X019122Y009703D02*
X012764Y009703D01*
X012764Y009626D02*
X019122Y009626D01*
X019122Y009549D02*
X012764Y009549D01*
X012764Y009471D02*
X019122Y009471D01*
X019122Y009394D02*
X012764Y009394D01*
X012764Y009317D02*
X019122Y009317D01*
X019122Y009240D02*
X012764Y009240D01*
X012764Y009162D02*
X019122Y009162D01*
X019122Y009085D02*
X012764Y009085D01*
X012764Y009008D02*
X019122Y009008D01*
X019122Y008931D02*
X012764Y008931D01*
X012764Y008853D02*
X019122Y008853D01*
X019122Y008776D02*
X012764Y008776D01*
X012764Y008699D02*
X019122Y008699D01*
X019119Y008622D02*
X012764Y008622D01*
X012764Y008544D02*
X019122Y008544D01*
X019167Y008467D02*
X012764Y008467D01*
X012764Y008390D02*
X019263Y008390D01*
X019360Y008313D02*
X012764Y008313D01*
X012764Y008235D02*
X019456Y008235D01*
X019553Y008158D02*
X012764Y008158D01*
X012764Y008081D02*
X019649Y008081D01*
X019746Y008004D02*
X012764Y008004D01*
X012764Y007927D02*
X019749Y007927D01*
X019743Y007849D02*
X012764Y007849D01*
X012764Y007772D02*
X019743Y007772D01*
X019743Y007695D02*
X012764Y007695D01*
X012764Y007618D02*
X019762Y007618D01*
X019794Y007540D02*
X012764Y007540D01*
X012764Y007463D02*
X019826Y007463D01*
X019888Y007386D02*
X012764Y007386D01*
X012764Y007309D02*
X019965Y007309D01*
X020086Y007231D02*
X012764Y007231D01*
X012764Y007154D02*
X020616Y007154D01*
X020640Y007231D02*
X020681Y007231D01*
X020584Y007077D02*
X012764Y007077D01*
X012764Y007000D02*
X020552Y007000D01*
X020530Y006922D02*
X014088Y006922D01*
X014142Y006845D02*
X020530Y006845D01*
X020530Y006768D02*
X014142Y006768D01*
X014142Y006691D02*
X020534Y006691D01*
X020566Y006613D02*
X014142Y006613D01*
X014142Y006536D02*
X020598Y006536D01*
X020637Y006459D02*
X014142Y006459D01*
X014142Y006382D02*
X020715Y006382D01*
X020792Y006304D02*
X014142Y006304D01*
X010608Y013179D02*
X005678Y013179D01*
X005678Y013256D02*
X010599Y013256D01*
X010599Y013333D02*
X005678Y013333D01*
X005678Y013411D02*
X010599Y013411D01*
X010599Y013488D02*
X005678Y013488D01*
X005678Y013565D02*
X010599Y013565D01*
X010599Y013642D02*
X005678Y013642D01*
X005678Y013720D02*
X010639Y013720D01*
X010080Y016423D02*
X009936Y016423D01*
X009919Y016406D02*
X009989Y016475D01*
X009989Y017006D01*
X009919Y017075D01*
X009428Y017075D01*
X009359Y017006D01*
X009359Y016475D01*
X009428Y016406D01*
X009919Y016406D01*
X009989Y016500D02*
X010028Y016500D01*
X010028Y016577D02*
X009989Y016577D01*
X009989Y016655D02*
X010028Y016655D01*
X010028Y016732D02*
X009989Y016732D01*
X009989Y016809D02*
X010028Y016809D01*
X010028Y016886D02*
X009989Y016886D01*
X009989Y016964D02*
X010028Y016964D01*
X010063Y017041D02*
X009954Y017041D01*
X010166Y017195D02*
X005678Y017195D01*
X005678Y017118D02*
X010268Y017118D01*
X010123Y017273D02*
X005678Y017273D01*
X005678Y017350D02*
X010105Y017350D01*
X010106Y017427D02*
X005678Y017427D01*
X005678Y017504D02*
X010138Y017504D01*
X010202Y017582D02*
X005678Y017582D01*
X005678Y017659D02*
X010340Y017659D01*
X010304Y017736D02*
X005678Y017736D01*
X005678Y017813D02*
X010304Y017813D01*
X010304Y017891D02*
X005678Y017891D01*
X005678Y017968D02*
X010304Y017968D01*
X010304Y018045D02*
X005678Y018045D01*
X005678Y018122D02*
X010304Y018122D01*
X010304Y018199D02*
X005678Y018199D01*
X005678Y018277D02*
X010354Y018277D01*
X010658Y018740D02*
X008643Y018740D01*
X008566Y018663D02*
X011150Y018663D01*
X011150Y018586D02*
X008489Y018586D01*
X008487Y018508D02*
X011150Y018508D01*
X011150Y018431D02*
X005678Y018431D01*
X005678Y018354D02*
X011150Y018354D01*
X011150Y018277D02*
X010883Y018277D01*
X010933Y018199D02*
X011150Y018199D01*
X011150Y018122D02*
X010933Y018122D01*
X010933Y018045D02*
X011150Y018045D01*
X011150Y017968D02*
X010933Y017968D01*
X010937Y017891D02*
X011150Y017891D01*
X011150Y017813D02*
X011010Y017813D01*
X010794Y016886D02*
X010727Y016886D01*
X009394Y017041D02*
X005678Y017041D01*
X005678Y016964D02*
X009359Y016964D01*
X009359Y016886D02*
X005678Y016886D01*
X005678Y016809D02*
X009359Y016809D01*
X009359Y016732D02*
X005678Y016732D01*
X005678Y016655D02*
X009359Y016655D01*
X009359Y016577D02*
X005678Y016577D01*
X005678Y016500D02*
X009359Y016500D01*
X009411Y016423D02*
X005678Y016423D01*
X005678Y018508D02*
X006971Y018508D01*
X006937Y018586D02*
X005678Y018586D01*
X005678Y018663D02*
X006937Y018663D01*
X006937Y018740D02*
X005678Y018740D01*
X005678Y018817D02*
X006937Y018817D01*
X006937Y018895D02*
X005678Y018895D01*
X005678Y018972D02*
X006937Y018972D01*
X006937Y019049D02*
X005678Y019049D01*
X005678Y019126D02*
X006991Y019126D01*
X007514Y019126D02*
X007629Y019126D01*
X007622Y019049D02*
X007567Y019049D01*
X007567Y018586D02*
X007622Y018586D01*
X007624Y018508D02*
X007534Y018508D01*
X008443Y019204D02*
X005678Y019204D01*
X005678Y019281D02*
X008443Y019281D01*
X008443Y019358D02*
X005678Y019358D01*
X005678Y019435D02*
X008443Y019435D01*
X008443Y019513D02*
X005678Y019513D01*
X005678Y019590D02*
X008443Y019590D01*
X008443Y019667D02*
X005678Y019667D01*
X005678Y019744D02*
X008443Y019744D01*
X008443Y019822D02*
X005678Y019822D01*
X005678Y019899D02*
X008443Y019899D01*
X008443Y019976D02*
X005678Y019976D01*
X005678Y020053D02*
X008443Y020053D01*
X008443Y020131D02*
X005678Y020131D01*
X005678Y020208D02*
X008454Y020208D01*
X008531Y020285D02*
X005678Y020285D01*
X005678Y020362D02*
X008542Y020362D01*
X008493Y020439D02*
X005678Y020439D01*
X005678Y020517D02*
X008493Y020517D01*
X008493Y020594D02*
X005678Y020594D01*
X005678Y020671D02*
X008493Y020671D01*
X008493Y020748D02*
X008374Y020748D01*
X008374Y020826D02*
X008493Y020826D01*
X008779Y020053D02*
X009146Y020053D01*
X009118Y019976D02*
X008779Y019976D01*
X008779Y019899D02*
X009118Y019899D01*
X009118Y019822D02*
X008779Y019822D01*
X008779Y019744D02*
X009118Y019744D01*
X009118Y019667D02*
X008779Y019667D01*
X008779Y019590D02*
X009118Y019590D01*
X009118Y019513D02*
X008779Y019513D01*
X008779Y019435D02*
X009118Y019435D01*
X009176Y019358D02*
X008779Y019358D01*
X008779Y019281D02*
X010669Y019281D01*
X010658Y019204D02*
X008779Y019204D01*
X008779Y019126D02*
X010658Y019126D01*
X010658Y019049D02*
X008779Y019049D01*
X008779Y018972D02*
X010658Y018972D01*
X010658Y018895D02*
X008779Y018895D01*
X008721Y018817D02*
X010658Y018817D01*
X010708Y019358D02*
X010568Y019358D01*
X010599Y019435D02*
X010658Y019435D01*
X010658Y019513D02*
X010599Y019513D01*
X010599Y019590D02*
X010658Y019590D01*
X010658Y019667D02*
X010599Y019667D01*
X010599Y019744D02*
X010658Y019744D01*
X010658Y019822D02*
X010599Y019822D01*
X009999Y019358D02*
X009927Y019358D01*
X010963Y021675D02*
X012775Y021675D01*
X012754Y021753D02*
X010963Y021753D01*
X010963Y021830D02*
X012754Y021830D01*
X012754Y021907D02*
X010963Y021907D01*
X010963Y021984D02*
X012754Y021984D01*
X012754Y022062D02*
X010963Y022062D01*
X010963Y022139D02*
X012754Y022139D01*
X012754Y022216D02*
X010963Y022216D01*
X010963Y022293D02*
X012754Y022293D01*
X012754Y022370D02*
X010963Y022370D01*
X010963Y022448D02*
X012754Y022448D01*
X012754Y022525D02*
X010963Y022525D01*
X011279Y022602D02*
X011454Y022602D01*
X011390Y022679D02*
X011343Y022679D01*
X011343Y022757D02*
X011390Y022757D01*
X011390Y022834D02*
X011343Y022834D01*
X011343Y022911D02*
X011390Y022911D01*
X011390Y022988D02*
X011343Y022988D01*
X011343Y023066D02*
X011390Y023066D01*
X011395Y023143D02*
X011338Y023143D01*
X011338Y023220D02*
X011395Y023220D01*
X011395Y023297D02*
X011338Y023297D01*
X011338Y023375D02*
X011395Y023375D01*
X011395Y023452D02*
X011338Y023452D01*
X011338Y023529D02*
X011395Y023529D01*
X011395Y023606D02*
X011338Y023606D01*
X011338Y023684D02*
X011395Y023684D01*
X011395Y023761D02*
X011316Y023761D01*
X011239Y023838D02*
X011395Y023838D01*
X011395Y023915D02*
X011162Y023915D01*
X011085Y023993D02*
X011395Y023993D01*
X011395Y024070D02*
X011043Y024070D01*
X011043Y024147D02*
X011395Y024147D01*
X011395Y024224D02*
X011043Y024224D01*
X011043Y024301D02*
X011395Y024301D01*
X011395Y024379D02*
X011043Y024379D01*
X011043Y024456D02*
X011395Y024456D01*
X011395Y025126D02*
X010904Y025126D01*
X010835Y025057D01*
X010835Y024852D01*
X010819Y024837D01*
X010786Y024870D01*
X010255Y024870D01*
X010185Y024801D01*
X010116Y024870D01*
X009585Y024870D01*
X009566Y024851D01*
X009566Y025765D01*
X010157Y026356D01*
X011800Y026356D01*
X011800Y026298D01*
X011592Y026298D01*
X011494Y026200D01*
X011395Y026102D01*
X011395Y025796D01*
X010904Y025796D01*
X010835Y025726D01*
X010835Y025667D01*
X010786Y025717D01*
X010373Y025717D01*
X010304Y025648D01*
X010304Y025235D01*
X010373Y025166D01*
X010786Y025166D01*
X010845Y025225D01*
X010904Y025166D01*
X011395Y025166D01*
X011395Y025126D01*
X011395Y025151D02*
X009566Y025151D01*
X009566Y025074D02*
X010852Y025074D01*
X010835Y024997D02*
X009566Y024997D01*
X009566Y024919D02*
X010835Y024919D01*
X010825Y024842D02*
X010814Y024842D01*
X010310Y025228D02*
X009566Y025228D01*
X009566Y025306D02*
X010304Y025306D01*
X010304Y025383D02*
X009566Y025383D01*
X009566Y025460D02*
X010304Y025460D01*
X010304Y025537D02*
X009566Y025537D01*
X009566Y025615D02*
X010304Y025615D01*
X010348Y025692D02*
X009566Y025692D01*
X009570Y025769D02*
X010878Y025769D01*
X010835Y025692D02*
X010811Y025692D01*
X011395Y025846D02*
X009647Y025846D01*
X009724Y025924D02*
X011395Y025924D01*
X011395Y026001D02*
X009802Y026001D01*
X009879Y026078D02*
X011395Y026078D01*
X011449Y026155D02*
X009956Y026155D01*
X010033Y026232D02*
X011526Y026232D01*
X011800Y026310D02*
X010110Y026310D01*
X009163Y027314D02*
X005678Y027314D01*
X005678Y027391D02*
X009240Y027391D01*
X009317Y027468D02*
X005678Y027468D01*
X005678Y027546D02*
X009394Y027546D01*
X009472Y027623D02*
X005678Y027623D01*
X005678Y027237D02*
X009085Y027237D01*
X009008Y027159D02*
X005678Y027159D01*
X005678Y027082D02*
X008931Y027082D01*
X008854Y027005D02*
X005678Y027005D01*
X005678Y026928D02*
X008777Y026928D01*
X008699Y026850D02*
X005678Y026850D01*
X005678Y026773D02*
X008622Y026773D01*
X008545Y026696D02*
X005678Y026696D01*
X005678Y026619D02*
X008468Y026619D01*
X008390Y026541D02*
X005678Y026541D01*
X005678Y026464D02*
X008313Y026464D01*
X009004Y028086D02*
X009820Y028086D01*
X009820Y028164D02*
X009004Y028164D01*
X009004Y028241D02*
X009820Y028241D01*
X009820Y028318D02*
X009004Y028318D01*
X009004Y028395D02*
X009820Y028395D01*
X009820Y028472D02*
X009004Y028472D01*
X009762Y028550D02*
X009820Y028550D01*
X009820Y028627D02*
X009778Y028627D01*
X009778Y028704D02*
X009820Y028704D01*
X009820Y028781D02*
X009778Y028781D01*
X009778Y028859D02*
X009820Y028859D01*
X009820Y028936D02*
X009778Y028936D01*
X010157Y028472D02*
X015030Y028472D01*
X015333Y028936D02*
X015557Y028936D01*
X015525Y029013D02*
X015181Y029013D01*
X015129Y029090D02*
X015519Y029090D01*
X015473Y029168D02*
X015129Y029168D01*
X015129Y029245D02*
X015396Y029245D01*
X015319Y029322D02*
X015129Y029322D01*
X015129Y029399D02*
X015242Y029399D01*
X015226Y029477D02*
X015129Y029477D01*
X015129Y029554D02*
X015226Y029554D01*
X015226Y029631D02*
X015129Y029631D01*
X015129Y029708D02*
X015226Y029708D01*
X015226Y029786D02*
X015129Y029786D01*
X015129Y029863D02*
X015226Y029863D01*
X015226Y029940D02*
X015129Y029940D01*
X015129Y030017D02*
X015226Y030017D01*
X015226Y030095D02*
X015129Y030095D01*
X015129Y030172D02*
X015226Y030172D01*
X015226Y030249D02*
X015129Y030249D01*
X015129Y030326D02*
X015226Y030326D01*
X015226Y030403D02*
X015129Y030403D01*
X015129Y030481D02*
X015226Y030481D01*
X015226Y030558D02*
X015129Y030558D01*
X015129Y030635D02*
X015226Y030635D01*
X015226Y030712D02*
X015129Y030712D01*
X015562Y030712D02*
X016092Y030712D01*
X016092Y030635D02*
X015562Y030635D01*
X015562Y030558D02*
X016092Y030558D01*
X016092Y030481D02*
X015562Y030481D01*
X015562Y030403D02*
X016092Y030403D01*
X016092Y030326D02*
X015562Y030326D01*
X015562Y030249D02*
X016092Y030249D01*
X016092Y030172D02*
X015562Y030172D01*
X015562Y030095D02*
X016092Y030095D01*
X016092Y030017D02*
X015562Y030017D01*
X015562Y029940D02*
X016092Y029940D01*
X016092Y029863D02*
X015562Y029863D01*
X015562Y029786D02*
X016092Y029786D01*
X016092Y029708D02*
X015562Y029708D01*
X015562Y029631D02*
X016092Y029631D01*
X016092Y029554D02*
X015563Y029554D01*
X015640Y029477D02*
X016092Y029477D01*
X016092Y029399D02*
X015717Y029399D01*
X015942Y029322D02*
X016092Y029322D01*
X016092Y029245D02*
X016025Y029245D01*
X016060Y029168D02*
X016092Y029168D01*
X016092Y029090D02*
X016073Y029090D01*
X016066Y029013D02*
X016092Y029013D01*
X016092Y028936D02*
X016034Y028936D01*
X016092Y028859D02*
X015963Y028859D01*
X016092Y028781D02*
X015467Y028781D01*
X015482Y028704D02*
X016092Y028704D01*
X016092Y028627D02*
X015479Y028627D01*
X015447Y028550D02*
X016092Y028550D01*
X016169Y028472D02*
X015380Y028472D01*
X015427Y028859D02*
X015629Y028859D01*
X016246Y028395D02*
X010157Y028395D01*
X010157Y028318D02*
X016323Y028318D01*
X016400Y028241D02*
X010157Y028241D01*
X010157Y028164D02*
X016477Y028164D01*
X016555Y028086D02*
X010157Y028086D01*
X010157Y028009D02*
X016601Y028009D01*
X016607Y027932D02*
X010157Y027932D01*
X010157Y027855D02*
X016639Y027855D01*
X016710Y027777D02*
X010102Y027777D01*
X010145Y024842D02*
X010226Y024842D01*
X010185Y024801D02*
X010185Y024310D01*
X010185Y024801D01*
X010185Y024765D02*
X010185Y024765D01*
X010185Y024688D02*
X010185Y024688D01*
X010185Y024610D02*
X010185Y024610D01*
X010185Y024533D02*
X010185Y024533D01*
X010185Y024456D02*
X010185Y024456D01*
X010185Y024379D02*
X010185Y024379D01*
X010185Y024310D02*
X010255Y024241D01*
X010411Y024241D01*
X010411Y024056D01*
X010400Y024067D01*
X009869Y024067D01*
X009800Y023998D01*
X009800Y023507D01*
X009869Y023437D01*
X010180Y023437D01*
X010322Y023296D01*
X009861Y023296D01*
X009792Y023226D01*
X009723Y023296D01*
X009192Y023296D01*
X009172Y023276D01*
X009172Y023464D01*
X009199Y023437D01*
X009730Y023437D01*
X009800Y023507D01*
X009800Y023998D01*
X009730Y024067D01*
X009566Y024067D01*
X009566Y024260D01*
X009585Y024241D01*
X010116Y024241D01*
X010185Y024310D01*
X010177Y024301D02*
X010194Y024301D01*
X010411Y024224D02*
X009566Y024224D01*
X009566Y024147D02*
X010411Y024147D01*
X010411Y024070D02*
X009566Y024070D01*
X009800Y023993D02*
X009800Y023993D01*
X009800Y023915D02*
X009800Y023915D01*
X009800Y023838D02*
X009800Y023838D01*
X009800Y023761D02*
X009800Y023761D01*
X009800Y023684D02*
X009800Y023684D01*
X009800Y023606D02*
X009800Y023606D01*
X009800Y023529D02*
X009800Y023529D01*
X009745Y023452D02*
X009854Y023452D01*
X009792Y023226D02*
X009792Y022735D01*
X009861Y022666D01*
X009873Y022666D01*
X009852Y022645D01*
X009810Y022544D01*
X009810Y022434D01*
X009825Y022398D01*
X009566Y022657D01*
X009557Y022666D01*
X009723Y022666D01*
X009792Y022735D01*
X009792Y023226D01*
X009792Y023220D02*
X009792Y023220D01*
X009792Y023143D02*
X009792Y023143D01*
X009792Y023066D02*
X009792Y023066D01*
X009792Y022988D02*
X009792Y022988D01*
X009792Y022911D02*
X009792Y022911D01*
X009792Y022834D02*
X009792Y022834D01*
X009792Y022757D02*
X009792Y022757D01*
X009847Y022679D02*
X009736Y022679D01*
X009834Y022602D02*
X009621Y022602D01*
X009566Y022657D02*
X009566Y022657D01*
X009698Y022525D02*
X009810Y022525D01*
X009810Y022448D02*
X009775Y022448D01*
X010320Y023297D02*
X009172Y023297D01*
X009172Y023375D02*
X010243Y023375D01*
X009185Y023452D02*
X009172Y023452D01*
X007744Y021057D02*
X007705Y021057D01*
X007705Y020980D02*
X007744Y020980D01*
X007744Y020903D02*
X007705Y020903D01*
X007705Y020826D02*
X007744Y020826D01*
X007744Y020748D02*
X007705Y020748D01*
X007448Y021366D02*
X005678Y021366D01*
X005678Y021289D02*
X007087Y021289D01*
X007075Y021212D02*
X005678Y021212D01*
X005678Y021135D02*
X007075Y021135D01*
X007075Y021057D02*
X005678Y021057D01*
X005678Y020980D02*
X007075Y020980D01*
X007075Y020903D02*
X005678Y020903D01*
X005678Y020826D02*
X007075Y020826D01*
X007075Y020748D02*
X005678Y020748D01*
X005678Y021444D02*
X007448Y021444D01*
X007088Y021521D02*
X005678Y021521D01*
X005678Y021598D02*
X007056Y021598D01*
X007056Y021675D02*
X005678Y021675D01*
X005678Y021753D02*
X007042Y021753D01*
X006965Y021830D02*
X005678Y021830D01*
X005678Y021907D02*
X006887Y021907D01*
X006810Y021984D02*
X005678Y021984D01*
X005678Y022062D02*
X006733Y022062D01*
X006656Y022139D02*
X005678Y022139D01*
X005678Y022216D02*
X006579Y022216D01*
X006501Y022293D02*
X005678Y022293D01*
X005678Y022370D02*
X006424Y022370D01*
X006347Y022448D02*
X005678Y022448D01*
X005678Y022525D02*
X006270Y022525D01*
X006192Y022602D02*
X005678Y022602D01*
X005678Y022679D02*
X006179Y022679D01*
X006179Y022757D02*
X005678Y022757D01*
X005678Y022834D02*
X006179Y022834D01*
X006179Y022911D02*
X005678Y022911D01*
X005678Y022988D02*
X006179Y022988D01*
X006179Y023066D02*
X005678Y023066D01*
X005678Y023143D02*
X006179Y023143D01*
X006179Y023220D02*
X005678Y023220D01*
X005678Y023297D02*
X006179Y023297D01*
X006179Y023375D02*
X005678Y023375D01*
X005678Y023452D02*
X006179Y023452D01*
X006179Y023529D02*
X005678Y023529D01*
X005678Y023606D02*
X006179Y023606D01*
X006179Y023684D02*
X005678Y023684D01*
X005678Y023761D02*
X006179Y023761D01*
X006179Y023838D02*
X005678Y023838D01*
X005678Y023915D02*
X006179Y023915D01*
X006179Y023993D02*
X005678Y023993D01*
X005678Y024070D02*
X006179Y024070D01*
X006179Y024147D02*
X005678Y024147D01*
X005678Y024224D02*
X006179Y024224D01*
X006179Y024301D02*
X005678Y024301D01*
X005678Y024379D02*
X006179Y024379D01*
X006179Y024456D02*
X005678Y024456D01*
X005678Y024533D02*
X006179Y024533D01*
X006179Y024610D02*
X005678Y024610D01*
X005678Y024688D02*
X006179Y024688D01*
X006179Y024765D02*
X005678Y024765D01*
X005678Y024842D02*
X006179Y024842D01*
X006179Y024919D02*
X005678Y024919D01*
X005678Y024997D02*
X006179Y024997D01*
X006179Y025074D02*
X005678Y025074D01*
X005678Y025151D02*
X006179Y025151D01*
X006179Y025228D02*
X005678Y025228D01*
X005678Y025306D02*
X006179Y025306D01*
X006179Y025383D02*
X005678Y025383D01*
X005678Y025460D02*
X006179Y025460D01*
X006179Y025537D02*
X005678Y025537D01*
X005678Y025615D02*
X006184Y025615D01*
X006261Y025692D02*
X005678Y025692D01*
X005678Y025769D02*
X006338Y025769D01*
X006416Y025846D02*
X005678Y025846D01*
X005678Y025924D02*
X006493Y025924D01*
X006570Y026001D02*
X005678Y026001D01*
X005678Y026078D02*
X006647Y026078D01*
X006725Y026155D02*
X005678Y026155D01*
X005678Y026232D02*
X006802Y026232D01*
X006879Y026310D02*
X005678Y026310D01*
X005678Y026387D02*
X006956Y026387D01*
X007087Y030172D02*
X005678Y030172D01*
X005678Y030249D02*
X007065Y030249D01*
X007065Y030326D02*
X005678Y030326D01*
X005678Y030403D02*
X007065Y030403D01*
X007065Y030481D02*
X005678Y030481D01*
X005678Y030558D02*
X007065Y030558D01*
X007065Y030635D02*
X005678Y030635D01*
X005678Y030712D02*
X007065Y030712D01*
X007065Y030790D02*
X005678Y030790D01*
X005678Y030867D02*
X007065Y030867D01*
X007065Y030944D02*
X005678Y030944D01*
X005678Y031021D02*
X007065Y031021D01*
X007065Y031099D02*
X005678Y031099D01*
X005678Y031176D02*
X007065Y031176D01*
X007065Y031253D02*
X005678Y031253D01*
X005678Y031330D02*
X007065Y031330D01*
X007065Y031408D02*
X005678Y031408D01*
X005678Y031485D02*
X007065Y031485D01*
X007065Y031562D02*
X005678Y031562D01*
X005678Y031639D02*
X007065Y031639D01*
X007065Y031717D02*
X005678Y031717D01*
X005678Y031794D02*
X007065Y031794D01*
X007065Y031871D02*
X005678Y031871D01*
X005678Y031948D02*
X007065Y031948D01*
X007065Y032026D02*
X005678Y032026D01*
X005678Y032103D02*
X007065Y032103D01*
X007065Y032180D02*
X005678Y032180D01*
X005678Y032257D02*
X007065Y032257D01*
X007065Y032334D02*
X005678Y032334D01*
X005678Y032412D02*
X007065Y032412D01*
X007065Y032489D02*
X005678Y032489D01*
X005678Y032566D02*
X007132Y032566D01*
X007401Y032257D02*
X007448Y032257D01*
X007744Y032026D02*
X007823Y032026D01*
X007823Y031948D02*
X007744Y031948D01*
X007744Y031871D02*
X007823Y031871D01*
X008957Y032721D02*
X005678Y032721D01*
X005678Y032798D02*
X008957Y032798D01*
X008957Y032875D02*
X005678Y032875D01*
X005678Y032952D02*
X008957Y032952D01*
X008957Y033030D02*
X005678Y033030D01*
X005678Y033107D02*
X008957Y033107D01*
X008957Y033184D02*
X005678Y033184D01*
X005678Y033261D02*
X011114Y033261D01*
X011192Y033184D02*
X009626Y033184D01*
X009626Y033107D02*
X011269Y033107D01*
X011346Y033030D02*
X009626Y033030D01*
X009626Y032952D02*
X011347Y032952D01*
X011347Y032875D02*
X009626Y032875D01*
X009626Y032798D02*
X011347Y032798D01*
X011347Y032721D02*
X009626Y032721D01*
X009570Y032643D02*
X011347Y032643D01*
X011037Y033339D02*
X009596Y033339D01*
X009626Y033416D02*
X010960Y033416D01*
X010883Y033493D02*
X009626Y033493D01*
X009626Y033570D02*
X010805Y033570D01*
X010728Y033648D02*
X009626Y033648D01*
X009626Y033725D02*
X010651Y033725D01*
X010574Y033802D02*
X010375Y033802D01*
X010433Y033879D02*
X010496Y033879D01*
X010723Y034265D02*
X017638Y034265D01*
X017638Y034188D02*
X010800Y034188D01*
X010877Y034111D02*
X017638Y034111D01*
X017638Y034034D02*
X010954Y034034D01*
X011032Y033957D02*
X017638Y033957D01*
X017638Y033879D02*
X011109Y033879D01*
X010645Y034343D02*
X017638Y034343D01*
X017638Y034420D02*
X010568Y034420D01*
X010491Y034497D02*
X017638Y034497D01*
X017638Y034574D02*
X010414Y034574D01*
X010402Y034652D02*
X017638Y034652D01*
X017638Y034729D02*
X010402Y034729D01*
X010402Y034806D02*
X017638Y034806D01*
X017638Y034883D02*
X010402Y034883D01*
X010402Y034961D02*
X017638Y034961D01*
X017638Y035038D02*
X010422Y035038D01*
X010422Y035115D02*
X017638Y035115D01*
X017638Y035192D02*
X010422Y035192D01*
X010422Y035270D02*
X017638Y035270D01*
X017638Y035347D02*
X010422Y035347D01*
X010422Y035424D02*
X017638Y035424D01*
X017638Y035501D02*
X010422Y035501D01*
X010422Y035579D02*
X017638Y035579D01*
X017638Y035656D02*
X010398Y035656D01*
X009545Y034883D02*
X005678Y034883D01*
X005678Y034806D02*
X009545Y034806D01*
X009545Y034729D02*
X005678Y034729D01*
X005678Y034652D02*
X009545Y034652D01*
X009545Y034574D02*
X005678Y034574D01*
X005678Y034497D02*
X009545Y034497D01*
X009545Y034420D02*
X005678Y034420D01*
X005678Y034343D02*
X008965Y034343D01*
X008965Y034265D02*
X005678Y034265D01*
X005678Y034188D02*
X008965Y034188D01*
X008965Y034111D02*
X005678Y034111D01*
X005678Y034034D02*
X008965Y034034D01*
X008965Y033957D02*
X005678Y033957D01*
X005678Y033879D02*
X008976Y033879D01*
X008957Y033802D02*
X005678Y033802D01*
X005678Y033725D02*
X008957Y033725D01*
X008957Y033648D02*
X005678Y033648D01*
X005678Y033570D02*
X008957Y033570D01*
X008957Y033493D02*
X005678Y033493D01*
X005678Y033416D02*
X008957Y033416D01*
X008987Y033339D02*
X005678Y033339D01*
X005678Y032643D02*
X009013Y032643D01*
X009883Y033802D02*
X009996Y033802D01*
X009545Y034265D02*
X009516Y034265D01*
X009516Y034343D02*
X009545Y034343D01*
X009283Y034961D02*
X005678Y034961D01*
X005678Y035038D02*
X009260Y035038D01*
X009260Y035115D02*
X005678Y035115D01*
X005678Y035192D02*
X009260Y035192D01*
X009260Y035270D02*
X005678Y035270D01*
X005678Y035347D02*
X009260Y035347D01*
X009260Y035424D02*
X005678Y035424D01*
X005678Y035501D02*
X009260Y035501D01*
X009260Y035579D02*
X005678Y035579D01*
X005678Y035656D02*
X009284Y035656D01*
X005678Y035733D02*
X017638Y035733D01*
X017638Y035810D02*
X005678Y035810D01*
X005678Y035888D02*
X017638Y035888D01*
X017638Y035965D02*
X005678Y035965D01*
X005678Y036042D02*
X017638Y036042D01*
X017638Y036119D02*
X005678Y036119D01*
X005678Y036197D02*
X017638Y036197D01*
X017638Y036274D02*
X005678Y036274D01*
X005678Y036351D02*
X017638Y036351D01*
X017638Y036428D02*
X005678Y036428D01*
X005678Y036505D02*
X017638Y036505D01*
X017638Y036583D02*
X005678Y036583D01*
X005678Y036660D02*
X017670Y036660D01*
X018118Y036660D02*
X019931Y036660D01*
X019899Y036737D02*
X005678Y036737D01*
X005678Y036814D02*
X013338Y036814D01*
X013307Y036892D02*
X005678Y036892D01*
X005678Y036969D02*
X013307Y036969D01*
X013307Y037046D02*
X005678Y037046D01*
X005678Y037123D02*
X013307Y037123D01*
X013307Y037201D02*
X005678Y037201D01*
X005678Y037278D02*
X013307Y037278D01*
X013307Y037355D02*
X005678Y037355D01*
X005678Y037432D02*
X013307Y037432D01*
X013323Y037510D02*
X005678Y037510D01*
X014537Y036814D02*
X019867Y036814D01*
X019861Y036892D02*
X014567Y036892D01*
X014567Y036969D02*
X019861Y036969D01*
X019861Y037046D02*
X014567Y037046D01*
X014567Y037123D02*
X019880Y037123D01*
X019912Y037201D02*
X014567Y037201D01*
X014567Y037278D02*
X019944Y037278D01*
X020006Y037355D02*
X014567Y037355D01*
X014567Y037432D02*
X020083Y037432D01*
X020204Y037510D02*
X014552Y037510D01*
X017874Y033416D02*
X018111Y033416D01*
X018105Y033493D02*
X018111Y033493D01*
X018111Y033339D02*
X017874Y033339D01*
X017874Y033261D02*
X018111Y033261D01*
X018111Y033184D02*
X017874Y033184D01*
X017874Y033107D02*
X018111Y033107D01*
X018111Y033030D02*
X017874Y033030D01*
X018622Y033030D02*
X019466Y033030D01*
X019466Y033107D02*
X018622Y033107D01*
X018622Y033184D02*
X019466Y033184D01*
X019466Y033261D02*
X018622Y033261D01*
X018622Y033339D02*
X019466Y033339D01*
X019466Y033416D02*
X018622Y033416D01*
X018622Y033493D02*
X019466Y033493D01*
X019466Y033570D02*
X018622Y033570D01*
X018622Y033648D02*
X019466Y033648D01*
X019466Y033725D02*
X018622Y033725D01*
X018622Y033802D02*
X019466Y033802D01*
X019466Y033879D02*
X018622Y033879D01*
X018622Y033957D02*
X019466Y033957D01*
X019466Y034034D02*
X018622Y034034D01*
X018622Y034111D02*
X019466Y034111D01*
X019466Y034188D02*
X018622Y034188D01*
X018622Y034265D02*
X019466Y034265D01*
X019466Y034343D02*
X018622Y034343D01*
X018622Y034420D02*
X019466Y034420D01*
X019466Y034497D02*
X018622Y034497D01*
X018150Y034574D02*
X019466Y034574D01*
X019466Y034652D02*
X018150Y034652D01*
X018150Y034729D02*
X019466Y034729D01*
X019466Y034806D02*
X018150Y034806D01*
X018150Y034883D02*
X019466Y034883D01*
X019466Y034961D02*
X018150Y034961D01*
X018150Y035038D02*
X019466Y035038D01*
X019466Y035115D02*
X018150Y035115D01*
X018150Y035192D02*
X019466Y035192D01*
X019466Y035270D02*
X018150Y035270D01*
X018150Y035347D02*
X019466Y035347D01*
X019466Y035424D02*
X018150Y035424D01*
X018150Y035501D02*
X019516Y035501D01*
X019593Y035579D02*
X018150Y035579D01*
X018150Y035656D02*
X019670Y035656D01*
X019747Y035733D02*
X018150Y035733D01*
X018150Y035810D02*
X019825Y035810D01*
X019902Y035888D02*
X018150Y035888D01*
X018150Y035965D02*
X019979Y035965D01*
X020056Y036042D02*
X018150Y036042D01*
X018150Y036119D02*
X020133Y036119D01*
X020314Y036351D02*
X018150Y036351D01*
X018150Y036428D02*
X020129Y036428D01*
X020051Y036505D02*
X018150Y036505D01*
X018150Y036583D02*
X019974Y036583D01*
X020647Y036351D02*
X020754Y036351D01*
X020715Y036274D02*
X018150Y036274D01*
X018150Y036197D02*
X020683Y036197D01*
X020671Y035810D02*
X020300Y035810D01*
X020223Y035733D02*
X020703Y035733D01*
X020735Y035656D02*
X020146Y035656D01*
X020068Y035579D02*
X020801Y035579D01*
X020878Y035501D02*
X019991Y035501D01*
X019914Y035424D02*
X021011Y035424D01*
X020832Y035058D02*
X020604Y035152D01*
X020357Y035152D01*
X020129Y035058D01*
X019955Y034883D01*
X019861Y034655D01*
X019861Y034409D01*
X019955Y034181D01*
X020129Y034006D01*
X020357Y033912D01*
X020604Y033912D01*
X020659Y033935D01*
X020648Y033907D01*
X020648Y033661D01*
X020742Y033433D01*
X020917Y033258D01*
X021145Y033164D01*
X021391Y033164D01*
X021619Y033258D01*
X021794Y033433D01*
X021879Y033639D01*
X023403Y033639D01*
X023994Y033049D01*
X023994Y029153D01*
X023854Y029013D02*
X021867Y029013D01*
X021152Y028410D02*
X020844Y028718D01*
X019899Y028718D01*
X019967Y028649D01*
X020010Y028548D01*
X020010Y028453D01*
X020456Y028007D01*
X020647Y028007D01*
X020652Y028012D01*
X020981Y028012D01*
X020981Y028341D01*
X021050Y028410D01*
X021152Y028410D01*
X021090Y028472D02*
X020010Y028472D01*
X020009Y028550D02*
X021013Y028550D01*
X020935Y028627D02*
X019977Y028627D01*
X019913Y028704D02*
X020858Y028704D01*
X021035Y028395D02*
X020068Y028395D01*
X020145Y028318D02*
X020981Y028318D01*
X020981Y028241D02*
X020222Y028241D01*
X020299Y028164D02*
X020981Y028164D01*
X020981Y028086D02*
X020377Y028086D01*
X020454Y028009D02*
X020649Y028009D01*
X018621Y031253D02*
X023994Y031253D01*
X023994Y031176D02*
X018248Y031176D01*
X018248Y031099D02*
X023994Y031099D01*
X023994Y031021D02*
X018248Y031021D01*
X018248Y030944D02*
X023994Y030944D01*
X023994Y030867D02*
X018248Y030867D01*
X018217Y030790D02*
X023994Y030790D01*
X023994Y030712D02*
X017294Y030712D01*
X017294Y030017D02*
X023994Y030017D01*
X023994Y029940D02*
X017294Y029940D01*
X017294Y029863D02*
X023994Y029863D01*
X023994Y029786D02*
X017294Y029786D01*
X018622Y031330D02*
X023994Y031330D01*
X023994Y031408D02*
X018622Y031408D01*
X018622Y031485D02*
X023994Y031485D01*
X023994Y031562D02*
X018622Y031562D01*
X018622Y031639D02*
X023994Y031639D01*
X023994Y031717D02*
X020674Y031717D01*
X020844Y031794D02*
X023994Y031794D01*
X023994Y031871D02*
X020921Y031871D01*
X020998Y031948D02*
X023994Y031948D01*
X023994Y032026D02*
X021035Y032026D01*
X021067Y032103D02*
X023994Y032103D01*
X023994Y032180D02*
X021099Y032180D01*
X021101Y032257D02*
X023994Y032257D01*
X023994Y032334D02*
X021101Y032334D01*
X021101Y032412D02*
X023994Y032412D01*
X023994Y032489D02*
X021077Y032489D01*
X021045Y032566D02*
X023994Y032566D01*
X023994Y032643D02*
X021013Y032643D01*
X020944Y032721D02*
X023994Y032721D01*
X023994Y032798D02*
X020867Y032798D01*
X020730Y032875D02*
X023994Y032875D01*
X023994Y032952D02*
X019802Y032952D01*
X019802Y032875D02*
X020231Y032875D01*
X020094Y032798D02*
X019802Y032798D01*
X019802Y032721D02*
X020017Y032721D01*
X019949Y032643D02*
X019855Y032643D01*
X019611Y032412D02*
X018622Y032412D01*
X018622Y032489D02*
X019534Y032489D01*
X019466Y032566D02*
X018622Y032566D01*
X018622Y032643D02*
X019466Y032643D01*
X019466Y032721D02*
X018622Y032721D01*
X018622Y032798D02*
X019466Y032798D01*
X019466Y032875D02*
X018622Y032875D01*
X018622Y032952D02*
X019466Y032952D01*
X019802Y033030D02*
X023994Y033030D01*
X023936Y033107D02*
X019802Y033107D01*
X019802Y033184D02*
X021096Y033184D01*
X020914Y033261D02*
X019802Y033261D01*
X019802Y033339D02*
X020836Y033339D01*
X020759Y033416D02*
X019802Y033416D01*
X019802Y033493D02*
X020717Y033493D01*
X020685Y033570D02*
X019802Y033570D01*
X019802Y033648D02*
X020653Y033648D01*
X020648Y033725D02*
X019802Y033725D01*
X019802Y033802D02*
X020648Y033802D01*
X020648Y033879D02*
X019802Y033879D01*
X019802Y033957D02*
X020249Y033957D01*
X020102Y034034D02*
X019802Y034034D01*
X019802Y034111D02*
X020025Y034111D01*
X019952Y034188D02*
X019802Y034188D01*
X019802Y034265D02*
X019920Y034265D01*
X019888Y034343D02*
X019802Y034343D01*
X019802Y034420D02*
X019861Y034420D01*
X019861Y034497D02*
X019802Y034497D01*
X019802Y034574D02*
X019861Y034574D01*
X019861Y034652D02*
X019802Y034652D01*
X019802Y034729D02*
X019891Y034729D01*
X019923Y034806D02*
X019802Y034806D01*
X019802Y034883D02*
X019955Y034883D01*
X020033Y034961D02*
X019802Y034961D01*
X019802Y035038D02*
X020110Y035038D01*
X020268Y035115D02*
X019802Y035115D01*
X019802Y035192D02*
X025126Y035192D01*
X025126Y035115D02*
X020693Y035115D01*
X020832Y035058D02*
X021006Y034883D01*
X021101Y034655D01*
X021101Y034409D01*
X021089Y034381D01*
X021145Y034404D01*
X021391Y034404D01*
X021619Y034310D01*
X021794Y034135D01*
X021860Y033976D01*
X023542Y033976D01*
X023641Y033877D01*
X024330Y033188D01*
X024330Y029013D01*
X024330Y029090D02*
X025126Y029090D01*
X025126Y029168D02*
X024330Y029168D01*
X024330Y029245D02*
X025126Y029245D01*
X025126Y029322D02*
X024330Y029322D01*
X024330Y029399D02*
X025126Y029399D01*
X025126Y029477D02*
X024330Y029477D01*
X024330Y029554D02*
X025126Y029554D01*
X025126Y029631D02*
X024330Y029631D01*
X024330Y029708D02*
X025126Y029708D01*
X025126Y029786D02*
X024330Y029786D01*
X024330Y029863D02*
X025126Y029863D01*
X025126Y029940D02*
X024330Y029940D01*
X024330Y030017D02*
X025126Y030017D01*
X025126Y030095D02*
X024330Y030095D01*
X024330Y030172D02*
X025126Y030172D01*
X025126Y030249D02*
X024330Y030249D01*
X024330Y030326D02*
X025126Y030326D01*
X025126Y030403D02*
X024330Y030403D01*
X024330Y030481D02*
X025126Y030481D01*
X025126Y030558D02*
X024330Y030558D01*
X024330Y030635D02*
X025126Y030635D01*
X025126Y030712D02*
X024330Y030712D01*
X024330Y030790D02*
X025126Y030790D01*
X025126Y030867D02*
X024330Y030867D01*
X024330Y030944D02*
X025126Y030944D01*
X025126Y031021D02*
X024330Y031021D01*
X024330Y031099D02*
X025126Y031099D01*
X025126Y031176D02*
X024330Y031176D01*
X024330Y031253D02*
X025126Y031253D01*
X025126Y031330D02*
X024330Y031330D01*
X024330Y031408D02*
X025126Y031408D01*
X025126Y031485D02*
X024330Y031485D01*
X024330Y031562D02*
X025126Y031562D01*
X025126Y031639D02*
X024330Y031639D01*
X024330Y031717D02*
X025126Y031717D01*
X025126Y031794D02*
X024330Y031794D01*
X024330Y031871D02*
X025126Y031871D01*
X025126Y031948D02*
X024330Y031948D01*
X024330Y032026D02*
X025126Y032026D01*
X025126Y032103D02*
X024330Y032103D01*
X024330Y032180D02*
X025126Y032180D01*
X025126Y032257D02*
X024330Y032257D01*
X024330Y032334D02*
X025126Y032334D01*
X025126Y032412D02*
X024330Y032412D01*
X024330Y032489D02*
X025126Y032489D01*
X025126Y032566D02*
X024330Y032566D01*
X024330Y032643D02*
X025126Y032643D01*
X025126Y032721D02*
X024330Y032721D01*
X024330Y032798D02*
X025126Y032798D01*
X025126Y032875D02*
X024330Y032875D01*
X024330Y032952D02*
X025126Y032952D01*
X025126Y033030D02*
X024330Y033030D01*
X024330Y033107D02*
X025126Y033107D01*
X025126Y033184D02*
X024330Y033184D01*
X024257Y033261D02*
X025126Y033261D01*
X025126Y033339D02*
X024179Y033339D01*
X024102Y033416D02*
X025126Y033416D01*
X025126Y033493D02*
X024025Y033493D01*
X023948Y033570D02*
X025126Y033570D01*
X025126Y033648D02*
X023870Y033648D01*
X023793Y033725D02*
X025126Y033725D01*
X025126Y033802D02*
X023716Y033802D01*
X023639Y033879D02*
X025126Y033879D01*
X025126Y033957D02*
X023562Y033957D01*
X023472Y033570D02*
X021851Y033570D01*
X021819Y033493D02*
X023549Y033493D01*
X023627Y033416D02*
X021777Y033416D01*
X021700Y033339D02*
X023704Y033339D01*
X023781Y033261D02*
X021623Y033261D01*
X021441Y033184D02*
X023858Y033184D01*
X025126Y034034D02*
X021836Y034034D01*
X021804Y034111D02*
X025126Y034111D01*
X025126Y034188D02*
X021741Y034188D01*
X021663Y034265D02*
X025126Y034265D01*
X025126Y034343D02*
X021539Y034343D01*
X021101Y034420D02*
X025126Y034420D01*
X025126Y034497D02*
X021101Y034497D01*
X021101Y034574D02*
X025126Y034574D01*
X025126Y034652D02*
X021101Y034652D01*
X021070Y034729D02*
X025126Y034729D01*
X025126Y034806D02*
X021038Y034806D01*
X021006Y034883D02*
X025126Y034883D01*
X025126Y034961D02*
X020929Y034961D01*
X020852Y035038D02*
X025126Y035038D01*
X025126Y035270D02*
X019802Y035270D01*
X019837Y035347D02*
X025126Y035347D01*
X025126Y035424D02*
X021526Y035424D01*
X021658Y035501D02*
X025126Y035501D01*
X025126Y035579D02*
X021735Y035579D01*
X021801Y035656D02*
X025126Y035656D01*
X025126Y035733D02*
X021833Y035733D01*
X021865Y035810D02*
X025126Y035810D01*
X025126Y035888D02*
X021888Y035888D01*
X021888Y035965D02*
X025126Y035965D01*
X025126Y036042D02*
X021888Y036042D01*
X021885Y036119D02*
X025126Y036119D01*
X025126Y036197D02*
X021853Y036197D01*
X021821Y036274D02*
X025126Y036274D01*
X025126Y036351D02*
X021783Y036351D01*
X021705Y036428D02*
X025126Y036428D01*
X025126Y036505D02*
X021628Y036505D01*
X021454Y036583D02*
X025126Y036583D01*
X025126Y036660D02*
X021030Y036660D01*
X021062Y036737D02*
X025126Y036737D01*
X025126Y036814D02*
X021094Y036814D01*
X021101Y036892D02*
X025126Y036892D01*
X025126Y036969D02*
X021101Y036969D01*
X021101Y037046D02*
X025126Y037046D01*
X025126Y037123D02*
X021081Y037123D01*
X021049Y037201D02*
X025126Y037201D01*
X025126Y037278D02*
X021017Y037278D01*
X020956Y037355D02*
X025126Y037355D01*
X025126Y037432D02*
X020878Y037432D01*
X020758Y037510D02*
X025126Y037510D01*
X021082Y036583D02*
X020987Y036583D01*
X019688Y032334D02*
X018622Y032334D01*
X018622Y032257D02*
X019766Y032257D01*
X019843Y032180D02*
X018622Y032180D01*
X018622Y032103D02*
X019894Y032103D01*
X019926Y032026D02*
X018622Y032026D01*
X018622Y031948D02*
X019963Y031948D01*
X020040Y031871D02*
X018622Y031871D01*
X018622Y031794D02*
X020117Y031794D01*
X020287Y031717D02*
X018622Y031717D01*
X015827Y031709D02*
X015827Y031107D01*
X015827Y031709D02*
X015796Y031741D01*
X022467Y024224D02*
X022620Y024224D01*
X022607Y024147D02*
X022544Y024147D01*
X023965Y025146D02*
X023965Y028886D01*
X023311Y028395D02*
X023174Y028395D01*
X023230Y028318D02*
X023307Y028318D01*
X023307Y028241D02*
X023258Y028241D01*
X023258Y028164D02*
X023307Y028164D01*
X023307Y028086D02*
X023234Y028086D01*
X023184Y028009D02*
X023307Y028009D01*
X023254Y027932D02*
X023103Y027932D01*
X023103Y027855D02*
X023192Y027855D01*
X023103Y026850D02*
X023112Y026850D01*
X024643Y028395D02*
X025126Y028395D01*
X025126Y028318D02*
X024918Y028318D01*
X024995Y028241D02*
X025126Y028241D01*
X025126Y028164D02*
X025067Y028164D01*
X025067Y028086D02*
X025126Y028086D01*
X025126Y028009D02*
X025067Y028009D01*
X025067Y027932D02*
X025126Y027932D01*
X025126Y027855D02*
X025067Y027855D01*
X025067Y027777D02*
X025126Y027777D01*
X025126Y027700D02*
X025067Y027700D01*
X025067Y027623D02*
X025126Y027623D01*
X025126Y027546D02*
X025067Y027546D01*
X025067Y027468D02*
X025126Y027468D01*
X025126Y027391D02*
X025067Y027391D01*
X025067Y027314D02*
X025126Y027314D01*
X025126Y027237D02*
X025067Y027237D01*
X025067Y027159D02*
X025126Y027159D01*
X025126Y027082D02*
X025067Y027082D01*
X025067Y027005D02*
X025126Y027005D01*
X025126Y026928D02*
X025067Y026928D01*
X025067Y026850D02*
X025126Y026850D01*
X025126Y026773D02*
X025067Y026773D01*
X025067Y026696D02*
X025126Y026696D01*
X025126Y026619D02*
X025067Y026619D01*
X025067Y026541D02*
X025126Y026541D01*
X025126Y026464D02*
X025067Y026464D01*
X025067Y026387D02*
X025126Y026387D01*
X025126Y026310D02*
X025067Y026310D01*
X025067Y026232D02*
X025126Y026232D01*
X025126Y026155D02*
X025067Y026155D01*
X025067Y026078D02*
X025126Y026078D01*
X025126Y026001D02*
X025067Y026001D01*
X025067Y025924D02*
X025126Y025924D01*
X025126Y025846D02*
X025067Y025846D01*
X025067Y025769D02*
X025126Y025769D01*
X025126Y025692D02*
X025067Y025692D01*
X025067Y025615D02*
X025126Y025615D01*
X025126Y025537D02*
X025067Y025537D01*
X025067Y025460D02*
X025126Y025460D01*
X025126Y025383D02*
X025067Y025383D01*
X025067Y025306D02*
X025126Y025306D01*
X025126Y025228D02*
X025067Y025228D01*
X025067Y025151D02*
X025126Y025151D01*
X025126Y025074D02*
X025067Y025074D01*
X025067Y024997D02*
X025126Y024997D01*
X025126Y024919D02*
X025067Y024919D01*
X025067Y024842D02*
X025126Y024842D01*
X025126Y024765D02*
X025067Y024765D01*
X025067Y024688D02*
X025126Y024688D01*
X025126Y024610D02*
X025067Y024610D01*
X025067Y024533D02*
X025126Y024533D01*
X025126Y024456D02*
X025067Y024456D01*
X025067Y024379D02*
X025126Y024379D01*
X025126Y024301D02*
X025067Y024301D01*
X025067Y024224D02*
X025126Y024224D01*
X025126Y024147D02*
X025067Y024147D01*
X025067Y024070D02*
X025126Y024070D01*
X025126Y023993D02*
X025067Y023993D01*
X025067Y023915D02*
X025126Y023915D01*
X025126Y023838D02*
X025067Y023838D01*
X025067Y023761D02*
X025126Y023761D01*
X025126Y023684D02*
X025067Y023684D01*
X025067Y023606D02*
X025126Y023606D01*
X025126Y023529D02*
X025067Y023529D01*
X025067Y023452D02*
X025126Y023452D01*
X025126Y023375D02*
X025067Y023375D01*
X025067Y023297D02*
X025126Y023297D01*
X025126Y023220D02*
X025067Y023220D01*
X025067Y023143D02*
X025126Y023143D01*
X025126Y023066D02*
X025067Y023066D01*
X025067Y022988D02*
X025126Y022988D01*
X025126Y022911D02*
X025067Y022911D01*
X025067Y022834D02*
X025126Y022834D01*
X025126Y022757D02*
X025067Y022757D01*
X025067Y022679D02*
X025126Y022679D01*
X025126Y022602D02*
X025067Y022602D01*
X025067Y022525D02*
X025126Y022525D01*
X025126Y022448D02*
X025067Y022448D01*
X025067Y022370D02*
X025126Y022370D01*
X025126Y022293D02*
X025067Y022293D01*
X025067Y022216D02*
X025126Y022216D01*
X025126Y022139D02*
X025067Y022139D01*
X025067Y022062D02*
X025126Y022062D01*
X025126Y021984D02*
X025067Y021984D01*
X025067Y021907D02*
X025126Y021907D01*
X025126Y021830D02*
X025067Y021830D01*
X025067Y021753D02*
X025126Y021753D01*
X025126Y021675D02*
X025067Y021675D01*
X025067Y021598D02*
X025126Y021598D01*
X025126Y021521D02*
X025067Y021521D01*
X025067Y021444D02*
X025126Y021444D01*
X025126Y021366D02*
X025067Y021366D01*
X025067Y021289D02*
X025126Y021289D01*
X025126Y021212D02*
X025067Y021212D01*
X025067Y021135D02*
X025126Y021135D01*
X025126Y021057D02*
X025067Y021057D01*
X025067Y020980D02*
X025126Y020980D01*
X025126Y020903D02*
X025067Y020903D01*
X025067Y020826D02*
X025126Y020826D01*
X025126Y020748D02*
X025067Y020748D01*
X025067Y020671D02*
X025126Y020671D01*
X025126Y020594D02*
X025067Y020594D01*
X025067Y020517D02*
X025126Y020517D01*
X025126Y020439D02*
X025067Y020439D01*
X025067Y020362D02*
X025126Y020362D01*
X025126Y020285D02*
X025067Y020285D01*
X025067Y020208D02*
X025126Y020208D01*
X025126Y020131D02*
X025067Y020131D01*
X025067Y020053D02*
X025126Y020053D01*
X025126Y019976D02*
X025067Y019976D01*
X025067Y019899D02*
X025126Y019899D01*
X025126Y019822D02*
X025067Y019822D01*
X025067Y019744D02*
X025126Y019744D01*
X025126Y019667D02*
X025067Y019667D01*
X025067Y019590D02*
X025126Y019590D01*
X025126Y019513D02*
X025067Y019513D01*
X025067Y019435D02*
X025126Y019435D01*
X025126Y019358D02*
X025067Y019358D01*
X025067Y019281D02*
X025126Y019281D01*
X025126Y019204D02*
X025067Y019204D01*
X025067Y019126D02*
X025126Y019126D01*
X025126Y019049D02*
X025067Y019049D01*
X025067Y018972D02*
X025126Y018972D01*
X025126Y018895D02*
X025067Y018895D01*
X025067Y018817D02*
X025126Y018817D01*
X025126Y018740D02*
X025067Y018740D01*
X025067Y018663D02*
X025126Y018663D01*
X025126Y018586D02*
X025067Y018586D01*
X025067Y018508D02*
X025126Y018508D01*
X025126Y018431D02*
X025067Y018431D01*
X025067Y018354D02*
X025126Y018354D01*
X025126Y018277D02*
X025067Y018277D01*
X025067Y018199D02*
X025126Y018199D01*
X025126Y018122D02*
X025067Y018122D01*
X025067Y018045D02*
X025126Y018045D01*
X025126Y017968D02*
X025067Y017968D01*
X025067Y017891D02*
X025126Y017891D01*
X025126Y017813D02*
X025067Y017813D01*
X025067Y017736D02*
X025126Y017736D01*
X025126Y017659D02*
X025067Y017659D01*
X025067Y017582D02*
X025126Y017582D01*
X025126Y017504D02*
X025067Y017504D01*
X025067Y017427D02*
X025126Y017427D01*
X025126Y017350D02*
X025067Y017350D01*
X025067Y017273D02*
X025126Y017273D01*
X025126Y017195D02*
X025067Y017195D01*
X025067Y017118D02*
X025126Y017118D01*
X025126Y017041D02*
X025067Y017041D01*
X025067Y016964D02*
X025126Y016964D01*
X025126Y016886D02*
X025067Y016886D01*
X025067Y016809D02*
X025126Y016809D01*
X025126Y016732D02*
X025067Y016732D01*
X025067Y016655D02*
X025126Y016655D01*
X025126Y016577D02*
X025067Y016577D01*
X025067Y016500D02*
X025126Y016500D01*
X025126Y016423D02*
X025067Y016423D01*
X025067Y016346D02*
X025126Y016346D01*
X025126Y016268D02*
X025067Y016268D01*
X025067Y016191D02*
X025126Y016191D01*
X025126Y016114D02*
X025067Y016114D01*
X025067Y016037D02*
X025126Y016037D01*
X025126Y015960D02*
X025067Y015960D01*
X025067Y015882D02*
X025126Y015882D01*
X025126Y015805D02*
X025067Y015805D01*
X025067Y015728D02*
X025126Y015728D01*
X025126Y015651D02*
X025067Y015651D01*
X025067Y015573D02*
X025126Y015573D01*
X025126Y015496D02*
X025067Y015496D01*
X025067Y015419D02*
X025126Y015419D01*
X025126Y015342D02*
X025067Y015342D01*
X025067Y015264D02*
X025126Y015264D01*
X025126Y015187D02*
X025067Y015187D01*
X025067Y015110D02*
X025126Y015110D01*
X025126Y015033D02*
X025067Y015033D01*
X025067Y014955D02*
X025126Y014955D01*
X025126Y014878D02*
X025067Y014878D01*
X025067Y014801D02*
X025126Y014801D01*
X025126Y014724D02*
X025067Y014724D01*
X025067Y014646D02*
X025126Y014646D01*
X025126Y014569D02*
X025067Y014569D01*
X025067Y014492D02*
X025126Y014492D01*
X025126Y014415D02*
X025067Y014415D01*
X025067Y014337D02*
X025126Y014337D01*
X025126Y014260D02*
X025067Y014260D01*
X025067Y014183D02*
X025126Y014183D01*
X025126Y014106D02*
X025067Y014106D01*
X025067Y014029D02*
X025126Y014029D01*
X025126Y013951D02*
X025067Y013951D01*
X025067Y013874D02*
X025126Y013874D01*
X025126Y013797D02*
X025067Y013797D01*
X025067Y013720D02*
X025126Y013720D01*
X025126Y013642D02*
X025067Y013642D01*
X025067Y013565D02*
X025126Y013565D01*
X025126Y013488D02*
X025067Y013488D01*
X025067Y013411D02*
X025126Y013411D01*
X025126Y013333D02*
X025067Y013333D01*
X025067Y013256D02*
X025126Y013256D01*
X025126Y013179D02*
X025067Y013179D01*
X025067Y013102D02*
X025126Y013102D01*
X025126Y013024D02*
X025067Y013024D01*
X025067Y012947D02*
X025126Y012947D01*
X025126Y012870D02*
X025067Y012870D01*
X025067Y012793D02*
X025126Y012793D01*
X025126Y012715D02*
X025067Y012715D01*
X025067Y012638D02*
X025126Y012638D01*
X025126Y012561D02*
X025067Y012561D01*
X025067Y012484D02*
X025126Y012484D01*
X025126Y012406D02*
X025067Y012406D01*
X025067Y012329D02*
X025126Y012329D01*
X025126Y012252D02*
X025067Y012252D01*
X025067Y012175D02*
X025126Y012175D01*
X025126Y012098D02*
X025067Y012098D01*
X025067Y012020D02*
X025126Y012020D01*
X025126Y011943D02*
X025067Y011943D01*
X025067Y011866D02*
X025126Y011866D01*
X025126Y011789D02*
X025067Y011789D01*
X025067Y011711D02*
X025126Y011711D01*
X025126Y011634D02*
X025067Y011634D01*
X025067Y011557D02*
X025126Y011557D01*
X025126Y011480D02*
X025067Y011480D01*
X025067Y011402D02*
X025126Y011402D01*
X025126Y011325D02*
X025067Y011325D01*
X025067Y011248D02*
X025126Y011248D01*
X025126Y011171D02*
X025067Y011171D01*
X025067Y011093D02*
X025126Y011093D01*
X025126Y011016D02*
X025067Y011016D01*
X025067Y010939D02*
X025126Y010939D01*
X025126Y010862D02*
X025067Y010862D01*
X025067Y010784D02*
X025126Y010784D01*
X025126Y010707D02*
X025067Y010707D01*
X025126Y010630D02*
X024991Y010630D01*
X024914Y010553D02*
X025126Y010553D01*
X025126Y010475D02*
X024837Y010475D01*
X024760Y010398D02*
X025126Y010398D01*
X025126Y010321D02*
X024682Y010321D01*
X024605Y010244D02*
X025126Y010244D01*
X025126Y010166D02*
X024528Y010166D01*
X024451Y010089D02*
X025126Y010089D01*
X025126Y010012D02*
X024373Y010012D01*
X024296Y009935D02*
X025126Y009935D01*
X025126Y009858D02*
X024219Y009858D01*
X024142Y009780D02*
X025126Y009780D01*
X025126Y009703D02*
X021568Y009703D01*
X021646Y009626D02*
X025126Y009626D01*
X025126Y009549D02*
X021695Y009549D01*
X021727Y009471D02*
X025126Y009471D01*
X025126Y009394D02*
X021759Y009394D01*
X021770Y009317D02*
X025126Y009317D01*
X025126Y009240D02*
X021770Y009240D01*
X021770Y009162D02*
X025126Y009162D01*
X025126Y009085D02*
X021755Y009085D01*
X021723Y009008D02*
X025126Y009008D01*
X025126Y008931D02*
X021691Y008931D01*
X021636Y008853D02*
X025126Y008853D01*
X025126Y008776D02*
X021559Y008776D01*
X021453Y008699D02*
X025126Y008699D01*
X025126Y008622D02*
X019667Y008622D01*
X019570Y008699D02*
X020847Y008699D01*
X020741Y008776D02*
X019556Y008776D01*
X019556Y008853D02*
X020664Y008853D01*
X020609Y008931D02*
X019556Y008931D01*
X019556Y009008D02*
X020577Y009008D01*
X020545Y009085D02*
X019556Y009085D01*
X019556Y009162D02*
X020530Y009162D01*
X020530Y009240D02*
X019556Y009240D01*
X019556Y009317D02*
X020530Y009317D01*
X020538Y009394D02*
X020541Y009394D01*
X020187Y009394D02*
X019556Y009394D01*
X019556Y009471D02*
X020007Y009471D01*
X019930Y009549D02*
X019556Y009549D01*
X019556Y009626D02*
X019852Y009626D01*
X019811Y009703D02*
X019556Y009703D01*
X019556Y009780D02*
X019779Y009780D01*
X019747Y009858D02*
X019556Y009858D01*
X019556Y009935D02*
X019743Y009935D01*
X019743Y010012D02*
X019556Y010012D01*
X019556Y010089D02*
X019743Y010089D01*
X019763Y010166D02*
X019556Y010166D01*
X019605Y010244D02*
X019795Y010244D01*
X019827Y010321D02*
X019682Y010321D01*
X019760Y010398D02*
X019891Y010398D01*
X019763Y008544D02*
X025126Y008544D01*
X025126Y008467D02*
X019860Y008467D01*
X019956Y008390D02*
X020196Y008390D01*
X020529Y008390D02*
X025126Y008390D01*
X025126Y008313D02*
X020715Y008313D01*
X020792Y008235D02*
X025126Y008235D01*
X025126Y008158D02*
X020869Y008158D01*
X020912Y008081D02*
X025126Y008081D01*
X025126Y008004D02*
X020944Y008004D01*
X020976Y007927D02*
X025126Y007927D01*
X025126Y007849D02*
X020983Y007849D01*
X020983Y007772D02*
X025126Y007772D01*
X025126Y007695D02*
X020983Y007695D01*
X020963Y007618D02*
X025126Y007618D01*
X025126Y007540D02*
X020931Y007540D01*
X020899Y007463D02*
X025126Y007463D01*
X025126Y007386D02*
X021412Y007386D01*
X021542Y007309D02*
X025126Y007309D01*
X025126Y007231D02*
X021619Y007231D01*
X021684Y007154D02*
X025126Y007154D01*
X025126Y007077D02*
X021716Y007077D01*
X021748Y007000D02*
X025126Y007000D01*
X025126Y006922D02*
X021770Y006922D01*
X021770Y006845D02*
X025126Y006845D01*
X025126Y006768D02*
X021770Y006768D01*
X021766Y006691D02*
X025126Y006691D01*
X025126Y006613D02*
X021734Y006613D01*
X021702Y006536D02*
X025126Y006536D01*
X025126Y006459D02*
X021663Y006459D01*
X021585Y006382D02*
X025126Y006382D01*
X025126Y006304D02*
X021508Y006304D01*
X020888Y007386D02*
X020838Y007386D01*
X020028Y013411D02*
X024339Y013411D01*
X024339Y013488D02*
X020028Y013488D01*
X020028Y013565D02*
X024339Y013565D01*
X024339Y013642D02*
X020028Y013642D01*
X020028Y013720D02*
X024339Y013720D01*
X024339Y013797D02*
X020028Y013797D01*
X020028Y013874D02*
X024339Y013874D01*
X024339Y013951D02*
X020028Y013951D01*
X023756Y015882D02*
X023797Y015882D01*
D43*
X023965Y015796D02*
X023571Y015402D01*
X023374Y015402D01*
X023363Y015414D01*
X023363Y015441D01*
X023315Y015394D01*
X023315Y014418D01*
X023965Y015796D02*
X023965Y020717D01*
X023496Y021185D01*
X022735Y021185D01*
X022735Y021685D02*
X022750Y021701D01*
X023670Y021701D01*
X022735Y022185D02*
X022727Y022193D01*
X022193Y022193D01*
X021996Y021996D01*
X021996Y020126D01*
X019634Y017764D01*
X019634Y017390D01*
X019634Y014221D01*
X019634Y013827D01*
X019634Y013807D01*
X018453Y015402D02*
X018453Y016052D01*
X018453Y016721D02*
X018453Y017272D01*
X019044Y017863D01*
X019044Y018355D01*
X019930Y019241D01*
X019930Y020520D01*
X020095Y020685D01*
X020471Y020685D01*
X020471Y020185D02*
X020471Y019782D01*
X020422Y019733D01*
X019536Y019437D02*
X019536Y020914D01*
X020471Y021185D02*
X020989Y021185D01*
X021504Y021701D01*
X021504Y022292D01*
X021307Y022489D01*
X021307Y024556D01*
X021154Y024709D01*
X021154Y026176D01*
X021351Y026176D02*
X021351Y025103D01*
X021504Y024949D01*
X021504Y023276D01*
X021603Y023178D01*
X022727Y023178D01*
X022735Y023185D01*
X022735Y022685D02*
X021800Y022685D01*
X021111Y022981D02*
X021111Y023965D01*
X020815Y024260D01*
X020815Y025048D01*
X020868Y025101D01*
X020868Y026461D01*
X020868Y026658D02*
X020457Y026658D01*
X020422Y026622D01*
X020422Y026229D01*
X019930Y026721D02*
X020063Y026855D01*
X020868Y026855D01*
X020868Y027052D02*
X019500Y027052D01*
X019044Y027508D01*
X018847Y027508D01*
X018650Y027311D01*
X009693Y027311D01*
X008414Y026032D01*
X007134Y026032D01*
X006544Y025441D01*
X006544Y023276D01*
X007233Y022587D01*
X007390Y022587D01*
X008059Y022587D02*
X008315Y022587D01*
X008414Y022489D01*
X008414Y022095D01*
X008512Y021996D01*
X009103Y021996D01*
X009496Y021603D01*
X010678Y021603D01*
X010678Y021800D02*
X009595Y021800D01*
X009201Y022193D01*
X008709Y022193D01*
X008611Y022292D01*
X008611Y023178D01*
X008414Y023374D01*
X008059Y023374D01*
X007390Y023374D02*
X007134Y023374D01*
X006741Y023768D01*
X006741Y025343D01*
X007233Y025835D01*
X008512Y025835D01*
X009792Y027115D01*
X018945Y027115D01*
X018748Y026918D02*
X018945Y026721D01*
X018748Y026918D02*
X009890Y026918D01*
X008611Y025638D01*
X007331Y025638D01*
X006937Y025244D01*
X006937Y024457D01*
X007233Y024162D01*
X007390Y024162D01*
X008059Y024162D02*
X008512Y024162D01*
X008807Y023867D01*
X008807Y022489D01*
X008906Y022390D01*
X009300Y022390D01*
X009693Y021996D01*
X010678Y021996D01*
X010678Y022193D02*
X009792Y022193D01*
X009398Y022587D01*
X009103Y022587D01*
X009004Y022685D01*
X009004Y024654D01*
X008709Y024949D01*
X008059Y024949D01*
X007725Y025441D02*
X008709Y025441D01*
X009989Y026721D01*
X018552Y026721D01*
X018945Y026327D01*
X019241Y026327D01*
X019437Y026032D02*
X019733Y025737D01*
X019733Y024752D01*
X019508Y024528D01*
X018520Y024528D01*
X018520Y024028D02*
X018024Y024028D01*
X017863Y023867D01*
X017863Y022390D01*
X016091Y022390D01*
X015304Y023178D01*
X015304Y025048D01*
X015205Y025146D01*
X012449Y025146D01*
X012351Y025048D01*
X012351Y022882D01*
X012548Y022882D02*
X012548Y024359D01*
X012744Y024556D01*
X012941Y024162D02*
X012744Y023965D01*
X012744Y022882D01*
X013040Y022587D02*
X013040Y023178D01*
X013040Y023571D01*
X013237Y023768D01*
X013532Y023768D01*
X013394Y023670D01*
X014063Y023670D02*
X014516Y023670D01*
X014221Y022587D02*
X014122Y022489D01*
X013729Y022489D01*
X013433Y022193D01*
X013040Y022193D01*
X013040Y022390D02*
X013335Y022390D01*
X013433Y022489D01*
X013433Y022685D01*
X013827Y021957D02*
X013847Y021957D01*
X013886Y021898D01*
X014122Y021603D02*
X014221Y021504D01*
X014221Y021307D01*
X014244Y021307D01*
X014268Y021331D01*
X014122Y021603D02*
X013532Y021603D01*
X013335Y021800D01*
X013040Y021800D01*
X013040Y021603D02*
X011957Y021603D01*
X011859Y021701D01*
X011367Y022193D01*
X011367Y022882D01*
X011367Y023965D01*
X011170Y024162D01*
X010874Y023965D02*
X011170Y023670D01*
X011170Y022882D01*
X010973Y022882D02*
X010973Y023374D01*
X010776Y023571D01*
X010579Y023768D01*
X010579Y024457D01*
X010520Y024556D01*
X010874Y024654D02*
X010874Y023965D01*
X010874Y024654D02*
X010973Y024752D01*
X011170Y024811D01*
X011130Y025441D02*
X010579Y025441D01*
X011130Y025441D02*
X011170Y025481D01*
X011563Y026032D02*
X011662Y026130D01*
X012252Y026130D01*
X012331Y026130D01*
X012252Y026130D02*
X012351Y026229D01*
X015796Y026229D01*
X015845Y026180D01*
X015894Y026130D01*
X015914Y026130D01*
X015402Y025343D02*
X015599Y025146D01*
X015599Y024162D01*
X015733Y024028D01*
X016370Y024028D01*
X017335Y024028D01*
X017370Y024063D01*
X017441Y024528D02*
X017469Y024556D01*
X017469Y025343D01*
X017863Y025737D01*
X017863Y026130D01*
X018158Y026524D02*
X018355Y026327D01*
X018552Y026327D01*
X018847Y026032D01*
X019437Y026032D01*
X019930Y026229D02*
X019930Y026721D01*
X019599Y027248D02*
X019142Y027705D01*
X018748Y027705D01*
X018552Y027508D01*
X009595Y027508D01*
X008315Y026229D01*
X007036Y026229D01*
X006347Y025540D01*
X006347Y022685D01*
X007233Y021800D01*
X007390Y021800D01*
X007725Y021406D02*
X007390Y021071D01*
X007390Y021012D01*
X008059Y021012D02*
X010678Y021012D01*
X010678Y020815D02*
X010579Y020815D01*
X010402Y020638D01*
X010067Y020638D01*
X010048Y020638D01*
X009693Y020028D02*
X009552Y019886D01*
X009552Y019721D01*
X009618Y019654D01*
X010284Y019654D01*
X010284Y019024D02*
X010284Y018985D01*
X010973Y019004D02*
X010973Y018945D01*
X010973Y019674D02*
X010953Y019693D01*
X010953Y019713D01*
X010973Y019693D01*
X011012Y019772D01*
X010973Y019674D01*
X011111Y019674D01*
X011367Y019930D01*
X011367Y020520D01*
X011170Y020520D02*
X011170Y020225D01*
X010973Y020028D01*
X009693Y020028D01*
X009552Y019721D02*
X009520Y019556D01*
X009552Y019670D02*
X009552Y019721D01*
X009552Y018815D02*
X009693Y018674D01*
X009772Y017989D02*
X009949Y017961D01*
X010382Y017370D02*
X010439Y017313D01*
X011056Y017313D01*
X011056Y017057D02*
X010660Y017057D01*
X010343Y016741D01*
X011010Y017569D02*
X010638Y017961D01*
X011056Y016802D02*
X011056Y016500D01*
X011071Y016485D01*
X011118Y016437D01*
X011420Y016437D01*
X011676Y016437D02*
X011676Y015061D01*
X011622Y015008D01*
X011603Y015087D01*
X011603Y014280D01*
X011583Y014339D01*
X011603Y014280D02*
X011622Y014260D01*
X011622Y013473D01*
X011603Y013433D01*
X010914Y014339D02*
X010402Y014339D01*
X010402Y015087D02*
X010933Y015087D01*
X009674Y016741D02*
X009693Y016760D01*
X009693Y016780D01*
X009615Y016701D01*
X008481Y018815D02*
X008056Y018815D01*
X008024Y018847D01*
X008020Y018847D01*
X007981Y018807D01*
X007252Y018807D01*
X007835Y018815D02*
X008056Y018815D01*
X007981Y018741D01*
X008481Y018815D02*
X008611Y018945D01*
X008611Y020126D01*
X008709Y020225D01*
X010776Y020225D01*
X010973Y020422D01*
X010973Y020520D01*
X010678Y021209D02*
X008847Y021209D01*
X008807Y021347D01*
X008807Y021367D01*
X008807Y021307D01*
X009004Y021800D02*
X008059Y021800D01*
X008020Y021800D01*
X008807Y020678D02*
X008807Y020658D01*
X009378Y020638D02*
X009398Y020638D01*
X009418Y020658D01*
X009378Y020638D02*
X009378Y020618D01*
X009398Y021406D02*
X009004Y021800D01*
X009398Y021406D02*
X010678Y021406D01*
X010678Y022390D02*
X010185Y022390D01*
X010087Y022489D01*
X010087Y022941D01*
X010126Y022981D01*
X010678Y023178D02*
X010103Y023752D01*
X010134Y023752D01*
X009465Y023752D02*
X009414Y023752D01*
X009398Y023867D01*
X009398Y025835D01*
X010087Y026524D01*
X018158Y026524D01*
X017469Y025933D02*
X017272Y025737D01*
X011957Y025737D01*
X011760Y025540D01*
X011760Y022882D01*
X011563Y022882D02*
X011563Y026032D01*
X012056Y025540D02*
X017272Y025540D01*
X017469Y025343D01*
X017174Y025048D02*
X017154Y025028D01*
X016370Y025028D01*
X016370Y024528D02*
X017441Y024528D01*
X017134Y022981D02*
X016741Y023020D01*
X016386Y023079D01*
X016370Y023063D01*
X016370Y023028D01*
X016386Y022095D02*
X015894Y022095D01*
X015205Y022784D01*
X013729Y021209D02*
X013433Y021406D01*
X013040Y021406D01*
X013040Y021603D01*
X013040Y020815D02*
X013040Y020717D01*
X013237Y020520D01*
X013433Y020520D01*
X014280Y020520D01*
X013926Y019870D02*
X013768Y019870D01*
X013729Y019831D01*
X013433Y020225D01*
X013040Y020225D01*
X012843Y020520D01*
X012744Y020520D01*
X012351Y020520D02*
X012154Y020520D01*
X011957Y020520D01*
X012154Y021406D02*
X011957Y021603D01*
X011957Y021701D02*
X012252Y021406D01*
X012154Y022882D02*
X012154Y025244D01*
X012252Y025343D01*
X015402Y025343D01*
X016878Y028000D02*
X016260Y028618D01*
X016260Y031107D01*
X015394Y031107D02*
X015394Y029485D01*
X015796Y029083D01*
X015205Y028689D02*
X014961Y029032D01*
X014961Y031107D01*
X017126Y031107D02*
X017126Y028441D01*
X017469Y028099D01*
X018355Y028197D02*
X018355Y028296D01*
X018945Y028886D01*
X020914Y028886D01*
X021351Y028449D01*
X021351Y028124D01*
X021548Y028124D02*
X021548Y028548D01*
X021307Y028788D01*
X021307Y028985D01*
X021701Y028788D02*
X021744Y028744D01*
X021744Y028124D01*
X021941Y028437D02*
X021996Y028493D01*
X022335Y028536D02*
X022335Y028124D01*
X022335Y028536D02*
X022489Y028689D01*
X022981Y028197D02*
X022817Y028034D01*
X022817Y027839D01*
X022817Y027642D02*
X023237Y027642D01*
X023642Y028146D01*
X023556Y027445D02*
X023642Y027359D01*
X023556Y027445D02*
X022817Y027445D01*
X022817Y026658D02*
X023241Y026658D01*
X023276Y026622D01*
X022817Y026461D02*
X022817Y026097D01*
X022981Y025933D01*
X023571Y025933D01*
X022981Y025973D02*
X022817Y026136D01*
X022817Y026461D01*
X022138Y026176D02*
X022138Y025890D01*
X022489Y025540D01*
X022489Y024851D01*
X022587Y024752D01*
X022941Y024752D01*
X022981Y024752D01*
X022981Y025304D02*
X023532Y025304D01*
X023473Y025244D01*
X023611Y024792D02*
X023965Y025146D01*
X023611Y024792D02*
X023611Y024752D01*
X023611Y023965D02*
X024201Y023965D01*
X022941Y023965D02*
X022489Y023965D01*
X022292Y024162D01*
X022292Y025441D01*
X021941Y025792D01*
X021941Y026176D01*
X021744Y026176D02*
X021744Y025595D01*
X021898Y025441D01*
X021548Y025398D02*
X021898Y025048D01*
X021548Y025398D02*
X021548Y026176D01*
X020868Y027248D02*
X019599Y027248D01*
X019894Y027445D02*
X019733Y027607D01*
X019894Y027445D02*
X020868Y027445D01*
X020868Y027642D02*
X020288Y027642D01*
X020028Y027902D01*
X019831Y027902D01*
X019733Y028000D01*
X019733Y028493D02*
X020386Y027839D01*
X020868Y027839D01*
X023965Y028886D02*
X024162Y029083D01*
X024162Y033118D01*
X023473Y033807D01*
X021496Y033807D01*
X021268Y033784D01*
X020520Y034532D01*
X020481Y034532D01*
X019634Y035382D02*
X020241Y035989D01*
X021268Y035989D01*
X019634Y035382D02*
X019634Y032626D01*
X019953Y032307D01*
X020481Y032307D01*
X024300Y028158D02*
X024311Y028146D01*
X021111Y022981D02*
X020815Y022685D01*
X020471Y022685D01*
X019831Y022685D01*
X019536Y022390D01*
X018945Y022587D02*
X019536Y023178D01*
X020463Y023178D01*
X020471Y023185D01*
X020422Y023235D01*
X020422Y023670D01*
X019241Y023374D02*
X019193Y023422D01*
X018552Y022095D02*
X020380Y022095D01*
X020471Y021685D02*
X018174Y021685D01*
X017863Y021996D01*
X017863Y022390D01*
X019536Y019437D02*
X019217Y019118D01*
X018154Y019118D01*
X016465Y016819D02*
X016426Y016819D01*
X016445Y016800D01*
X016465Y016800D01*
X016426Y016819D02*
X015697Y016819D01*
X015678Y016800D01*
X015697Y016780D01*
X016071Y017154D01*
X016071Y017311D01*
X015678Y016800D02*
X015658Y016800D01*
X015638Y016780D01*
X015678Y016741D01*
X015638Y016780D02*
X015617Y016802D01*
X012552Y016802D01*
X012552Y017313D02*
X012802Y017313D01*
X013040Y017075D01*
X013433Y017075D01*
X013512Y017154D01*
X013512Y017292D01*
X013556Y017248D01*
X013654Y017244D01*
X013552Y017331D02*
X013512Y017292D01*
X013355Y017587D02*
X013138Y017370D01*
X012941Y017567D01*
X012845Y017567D01*
X012843Y017569D01*
X012939Y017569D01*
X012843Y017569D02*
X012552Y017569D01*
X012187Y017933D02*
X013130Y017933D01*
X013138Y018059D01*
X013178Y018020D01*
X013827Y018020D01*
X014083Y018020D01*
X014654Y018591D01*
X014674Y018571D01*
X014792Y017587D02*
X013355Y017587D01*
X013158Y017370D02*
X013138Y017370D01*
X011937Y017939D02*
X011931Y017933D01*
X013158Y019181D02*
X013158Y019201D01*
X014792Y017587D02*
X015087Y017292D01*
X015205Y017272D01*
X015166Y016130D02*
X015126Y016091D01*
X015697Y015618D02*
X015717Y015599D01*
X016504Y015599D02*
X016524Y015618D01*
X017056Y016130D02*
X017095Y016091D01*
X013512Y014221D02*
X012941Y014221D01*
X012292Y012390D02*
X012292Y012272D01*
X012311Y009713D02*
X012252Y009654D01*
X012252Y009634D01*
X008209Y019721D02*
X008020Y019713D01*
X008056Y019721D02*
X008209Y019721D01*
X010678Y022587D02*
X010678Y023178D01*
X011957Y022882D02*
X011957Y025441D01*
X012056Y025540D01*
X012331Y027902D02*
X012351Y027902D01*
X012351Y028493D01*
X011406Y028851D02*
X010615Y028851D01*
X010481Y028985D01*
X010449Y028985D01*
X010445Y028989D01*
X010481Y028985D02*
X010382Y029083D01*
X009422Y029059D02*
X009398Y029083D01*
X009422Y029059D02*
X009422Y028989D01*
X009422Y028764D01*
X011367Y029575D02*
X011406Y029536D01*
X011406Y029520D02*
X011406Y029615D01*
X009398Y032036D02*
X009398Y032945D01*
X009292Y032945D01*
X009296Y033611D02*
X009292Y033615D01*
X009296Y033611D02*
X009300Y033611D01*
X009300Y034142D01*
X009241Y034142D01*
X009713Y034122D02*
X009693Y034004D01*
X009713Y034122D02*
X009713Y035307D01*
X009969Y035307D02*
X009969Y034221D01*
X010185Y034004D01*
X009300Y032134D02*
X009398Y032036D01*
X007784Y032843D02*
X007764Y033355D01*
X007725Y025441D02*
X007390Y025107D01*
X007390Y024949D01*
X009989Y025048D02*
X009989Y025441D01*
X021681Y018237D02*
X022115Y018237D01*
X022390Y017961D01*
X022363Y017933D01*
X022363Y017922D01*
X022646Y017922D01*
X022882Y018158D01*
X022882Y018453D01*
X023473Y019044D01*
X023473Y020520D01*
X023307Y020685D01*
X022735Y020685D01*
X022735Y020185D02*
X022735Y019880D01*
X022744Y019536D01*
D44*
X022744Y019536D03*
X022095Y019516D03*
X022036Y018748D03*
X022725Y018748D03*
X023374Y017863D03*
X022292Y015402D03*
X022587Y014418D03*
X021406Y013729D03*
X021406Y017370D03*
X021012Y018256D03*
X020422Y019733D03*
X019536Y020914D03*
X019536Y022390D03*
X018945Y022587D03*
X018355Y022587D03*
X018552Y022095D03*
X017370Y023473D03*
X017134Y022981D03*
X017370Y024063D03*
X017469Y024556D03*
X017174Y025048D03*
X017469Y025933D03*
X017863Y026130D03*
X018355Y026327D03*
X018945Y026721D03*
X018945Y027115D03*
X019241Y026327D03*
X019930Y026229D03*
X020422Y026229D03*
X020815Y025048D03*
X021504Y024949D03*
X021898Y025048D03*
X021898Y025441D03*
X021843Y026658D03*
X021843Y027150D03*
X022335Y027150D03*
X021843Y027642D03*
X021351Y027150D03*
X020520Y028394D03*
X019733Y028493D03*
X019733Y028000D03*
X019733Y027607D03*
X019044Y028197D03*
X018355Y028197D03*
X017469Y028099D03*
X016878Y028000D03*
X015914Y027882D03*
X015205Y028689D03*
X015796Y029083D03*
X013886Y029378D03*
X012351Y028493D03*
X012351Y027902D03*
X011898Y029378D03*
X011406Y029536D03*
X010382Y030756D03*
X010382Y031248D03*
X010382Y031642D03*
X010382Y032036D03*
X009890Y032036D03*
X009890Y031642D03*
X009890Y031248D03*
X009890Y030756D03*
X009398Y030756D03*
X008906Y030756D03*
X008906Y031248D03*
X008906Y031642D03*
X008906Y032036D03*
X009398Y032036D03*
X009398Y031642D03*
X009398Y031248D03*
X009398Y030166D03*
X009398Y029674D03*
X009398Y028985D03*
X009398Y028296D03*
X008512Y028296D03*
X008512Y028788D03*
X008512Y029181D03*
X008118Y029181D03*
X008118Y028788D03*
X008020Y028296D03*
X007626Y028493D03*
X007626Y028985D03*
X007626Y029477D03*
X008020Y029674D03*
X008512Y029674D03*
X008414Y030756D03*
X008414Y031248D03*
X008414Y031642D03*
X008414Y032036D03*
X007784Y032154D03*
X007784Y032863D03*
X007725Y031642D03*
X007725Y031248D03*
X009693Y034004D03*
X010185Y034004D03*
X008807Y034693D03*
X008020Y035776D03*
X008414Y036268D03*
X008020Y036563D03*
X008217Y037154D03*
X007430Y036760D03*
X007430Y036170D03*
X009201Y036465D03*
X009201Y037154D03*
X010185Y037154D03*
X010185Y036465D03*
X010973Y036563D03*
X011170Y037154D03*
X011367Y036268D03*
X011367Y035776D03*
X011957Y036170D03*
X011957Y036760D03*
X010973Y031642D03*
X010973Y031248D03*
X009989Y025048D03*
X009851Y024556D03*
X010776Y023571D03*
X011170Y024162D03*
X010087Y022489D03*
X009457Y022981D03*
X008807Y021367D03*
X008807Y020658D03*
X009398Y020638D03*
X010067Y020638D03*
X010973Y019693D03*
X010973Y019004D03*
X010284Y018985D03*
X009496Y018827D03*
X009949Y017961D03*
X010382Y017370D03*
X010638Y017961D03*
X011071Y016485D03*
X011607Y016989D03*
X011607Y017382D03*
X012000Y017382D03*
X012000Y016989D03*
X012469Y016288D03*
X013158Y017370D03*
X013178Y018709D03*
X013158Y019181D03*
X012548Y019339D03*
X012548Y020028D03*
X012449Y021111D03*
X011859Y021701D03*
X012449Y022292D03*
X013433Y022685D03*
X013729Y023178D03*
X013040Y023178D03*
X012941Y024162D03*
X012744Y024556D03*
X014122Y024654D03*
X014811Y024654D03*
X015599Y025146D03*
X014516Y023670D03*
X014516Y022981D03*
X014221Y022587D03*
X014536Y021957D03*
X013827Y021957D03*
X013827Y021268D03*
X013433Y020520D03*
X013906Y019181D03*
X013827Y018709D03*
X014319Y017252D03*
X015205Y017941D03*
X015343Y018571D03*
X016071Y017981D03*
X015678Y016111D03*
X015717Y015599D03*
X015126Y016091D03*
X016465Y016111D03*
X016504Y015599D03*
X017095Y016091D03*
X014969Y020520D03*
X014949Y021347D03*
X015205Y022784D03*
X016386Y022095D03*
X017174Y021504D03*
X019733Y024752D03*
X020323Y024260D03*
X020422Y023670D03*
X021800Y022685D03*
X021406Y020618D03*
X023670Y021701D03*
X023768Y022587D03*
X024201Y023965D03*
X023276Y024359D03*
X023473Y025244D03*
X023571Y025933D03*
X023276Y026622D03*
X023670Y026918D03*
X022981Y028197D03*
X023217Y028689D03*
X023217Y029477D03*
X023217Y030304D03*
X022489Y030304D03*
X022489Y029477D03*
X022489Y028689D03*
X022056Y028552D03*
X021701Y028788D03*
X021307Y028985D03*
X021780Y029930D03*
X015796Y031741D03*
X011268Y022292D03*
X011268Y021111D03*
X009674Y016741D03*
X010402Y015087D03*
X010894Y015087D03*
X010894Y015579D03*
X010894Y014339D03*
X010402Y014339D03*
X010914Y013433D03*
X013020Y013630D03*
X012981Y014221D03*
X013020Y014713D03*
X013512Y014221D03*
X013020Y011662D03*
X012981Y011071D03*
X013512Y011071D03*
X013512Y010284D03*
X012981Y010284D03*
X013020Y009693D03*
X013217Y008709D03*
X013217Y008118D03*
X013217Y007626D03*
X013217Y007134D03*
X013906Y007626D03*
X013906Y008315D03*
X011248Y008118D03*
X011248Y007626D03*
X011248Y007134D03*
X010559Y007725D03*
X010559Y008315D03*
X011248Y008709D03*
X007252Y019477D03*
X008020Y019713D03*
X007725Y021406D03*
D45*
X010618Y017961D02*
X010638Y017961D01*
X010678Y017961D01*
X011010Y017569D02*
X011056Y017569D01*
X011420Y017933D02*
X011420Y018605D01*
X011563Y018748D01*
X011563Y020520D01*
X011760Y020520D02*
X011760Y018729D01*
X011937Y018552D01*
X011937Y017939D01*
X012705Y019870D02*
X012548Y020028D01*
X012351Y020225D01*
X012351Y020520D01*
X012705Y019870D02*
X013158Y019870D01*
X013827Y021898D02*
X013827Y021957D01*
X013827Y021996D01*
X013040Y021996D01*
X014516Y021957D02*
X014575Y022016D01*
X014536Y021957D01*
X014516Y021957D02*
X014615Y021996D01*
X014930Y021347D02*
X014949Y021347D01*
X014937Y021319D01*
X014937Y021331D01*
X014949Y020520D02*
X014969Y020520D01*
X010933Y013433D02*
X010914Y013433D01*
X010874Y013433D01*
X008319Y028989D02*
X008414Y029083D01*
X008315Y029083D01*
X008217Y028985D01*
X008315Y029083D02*
X008020Y029083D01*
X008315Y029083D02*
X008414Y029181D01*
X008414Y029280D01*
X008512Y029181D01*
X008414Y029083D01*
X008315Y029181D01*
X010284Y034398D02*
X010225Y034457D01*
X010225Y035307D01*
D46*
X010284Y034398D02*
X011563Y033118D01*
X011563Y030756D01*
X010445Y029638D01*
X010445Y028989D01*
X012272Y013591D02*
X012292Y013571D01*
X012292Y011091D02*
X012311Y011071D01*
X019339Y010284D02*
X019339Y008607D01*
X020363Y007788D01*
X021111Y009244D02*
X020363Y009993D01*
X024048Y009993D01*
X024851Y010796D01*
X024851Y028079D01*
X024772Y028158D01*
X024300Y028158D01*
X024323Y027370D02*
X024311Y027359D01*
X024323Y027370D02*
X024437Y027370D01*
X024556Y027252D01*
X024556Y010973D01*
X023965Y010382D01*
X021111Y010382D01*
X020815Y010678D01*
X021150Y011012D01*
X021150Y011469D01*
X020815Y010678D02*
X019733Y010678D01*
X019339Y010284D01*
X021111Y009244D02*
X021150Y009244D01*
D47*
X012311Y009713D02*
X012311Y010284D01*
X012311Y011071D01*
X012292Y011091D02*
X012292Y011721D01*
X012292Y012390D02*
X012292Y012902D01*
X012272Y013591D02*
X012272Y014221D01*
X012272Y014910D01*
X012272Y015579D02*
X011931Y015920D01*
X011931Y016437D01*
X012252Y008965D02*
X012209Y008922D01*
X012209Y007713D01*
M02*
