%
M48
M72
T01C0.0157
T02C0.0400
T03C0.0669
%
T01
X10402Y14339
X10894Y14339
X10894Y15087
X10894Y15579
X10402Y15087
X11071Y16485
X11607Y16989
X11607Y17382
X12000Y17382
X12000Y16989
X12469Y16288
X13158Y17370
X13178Y18709
X13158Y19181
X12548Y19339
X12548Y20028
X12449Y21111
X11859Y21701
X12449Y22292
X13433Y22685
X13729Y23178
X13040Y23178
X12941Y24162
X12744Y24556
X14122Y24654
X14811Y24654
X15599Y25146
X14516Y23670
X14516Y22981
X14221Y22587
X14536Y21957
X13827Y21957
X13827Y21268
X13433Y20520
X13906Y19181
X13827Y18709
X14319Y17252
X15205Y17941
X15343Y18571
X16071Y17981
X15678Y16111
X15717Y15599
X15126Y16091
X16465Y16111
X16504Y15599
X17095Y16091
X14969Y20520
X14949Y21347
X15205Y22784
X16386Y22095
X17174Y21504
X17134Y22981
X17370Y23473
X17370Y24063
X17469Y24556
X17174Y25048
X17469Y25933
X17863Y26130
X18355Y26327
X18945Y26721
X18945Y27115
X19241Y26327
X19930Y26229
X20422Y26229
X20815Y25048
X21504Y24949
X21898Y25048
X21898Y25441
X21843Y26658
X21843Y27150
X22335Y27150
X21843Y27642
X21351Y27150
X20520Y28394
X19733Y28493
X19733Y28000
X19733Y27607
X19044Y28197
X18355Y28197
X17469Y28099
X16878Y28000
X15914Y27882
X15205Y28689
X15796Y29083
X13886Y29378
X12351Y28493
X12351Y27902
X11898Y29378
X11406Y29536
X10382Y30756
X10382Y31248
X10382Y31642
X10382Y32036
X9890Y32036
X9890Y31642
X9890Y31248
X9890Y30756
X9398Y30756
X8906Y30756
X8906Y31248
X8906Y31642
X8906Y32036
X9398Y32036
X9398Y31642
X9398Y31248
X9398Y30166
X9398Y29674
X9398Y28985
X9398Y28296
X8512Y28296
X8512Y28788
X8512Y29181
X8118Y29181
X8118Y28788
X8020Y28296
X7626Y28493
X7626Y28985
X7626Y29477
X8020Y29674
X8512Y29674
X8414Y30756
X8414Y31248
X8414Y31642
X8414Y32036
X7784Y32154
X7784Y32863
X7725Y31642
X7725Y31248
X9693Y34004
X10185Y34004
X8807Y34693
X8020Y35776
X8414Y36268
X8020Y36563
X8217Y37154
X7430Y36760
X7430Y36170
X9201Y36465
X9201Y37154
X10185Y37154
X10185Y36465
X10973Y36563
X11170Y37154
X11367Y36268
X11367Y35776
X11957Y36170
X11957Y36760
X10973Y31642
X10973Y31248
X9989Y25048
X9851Y24556
X10776Y23571
X11170Y24162
X10087Y22489
X9457Y22981
X8807Y21367
X8807Y20658
X9398Y20638
X10067Y20638
X10973Y19693
X10973Y19004
X10284Y18985
X9496Y18827
X9949Y17961
X10382Y17370
X10638Y17961
X9674Y16741
X8020Y19713
X7252Y19477
X7725Y21406
X11268Y21111
X11268Y22292
X13020Y14713
X12981Y14221
X13512Y14221
X13020Y13630
X13020Y11662
X12981Y11071
X13512Y11071
X13512Y10284
X12981Y10284
X13020Y9693
X13217Y8709
X13217Y8118
X13217Y7626
X13217Y7134
X13906Y7626
X13906Y8315
X11248Y8118
X11248Y7626
X11248Y7134
X10559Y7725
X10559Y8315
X11248Y8709
X10914Y13433
X18552Y22095
X18355Y22587
X18945Y22587
X19536Y22390
X20422Y23670
X20323Y24260
X19733Y24752
X21800Y22685
X21406Y20618
X22095Y19516
X22744Y19536
X22725Y18748
X23374Y17863
X22036Y18748
X21406Y17370
X21012Y18256
X20422Y19733
X19536Y20914
X23276Y24359
X23473Y25244
X23571Y25933
X23276Y26622
X23670Y26918
X22981Y28197
X23217Y28689
X23217Y29477
X23217Y30304
X22489Y30304
X22489Y29477
X22489Y28689
X22056Y28552
X21701Y28788
X21307Y28985
X21780Y29930
X24201Y23965
X23768Y22587
X23670Y21701
X22292Y15402
X22587Y14418
X21406Y13729
X15796Y31741
T02
X17154Y20118
X17154Y19118
X17154Y18118
X18154Y18118
X18154Y19118
X18154Y20118
T03
X21150Y11469
X20363Y9993
X21150Y9244
X20363Y7788
X21150Y6823
X20481Y32307
X21268Y33784
X20481Y34532
X21268Y35989
X20481Y36953
M30
