G75*
G70*
%OFA0B0*%
%FSLAX24Y24*%
%IPPOS*%
%LPD*%
%AMOC8*
5,1,8,0,0,1.08239X$1,22.5*
%
%ADD10R,0.1673X0.0591*%
%ADD11R,0.0394X0.0394*%
%ADD12R,0.0276X0.0098*%
%ADD13R,0.0098X0.0276*%
%ADD14C,0.0122*%
%ADD15R,0.0591X0.0433*%
%ADD16R,0.1378X0.1299*%
%ADD17R,0.0354X0.0315*%
%ADD18R,0.0394X0.0650*%
%ADD19R,0.0650X0.0394*%
%ADD20C,0.0317*%
%ADD21C,0.0079*%
%ADD22C,0.0118*%
%ADD23C,0.0157*%
%ADD24C,0.0197*%
%ADD25C,0.0394*%
D10*
X021373Y035950D03*
X021373Y037950D03*
D11*
X028656Y037639D03*
X029050Y037049D03*
X029444Y037639D03*
X029837Y037049D03*
X029542Y036261D03*
X030330Y036261D03*
X030822Y036261D03*
X031609Y036261D03*
X032101Y036261D03*
X032889Y036261D03*
X033381Y036557D03*
X034168Y036557D03*
X034660Y036557D03*
X034857Y037147D03*
X034070Y037147D03*
X034070Y037935D03*
X034857Y037935D03*
X034660Y038722D03*
X035251Y038919D03*
X034660Y039509D03*
X035251Y039706D03*
X035152Y040297D03*
X034660Y040297D03*
X033873Y040297D03*
X033873Y039509D03*
X033873Y038722D03*
X035940Y040297D03*
X035448Y036557D03*
X034168Y035769D03*
X033381Y035769D03*
X029444Y038427D03*
X029444Y039214D03*
X029444Y040002D03*
X030034Y040198D03*
X030822Y040198D03*
X028656Y040002D03*
X028656Y039214D03*
X028656Y038427D03*
D12*
X030861Y038525D03*
X030861Y038328D03*
X030861Y038131D03*
X030861Y038722D03*
X030861Y038919D03*
X030861Y039116D03*
X030861Y039313D03*
X030861Y039509D03*
X032849Y039509D03*
X032849Y039313D03*
X032849Y039116D03*
X032849Y038919D03*
X032849Y038722D03*
X032849Y038525D03*
X032849Y038328D03*
X032849Y038131D03*
D13*
X032593Y037777D03*
X032396Y037777D03*
X032200Y037777D03*
X032003Y037777D03*
X031806Y037777D03*
X031609Y037777D03*
X031412Y037777D03*
X031215Y037777D03*
X031215Y039864D03*
X031412Y039864D03*
X031609Y039864D03*
X031806Y039864D03*
X032003Y039864D03*
X032200Y039864D03*
X032396Y039864D03*
X032593Y039864D03*
D14*
X032453Y039369D02*
X031355Y039369D01*
X032453Y039369D02*
X032453Y038271D01*
X031355Y038271D01*
X031355Y039369D01*
X031355Y038392D02*
X032453Y038392D01*
X032453Y038513D02*
X031355Y038513D01*
X031355Y038634D02*
X032453Y038634D01*
X032453Y038755D02*
X031355Y038755D01*
X031355Y038876D02*
X032453Y038876D01*
X032453Y038997D02*
X031355Y038997D01*
X031355Y039118D02*
X032453Y039118D01*
X032453Y039239D02*
X031355Y039239D01*
X031355Y039360D02*
X032453Y039360D01*
D15*
X026688Y037147D03*
X026688Y036557D03*
X025507Y036557D03*
X025507Y037147D03*
X041648Y037147D03*
X041648Y036557D03*
X042830Y036557D03*
X042830Y037147D03*
X042830Y005454D03*
X042830Y004864D03*
X041648Y004864D03*
X041648Y005454D03*
X026688Y005454D03*
X026688Y004864D03*
X025507Y004864D03*
X025507Y005454D03*
D16*
X025113Y005887D03*
X025113Y004431D03*
X027081Y004431D03*
X027081Y005887D03*
X041255Y005887D03*
X041255Y004431D03*
X043223Y004431D03*
X043223Y005887D03*
X043223Y036124D03*
X043223Y037580D03*
X041255Y037580D03*
X041255Y036124D03*
X027081Y036124D03*
X027081Y037580D03*
X025113Y037580D03*
X025113Y036124D03*
D17*
X036038Y005435D03*
X036038Y004687D03*
X036038Y004155D03*
X036038Y003407D03*
X036038Y002876D03*
X036038Y002128D03*
X036865Y002502D03*
X036865Y003781D03*
X036865Y005061D03*
X032101Y004943D03*
X032101Y004194D03*
X032101Y003663D03*
X032101Y002915D03*
X032101Y002383D03*
X032101Y001635D03*
X031274Y002009D03*
X031274Y003289D03*
X031274Y004569D03*
D18*
X036924Y038181D03*
X037711Y038181D03*
X038499Y038181D03*
X039286Y038181D03*
X040074Y038181D03*
X040074Y040051D03*
X039286Y040051D03*
X038499Y040051D03*
X037711Y040051D03*
X036924Y040051D03*
D19*
X035005Y005651D03*
X035005Y004864D03*
X035005Y004076D03*
X035005Y003289D03*
X035005Y002502D03*
X033135Y002502D03*
X033135Y003289D03*
X033135Y004076D03*
X033135Y004864D03*
X033135Y005651D03*
D20*
X031274Y005907D03*
X031117Y006340D03*
X028952Y006340D03*
X028755Y005946D03*
X029148Y003781D03*
X028164Y003486D03*
X029837Y002502D03*
X026097Y005257D03*
X026097Y007423D03*
X021767Y007324D03*
X021767Y006537D03*
X019503Y006537D03*
X019404Y008210D03*
X020684Y009096D03*
X020487Y010671D03*
X020487Y011458D03*
X020093Y011950D03*
X019306Y011950D03*
X018519Y012639D03*
X019503Y013230D03*
X020585Y014313D03*
X020979Y014706D03*
X021373Y014706D03*
X021767Y014706D03*
X021767Y014313D03*
X021767Y015100D03*
X021767Y015494D03*
X021373Y016773D03*
X020684Y017069D03*
X020192Y016970D03*
X019700Y017069D03*
X019207Y016576D03*
X018715Y015887D03*
X017731Y016675D03*
X017436Y016970D03*
X017239Y017364D03*
X016845Y017856D03*
X016255Y018250D03*
X016255Y019037D03*
X015467Y019037D03*
X015763Y019824D03*
X014975Y019824D03*
X014975Y019037D03*
X014188Y019037D03*
X014188Y019824D03*
X014483Y020415D03*
X013696Y020513D03*
X012908Y020513D03*
X012711Y021301D03*
X013499Y021301D03*
X014483Y021202D03*
X015763Y021301D03*
X015763Y021793D03*
X015861Y020809D03*
X016747Y019824D03*
X016944Y019332D03*
X018026Y019234D03*
X018223Y018840D03*
X019011Y019234D03*
X019798Y019234D03*
X020389Y019726D03*
X020684Y019234D03*
X021373Y019234D03*
X021373Y018446D03*
X020684Y018446D03*
X020684Y017856D03*
X020093Y018446D03*
X019700Y017856D03*
X019306Y018446D03*
X019011Y017659D03*
X020093Y016478D03*
X018125Y014116D03*
X017141Y013919D03*
X016353Y013919D03*
X015861Y013525D03*
X016353Y013131D03*
X015467Y012443D03*
X015664Y011261D03*
X015172Y010671D03*
X015664Y010080D03*
X015664Y009588D03*
X015664Y008801D03*
X017239Y008604D03*
X017239Y007817D03*
X017239Y010277D03*
X018912Y010671D03*
X019700Y010671D03*
X020881Y011950D03*
X021274Y011458D03*
X020881Y012738D03*
X020782Y013230D03*
X022062Y013131D03*
X016452Y016773D03*
X015664Y016773D03*
X015172Y016773D03*
X014385Y016773D03*
X013893Y016872D03*
X012613Y016675D03*
X012416Y017561D03*
X012613Y018053D03*
X012613Y018643D03*
X012613Y019332D03*
X011629Y019529D03*
X010841Y019037D03*
X010152Y018643D03*
X009562Y019135D03*
X008774Y019529D03*
X008578Y020710D03*
X008578Y021498D03*
X008774Y022383D03*
X009463Y023171D03*
X009562Y023958D03*
X010448Y023860D03*
X010448Y023072D03*
X011137Y023171D03*
X012515Y022679D03*
X013302Y022679D03*
X014106Y024566D03*
X013516Y025156D03*
X014072Y025713D03*
X014778Y025730D03*
X014663Y025122D03*
X015270Y024943D03*
X016058Y024943D03*
X016550Y024844D03*
X015763Y024155D03*
X016255Y023368D03*
X017042Y023368D03*
X018125Y022876D03*
X018420Y022482D03*
X018715Y022777D03*
X018814Y023269D03*
X019207Y022876D03*
X019207Y023663D03*
X019995Y023761D03*
X019995Y024549D03*
X018814Y024844D03*
X018814Y025435D03*
X018814Y026025D03*
X018223Y026025D03*
X018223Y025435D03*
X018223Y024844D03*
X017633Y024844D03*
X017633Y025435D03*
X017633Y026025D03*
X016550Y026517D03*
X015763Y026517D03*
X016550Y027895D03*
X016156Y028486D03*
X015664Y028092D03*
X015369Y029175D03*
X016156Y029273D03*
X016058Y029864D03*
X016845Y029864D03*
X016944Y029273D03*
X016944Y028486D03*
X017337Y027895D03*
X017928Y027994D03*
X017928Y027206D03*
X019011Y027403D03*
X019011Y028191D03*
X019798Y028584D03*
X019601Y029667D03*
X019995Y029765D03*
X020585Y029962D03*
X021373Y029962D03*
X021963Y028486D03*
X021274Y027797D03*
X020881Y026911D03*
X020881Y026124D03*
X020093Y026124D03*
X020093Y026911D03*
X021865Y025828D03*
X021570Y023761D03*
X020389Y022482D03*
X019601Y021596D03*
X019601Y021104D03*
X019207Y020415D03*
X018617Y020317D03*
X018125Y019824D03*
X018026Y021301D03*
X018814Y021596D03*
X017830Y022187D03*
X017436Y022187D03*
X020684Y020415D03*
X014975Y018250D03*
X011924Y015887D03*
X011333Y016084D03*
X010251Y014116D03*
X010152Y013624D03*
X010152Y013230D03*
X010152Y012836D03*
X010251Y012443D03*
X010644Y012344D03*
X011333Y012344D03*
X011629Y012836D03*
X012219Y012738D03*
X012711Y013525D03*
X012711Y013919D03*
X013696Y011360D03*
X013696Y010572D03*
X011333Y010179D03*
X010546Y010179D03*
X010546Y010966D03*
X011333Y010966D03*
X009562Y009883D03*
X008085Y009883D03*
X007396Y010671D03*
X007101Y011065D03*
X007396Y012344D03*
X008282Y013033D03*
X009660Y013919D03*
X006511Y015592D03*
X006215Y015002D03*
X005920Y014214D03*
X005526Y013820D03*
X005822Y013328D03*
X004148Y013230D03*
X004148Y014017D03*
X004148Y014509D03*
X004148Y015297D03*
X004148Y016380D03*
X004148Y017167D03*
X004148Y017659D03*
X004148Y018446D03*
X005625Y017364D03*
X005526Y016576D03*
X008873Y017265D03*
X009562Y021006D03*
X010349Y021006D03*
X010349Y021793D03*
X007790Y022876D03*
X007790Y023663D03*
X008184Y025139D03*
X008479Y026124D03*
X009267Y026124D03*
X009267Y026911D03*
X008479Y026911D03*
X008085Y028289D03*
X007751Y028978D03*
X007751Y029372D03*
X007357Y029372D03*
X007357Y028978D03*
X006707Y028880D03*
X006314Y028880D03*
X005920Y028880D03*
X005920Y029273D03*
X005526Y028880D03*
X005526Y028092D03*
X005920Y028092D03*
X005920Y027698D03*
X006707Y027698D03*
X006707Y028092D03*
X007298Y028289D03*
X006707Y029273D03*
X008774Y031143D03*
X009956Y031242D03*
X009956Y030750D03*
X009956Y030257D03*
X009956Y029765D03*
X009956Y029273D03*
X013204Y031439D03*
X013991Y031439D03*
X013991Y032226D03*
X013204Y032226D03*
X013676Y030474D03*
X014463Y030454D03*
X014463Y029667D03*
X013676Y029667D03*
X013893Y028092D03*
X013893Y027305D03*
X013991Y026714D03*
X013204Y026714D03*
X017239Y030848D03*
X017239Y031340D03*
X017239Y031832D03*
X016648Y032423D03*
X017239Y032915D03*
X017239Y033309D03*
X017239Y033801D03*
X017239Y034293D03*
X016648Y034785D03*
X017239Y035572D03*
X017239Y036065D03*
X017337Y036557D03*
X017633Y036950D03*
X018026Y037246D03*
X017633Y038033D03*
X016845Y038033D03*
X016058Y038033D03*
X015270Y038033D03*
X014483Y039411D03*
X013696Y039411D03*
X012416Y040198D03*
X009759Y040198D03*
X008873Y040002D03*
X008479Y040297D03*
X007692Y040100D03*
X006707Y040100D03*
X005920Y040002D03*
X005526Y040297D03*
X006314Y039214D03*
X006314Y038820D03*
X006314Y038427D03*
X006019Y037836D03*
X005428Y037836D03*
X006314Y036950D03*
X004936Y035966D03*
X005428Y035277D03*
X006019Y035277D03*
X005625Y034391D03*
X005330Y033801D03*
X004837Y034391D03*
X005330Y033013D03*
X004542Y032423D03*
X004247Y032226D03*
X004542Y032029D03*
X003952Y032029D03*
X003952Y032423D03*
X003263Y031832D03*
X003459Y036163D03*
X003066Y036163D03*
X003853Y036163D03*
X003558Y036950D03*
X008085Y036950D03*
X007987Y035966D03*
X016845Y040198D03*
X017633Y040198D03*
X018420Y040198D03*
X018420Y038033D03*
X018912Y037541D03*
X019404Y037541D03*
X019896Y037541D03*
X020389Y037541D03*
X020979Y037935D03*
X021471Y037935D03*
X021963Y037935D03*
X020389Y036360D03*
X019896Y036360D03*
X019404Y036360D03*
X018912Y036261D03*
X018519Y035966D03*
X018420Y035474D03*
X019011Y034785D03*
X018420Y034293D03*
X018420Y033801D03*
X018420Y033407D03*
X018519Y032915D03*
X018519Y032147D03*
X019306Y032128D03*
X019306Y032915D03*
X019700Y031242D03*
X019011Y030848D03*
X018519Y030257D03*
X018519Y029864D03*
X018125Y029864D03*
X018125Y030257D03*
X020979Y035966D03*
X021471Y035966D03*
X021963Y035966D03*
X028164Y038722D03*
X028656Y038427D03*
X029837Y037049D03*
X030428Y037344D03*
X030723Y037049D03*
X030822Y037639D03*
X030428Y037836D03*
X029542Y036261D03*
X030034Y040198D03*
X031707Y040238D03*
X033873Y038722D03*
X034857Y037147D03*
X035448Y036557D03*
X035841Y036065D03*
X036333Y037147D03*
X036924Y038230D03*
X037711Y038131D03*
X038499Y038131D03*
X039286Y038131D03*
X040074Y038230D03*
X036924Y040100D03*
X034168Y035769D03*
X043322Y037541D03*
X043617Y034588D03*
X042830Y007817D03*
X043322Y005848D03*
X043223Y004372D03*
X039483Y005061D03*
X037318Y003781D03*
X037318Y002502D03*
X034070Y002994D03*
X018519Y002009D03*
X018125Y002108D03*
X014975Y002502D03*
X013400Y002502D03*
X013400Y004076D03*
X013400Y004864D03*
X014778Y005651D03*
X013696Y007029D03*
X013499Y007817D03*
X013007Y007817D03*
X012908Y007029D03*
X012908Y006242D03*
X011924Y007029D03*
X011530Y007817D03*
X011235Y008604D03*
X009267Y006537D03*
X011432Y005651D03*
X011432Y002502D03*
X005428Y002403D03*
X003952Y005848D03*
X004050Y006931D03*
X004050Y007915D03*
X003755Y009883D03*
X005330Y010966D03*
X004345Y011655D03*
X004148Y012639D03*
X004444Y020317D03*
X004247Y021399D03*
X005034Y021399D03*
X005034Y022187D03*
X005526Y022187D03*
X006117Y021301D03*
X006019Y020710D03*
X004247Y022187D03*
X005920Y024254D03*
X004247Y025139D03*
X004837Y025927D03*
X004444Y027206D03*
D21*
X005920Y024254D02*
X005920Y021498D01*
X006117Y021301D01*
X006511Y021202D02*
X006019Y020710D01*
X006511Y021202D02*
X006511Y023368D01*
X007101Y023958D01*
X008184Y023958D01*
X009660Y025435D01*
X009660Y031537D01*
X010054Y031931D01*
X010054Y037639D01*
X011530Y039116D01*
X018223Y039116D01*
X018420Y038919D01*
X018420Y038033D01*
X017633Y038033D02*
X017633Y038427D01*
X017141Y038919D01*
X011629Y038919D01*
X010251Y037541D01*
X010251Y025730D01*
X008184Y023663D01*
X008184Y018643D01*
X006117Y016576D01*
X005526Y016576D01*
X006511Y015592D02*
X006511Y009883D01*
X006117Y009490D01*
X004247Y009490D01*
X004050Y009293D01*
X004050Y007915D01*
X003755Y007226D02*
X004050Y006931D01*
X003755Y007226D02*
X003755Y009293D01*
X004148Y009687D01*
X006019Y009687D01*
X006314Y009982D01*
X006314Y014903D01*
X006215Y015002D01*
X005920Y014214D02*
X006117Y014017D01*
X006117Y010080D01*
X005920Y009883D01*
X003755Y009883D01*
X003459Y010179D02*
X005723Y010179D01*
X005822Y010277D01*
X005822Y013328D01*
X008282Y013033D02*
X010841Y015592D01*
X021570Y015592D01*
X021668Y015494D01*
X021767Y015494D01*
X021471Y015395D02*
X021767Y015100D01*
X021767Y014706D02*
X021274Y015198D01*
X011333Y015198D01*
X010251Y014116D01*
X010152Y013624D02*
X011530Y015002D01*
X021078Y015002D01*
X021373Y014706D01*
X020979Y014706D02*
X020881Y014805D01*
X011727Y014805D01*
X010152Y013230D01*
X010152Y012836D02*
X011924Y014608D01*
X020684Y014608D01*
X020979Y014313D01*
X021767Y014313D01*
X022005Y014214D02*
X022259Y014214D01*
X022259Y013300D01*
X022208Y013350D01*
X022113Y013390D01*
X022010Y013390D01*
X022003Y013387D01*
X021807Y013583D01*
X021726Y013664D01*
X016412Y013664D01*
X016499Y013700D01*
X016572Y013773D01*
X016611Y013868D01*
X016611Y013970D01*
X016572Y014065D01*
X016562Y014075D01*
X017867Y014075D01*
X017867Y014064D01*
X017906Y013970D01*
X017979Y013897D01*
X018073Y013858D01*
X018176Y013858D01*
X018271Y013897D01*
X018344Y013970D01*
X018383Y014064D01*
X018383Y014167D01*
X018363Y014214D01*
X020347Y014214D01*
X020367Y014166D01*
X020439Y014094D01*
X020534Y014054D01*
X020637Y014054D01*
X020732Y014094D01*
X020804Y014166D01*
X020824Y014214D01*
X020881Y014214D01*
X020922Y014174D01*
X021545Y014174D01*
X021548Y014166D01*
X021620Y014094D01*
X021715Y014054D01*
X021818Y014054D01*
X021913Y014094D01*
X021985Y014166D01*
X022005Y014214D01*
X021961Y014142D02*
X022259Y014142D01*
X022259Y014065D02*
X021844Y014065D01*
X021689Y014065D02*
X020662Y014065D01*
X020780Y014142D02*
X021572Y014142D01*
X021788Y013602D02*
X022259Y013602D01*
X022259Y013679D02*
X016448Y013679D01*
X016555Y013756D02*
X022259Y013756D01*
X022259Y013833D02*
X016597Y013833D01*
X016611Y013911D02*
X017965Y013911D01*
X017898Y013988D02*
X016604Y013988D01*
X016572Y014065D02*
X017867Y014065D01*
X018026Y014214D02*
X018125Y014116D01*
X018026Y014214D02*
X012416Y014214D01*
X010644Y012344D01*
X010251Y012443D02*
X012219Y014411D01*
X020487Y014411D01*
X020585Y014313D01*
X020391Y014142D02*
X018383Y014142D01*
X018383Y014065D02*
X020508Y014065D01*
X019722Y013376D02*
X019711Y013386D01*
X021611Y013386D01*
X021807Y013190D01*
X021804Y013183D01*
X021804Y013080D01*
X021843Y012985D01*
X021916Y012913D01*
X022010Y012873D01*
X022113Y012873D01*
X022208Y012913D01*
X022259Y012963D01*
X022259Y003683D01*
X020093Y003683D01*
X019995Y003584D01*
X019995Y001460D01*
X015435Y001460D01*
X015832Y001857D01*
X015915Y001940D01*
X015960Y002049D01*
X015960Y008860D01*
X015915Y008969D01*
X015832Y009052D01*
X015723Y009097D01*
X015605Y009097D01*
X015496Y009052D01*
X015413Y008969D01*
X015368Y008860D01*
X015368Y002231D01*
X015049Y001912D01*
X010767Y001912D01*
X008352Y004328D01*
X008243Y004373D01*
X005034Y004373D01*
X005034Y007029D01*
X010448Y007029D01*
X010841Y006635D01*
X010841Y002108D01*
X010940Y002009D01*
X013893Y002009D01*
X013991Y002108D01*
X013991Y006340D01*
X015074Y007423D01*
X015074Y012935D01*
X014778Y013230D01*
X012613Y013230D01*
X012515Y013328D01*
X012515Y014017D01*
X012573Y014075D01*
X016145Y014075D01*
X016134Y014065D01*
X016095Y013970D01*
X016095Y013868D01*
X016134Y013773D01*
X016207Y013700D01*
X016294Y013664D01*
X016083Y013664D01*
X016080Y013671D01*
X016007Y013744D01*
X015912Y013783D01*
X015810Y013783D01*
X015715Y013744D01*
X015642Y013671D01*
X015603Y013577D01*
X015603Y013474D01*
X015642Y013379D01*
X015715Y013306D01*
X015810Y013267D01*
X015912Y013267D01*
X016007Y013306D01*
X016080Y013379D01*
X016083Y013386D01*
X016294Y013386D01*
X016207Y013350D01*
X016134Y013278D01*
X016095Y013183D01*
X016095Y013080D01*
X016134Y012985D01*
X016207Y012913D01*
X016302Y012873D01*
X016404Y012873D01*
X016499Y012913D01*
X016572Y012985D01*
X016611Y013080D01*
X016611Y013183D01*
X016572Y013278D01*
X016499Y013350D01*
X016412Y013386D01*
X019294Y013386D01*
X019284Y013376D01*
X019281Y013369D01*
X018658Y013369D01*
X018577Y013287D01*
X017986Y012697D01*
X017986Y002330D01*
X017979Y002327D01*
X017906Y002254D01*
X017867Y002159D01*
X017867Y002057D01*
X017906Y001962D01*
X017979Y001889D01*
X018073Y001850D01*
X018176Y001850D01*
X018271Y001889D01*
X018284Y001902D01*
X018300Y001863D01*
X018372Y001791D01*
X018467Y001751D01*
X018570Y001751D01*
X018665Y001791D01*
X018737Y001863D01*
X018777Y001958D01*
X018777Y002061D01*
X018737Y002156D01*
X018665Y002228D01*
X018657Y002231D01*
X018657Y012417D01*
X018665Y012421D01*
X018737Y012493D01*
X018777Y012588D01*
X018777Y012691D01*
X018737Y012786D01*
X018665Y012858D01*
X018576Y012895D01*
X018773Y013091D01*
X019281Y013091D01*
X019284Y013084D01*
X019357Y013011D01*
X019451Y012972D01*
X019554Y012972D01*
X019649Y013011D01*
X019722Y013084D01*
X019761Y013179D01*
X019761Y013281D01*
X019722Y013376D01*
X019724Y013370D02*
X021627Y013370D01*
X021704Y013293D02*
X019756Y013293D01*
X019761Y013215D02*
X021782Y013215D01*
X021804Y013138D02*
X019744Y013138D01*
X019699Y013061D02*
X021812Y013061D01*
X021845Y012984D02*
X020961Y012984D01*
X020932Y012996D02*
X020829Y012996D01*
X020735Y012957D01*
X020662Y012884D01*
X020623Y012789D01*
X020623Y012686D01*
X020662Y012592D01*
X020735Y012519D01*
X020829Y012480D01*
X020932Y012480D01*
X021027Y012519D01*
X021100Y012592D01*
X021139Y012686D01*
X021139Y012789D01*
X021100Y012884D01*
X021027Y012957D01*
X020932Y012996D01*
X020800Y012984D02*
X019583Y012984D01*
X019423Y012984D02*
X018665Y012984D01*
X018588Y012907D02*
X020684Y012907D01*
X020639Y012829D02*
X018694Y012829D01*
X018751Y012752D02*
X020623Y012752D01*
X020627Y012675D02*
X018777Y012675D01*
X018777Y012598D02*
X020659Y012598D01*
X020733Y012520D02*
X018749Y012520D01*
X018687Y012443D02*
X022259Y012443D01*
X022259Y012366D02*
X018657Y012366D01*
X018657Y012289D02*
X022259Y012289D01*
X022259Y012211D02*
X018657Y012211D01*
X018657Y012134D02*
X022259Y012134D01*
X022259Y012057D02*
X018657Y012057D01*
X018657Y011980D02*
X022259Y011980D01*
X022259Y011902D02*
X018657Y011902D01*
X018657Y011825D02*
X022259Y011825D01*
X022259Y011748D02*
X018657Y011748D01*
X018657Y011671D02*
X020334Y011671D01*
X020341Y011677D02*
X020268Y011604D01*
X020229Y011510D01*
X020229Y011407D01*
X020268Y011312D01*
X020341Y011239D01*
X020436Y011200D01*
X020538Y011200D01*
X020633Y011239D01*
X020706Y011312D01*
X020745Y011407D01*
X020745Y011510D01*
X020706Y011604D01*
X020633Y011677D01*
X020538Y011716D01*
X020436Y011716D01*
X020341Y011677D01*
X020264Y011593D02*
X018657Y011593D01*
X018657Y011516D02*
X020232Y011516D01*
X020229Y011439D02*
X018657Y011439D01*
X018657Y011362D02*
X020248Y011362D01*
X020296Y011284D02*
X018657Y011284D01*
X018657Y011207D02*
X020419Y011207D01*
X020555Y011207D02*
X021206Y011207D01*
X021223Y011200D02*
X021326Y011200D01*
X021421Y011239D01*
X021493Y011312D01*
X021533Y011407D01*
X021533Y011510D01*
X021493Y011604D01*
X021421Y011677D01*
X021326Y011716D01*
X021223Y011716D01*
X021128Y011677D01*
X021056Y011604D01*
X021016Y011510D01*
X021016Y011407D01*
X021056Y011312D01*
X021128Y011239D01*
X021223Y011200D01*
X021343Y011207D02*
X022259Y011207D01*
X022259Y011130D02*
X018657Y011130D01*
X018657Y011053D02*
X022259Y011053D01*
X022259Y010976D02*
X018657Y010976D01*
X018657Y010898D02*
X022259Y010898D01*
X022259Y010821D02*
X018657Y010821D01*
X018657Y010744D02*
X022259Y010744D01*
X022259Y010667D02*
X018657Y010667D01*
X018657Y010589D02*
X022259Y010589D01*
X022259Y010512D02*
X018657Y010512D01*
X018657Y010435D02*
X022259Y010435D01*
X022259Y010358D02*
X018657Y010358D01*
X018657Y010280D02*
X022259Y010280D01*
X022259Y010203D02*
X018657Y010203D01*
X018657Y010126D02*
X022259Y010126D01*
X022259Y010049D02*
X018657Y010049D01*
X018657Y009971D02*
X022259Y009971D01*
X022259Y009894D02*
X018657Y009894D01*
X018657Y009817D02*
X022259Y009817D01*
X022259Y009740D02*
X018657Y009740D01*
X018657Y009662D02*
X022259Y009662D01*
X022259Y009585D02*
X018657Y009585D01*
X018657Y009508D02*
X022259Y009508D01*
X022259Y009431D02*
X018657Y009431D01*
X018657Y009353D02*
X022259Y009353D01*
X022259Y009276D02*
X018657Y009276D01*
X018657Y009199D02*
X022259Y009199D01*
X022259Y009122D02*
X018657Y009122D01*
X018657Y009045D02*
X022259Y009045D01*
X022259Y008967D02*
X018657Y008967D01*
X018657Y008890D02*
X022259Y008890D01*
X022259Y008813D02*
X018657Y008813D01*
X018657Y008736D02*
X022259Y008736D01*
X022259Y008658D02*
X018657Y008658D01*
X018657Y008581D02*
X022259Y008581D01*
X022259Y008504D02*
X018657Y008504D01*
X018657Y008427D02*
X022259Y008427D01*
X022259Y008349D02*
X018657Y008349D01*
X018657Y008272D02*
X022259Y008272D01*
X022259Y008195D02*
X018657Y008195D01*
X018657Y008118D02*
X022259Y008118D01*
X022259Y008040D02*
X018657Y008040D01*
X018657Y007963D02*
X022259Y007963D01*
X022259Y007886D02*
X018657Y007886D01*
X018657Y007809D02*
X022259Y007809D01*
X022259Y007731D02*
X018657Y007731D01*
X018657Y007654D02*
X022259Y007654D01*
X022259Y007577D02*
X021831Y007577D01*
X021818Y007583D02*
X021715Y007583D01*
X021620Y007543D01*
X021548Y007471D01*
X021508Y007376D01*
X021508Y007273D01*
X021548Y007178D01*
X021620Y007106D01*
X021715Y007066D01*
X021818Y007066D01*
X021913Y007106D01*
X021985Y007178D01*
X022025Y007273D01*
X022025Y007376D01*
X021985Y007471D01*
X021913Y007543D01*
X021818Y007583D01*
X021702Y007577D02*
X018657Y007577D01*
X018657Y007500D02*
X021577Y007500D01*
X021528Y007422D02*
X018657Y007422D01*
X018657Y007345D02*
X021508Y007345D01*
X021511Y007268D02*
X018657Y007268D01*
X018657Y007191D02*
X021543Y007191D01*
X021612Y007114D02*
X018657Y007114D01*
X018657Y007036D02*
X022259Y007036D01*
X022259Y006959D02*
X018657Y006959D01*
X018657Y006882D02*
X022259Y006882D01*
X022259Y006805D02*
X018657Y006805D01*
X018657Y006727D02*
X022259Y006727D01*
X022259Y006650D02*
X018657Y006650D01*
X018657Y006573D02*
X022259Y006573D01*
X022259Y006496D02*
X018657Y006496D01*
X018657Y006418D02*
X022259Y006418D01*
X022259Y006341D02*
X018657Y006341D01*
X018657Y006264D02*
X022259Y006264D01*
X022259Y006187D02*
X018657Y006187D01*
X018657Y006109D02*
X022259Y006109D01*
X022259Y006032D02*
X018657Y006032D01*
X018657Y005955D02*
X022259Y005955D01*
X022259Y005878D02*
X018657Y005878D01*
X018657Y005800D02*
X022259Y005800D01*
X022259Y005723D02*
X018657Y005723D01*
X018657Y005646D02*
X022259Y005646D01*
X022259Y005569D02*
X018657Y005569D01*
X018657Y005491D02*
X022259Y005491D01*
X022259Y005414D02*
X018657Y005414D01*
X018657Y005337D02*
X022259Y005337D01*
X022259Y005260D02*
X018657Y005260D01*
X018657Y005182D02*
X022259Y005182D01*
X022259Y005105D02*
X018657Y005105D01*
X018657Y005028D02*
X022259Y005028D01*
X022259Y004951D02*
X018657Y004951D01*
X018657Y004874D02*
X022259Y004874D01*
X022259Y004796D02*
X018657Y004796D01*
X018657Y004719D02*
X022259Y004719D01*
X022259Y004642D02*
X018657Y004642D01*
X018657Y004565D02*
X022259Y004565D01*
X022259Y004487D02*
X018657Y004487D01*
X018657Y004410D02*
X022259Y004410D01*
X022259Y004333D02*
X018657Y004333D01*
X018657Y004256D02*
X022259Y004256D01*
X022259Y004178D02*
X018657Y004178D01*
X018657Y004101D02*
X022259Y004101D01*
X022259Y004024D02*
X018657Y004024D01*
X018657Y003947D02*
X022259Y003947D01*
X022259Y003869D02*
X018657Y003869D01*
X018657Y003792D02*
X022259Y003792D01*
X022259Y003715D02*
X018657Y003715D01*
X018657Y003638D02*
X020048Y003638D01*
X019995Y003560D02*
X018657Y003560D01*
X018657Y003483D02*
X019995Y003483D01*
X019995Y003406D02*
X018657Y003406D01*
X018657Y003329D02*
X019995Y003329D01*
X019995Y003251D02*
X018657Y003251D01*
X018657Y003174D02*
X019995Y003174D01*
X019995Y003097D02*
X018657Y003097D01*
X018657Y003020D02*
X019995Y003020D01*
X019995Y002943D02*
X018657Y002943D01*
X018657Y002865D02*
X019995Y002865D01*
X019995Y002788D02*
X018657Y002788D01*
X018657Y002711D02*
X019995Y002711D01*
X019995Y002634D02*
X018657Y002634D01*
X018657Y002556D02*
X019995Y002556D01*
X019995Y002479D02*
X018657Y002479D01*
X018657Y002402D02*
X019995Y002402D01*
X019995Y002325D02*
X018657Y002325D01*
X018657Y002247D02*
X019995Y002247D01*
X019995Y002170D02*
X018723Y002170D01*
X018763Y002093D02*
X019995Y002093D01*
X019995Y002016D02*
X018777Y002016D01*
X018768Y001938D02*
X019995Y001938D01*
X019995Y001861D02*
X018735Y001861D01*
X018648Y001784D02*
X019995Y001784D01*
X019995Y001707D02*
X015682Y001707D01*
X015759Y001784D02*
X018389Y001784D01*
X018302Y001861D02*
X018204Y001861D01*
X018046Y001861D02*
X015836Y001861D01*
X015914Y001938D02*
X017929Y001938D01*
X017884Y002016D02*
X015947Y002016D01*
X015960Y002093D02*
X017038Y002093D01*
X016982Y002116D02*
X017149Y002047D01*
X017329Y002047D01*
X017496Y002116D01*
X017624Y002244D01*
X017693Y002411D01*
X017693Y002592D01*
X017624Y002759D01*
X017496Y002887D01*
X017329Y002956D01*
X017149Y002956D01*
X016982Y002887D01*
X016854Y002759D01*
X016785Y002592D01*
X016785Y002411D01*
X016854Y002244D01*
X016982Y002116D01*
X016928Y002170D02*
X015960Y002170D01*
X015960Y002247D02*
X016853Y002247D01*
X016821Y002325D02*
X015960Y002325D01*
X015960Y002402D02*
X016789Y002402D01*
X016785Y002479D02*
X015960Y002479D01*
X015960Y002556D02*
X016785Y002556D01*
X016802Y002634D02*
X015960Y002634D01*
X015960Y002711D02*
X016834Y002711D01*
X016883Y002788D02*
X015960Y002788D01*
X015960Y002865D02*
X016960Y002865D01*
X017116Y002943D02*
X015960Y002943D01*
X015960Y003020D02*
X017986Y003020D01*
X017986Y003097D02*
X015960Y003097D01*
X015960Y003174D02*
X017986Y003174D01*
X017986Y003251D02*
X015960Y003251D01*
X015960Y003329D02*
X017986Y003329D01*
X017986Y003406D02*
X015960Y003406D01*
X015960Y003483D02*
X017986Y003483D01*
X017986Y003560D02*
X015960Y003560D01*
X015960Y003638D02*
X017986Y003638D01*
X017986Y003715D02*
X015960Y003715D01*
X015960Y003792D02*
X017986Y003792D01*
X017986Y003869D02*
X015960Y003869D01*
X015960Y003947D02*
X017986Y003947D01*
X017986Y004024D02*
X015960Y004024D01*
X015960Y004101D02*
X017986Y004101D01*
X017986Y004178D02*
X015960Y004178D01*
X015960Y004256D02*
X017986Y004256D01*
X017986Y004333D02*
X015960Y004333D01*
X015960Y004410D02*
X017147Y004410D01*
X017149Y004409D02*
X017329Y004409D01*
X017496Y004479D01*
X017624Y004606D01*
X017693Y004773D01*
X017693Y004954D01*
X017624Y005121D01*
X017496Y005249D01*
X017329Y005318D01*
X017149Y005318D01*
X016982Y005249D01*
X016854Y005121D01*
X016785Y004954D01*
X016785Y004773D01*
X016854Y004606D01*
X016982Y004479D01*
X017149Y004409D01*
X017331Y004410D02*
X017986Y004410D01*
X017986Y004487D02*
X017505Y004487D01*
X017582Y004565D02*
X017986Y004565D01*
X017986Y004642D02*
X017639Y004642D01*
X017671Y004719D02*
X017986Y004719D01*
X017986Y004796D02*
X017693Y004796D01*
X017693Y004874D02*
X017986Y004874D01*
X017986Y004951D02*
X017693Y004951D01*
X017663Y005028D02*
X017986Y005028D01*
X017986Y005105D02*
X017631Y005105D01*
X017563Y005182D02*
X017986Y005182D01*
X017986Y005260D02*
X017470Y005260D01*
X017008Y005260D02*
X015960Y005260D01*
X015960Y005337D02*
X017986Y005337D01*
X017986Y005414D02*
X015960Y005414D01*
X015960Y005491D02*
X017986Y005491D01*
X017986Y005569D02*
X015960Y005569D01*
X015960Y005646D02*
X017986Y005646D01*
X017986Y005723D02*
X015960Y005723D01*
X015960Y005800D02*
X017986Y005800D01*
X017986Y005878D02*
X015960Y005878D01*
X015960Y005955D02*
X017986Y005955D01*
X017986Y006032D02*
X015960Y006032D01*
X015960Y006109D02*
X017986Y006109D01*
X017986Y006187D02*
X015960Y006187D01*
X015960Y006264D02*
X017986Y006264D01*
X017986Y006341D02*
X015960Y006341D01*
X015960Y006418D02*
X017986Y006418D01*
X017986Y006496D02*
X015960Y006496D01*
X015960Y006573D02*
X017986Y006573D01*
X017986Y006650D02*
X015960Y006650D01*
X015960Y006727D02*
X017986Y006727D01*
X017986Y006805D02*
X015960Y006805D01*
X015960Y006882D02*
X017986Y006882D01*
X017986Y006959D02*
X015960Y006959D01*
X015960Y007036D02*
X017986Y007036D01*
X017986Y007114D02*
X015960Y007114D01*
X015960Y007191D02*
X017986Y007191D01*
X017986Y007268D02*
X015960Y007268D01*
X015960Y007345D02*
X017986Y007345D01*
X017986Y007422D02*
X015960Y007422D01*
X015960Y007500D02*
X017986Y007500D01*
X017986Y007577D02*
X017335Y007577D01*
X017290Y007558D02*
X017385Y007598D01*
X017458Y007670D01*
X017497Y007765D01*
X017497Y007868D01*
X017458Y007963D01*
X017385Y008035D01*
X017290Y008075D01*
X017188Y008075D01*
X017093Y008035D01*
X017020Y007963D01*
X016981Y007868D01*
X016981Y007765D01*
X017020Y007670D01*
X017093Y007598D01*
X017188Y007558D01*
X017290Y007558D01*
X017143Y007577D02*
X015960Y007577D01*
X015960Y007654D02*
X017036Y007654D01*
X016995Y007731D02*
X015960Y007731D01*
X015960Y007809D02*
X016981Y007809D01*
X016988Y007886D02*
X015960Y007886D01*
X015960Y007963D02*
X017021Y007963D01*
X017105Y008040D02*
X015960Y008040D01*
X015960Y008118D02*
X017986Y008118D01*
X017986Y008195D02*
X015960Y008195D01*
X015960Y008272D02*
X017986Y008272D01*
X017986Y008349D02*
X015960Y008349D01*
X015960Y008427D02*
X017986Y008427D01*
X017986Y008504D02*
X015960Y008504D01*
X015960Y008581D02*
X017986Y008581D01*
X017986Y008658D02*
X015960Y008658D01*
X015960Y008736D02*
X017986Y008736D01*
X017986Y008813D02*
X015960Y008813D01*
X015948Y008890D02*
X017986Y008890D01*
X017986Y008967D02*
X015916Y008967D01*
X015839Y009045D02*
X017986Y009045D01*
X017986Y009122D02*
X015074Y009122D01*
X015074Y009199D02*
X017986Y009199D01*
X017986Y009276D02*
X015074Y009276D01*
X015074Y009353D02*
X015480Y009353D01*
X015496Y009337D02*
X015605Y009292D01*
X015723Y009292D01*
X015832Y009337D01*
X015915Y009420D01*
X015960Y009529D01*
X015960Y010139D01*
X015960Y011320D01*
X015915Y011429D01*
X015832Y011513D01*
X015723Y011558D01*
X015605Y011558D01*
X015496Y011513D01*
X015413Y011429D01*
X015368Y011320D01*
X015368Y009529D01*
X015413Y009420D01*
X015496Y009337D01*
X015409Y009431D02*
X015074Y009431D01*
X015074Y009508D02*
X015377Y009508D01*
X015368Y009585D02*
X015074Y009585D01*
X015074Y009662D02*
X015368Y009662D01*
X015368Y009740D02*
X015074Y009740D01*
X015074Y009817D02*
X015368Y009817D01*
X015368Y009894D02*
X015074Y009894D01*
X015074Y009971D02*
X015368Y009971D01*
X015368Y010049D02*
X015074Y010049D01*
X015074Y010126D02*
X015368Y010126D01*
X015368Y010203D02*
X015074Y010203D01*
X015074Y010280D02*
X015368Y010280D01*
X015368Y010358D02*
X015074Y010358D01*
X015074Y010435D02*
X015368Y010435D01*
X015368Y010512D02*
X015074Y010512D01*
X015074Y010589D02*
X015368Y010589D01*
X015368Y010667D02*
X015074Y010667D01*
X015074Y010744D02*
X015368Y010744D01*
X015368Y010821D02*
X015074Y010821D01*
X015074Y010898D02*
X015368Y010898D01*
X015368Y010976D02*
X015074Y010976D01*
X015074Y011053D02*
X015368Y011053D01*
X015368Y011130D02*
X015074Y011130D01*
X015074Y011207D02*
X015368Y011207D01*
X015368Y011284D02*
X015074Y011284D01*
X015074Y011362D02*
X015385Y011362D01*
X015423Y011439D02*
X015074Y011439D01*
X015074Y011516D02*
X015505Y011516D01*
X015823Y011516D02*
X017986Y011516D01*
X017986Y011439D02*
X015906Y011439D01*
X015943Y011362D02*
X017986Y011362D01*
X017986Y011284D02*
X015960Y011284D01*
X015960Y011207D02*
X017986Y011207D01*
X017986Y011130D02*
X015960Y011130D01*
X015960Y011053D02*
X017986Y011053D01*
X017986Y010976D02*
X015960Y010976D01*
X015960Y010898D02*
X017986Y010898D01*
X017986Y010821D02*
X015960Y010821D01*
X015960Y010744D02*
X017986Y010744D01*
X017986Y010667D02*
X015960Y010667D01*
X015960Y010589D02*
X017986Y010589D01*
X017986Y010512D02*
X015960Y010512D01*
X015960Y010435D02*
X017986Y010435D01*
X017986Y010358D02*
X015960Y010358D01*
X015960Y010280D02*
X017986Y010280D01*
X017986Y010203D02*
X015960Y010203D01*
X015960Y010126D02*
X017986Y010126D01*
X017986Y010049D02*
X015960Y010049D01*
X015960Y009971D02*
X017986Y009971D01*
X017986Y009894D02*
X015960Y009894D01*
X015960Y009817D02*
X017986Y009817D01*
X017986Y009740D02*
X015960Y009740D01*
X015960Y009662D02*
X017986Y009662D01*
X017986Y009585D02*
X015960Y009585D01*
X015952Y009508D02*
X017986Y009508D01*
X017986Y009431D02*
X015920Y009431D01*
X015848Y009353D02*
X017986Y009353D01*
X017986Y008040D02*
X017373Y008040D01*
X017457Y007963D02*
X017986Y007963D01*
X017986Y007886D02*
X017490Y007886D01*
X017497Y007809D02*
X017986Y007809D01*
X017986Y007731D02*
X017483Y007731D01*
X017442Y007654D02*
X017986Y007654D01*
X015489Y009045D02*
X015074Y009045D01*
X015074Y008967D02*
X015413Y008967D01*
X015381Y008890D02*
X015074Y008890D01*
X015074Y008813D02*
X015368Y008813D01*
X015368Y008736D02*
X015074Y008736D01*
X015074Y008658D02*
X015368Y008658D01*
X015368Y008581D02*
X015074Y008581D01*
X015074Y008504D02*
X015368Y008504D01*
X015368Y008427D02*
X015074Y008427D01*
X015074Y008349D02*
X015368Y008349D01*
X015368Y008272D02*
X015074Y008272D01*
X015074Y008195D02*
X015368Y008195D01*
X015368Y008118D02*
X015074Y008118D01*
X015074Y008040D02*
X015368Y008040D01*
X015368Y007963D02*
X015074Y007963D01*
X015074Y007886D02*
X015368Y007886D01*
X015368Y007809D02*
X015074Y007809D01*
X015074Y007731D02*
X015368Y007731D01*
X015368Y007654D02*
X015074Y007654D01*
X015074Y007577D02*
X015368Y007577D01*
X015368Y007500D02*
X015074Y007500D01*
X015073Y007422D02*
X015368Y007422D01*
X015368Y007345D02*
X014996Y007345D01*
X014919Y007268D02*
X015368Y007268D01*
X015368Y007191D02*
X014842Y007191D01*
X014764Y007114D02*
X015368Y007114D01*
X015368Y007036D02*
X014687Y007036D01*
X014610Y006959D02*
X015368Y006959D01*
X015368Y006882D02*
X014533Y006882D01*
X014455Y006805D02*
X015368Y006805D01*
X015368Y006727D02*
X014378Y006727D01*
X014301Y006650D02*
X015368Y006650D01*
X015368Y006573D02*
X014224Y006573D01*
X014146Y006496D02*
X015368Y006496D01*
X015368Y006418D02*
X014069Y006418D01*
X013992Y006341D02*
X015368Y006341D01*
X015368Y006264D02*
X013991Y006264D01*
X013991Y006187D02*
X015368Y006187D01*
X015368Y006109D02*
X013991Y006109D01*
X013991Y006032D02*
X015368Y006032D01*
X015368Y005955D02*
X013991Y005955D01*
X013991Y005878D02*
X014651Y005878D01*
X014632Y005870D02*
X014560Y005797D01*
X014520Y005703D01*
X014520Y005600D01*
X014560Y005505D01*
X014632Y005432D01*
X014727Y005393D01*
X014830Y005393D01*
X014925Y005432D01*
X014997Y005505D01*
X015036Y005600D01*
X015036Y005703D01*
X014997Y005797D01*
X014925Y005870D01*
X014830Y005909D01*
X014727Y005909D01*
X014632Y005870D01*
X014563Y005800D02*
X013991Y005800D01*
X013991Y005723D02*
X014529Y005723D01*
X014520Y005646D02*
X013991Y005646D01*
X013991Y005569D02*
X014533Y005569D01*
X014573Y005491D02*
X013991Y005491D01*
X013991Y005414D02*
X014676Y005414D01*
X014881Y005414D02*
X015368Y005414D01*
X015368Y005337D02*
X013991Y005337D01*
X013991Y005260D02*
X015368Y005260D01*
X015368Y005182D02*
X013991Y005182D01*
X013991Y005105D02*
X015368Y005105D01*
X015368Y005028D02*
X013991Y005028D01*
X013991Y004951D02*
X015368Y004951D01*
X015368Y004874D02*
X013991Y004874D01*
X013991Y004796D02*
X015368Y004796D01*
X015368Y004719D02*
X013991Y004719D01*
X013991Y004642D02*
X015368Y004642D01*
X015368Y004565D02*
X013991Y004565D01*
X013991Y004487D02*
X015368Y004487D01*
X015368Y004410D02*
X013991Y004410D01*
X013991Y004333D02*
X015368Y004333D01*
X015368Y004256D02*
X013991Y004256D01*
X013991Y004178D02*
X015368Y004178D01*
X015368Y004101D02*
X013991Y004101D01*
X013991Y004024D02*
X015368Y004024D01*
X015368Y003947D02*
X013991Y003947D01*
X013991Y003869D02*
X015368Y003869D01*
X015368Y003792D02*
X013991Y003792D01*
X013991Y003715D02*
X015368Y003715D01*
X015368Y003638D02*
X013991Y003638D01*
X013991Y003560D02*
X015368Y003560D01*
X015368Y003483D02*
X013991Y003483D01*
X013991Y003406D02*
X015368Y003406D01*
X015368Y003329D02*
X013991Y003329D01*
X013991Y003251D02*
X015368Y003251D01*
X015368Y003174D02*
X013991Y003174D01*
X013991Y003097D02*
X015368Y003097D01*
X015368Y003020D02*
X013991Y003020D01*
X013991Y002943D02*
X015368Y002943D01*
X015368Y002865D02*
X013991Y002865D01*
X013991Y002788D02*
X015368Y002788D01*
X015368Y002711D02*
X013991Y002711D01*
X013991Y002634D02*
X015368Y002634D01*
X015368Y002556D02*
X013991Y002556D01*
X013991Y002479D02*
X015368Y002479D01*
X015368Y002402D02*
X013991Y002402D01*
X013991Y002325D02*
X015368Y002325D01*
X015368Y002247D02*
X013991Y002247D01*
X013991Y002170D02*
X015307Y002170D01*
X015230Y002093D02*
X013976Y002093D01*
X013899Y002016D02*
X015153Y002016D01*
X015076Y001938D02*
X010741Y001938D01*
X010664Y002016D02*
X010934Y002016D01*
X010856Y002093D02*
X010586Y002093D01*
X010509Y002170D02*
X010841Y002170D01*
X010841Y002247D02*
X010432Y002247D01*
X010355Y002325D02*
X010841Y002325D01*
X010841Y002402D02*
X010277Y002402D01*
X010200Y002479D02*
X010841Y002479D01*
X010841Y002556D02*
X010123Y002556D01*
X010046Y002634D02*
X010841Y002634D01*
X010841Y002711D02*
X009968Y002711D01*
X009891Y002788D02*
X010841Y002788D01*
X010841Y002865D02*
X009814Y002865D01*
X009737Y002943D02*
X010841Y002943D01*
X010841Y003020D02*
X009659Y003020D01*
X009582Y003097D02*
X010841Y003097D01*
X010841Y003174D02*
X009505Y003174D01*
X009428Y003251D02*
X010841Y003251D01*
X010841Y003329D02*
X009350Y003329D01*
X009273Y003406D02*
X010841Y003406D01*
X010841Y003483D02*
X009196Y003483D01*
X009119Y003560D02*
X010841Y003560D01*
X010841Y003638D02*
X009041Y003638D01*
X008964Y003715D02*
X010841Y003715D01*
X010841Y003792D02*
X008887Y003792D01*
X008810Y003869D02*
X010841Y003869D01*
X010841Y003947D02*
X008733Y003947D01*
X008655Y004024D02*
X010841Y004024D01*
X010841Y004101D02*
X008578Y004101D01*
X008501Y004178D02*
X010841Y004178D01*
X010841Y004256D02*
X008424Y004256D01*
X008339Y004333D02*
X010841Y004333D01*
X010841Y004410D02*
X007882Y004410D01*
X007881Y004409D02*
X008048Y004479D01*
X008175Y004606D01*
X008244Y004773D01*
X008244Y004954D01*
X008175Y005121D01*
X008048Y005249D01*
X007881Y005318D01*
X007700Y005318D01*
X007533Y005249D01*
X007405Y005121D01*
X007336Y004954D01*
X007336Y004773D01*
X007405Y004606D01*
X007533Y004479D01*
X007700Y004409D01*
X007881Y004409D01*
X007698Y004410D02*
X005034Y004410D01*
X005034Y004487D02*
X007524Y004487D01*
X007447Y004565D02*
X005034Y004565D01*
X005034Y004642D02*
X007390Y004642D01*
X007358Y004719D02*
X005034Y004719D01*
X005034Y004796D02*
X007336Y004796D01*
X007336Y004874D02*
X005034Y004874D01*
X005034Y004951D02*
X007336Y004951D01*
X007366Y005028D02*
X005034Y005028D01*
X005034Y005105D02*
X007398Y005105D01*
X007466Y005182D02*
X005034Y005182D01*
X005034Y005260D02*
X007559Y005260D01*
X008021Y005260D02*
X010841Y005260D01*
X010841Y005337D02*
X005034Y005337D01*
X005034Y005414D02*
X010841Y005414D01*
X010841Y005491D02*
X005034Y005491D01*
X005034Y005569D02*
X010841Y005569D01*
X010841Y005646D02*
X005034Y005646D01*
X005034Y005723D02*
X010841Y005723D01*
X010841Y005800D02*
X005034Y005800D01*
X005034Y005878D02*
X010841Y005878D01*
X010841Y005955D02*
X005034Y005955D01*
X005034Y006032D02*
X010841Y006032D01*
X010841Y006109D02*
X005034Y006109D01*
X005034Y006187D02*
X010841Y006187D01*
X010841Y006264D02*
X005034Y006264D01*
X005034Y006341D02*
X009097Y006341D01*
X009120Y006318D02*
X009215Y006279D01*
X009318Y006279D01*
X009413Y006318D01*
X009485Y006391D01*
X009525Y006486D01*
X009525Y006588D01*
X009485Y006683D01*
X009413Y006756D01*
X009318Y006795D01*
X009215Y006795D01*
X009120Y006756D01*
X009048Y006683D01*
X009008Y006588D01*
X009008Y006486D01*
X009048Y006391D01*
X009120Y006318D01*
X009036Y006418D02*
X005034Y006418D01*
X005034Y006496D02*
X009008Y006496D01*
X009008Y006573D02*
X005034Y006573D01*
X005034Y006650D02*
X009034Y006650D01*
X009092Y006727D02*
X005034Y006727D01*
X005034Y006805D02*
X010672Y006805D01*
X010595Y006882D02*
X005034Y006882D01*
X005034Y006959D02*
X010518Y006959D01*
X010749Y006727D02*
X009441Y006727D01*
X009499Y006650D02*
X010827Y006650D01*
X010841Y006573D02*
X009525Y006573D01*
X009525Y006496D02*
X010841Y006496D01*
X010841Y006418D02*
X009497Y006418D01*
X009436Y006341D02*
X010841Y006341D01*
X011432Y006537D02*
X011924Y007029D01*
X011432Y006537D02*
X011432Y005651D01*
X010841Y005182D02*
X008114Y005182D01*
X008182Y005105D02*
X010841Y005105D01*
X010841Y005028D02*
X008214Y005028D01*
X008244Y004951D02*
X010841Y004951D01*
X010841Y004874D02*
X008244Y004874D01*
X008244Y004796D02*
X010841Y004796D01*
X010841Y004719D02*
X008222Y004719D01*
X008190Y004642D02*
X010841Y004642D01*
X010841Y004565D02*
X008133Y004565D01*
X008056Y004487D02*
X010841Y004487D01*
X012318Y005257D02*
X012318Y012147D01*
X011629Y012836D01*
X012219Y012738D02*
X012515Y012443D01*
X012515Y005750D01*
X013400Y004864D01*
X013400Y004076D02*
X012613Y004962D01*
X012318Y005257D01*
X014906Y005878D02*
X015368Y005878D01*
X015368Y005800D02*
X014994Y005800D01*
X015028Y005723D02*
X015368Y005723D01*
X015368Y005646D02*
X015036Y005646D01*
X015024Y005569D02*
X015368Y005569D01*
X015368Y005491D02*
X014984Y005491D01*
X015960Y005182D02*
X016915Y005182D01*
X016847Y005105D02*
X015960Y005105D01*
X015960Y005028D02*
X016815Y005028D01*
X016785Y004951D02*
X015960Y004951D01*
X015960Y004874D02*
X016785Y004874D01*
X016785Y004796D02*
X015960Y004796D01*
X015960Y004719D02*
X016807Y004719D01*
X016839Y004642D02*
X015960Y004642D01*
X015960Y004565D02*
X016896Y004565D01*
X016973Y004487D02*
X015960Y004487D01*
X017362Y002943D02*
X017986Y002943D01*
X017986Y002865D02*
X017518Y002865D01*
X017595Y002788D02*
X017986Y002788D01*
X017986Y002711D02*
X017644Y002711D01*
X017676Y002634D02*
X017986Y002634D01*
X017986Y002556D02*
X017693Y002556D01*
X017693Y002479D02*
X017986Y002479D01*
X017986Y002402D02*
X017689Y002402D01*
X017657Y002325D02*
X017977Y002325D01*
X017903Y002247D02*
X017625Y002247D01*
X017550Y002170D02*
X017871Y002170D01*
X017867Y002093D02*
X017440Y002093D01*
X018125Y002108D02*
X018125Y012639D01*
X018715Y013230D01*
X019503Y013230D01*
X019307Y013061D02*
X018743Y013061D01*
X018582Y013293D02*
X016557Y013293D01*
X016598Y013215D02*
X018505Y013215D01*
X018427Y013138D02*
X016611Y013138D01*
X016603Y013061D02*
X018350Y013061D01*
X018273Y012984D02*
X016570Y012984D01*
X016485Y012907D02*
X018196Y012907D01*
X018119Y012829D02*
X015074Y012829D01*
X015074Y012752D02*
X018041Y012752D01*
X017986Y012675D02*
X015074Y012675D01*
X015074Y012598D02*
X017986Y012598D01*
X017986Y012520D02*
X015074Y012520D01*
X015074Y012443D02*
X017986Y012443D01*
X017986Y012366D02*
X015074Y012366D01*
X015074Y012289D02*
X017986Y012289D01*
X017986Y012211D02*
X015074Y012211D01*
X015074Y012134D02*
X017986Y012134D01*
X017986Y012057D02*
X015074Y012057D01*
X015074Y011980D02*
X017986Y011980D01*
X017986Y011902D02*
X015074Y011902D01*
X015074Y011825D02*
X017986Y011825D01*
X017986Y011748D02*
X015074Y011748D01*
X015074Y011671D02*
X017986Y011671D01*
X017986Y011593D02*
X015074Y011593D01*
X015074Y012907D02*
X016222Y012907D01*
X016136Y012984D02*
X015024Y012984D01*
X014947Y013061D02*
X016103Y013061D01*
X016095Y013138D02*
X014870Y013138D01*
X014793Y013215D02*
X016109Y013215D01*
X016149Y013293D02*
X015974Y013293D01*
X016071Y013370D02*
X016254Y013370D01*
X016452Y013370D02*
X019281Y013370D01*
X018519Y012639D02*
X018519Y002009D01*
X019995Y001629D02*
X015605Y001629D01*
X015527Y001552D02*
X019995Y001552D01*
X019995Y001475D02*
X015450Y001475D01*
X010381Y001460D02*
X005034Y001460D01*
X005034Y003780D01*
X008061Y003780D01*
X010381Y001460D01*
X010366Y001475D02*
X005034Y001475D01*
X005034Y001552D02*
X010289Y001552D01*
X010212Y001629D02*
X005034Y001629D01*
X005034Y001707D02*
X010135Y001707D01*
X010057Y001784D02*
X005034Y001784D01*
X005034Y001861D02*
X009980Y001861D01*
X009903Y001938D02*
X005034Y001938D01*
X005034Y002016D02*
X009826Y002016D01*
X009748Y002093D02*
X007991Y002093D01*
X008048Y002116D02*
X008175Y002244D01*
X008244Y002411D01*
X008244Y002592D01*
X008175Y002759D01*
X008048Y002887D01*
X007881Y002956D01*
X007700Y002956D01*
X007533Y002887D01*
X007405Y002759D01*
X007336Y002592D01*
X007336Y002411D01*
X007405Y002244D01*
X007533Y002116D01*
X007700Y002047D01*
X007881Y002047D01*
X008048Y002116D01*
X008101Y002170D02*
X009671Y002170D01*
X009594Y002247D02*
X008177Y002247D01*
X008209Y002325D02*
X009517Y002325D01*
X009439Y002402D02*
X008241Y002402D01*
X008244Y002479D02*
X009362Y002479D01*
X009285Y002556D02*
X008244Y002556D01*
X008227Y002634D02*
X009208Y002634D01*
X009131Y002711D02*
X008195Y002711D01*
X008146Y002788D02*
X009053Y002788D01*
X008976Y002865D02*
X008069Y002865D01*
X007913Y002943D02*
X008899Y002943D01*
X008822Y003020D02*
X005034Y003020D01*
X005034Y003097D02*
X008744Y003097D01*
X008667Y003174D02*
X005034Y003174D01*
X005034Y003251D02*
X008590Y003251D01*
X008513Y003329D02*
X005034Y003329D01*
X005034Y003406D02*
X008435Y003406D01*
X008358Y003483D02*
X005034Y003483D01*
X005034Y003560D02*
X008281Y003560D01*
X008204Y003638D02*
X005034Y003638D01*
X005034Y003715D02*
X008126Y003715D01*
X007667Y002943D02*
X005034Y002943D01*
X005034Y002865D02*
X007511Y002865D01*
X007434Y002788D02*
X005034Y002788D01*
X005034Y002711D02*
X007385Y002711D01*
X007353Y002634D02*
X005034Y002634D01*
X005034Y002556D02*
X007336Y002556D01*
X007336Y002479D02*
X005034Y002479D01*
X005034Y002402D02*
X007340Y002402D01*
X007372Y002325D02*
X005034Y002325D01*
X005034Y002247D02*
X007404Y002247D01*
X007479Y002170D02*
X005034Y002170D01*
X005034Y002093D02*
X007590Y002093D01*
X003952Y005848D02*
X003755Y005848D01*
X003361Y006242D01*
X003361Y010080D01*
X003459Y010179D01*
X009562Y009883D02*
X009562Y008801D01*
X009759Y008604D01*
X011235Y008604D01*
X012550Y013293D02*
X015748Y013293D01*
X015651Y013370D02*
X012515Y013370D01*
X012515Y013447D02*
X015614Y013447D01*
X015603Y013524D02*
X012515Y013524D01*
X012515Y013602D02*
X015613Y013602D01*
X015650Y013679D02*
X012515Y013679D01*
X012515Y013756D02*
X015744Y013756D01*
X015978Y013756D02*
X016151Y013756D01*
X016109Y013833D02*
X012515Y013833D01*
X012515Y013911D02*
X016095Y013911D01*
X016102Y013988D02*
X012515Y013988D01*
X012562Y014065D02*
X016134Y014065D01*
X016072Y013679D02*
X016258Y013679D01*
X015861Y013525D02*
X021668Y013525D01*
X022062Y013131D01*
X022161Y013370D02*
X022259Y013370D01*
X022259Y013447D02*
X021942Y013447D01*
X021865Y013524D02*
X022259Y013524D01*
X022259Y013911D02*
X018285Y013911D01*
X018351Y013988D02*
X022259Y013988D01*
X022259Y012907D02*
X022193Y012907D01*
X022259Y012829D02*
X021122Y012829D01*
X021139Y012752D02*
X022259Y012752D01*
X022259Y012675D02*
X021134Y012675D01*
X021102Y012598D02*
X022259Y012598D01*
X022259Y012520D02*
X021028Y012520D01*
X021077Y012907D02*
X021930Y012907D01*
X022259Y011671D02*
X021427Y011671D01*
X021498Y011593D02*
X022259Y011593D01*
X022259Y011516D02*
X021530Y011516D01*
X021533Y011439D02*
X022259Y011439D01*
X022259Y011362D02*
X021514Y011362D01*
X021466Y011284D02*
X022259Y011284D01*
X021083Y011284D02*
X020678Y011284D01*
X020726Y011362D02*
X021035Y011362D01*
X021016Y011439D02*
X020745Y011439D01*
X020742Y011516D02*
X021019Y011516D01*
X021051Y011593D02*
X020710Y011593D01*
X020640Y011671D02*
X021122Y011671D01*
X021471Y015395D02*
X011137Y015395D01*
X009660Y013919D01*
X011333Y016084D02*
X011432Y016183D01*
X012022Y016183D01*
X012219Y015986D01*
X018420Y015986D01*
X018715Y016281D01*
X018715Y019726D01*
X019207Y020218D01*
X019207Y020415D01*
X018912Y020218D02*
X018912Y020907D01*
X019011Y021006D01*
X019306Y021006D01*
X019404Y021104D01*
X019601Y021104D01*
X019601Y021596D02*
X019306Y021891D01*
X018322Y021891D01*
X017731Y021301D01*
X017731Y016675D01*
X017436Y016970D02*
X017436Y017069D01*
X017534Y017167D01*
X017534Y021399D01*
X018223Y022088D01*
X018519Y022088D01*
X018715Y022285D01*
X018715Y022777D01*
X018420Y022482D02*
X018322Y022580D01*
X017928Y022580D01*
X017830Y022679D01*
X015861Y022679D01*
X015763Y022580D01*
X015763Y021789D01*
X015770Y021781D01*
X015770Y021785D01*
X015763Y021793D01*
X015770Y021781D02*
X015782Y021793D01*
X015763Y021301D02*
X015467Y021301D01*
X015467Y022679D01*
X015664Y022876D01*
X018125Y022876D01*
X017633Y022482D02*
X017830Y022285D01*
X017830Y022187D01*
X017633Y022482D02*
X017042Y022482D01*
X016648Y022088D01*
X016648Y020809D01*
X016944Y020809D01*
X017042Y020710D01*
X017042Y019431D01*
X016944Y019332D01*
X016944Y017954D01*
X016845Y017856D01*
X017239Y017364D02*
X017337Y017462D01*
X017337Y022088D01*
X017436Y022187D01*
X017731Y021301D02*
X018026Y021301D01*
X018617Y020317D02*
X018125Y019824D01*
X018519Y019824D02*
X018912Y020218D01*
X018519Y019824D02*
X018519Y016380D01*
X018322Y016183D01*
X012318Y016183D01*
X011235Y017265D01*
X008873Y017265D01*
X010152Y018643D02*
X012416Y016380D01*
X018223Y016380D01*
X018322Y016478D01*
X018322Y018742D01*
X018223Y018840D01*
X019404Y018053D02*
X019503Y018151D01*
X019700Y018151D01*
X019798Y018250D01*
X019798Y018545D01*
X020093Y018840D01*
X020093Y023269D01*
X020585Y023761D01*
X021570Y023761D01*
X020389Y022482D02*
X020389Y019726D01*
X020389Y017659D01*
X020585Y017462D01*
X021176Y017462D01*
X021373Y017265D01*
X021373Y016773D01*
X020093Y016478D02*
X019700Y016478D01*
X019404Y016773D01*
X019404Y018053D01*
X019011Y017659D02*
X019011Y016773D01*
X019207Y016576D01*
X018715Y015887D02*
X018617Y015789D01*
X012022Y015789D01*
X011924Y015887D01*
X012613Y016675D02*
X011137Y018151D01*
X011137Y023171D01*
X011727Y023269D02*
X011137Y023860D01*
X011137Y037344D01*
X011826Y038033D01*
X015270Y038033D01*
X016058Y038033D02*
X016058Y038427D01*
X015959Y038525D01*
X011924Y038525D01*
X010841Y037443D01*
X010841Y019037D01*
X009956Y019529D02*
X009562Y019135D01*
X009956Y019529D02*
X009956Y024450D01*
X010546Y025041D01*
X010546Y037541D01*
X011727Y038722D01*
X016648Y038722D01*
X016845Y038525D01*
X016845Y038033D01*
X021373Y037950D02*
X021471Y037935D01*
X021471Y035966D02*
X021373Y035950D01*
X024424Y038427D02*
X024424Y040551D01*
X030978Y040551D01*
X030922Y040495D01*
X030584Y040495D01*
X030525Y040436D01*
X030525Y039960D01*
X030584Y039902D01*
X031060Y039902D01*
X031067Y039909D01*
X031067Y039685D01*
X031125Y039627D01*
X031306Y039627D01*
X031314Y039635D01*
X031322Y039627D01*
X031503Y039627D01*
X031511Y039635D01*
X031519Y039627D01*
X031699Y039627D01*
X031707Y039635D01*
X031716Y039627D01*
X031896Y039627D01*
X031904Y039635D01*
X031912Y039627D01*
X032093Y039627D01*
X032101Y039635D01*
X032109Y039627D01*
X032290Y039627D01*
X032298Y039635D01*
X032306Y039627D01*
X032487Y039627D01*
X032495Y039635D01*
X032503Y039627D01*
X032639Y039627D01*
X032612Y039600D01*
X032612Y039495D01*
X032577Y039530D01*
X032531Y039556D01*
X032480Y039570D01*
X031944Y039570D01*
X031944Y038860D01*
X031865Y038860D01*
X031865Y039570D01*
X031329Y039570D01*
X031278Y039556D01*
X031232Y039530D01*
X031195Y039493D01*
X031168Y039447D01*
X031155Y039396D01*
X031155Y038860D01*
X031865Y038860D01*
X031865Y038781D01*
X031944Y038781D01*
X031944Y038071D01*
X032480Y038071D01*
X032531Y038085D01*
X032577Y038111D01*
X032612Y038146D01*
X032612Y038041D01*
X032639Y038014D01*
X032503Y038014D01*
X032495Y038006D01*
X032487Y038014D01*
X032306Y038014D01*
X032298Y038006D01*
X032290Y038014D01*
X032109Y038014D01*
X032101Y038006D01*
X032093Y038014D01*
X031912Y038014D01*
X031904Y038006D01*
X031896Y038014D01*
X031716Y038014D01*
X031707Y038006D01*
X031699Y038014D01*
X031519Y038014D01*
X031511Y038006D01*
X031503Y038014D01*
X031322Y038014D01*
X031314Y038006D01*
X031306Y038014D01*
X031125Y038014D01*
X031067Y037956D01*
X031067Y037916D01*
X030902Y037916D01*
X030880Y037894D01*
X030873Y037897D01*
X030770Y037897D01*
X030686Y037863D01*
X030686Y037888D01*
X030683Y037895D01*
X030771Y037983D01*
X031040Y037983D01*
X031098Y038041D01*
X031098Y038222D01*
X031090Y038230D01*
X031098Y038238D01*
X031098Y038419D01*
X031090Y038427D01*
X031098Y038435D01*
X031098Y038616D01*
X031090Y038624D01*
X031098Y038632D01*
X031098Y038772D01*
X031110Y038784D01*
X031129Y038816D01*
X031138Y038851D01*
X031138Y038919D01*
X031138Y038986D01*
X031129Y039022D01*
X031110Y039054D01*
X031098Y039066D01*
X031098Y039206D01*
X031090Y039214D01*
X031098Y039222D01*
X031098Y039403D01*
X031090Y039411D01*
X031098Y039419D01*
X031098Y039600D01*
X031040Y039658D01*
X030682Y039658D01*
X030624Y039600D01*
X030624Y039451D01*
X030190Y039451D01*
X029740Y039902D01*
X029740Y039959D01*
X029796Y039902D01*
X030272Y039902D01*
X030330Y039960D01*
X030330Y040436D01*
X030272Y040495D01*
X029796Y040495D01*
X029738Y040436D01*
X029738Y040241D01*
X029682Y040298D01*
X029206Y040298D01*
X029147Y040240D01*
X029147Y039764D01*
X029206Y039705D01*
X029544Y039705D01*
X029995Y039254D01*
X029740Y039254D01*
X029740Y039452D01*
X029682Y039510D01*
X029206Y039510D01*
X029147Y039452D01*
X029147Y039353D01*
X028953Y039353D01*
X028953Y039452D01*
X028894Y039510D01*
X028418Y039510D01*
X028401Y039493D01*
X028401Y039722D01*
X028418Y039705D01*
X028894Y039705D01*
X028953Y039764D01*
X028953Y040240D01*
X028894Y040298D01*
X028418Y040298D01*
X028360Y040240D01*
X028360Y040140D01*
X028304Y040140D01*
X028205Y040042D01*
X028124Y039961D01*
X028124Y038980D01*
X028113Y038980D01*
X028018Y038941D01*
X027945Y038868D01*
X027906Y038773D01*
X027906Y038671D01*
X027945Y038576D01*
X028018Y038503D01*
X028113Y038464D01*
X028216Y038464D01*
X028310Y038503D01*
X028360Y038553D01*
X028360Y038189D01*
X028418Y038131D01*
X028894Y038131D01*
X028953Y038189D01*
X028953Y038665D01*
X028894Y038723D01*
X028422Y038723D01*
X028422Y038773D01*
X028390Y038850D01*
X028401Y038861D01*
X028401Y038886D01*
X028412Y038908D01*
X028405Y038932D01*
X028418Y038918D01*
X028894Y038918D01*
X028953Y038976D01*
X028953Y039075D01*
X029147Y039075D01*
X029147Y038976D01*
X029206Y038918D01*
X029682Y038918D01*
X029740Y038976D01*
X029740Y038977D01*
X030584Y038977D01*
X030584Y038919D01*
X030861Y038919D01*
X030861Y038919D01*
X031138Y038919D01*
X030861Y038919D01*
X030861Y038919D01*
X030584Y038919D01*
X030584Y038861D01*
X029682Y038861D01*
X029544Y038723D01*
X029206Y038723D01*
X029147Y038665D01*
X029147Y038189D01*
X029206Y038131D01*
X029640Y038131D01*
X029445Y037936D01*
X029206Y037936D01*
X029147Y037877D01*
X029147Y037778D01*
X028953Y037778D01*
X028953Y037877D01*
X028894Y037936D01*
X028418Y037936D01*
X028360Y037877D01*
X028360Y037401D01*
X028418Y037343D01*
X028754Y037343D01*
X028742Y037331D01*
X028723Y037299D01*
X028714Y037264D01*
X028714Y037088D01*
X029011Y037088D01*
X029011Y037385D01*
X028936Y037385D01*
X028953Y037401D01*
X028953Y037501D01*
X029147Y037501D01*
X029147Y037401D01*
X029164Y037385D01*
X029089Y037385D01*
X029089Y037088D01*
X029011Y037088D01*
X029011Y037009D01*
X029089Y037009D01*
X029089Y036713D01*
X029265Y036713D01*
X029301Y036722D01*
X029332Y036740D01*
X029358Y036766D01*
X029377Y036798D01*
X029386Y036834D01*
X029386Y037009D01*
X029089Y037009D01*
X029089Y037088D01*
X029386Y037088D01*
X029386Y037264D01*
X029377Y037299D01*
X029358Y037331D01*
X029346Y037343D01*
X029598Y037343D01*
X029541Y037287D01*
X029541Y036811D01*
X029599Y036753D01*
X030075Y036753D01*
X030134Y036811D01*
X030134Y037287D01*
X030075Y037345D01*
X029976Y037345D01*
X029976Y037779D01*
X030387Y038190D01*
X030585Y038190D01*
X030487Y038091D01*
X030479Y038094D01*
X030377Y038094D01*
X030282Y038055D01*
X030209Y037982D01*
X030170Y037888D01*
X030170Y037785D01*
X030209Y037690D01*
X030282Y037617D01*
X030348Y037590D01*
X030282Y037563D01*
X030209Y037490D01*
X030170Y037395D01*
X030170Y037293D01*
X030209Y037198D01*
X030282Y037125D01*
X030377Y037086D01*
X030465Y037086D01*
X030465Y036997D01*
X030504Y036903D01*
X030577Y036830D01*
X030672Y036791D01*
X030775Y036791D01*
X030869Y036830D01*
X030942Y036903D01*
X030945Y036910D01*
X030979Y036910D01*
X030764Y036695D01*
X030747Y036678D01*
X027967Y036655D01*
X027967Y038427D01*
X024424Y038427D01*
X024424Y038473D02*
X028091Y038473D01*
X027971Y038550D02*
X024424Y038550D01*
X024424Y038628D02*
X027924Y038628D01*
X027906Y038705D02*
X024424Y038705D01*
X024424Y038782D02*
X027910Y038782D01*
X027942Y038859D02*
X025817Y038859D01*
X025914Y038900D02*
X026117Y039102D01*
X026226Y039366D01*
X026226Y039653D01*
X026117Y039917D01*
X025914Y040119D01*
X025650Y040229D01*
X025364Y040229D01*
X025099Y040119D01*
X024897Y039917D01*
X024787Y039653D01*
X024787Y039366D01*
X024897Y039102D01*
X025099Y038900D01*
X025364Y038790D01*
X025650Y038790D01*
X025914Y038900D01*
X025951Y038937D02*
X028014Y038937D01*
X028124Y039014D02*
X026028Y039014D01*
X026106Y039091D02*
X028124Y039091D01*
X028124Y039168D02*
X026144Y039168D01*
X026176Y039246D02*
X028124Y039246D01*
X028124Y039323D02*
X026208Y039323D01*
X026226Y039400D02*
X028124Y039400D01*
X028124Y039477D02*
X026226Y039477D01*
X026226Y039554D02*
X028124Y039554D01*
X028124Y039632D02*
X026226Y039632D01*
X026203Y039709D02*
X028124Y039709D01*
X028124Y039786D02*
X026171Y039786D01*
X026139Y039863D02*
X028124Y039863D01*
X028124Y039941D02*
X026093Y039941D01*
X026016Y040018D02*
X028181Y040018D01*
X028258Y040095D02*
X025938Y040095D01*
X025786Y040172D02*
X028360Y040172D01*
X028370Y040250D02*
X024424Y040250D01*
X024424Y040327D02*
X029738Y040327D01*
X029738Y040404D02*
X024424Y040404D01*
X024424Y040481D02*
X029783Y040481D01*
X029738Y040250D02*
X029730Y040250D01*
X029740Y039941D02*
X029758Y039941D01*
X029778Y039863D02*
X031067Y039863D01*
X031067Y039786D02*
X029855Y039786D01*
X029933Y039709D02*
X031067Y039709D01*
X031066Y039632D02*
X031120Y039632D01*
X031098Y039554D02*
X031274Y039554D01*
X031311Y039632D02*
X031317Y039632D01*
X031508Y039632D02*
X031514Y039632D01*
X031705Y039632D02*
X031710Y039632D01*
X031865Y039554D02*
X031944Y039554D01*
X031944Y039477D02*
X031865Y039477D01*
X031865Y039400D02*
X031944Y039400D01*
X031944Y039323D02*
X031865Y039323D01*
X031865Y039246D02*
X031944Y039246D01*
X031944Y039168D02*
X031865Y039168D01*
X031865Y039091D02*
X031944Y039091D01*
X031944Y039014D02*
X031865Y039014D01*
X031865Y038937D02*
X031944Y038937D01*
X031865Y038859D02*
X031138Y038859D01*
X031138Y038937D02*
X031155Y038937D01*
X031155Y039014D02*
X031131Y039014D01*
X031155Y039091D02*
X031098Y039091D01*
X031098Y039168D02*
X031155Y039168D01*
X031155Y039246D02*
X031098Y039246D01*
X031098Y039323D02*
X031155Y039323D01*
X031156Y039400D02*
X031098Y039400D01*
X031098Y039477D02*
X031186Y039477D01*
X030861Y039313D02*
X030133Y039313D01*
X029444Y040002D01*
X029147Y040018D02*
X028953Y040018D01*
X028953Y040095D02*
X029147Y040095D01*
X029147Y040172D02*
X028953Y040172D01*
X028942Y040250D02*
X029158Y040250D01*
X029147Y039941D02*
X028953Y039941D01*
X028953Y039863D02*
X029147Y039863D01*
X029147Y039786D02*
X028953Y039786D01*
X028898Y039709D02*
X029202Y039709D01*
X029173Y039477D02*
X028927Y039477D01*
X028953Y039400D02*
X029147Y039400D01*
X029444Y039214D02*
X029542Y039116D01*
X030861Y039116D01*
X030584Y038937D02*
X029700Y038937D01*
X029680Y038859D02*
X028399Y038859D01*
X028419Y038782D02*
X029603Y038782D01*
X029739Y038722D02*
X029444Y038427D01*
X029147Y038396D02*
X028953Y038396D01*
X028953Y038473D02*
X029147Y038473D01*
X029147Y038550D02*
X028953Y038550D01*
X028953Y038628D02*
X029147Y038628D01*
X029188Y038705D02*
X028912Y038705D01*
X028913Y038937D02*
X029187Y038937D01*
X029147Y039014D02*
X028953Y039014D01*
X028656Y039214D02*
X029444Y039214D01*
X029740Y039323D02*
X029926Y039323D01*
X029849Y039400D02*
X029740Y039400D01*
X029715Y039477D02*
X029772Y039477D01*
X029695Y039554D02*
X028401Y039554D01*
X028401Y039632D02*
X029617Y039632D01*
X030010Y039632D02*
X030656Y039632D01*
X030624Y039554D02*
X030087Y039554D01*
X030164Y039477D02*
X030624Y039477D01*
X030545Y039941D02*
X030311Y039941D01*
X030330Y040018D02*
X030525Y040018D01*
X030525Y040095D02*
X030330Y040095D01*
X030330Y040172D02*
X030525Y040172D01*
X030525Y040250D02*
X030330Y040250D01*
X030330Y040327D02*
X030525Y040327D01*
X030525Y040404D02*
X030330Y040404D01*
X030286Y040481D02*
X030570Y040481D01*
X030822Y040198D02*
X031156Y040533D01*
X031865Y040533D01*
X032101Y040297D01*
X032101Y040198D01*
X032003Y040100D01*
X032003Y039864D01*
X031806Y039864D02*
X031806Y040100D01*
X031707Y040238D01*
X031901Y039632D02*
X031907Y039632D01*
X032098Y039632D02*
X032104Y039632D01*
X032295Y039632D02*
X032301Y039632D01*
X032492Y039632D02*
X032498Y039632D01*
X032534Y039554D02*
X032612Y039554D01*
X032849Y039509D02*
X033282Y039509D01*
X033676Y039903D01*
X034267Y039903D01*
X034660Y040297D01*
X035152Y040297D01*
X035449Y040327D02*
X035644Y040327D01*
X035644Y040404D02*
X035449Y040404D01*
X035449Y040481D02*
X035644Y040481D01*
X035644Y040535D02*
X035644Y040059D01*
X035702Y040001D01*
X036134Y040001D01*
X036147Y039992D01*
X036195Y039944D01*
X036195Y037369D01*
X036187Y037366D01*
X036115Y037293D01*
X036075Y037199D01*
X036075Y037096D01*
X036115Y037001D01*
X036187Y036928D01*
X036282Y036889D01*
X036385Y036889D01*
X036480Y036928D01*
X036552Y037001D01*
X036592Y037096D01*
X036592Y037199D01*
X036552Y037293D01*
X036480Y037366D01*
X036472Y037369D01*
X036472Y040059D01*
X036391Y040140D01*
X036363Y040168D01*
X036360Y040184D01*
X036323Y040208D01*
X036293Y040239D01*
X036277Y040239D01*
X036236Y040266D01*
X036236Y040535D01*
X036220Y040551D01*
X043871Y040551D01*
X043871Y038427D01*
X040370Y038427D01*
X040370Y038547D01*
X040312Y038605D01*
X039836Y038605D01*
X039777Y038547D01*
X039777Y037815D01*
X039836Y037757D01*
X039975Y037757D01*
X039975Y036754D01*
X035980Y036721D01*
X035980Y038780D01*
X035899Y038861D01*
X035702Y039058D01*
X035547Y039058D01*
X035547Y039157D01*
X035489Y039215D01*
X035013Y039215D01*
X034955Y039157D01*
X034955Y039019D01*
X034943Y039030D01*
X034911Y039049D01*
X034875Y039058D01*
X034700Y039058D01*
X034700Y038761D01*
X034621Y038761D01*
X034621Y038683D01*
X034324Y038683D01*
X034324Y038507D01*
X034334Y038471D01*
X034352Y038440D01*
X034378Y038414D01*
X034410Y038395D01*
X034445Y038386D01*
X034621Y038386D01*
X034621Y038683D01*
X034700Y038683D01*
X034700Y038386D01*
X034875Y038386D01*
X034911Y038395D01*
X034943Y038414D01*
X034969Y038440D01*
X034987Y038471D01*
X034996Y038507D01*
X034996Y038639D01*
X035013Y038623D01*
X035489Y038623D01*
X035547Y038681D01*
X035547Y038780D01*
X035587Y038780D01*
X035703Y038665D01*
X035703Y036836D01*
X035686Y036853D01*
X035210Y036853D01*
X035151Y036795D01*
X035151Y036714D01*
X034956Y036712D01*
X034956Y036795D01*
X034900Y036851D01*
X035095Y036851D01*
X035153Y036909D01*
X035153Y037385D01*
X035095Y037443D01*
X034619Y037443D01*
X034561Y037385D01*
X034561Y036909D01*
X034617Y036853D01*
X034422Y036853D01*
X034414Y036845D01*
X034406Y036853D01*
X034310Y036853D01*
X034366Y036909D01*
X034366Y037385D01*
X034308Y037443D01*
X033832Y037443D01*
X033773Y037385D01*
X033773Y037286D01*
X033733Y037286D01*
X033323Y037697D01*
X033323Y037895D01*
X033340Y037877D01*
X033422Y037796D01*
X033773Y037796D01*
X033773Y037697D01*
X033832Y037638D01*
X034308Y037638D01*
X034366Y037697D01*
X034366Y037796D01*
X034561Y037796D01*
X034561Y037697D01*
X034619Y037638D01*
X035095Y037638D01*
X035153Y037697D01*
X035153Y038173D01*
X035095Y038231D01*
X034619Y038231D01*
X034561Y038173D01*
X034561Y038073D01*
X034366Y038073D01*
X034366Y038173D01*
X034308Y038231D01*
X033832Y038231D01*
X033773Y038173D01*
X033773Y038073D01*
X033537Y038073D01*
X033519Y038091D01*
X033519Y038484D01*
X033438Y038566D01*
X033340Y038664D01*
X033126Y038664D01*
X033126Y038722D01*
X032849Y038722D01*
X032003Y038722D01*
X031904Y038820D01*
X031865Y038782D02*
X031108Y038782D01*
X031155Y038781D02*
X031155Y038245D01*
X031168Y038194D01*
X031195Y038148D01*
X031232Y038111D01*
X031278Y038085D01*
X031329Y038071D01*
X031865Y038071D01*
X031865Y038781D01*
X031155Y038781D01*
X031155Y038705D02*
X031098Y038705D01*
X031094Y038628D02*
X031155Y038628D01*
X031155Y038550D02*
X031098Y038550D01*
X031098Y038473D02*
X031155Y038473D01*
X031155Y038396D02*
X031098Y038396D01*
X031098Y038319D02*
X031155Y038319D01*
X031156Y038241D02*
X031098Y038241D01*
X031098Y038164D02*
X031186Y038164D01*
X031098Y038087D02*
X031274Y038087D01*
X031310Y038010D02*
X031317Y038010D01*
X031507Y038010D02*
X031514Y038010D01*
X031704Y038010D02*
X031711Y038010D01*
X031865Y038087D02*
X031944Y038087D01*
X031944Y038164D02*
X031865Y038164D01*
X031865Y038241D02*
X031944Y038241D01*
X031944Y038319D02*
X031865Y038319D01*
X031865Y038396D02*
X031944Y038396D01*
X031944Y038473D02*
X031865Y038473D01*
X031865Y038550D02*
X031944Y038550D01*
X031944Y038628D02*
X031865Y038628D01*
X031865Y038705D02*
X031944Y038705D01*
X031908Y038010D02*
X031901Y038010D01*
X032098Y038010D02*
X032105Y038010D01*
X032295Y038010D02*
X032301Y038010D01*
X032491Y038010D02*
X032498Y038010D01*
X032535Y038087D02*
X032612Y038087D01*
X032849Y038131D02*
X032849Y037679D01*
X033971Y036557D01*
X034168Y036557D01*
X034408Y036851D02*
X034420Y036851D01*
X034366Y036928D02*
X034561Y036928D01*
X034561Y037006D02*
X034366Y037006D01*
X034366Y037083D02*
X034561Y037083D01*
X034561Y037160D02*
X034366Y037160D01*
X034366Y037237D02*
X034561Y037237D01*
X034561Y037315D02*
X034366Y037315D01*
X034359Y037392D02*
X034567Y037392D01*
X034561Y037701D02*
X034366Y037701D01*
X034366Y037778D02*
X034561Y037778D01*
X034561Y038087D02*
X034366Y038087D01*
X034366Y038164D02*
X034561Y038164D01*
X034621Y038396D02*
X034700Y038396D01*
X034700Y038473D02*
X034621Y038473D01*
X034621Y038550D02*
X034700Y038550D01*
X034700Y038628D02*
X034621Y038628D01*
X034621Y038705D02*
X034169Y038705D01*
X034169Y038782D02*
X034324Y038782D01*
X034324Y038761D02*
X034621Y038761D01*
X034621Y039058D01*
X034445Y039058D01*
X034410Y039049D01*
X034378Y039030D01*
X034352Y039004D01*
X034334Y038973D01*
X034324Y038937D01*
X034324Y038761D01*
X034324Y038859D02*
X034169Y038859D01*
X034169Y038937D02*
X034324Y038937D01*
X034324Y038977D02*
X034560Y039213D01*
X034898Y039213D01*
X034956Y039271D01*
X034956Y039371D01*
X035111Y039371D01*
X035151Y039410D01*
X035489Y039410D01*
X035547Y039468D01*
X035547Y039944D01*
X035489Y040003D01*
X035392Y040003D01*
X035449Y040059D01*
X035449Y040535D01*
X035432Y040551D01*
X035660Y040551D01*
X035644Y040535D01*
X035644Y040250D02*
X035449Y040250D01*
X035449Y040172D02*
X035644Y040172D01*
X035644Y040095D02*
X035449Y040095D01*
X035408Y040018D02*
X035684Y040018D01*
X035547Y039941D02*
X036195Y039941D01*
X036195Y039863D02*
X035547Y039863D01*
X035547Y039786D02*
X036195Y039786D01*
X036195Y039709D02*
X035547Y039709D01*
X035547Y039632D02*
X036195Y039632D01*
X036195Y039554D02*
X035547Y039554D01*
X035547Y039477D02*
X036195Y039477D01*
X036195Y039400D02*
X035141Y039400D01*
X035054Y039509D02*
X035251Y039706D01*
X035054Y039509D02*
X034660Y039509D01*
X034267Y039116D01*
X032849Y039116D01*
X032849Y039313D02*
X033676Y039313D01*
X033873Y039509D01*
X034152Y038977D02*
X034324Y038977D01*
X034361Y039014D02*
X034361Y039014D01*
X034438Y039091D02*
X034955Y039091D01*
X034966Y039168D02*
X034515Y039168D01*
X034621Y039014D02*
X034700Y039014D01*
X034700Y038937D02*
X034621Y038937D01*
X034621Y038859D02*
X034700Y038859D01*
X034700Y038782D02*
X034621Y038782D01*
X034324Y038628D02*
X034169Y038628D01*
X034169Y038550D02*
X034324Y038550D01*
X034333Y038473D02*
X034158Y038473D01*
X034169Y038484D02*
X034169Y038960D01*
X034152Y038977D01*
X033873Y038722D02*
X033676Y038919D01*
X032849Y038919D01*
X032849Y038722D02*
X033126Y038722D01*
X033126Y038780D01*
X033577Y038780D01*
X033577Y038484D01*
X033635Y038426D01*
X034111Y038426D01*
X034169Y038484D01*
X034409Y038396D02*
X033519Y038396D01*
X033519Y038473D02*
X033588Y038473D01*
X033577Y038550D02*
X033453Y038550D01*
X033376Y038628D02*
X033577Y038628D01*
X033577Y038705D02*
X033126Y038705D01*
X033282Y038525D02*
X033381Y038427D01*
X033381Y038033D01*
X033479Y037935D01*
X034070Y037935D01*
X034857Y037935D01*
X035153Y037932D02*
X035703Y037932D01*
X035703Y037855D02*
X035153Y037855D01*
X035153Y037778D02*
X035703Y037778D01*
X035703Y037701D02*
X035153Y037701D01*
X035153Y038010D02*
X035703Y038010D01*
X035703Y038087D02*
X035153Y038087D01*
X035153Y038164D02*
X035703Y038164D01*
X035703Y038241D02*
X033519Y038241D01*
X033519Y038164D02*
X033773Y038164D01*
X033773Y038087D02*
X033523Y038087D01*
X033519Y038319D02*
X035703Y038319D01*
X035703Y038396D02*
X034912Y038396D01*
X034987Y038473D02*
X035703Y038473D01*
X035703Y038550D02*
X034996Y038550D01*
X034996Y038628D02*
X035008Y038628D01*
X035251Y038919D02*
X035644Y038919D01*
X035841Y038722D01*
X035841Y036065D01*
X035980Y036774D02*
X039975Y036774D01*
X039975Y036851D02*
X035980Y036851D01*
X035980Y036928D02*
X036188Y036928D01*
X036113Y037006D02*
X035980Y037006D01*
X035980Y037083D02*
X036081Y037083D01*
X036075Y037160D02*
X035980Y037160D01*
X035980Y037237D02*
X036091Y037237D01*
X036136Y037315D02*
X035980Y037315D01*
X035980Y037392D02*
X036195Y037392D01*
X036195Y037469D02*
X035980Y037469D01*
X035980Y037546D02*
X036195Y037546D01*
X036195Y037623D02*
X035980Y037623D01*
X035980Y037701D02*
X036195Y037701D01*
X036195Y037778D02*
X035980Y037778D01*
X035980Y037855D02*
X036195Y037855D01*
X036195Y037932D02*
X035980Y037932D01*
X035980Y038010D02*
X036195Y038010D01*
X036195Y038087D02*
X035980Y038087D01*
X035980Y038164D02*
X036195Y038164D01*
X036195Y038241D02*
X035980Y038241D01*
X035980Y038319D02*
X036195Y038319D01*
X036195Y038396D02*
X035980Y038396D01*
X035980Y038473D02*
X036195Y038473D01*
X036195Y038550D02*
X035980Y038550D01*
X035980Y038628D02*
X036195Y038628D01*
X036195Y038705D02*
X035980Y038705D01*
X035978Y038782D02*
X036195Y038782D01*
X036195Y038859D02*
X035900Y038859D01*
X035823Y038937D02*
X036195Y038937D01*
X036195Y039014D02*
X035746Y039014D01*
X035547Y039091D02*
X036195Y039091D01*
X036195Y039168D02*
X035536Y039168D01*
X035547Y038705D02*
X035662Y038705D01*
X035703Y038628D02*
X035494Y038628D01*
X034931Y039246D02*
X036195Y039246D01*
X036195Y039323D02*
X034956Y039323D01*
X035940Y040297D02*
X036235Y040100D01*
X036333Y040002D01*
X036333Y037147D01*
X036576Y037237D02*
X039975Y037237D01*
X039975Y037160D02*
X036592Y037160D01*
X036586Y037083D02*
X039975Y037083D01*
X039975Y037006D02*
X036554Y037006D01*
X036479Y036928D02*
X039975Y036928D01*
X039975Y037315D02*
X036531Y037315D01*
X036472Y037392D02*
X039975Y037392D01*
X039975Y037469D02*
X036472Y037469D01*
X036472Y037546D02*
X039975Y037546D01*
X039975Y037623D02*
X036472Y037623D01*
X036472Y037701D02*
X039975Y037701D01*
X039814Y037778D02*
X039546Y037778D01*
X039524Y037757D02*
X039582Y037815D01*
X039582Y038547D01*
X039524Y038605D01*
X039048Y038605D01*
X038990Y038547D01*
X038990Y037815D01*
X039048Y037757D01*
X039524Y037757D01*
X039582Y037855D02*
X039777Y037855D01*
X039777Y037932D02*
X039582Y037932D01*
X039582Y038010D02*
X039777Y038010D01*
X039777Y038087D02*
X039582Y038087D01*
X039582Y038164D02*
X039777Y038164D01*
X039777Y038241D02*
X039582Y038241D01*
X039582Y038319D02*
X039777Y038319D01*
X039777Y038396D02*
X039582Y038396D01*
X039582Y038473D02*
X039777Y038473D01*
X039781Y038550D02*
X039579Y038550D01*
X039286Y038181D02*
X039286Y038131D01*
X038990Y038164D02*
X038795Y038164D01*
X038795Y038087D02*
X038990Y038087D01*
X038990Y038010D02*
X038795Y038010D01*
X038795Y037932D02*
X038990Y037932D01*
X038990Y037855D02*
X038795Y037855D01*
X038795Y037815D02*
X038795Y038547D01*
X038737Y038605D01*
X038261Y038605D01*
X038203Y038547D01*
X038203Y037815D01*
X038261Y037757D01*
X038737Y037757D01*
X038795Y037815D01*
X038758Y037778D02*
X039027Y037778D01*
X038990Y038241D02*
X038795Y038241D01*
X038795Y038319D02*
X038990Y038319D01*
X038990Y038396D02*
X038795Y038396D01*
X038795Y038473D02*
X038990Y038473D01*
X038994Y038550D02*
X038791Y038550D01*
X038499Y038181D02*
X038499Y038131D01*
X038203Y038164D02*
X038008Y038164D01*
X038008Y038087D02*
X038203Y038087D01*
X038203Y038010D02*
X038008Y038010D01*
X038008Y037932D02*
X038203Y037932D01*
X038203Y037855D02*
X038008Y037855D01*
X038008Y037815D02*
X038008Y038547D01*
X037949Y038605D01*
X037473Y038605D01*
X037415Y038547D01*
X037415Y037815D01*
X037473Y037757D01*
X037949Y037757D01*
X038008Y037815D01*
X037971Y037778D02*
X038239Y037778D01*
X038203Y038241D02*
X038008Y038241D01*
X038008Y038319D02*
X038203Y038319D01*
X038203Y038396D02*
X038008Y038396D01*
X038008Y038473D02*
X038203Y038473D01*
X038206Y038550D02*
X038004Y038550D01*
X037711Y038181D02*
X037711Y038131D01*
X037415Y038164D02*
X037220Y038164D01*
X037220Y038087D02*
X037415Y038087D01*
X037415Y038010D02*
X037220Y038010D01*
X037220Y037932D02*
X037415Y037932D01*
X037415Y037855D02*
X037220Y037855D01*
X037220Y037815D02*
X037220Y038547D01*
X037162Y038605D01*
X036686Y038605D01*
X036628Y038547D01*
X036628Y037815D01*
X036686Y037757D01*
X037162Y037757D01*
X037220Y037815D01*
X037183Y037778D02*
X037452Y037778D01*
X037415Y038241D02*
X037220Y038241D01*
X037220Y038319D02*
X037415Y038319D01*
X037415Y038396D02*
X037220Y038396D01*
X037220Y038473D02*
X037415Y038473D01*
X037419Y038550D02*
X037217Y038550D01*
X036924Y038230D02*
X036924Y038181D01*
X036628Y038164D02*
X036472Y038164D01*
X036472Y038087D02*
X036628Y038087D01*
X036628Y038010D02*
X036472Y038010D01*
X036472Y037932D02*
X036628Y037932D01*
X036628Y037855D02*
X036472Y037855D01*
X036472Y037778D02*
X036665Y037778D01*
X036628Y038241D02*
X036472Y038241D01*
X036472Y038319D02*
X036628Y038319D01*
X036628Y038396D02*
X036472Y038396D01*
X036472Y038473D02*
X036628Y038473D01*
X036631Y038550D02*
X036472Y038550D01*
X036472Y038628D02*
X043871Y038628D01*
X043871Y038705D02*
X036472Y038705D01*
X036472Y038782D02*
X043871Y038782D01*
X043871Y038859D02*
X043140Y038859D01*
X043237Y038900D02*
X043439Y039102D01*
X043549Y039366D01*
X043549Y039653D01*
X043439Y039917D01*
X043237Y040119D01*
X042973Y040229D01*
X042686Y040229D01*
X042422Y040119D01*
X042220Y039917D01*
X042110Y039653D01*
X042110Y039366D01*
X042220Y039102D01*
X042422Y038900D01*
X042686Y038790D01*
X042973Y038790D01*
X043237Y038900D01*
X043274Y038937D02*
X043871Y038937D01*
X043871Y039014D02*
X043351Y039014D01*
X043428Y039091D02*
X043871Y039091D01*
X043871Y039168D02*
X043467Y039168D01*
X043499Y039246D02*
X043871Y039246D01*
X043871Y039323D02*
X043531Y039323D01*
X043549Y039400D02*
X043871Y039400D01*
X043871Y039477D02*
X043549Y039477D01*
X043549Y039554D02*
X043871Y039554D01*
X043871Y039632D02*
X043549Y039632D01*
X043526Y039709D02*
X043871Y039709D01*
X043871Y039786D02*
X043494Y039786D01*
X043462Y039863D02*
X043871Y039863D01*
X043871Y039941D02*
X043416Y039941D01*
X043338Y040018D02*
X043871Y040018D01*
X043871Y040095D02*
X043261Y040095D01*
X043109Y040172D02*
X043871Y040172D01*
X043871Y040250D02*
X040410Y040250D01*
X040410Y040327D02*
X043871Y040327D01*
X043871Y040404D02*
X040407Y040404D01*
X040410Y040394D02*
X040400Y040429D01*
X040382Y040461D01*
X040356Y040487D01*
X040324Y040505D01*
X040289Y040515D01*
X040113Y040515D01*
X040113Y040090D01*
X040410Y040090D01*
X040410Y040394D01*
X040362Y040481D02*
X043871Y040481D01*
X042550Y040172D02*
X040410Y040172D01*
X040410Y040095D02*
X042398Y040095D01*
X042321Y040018D02*
X040113Y040018D01*
X040113Y040011D02*
X040113Y040090D01*
X040034Y040090D01*
X040034Y040011D01*
X040113Y040011D01*
X040113Y039587D01*
X040289Y039587D01*
X040324Y039596D01*
X040356Y039614D01*
X040382Y039640D01*
X040400Y039672D01*
X040410Y039708D01*
X040410Y040011D01*
X040113Y040011D01*
X040113Y039941D02*
X040034Y039941D01*
X040034Y040011D02*
X040034Y039587D01*
X039858Y039587D01*
X039823Y039596D01*
X039791Y039614D01*
X039765Y039640D01*
X039747Y039672D01*
X039737Y039708D01*
X039737Y040011D01*
X040034Y040011D01*
X040034Y040018D02*
X039326Y040018D01*
X039326Y040011D02*
X039326Y040090D01*
X039622Y040090D01*
X039622Y040394D01*
X039613Y040429D01*
X039595Y040461D01*
X039569Y040487D01*
X039537Y040505D01*
X039501Y040515D01*
X039326Y040515D01*
X039326Y040090D01*
X039247Y040090D01*
X039247Y040011D01*
X039326Y040011D01*
X039622Y040011D01*
X039622Y039708D01*
X039613Y039672D01*
X039595Y039640D01*
X039569Y039614D01*
X039537Y039596D01*
X039501Y039587D01*
X039326Y039587D01*
X039326Y040011D01*
X039326Y039941D02*
X039247Y039941D01*
X039247Y040011D02*
X039247Y039587D01*
X039071Y039587D01*
X039036Y039596D01*
X039004Y039614D01*
X038978Y039640D01*
X038959Y039672D01*
X038950Y039708D01*
X038950Y040011D01*
X039247Y040011D01*
X039247Y040018D02*
X038795Y040018D01*
X038795Y040095D02*
X038950Y040095D01*
X038950Y040090D02*
X039247Y040090D01*
X039247Y040515D01*
X039071Y040515D01*
X039036Y040505D01*
X039004Y040487D01*
X038978Y040461D01*
X038959Y040429D01*
X038950Y040394D01*
X038950Y040090D01*
X038950Y040172D02*
X038795Y040172D01*
X038795Y040250D02*
X038950Y040250D01*
X038950Y040327D02*
X038795Y040327D01*
X038795Y040404D02*
X038953Y040404D01*
X038998Y040481D02*
X036236Y040481D01*
X036236Y040404D02*
X036628Y040404D01*
X036628Y040417D02*
X036628Y039685D01*
X036686Y039627D01*
X037162Y039627D01*
X037220Y039685D01*
X037220Y039892D01*
X037415Y039892D01*
X037415Y039685D01*
X037473Y039627D01*
X037949Y039627D01*
X038008Y039685D01*
X038008Y039892D01*
X038203Y039892D01*
X038203Y039685D01*
X038261Y039627D01*
X038737Y039627D01*
X038795Y039685D01*
X038795Y040417D01*
X038737Y040475D01*
X038261Y040475D01*
X038203Y040417D01*
X038203Y040209D01*
X038008Y040209D01*
X038008Y040417D01*
X037949Y040475D01*
X037473Y040475D01*
X037415Y040417D01*
X037415Y040209D01*
X037220Y040209D01*
X037220Y040417D01*
X037162Y040475D01*
X036686Y040475D01*
X036628Y040417D01*
X036628Y040327D02*
X036236Y040327D01*
X036261Y040250D02*
X036628Y040250D01*
X036628Y040172D02*
X036362Y040172D01*
X036436Y040095D02*
X036628Y040095D01*
X036628Y040018D02*
X036472Y040018D01*
X036472Y039941D02*
X036628Y039941D01*
X036628Y039863D02*
X036472Y039863D01*
X036472Y039786D02*
X036628Y039786D01*
X036628Y039709D02*
X036472Y039709D01*
X036472Y039632D02*
X036681Y039632D01*
X036472Y039554D02*
X042110Y039554D01*
X042110Y039477D02*
X036472Y039477D01*
X036472Y039400D02*
X042110Y039400D01*
X042128Y039323D02*
X036472Y039323D01*
X036472Y039246D02*
X042160Y039246D01*
X042192Y039168D02*
X036472Y039168D01*
X036472Y039091D02*
X042231Y039091D01*
X042308Y039014D02*
X036472Y039014D01*
X036472Y038937D02*
X042385Y038937D01*
X042519Y038859D02*
X036472Y038859D01*
X037167Y039632D02*
X037468Y039632D01*
X037415Y039709D02*
X037220Y039709D01*
X037220Y039786D02*
X037415Y039786D01*
X037415Y039863D02*
X037220Y039863D01*
X036924Y040051D02*
X036924Y040100D01*
X037220Y040250D02*
X037415Y040250D01*
X037415Y040327D02*
X037220Y040327D01*
X037220Y040404D02*
X037415Y040404D01*
X038008Y040404D02*
X038203Y040404D01*
X038203Y040327D02*
X038008Y040327D01*
X038008Y040250D02*
X038203Y040250D01*
X038203Y039863D02*
X038008Y039863D01*
X038008Y039786D02*
X038203Y039786D01*
X038203Y039709D02*
X038008Y039709D01*
X037955Y039632D02*
X038256Y039632D01*
X038742Y039632D02*
X038987Y039632D01*
X038950Y039709D02*
X038795Y039709D01*
X038795Y039786D02*
X038950Y039786D01*
X038950Y039863D02*
X038795Y039863D01*
X038795Y039941D02*
X038950Y039941D01*
X039247Y039863D02*
X039326Y039863D01*
X039326Y039786D02*
X039247Y039786D01*
X039247Y039709D02*
X039326Y039709D01*
X039326Y039632D02*
X039247Y039632D01*
X039586Y039632D02*
X039774Y039632D01*
X039737Y039709D02*
X039622Y039709D01*
X039622Y039786D02*
X039737Y039786D01*
X039737Y039863D02*
X039622Y039863D01*
X039622Y039941D02*
X039737Y039941D01*
X039737Y040090D02*
X040034Y040090D01*
X040034Y040515D01*
X039858Y040515D01*
X039823Y040505D01*
X039791Y040487D01*
X039765Y040461D01*
X039747Y040429D01*
X039737Y040394D01*
X039737Y040090D01*
X039737Y040095D02*
X039622Y040095D01*
X039622Y040172D02*
X039737Y040172D01*
X039737Y040250D02*
X039622Y040250D01*
X039622Y040327D02*
X039737Y040327D01*
X039740Y040404D02*
X039620Y040404D01*
X039574Y040481D02*
X039785Y040481D01*
X040034Y040481D02*
X040113Y040481D01*
X040113Y040404D02*
X040034Y040404D01*
X040034Y040327D02*
X040113Y040327D01*
X040113Y040250D02*
X040034Y040250D01*
X040034Y040172D02*
X040113Y040172D01*
X040113Y040095D02*
X040034Y040095D01*
X040034Y039863D02*
X040113Y039863D01*
X040113Y039786D02*
X040034Y039786D01*
X040034Y039709D02*
X040113Y039709D01*
X040113Y039632D02*
X040034Y039632D01*
X040373Y039632D02*
X042110Y039632D01*
X042134Y039709D02*
X040410Y039709D01*
X040410Y039786D02*
X042166Y039786D01*
X042198Y039863D02*
X040410Y039863D01*
X040410Y039941D02*
X042243Y039941D01*
X043871Y038550D02*
X040366Y038550D01*
X040370Y038473D02*
X043871Y038473D01*
X041648Y037147D02*
X041255Y037541D01*
X041255Y037580D01*
X041255Y037639D01*
X040074Y038181D02*
X040074Y038230D01*
X039326Y040095D02*
X039247Y040095D01*
X039247Y040172D02*
X039326Y040172D01*
X039326Y040250D02*
X039247Y040250D01*
X039247Y040327D02*
X039326Y040327D01*
X039326Y040404D02*
X039247Y040404D01*
X039247Y040481D02*
X039326Y040481D01*
X035703Y037623D02*
X033396Y037623D01*
X033323Y037701D02*
X033773Y037701D01*
X033773Y037778D02*
X033323Y037778D01*
X033323Y037855D02*
X033362Y037855D01*
X033184Y037639D02*
X033184Y038230D01*
X033085Y038328D01*
X032849Y038328D01*
X032849Y038525D02*
X033282Y038525D01*
X032849Y038722D02*
X032849Y038722D01*
X032593Y037777D02*
X032593Y037344D01*
X033381Y036557D01*
X033774Y036163D01*
X034562Y036163D01*
X034660Y036261D01*
X034660Y036557D01*
X034956Y036774D02*
X035151Y036774D01*
X035095Y036851D02*
X035208Y036851D01*
X035153Y036928D02*
X035703Y036928D01*
X035703Y036851D02*
X035688Y036851D01*
X035703Y037006D02*
X035153Y037006D01*
X035153Y037083D02*
X035703Y037083D01*
X035703Y037160D02*
X035153Y037160D01*
X035153Y037237D02*
X035703Y037237D01*
X035703Y037315D02*
X035153Y037315D01*
X035147Y037392D02*
X035703Y037392D01*
X035703Y037469D02*
X033550Y037469D01*
X033473Y037546D02*
X035703Y037546D01*
X034070Y037147D02*
X033676Y037147D01*
X033184Y037639D01*
X033628Y037392D02*
X033780Y037392D01*
X033773Y037315D02*
X033705Y037315D01*
X032889Y036261D02*
X032396Y036754D01*
X032396Y037777D01*
X032200Y037777D02*
X032200Y036360D01*
X032101Y036261D01*
X032101Y036065D01*
X032298Y035868D01*
X033282Y035868D01*
X033381Y035769D01*
X032003Y036950D02*
X031609Y036557D01*
X031609Y036261D01*
X030822Y036261D02*
X030822Y036557D01*
X031806Y037541D01*
X031806Y037777D01*
X032003Y037777D02*
X032003Y036950D01*
X031609Y037541D02*
X031117Y037049D01*
X030723Y037049D01*
X030556Y036851D02*
X030134Y036851D01*
X030134Y036928D02*
X030494Y036928D01*
X030465Y037006D02*
X030134Y037006D01*
X030134Y037083D02*
X030465Y037083D01*
X030247Y037160D02*
X030134Y037160D01*
X030134Y037237D02*
X030193Y037237D01*
X030170Y037315D02*
X030106Y037315D01*
X030170Y037392D02*
X029976Y037392D01*
X029976Y037469D02*
X030200Y037469D01*
X030265Y037546D02*
X029976Y037546D01*
X029976Y037623D02*
X030276Y037623D01*
X030205Y037701D02*
X029976Y037701D01*
X029976Y037778D02*
X030173Y037778D01*
X030170Y037855D02*
X030053Y037855D01*
X030130Y037932D02*
X030188Y037932D01*
X030207Y038010D02*
X030236Y038010D01*
X030284Y038087D02*
X030359Y038087D01*
X030362Y038164D02*
X030560Y038164D01*
X030723Y038131D02*
X030428Y037836D01*
X030720Y037932D02*
X031067Y037932D01*
X031067Y038010D02*
X031120Y038010D01*
X031215Y037777D02*
X030959Y037777D01*
X030822Y037639D01*
X031215Y037344D02*
X030428Y037344D01*
X030097Y036774D02*
X030843Y036774D01*
X030890Y036851D02*
X030920Y036851D01*
X030765Y036697D02*
X027967Y036697D01*
X027967Y036774D02*
X028737Y036774D01*
X028742Y036766D02*
X028723Y036798D01*
X028714Y036834D01*
X028714Y037009D01*
X029011Y037009D01*
X029011Y036713D01*
X028835Y036713D01*
X028799Y036722D01*
X028768Y036740D01*
X028742Y036766D01*
X028714Y036851D02*
X027967Y036851D01*
X027967Y036928D02*
X028714Y036928D01*
X028714Y037006D02*
X027967Y037006D01*
X027967Y037083D02*
X029011Y037083D01*
X029011Y037160D02*
X029089Y037160D01*
X029089Y037083D02*
X029541Y037083D01*
X029541Y037160D02*
X029386Y037160D01*
X029386Y037237D02*
X029541Y037237D01*
X029569Y037315D02*
X029368Y037315D01*
X029157Y037392D02*
X028943Y037392D01*
X028953Y037469D02*
X029147Y037469D01*
X029089Y037315D02*
X029011Y037315D01*
X029011Y037237D02*
X029089Y037237D01*
X029089Y037006D02*
X029011Y037006D01*
X029011Y036928D02*
X029089Y036928D01*
X029089Y036851D02*
X029011Y036851D01*
X029011Y036774D02*
X029089Y036774D01*
X029363Y036774D02*
X029578Y036774D01*
X029541Y036851D02*
X029386Y036851D01*
X029386Y036928D02*
X029541Y036928D01*
X029541Y037006D02*
X029386Y037006D01*
X029837Y037049D02*
X029837Y037836D01*
X030330Y038328D01*
X030861Y038328D01*
X030861Y038131D02*
X030723Y038131D01*
X030861Y038525D02*
X030231Y038525D01*
X029444Y037738D01*
X029444Y037639D01*
X028656Y037639D01*
X028360Y037623D02*
X027967Y037623D01*
X027967Y037546D02*
X028360Y037546D01*
X028360Y037469D02*
X027967Y037469D01*
X027967Y037392D02*
X028370Y037392D01*
X028360Y037701D02*
X027967Y037701D01*
X027967Y037778D02*
X028360Y037778D01*
X028360Y037855D02*
X027967Y037855D01*
X027967Y037932D02*
X028415Y037932D01*
X028385Y038164D02*
X027967Y038164D01*
X027967Y038087D02*
X029597Y038087D01*
X029519Y038010D02*
X027967Y038010D01*
X027967Y038241D02*
X028360Y038241D01*
X028360Y038319D02*
X027967Y038319D01*
X027967Y038396D02*
X028360Y038396D01*
X028360Y038473D02*
X028238Y038473D01*
X028357Y038550D02*
X028360Y038550D01*
X028164Y038722D02*
X028263Y038919D01*
X028263Y039903D01*
X028361Y040002D01*
X028656Y040002D01*
X028415Y039709D02*
X028401Y039709D01*
X029739Y038722D02*
X030861Y038722D01*
X031412Y037777D02*
X031412Y037541D01*
X031215Y037344D01*
X031609Y037541D02*
X031609Y037777D01*
X030822Y036261D02*
X030330Y036261D01*
X028714Y037160D02*
X027967Y037160D01*
X027967Y037237D02*
X028714Y037237D01*
X028732Y037315D02*
X027967Y037315D01*
X028897Y037932D02*
X029203Y037932D01*
X029147Y037855D02*
X028953Y037855D01*
X028928Y038164D02*
X029172Y038164D01*
X029147Y038241D02*
X028953Y038241D01*
X028953Y038319D02*
X029147Y038319D01*
X032593Y039864D02*
X033144Y039864D01*
X033578Y040297D01*
X033873Y040297D01*
X025227Y040172D02*
X024424Y040172D01*
X024424Y040095D02*
X025075Y040095D01*
X024998Y040018D02*
X024424Y040018D01*
X024424Y039941D02*
X024921Y039941D01*
X024875Y039863D02*
X024424Y039863D01*
X024424Y039786D02*
X024843Y039786D01*
X024811Y039709D02*
X024424Y039709D01*
X024424Y039632D02*
X024787Y039632D01*
X024787Y039554D02*
X024424Y039554D01*
X024424Y039477D02*
X024787Y039477D01*
X024787Y039400D02*
X024424Y039400D01*
X024424Y039323D02*
X024805Y039323D01*
X024837Y039246D02*
X024424Y039246D01*
X024424Y039168D02*
X024869Y039168D01*
X024908Y039091D02*
X024424Y039091D01*
X024424Y039014D02*
X024985Y039014D01*
X025062Y038937D02*
X024424Y038937D01*
X024424Y038859D02*
X025196Y038859D01*
X018912Y030553D02*
X015172Y030553D01*
X014778Y030159D01*
X014778Y025730D01*
X016550Y024844D02*
X016944Y024450D01*
X019207Y024450D01*
X019306Y024549D01*
X019306Y028584D01*
X019995Y029273D01*
X019995Y029765D01*
X019601Y029667D02*
X019601Y029864D01*
X018912Y030553D01*
X011727Y023269D02*
X011727Y020317D01*
X012219Y019824D01*
X012219Y017757D01*
X012416Y017561D01*
X012613Y018053D02*
X012711Y018151D01*
X013597Y018151D01*
X013696Y018250D01*
X013696Y020021D01*
X013991Y020317D01*
X013991Y020612D01*
X014188Y020809D01*
X014975Y020809D01*
X015467Y021301D01*
X015861Y020809D02*
X016648Y020809D01*
X021956Y007500D02*
X022259Y007500D01*
X022259Y007422D02*
X022005Y007422D01*
X022025Y007345D02*
X022259Y007345D01*
X022259Y007268D02*
X022023Y007268D01*
X021991Y007191D02*
X022259Y007191D01*
X022259Y007114D02*
X021921Y007114D01*
X008085Y036950D02*
X006314Y036950D01*
D22*
X004444Y033407D02*
X003459Y033407D01*
X003263Y033210D01*
X003263Y031832D01*
X018814Y023958D02*
X018814Y023269D01*
X018814Y023958D02*
X019011Y024155D01*
X021963Y024155D01*
X022160Y024352D01*
X022160Y028289D01*
X021963Y028486D01*
X024818Y033998D02*
X024818Y007128D01*
X025015Y006931D01*
X028263Y006931D01*
X028853Y006340D01*
X028952Y006340D01*
X028755Y005946D02*
X027967Y006734D01*
X024621Y006734D01*
X024522Y006832D01*
X024522Y035277D01*
X025113Y035868D01*
X025113Y036124D01*
X025507Y036517D01*
X025507Y036557D01*
X025507Y037147D02*
X025507Y037482D01*
X025605Y037580D01*
X025763Y037580D01*
X025999Y037344D01*
X025999Y035277D01*
X024818Y033998D01*
X025113Y033899D02*
X025113Y007521D01*
X025507Y007128D01*
X028755Y007128D01*
X029641Y006242D01*
X030428Y006242D01*
X030822Y006635D01*
X039385Y006635D01*
X040074Y007324D01*
X043026Y007324D01*
X043223Y007521D01*
X043223Y033407D01*
X041255Y035376D01*
X041255Y036124D01*
X041648Y036517D01*
X041648Y036557D01*
X042830Y036557D02*
X042830Y036517D01*
X043223Y036124D01*
X043125Y036025D01*
X043125Y034194D01*
X043519Y033801D01*
X043519Y007226D01*
X043322Y007029D01*
X040270Y007029D01*
X039581Y006340D01*
X031117Y006340D01*
X031019Y006340D01*
X030723Y006045D01*
X030723Y003387D01*
X030822Y003289D01*
X031274Y003289D01*
X031707Y002895D02*
X031727Y002915D01*
X032101Y002915D01*
X031707Y002895D02*
X031707Y001714D01*
X031806Y001616D01*
X032081Y001616D01*
X032101Y001635D01*
X032121Y001616D01*
X032889Y001616D01*
X033135Y001862D01*
X033135Y002256D01*
X033381Y002502D01*
X035005Y002502D01*
X035054Y002452D01*
X035054Y001714D01*
X035152Y001616D01*
X036235Y001616D01*
X036432Y001813D01*
X036432Y002895D01*
X036412Y002876D01*
X036038Y002876D01*
X036058Y002895D01*
X036432Y002895D02*
X036432Y004175D01*
X036432Y005356D01*
X036353Y005435D01*
X036038Y005435D01*
X035959Y004765D02*
X035103Y004765D01*
X035005Y004864D01*
X035005Y004076D02*
X035546Y004076D01*
X036038Y003584D01*
X036038Y003407D01*
X035644Y003092D02*
X035644Y002206D01*
X035723Y002128D01*
X036038Y002128D01*
X036865Y002502D02*
X037318Y002502D01*
X040566Y002502D01*
X041255Y003191D01*
X041255Y004431D01*
X041648Y004824D01*
X041648Y004864D01*
X041648Y005454D02*
X041648Y005494D01*
X041255Y005887D01*
X041215Y005848D01*
X040467Y005848D01*
X040074Y005454D01*
X040074Y003978D01*
X039877Y003781D01*
X037318Y003781D01*
X036865Y003781D01*
X036432Y004175D02*
X036058Y004175D01*
X036038Y004155D01*
X036038Y004687D02*
X035959Y004765D01*
X036865Y005061D02*
X039483Y005061D01*
X039680Y006045D02*
X040369Y006734D01*
X043617Y006734D01*
X043814Y006931D01*
X043814Y034391D01*
X043617Y034588D01*
X042928Y037147D02*
X043322Y037541D01*
X043263Y037541D01*
X043223Y037580D01*
X042928Y037147D02*
X042830Y037147D01*
X038499Y040051D02*
X037711Y040051D01*
X036973Y040051D01*
X036924Y040100D01*
X027081Y037580D02*
X026688Y037187D01*
X026688Y037147D01*
X026294Y037147D01*
X026196Y037049D01*
X026196Y034982D01*
X025113Y033899D01*
X027081Y036124D02*
X026688Y036517D01*
X026688Y036557D01*
X025605Y037580D02*
X025113Y037580D01*
X030428Y006242D02*
X030428Y002206D01*
X030625Y002009D01*
X031274Y002009D01*
X032101Y002383D02*
X032121Y002403D01*
X032396Y002403D01*
X032495Y002502D01*
X032495Y003191D01*
X032593Y003289D01*
X033135Y003289D01*
X033135Y002502D02*
X033381Y002502D01*
X032593Y003683D02*
X032121Y003683D01*
X032101Y003663D01*
X032593Y003683D02*
X032987Y004076D01*
X033135Y004076D01*
X033135Y004864D02*
X032180Y004864D01*
X032101Y004943D01*
X032101Y004194D02*
X031826Y004194D01*
X031707Y004076D01*
X031707Y002895D01*
X031274Y004569D02*
X031274Y005907D01*
X031412Y006045D01*
X039680Y006045D01*
X042830Y005454D02*
X042928Y005454D01*
X043322Y005848D01*
X043184Y005848D01*
X043223Y005887D01*
X042830Y004864D02*
X042830Y004824D01*
X043223Y004431D01*
X043223Y004372D02*
X043164Y004372D01*
X035644Y003092D02*
X035448Y003289D01*
X035005Y003289D01*
X029837Y002502D02*
X029739Y002600D01*
X029739Y004372D01*
X028263Y005848D01*
X027081Y005848D01*
X027081Y005887D01*
X026688Y005494D01*
X026688Y005454D01*
X026688Y004864D02*
X027081Y004470D01*
X027081Y004431D01*
X027908Y004431D01*
X028558Y003781D01*
X029148Y003781D01*
X028164Y003486D02*
X026294Y003486D01*
X025349Y004431D01*
X025349Y004706D01*
X025507Y004864D01*
X025349Y004431D02*
X025113Y004431D01*
X025507Y005454D02*
X025507Y005494D01*
X025113Y005887D01*
D23*
X007987Y035966D02*
X004936Y035966D01*
D24*
X004444Y036655D02*
X004148Y036950D01*
X003558Y036950D01*
X004444Y036655D02*
X004444Y033407D01*
X004641Y033210D01*
X005133Y033210D01*
X005330Y033013D01*
X025507Y033702D02*
X025507Y008013D01*
X026097Y007423D01*
X025113Y005887D02*
X025546Y005454D01*
X025900Y005454D01*
X026097Y005257D01*
X033135Y005651D02*
X034070Y005651D01*
X034070Y002994D01*
X034070Y005651D02*
X035005Y005651D01*
X034956Y005651D01*
X042830Y007817D02*
X042830Y033210D01*
X040959Y035080D01*
X040566Y035080D01*
X040270Y035376D01*
X040270Y037049D01*
X040802Y037580D01*
X041255Y037580D01*
X027081Y036124D02*
X027081Y035277D01*
X025507Y033702D01*
X043223Y004431D02*
X043223Y004372D01*
D25*
X008184Y004076D02*
X004247Y004076D01*
X002967Y005356D01*
X002967Y020907D01*
X003755Y021694D01*
X003755Y026124D01*
X004345Y026714D01*
X007593Y026714D01*
X008774Y027895D01*
X008774Y031143D01*
X015664Y011261D02*
X015664Y010080D01*
X015664Y009588D01*
X015664Y008801D02*
X015664Y002108D01*
X015172Y001616D01*
X010644Y001616D01*
X008184Y004076D01*
M02*
