%
M48
M72
T01C0.0157
T02C0.0630
T03C0.1160
%
T01
X5428Y2403
X3952Y5848
X4050Y6931
X4050Y7915
X3755Y9883
X5330Y10966
X4345Y11655
X4148Y12639
X4148Y13230
X4148Y14017
X4148Y14509
X4148Y15297
X4148Y16380
X4148Y17167
X4148Y17659
X4148Y18446
X5625Y17364
X5526Y16576
X6511Y15592
X6215Y15002
X5920Y14214
X5526Y13820
X5822Y13328
X7396Y12344
X8282Y13033
X9660Y13919
X10152Y13624
X10152Y13230
X10152Y12836
X10251Y12443
X10644Y12344
X11333Y12344
X11629Y12836
X12219Y12738
X12711Y13919
X11924Y15887
X11333Y16084
X12613Y16675
X12416Y17561
X12613Y18053
X12613Y18643
X12613Y19332
X11629Y19529
X10841Y19037
X10152Y18643
X9562Y19135
X8774Y19529
X8578Y20710
X8578Y21498
X8774Y22383
X9463Y23171
X9562Y23958
X10448Y23860
X10448Y23072
X11137Y23171
X12515Y22679
X13302Y22679
X13499Y21301
X12711Y21301
X12908Y20513
X13696Y20513
X14483Y20415
X14188Y19824
X14188Y19037
X14975Y19037
X15467Y19037
X15763Y19824
X16255Y19037
X16944Y19332
X16747Y19824
X15861Y20809
X15763Y21301
X15763Y21793
X14483Y21202
X14975Y19824
X14975Y18250
X16255Y18250
X16845Y17856
X17239Y17364
X17436Y16970
X17731Y16675
X18715Y15887
X19207Y16576
X19700Y17069
X20192Y16970
X20684Y17069
X21373Y16773
X20684Y17856
X20684Y18446
X20093Y18446
X19700Y17856
X19306Y18446
X19011Y17659
X18223Y18840
X18026Y19234
X18125Y19824
X18617Y20317
X19207Y20415
X19601Y21104
X19601Y21596
X18814Y21596
X18026Y21301
X17830Y22187
X17436Y22187
X18125Y22876
X18420Y22482
X18715Y22777
X18814Y23269
X19207Y22876
X19207Y23663
X19995Y23761
X19995Y24549
X18814Y24844
X18814Y25435
X18814Y26025
X18223Y26025
X17633Y26025
X17633Y25435
X18223Y25435
X18223Y24844
X17633Y24844
X16550Y24844
X16058Y24943
X15270Y24943
X14663Y25122
X14106Y24566
X13516Y25156
X14072Y25713
X14778Y25730
X13991Y26714
X13893Y27305
X13893Y28092
X13676Y29667
X14463Y29667
X14463Y30454
X13676Y30474
X13991Y31439
X13991Y32226
X13204Y32226
X13204Y31439
X15369Y29175
X16156Y29273
X16944Y29273
X16845Y29864
X16058Y29864
X17239Y30848
X17239Y31340
X17239Y31832
X16648Y32423
X17239Y32915
X17239Y33309
X17239Y33801
X17239Y34293
X16648Y34785
X17239Y35572
X17239Y36065
X17337Y36557
X17633Y36950
X18026Y37246
X17633Y38033
X18420Y38033
X18912Y37541
X19404Y37541
X19896Y37541
X20389Y37541
X20979Y37935
X21471Y37935
X21963Y37935
X20389Y36360
X19896Y36360
X19404Y36360
X18912Y36261
X18519Y35966
X18420Y35474
X19011Y34785
X18420Y34293
X18420Y33801
X18420Y33407
X18519Y32915
X19306Y32915
X19306Y32128
X18519Y32147
X19700Y31242
X19011Y30848
X18519Y30257
X18519Y29864
X18125Y29864
X18125Y30257
X19601Y29667
X19995Y29765
X20585Y29962
X21373Y29962
X21963Y28486
X21274Y27797
X20881Y26911
X20881Y26124
X20093Y26124
X20093Y26911
X19011Y27403
X19011Y28191
X19798Y28584
X17928Y27994
X17337Y27895
X16944Y28486
X16550Y27895
X16156Y28486
X15664Y28092
X15763Y26517
X16550Y26517
X17928Y27206
X15763Y24155
X16255Y23368
X17042Y23368
X20389Y22482
X21570Y23761
X21865Y25828
X20684Y20415
X20389Y19726
X20684Y19234
X21373Y19234
X21373Y18446
X19798Y19234
X19011Y19234
X16452Y16773
X15664Y16773
X15172Y16773
X14385Y16773
X13893Y16872
X16353Y13919
X15861Y13525
X16353Y13131
X17141Y13919
X18125Y14116
X19503Y13230
X18519Y12639
X19306Y11950
X20093Y11950
X20487Y11458
X20881Y11950
X21274Y11458
X20487Y10671
X19700Y10671
X18912Y10671
X17731Y11557
X15664Y11261
X15172Y10671
X15664Y10080
X15664Y9588
X15664Y8801
X17239Y8604
X17239Y7817
X19404Y8210
X20684Y9096
X21767Y7324
X21767Y6537
X19503Y6537
X18125Y2108
X18519Y2009
X14975Y2502
X13400Y2502
X13400Y4076
X13400Y4864
X14778Y5651
X13696Y7029
X13499Y7817
X13007Y7817
X12908Y7029
X12908Y6242
X11924Y7029
X11530Y7817
X11235Y8604
X11333Y10179
X10546Y10179
X10546Y10966
X11333Y10966
X9562Y9883
X8085Y9883
X7396Y10671
X7101Y11065
X10251Y14116
X8873Y17265
X9562Y21006
X10349Y21006
X10349Y21793
X7790Y22876
X7790Y23663
X8184Y25139
X8479Y26124
X8479Y26911
X9267Y26911
X9267Y26124
X8085Y28289
X7751Y28978
X7751Y29372
X7357Y29372
X7357Y28978
X6707Y28880
X6314Y28880
X5920Y28880
X5920Y29273
X5526Y28880
X5526Y28092
X5920Y28092
X5920Y27698
X6707Y27698
X6707Y28092
X7298Y28289
X6707Y29273
X8774Y31143
X9956Y31242
X9956Y30750
X9956Y30257
X9956Y29765
X9956Y29273
X13204Y26714
X6117Y21301
X6019Y20710
X5034Y21399
X4247Y21399
X4247Y22187
X5034Y22187
X5526Y22187
X4444Y20317
X5920Y24254
X4247Y25139
X4837Y25927
X4444Y27206
X3263Y31832
X3952Y32029
X4247Y32226
X4542Y32423
X4542Y32029
X3952Y32423
X5330Y33013
X5330Y33801
X5625Y34391
X4837Y34391
X5428Y35277
X6019Y35277
X4936Y35966
X3853Y36163
X3459Y36163
X3066Y36163
X3558Y36950
X5428Y37836
X6019Y37836
X6314Y38427
X6314Y38820
X6314Y39214
X5920Y40002
X5526Y40297
X6707Y40100
X7692Y40100
X8479Y40297
X8873Y40002
X9759Y40198
X12416Y40198
X13696Y39411
X14483Y39411
X15270Y38033
X16058Y38033
X16845Y38033
X16845Y40198
X17633Y40198
X18420Y40198
X20979Y35966
X21471Y35966
X21963Y35966
X30133Y38722
X30625Y38427
X31806Y37049
X32396Y37344
X32692Y37049
X32790Y37639
X32396Y37836
X31511Y36261
X35841Y38722
X36826Y37147
X37416Y36557
X37810Y36065
X38302Y37147
X38893Y38230
X39680Y38131
X40467Y38131
X41255Y38131
X42042Y38230
X45290Y37541
X45585Y34588
X38893Y40100
X36137Y35769
X33676Y40238
X32003Y40198
X8085Y36950
X7987Y35966
X6314Y36950
X20093Y16478
X21767Y15494
X21767Y15100
X21767Y14706
X21767Y14313
X21373Y14706
X20979Y14706
X20585Y14313
X20782Y13230
X20881Y12738
X22062Y13131
X15369Y12443
X13696Y11360
X13696Y10572
X9267Y6537
X11432Y5651
X11432Y2502
X28066Y5257
X28066Y7423
X30723Y5946
X30920Y6340
X33085Y6340
X33243Y5907
X31117Y3781
X30133Y3486
X31806Y2502
X36038Y2994
X39286Y2502
X39286Y3781
X41452Y5061
X45192Y4372
X45290Y5848
X44798Y7817
T02
X17239Y4864
X17239Y2502
X7790Y2502
X7790Y4864
T03
X3853Y2502
X21176Y2502
X27475Y2502
X44798Y2502
X44798Y39509
X27475Y39509
X21176Y39509
X3853Y39509
M30
