G75*
G70*
%OFA0B0*%
%FSLAX24Y24*%
%IPPOS*%
%LPD*%
%AMOC8*
5,1,8,0,0,1.08239X$1,22.5*
%
%ADD10C,0.0317*%
%ADD11C,0.0310*%
%ADD12C,0.0079*%
D10*
X011717Y014397D03*
X012997Y018727D03*
X010143Y018826D03*
X007977Y024928D03*
X008666Y025519D03*
X011619Y025322D03*
X012406Y026798D03*
X014080Y027586D03*
X013883Y025322D03*
X015950Y025223D03*
X016146Y026601D03*
X017721Y029062D03*
X017721Y029849D03*
X018509Y029849D03*
X018509Y029062D03*
X019394Y029849D03*
X019394Y030637D03*
X019985Y030637D03*
X019985Y031424D03*
X020772Y030637D03*
X021363Y031326D03*
X021363Y032113D03*
X021127Y032704D03*
X020379Y032704D03*
X020339Y033491D03*
X020182Y034082D03*
X020969Y034082D03*
X021127Y033491D03*
X022328Y034082D03*
X022721Y034082D03*
X022721Y034475D03*
X022328Y034475D03*
X021855Y035066D03*
X021461Y035558D03*
X021461Y036247D03*
X021363Y037133D03*
X021461Y037920D03*
X021461Y038708D03*
X021461Y039495D03*
X021363Y040282D03*
X021363Y041070D03*
X021461Y041857D03*
X021461Y042645D03*
X021757Y043531D03*
X022446Y044121D03*
X023725Y044219D03*
X024709Y044219D03*
X025595Y044515D03*
X026087Y044515D03*
X026580Y044515D03*
X026580Y042546D03*
X026087Y042546D03*
X025595Y042546D03*
X024709Y042842D03*
X023725Y042842D03*
X022839Y042645D03*
X022839Y041857D03*
X022839Y041070D03*
X022839Y040282D03*
X022839Y039495D03*
X022839Y038708D03*
X022839Y037920D03*
X023528Y037133D03*
X023528Y036405D03*
X022741Y036385D03*
X023233Y035027D03*
X023824Y033885D03*
X024217Y033491D03*
X023824Y032704D03*
X023135Y032408D03*
X023135Y031621D03*
X022150Y031326D03*
X022150Y032113D03*
X022249Y030243D03*
X022643Y030243D03*
X023036Y030243D03*
X023036Y029849D03*
X023036Y029456D03*
X022643Y029456D03*
X022643Y029849D03*
X022249Y029849D03*
X022249Y029456D03*
X021855Y029456D03*
X021855Y029849D03*
X021855Y030243D03*
X021855Y029062D03*
X022249Y029062D03*
X022643Y029062D03*
X023036Y029062D03*
X023528Y027979D03*
X023528Y027192D03*
X024316Y027782D03*
X025103Y027782D03*
X024316Y028570D03*
X024414Y030342D03*
X025202Y030342D03*
X025398Y031129D03*
X025300Y031818D03*
X024611Y031129D03*
X026186Y031916D03*
X026678Y030735D03*
X025989Y033294D03*
X023331Y033590D03*
X020182Y035361D03*
X020182Y036149D03*
X019394Y036149D03*
X019394Y035361D03*
X018607Y035460D03*
X017820Y035460D03*
X017820Y034672D03*
X018607Y034672D03*
X018509Y033196D03*
X018509Y032408D03*
X017721Y032408D03*
X017721Y033196D03*
X019591Y033491D03*
X016048Y031227D03*
X015359Y029653D03*
X019296Y025420D03*
X020772Y026011D03*
X021560Y025617D03*
X021265Y024141D03*
X022052Y024141D03*
X022052Y023353D03*
X021265Y023353D03*
X022938Y023058D03*
X022938Y023845D03*
X023135Y021975D03*
X023135Y021582D03*
X023528Y021582D03*
X023528Y021975D03*
X023922Y021975D03*
X023922Y021582D03*
X023922Y021188D03*
X023528Y021188D03*
X023135Y021188D03*
X022544Y020499D03*
X023135Y019219D03*
X024414Y019318D03*
X025202Y019219D03*
X025202Y020007D03*
X025202Y020893D03*
X025989Y020893D03*
X025989Y020007D03*
X025989Y019219D03*
X025300Y022271D03*
X025891Y022664D03*
X025497Y026503D03*
X024709Y026503D03*
X020871Y027487D03*
X020871Y028275D03*
X020772Y029062D03*
X020241Y029062D03*
X019493Y029062D03*
X019493Y028275D03*
X016737Y023255D03*
X018509Y023058D03*
X019887Y020597D03*
X019887Y019810D03*
X019099Y019712D03*
X019099Y018924D03*
X019887Y017940D03*
X019887Y017153D03*
X021461Y017349D03*
X021461Y016562D03*
X020576Y014397D03*
X018115Y014200D03*
X016146Y014200D03*
X016146Y014987D03*
X016048Y020499D03*
X021560Y021483D03*
X026087Y016168D03*
X026186Y012625D03*
X035635Y012133D03*
X035635Y013845D03*
X038489Y011149D03*
X039375Y009869D03*
X043706Y013314D03*
X045674Y013314D03*
X048036Y012428D03*
X048036Y011149D03*
X048135Y009869D03*
X053745Y012389D03*
X044985Y036149D03*
X044690Y036641D03*
X044394Y037133D03*
X044394Y042349D03*
X045674Y042743D03*
X045280Y043727D03*
X046068Y045204D03*
X046068Y046090D03*
X044493Y048058D03*
X043312Y047763D03*
X042032Y045794D03*
X042918Y045696D03*
X040851Y045007D03*
X039670Y043924D03*
X038095Y046975D03*
X038391Y047763D03*
X035536Y037133D03*
X035930Y036641D03*
X036324Y036149D03*
X026580Y046582D03*
X026580Y048156D03*
X025005Y048156D03*
X024217Y047960D03*
X023135Y047960D03*
X022150Y047960D03*
X021068Y047960D03*
X021757Y046582D03*
X019690Y045105D03*
X018509Y045893D03*
X017721Y045893D03*
X016934Y045893D03*
X015950Y046385D03*
X014572Y046779D03*
X014572Y048058D03*
X015753Y048058D03*
X017721Y047960D03*
X013095Y047960D03*
X012111Y047960D03*
X011127Y047960D03*
X010143Y047960D03*
X009257Y048156D03*
X009257Y046582D03*
X007682Y046582D03*
X007682Y048156D03*
X010831Y046877D03*
X010635Y044810D03*
X008863Y043137D03*
X008469Y043137D03*
X008076Y043137D03*
X009454Y041267D03*
X010044Y041267D03*
X010635Y041070D03*
X010635Y042251D03*
X008174Y032999D03*
X008568Y029849D03*
X007780Y029160D03*
X025005Y046582D03*
D11*
X021658Y045105D03*
X020871Y045105D03*
X019099Y043531D03*
X018509Y043531D03*
X018115Y042743D03*
X018607Y041660D03*
X017623Y041660D03*
X016934Y043531D03*
X019591Y042448D03*
X016934Y046680D03*
X016934Y047960D03*
X015359Y046779D03*
X018509Y047960D03*
X019296Y047960D03*
X020083Y047960D03*
X014670Y039594D03*
X014670Y039200D03*
X014670Y038806D03*
X014670Y038412D03*
X014670Y038019D03*
X014670Y037625D03*
X012406Y037330D03*
X012111Y037625D03*
X011225Y037428D03*
X011225Y038216D03*
X010339Y038216D03*
X009650Y038806D03*
X008863Y038806D03*
X009158Y037822D03*
X009355Y037330D03*
X009946Y036936D03*
X009355Y035755D03*
X008371Y035066D03*
X009058Y034277D03*
X008174Y033885D03*
X009847Y032507D03*
X010536Y033294D03*
X011914Y034279D03*
X011914Y032015D03*
X012013Y030538D03*
X014080Y028964D03*
X013391Y028176D03*
X013194Y027586D03*
X012406Y027586D03*
X012505Y025322D03*
X013292Y025322D03*
X014867Y026601D03*
X014867Y027586D03*
X015654Y028471D03*
X017032Y027782D03*
X018115Y025912D03*
X019394Y026405D03*
X019296Y024633D03*
X018607Y023747D03*
X016639Y024436D03*
X016639Y020597D03*
X013686Y018727D03*
X013194Y018137D03*
X010536Y018432D03*
X009060Y017940D03*
X008272Y018629D03*
X009847Y016857D03*
X012898Y014397D03*
X014670Y014101D03*
X017131Y010361D03*
X019591Y010263D03*
X020969Y011838D03*
X021855Y011838D03*
X022249Y014397D03*
X021363Y016070D03*
X024709Y016070D03*
X026087Y015381D03*
X021954Y019908D03*
X021166Y019908D03*
X021068Y021483D03*
X021068Y021975D03*
X022052Y022566D03*
X022347Y024633D03*
X021265Y024731D03*
X020674Y025420D03*
X022347Y026011D03*
X022741Y026306D03*
X023135Y026601D03*
X023036Y027290D03*
X025497Y024731D03*
X025103Y024338D03*
X024709Y023944D03*
X025595Y023156D03*
X024906Y022566D03*
X026481Y025519D03*
X018115Y014987D03*
X010143Y012822D03*
X009257Y011149D03*
X010143Y010263D03*
X009257Y009574D03*
X007682Y009574D03*
X007682Y011149D03*
X008174Y022861D03*
X007977Y025716D03*
X008174Y030735D03*
X007780Y036838D03*
X008272Y040282D03*
X010635Y040282D03*
X012406Y038511D03*
X012209Y046188D03*
X011619Y046188D03*
X043213Y041759D03*
D12*
X007388Y048451D02*
X007388Y009279D01*
X009512Y009279D01*
X009512Y014553D01*
X009593Y014634D01*
X009987Y015028D01*
X014629Y015028D01*
X014710Y014946D01*
X015399Y014257D01*
X015399Y010320D01*
X015515Y010205D01*
X018550Y010205D01*
X018665Y010320D01*
X018665Y018982D01*
X018746Y019063D01*
X019137Y019454D01*
X019048Y019454D01*
X018953Y019493D01*
X018880Y019565D01*
X018841Y019660D01*
X018841Y019763D01*
X018880Y019858D01*
X018953Y019930D01*
X019048Y019970D01*
X019151Y019970D01*
X019245Y019930D01*
X019318Y019858D01*
X019357Y019763D01*
X019357Y019674D01*
X020943Y021260D01*
X020924Y021268D01*
X020852Y021339D01*
X020813Y021433D01*
X020813Y021534D01*
X020852Y021627D01*
X020924Y021699D01*
X020997Y021729D01*
X020924Y021760D01*
X020852Y021831D01*
X020813Y021925D01*
X020813Y022026D01*
X020852Y022119D01*
X020924Y022191D01*
X021017Y022230D01*
X021118Y022230D01*
X021212Y022191D01*
X021283Y022119D01*
X021322Y022026D01*
X021322Y021925D01*
X021283Y021831D01*
X021212Y021760D01*
X021138Y021729D01*
X021212Y021699D01*
X021283Y021627D01*
X021312Y021559D01*
X021341Y021629D01*
X021414Y021702D01*
X021509Y021741D01*
X021611Y021741D01*
X021706Y021702D01*
X021779Y021629D01*
X021818Y021535D01*
X021818Y021432D01*
X021815Y021425D01*
X022700Y021425D01*
X022781Y021344D01*
X022781Y021147D01*
X022897Y021031D01*
X024061Y021031D01*
X024177Y021147D01*
X024177Y021344D01*
X024258Y021425D01*
X026874Y021425D01*
X026874Y030566D01*
X026824Y030516D01*
X026729Y030477D01*
X026627Y030477D01*
X026532Y030516D01*
X026459Y030589D01*
X026420Y030684D01*
X026420Y030787D01*
X026459Y030881D01*
X026532Y030954D01*
X026627Y030993D01*
X026729Y030993D01*
X026824Y030954D01*
X026874Y030904D01*
X026874Y048451D01*
X007388Y048451D01*
X007388Y048418D02*
X026874Y048418D01*
X026874Y048341D02*
X007388Y048341D01*
X007388Y048264D02*
X014412Y048264D01*
X014425Y048277D02*
X014353Y048204D01*
X014314Y048109D01*
X007388Y048109D01*
X007388Y048032D02*
X008295Y048032D01*
X008334Y048048D02*
X008084Y047945D01*
X007893Y047754D01*
X007790Y047504D01*
X007790Y047234D01*
X007893Y046984D01*
X008084Y046793D01*
X008334Y046690D01*
X008604Y046690D01*
X008854Y046793D01*
X009045Y046984D01*
X009149Y047234D01*
X009149Y047504D01*
X009045Y047754D01*
X008854Y047945D01*
X008604Y048048D01*
X008334Y048048D01*
X008108Y047955D02*
X007388Y047955D01*
X007388Y047878D02*
X008017Y047878D01*
X007940Y047800D02*
X007388Y047800D01*
X007388Y047723D02*
X007881Y047723D01*
X007849Y047646D02*
X007388Y047646D01*
X007388Y047569D02*
X007817Y047569D01*
X007790Y047491D02*
X007388Y047491D01*
X007388Y047414D02*
X007790Y047414D01*
X007790Y047337D02*
X007388Y047337D01*
X007388Y047260D02*
X007790Y047260D01*
X007811Y047182D02*
X007388Y047182D01*
X007388Y047105D02*
X007843Y047105D01*
X007875Y047028D02*
X007388Y047028D01*
X007388Y046951D02*
X007927Y046951D01*
X008004Y046873D02*
X007388Y046873D01*
X007388Y046796D02*
X008081Y046796D01*
X008264Y046719D02*
X007388Y046719D01*
X007388Y046642D02*
X014349Y046642D01*
X014353Y046632D02*
X014425Y046560D01*
X014520Y046520D01*
X014623Y046520D01*
X014718Y046560D01*
X014790Y046632D01*
X014830Y046727D01*
X014830Y046830D01*
X014790Y046925D01*
X014718Y046997D01*
X014623Y047037D01*
X014520Y047037D01*
X014425Y046997D01*
X014353Y046925D01*
X014314Y046830D01*
X014314Y046727D01*
X014353Y046632D01*
X014317Y046719D02*
X008675Y046719D01*
X008857Y046796D02*
X014314Y046796D01*
X014332Y046873D02*
X008934Y046873D01*
X009012Y046951D02*
X014379Y046951D01*
X014499Y047028D02*
X009063Y047028D01*
X009095Y047105D02*
X025166Y047105D01*
X025198Y047028D02*
X015422Y047028D01*
X015410Y047033D02*
X015308Y047033D01*
X015215Y046994D01*
X015143Y046923D01*
X015105Y046829D01*
X015105Y046728D01*
X015143Y046634D01*
X015215Y046563D01*
X015308Y046524D01*
X015410Y046524D01*
X015503Y046563D01*
X015575Y046634D01*
X015613Y046728D01*
X015613Y046829D01*
X015575Y046923D01*
X015503Y046994D01*
X015410Y047033D01*
X015296Y047028D02*
X014644Y047028D01*
X014765Y046951D02*
X015171Y046951D01*
X015123Y046873D02*
X014812Y046873D01*
X014830Y046796D02*
X015105Y046796D01*
X015108Y046719D02*
X014826Y046719D01*
X014794Y046642D02*
X015140Y046642D01*
X015213Y046564D02*
X014723Y046564D01*
X014421Y046564D02*
X007388Y046564D01*
X007388Y046487D02*
X015713Y046487D01*
X015731Y046531D02*
X015691Y046436D01*
X015691Y046334D01*
X015731Y046239D01*
X015803Y046166D01*
X015898Y046127D01*
X016001Y046127D01*
X016096Y046166D01*
X016168Y046239D01*
X016208Y046334D01*
X016208Y046436D01*
X016168Y046531D01*
X016096Y046604D01*
X016001Y046643D01*
X015898Y046643D01*
X015803Y046604D01*
X015731Y046531D01*
X015764Y046564D02*
X015505Y046564D01*
X015578Y046642D02*
X015895Y046642D01*
X016004Y046642D02*
X016679Y046642D01*
X016679Y046630D02*
X016718Y046536D01*
X016790Y046464D01*
X016883Y046426D01*
X016984Y046426D01*
X017078Y046464D01*
X017150Y046536D01*
X017188Y046630D01*
X017188Y046731D01*
X017150Y046824D01*
X017078Y046896D01*
X016984Y046934D01*
X016883Y046934D01*
X016790Y046896D01*
X016718Y046824D01*
X016679Y046731D01*
X016679Y046630D01*
X016706Y046564D02*
X016135Y046564D01*
X016187Y046487D02*
X016767Y046487D01*
X016679Y046719D02*
X015610Y046719D01*
X015613Y046796D02*
X016707Y046796D01*
X016767Y046873D02*
X015595Y046873D01*
X015547Y046951D02*
X025250Y046951D01*
X025216Y046984D02*
X025407Y046793D01*
X025657Y046690D01*
X025927Y046690D01*
X026177Y046793D01*
X026368Y046984D01*
X026471Y047234D01*
X026471Y047504D01*
X026368Y047754D01*
X026177Y047945D01*
X025927Y048048D01*
X025657Y048048D01*
X025407Y047945D01*
X025216Y047754D01*
X025113Y047504D01*
X025113Y047234D01*
X025216Y046984D01*
X025327Y046873D02*
X017100Y046873D01*
X017161Y046796D02*
X025404Y046796D01*
X025586Y046719D02*
X017188Y046719D01*
X017188Y046642D02*
X026874Y046642D01*
X026874Y046719D02*
X025998Y046719D01*
X026180Y046796D02*
X026874Y046796D01*
X026874Y046873D02*
X026257Y046873D01*
X026334Y046951D02*
X026874Y046951D01*
X026874Y047028D02*
X026386Y047028D01*
X026418Y047105D02*
X026874Y047105D01*
X026874Y047182D02*
X026450Y047182D01*
X026471Y047260D02*
X026874Y047260D01*
X026874Y047337D02*
X026471Y047337D01*
X026471Y047414D02*
X026874Y047414D01*
X026874Y047491D02*
X026471Y047491D01*
X026445Y047569D02*
X026874Y047569D01*
X026874Y047646D02*
X026413Y047646D01*
X026381Y047723D02*
X026874Y047723D01*
X026874Y047800D02*
X026322Y047800D01*
X026244Y047878D02*
X026874Y047878D01*
X026874Y047955D02*
X026153Y047955D01*
X025967Y048032D02*
X026874Y048032D01*
X026874Y048109D02*
X020294Y048109D01*
X020299Y048104D02*
X020228Y048175D01*
X020134Y048214D01*
X020033Y048214D01*
X019939Y048175D01*
X019868Y048104D01*
X019829Y048010D01*
X019829Y047909D01*
X019868Y047816D01*
X019939Y047744D01*
X020033Y047705D01*
X020134Y047705D01*
X020228Y047744D01*
X020299Y047816D01*
X020338Y047909D01*
X020338Y048010D01*
X020299Y048104D01*
X020329Y048032D02*
X025617Y048032D01*
X025431Y047955D02*
X020338Y047955D01*
X020325Y047878D02*
X025340Y047878D01*
X025263Y047800D02*
X020284Y047800D01*
X020177Y047723D02*
X025203Y047723D01*
X025171Y047646D02*
X009090Y047646D01*
X009058Y047723D02*
X016840Y047723D01*
X016883Y047705D02*
X016984Y047705D01*
X017078Y047744D01*
X017150Y047816D01*
X017188Y047909D01*
X017188Y048010D01*
X017150Y048104D01*
X017078Y048175D01*
X016984Y048214D01*
X016883Y048214D01*
X016790Y048175D01*
X016718Y048104D01*
X016679Y048010D01*
X016679Y047909D01*
X016718Y047816D01*
X016790Y047744D01*
X016883Y047705D01*
X017027Y047723D02*
X017618Y047723D01*
X017575Y047741D02*
X017670Y047702D01*
X017773Y047702D01*
X017867Y047741D01*
X017940Y047813D01*
X017979Y047908D01*
X017979Y048011D01*
X017940Y048106D01*
X017867Y048178D01*
X017773Y048218D01*
X017670Y048218D01*
X017575Y048178D01*
X017502Y048106D01*
X017463Y048011D01*
X017463Y047908D01*
X017502Y047813D01*
X017575Y047741D01*
X017516Y047800D02*
X017134Y047800D01*
X017175Y047878D02*
X017476Y047878D01*
X017463Y047955D02*
X017188Y047955D01*
X017179Y048032D02*
X017472Y048032D01*
X017506Y048109D02*
X017144Y048109D01*
X017051Y048187D02*
X017595Y048187D01*
X017848Y048187D02*
X018392Y048187D01*
X018365Y048175D02*
X018293Y048104D01*
X018254Y048010D01*
X018254Y047909D01*
X018293Y047816D01*
X018365Y047744D01*
X018458Y047705D01*
X018559Y047705D01*
X018653Y047744D01*
X018724Y047816D01*
X018763Y047909D01*
X018763Y048010D01*
X018724Y048104D01*
X018653Y048175D01*
X018559Y048214D01*
X018458Y048214D01*
X018365Y048175D01*
X018299Y048109D02*
X017937Y048109D01*
X017971Y048032D02*
X018263Y048032D01*
X018254Y047955D02*
X017979Y047955D01*
X017967Y047878D02*
X018267Y047878D01*
X018308Y047800D02*
X017927Y047800D01*
X017825Y047723D02*
X018415Y047723D01*
X018602Y047723D02*
X019202Y047723D01*
X019245Y047705D02*
X019347Y047705D01*
X019440Y047744D01*
X019512Y047816D01*
X019550Y047909D01*
X019550Y048010D01*
X019512Y048104D01*
X019440Y048175D01*
X019347Y048214D01*
X019245Y048214D01*
X019152Y048175D01*
X019080Y048104D01*
X019042Y048010D01*
X019042Y047909D01*
X019080Y047816D01*
X019152Y047744D01*
X019245Y047705D01*
X019390Y047723D02*
X019990Y047723D01*
X019883Y047800D02*
X019496Y047800D01*
X019537Y047878D02*
X019842Y047878D01*
X019829Y047955D02*
X019550Y047955D01*
X019541Y048032D02*
X019838Y048032D01*
X019873Y048109D02*
X019506Y048109D01*
X019413Y048187D02*
X019966Y048187D01*
X020200Y048187D02*
X026874Y048187D01*
X026874Y048264D02*
X014731Y048264D01*
X014718Y048277D02*
X014623Y048316D01*
X014520Y048316D01*
X014425Y048277D01*
X014345Y048187D02*
X007388Y048187D01*
X008644Y048032D02*
X014314Y048032D01*
X014314Y048007D02*
X014353Y047912D01*
X014425Y047839D01*
X014520Y047800D01*
X014623Y047800D01*
X014718Y047839D01*
X014790Y047912D01*
X014830Y048007D01*
X014830Y048109D01*
X016724Y048109D01*
X016689Y048032D02*
X014830Y048032D01*
X014830Y048109D02*
X014790Y048204D01*
X014718Y048277D01*
X014798Y048187D02*
X016817Y048187D01*
X016679Y047955D02*
X014808Y047955D01*
X014756Y047878D02*
X016693Y047878D01*
X016733Y047800D02*
X014624Y047800D01*
X014519Y047800D02*
X008999Y047800D01*
X008922Y047878D02*
X014387Y047878D01*
X014335Y047955D02*
X008831Y047955D01*
X009122Y047569D02*
X025139Y047569D01*
X025113Y047491D02*
X009149Y047491D01*
X009149Y047414D02*
X025113Y047414D01*
X025113Y047337D02*
X009149Y047337D01*
X009149Y047260D02*
X025113Y047260D01*
X025134Y047182D02*
X009127Y047182D01*
X007388Y046410D02*
X011490Y046410D01*
X011475Y046404D02*
X011403Y046332D01*
X011365Y046239D01*
X011365Y046137D01*
X011403Y046044D01*
X011475Y045972D01*
X011568Y045934D01*
X011669Y045934D01*
X011763Y045972D01*
X011835Y046044D01*
X011873Y046137D01*
X011873Y046239D01*
X011835Y046332D01*
X011763Y046404D01*
X011669Y046442D01*
X011568Y046442D01*
X011475Y046404D01*
X011404Y046333D02*
X007388Y046333D01*
X007388Y046256D02*
X011372Y046256D01*
X011365Y046178D02*
X007388Y046178D01*
X007388Y046101D02*
X011380Y046101D01*
X011423Y046024D02*
X007388Y046024D01*
X007388Y045947D02*
X011537Y045947D01*
X011701Y045947D02*
X012128Y045947D01*
X012159Y045934D02*
X012260Y045934D01*
X012354Y045972D01*
X012425Y046044D01*
X012464Y046137D01*
X012464Y046239D01*
X012425Y046332D01*
X012354Y046404D01*
X012260Y046442D01*
X012159Y046442D01*
X012065Y046404D01*
X011994Y046332D01*
X011955Y046239D01*
X011955Y046137D01*
X011994Y046044D01*
X012065Y045972D01*
X012159Y045934D01*
X012291Y045947D02*
X026874Y045947D01*
X026874Y046024D02*
X012405Y046024D01*
X012449Y046101D02*
X026874Y046101D01*
X026874Y046178D02*
X016108Y046178D01*
X016175Y046256D02*
X026874Y046256D01*
X026874Y046333D02*
X016207Y046333D01*
X016208Y046410D02*
X026874Y046410D01*
X026874Y046487D02*
X017101Y046487D01*
X017161Y046564D02*
X026874Y046564D01*
X026874Y045869D02*
X007388Y045869D01*
X007388Y045792D02*
X026874Y045792D01*
X026874Y045715D02*
X007388Y045715D01*
X007388Y045638D02*
X026874Y045638D01*
X026874Y045560D02*
X007388Y045560D01*
X007388Y045483D02*
X026874Y045483D01*
X026874Y045406D02*
X007388Y045406D01*
X007388Y045329D02*
X020745Y045329D01*
X020727Y045321D02*
X020655Y045249D01*
X020616Y045156D01*
X020616Y045055D01*
X020655Y044961D01*
X020727Y044890D01*
X020820Y044851D01*
X020921Y044851D01*
X021015Y044890D01*
X021087Y044961D01*
X021125Y045055D01*
X021125Y045156D01*
X021087Y045249D01*
X021015Y045321D01*
X020921Y045360D01*
X020820Y045360D01*
X020727Y045321D01*
X020657Y045251D02*
X007388Y045251D01*
X007388Y045174D02*
X020624Y045174D01*
X020616Y045097D02*
X007388Y045097D01*
X007388Y045020D02*
X020631Y045020D01*
X020674Y044942D02*
X007388Y044942D01*
X007388Y044865D02*
X020786Y044865D01*
X020956Y044865D02*
X026874Y044865D01*
X026874Y044788D02*
X007388Y044788D01*
X007388Y044711D02*
X026874Y044711D01*
X026874Y044633D02*
X007388Y044633D01*
X007388Y044556D02*
X026874Y044556D01*
X026874Y044479D02*
X007388Y044479D01*
X007388Y044402D02*
X026874Y044402D01*
X026874Y044325D02*
X007388Y044325D01*
X007388Y044247D02*
X026874Y044247D01*
X026874Y044170D02*
X007388Y044170D01*
X007388Y044093D02*
X026874Y044093D01*
X026874Y044016D02*
X007388Y044016D01*
X007388Y043938D02*
X026874Y043938D01*
X026874Y043861D02*
X007388Y043861D01*
X007388Y043784D02*
X016881Y043784D01*
X016883Y043785D02*
X016790Y043746D01*
X016718Y043675D01*
X016679Y043581D01*
X016679Y043480D01*
X016718Y043386D01*
X016790Y043315D01*
X016883Y043276D01*
X016984Y043276D01*
X017078Y043315D01*
X017150Y043386D01*
X017188Y043480D01*
X017188Y043581D01*
X017150Y043675D01*
X017078Y043746D01*
X016984Y043785D01*
X016883Y043785D01*
X016987Y043784D02*
X018456Y043784D01*
X018458Y043785D02*
X018365Y043746D01*
X018293Y043675D01*
X018254Y043581D01*
X018254Y043480D01*
X018293Y043386D01*
X018365Y043315D01*
X018458Y043276D01*
X018559Y043276D01*
X018653Y043315D01*
X018724Y043386D01*
X018763Y043480D01*
X018763Y043581D01*
X018724Y043675D01*
X018653Y043746D01*
X018559Y043785D01*
X018458Y043785D01*
X018562Y043784D02*
X019046Y043784D01*
X019049Y043785D02*
X018955Y043746D01*
X018884Y043675D01*
X018845Y043581D01*
X018845Y043480D01*
X018884Y043386D01*
X018955Y043315D01*
X019049Y043276D01*
X019150Y043276D01*
X019243Y043315D01*
X019315Y043386D01*
X019354Y043480D01*
X019354Y043581D01*
X019315Y043675D01*
X019243Y043746D01*
X019150Y043785D01*
X019049Y043785D01*
X019152Y043784D02*
X026874Y043784D01*
X026874Y043707D02*
X019283Y043707D01*
X019334Y043629D02*
X026874Y043629D01*
X026874Y043552D02*
X019354Y043552D01*
X019351Y043475D02*
X026874Y043475D01*
X026874Y043398D02*
X019319Y043398D01*
X019249Y043320D02*
X026874Y043320D01*
X026874Y043243D02*
X007388Y043243D01*
X007388Y043166D02*
X026874Y043166D01*
X026874Y043089D02*
X007388Y043089D01*
X007388Y043011D02*
X026874Y043011D01*
X026874Y042934D02*
X018284Y042934D01*
X018259Y042959D02*
X018166Y042997D01*
X018064Y042997D01*
X017971Y042959D01*
X017899Y042887D01*
X017861Y042794D01*
X017861Y042693D01*
X017899Y042599D01*
X017971Y042527D01*
X018064Y042489D01*
X018166Y042489D01*
X018259Y042527D01*
X018331Y042599D01*
X018369Y042693D01*
X018369Y042794D01*
X018331Y042887D01*
X018259Y042959D01*
X018343Y042857D02*
X026874Y042857D01*
X026874Y042780D02*
X018369Y042780D01*
X018369Y042702D02*
X026874Y042702D01*
X026874Y042625D02*
X019774Y042625D01*
X019807Y042592D02*
X019735Y042663D01*
X019642Y042702D01*
X019541Y042702D01*
X019447Y042663D01*
X019376Y042592D01*
X019337Y042498D01*
X019337Y042397D01*
X019376Y042304D01*
X019447Y042232D01*
X019541Y042193D01*
X019642Y042193D01*
X019735Y042232D01*
X019807Y042304D01*
X019846Y042397D01*
X019846Y042498D01*
X019807Y042592D01*
X019825Y042548D02*
X026874Y042548D01*
X026874Y042471D02*
X019846Y042471D01*
X019844Y042393D02*
X026874Y042393D01*
X026874Y042316D02*
X019812Y042316D01*
X019742Y042239D02*
X026874Y042239D01*
X026874Y042162D02*
X007388Y042162D01*
X007388Y042239D02*
X019440Y042239D01*
X019371Y042316D02*
X007388Y042316D01*
X007388Y042393D02*
X019339Y042393D01*
X019337Y042471D02*
X007388Y042471D01*
X007388Y042548D02*
X017950Y042548D01*
X017888Y042625D02*
X007388Y042625D01*
X007388Y042702D02*
X017861Y042702D01*
X017861Y042780D02*
X007388Y042780D01*
X007388Y042857D02*
X017887Y042857D01*
X017946Y042934D02*
X007388Y042934D01*
X007388Y043320D02*
X016784Y043320D01*
X016714Y043398D02*
X007388Y043398D01*
X007388Y043475D02*
X016682Y043475D01*
X016679Y043552D02*
X007388Y043552D01*
X007388Y043629D02*
X016699Y043629D01*
X016750Y043707D02*
X007388Y043707D01*
X007388Y042085D02*
X026874Y042085D01*
X026874Y042007D02*
X007388Y042007D01*
X007388Y041930D02*
X026874Y041930D01*
X026874Y041853D02*
X018774Y041853D01*
X018751Y041876D02*
X018658Y041915D01*
X018556Y041915D01*
X018463Y041876D01*
X018391Y041805D01*
X018353Y041711D01*
X018353Y041610D01*
X018391Y041516D01*
X018463Y041445D01*
X018556Y041406D01*
X018658Y041406D01*
X018751Y041445D01*
X018823Y041516D01*
X018861Y041610D01*
X018861Y041711D01*
X018823Y041805D01*
X018751Y041876D01*
X018835Y041776D02*
X026874Y041776D01*
X026874Y041698D02*
X018861Y041698D01*
X018861Y041621D02*
X026874Y041621D01*
X026874Y041544D02*
X018834Y041544D01*
X018773Y041467D02*
X026874Y041467D01*
X026874Y041389D02*
X010273Y041389D01*
X010263Y041413D02*
X010190Y041486D01*
X010095Y041525D01*
X009993Y041525D01*
X009898Y041486D01*
X009825Y041413D01*
X009786Y041318D01*
X009786Y041215D01*
X009825Y041121D01*
X009898Y041048D01*
X009993Y041009D01*
X010095Y041009D01*
X010190Y041048D01*
X010263Y041121D01*
X010302Y041215D01*
X010302Y041318D01*
X010263Y041413D01*
X010209Y041467D02*
X017457Y041467D01*
X017479Y041445D02*
X017572Y041406D01*
X017673Y041406D01*
X017767Y041445D01*
X017838Y041516D01*
X017877Y041610D01*
X017877Y041711D01*
X017838Y041805D01*
X017767Y041876D01*
X017673Y041915D01*
X017572Y041915D01*
X017479Y041876D01*
X017407Y041805D01*
X017368Y041711D01*
X017368Y041610D01*
X017407Y041516D01*
X017479Y041445D01*
X017396Y041544D02*
X007388Y041544D01*
X007388Y041621D02*
X017368Y041621D01*
X017368Y041698D02*
X007388Y041698D01*
X007388Y041776D02*
X017395Y041776D01*
X017455Y041853D02*
X007388Y041853D01*
X007388Y041467D02*
X009288Y041467D01*
X009307Y041486D02*
X009235Y041413D01*
X009195Y041318D01*
X009195Y041215D01*
X009235Y041121D01*
X009307Y041048D01*
X009402Y041009D01*
X009505Y041009D01*
X009600Y041048D01*
X009672Y041121D01*
X009712Y041215D01*
X009712Y041318D01*
X009672Y041413D01*
X009600Y041486D01*
X009505Y041525D01*
X009402Y041525D01*
X009307Y041486D01*
X009225Y041389D02*
X007388Y041389D01*
X007388Y041312D02*
X009195Y041312D01*
X009195Y041235D02*
X007388Y041235D01*
X007388Y041158D02*
X009219Y041158D01*
X009275Y041080D02*
X007388Y041080D01*
X007388Y041003D02*
X026874Y041003D01*
X026874Y040926D02*
X007388Y040926D01*
X007388Y040849D02*
X026874Y040849D01*
X026874Y040771D02*
X007388Y040771D01*
X007388Y040694D02*
X026874Y040694D01*
X026874Y040617D02*
X007388Y040617D01*
X007388Y040540D02*
X026874Y040540D01*
X026874Y040462D02*
X010814Y040462D01*
X010779Y040498D02*
X010685Y040537D01*
X010584Y040537D01*
X010491Y040498D01*
X010419Y040427D01*
X010380Y040333D01*
X010380Y040232D01*
X010419Y040138D01*
X010491Y040067D01*
X010584Y040028D01*
X010685Y040028D01*
X010779Y040067D01*
X010850Y040138D01*
X010889Y040232D01*
X010889Y040333D01*
X010850Y040427D01*
X010779Y040498D01*
X010867Y040385D02*
X026874Y040385D01*
X026874Y040308D02*
X010889Y040308D01*
X010889Y040231D02*
X026874Y040231D01*
X026874Y040154D02*
X010857Y040154D01*
X010788Y040076D02*
X026874Y040076D01*
X026874Y039999D02*
X007388Y039999D01*
X007388Y039922D02*
X026874Y039922D01*
X026874Y039845D02*
X007388Y039845D01*
X007388Y039767D02*
X026874Y039767D01*
X026874Y039690D02*
X007388Y039690D01*
X007388Y039613D02*
X026874Y039613D01*
X026874Y039536D02*
X007388Y039536D01*
X007388Y039458D02*
X026874Y039458D01*
X026874Y039381D02*
X007388Y039381D01*
X007388Y039304D02*
X026874Y039304D01*
X026874Y039227D02*
X007388Y039227D01*
X007388Y039149D02*
X026874Y039149D01*
X026874Y039072D02*
X007388Y039072D01*
X007388Y038995D02*
X026874Y038995D01*
X026874Y038918D02*
X007388Y038918D01*
X007388Y038840D02*
X026874Y038840D01*
X026874Y038763D02*
X007388Y038763D01*
X007388Y038686D02*
X026874Y038686D01*
X026874Y038609D02*
X007388Y038609D01*
X007388Y038531D02*
X026874Y038531D01*
X026874Y038454D02*
X010428Y038454D01*
X010390Y038470D02*
X010289Y038470D01*
X010195Y038431D01*
X010124Y038360D01*
X010085Y038266D01*
X010085Y038165D01*
X010124Y038071D01*
X010195Y038000D01*
X010289Y037961D01*
X010390Y037961D01*
X010483Y038000D01*
X010555Y038071D01*
X010594Y038165D01*
X010594Y038266D01*
X010555Y038360D01*
X010483Y038431D01*
X010390Y038470D01*
X010251Y038454D02*
X007388Y038454D01*
X007388Y038377D02*
X010141Y038377D01*
X010099Y038300D02*
X007388Y038300D01*
X007388Y038223D02*
X010085Y038223D01*
X010093Y038145D02*
X007388Y038145D01*
X007388Y038068D02*
X009088Y038068D01*
X009108Y038076D02*
X009014Y038037D01*
X008943Y037966D01*
X008904Y037872D01*
X008904Y037771D01*
X008943Y037678D01*
X009014Y037606D01*
X009108Y037567D01*
X009209Y037567D01*
X009302Y037606D01*
X009374Y037678D01*
X009413Y037771D01*
X009413Y037872D01*
X009374Y037966D01*
X009302Y038037D01*
X009209Y038076D01*
X009108Y038076D01*
X009229Y038068D02*
X010127Y038068D01*
X010217Y037991D02*
X009349Y037991D01*
X009396Y037914D02*
X026874Y037914D01*
X026874Y037991D02*
X010461Y037991D01*
X010552Y038068D02*
X026874Y038068D01*
X026874Y038145D02*
X010586Y038145D01*
X010594Y038223D02*
X026874Y038223D01*
X026874Y038300D02*
X010580Y038300D01*
X010538Y038377D02*
X026874Y038377D01*
X026874Y037836D02*
X012259Y037836D01*
X012255Y037841D02*
X012162Y037879D01*
X012060Y037879D01*
X011967Y037841D01*
X011895Y037769D01*
X011857Y037676D01*
X011857Y037574D01*
X011895Y037481D01*
X011967Y037409D01*
X012060Y037371D01*
X012152Y037371D01*
X012152Y037279D01*
X012191Y037186D01*
X012262Y037114D01*
X012356Y037075D01*
X012457Y037075D01*
X012550Y037114D01*
X012622Y037186D01*
X012661Y037279D01*
X012661Y037380D01*
X012622Y037474D01*
X012550Y037545D01*
X012457Y037584D01*
X012365Y037584D01*
X012365Y037676D01*
X012327Y037769D01*
X012255Y037841D01*
X012331Y037759D02*
X026874Y037759D01*
X026874Y037682D02*
X012363Y037682D01*
X012365Y037605D02*
X026874Y037605D01*
X026874Y037527D02*
X012568Y037527D01*
X012632Y037450D02*
X026874Y037450D01*
X026874Y037373D02*
X012661Y037373D01*
X012661Y037296D02*
X026874Y037296D01*
X026874Y037218D02*
X012636Y037218D01*
X012577Y037141D02*
X026874Y037141D01*
X026874Y037064D02*
X007899Y037064D01*
X007924Y037053D02*
X007831Y037092D01*
X007730Y037092D01*
X007636Y037053D01*
X007565Y036982D01*
X007526Y036888D01*
X007526Y036787D01*
X007565Y036694D01*
X007636Y036622D01*
X007730Y036583D01*
X007831Y036583D01*
X007924Y036622D01*
X007996Y036694D01*
X008035Y036787D01*
X008035Y036888D01*
X007996Y036982D01*
X007924Y037053D01*
X007991Y036987D02*
X026874Y036987D01*
X026874Y036909D02*
X008026Y036909D01*
X008035Y036832D02*
X026874Y036832D01*
X026874Y036755D02*
X008021Y036755D01*
X007980Y036678D02*
X026874Y036678D01*
X026874Y036600D02*
X022890Y036600D01*
X022887Y036604D02*
X022792Y036643D01*
X022690Y036643D01*
X022595Y036604D01*
X022522Y036531D01*
X022483Y036436D01*
X022483Y036334D01*
X022522Y036239D01*
X022595Y036166D01*
X022690Y036127D01*
X022792Y036127D01*
X022887Y036166D01*
X022960Y036239D01*
X022999Y036334D01*
X022999Y036436D01*
X022960Y036531D01*
X022887Y036604D01*
X022963Y036523D02*
X026874Y036523D01*
X026874Y036446D02*
X022995Y036446D01*
X022999Y036369D02*
X026874Y036369D01*
X026874Y036291D02*
X022982Y036291D01*
X022935Y036214D02*
X026874Y036214D01*
X026874Y036137D02*
X022817Y036137D01*
X022665Y036137D02*
X019653Y036137D01*
X019653Y036097D02*
X019613Y036002D01*
X019541Y035930D01*
X019446Y035891D01*
X019343Y035891D01*
X019248Y035930D01*
X019176Y036002D01*
X019136Y036097D01*
X019136Y036200D01*
X019176Y036295D01*
X019248Y036367D01*
X019343Y036407D01*
X019446Y036407D01*
X019541Y036367D01*
X019613Y036295D01*
X019653Y036200D01*
X019653Y036097D01*
X019637Y036060D02*
X026874Y036060D01*
X026874Y035983D02*
X019593Y035983D01*
X019482Y035905D02*
X026874Y035905D01*
X026874Y035828D02*
X007388Y035828D01*
X007388Y035751D02*
X026874Y035751D01*
X026874Y035674D02*
X007388Y035674D01*
X007388Y035596D02*
X019288Y035596D01*
X019248Y035580D02*
X019176Y035507D01*
X019136Y035413D01*
X019136Y035310D01*
X019176Y035215D01*
X019248Y035142D01*
X019343Y035103D01*
X019446Y035103D01*
X019541Y035142D01*
X019613Y035215D01*
X019653Y035310D01*
X019653Y035413D01*
X019613Y035507D01*
X019541Y035580D01*
X019446Y035619D01*
X019343Y035619D01*
X019248Y035580D01*
X019187Y035519D02*
X007388Y035519D01*
X007388Y035442D02*
X019149Y035442D01*
X019136Y035365D02*
X007388Y035365D01*
X007388Y035287D02*
X019146Y035287D01*
X019181Y035210D02*
X007388Y035210D01*
X007388Y035133D02*
X019271Y035133D01*
X019518Y035133D02*
X020059Y035133D01*
X020036Y035142D02*
X020131Y035103D01*
X020233Y035103D01*
X020328Y035142D01*
X020401Y035215D01*
X020440Y035310D01*
X020440Y035413D01*
X020401Y035507D01*
X020328Y035580D01*
X020233Y035619D01*
X020131Y035619D01*
X020036Y035580D01*
X019963Y035507D01*
X019924Y035413D01*
X019924Y035310D01*
X019963Y035215D01*
X020036Y035142D01*
X019968Y035210D02*
X019608Y035210D01*
X019643Y035287D02*
X019933Y035287D01*
X019924Y035365D02*
X019653Y035365D01*
X019640Y035442D02*
X019936Y035442D01*
X019975Y035519D02*
X019602Y035519D01*
X019501Y035596D02*
X020075Y035596D01*
X020289Y035596D02*
X026874Y035596D01*
X026874Y035519D02*
X020389Y035519D01*
X020428Y035442D02*
X026874Y035442D01*
X026874Y035365D02*
X020440Y035365D01*
X020431Y035287D02*
X026874Y035287D01*
X026874Y035210D02*
X020396Y035210D01*
X020305Y035133D02*
X026874Y035133D01*
X026874Y035056D02*
X007388Y035056D01*
X007388Y034978D02*
X026874Y034978D01*
X026874Y034901D02*
X018729Y034901D01*
X018753Y034891D02*
X018658Y034930D01*
X018556Y034930D01*
X018461Y034891D01*
X018388Y034818D01*
X018349Y034724D01*
X018349Y034621D01*
X018388Y034526D01*
X018461Y034453D01*
X018556Y034414D01*
X018658Y034414D01*
X018753Y034453D01*
X018826Y034526D01*
X018865Y034621D01*
X018865Y034724D01*
X018826Y034818D01*
X018753Y034891D01*
X018820Y034824D02*
X026874Y034824D01*
X026874Y034747D02*
X018856Y034747D01*
X018865Y034669D02*
X026874Y034669D01*
X026874Y034592D02*
X018853Y034592D01*
X018815Y034515D02*
X026874Y034515D01*
X026874Y034438D02*
X018715Y034438D01*
X018499Y034438D02*
X017928Y034438D01*
X017966Y034453D02*
X018038Y034526D01*
X018078Y034621D01*
X018078Y034724D01*
X018038Y034818D01*
X017966Y034891D01*
X017871Y034930D01*
X017768Y034930D01*
X017673Y034891D01*
X017601Y034818D01*
X017562Y034724D01*
X017562Y034621D01*
X017601Y034526D01*
X017673Y034453D01*
X017768Y034414D01*
X017871Y034414D01*
X017966Y034453D01*
X018027Y034515D02*
X018399Y034515D01*
X018361Y034592D02*
X018066Y034592D01*
X018078Y034669D02*
X018349Y034669D01*
X018359Y034747D02*
X018068Y034747D01*
X018033Y034824D02*
X018394Y034824D01*
X018485Y034901D02*
X017941Y034901D01*
X017698Y034901D02*
X007388Y034901D01*
X007388Y034824D02*
X017606Y034824D01*
X017571Y034747D02*
X007388Y034747D01*
X007388Y034669D02*
X017562Y034669D01*
X017573Y034592D02*
X007388Y034592D01*
X007388Y034515D02*
X008969Y034515D01*
X009007Y034531D02*
X008914Y034492D01*
X008842Y034421D01*
X008804Y034327D01*
X008804Y034226D01*
X008842Y034132D01*
X008914Y034061D01*
X009007Y034022D01*
X009108Y034022D01*
X009202Y034061D01*
X009274Y034132D01*
X009312Y034226D01*
X009312Y034327D01*
X009274Y034421D01*
X009202Y034492D01*
X009108Y034531D01*
X009007Y034531D01*
X009147Y034515D02*
X017612Y034515D01*
X017711Y034438D02*
X009256Y034438D01*
X009298Y034360D02*
X026874Y034360D01*
X026874Y034283D02*
X021133Y034283D01*
X021115Y034301D02*
X021021Y034340D01*
X020918Y034340D01*
X020823Y034301D01*
X020750Y034228D01*
X020711Y034133D01*
X020711Y034030D01*
X020750Y033935D01*
X020823Y033863D01*
X020918Y033824D01*
X021021Y033824D01*
X021115Y033863D01*
X021188Y033935D01*
X021227Y034030D01*
X021227Y034133D01*
X021188Y034228D01*
X021115Y034301D01*
X021197Y034206D02*
X026874Y034206D01*
X026874Y034129D02*
X023909Y034129D01*
X023875Y034143D02*
X023772Y034143D01*
X023677Y034104D01*
X023605Y034031D01*
X023566Y033936D01*
X023566Y033834D01*
X023605Y033739D01*
X023677Y033666D01*
X023772Y033627D01*
X023875Y033627D01*
X023970Y033666D01*
X024042Y033739D01*
X024082Y033834D01*
X024082Y033936D01*
X024042Y034031D01*
X023970Y034104D01*
X023875Y034143D01*
X023738Y034129D02*
X021227Y034129D01*
X021227Y034052D02*
X023625Y034052D01*
X023581Y033974D02*
X021204Y033974D01*
X021150Y033897D02*
X023566Y033897D01*
X023571Y033820D02*
X023450Y033820D01*
X023478Y033808D02*
X023383Y033848D01*
X023280Y033848D01*
X023185Y033808D01*
X023113Y033736D01*
X023073Y033641D01*
X023073Y033538D01*
X023113Y033443D01*
X023185Y033371D01*
X023280Y033331D01*
X023383Y033331D01*
X023478Y033371D01*
X023550Y033443D01*
X023590Y033538D01*
X023590Y033641D01*
X023550Y033736D01*
X023478Y033808D01*
X023544Y033743D02*
X023603Y033743D01*
X023579Y033665D02*
X023679Y033665D01*
X023590Y033588D02*
X023978Y033588D01*
X023959Y033542D02*
X023959Y033440D01*
X023999Y033345D01*
X024071Y033272D01*
X024166Y033233D01*
X024269Y033233D01*
X024364Y033272D01*
X024436Y033345D01*
X024475Y033440D01*
X024475Y033542D01*
X024436Y033637D01*
X024364Y033710D01*
X024269Y033749D01*
X024166Y033749D01*
X024071Y033710D01*
X023999Y033637D01*
X023959Y033542D01*
X023959Y033511D02*
X023578Y033511D01*
X023541Y033434D02*
X023962Y033434D01*
X023994Y033356D02*
X023443Y033356D01*
X023220Y033356D02*
X021350Y033356D01*
X021346Y033345D02*
X021385Y033440D01*
X021385Y033542D01*
X021346Y033637D01*
X021273Y033710D01*
X021178Y033749D01*
X021075Y033749D01*
X020981Y033710D01*
X020908Y033637D01*
X020869Y033542D01*
X020869Y033440D01*
X020908Y033345D01*
X020981Y033272D01*
X021075Y033233D01*
X021178Y033233D01*
X021273Y033272D01*
X021346Y033345D01*
X021280Y033279D02*
X024064Y033279D01*
X024370Y033279D02*
X026874Y033279D01*
X026874Y033202D02*
X018767Y033202D01*
X018767Y033247D02*
X018727Y033342D01*
X018655Y033415D01*
X018560Y033454D01*
X018457Y033454D01*
X018362Y033415D01*
X018290Y033342D01*
X018251Y033247D01*
X018251Y033145D01*
X018290Y033050D01*
X018362Y032977D01*
X018457Y032938D01*
X018560Y032938D01*
X018655Y032977D01*
X018727Y033050D01*
X018767Y033145D01*
X018767Y033247D01*
X018754Y033279D02*
X020186Y033279D01*
X020193Y033272D02*
X020288Y033233D01*
X020391Y033233D01*
X020486Y033272D01*
X020558Y033345D01*
X020597Y033440D01*
X020597Y033542D01*
X020558Y033637D01*
X020486Y033710D01*
X020391Y033749D01*
X020288Y033749D01*
X020193Y033710D01*
X020121Y033637D01*
X020081Y033542D01*
X020081Y033440D01*
X020121Y033345D01*
X020193Y033272D01*
X020116Y033356D02*
X018713Y033356D01*
X018609Y033434D02*
X020084Y033434D01*
X020081Y033511D02*
X010678Y033511D01*
X010680Y033510D02*
X010587Y033549D01*
X010486Y033549D01*
X010392Y033510D01*
X010321Y033438D01*
X010282Y033345D01*
X010282Y033244D01*
X010321Y033150D01*
X010392Y033079D01*
X010486Y033040D01*
X010587Y033040D01*
X010680Y033079D01*
X010752Y033150D01*
X010791Y033244D01*
X010791Y033345D01*
X010752Y033438D01*
X010680Y033510D01*
X010754Y033434D02*
X018408Y033434D01*
X018304Y033356D02*
X010786Y033356D01*
X010791Y033279D02*
X018264Y033279D01*
X018251Y033202D02*
X010773Y033202D01*
X010726Y033125D02*
X018259Y033125D01*
X018292Y033047D02*
X010605Y033047D01*
X010468Y033047D02*
X008432Y033047D01*
X008432Y033050D02*
X008393Y033145D01*
X008320Y033218D01*
X008225Y033257D01*
X008123Y033257D01*
X008028Y033218D01*
X007955Y033145D01*
X007916Y033050D01*
X007916Y032948D01*
X007955Y032853D01*
X008028Y032780D01*
X008123Y032741D01*
X008225Y032741D01*
X008320Y032780D01*
X008393Y032853D01*
X008432Y032948D01*
X008432Y033050D01*
X008432Y032970D02*
X018379Y032970D01*
X018638Y032970D02*
X026874Y032970D01*
X026874Y032893D02*
X008409Y032893D01*
X008356Y032816D02*
X026874Y032816D01*
X026874Y032738D02*
X009953Y032738D01*
X009991Y032723D02*
X009898Y032761D01*
X009797Y032761D01*
X009703Y032723D01*
X009632Y032651D01*
X009593Y032557D01*
X009593Y032456D01*
X009632Y032363D01*
X009703Y032291D01*
X009797Y032253D01*
X009898Y032253D01*
X009991Y032291D01*
X010063Y032363D01*
X010102Y032456D01*
X010102Y032557D01*
X010063Y032651D01*
X009991Y032723D01*
X010053Y032661D02*
X017657Y032661D01*
X017670Y032667D02*
X017575Y032627D01*
X017502Y032555D01*
X017463Y032460D01*
X017463Y032357D01*
X017502Y032262D01*
X017575Y032190D01*
X017670Y032150D01*
X017773Y032150D01*
X017867Y032190D01*
X017940Y032262D01*
X017979Y032357D01*
X017979Y032460D01*
X017940Y032555D01*
X017867Y032627D01*
X017773Y032667D01*
X017670Y032667D01*
X017786Y032661D02*
X018444Y032661D01*
X018457Y032667D02*
X018362Y032627D01*
X018290Y032555D01*
X018251Y032460D01*
X018251Y032357D01*
X018290Y032262D01*
X018362Y032190D01*
X018457Y032150D01*
X018560Y032150D01*
X018655Y032190D01*
X018727Y032262D01*
X018767Y032357D01*
X018767Y032460D01*
X018727Y032555D01*
X018655Y032627D01*
X018560Y032667D01*
X018457Y032667D01*
X018573Y032661D02*
X026874Y032661D01*
X026874Y032584D02*
X018698Y032584D01*
X018747Y032507D02*
X026874Y032507D01*
X026874Y032429D02*
X018767Y032429D01*
X018765Y032352D02*
X026874Y032352D01*
X026874Y032275D02*
X018733Y032275D01*
X018663Y032198D02*
X026874Y032198D01*
X026874Y032121D02*
X007388Y032121D01*
X007388Y032198D02*
X017567Y032198D01*
X017497Y032275D02*
X009952Y032275D01*
X010052Y032352D02*
X017465Y032352D01*
X017463Y032429D02*
X010091Y032429D01*
X010102Y032507D02*
X017483Y032507D01*
X017532Y032584D02*
X010091Y032584D01*
X009742Y032738D02*
X007388Y032738D01*
X007388Y032661D02*
X009642Y032661D01*
X009604Y032584D02*
X007388Y032584D01*
X007388Y032507D02*
X009593Y032507D01*
X009604Y032429D02*
X007388Y032429D01*
X007388Y032352D02*
X009642Y032352D01*
X009742Y032275D02*
X007388Y032275D01*
X007388Y032043D02*
X026874Y032043D01*
X026874Y031966D02*
X007388Y031966D01*
X007388Y031889D02*
X026874Y031889D01*
X026874Y031812D02*
X023309Y031812D01*
X023281Y031840D02*
X023186Y031879D01*
X023083Y031879D01*
X022988Y031840D01*
X022916Y031767D01*
X022877Y031672D01*
X022877Y031570D01*
X022916Y031475D01*
X022988Y031402D01*
X023083Y031363D01*
X023186Y031363D01*
X023281Y031402D01*
X023353Y031475D01*
X023393Y031570D01*
X023393Y031672D01*
X023353Y031767D01*
X023281Y031840D01*
X023367Y031734D02*
X026874Y031734D01*
X026874Y031657D02*
X023393Y031657D01*
X023393Y031580D02*
X026874Y031580D01*
X026874Y031503D02*
X023365Y031503D01*
X023304Y031425D02*
X026874Y031425D01*
X026874Y031348D02*
X024756Y031348D01*
X024757Y031348D02*
X024662Y031387D01*
X024560Y031387D01*
X024465Y031348D01*
X024392Y031275D01*
X024353Y031180D01*
X024353Y031078D01*
X024392Y030983D01*
X024465Y030910D01*
X024560Y030871D01*
X024662Y030871D01*
X024757Y030910D01*
X024830Y030983D01*
X024869Y031078D01*
X024869Y031180D01*
X024830Y031275D01*
X024757Y031348D01*
X024832Y031271D02*
X026874Y031271D01*
X026874Y031194D02*
X024864Y031194D01*
X024869Y031116D02*
X026874Y031116D01*
X026874Y031039D02*
X024853Y031039D01*
X024809Y030962D02*
X026551Y030962D01*
X026462Y030885D02*
X024696Y030885D01*
X024526Y030885D02*
X020849Y030885D01*
X020824Y030895D02*
X020721Y030895D01*
X020626Y030856D01*
X020554Y030783D01*
X020514Y030688D01*
X020514Y030585D01*
X020554Y030491D01*
X020626Y030418D01*
X020721Y030379D01*
X020824Y030379D01*
X020919Y030418D01*
X020991Y030491D01*
X021031Y030585D01*
X021031Y030688D01*
X020991Y030783D01*
X020919Y030856D01*
X020824Y030895D01*
X020696Y030885D02*
X007388Y030885D01*
X007388Y030962D02*
X024413Y030962D01*
X024369Y031039D02*
X016225Y031039D01*
X016194Y031009D02*
X016267Y031081D01*
X016306Y031176D01*
X016306Y031279D01*
X016267Y031374D01*
X016194Y031446D01*
X016099Y031485D01*
X015997Y031485D01*
X015902Y031446D01*
X015829Y031374D01*
X015790Y031279D01*
X015790Y031176D01*
X015829Y031081D01*
X015902Y031009D01*
X015997Y030969D01*
X016099Y030969D01*
X016194Y031009D01*
X016281Y031116D02*
X021207Y031116D01*
X021217Y031107D02*
X021312Y031068D01*
X021414Y031068D01*
X021509Y031107D01*
X021582Y031180D01*
X021621Y031274D01*
X021621Y031377D01*
X021582Y031472D01*
X021509Y031545D01*
X021414Y031584D01*
X021312Y031584D01*
X021217Y031545D01*
X021144Y031472D01*
X021105Y031377D01*
X021105Y031274D01*
X021144Y031180D01*
X021217Y031107D01*
X021138Y031194D02*
X016306Y031194D01*
X016306Y031271D02*
X021106Y031271D01*
X021105Y031348D02*
X016277Y031348D01*
X016215Y031425D02*
X021125Y031425D01*
X021175Y031503D02*
X007388Y031503D01*
X007388Y031580D02*
X021302Y031580D01*
X021424Y031580D02*
X022089Y031580D01*
X022099Y031584D02*
X022004Y031545D01*
X021932Y031472D01*
X021892Y031377D01*
X021892Y031274D01*
X021932Y031180D01*
X022004Y031107D01*
X022099Y031068D01*
X022202Y031068D01*
X022297Y031107D01*
X022369Y031180D01*
X022409Y031274D01*
X022409Y031377D01*
X022369Y031472D01*
X022297Y031545D01*
X022202Y031584D01*
X022099Y031584D01*
X022212Y031580D02*
X022877Y031580D01*
X022877Y031657D02*
X007388Y031657D01*
X007388Y031734D02*
X022902Y031734D01*
X022960Y031812D02*
X007388Y031812D01*
X007388Y031425D02*
X015881Y031425D01*
X015819Y031348D02*
X007388Y031348D01*
X007388Y031271D02*
X015790Y031271D01*
X015790Y031194D02*
X007388Y031194D01*
X007388Y031116D02*
X015815Y031116D01*
X015871Y031039D02*
X007388Y031039D01*
X007388Y030807D02*
X020578Y030807D01*
X020532Y030730D02*
X007388Y030730D01*
X007388Y030653D02*
X020514Y030653D01*
X020518Y030576D02*
X007388Y030576D01*
X007388Y030498D02*
X020550Y030498D01*
X020623Y030421D02*
X007388Y030421D01*
X007388Y030344D02*
X024156Y030344D01*
X024156Y030393D02*
X024156Y030290D01*
X024195Y030195D01*
X024268Y030123D01*
X024363Y030083D01*
X024466Y030083D01*
X024560Y030123D01*
X024633Y030195D01*
X024672Y030290D01*
X024672Y030393D01*
X024633Y030488D01*
X024560Y030560D01*
X024466Y030600D01*
X024363Y030600D01*
X024268Y030560D01*
X024195Y030488D01*
X024156Y030393D01*
X024168Y030421D02*
X020922Y030421D01*
X020995Y030498D02*
X024206Y030498D01*
X024305Y030576D02*
X021027Y030576D01*
X021031Y030653D02*
X026433Y030653D01*
X026420Y030730D02*
X021013Y030730D01*
X020967Y030807D02*
X026428Y030807D01*
X026472Y030576D02*
X024523Y030576D01*
X024622Y030498D02*
X026575Y030498D01*
X026781Y030498D02*
X026874Y030498D01*
X026874Y030421D02*
X024661Y030421D01*
X024672Y030344D02*
X026874Y030344D01*
X026874Y030267D02*
X024663Y030267D01*
X024627Y030190D02*
X026874Y030190D01*
X026874Y030112D02*
X024535Y030112D01*
X024293Y030112D02*
X007388Y030112D01*
X007388Y030035D02*
X008388Y030035D01*
X008422Y030068D02*
X008349Y029996D01*
X008310Y029901D01*
X008310Y029798D01*
X008349Y029703D01*
X008422Y029631D01*
X008516Y029591D01*
X008619Y029591D01*
X008714Y029631D01*
X008787Y029703D01*
X008826Y029798D01*
X008826Y029901D01*
X008787Y029996D01*
X008714Y030068D01*
X008619Y030108D01*
X008516Y030108D01*
X008422Y030068D01*
X008333Y029958D02*
X007388Y029958D01*
X007388Y029881D02*
X008310Y029881D01*
X008310Y029803D02*
X007388Y029803D01*
X007388Y029726D02*
X008339Y029726D01*
X008403Y029649D02*
X007388Y029649D01*
X007388Y029572D02*
X015113Y029572D01*
X015101Y029601D02*
X015140Y029506D01*
X015213Y029434D01*
X015308Y029394D01*
X015410Y029394D01*
X015505Y029434D01*
X015578Y029506D01*
X015617Y029601D01*
X015617Y029704D01*
X015578Y029799D01*
X015505Y029871D01*
X015410Y029911D01*
X015308Y029911D01*
X015213Y029871D01*
X015140Y029799D01*
X015101Y029704D01*
X015101Y029601D01*
X015101Y029649D02*
X008732Y029649D01*
X008796Y029726D02*
X015110Y029726D01*
X015145Y029803D02*
X008826Y029803D01*
X008826Y029881D02*
X015235Y029881D01*
X015483Y029881D02*
X018251Y029881D01*
X018251Y029901D02*
X018251Y029798D01*
X018290Y029703D01*
X018362Y029631D01*
X018457Y029591D01*
X018560Y029591D01*
X018655Y029631D01*
X018727Y029703D01*
X018767Y029798D01*
X018767Y029901D01*
X018727Y029996D01*
X018655Y030068D01*
X018560Y030108D01*
X018457Y030108D01*
X018362Y030068D01*
X018290Y029996D01*
X018251Y029901D01*
X018274Y029958D02*
X008802Y029958D01*
X008747Y030035D02*
X018329Y030035D01*
X018251Y029803D02*
X015573Y029803D01*
X015608Y029726D02*
X018280Y029726D01*
X018344Y029649D02*
X015617Y029649D01*
X015605Y029572D02*
X026874Y029572D01*
X026874Y029649D02*
X019559Y029649D01*
X019541Y029631D02*
X019613Y029703D01*
X019653Y029798D01*
X019653Y029901D01*
X019613Y029996D01*
X019541Y030068D01*
X019446Y030108D01*
X019343Y030108D01*
X019248Y030068D01*
X019176Y029996D01*
X019136Y029901D01*
X019136Y029798D01*
X019176Y029703D01*
X019248Y029631D01*
X019343Y029591D01*
X019446Y029591D01*
X019541Y029631D01*
X019623Y029726D02*
X026874Y029726D01*
X026874Y029803D02*
X019653Y029803D01*
X019653Y029881D02*
X026874Y029881D01*
X026874Y029958D02*
X019629Y029958D01*
X019574Y030035D02*
X026874Y030035D01*
X026874Y029494D02*
X015566Y029494D01*
X015465Y029417D02*
X026874Y029417D01*
X026874Y029340D02*
X007966Y029340D01*
X007999Y029307D02*
X007927Y029379D01*
X007832Y029419D01*
X007729Y029419D01*
X007634Y029379D01*
X007561Y029307D01*
X007522Y029212D01*
X007522Y029109D01*
X007561Y029014D01*
X007634Y028942D01*
X007729Y028902D01*
X007832Y028902D01*
X007927Y028942D01*
X007999Y029014D01*
X008038Y029109D01*
X008038Y029212D01*
X007999Y029307D01*
X008017Y029263D02*
X017557Y029263D01*
X017575Y029281D02*
X017502Y029208D01*
X017463Y029113D01*
X017463Y029011D01*
X017502Y028916D01*
X017575Y028843D01*
X017670Y028804D01*
X017773Y028804D01*
X017867Y028843D01*
X017940Y028916D01*
X017979Y029011D01*
X017979Y029113D01*
X017940Y029208D01*
X017867Y029281D01*
X017773Y029320D01*
X017670Y029320D01*
X017575Y029281D01*
X017493Y029185D02*
X014209Y029185D01*
X014224Y029179D02*
X014130Y029218D01*
X014029Y029218D01*
X013935Y029179D01*
X013864Y029108D01*
X013825Y029014D01*
X013825Y028913D01*
X013864Y028819D01*
X013935Y028748D01*
X014029Y028709D01*
X014130Y028709D01*
X014224Y028748D01*
X014295Y028819D01*
X014334Y028913D01*
X014334Y029014D01*
X014295Y029108D01*
X017463Y029108D01*
X017463Y029031D02*
X014327Y029031D01*
X014334Y028954D02*
X017487Y028954D01*
X017542Y028876D02*
X014319Y028876D01*
X014275Y028799D02*
X024195Y028799D01*
X024170Y028789D02*
X024097Y028716D01*
X024058Y028621D01*
X024058Y028519D01*
X024097Y028424D01*
X024170Y028351D01*
X024264Y028312D01*
X024367Y028312D01*
X024462Y028351D01*
X024535Y028424D01*
X024574Y028519D01*
X024574Y028621D01*
X024535Y028716D01*
X024462Y028789D01*
X024367Y028828D01*
X024264Y028828D01*
X024170Y028789D01*
X024103Y028722D02*
X015714Y028722D01*
X015705Y028726D02*
X015604Y028726D01*
X015510Y028687D01*
X015439Y028616D01*
X015400Y028522D01*
X015400Y028421D01*
X015439Y028327D01*
X015510Y028256D01*
X015604Y028217D01*
X015705Y028217D01*
X015798Y028256D01*
X015870Y028327D01*
X015909Y028421D01*
X015909Y028522D01*
X015870Y028616D01*
X015798Y028687D01*
X015705Y028726D01*
X015594Y028722D02*
X014161Y028722D01*
X013998Y028722D02*
X007388Y028722D01*
X007388Y028799D02*
X013884Y028799D01*
X013840Y028876D02*
X007388Y028876D01*
X007388Y028954D02*
X007622Y028954D01*
X007555Y029031D02*
X007388Y029031D01*
X007388Y029108D02*
X007523Y029108D01*
X007522Y029185D02*
X007388Y029185D01*
X007388Y029263D02*
X007543Y029263D01*
X007595Y029340D02*
X007388Y029340D01*
X007388Y029417D02*
X007726Y029417D01*
X007835Y029417D02*
X015253Y029417D01*
X015152Y029494D02*
X007388Y029494D01*
X007388Y030190D02*
X024201Y030190D01*
X024166Y030267D02*
X007388Y030267D01*
X008038Y029185D02*
X013950Y029185D01*
X013864Y029108D02*
X008038Y029108D01*
X008006Y029031D02*
X013832Y029031D01*
X013825Y028954D02*
X007939Y028954D01*
X007388Y028645D02*
X015468Y028645D01*
X015419Y028567D02*
X007388Y028567D01*
X007388Y028490D02*
X015400Y028490D01*
X015403Y028413D02*
X007388Y028413D01*
X007388Y028336D02*
X015435Y028336D01*
X015508Y028258D02*
X007388Y028258D01*
X007388Y028181D02*
X020630Y028181D01*
X020613Y028223D02*
X020652Y028128D01*
X020725Y028056D01*
X020820Y028016D01*
X020922Y028016D01*
X021017Y028056D01*
X021090Y028128D01*
X021129Y028223D01*
X021129Y028326D01*
X021090Y028421D01*
X021017Y028493D01*
X020922Y028533D01*
X020820Y028533D01*
X020725Y028493D01*
X020652Y028421D01*
X020613Y028326D01*
X020613Y028223D01*
X020613Y028258D02*
X015801Y028258D01*
X015873Y028336D02*
X020617Y028336D01*
X020649Y028413D02*
X015905Y028413D01*
X015909Y028490D02*
X020721Y028490D01*
X021020Y028490D02*
X024069Y028490D01*
X024058Y028567D02*
X015890Y028567D01*
X015841Y028645D02*
X024067Y028645D01*
X024108Y028413D02*
X021093Y028413D01*
X021125Y028336D02*
X024207Y028336D01*
X024425Y028336D02*
X026874Y028336D01*
X026874Y028413D02*
X024524Y028413D01*
X024562Y028490D02*
X026874Y028490D01*
X026874Y028567D02*
X024574Y028567D01*
X024564Y028645D02*
X026874Y028645D01*
X026874Y028722D02*
X024529Y028722D01*
X024437Y028799D02*
X026874Y028799D01*
X026874Y028876D02*
X020952Y028876D01*
X020919Y028843D02*
X020991Y028916D01*
X021031Y029011D01*
X021031Y029113D01*
X020991Y029208D01*
X020919Y029281D01*
X020824Y029320D01*
X020721Y029320D01*
X020626Y029281D01*
X020554Y029208D01*
X020514Y029113D01*
X020514Y029011D01*
X020554Y028916D01*
X020626Y028843D01*
X020721Y028804D01*
X020824Y028804D01*
X020919Y028843D01*
X021007Y028954D02*
X026874Y028954D01*
X026874Y029031D02*
X021031Y029031D01*
X021031Y029108D02*
X026874Y029108D01*
X026874Y029185D02*
X021001Y029185D01*
X020937Y029263D02*
X026874Y029263D01*
X026874Y028258D02*
X021129Y028258D01*
X021112Y028181D02*
X023365Y028181D01*
X023382Y028198D02*
X023310Y028126D01*
X023270Y028031D01*
X023270Y027928D01*
X023310Y027833D01*
X023382Y027761D01*
X023477Y027721D01*
X023580Y027721D01*
X023675Y027761D01*
X023747Y027833D01*
X023786Y027928D01*
X023786Y028031D01*
X023747Y028126D01*
X023675Y028198D01*
X023580Y028237D01*
X023477Y028237D01*
X023382Y028198D01*
X023301Y028104D02*
X021065Y028104D01*
X020947Y028027D02*
X023270Y028027D01*
X023270Y027950D02*
X017225Y027950D01*
X017248Y027927D02*
X017176Y027998D01*
X017083Y028037D01*
X016982Y028037D01*
X016888Y027998D01*
X016817Y027927D01*
X016778Y027833D01*
X016778Y027732D01*
X016817Y027638D01*
X016888Y027567D01*
X016982Y027528D01*
X017083Y027528D01*
X017176Y027567D01*
X017248Y027638D01*
X017287Y027732D01*
X017287Y027833D01*
X017248Y027927D01*
X017270Y027872D02*
X023293Y027872D01*
X023348Y027795D02*
X017287Y027795D01*
X017281Y027718D02*
X024851Y027718D01*
X024845Y027731D02*
X024884Y027636D01*
X024957Y027564D01*
X025052Y027524D01*
X025154Y027524D01*
X025249Y027564D01*
X025322Y027636D01*
X025361Y027731D01*
X025361Y027834D01*
X025322Y027929D01*
X025249Y028001D01*
X025154Y028041D01*
X025052Y028041D01*
X024957Y028001D01*
X024884Y027929D01*
X024845Y027834D01*
X024845Y027731D01*
X024845Y027795D02*
X023709Y027795D01*
X023763Y027872D02*
X024861Y027872D01*
X024905Y027950D02*
X023786Y027950D01*
X023786Y028027D02*
X025018Y028027D01*
X025188Y028027D02*
X026874Y028027D01*
X026874Y028104D02*
X023756Y028104D01*
X023691Y028181D02*
X026874Y028181D01*
X026874Y027950D02*
X025301Y027950D01*
X025345Y027872D02*
X026874Y027872D01*
X026874Y027795D02*
X025361Y027795D01*
X025356Y027718D02*
X026874Y027718D01*
X026874Y027641D02*
X025324Y027641D01*
X025249Y027563D02*
X026874Y027563D01*
X026874Y027486D02*
X023200Y027486D01*
X023180Y027506D02*
X023087Y027545D01*
X022986Y027545D01*
X022892Y027506D01*
X022821Y027434D01*
X022782Y027341D01*
X022782Y027240D01*
X022821Y027146D01*
X022892Y027075D01*
X022986Y027036D01*
X023087Y027036D01*
X023180Y027075D01*
X023252Y027146D01*
X023291Y027240D01*
X023291Y027341D01*
X023252Y027434D01*
X023180Y027506D01*
X023262Y027409D02*
X026874Y027409D01*
X026874Y027332D02*
X023291Y027332D01*
X023291Y027254D02*
X026874Y027254D01*
X026874Y027177D02*
X023265Y027177D01*
X023205Y027100D02*
X026874Y027100D01*
X026874Y027023D02*
X012539Y027023D01*
X012553Y027017D02*
X012458Y027056D01*
X012355Y027056D01*
X012260Y027017D01*
X012187Y026944D01*
X012148Y026850D01*
X012148Y026747D01*
X012187Y026652D01*
X012260Y026579D01*
X012355Y026540D01*
X012458Y026540D01*
X012553Y026579D01*
X012625Y026652D01*
X012664Y026747D01*
X012664Y026850D01*
X012625Y026944D01*
X012553Y027017D01*
X012624Y026945D02*
X026874Y026945D01*
X026874Y026868D02*
X012657Y026868D01*
X012664Y026791D02*
X015971Y026791D01*
X016000Y026820D02*
X015928Y026748D01*
X015888Y026653D01*
X015888Y026550D01*
X015928Y026455D01*
X016000Y026383D01*
X016095Y026343D01*
X016198Y026343D01*
X016293Y026383D01*
X016365Y026455D01*
X016405Y026550D01*
X016405Y026653D01*
X016365Y026748D01*
X016293Y026820D01*
X016198Y026859D01*
X016095Y026859D01*
X016000Y026820D01*
X015914Y026714D02*
X012651Y026714D01*
X012610Y026636D02*
X015888Y026636D01*
X015888Y026559D02*
X012504Y026559D01*
X012309Y026559D02*
X007388Y026559D01*
X007388Y026482D02*
X015917Y026482D01*
X015978Y026405D02*
X007388Y026405D01*
X007388Y026327D02*
X019151Y026327D01*
X019140Y026354D02*
X019179Y026260D01*
X019250Y026189D01*
X019344Y026150D01*
X019445Y026150D01*
X019539Y026189D01*
X019610Y026260D01*
X019649Y026354D01*
X019649Y026455D01*
X019610Y026549D01*
X019539Y026620D01*
X019445Y026659D01*
X019344Y026659D01*
X019250Y026620D01*
X019179Y026549D01*
X019140Y026455D01*
X019140Y026354D01*
X019140Y026405D02*
X016315Y026405D01*
X016376Y026482D02*
X019151Y026482D01*
X019189Y026559D02*
X016405Y026559D01*
X016405Y026636D02*
X019290Y026636D01*
X019499Y026636D02*
X022880Y026636D01*
X022880Y026652D02*
X022880Y026551D01*
X022897Y026509D01*
X022885Y026522D01*
X022792Y026560D01*
X022690Y026560D01*
X022597Y026522D01*
X022525Y026450D01*
X022487Y026357D01*
X022487Y026256D01*
X022504Y026214D01*
X022491Y026226D01*
X022398Y026265D01*
X022297Y026265D01*
X022203Y026226D01*
X022132Y026155D01*
X022093Y026061D01*
X022093Y025960D01*
X022132Y025867D01*
X022203Y025795D01*
X022297Y025756D01*
X022398Y025756D01*
X022491Y025795D01*
X022563Y025867D01*
X022602Y025960D01*
X022602Y026061D01*
X022584Y026103D01*
X022597Y026090D01*
X022690Y026052D01*
X022792Y026052D01*
X022885Y026090D01*
X022957Y026162D01*
X022995Y026256D01*
X022995Y026357D01*
X022978Y026398D01*
X022991Y026386D01*
X023084Y026347D01*
X023185Y026347D01*
X023279Y026386D01*
X023350Y026457D01*
X023389Y026551D01*
X023389Y026652D01*
X023350Y026745D01*
X023279Y026817D01*
X023185Y026856D01*
X023084Y026856D01*
X022991Y026817D01*
X022919Y026745D01*
X022880Y026652D01*
X022906Y026714D02*
X016379Y026714D01*
X016322Y026791D02*
X022964Y026791D01*
X022880Y026559D02*
X022795Y026559D01*
X022687Y026559D02*
X019600Y026559D01*
X019638Y026482D02*
X022557Y026482D01*
X022506Y026405D02*
X019649Y026405D01*
X019638Y026327D02*
X022487Y026327D01*
X022489Y026250D02*
X022434Y026250D01*
X022261Y026250D02*
X019600Y026250D01*
X019500Y026173D02*
X022150Y026173D01*
X022107Y026096D02*
X007388Y026096D01*
X007388Y026173D02*
X019289Y026173D01*
X019189Y026250D02*
X007388Y026250D01*
X007388Y026019D02*
X022093Y026019D01*
X022101Y025941D02*
X007388Y025941D01*
X007388Y025864D02*
X022134Y025864D01*
X022223Y025787D02*
X007388Y025787D01*
X007388Y025710D02*
X008492Y025710D01*
X008520Y025738D02*
X008447Y025665D01*
X008408Y025570D01*
X008408Y025467D01*
X008447Y025372D01*
X008520Y025300D01*
X008615Y025261D01*
X008717Y025261D01*
X008812Y025300D01*
X008885Y025372D01*
X008924Y025467D01*
X008924Y025570D01*
X008885Y025665D01*
X008812Y025738D01*
X008717Y025777D01*
X008615Y025777D01*
X008520Y025738D01*
X008434Y025632D02*
X007388Y025632D01*
X007388Y025555D02*
X008408Y025555D01*
X008408Y025478D02*
X007388Y025478D01*
X007388Y025401D02*
X008436Y025401D01*
X008496Y025323D02*
X007388Y025323D01*
X007388Y025246D02*
X011371Y025246D01*
X011361Y025271D02*
X011400Y025176D01*
X011473Y025103D01*
X011568Y025064D01*
X011670Y025064D01*
X011765Y025103D01*
X011838Y025176D01*
X011877Y025271D01*
X011877Y025373D01*
X011838Y025468D01*
X011765Y025541D01*
X011670Y025580D01*
X011568Y025580D01*
X011473Y025541D01*
X011400Y025468D01*
X011361Y025373D01*
X011361Y025271D01*
X011361Y025323D02*
X008836Y025323D01*
X008897Y025401D02*
X011372Y025401D01*
X011410Y025478D02*
X008924Y025478D01*
X008924Y025555D02*
X011508Y025555D01*
X011730Y025555D02*
X013771Y025555D01*
X013736Y025541D02*
X013664Y025468D01*
X013625Y025373D01*
X013625Y025271D01*
X013664Y025176D01*
X013736Y025103D01*
X013831Y025064D01*
X013934Y025064D01*
X014029Y025103D01*
X014101Y025176D01*
X014141Y025271D01*
X014141Y025373D01*
X014101Y025468D01*
X014029Y025541D01*
X013934Y025580D01*
X013831Y025580D01*
X013736Y025541D01*
X013674Y025478D02*
X011828Y025478D01*
X011866Y025401D02*
X013636Y025401D01*
X013625Y025323D02*
X011877Y025323D01*
X011867Y025246D02*
X013635Y025246D01*
X013671Y025169D02*
X011831Y025169D01*
X011738Y025092D02*
X013764Y025092D01*
X014001Y025092D02*
X015725Y025092D01*
X015731Y025077D02*
X015803Y025005D01*
X015898Y024965D01*
X016001Y024965D01*
X016096Y025005D01*
X016168Y025077D01*
X016208Y025172D01*
X016208Y025275D01*
X016168Y025370D01*
X016096Y025442D01*
X016001Y025482D01*
X015898Y025482D01*
X015803Y025442D01*
X015731Y025370D01*
X015691Y025275D01*
X015691Y025172D01*
X015731Y025077D01*
X015794Y025014D02*
X008221Y025014D01*
X008235Y024979D02*
X008196Y025074D01*
X008123Y025147D01*
X008029Y025186D01*
X007926Y025186D01*
X007831Y025147D01*
X007758Y025074D01*
X007719Y024979D01*
X007719Y024877D01*
X007758Y024782D01*
X007831Y024709D01*
X007926Y024670D01*
X008029Y024670D01*
X008123Y024709D01*
X008196Y024782D01*
X008235Y024877D01*
X008235Y024979D01*
X008235Y024937D02*
X021111Y024937D01*
X021120Y024947D02*
X021049Y024875D01*
X021010Y024782D01*
X021010Y024681D01*
X021049Y024587D01*
X021120Y024516D01*
X021214Y024477D01*
X021315Y024477D01*
X021409Y024516D01*
X021480Y024587D01*
X021519Y024681D01*
X021519Y024782D01*
X021480Y024875D01*
X021409Y024947D01*
X021315Y024986D01*
X021214Y024986D01*
X021120Y024947D01*
X021043Y024860D02*
X008228Y024860D01*
X008196Y024783D02*
X021011Y024783D01*
X021010Y024705D02*
X008114Y024705D01*
X007840Y024705D02*
X007388Y024705D01*
X007388Y024628D02*
X016471Y024628D01*
X016494Y024652D02*
X016423Y024580D01*
X016384Y024487D01*
X016384Y024385D01*
X016423Y024292D01*
X016494Y024220D01*
X016588Y024182D01*
X016689Y024182D01*
X016783Y024220D01*
X016854Y024292D01*
X016893Y024385D01*
X016893Y024487D01*
X016854Y024580D01*
X016783Y024652D01*
X016689Y024690D01*
X016588Y024690D01*
X016494Y024652D01*
X016411Y024551D02*
X007388Y024551D01*
X007388Y024474D02*
X016384Y024474D01*
X016384Y024396D02*
X007388Y024396D01*
X007388Y024319D02*
X016412Y024319D01*
X016473Y024242D02*
X007388Y024242D01*
X007388Y024165D02*
X021794Y024165D01*
X021794Y024192D02*
X021794Y024089D01*
X021833Y023995D01*
X021906Y023922D01*
X022001Y023883D01*
X022103Y023883D01*
X022198Y023922D01*
X022271Y023995D01*
X022310Y024089D01*
X022310Y024192D01*
X022271Y024287D01*
X022198Y024360D01*
X022103Y024399D01*
X022001Y024399D01*
X021906Y024360D01*
X021833Y024287D01*
X021794Y024192D01*
X021815Y024242D02*
X016804Y024242D01*
X016866Y024319D02*
X021865Y024319D01*
X021995Y024396D02*
X016893Y024396D01*
X016893Y024474D02*
X022147Y024474D01*
X022132Y024489D02*
X022203Y024417D01*
X022297Y024379D01*
X022398Y024379D01*
X022491Y024417D01*
X022563Y024489D01*
X022602Y024582D01*
X022602Y024683D01*
X022563Y024777D01*
X022491Y024849D01*
X022398Y024887D01*
X022297Y024887D01*
X022203Y024849D01*
X022132Y024777D01*
X022093Y024683D01*
X022093Y024582D01*
X022132Y024489D01*
X022106Y024551D02*
X021444Y024551D01*
X021497Y024628D02*
X022093Y024628D01*
X022102Y024705D02*
X021519Y024705D01*
X021519Y024783D02*
X022137Y024783D01*
X022231Y024860D02*
X021487Y024860D01*
X021418Y024937D02*
X025343Y024937D01*
X025353Y024947D02*
X025281Y024875D01*
X025242Y024782D01*
X025242Y024681D01*
X025281Y024587D01*
X025353Y024516D01*
X025446Y024477D01*
X025547Y024477D01*
X025641Y024516D01*
X025712Y024587D01*
X025751Y024681D01*
X025751Y024782D01*
X025712Y024875D01*
X025641Y024947D01*
X025547Y024986D01*
X025446Y024986D01*
X025353Y024947D01*
X025275Y024860D02*
X022464Y024860D01*
X022557Y024783D02*
X025243Y024783D01*
X025242Y024705D02*
X022593Y024705D01*
X022602Y024628D02*
X025264Y024628D01*
X025247Y024553D02*
X025154Y024592D01*
X025053Y024592D01*
X024959Y024553D01*
X024888Y024482D01*
X024849Y024388D01*
X024849Y024287D01*
X024888Y024194D01*
X024959Y024122D01*
X025053Y024083D01*
X025154Y024083D01*
X025247Y024122D01*
X025319Y024194D01*
X025358Y024287D01*
X025358Y024388D01*
X025319Y024482D01*
X025247Y024553D01*
X025250Y024551D02*
X025317Y024551D01*
X025322Y024474D02*
X026874Y024474D01*
X026874Y024551D02*
X025676Y024551D01*
X025729Y024628D02*
X026874Y024628D01*
X026874Y024705D02*
X025751Y024705D01*
X025751Y024783D02*
X026874Y024783D01*
X026874Y024860D02*
X025719Y024860D01*
X025651Y024937D02*
X026874Y024937D01*
X026874Y025014D02*
X016106Y025014D01*
X016174Y025092D02*
X026874Y025092D01*
X026874Y025169D02*
X020732Y025169D01*
X020725Y025166D02*
X020818Y025205D01*
X020890Y025276D01*
X020928Y025370D01*
X020928Y025471D01*
X020890Y025564D01*
X020818Y025636D01*
X020725Y025675D01*
X020623Y025675D01*
X020530Y025636D01*
X020458Y025564D01*
X020420Y025471D01*
X020420Y025370D01*
X020458Y025276D01*
X020530Y025205D01*
X020623Y025166D01*
X020725Y025166D01*
X020616Y025169D02*
X016206Y025169D01*
X016208Y025246D02*
X020488Y025246D01*
X020439Y025323D02*
X016188Y025323D01*
X016137Y025401D02*
X020420Y025401D01*
X020423Y025478D02*
X016010Y025478D01*
X015889Y025478D02*
X014092Y025478D01*
X014129Y025401D02*
X015762Y025401D01*
X015712Y025323D02*
X014141Y025323D01*
X014131Y025246D02*
X015691Y025246D01*
X015693Y025169D02*
X014095Y025169D01*
X013994Y025555D02*
X020455Y025555D01*
X020526Y025632D02*
X008898Y025632D01*
X008840Y025710D02*
X026312Y025710D01*
X026337Y025734D02*
X026265Y025663D01*
X026227Y025569D01*
X026227Y025468D01*
X026265Y025375D01*
X026337Y025303D01*
X026431Y025264D01*
X026532Y025264D01*
X026625Y025303D01*
X026697Y025375D01*
X026735Y025468D01*
X026735Y025569D01*
X026697Y025663D01*
X026625Y025734D01*
X026532Y025773D01*
X026431Y025773D01*
X026337Y025734D01*
X026253Y025632D02*
X020822Y025632D01*
X020894Y025555D02*
X026227Y025555D01*
X026227Y025478D02*
X020925Y025478D01*
X020928Y025401D02*
X026255Y025401D01*
X026317Y025323D02*
X020909Y025323D01*
X020860Y025246D02*
X026874Y025246D01*
X026874Y025323D02*
X026645Y025323D01*
X026708Y025401D02*
X026874Y025401D01*
X026874Y025478D02*
X026735Y025478D01*
X026735Y025555D02*
X026874Y025555D01*
X026874Y025632D02*
X026709Y025632D01*
X026650Y025710D02*
X026874Y025710D01*
X026874Y025787D02*
X022471Y025787D01*
X022560Y025864D02*
X026874Y025864D01*
X026874Y025941D02*
X022594Y025941D01*
X022602Y026019D02*
X026874Y026019D01*
X026874Y026096D02*
X022890Y026096D01*
X022961Y026173D02*
X026874Y026173D01*
X026874Y026250D02*
X025561Y026250D01*
X025548Y026245D02*
X025643Y026284D01*
X025716Y026357D01*
X025755Y026452D01*
X025755Y026554D01*
X025716Y026649D01*
X025643Y026722D01*
X025548Y026761D01*
X025446Y026761D01*
X025351Y026722D01*
X025278Y026649D01*
X025239Y026554D01*
X025239Y026452D01*
X025278Y026357D01*
X025351Y026284D01*
X025446Y026245D01*
X025548Y026245D01*
X025432Y026250D02*
X024774Y026250D01*
X024761Y026245D02*
X024856Y026284D01*
X024928Y026357D01*
X024968Y026452D01*
X024968Y026554D01*
X024928Y026649D01*
X024856Y026722D01*
X024761Y026761D01*
X024658Y026761D01*
X024563Y026722D01*
X024491Y026649D01*
X024451Y026554D01*
X024451Y026452D01*
X024491Y026357D01*
X024563Y026284D01*
X024658Y026245D01*
X024761Y026245D01*
X024645Y026250D02*
X022993Y026250D01*
X022995Y026327D02*
X024520Y026327D01*
X024471Y026405D02*
X023298Y026405D01*
X023361Y026482D02*
X024451Y026482D01*
X024453Y026559D02*
X023389Y026559D01*
X023389Y026636D02*
X024485Y026636D01*
X024555Y026714D02*
X023363Y026714D01*
X023305Y026791D02*
X026874Y026791D01*
X026874Y026714D02*
X025651Y026714D01*
X025721Y026636D02*
X026874Y026636D01*
X026874Y026559D02*
X025753Y026559D01*
X025755Y026482D02*
X026874Y026482D01*
X026874Y026405D02*
X025736Y026405D01*
X025686Y026327D02*
X026874Y026327D01*
X025343Y026714D02*
X024864Y026714D01*
X024934Y026636D02*
X025273Y026636D01*
X025241Y026559D02*
X024966Y026559D01*
X024968Y026482D02*
X025239Y026482D01*
X025258Y026405D02*
X024948Y026405D01*
X024899Y026327D02*
X025307Y026327D01*
X024958Y027563D02*
X017168Y027563D01*
X017249Y027641D02*
X024883Y027641D01*
X022872Y027486D02*
X014318Y027486D01*
X014298Y027439D02*
X014338Y027534D01*
X014338Y027637D01*
X014298Y027732D01*
X014226Y027804D01*
X014131Y027844D01*
X014028Y027844D01*
X013933Y027804D01*
X013861Y027732D01*
X013821Y027637D01*
X013821Y027534D01*
X013861Y027439D01*
X013933Y027367D01*
X014028Y027328D01*
X014131Y027328D01*
X014226Y027367D01*
X014298Y027439D01*
X014268Y027409D02*
X022810Y027409D01*
X022782Y027332D02*
X014141Y027332D01*
X014018Y027332D02*
X007388Y027332D01*
X007388Y027409D02*
X013891Y027409D01*
X013841Y027486D02*
X007388Y027486D01*
X007388Y027563D02*
X013821Y027563D01*
X013823Y027641D02*
X007388Y027641D01*
X007388Y027718D02*
X013855Y027718D01*
X013924Y027795D02*
X007388Y027795D01*
X007388Y027872D02*
X016794Y027872D01*
X016778Y027795D02*
X014235Y027795D01*
X014304Y027718D02*
X016784Y027718D01*
X016816Y027641D02*
X014336Y027641D01*
X014338Y027563D02*
X016897Y027563D01*
X016840Y027950D02*
X007388Y027950D01*
X007388Y028027D02*
X016957Y028027D01*
X017107Y028027D02*
X020795Y028027D01*
X020676Y028104D02*
X007388Y028104D01*
X007388Y027254D02*
X022782Y027254D01*
X022808Y027177D02*
X007388Y027177D01*
X007388Y027100D02*
X022867Y027100D01*
X022592Y026096D02*
X022587Y026096D01*
X022589Y024551D02*
X024957Y024551D01*
X024884Y024474D02*
X022548Y024474D01*
X022441Y024396D02*
X024852Y024396D01*
X024849Y024319D02*
X022239Y024319D01*
X022253Y024396D02*
X022109Y024396D01*
X022289Y024242D02*
X024867Y024242D01*
X024841Y024165D02*
X024916Y024165D01*
X024854Y024160D02*
X024760Y024198D01*
X024659Y024198D01*
X024565Y024160D01*
X024494Y024088D01*
X024455Y023994D01*
X024455Y023893D01*
X024494Y023800D01*
X024565Y023728D01*
X024659Y023690D01*
X024760Y023690D01*
X024854Y023728D01*
X024925Y023800D01*
X024964Y023893D01*
X024964Y023994D01*
X024925Y024088D01*
X024854Y024160D01*
X024925Y024088D02*
X025042Y024088D01*
X024957Y024010D02*
X026874Y024010D01*
X026874Y023933D02*
X024964Y023933D01*
X024948Y023856D02*
X026874Y023856D01*
X026874Y023779D02*
X024904Y023779D01*
X024789Y023701D02*
X026874Y023701D01*
X026874Y023624D02*
X007388Y023624D01*
X007388Y023547D02*
X021093Y023547D01*
X021118Y023572D02*
X021046Y023500D01*
X021006Y023405D01*
X021006Y023302D01*
X021046Y023207D01*
X021118Y023135D01*
X021213Y023095D01*
X021316Y023095D01*
X021411Y023135D01*
X021483Y023207D01*
X021523Y023302D01*
X021523Y023405D01*
X021483Y023500D01*
X021411Y023572D01*
X021316Y023611D01*
X021213Y023611D01*
X021118Y023572D01*
X021033Y023470D02*
X016887Y023470D01*
X016883Y023474D02*
X016788Y023513D01*
X016686Y023513D01*
X016591Y023474D01*
X016518Y023401D01*
X016479Y023306D01*
X016479Y023204D01*
X016518Y023109D01*
X016591Y023036D01*
X016686Y022997D01*
X016788Y022997D01*
X016883Y023036D01*
X016956Y023109D01*
X016995Y023204D01*
X016995Y023306D01*
X016956Y023401D01*
X016883Y023474D01*
X016959Y023392D02*
X021006Y023392D01*
X021006Y023315D02*
X016991Y023315D01*
X016995Y023238D02*
X021033Y023238D01*
X021092Y023161D02*
X016977Y023161D01*
X016930Y023083D02*
X022680Y023083D01*
X022680Y023109D02*
X022680Y023007D01*
X022719Y022912D01*
X022792Y022839D01*
X022886Y022800D01*
X022989Y022800D01*
X023084Y022839D01*
X023157Y022912D01*
X023196Y023007D01*
X023196Y023109D01*
X023157Y023204D01*
X023084Y023277D01*
X022989Y023316D01*
X022886Y023316D01*
X022792Y023277D01*
X022719Y023204D01*
X022680Y023109D01*
X022701Y023161D02*
X022224Y023161D01*
X022198Y023135D02*
X022271Y023207D01*
X022310Y023302D01*
X022310Y023405D01*
X022271Y023500D01*
X022198Y023572D01*
X022103Y023611D01*
X022001Y023611D01*
X021906Y023572D01*
X021833Y023500D01*
X021794Y023405D01*
X021794Y023302D01*
X021833Y023207D01*
X021906Y023135D01*
X022001Y023095D01*
X022103Y023095D01*
X022198Y023135D01*
X022284Y023238D02*
X022753Y023238D01*
X022884Y023315D02*
X022310Y023315D01*
X022310Y023392D02*
X025500Y023392D01*
X025545Y023411D02*
X025451Y023372D01*
X025380Y023301D01*
X025341Y023207D01*
X025341Y023106D01*
X025380Y023012D01*
X025451Y022941D01*
X025545Y022902D01*
X025646Y022902D01*
X025739Y022941D01*
X025811Y023012D01*
X025850Y023106D01*
X025850Y023207D01*
X025811Y023301D01*
X025739Y023372D01*
X025646Y023411D01*
X025545Y023411D01*
X025691Y023392D02*
X026874Y023392D01*
X026874Y023315D02*
X025796Y023315D01*
X025837Y023238D02*
X026874Y023238D01*
X026874Y023161D02*
X025850Y023161D01*
X025840Y023083D02*
X026874Y023083D01*
X026874Y023006D02*
X025805Y023006D01*
X025711Y022929D02*
X026874Y022929D01*
X026874Y022852D02*
X023096Y022852D01*
X023164Y022929D02*
X025480Y022929D01*
X025386Y023006D02*
X023196Y023006D01*
X023196Y023083D02*
X025350Y023083D01*
X025341Y023161D02*
X023175Y023161D01*
X023123Y023238D02*
X025354Y023238D01*
X025394Y023315D02*
X022992Y023315D01*
X022680Y023006D02*
X016811Y023006D01*
X016663Y023006D02*
X008389Y023006D01*
X008390Y023005D02*
X008318Y023077D01*
X008225Y023116D01*
X008123Y023116D01*
X008030Y023077D01*
X007958Y023005D01*
X007920Y022912D01*
X007920Y022811D01*
X007958Y022717D01*
X008030Y022646D01*
X008123Y022607D01*
X008225Y022607D01*
X008318Y022646D01*
X008390Y022717D01*
X008428Y022811D01*
X008428Y022912D01*
X008390Y023005D01*
X008421Y022929D02*
X022712Y022929D01*
X022779Y022852D02*
X008428Y022852D01*
X008413Y022774D02*
X021901Y022774D01*
X021908Y022782D02*
X021836Y022710D01*
X021798Y022617D01*
X021798Y022515D01*
X021836Y022422D01*
X021908Y022350D01*
X022001Y022312D01*
X022103Y022312D01*
X022196Y022350D01*
X022268Y022422D01*
X022306Y022515D01*
X022306Y022617D01*
X022268Y022710D01*
X022196Y022782D01*
X022103Y022820D01*
X022001Y022820D01*
X021908Y022782D01*
X021831Y022697D02*
X008370Y022697D01*
X008256Y022620D02*
X021799Y022620D01*
X021798Y022543D02*
X007388Y022543D01*
X007388Y022620D02*
X008092Y022620D01*
X007978Y022697D02*
X007388Y022697D01*
X007388Y022774D02*
X007935Y022774D01*
X007920Y022852D02*
X007388Y022852D01*
X007388Y022929D02*
X007927Y022929D01*
X007959Y023006D02*
X007388Y023006D01*
X007388Y023083D02*
X008046Y023083D01*
X008302Y023083D02*
X016544Y023083D01*
X016497Y023161D02*
X007388Y023161D01*
X007388Y023238D02*
X016479Y023238D01*
X016483Y023315D02*
X007388Y023315D01*
X007388Y023392D02*
X016515Y023392D01*
X016587Y023470D02*
X007388Y023470D01*
X007388Y023701D02*
X024630Y023701D01*
X024515Y023779D02*
X007388Y023779D01*
X007388Y023856D02*
X024471Y023856D01*
X024455Y023933D02*
X022209Y023933D01*
X022277Y024010D02*
X024462Y024010D01*
X024494Y024088D02*
X022309Y024088D01*
X022310Y024165D02*
X024578Y024165D01*
X025164Y024088D02*
X026874Y024088D01*
X026874Y024165D02*
X025290Y024165D01*
X025339Y024242D02*
X026874Y024242D01*
X026874Y024319D02*
X025358Y024319D01*
X025354Y024396D02*
X026874Y024396D01*
X026874Y023547D02*
X022224Y023547D01*
X022283Y023470D02*
X026874Y023470D01*
X026874Y022774D02*
X025058Y022774D01*
X025050Y022782D02*
X024957Y022820D01*
X024856Y022820D01*
X024762Y022782D01*
X024691Y022710D01*
X024652Y022617D01*
X024652Y022515D01*
X024691Y022422D01*
X024762Y022350D01*
X024856Y022312D01*
X024957Y022312D01*
X025050Y022350D01*
X025056Y022356D01*
X025042Y022322D01*
X025042Y022219D01*
X025081Y022124D01*
X025154Y022052D01*
X025249Y022013D01*
X025351Y022013D01*
X025446Y022052D01*
X025519Y022124D01*
X025558Y022219D01*
X025558Y022322D01*
X025519Y022417D01*
X025446Y022489D01*
X025351Y022529D01*
X025249Y022529D01*
X025154Y022489D01*
X025147Y022483D01*
X025161Y022515D01*
X025161Y022617D01*
X025122Y022710D01*
X025050Y022782D01*
X025127Y022697D02*
X026874Y022697D01*
X026874Y022620D02*
X025159Y022620D01*
X025161Y022543D02*
X026874Y022543D01*
X026874Y022465D02*
X025470Y022465D01*
X025531Y022388D02*
X026874Y022388D01*
X026874Y022311D02*
X025558Y022311D01*
X025558Y022234D02*
X026874Y022234D01*
X026874Y022157D02*
X025532Y022157D01*
X025474Y022079D02*
X026874Y022079D01*
X026874Y022002D02*
X021322Y022002D01*
X021322Y021925D02*
X026874Y021925D01*
X026874Y021848D02*
X021290Y021848D01*
X021222Y021770D02*
X026874Y021770D01*
X026874Y021693D02*
X021715Y021693D01*
X021784Y021616D02*
X026874Y021616D01*
X026874Y021539D02*
X021816Y021539D01*
X021818Y021461D02*
X026874Y021461D01*
X026874Y021286D02*
X026874Y009279D01*
X009650Y009279D01*
X009650Y014495D01*
X010044Y014889D01*
X014572Y014889D01*
X015261Y014200D01*
X015261Y010263D01*
X015457Y010066D01*
X018607Y010066D01*
X018804Y010263D01*
X018804Y018924D01*
X018841Y018961D01*
X018841Y018873D01*
X018880Y018778D01*
X018953Y018705D01*
X019048Y018666D01*
X019151Y018666D01*
X019245Y018705D01*
X019318Y018778D01*
X019357Y018873D01*
X019357Y018976D01*
X019318Y019070D01*
X019245Y019143D01*
X019151Y019182D01*
X019062Y019182D01*
X021109Y021229D01*
X021118Y021229D01*
X021212Y021268D01*
X021231Y021286D01*
X021392Y021286D01*
X021414Y021264D01*
X021509Y021225D01*
X021611Y021225D01*
X021706Y021264D01*
X021728Y021286D01*
X022643Y021286D01*
X022643Y021090D01*
X022839Y020893D01*
X024119Y020893D01*
X024316Y021090D01*
X024316Y021286D01*
X026874Y021286D01*
X026874Y021230D02*
X024316Y021230D01*
X024316Y021152D02*
X026874Y021152D01*
X026874Y021075D02*
X025384Y021075D01*
X025420Y021039D02*
X025348Y021112D01*
X025253Y021151D01*
X025150Y021151D01*
X025055Y021112D01*
X024983Y021039D01*
X024943Y020944D01*
X024943Y020841D01*
X024983Y020747D01*
X025055Y020674D01*
X025150Y020635D01*
X025253Y020635D01*
X025348Y020674D01*
X025420Y020747D01*
X025460Y020841D01*
X025460Y020944D01*
X025420Y021039D01*
X025437Y020998D02*
X026874Y020998D01*
X026874Y020921D02*
X025460Y020921D01*
X025460Y020843D02*
X026874Y020843D01*
X026874Y020766D02*
X025429Y020766D01*
X025363Y020689D02*
X026874Y020689D01*
X026874Y020612D02*
X020491Y020612D01*
X020414Y020534D02*
X026874Y020534D01*
X026874Y020457D02*
X020337Y020457D01*
X020260Y020380D02*
X026874Y020380D01*
X026874Y020303D02*
X020182Y020303D01*
X020105Y020225D02*
X025055Y020225D01*
X025055Y020226D02*
X024983Y020153D01*
X024943Y020058D01*
X024943Y019956D01*
X024983Y019861D01*
X025055Y019788D01*
X025150Y019749D01*
X025253Y019749D01*
X025348Y019788D01*
X025420Y019861D01*
X025460Y019956D01*
X025460Y020058D01*
X025420Y020153D01*
X025348Y020226D01*
X025253Y020265D01*
X025150Y020265D01*
X025055Y020226D01*
X024981Y020148D02*
X022039Y020148D01*
X022004Y020163D02*
X021903Y020163D01*
X021809Y020124D01*
X021738Y020053D01*
X021699Y019959D01*
X021699Y019858D01*
X021738Y019764D01*
X021809Y019693D01*
X021903Y019654D01*
X022004Y019654D01*
X022098Y019693D01*
X022169Y019764D01*
X022208Y019858D01*
X022208Y019959D01*
X022169Y020053D01*
X022098Y020124D01*
X022004Y020163D01*
X021868Y020148D02*
X021252Y020148D01*
X021217Y020163D02*
X021116Y020163D01*
X021022Y020124D01*
X020950Y020053D01*
X020912Y019959D01*
X020912Y019858D01*
X020950Y019764D01*
X021022Y019693D01*
X021116Y019654D01*
X021217Y019654D01*
X021310Y019693D01*
X021382Y019764D01*
X021421Y019858D01*
X021421Y019959D01*
X021382Y020053D01*
X021310Y020124D01*
X021217Y020163D01*
X021080Y020148D02*
X020028Y020148D01*
X019951Y020071D02*
X020969Y020071D01*
X020926Y019994D02*
X019873Y019994D01*
X019796Y019917D02*
X020912Y019917D01*
X020919Y019839D02*
X019719Y019839D01*
X019642Y019762D02*
X020953Y019762D01*
X021041Y019685D02*
X019565Y019685D01*
X019487Y019608D02*
X026874Y019608D01*
X026874Y019685D02*
X022078Y019685D01*
X022167Y019762D02*
X025118Y019762D01*
X025004Y019839D02*
X022200Y019839D01*
X022208Y019917D02*
X024960Y019917D01*
X024943Y019994D02*
X022194Y019994D01*
X022151Y020071D02*
X024949Y020071D01*
X025348Y020225D02*
X025843Y020225D01*
X025843Y020226D02*
X025770Y020153D01*
X025731Y020058D01*
X025731Y019956D01*
X025770Y019861D01*
X025843Y019788D01*
X025938Y019749D01*
X026040Y019749D01*
X026135Y019788D01*
X026208Y019861D01*
X026247Y019956D01*
X026247Y020058D01*
X026208Y020153D01*
X026135Y020226D01*
X026040Y020265D01*
X025938Y020265D01*
X025843Y020226D01*
X025768Y020148D02*
X025422Y020148D01*
X025454Y020071D02*
X025736Y020071D01*
X025731Y019994D02*
X025460Y019994D01*
X025444Y019917D02*
X025747Y019917D01*
X025792Y019839D02*
X025399Y019839D01*
X025285Y019762D02*
X025906Y019762D01*
X026072Y019762D02*
X026874Y019762D01*
X026874Y019839D02*
X026186Y019839D01*
X026231Y019917D02*
X026874Y019917D01*
X026874Y019994D02*
X026247Y019994D01*
X026242Y020071D02*
X026874Y020071D01*
X026874Y020148D02*
X026210Y020148D01*
X026135Y020225D02*
X026874Y020225D01*
X026874Y019530D02*
X019410Y019530D01*
X019333Y019453D02*
X026874Y019453D01*
X026874Y019376D02*
X019256Y019376D01*
X019178Y019299D02*
X026874Y019299D01*
X026874Y019221D02*
X019101Y019221D01*
X018982Y019299D02*
X007388Y019299D01*
X007388Y019376D02*
X019059Y019376D01*
X019137Y019453D02*
X007388Y019453D01*
X007388Y019530D02*
X018915Y019530D01*
X018863Y019608D02*
X007388Y019608D01*
X007388Y019685D02*
X018841Y019685D01*
X018841Y019762D02*
X007388Y019762D01*
X007388Y019839D02*
X018873Y019839D01*
X018939Y019917D02*
X007388Y019917D01*
X007388Y019994D02*
X019677Y019994D01*
X019600Y019917D02*
X019259Y019917D01*
X019326Y019839D02*
X019523Y019839D01*
X019446Y019762D02*
X019357Y019762D01*
X019357Y019685D02*
X019368Y019685D01*
X019755Y020071D02*
X007388Y020071D01*
X007388Y020148D02*
X019832Y020148D01*
X019909Y020225D02*
X007388Y020225D01*
X007388Y020303D02*
X015879Y020303D01*
X015902Y020280D02*
X015829Y020353D01*
X015790Y020448D01*
X015790Y020550D01*
X015829Y020645D01*
X015902Y020718D01*
X015997Y020757D01*
X016099Y020757D01*
X016194Y020718D01*
X016267Y020645D01*
X016306Y020550D01*
X016306Y020448D01*
X016267Y020353D01*
X016194Y020280D01*
X016099Y020241D01*
X015997Y020241D01*
X015902Y020280D01*
X015818Y020380D02*
X007388Y020380D01*
X007388Y020457D02*
X015790Y020457D01*
X015790Y020534D02*
X007388Y020534D01*
X007388Y020612D02*
X015815Y020612D01*
X015873Y020689D02*
X007388Y020689D01*
X007388Y020766D02*
X020450Y020766D01*
X020527Y020843D02*
X007388Y020843D01*
X007388Y020921D02*
X020604Y020921D01*
X020681Y020998D02*
X007388Y020998D01*
X007388Y021075D02*
X020759Y021075D01*
X020836Y021152D02*
X007388Y021152D01*
X007388Y021230D02*
X020913Y021230D01*
X020884Y021307D02*
X007388Y021307D01*
X007388Y021384D02*
X020833Y021384D01*
X020813Y021461D02*
X007388Y021461D01*
X007388Y021539D02*
X020815Y021539D01*
X020847Y021616D02*
X007388Y021616D01*
X007388Y021693D02*
X020918Y021693D01*
X020913Y021770D02*
X007388Y021770D01*
X007388Y021848D02*
X020845Y021848D01*
X020813Y021925D02*
X007388Y021925D01*
X007388Y022002D02*
X020813Y022002D01*
X020835Y022079D02*
X007388Y022079D01*
X007388Y022157D02*
X020889Y022157D01*
X021246Y022157D02*
X025068Y022157D01*
X025042Y022234D02*
X007388Y022234D01*
X007388Y022311D02*
X025042Y022311D01*
X025126Y022079D02*
X021300Y022079D01*
X021218Y021693D02*
X021405Y021693D01*
X021335Y021616D02*
X021288Y021616D01*
X021120Y021230D02*
X021498Y021230D01*
X021622Y021230D02*
X022643Y021230D01*
X022643Y021152D02*
X021032Y021152D01*
X020955Y021075D02*
X022657Y021075D01*
X022734Y020998D02*
X020878Y020998D01*
X020800Y020921D02*
X022811Y020921D01*
X022853Y021075D02*
X024105Y021075D01*
X024177Y021152D02*
X022781Y021152D01*
X022781Y021230D02*
X024177Y021230D01*
X024177Y021307D02*
X022781Y021307D01*
X022741Y021384D02*
X024217Y021384D01*
X024301Y021075D02*
X025019Y021075D01*
X024966Y020998D02*
X024224Y020998D01*
X024147Y020921D02*
X024943Y020921D01*
X024943Y020843D02*
X020723Y020843D01*
X020646Y020766D02*
X024975Y020766D01*
X025040Y020689D02*
X020569Y020689D01*
X020372Y020689D02*
X016223Y020689D01*
X016281Y020612D02*
X020295Y020612D01*
X020218Y020534D02*
X016306Y020534D01*
X016306Y020457D02*
X020141Y020457D01*
X020063Y020380D02*
X016278Y020380D01*
X016217Y020303D02*
X019986Y020303D01*
X019243Y019144D02*
X026874Y019144D01*
X026874Y019067D02*
X019319Y019067D01*
X019351Y018990D02*
X026874Y018990D01*
X026874Y018912D02*
X019357Y018912D01*
X019342Y018835D02*
X026874Y018835D01*
X026874Y018758D02*
X019298Y018758D01*
X019186Y018681D02*
X026874Y018681D01*
X026874Y018603D02*
X018804Y018603D01*
X018804Y018526D02*
X026874Y018526D01*
X026874Y018449D02*
X018804Y018449D01*
X018804Y018372D02*
X026874Y018372D01*
X026874Y018294D02*
X018804Y018294D01*
X018804Y018217D02*
X026874Y018217D01*
X026874Y018140D02*
X020052Y018140D01*
X020033Y018159D02*
X019938Y018198D01*
X019835Y018198D01*
X019740Y018159D01*
X019668Y018086D01*
X019629Y017991D01*
X019629Y017889D01*
X019668Y017794D01*
X019740Y017721D01*
X019835Y017682D01*
X019938Y017682D01*
X020033Y017721D01*
X020105Y017794D01*
X020145Y017889D01*
X020145Y017991D01*
X020105Y018086D01*
X020033Y018159D01*
X020115Y018063D02*
X026874Y018063D01*
X026874Y017986D02*
X020145Y017986D01*
X020145Y017908D02*
X026874Y017908D01*
X026874Y017831D02*
X020121Y017831D01*
X020065Y017754D02*
X026874Y017754D01*
X026874Y017677D02*
X018804Y017677D01*
X018804Y017754D02*
X019708Y017754D01*
X019652Y017831D02*
X018804Y017831D01*
X018804Y017908D02*
X019629Y017908D01*
X019629Y017986D02*
X018804Y017986D01*
X018804Y018063D02*
X019658Y018063D01*
X019722Y018140D02*
X018804Y018140D01*
X018665Y018140D02*
X009220Y018140D01*
X009204Y018156D02*
X009110Y018194D01*
X009009Y018194D01*
X008916Y018156D01*
X008844Y018084D01*
X008805Y017991D01*
X008805Y017889D01*
X008844Y017796D01*
X008916Y017724D01*
X009009Y017686D01*
X009110Y017686D01*
X009204Y017724D01*
X009275Y017796D01*
X009314Y017889D01*
X009314Y017991D01*
X009275Y018084D01*
X009204Y018156D01*
X009284Y018063D02*
X018665Y018063D01*
X018665Y017986D02*
X009314Y017986D01*
X009314Y017908D02*
X018665Y017908D01*
X018665Y017831D02*
X009290Y017831D01*
X009233Y017754D02*
X018665Y017754D01*
X018665Y017677D02*
X007388Y017677D01*
X007388Y017754D02*
X008886Y017754D01*
X008830Y017831D02*
X007388Y017831D01*
X007388Y017908D02*
X008805Y017908D01*
X008805Y017986D02*
X007388Y017986D01*
X007388Y018063D02*
X008835Y018063D01*
X008900Y018140D02*
X007388Y018140D01*
X007388Y018217D02*
X010391Y018217D01*
X010392Y018216D02*
X010486Y018178D01*
X010587Y018178D01*
X010680Y018216D01*
X010752Y018288D01*
X010791Y018381D01*
X010791Y018483D01*
X010752Y018576D01*
X010680Y018648D01*
X010587Y018686D01*
X010486Y018686D01*
X010392Y018648D01*
X010321Y018576D01*
X010282Y018483D01*
X010282Y018381D01*
X010321Y018288D01*
X010392Y018216D01*
X010318Y018294D02*
X007388Y018294D01*
X007388Y018372D02*
X010286Y018372D01*
X010282Y018449D02*
X007388Y018449D01*
X007388Y018526D02*
X010300Y018526D01*
X010280Y018603D02*
X010348Y018603D01*
X010289Y018607D02*
X010361Y018680D01*
X010401Y018774D01*
X010401Y018877D01*
X010361Y018972D01*
X010289Y019045D01*
X010194Y019084D01*
X010091Y019084D01*
X009996Y019045D01*
X009924Y018972D01*
X009884Y018877D01*
X009884Y018774D01*
X009924Y018680D01*
X009996Y018607D01*
X010091Y018568D01*
X010194Y018568D01*
X010289Y018607D01*
X010362Y018681D02*
X010472Y018681D01*
X010394Y018758D02*
X012739Y018758D01*
X012739Y018779D02*
X012739Y018676D01*
X012778Y018581D01*
X012851Y018509D01*
X012946Y018469D01*
X013048Y018469D01*
X013143Y018509D01*
X013216Y018581D01*
X013255Y018676D01*
X013255Y018779D01*
X013216Y018874D01*
X013143Y018946D01*
X013048Y018985D01*
X012946Y018985D01*
X012851Y018946D01*
X012778Y018874D01*
X012739Y018779D01*
X012762Y018835D02*
X010401Y018835D01*
X010386Y018912D02*
X012817Y018912D01*
X012739Y018681D02*
X010601Y018681D01*
X010725Y018603D02*
X012769Y018603D01*
X012833Y018526D02*
X010773Y018526D01*
X010791Y018449D02*
X018665Y018449D01*
X018665Y018526D02*
X013844Y018526D01*
X013830Y018512D02*
X013901Y018583D01*
X013940Y018677D01*
X013940Y018778D01*
X013901Y018871D01*
X013830Y018943D01*
X013736Y018982D01*
X013635Y018982D01*
X013542Y018943D01*
X013470Y018871D01*
X013431Y018778D01*
X013431Y018677D01*
X013470Y018583D01*
X013542Y018512D01*
X013635Y018473D01*
X013736Y018473D01*
X013830Y018512D01*
X013910Y018603D02*
X018665Y018603D01*
X018665Y018681D02*
X013940Y018681D01*
X013940Y018758D02*
X018665Y018758D01*
X018665Y018835D02*
X013916Y018835D01*
X013861Y018912D02*
X018665Y018912D01*
X018673Y018990D02*
X010344Y018990D01*
X010235Y019067D02*
X018750Y019067D01*
X018828Y019144D02*
X007388Y019144D01*
X007388Y019067D02*
X010050Y019067D01*
X009941Y018990D02*
X007388Y018990D01*
X007388Y018912D02*
X009899Y018912D01*
X009884Y018835D02*
X007388Y018835D01*
X007388Y018758D02*
X009891Y018758D01*
X009923Y018681D02*
X007388Y018681D01*
X007388Y018603D02*
X010005Y018603D01*
X010681Y018217D02*
X018665Y018217D01*
X018665Y018294D02*
X010755Y018294D01*
X010787Y018372D02*
X018665Y018372D01*
X018804Y018681D02*
X019013Y018681D01*
X018900Y018758D02*
X018804Y018758D01*
X018804Y018835D02*
X018857Y018835D01*
X018841Y018912D02*
X018804Y018912D01*
X018905Y019221D02*
X007388Y019221D01*
X007388Y017599D02*
X018665Y017599D01*
X018665Y017522D02*
X007388Y017522D01*
X007388Y017445D02*
X018665Y017445D01*
X018665Y017368D02*
X007388Y017368D01*
X007388Y017290D02*
X018665Y017290D01*
X018665Y017213D02*
X007388Y017213D01*
X007388Y017136D02*
X018665Y017136D01*
X018665Y017059D02*
X010006Y017059D01*
X009991Y017073D02*
X009898Y017112D01*
X009797Y017112D01*
X009703Y017073D01*
X009632Y017001D01*
X009593Y016908D01*
X009593Y016807D01*
X009632Y016713D01*
X009703Y016642D01*
X009797Y016603D01*
X009898Y016603D01*
X009991Y016642D01*
X010063Y016713D01*
X010102Y016807D01*
X010102Y016908D01*
X010063Y017001D01*
X009991Y017073D01*
X010071Y016981D02*
X018665Y016981D01*
X018665Y016904D02*
X010102Y016904D01*
X010102Y016827D02*
X018665Y016827D01*
X018665Y016750D02*
X010078Y016750D01*
X010022Y016672D02*
X018665Y016672D01*
X018665Y016595D02*
X007388Y016595D01*
X007388Y016518D02*
X018665Y016518D01*
X018665Y016441D02*
X007388Y016441D01*
X007388Y016363D02*
X018665Y016363D01*
X018665Y016286D02*
X007388Y016286D01*
X007388Y016209D02*
X018665Y016209D01*
X018665Y016132D02*
X007388Y016132D01*
X007388Y016055D02*
X018665Y016055D01*
X018665Y015977D02*
X007388Y015977D01*
X007388Y015900D02*
X018665Y015900D01*
X018665Y015823D02*
X007388Y015823D01*
X007388Y015746D02*
X018665Y015746D01*
X018665Y015668D02*
X007388Y015668D01*
X007388Y015591D02*
X018665Y015591D01*
X018665Y015514D02*
X007388Y015514D01*
X007388Y015437D02*
X018665Y015437D01*
X018665Y015359D02*
X007388Y015359D01*
X007388Y015282D02*
X018665Y015282D01*
X018665Y015205D02*
X016294Y015205D01*
X016293Y015206D02*
X016198Y015245D01*
X016095Y015245D01*
X016000Y015206D01*
X015928Y015133D01*
X015888Y015039D01*
X015888Y014936D01*
X015928Y014841D01*
X016000Y014768D01*
X016095Y014729D01*
X016198Y014729D01*
X016293Y014768D01*
X016365Y014841D01*
X016405Y014936D01*
X016405Y015039D01*
X016365Y015133D01*
X016293Y015206D01*
X016368Y015128D02*
X018665Y015128D01*
X018665Y015050D02*
X016400Y015050D01*
X016405Y014973D02*
X018665Y014973D01*
X018665Y014896D02*
X016388Y014896D01*
X016343Y014819D02*
X018665Y014819D01*
X018665Y014741D02*
X016228Y014741D01*
X016065Y014741D02*
X014915Y014741D01*
X014992Y014664D02*
X018665Y014664D01*
X018665Y014587D02*
X015070Y014587D01*
X015147Y014510D02*
X018665Y014510D01*
X018665Y014432D02*
X018228Y014432D01*
X018261Y014419D02*
X018166Y014458D01*
X018064Y014458D01*
X017969Y014419D01*
X017896Y014346D01*
X017857Y014251D01*
X017857Y014148D01*
X017896Y014054D01*
X017969Y013981D01*
X018064Y013942D01*
X018166Y013942D01*
X018261Y013981D01*
X018334Y014054D01*
X018373Y014148D01*
X018373Y014251D01*
X018334Y014346D01*
X018261Y014419D01*
X018325Y014355D02*
X018665Y014355D01*
X018665Y014278D02*
X018362Y014278D01*
X018373Y014201D02*
X018665Y014201D01*
X018665Y014124D02*
X018363Y014124D01*
X018326Y014046D02*
X018665Y014046D01*
X018665Y013969D02*
X018232Y013969D01*
X017998Y013969D02*
X016264Y013969D01*
X016293Y013981D02*
X016365Y014054D01*
X016405Y014148D01*
X016405Y014251D01*
X016365Y014346D01*
X016293Y014419D01*
X016198Y014458D01*
X016095Y014458D01*
X016000Y014419D01*
X015928Y014346D01*
X015888Y014251D01*
X015888Y014148D01*
X015928Y014054D01*
X016000Y013981D01*
X016095Y013942D01*
X016198Y013942D01*
X016293Y013981D01*
X016358Y014046D02*
X017903Y014046D01*
X017867Y014124D02*
X016394Y014124D01*
X016405Y014201D02*
X017857Y014201D01*
X017868Y014278D02*
X016393Y014278D01*
X016356Y014355D02*
X017905Y014355D01*
X018002Y014432D02*
X016259Y014432D01*
X016034Y014432D02*
X015224Y014432D01*
X015301Y014355D02*
X015937Y014355D01*
X015899Y014278D02*
X015379Y014278D01*
X015399Y014201D02*
X015888Y014201D01*
X015899Y014124D02*
X015399Y014124D01*
X015399Y014046D02*
X015935Y014046D01*
X016029Y013969D02*
X015399Y013969D01*
X015399Y013892D02*
X018665Y013892D01*
X018665Y013815D02*
X015399Y013815D01*
X015399Y013737D02*
X018665Y013737D01*
X018665Y013660D02*
X015399Y013660D01*
X015399Y013583D02*
X018665Y013583D01*
X018665Y013506D02*
X015399Y013506D01*
X015399Y013428D02*
X018665Y013428D01*
X018665Y013351D02*
X015399Y013351D01*
X015399Y013274D02*
X018665Y013274D01*
X018665Y013197D02*
X015399Y013197D01*
X015399Y013119D02*
X018665Y013119D01*
X018665Y013042D02*
X015399Y013042D01*
X015399Y012965D02*
X018665Y012965D01*
X018665Y012888D02*
X015399Y012888D01*
X015399Y012810D02*
X018665Y012810D01*
X018665Y012733D02*
X015399Y012733D01*
X015399Y012656D02*
X018665Y012656D01*
X018665Y012579D02*
X015399Y012579D01*
X015399Y012501D02*
X018665Y012501D01*
X018665Y012424D02*
X015399Y012424D01*
X015399Y012347D02*
X018665Y012347D01*
X018665Y012270D02*
X015399Y012270D01*
X015399Y012192D02*
X018665Y012192D01*
X018665Y012115D02*
X015399Y012115D01*
X015399Y012038D02*
X018665Y012038D01*
X018665Y011961D02*
X015399Y011961D01*
X015399Y011884D02*
X018665Y011884D01*
X018665Y011806D02*
X015399Y011806D01*
X015399Y011729D02*
X018665Y011729D01*
X018665Y011652D02*
X015399Y011652D01*
X015399Y011575D02*
X018665Y011575D01*
X018665Y011497D02*
X015399Y011497D01*
X015399Y011420D02*
X018665Y011420D01*
X018665Y011343D02*
X015399Y011343D01*
X015399Y011266D02*
X018665Y011266D01*
X018665Y011188D02*
X015399Y011188D01*
X015399Y011111D02*
X018665Y011111D01*
X018665Y011034D02*
X015399Y011034D01*
X015399Y010957D02*
X018665Y010957D01*
X018665Y010879D02*
X015399Y010879D01*
X015399Y010802D02*
X018665Y010802D01*
X018665Y010725D02*
X015399Y010725D01*
X015399Y010648D02*
X018665Y010648D01*
X018665Y010570D02*
X015399Y010570D01*
X015399Y010493D02*
X018665Y010493D01*
X018665Y010416D02*
X015399Y010416D01*
X015399Y010339D02*
X018665Y010339D01*
X018606Y010261D02*
X015458Y010261D01*
X015339Y010184D02*
X012781Y010184D01*
X012758Y010127D02*
X012821Y010279D01*
X012821Y010444D01*
X012758Y010596D01*
X012641Y010712D01*
X012489Y010776D01*
X012324Y010776D01*
X012172Y010712D01*
X012055Y010596D01*
X011992Y010444D01*
X011992Y010279D01*
X012055Y010127D01*
X012172Y010010D01*
X012324Y009947D01*
X012489Y009947D01*
X012641Y010010D01*
X012758Y010127D01*
X012738Y010107D02*
X015416Y010107D01*
X015262Y010261D02*
X012813Y010261D01*
X012821Y010339D02*
X015261Y010339D01*
X015261Y010416D02*
X012821Y010416D01*
X012800Y010493D02*
X015261Y010493D01*
X015261Y010570D02*
X012768Y010570D01*
X012706Y010648D02*
X015261Y010648D01*
X015261Y010725D02*
X012611Y010725D01*
X012202Y010725D02*
X009650Y010725D01*
X009650Y010802D02*
X015261Y010802D01*
X015261Y010879D02*
X009650Y010879D01*
X009650Y010957D02*
X015261Y010957D01*
X015261Y011034D02*
X009650Y011034D01*
X009650Y011111D02*
X015261Y011111D01*
X015261Y011188D02*
X009650Y011188D01*
X009650Y011266D02*
X015261Y011266D01*
X015261Y011343D02*
X009650Y011343D01*
X009650Y011420D02*
X015261Y011420D01*
X015261Y011497D02*
X009650Y011497D01*
X009650Y011575D02*
X015261Y011575D01*
X015261Y011652D02*
X009650Y011652D01*
X009650Y011729D02*
X015261Y011729D01*
X015261Y011806D02*
X009650Y011806D01*
X009650Y011884D02*
X015261Y011884D01*
X015261Y011961D02*
X009650Y011961D01*
X009650Y012038D02*
X015261Y012038D01*
X015261Y012115D02*
X009650Y012115D01*
X009650Y012192D02*
X015261Y012192D01*
X015261Y012270D02*
X009650Y012270D01*
X009650Y012347D02*
X012232Y012347D01*
X012172Y012372D02*
X012324Y012309D01*
X012489Y012309D01*
X012641Y012372D01*
X012758Y012489D01*
X012821Y012641D01*
X012821Y012806D01*
X012758Y012958D01*
X012641Y013075D01*
X012489Y013138D01*
X012324Y013138D01*
X012172Y013075D01*
X012055Y012958D01*
X011992Y012806D01*
X011992Y012641D01*
X012055Y012489D01*
X012172Y012372D01*
X012120Y012424D02*
X009650Y012424D01*
X009650Y012501D02*
X012050Y012501D01*
X012018Y012579D02*
X010220Y012579D01*
X010193Y012567D02*
X010287Y012606D01*
X010358Y012678D01*
X010397Y012771D01*
X010397Y012872D01*
X010358Y012966D01*
X010287Y013037D01*
X010193Y013076D01*
X010092Y013076D01*
X009998Y013037D01*
X009927Y012966D01*
X009888Y012872D01*
X009888Y012771D01*
X009927Y012678D01*
X009998Y012606D01*
X010092Y012567D01*
X010193Y012567D01*
X010065Y012579D02*
X009650Y012579D01*
X009650Y012656D02*
X009949Y012656D01*
X009904Y012733D02*
X009650Y012733D01*
X009650Y012810D02*
X009888Y012810D01*
X009894Y012888D02*
X009650Y012888D01*
X009650Y012965D02*
X009926Y012965D01*
X010010Y013042D02*
X009650Y013042D01*
X009650Y013119D02*
X012280Y013119D01*
X012139Y013042D02*
X010275Y013042D01*
X010359Y012965D02*
X012062Y012965D01*
X012026Y012888D02*
X010391Y012888D01*
X010397Y012810D02*
X011994Y012810D01*
X011992Y012733D02*
X010381Y012733D01*
X010336Y012656D02*
X011992Y012656D01*
X012580Y012347D02*
X015261Y012347D01*
X015261Y012424D02*
X012693Y012424D01*
X012763Y012501D02*
X015261Y012501D01*
X015261Y012579D02*
X012795Y012579D01*
X012821Y012656D02*
X015261Y012656D01*
X015261Y012733D02*
X012821Y012733D01*
X012819Y012810D02*
X015261Y012810D01*
X015261Y012888D02*
X012787Y012888D01*
X012751Y012965D02*
X015261Y012965D01*
X015261Y013042D02*
X012674Y013042D01*
X012533Y013119D02*
X015261Y013119D01*
X015261Y013197D02*
X009650Y013197D01*
X009650Y013274D02*
X015261Y013274D01*
X015261Y013351D02*
X009650Y013351D01*
X009650Y013428D02*
X015261Y013428D01*
X015261Y013506D02*
X009650Y013506D01*
X009650Y013583D02*
X015261Y013583D01*
X015261Y013660D02*
X009650Y013660D01*
X009650Y013737D02*
X015261Y013737D01*
X015261Y013815D02*
X009650Y013815D01*
X009650Y013892D02*
X014520Y013892D01*
X014526Y013886D02*
X014619Y013847D01*
X014721Y013847D01*
X014814Y013886D01*
X014886Y013957D01*
X014924Y014051D01*
X014924Y014152D01*
X014886Y014245D01*
X014814Y014317D01*
X014721Y014356D01*
X014619Y014356D01*
X014526Y014317D01*
X014454Y014245D01*
X014416Y014152D01*
X014416Y014051D01*
X014454Y013957D01*
X014526Y013886D01*
X014450Y013969D02*
X009650Y013969D01*
X009650Y014046D02*
X014418Y014046D01*
X014416Y014124D02*
X009650Y014124D01*
X009650Y014201D02*
X011548Y014201D01*
X011571Y014178D02*
X011666Y014139D01*
X011769Y014139D01*
X011864Y014178D01*
X011936Y014250D01*
X011975Y014345D01*
X011975Y014448D01*
X011936Y014543D01*
X011864Y014615D01*
X011769Y014655D01*
X011666Y014655D01*
X011571Y014615D01*
X011499Y014543D01*
X011459Y014448D01*
X011459Y014345D01*
X011499Y014250D01*
X011571Y014178D01*
X011487Y014278D02*
X009650Y014278D01*
X009650Y014355D02*
X011459Y014355D01*
X011459Y014432D02*
X009650Y014432D01*
X009665Y014510D02*
X011485Y014510D01*
X011543Y014587D02*
X009742Y014587D01*
X009820Y014664D02*
X014796Y014664D01*
X014719Y014741D02*
X009897Y014741D01*
X009974Y014819D02*
X014642Y014819D01*
X014761Y014896D02*
X015905Y014896D01*
X015888Y014973D02*
X014683Y014973D01*
X014838Y014819D02*
X015950Y014819D01*
X015893Y015050D02*
X007388Y015050D01*
X007388Y014973D02*
X009932Y014973D01*
X009855Y014896D02*
X007388Y014896D01*
X007388Y014819D02*
X009778Y014819D01*
X009701Y014741D02*
X007388Y014741D01*
X007388Y014664D02*
X009623Y014664D01*
X009546Y014587D02*
X007388Y014587D01*
X007388Y014510D02*
X009512Y014510D01*
X009512Y014432D02*
X007388Y014432D01*
X007388Y014355D02*
X009512Y014355D01*
X009512Y014278D02*
X007388Y014278D01*
X007388Y014201D02*
X009512Y014201D01*
X009512Y014124D02*
X007388Y014124D01*
X007388Y014046D02*
X009512Y014046D01*
X009512Y013969D02*
X007388Y013969D01*
X007388Y013892D02*
X009512Y013892D01*
X009512Y013815D02*
X007388Y013815D01*
X007388Y013737D02*
X009512Y013737D01*
X009512Y013660D02*
X007388Y013660D01*
X007388Y013583D02*
X009512Y013583D01*
X009512Y013506D02*
X007388Y013506D01*
X007388Y013428D02*
X009512Y013428D01*
X009512Y013351D02*
X007388Y013351D01*
X007388Y013274D02*
X009512Y013274D01*
X009512Y013197D02*
X007388Y013197D01*
X007388Y013119D02*
X009512Y013119D01*
X009512Y013042D02*
X007388Y013042D01*
X007388Y012965D02*
X009512Y012965D01*
X009512Y012888D02*
X007388Y012888D01*
X007388Y012810D02*
X009512Y012810D01*
X009512Y012733D02*
X007388Y012733D01*
X007388Y012656D02*
X009512Y012656D01*
X009512Y012579D02*
X007388Y012579D01*
X007388Y012501D02*
X009512Y012501D01*
X009512Y012424D02*
X007388Y012424D01*
X007388Y012347D02*
X009512Y012347D01*
X009512Y012270D02*
X007388Y012270D01*
X007388Y012192D02*
X009512Y012192D01*
X009512Y012115D02*
X007388Y012115D01*
X007388Y012038D02*
X009512Y012038D01*
X009512Y011961D02*
X007388Y011961D01*
X007388Y011884D02*
X009512Y011884D01*
X009512Y011806D02*
X007388Y011806D01*
X007388Y011729D02*
X009512Y011729D01*
X009512Y011652D02*
X007388Y011652D01*
X007388Y011575D02*
X009512Y011575D01*
X009512Y011497D02*
X007388Y011497D01*
X007388Y011420D02*
X009512Y011420D01*
X009512Y011343D02*
X007388Y011343D01*
X007388Y011266D02*
X009512Y011266D01*
X009512Y011188D02*
X007388Y011188D01*
X007388Y011111D02*
X009512Y011111D01*
X009512Y011034D02*
X008621Y011034D01*
X008604Y011041D02*
X008334Y011041D01*
X008084Y010937D01*
X007893Y010746D01*
X007790Y010496D01*
X007790Y010226D01*
X007893Y009976D01*
X008084Y009785D01*
X008334Y009682D01*
X008604Y009682D01*
X008854Y009785D01*
X009045Y009976D01*
X009149Y010226D01*
X009149Y010496D01*
X009045Y010746D01*
X008854Y010937D01*
X008604Y011041D01*
X008807Y010957D02*
X009512Y010957D01*
X009512Y010879D02*
X008912Y010879D01*
X008989Y010802D02*
X009512Y010802D01*
X009512Y010725D02*
X009054Y010725D01*
X009086Y010648D02*
X009512Y010648D01*
X009512Y010570D02*
X009118Y010570D01*
X009149Y010493D02*
X009512Y010493D01*
X009512Y010416D02*
X009149Y010416D01*
X009149Y010339D02*
X009512Y010339D01*
X009512Y010261D02*
X009149Y010261D01*
X009131Y010184D02*
X009512Y010184D01*
X009512Y010107D02*
X009099Y010107D01*
X009067Y010030D02*
X009512Y010030D01*
X009512Y009953D02*
X009021Y009953D01*
X008944Y009875D02*
X009512Y009875D01*
X009512Y009798D02*
X008867Y009798D01*
X008698Y009721D02*
X009512Y009721D01*
X009512Y009644D02*
X007388Y009644D01*
X007388Y009721D02*
X008240Y009721D01*
X008072Y009798D02*
X007388Y009798D01*
X007388Y009875D02*
X007994Y009875D01*
X007917Y009953D02*
X007388Y009953D01*
X007388Y010030D02*
X007871Y010030D01*
X007839Y010107D02*
X007388Y010107D01*
X007388Y010184D02*
X007807Y010184D01*
X007790Y010261D02*
X007388Y010261D01*
X007388Y010339D02*
X007790Y010339D01*
X007790Y010416D02*
X007388Y010416D01*
X007388Y010493D02*
X007790Y010493D01*
X007821Y010570D02*
X007388Y010570D01*
X007388Y010648D02*
X007853Y010648D01*
X007885Y010725D02*
X007388Y010725D01*
X007388Y010802D02*
X007949Y010802D01*
X008027Y010879D02*
X007388Y010879D01*
X007388Y010957D02*
X008132Y010957D01*
X008318Y011034D02*
X007388Y011034D01*
X007388Y009566D02*
X009512Y009566D01*
X009512Y009489D02*
X007388Y009489D01*
X007388Y009412D02*
X009512Y009412D01*
X009512Y009335D02*
X007388Y009335D01*
X009650Y009335D02*
X026874Y009335D01*
X026874Y009412D02*
X009650Y009412D01*
X009650Y009489D02*
X026874Y009489D01*
X026874Y009566D02*
X009650Y009566D01*
X009650Y009644D02*
X026874Y009644D01*
X026874Y009721D02*
X026021Y009721D01*
X025927Y009682D02*
X026177Y009785D01*
X026368Y009976D01*
X026471Y010226D01*
X026471Y010496D01*
X026368Y010746D01*
X026177Y010937D01*
X025927Y011041D01*
X025657Y011041D01*
X025407Y010937D01*
X025216Y010746D01*
X025113Y010496D01*
X025113Y010226D01*
X025216Y009976D01*
X025407Y009785D01*
X025657Y009682D01*
X025927Y009682D01*
X026190Y009798D02*
X026874Y009798D01*
X026874Y009875D02*
X026267Y009875D01*
X026344Y009953D02*
X026874Y009953D01*
X026874Y010030D02*
X026390Y010030D01*
X026422Y010107D02*
X026874Y010107D01*
X026874Y010184D02*
X026454Y010184D01*
X026471Y010261D02*
X026874Y010261D01*
X026874Y010339D02*
X026471Y010339D01*
X026471Y010416D02*
X026874Y010416D01*
X026874Y010493D02*
X026471Y010493D01*
X026441Y010570D02*
X026874Y010570D01*
X026874Y010648D02*
X026409Y010648D01*
X026377Y010725D02*
X026874Y010725D01*
X026874Y010802D02*
X026312Y010802D01*
X026235Y010879D02*
X026874Y010879D01*
X026874Y010957D02*
X026130Y010957D01*
X025943Y011034D02*
X026874Y011034D01*
X026874Y011111D02*
X018804Y011111D01*
X018804Y011034D02*
X025641Y011034D01*
X025454Y010957D02*
X018804Y010957D01*
X018804Y010879D02*
X025350Y010879D01*
X025272Y010802D02*
X018804Y010802D01*
X018804Y010725D02*
X021650Y010725D01*
X021620Y010712D02*
X021504Y010596D01*
X021441Y010444D01*
X021441Y010279D01*
X021504Y010127D01*
X021620Y010010D01*
X021773Y009947D01*
X021938Y009947D01*
X022090Y010010D01*
X022206Y010127D01*
X022269Y010279D01*
X022269Y010444D01*
X022206Y010596D01*
X022090Y010712D01*
X021938Y010776D01*
X021773Y010776D01*
X021620Y010712D01*
X021556Y010648D02*
X018804Y010648D01*
X018804Y010570D02*
X021493Y010570D01*
X021461Y010493D02*
X018804Y010493D01*
X018804Y010416D02*
X021441Y010416D01*
X021441Y010339D02*
X018804Y010339D01*
X018803Y010261D02*
X021448Y010261D01*
X021480Y010184D02*
X018725Y010184D01*
X018648Y010107D02*
X021523Y010107D01*
X021601Y010030D02*
X012661Y010030D01*
X012502Y009953D02*
X021759Y009953D01*
X021951Y009953D02*
X025240Y009953D01*
X025194Y010030D02*
X022110Y010030D01*
X022187Y010107D02*
X025162Y010107D01*
X025130Y010184D02*
X022230Y010184D01*
X022262Y010261D02*
X025113Y010261D01*
X025113Y010339D02*
X022269Y010339D01*
X022269Y010416D02*
X025113Y010416D01*
X025113Y010493D02*
X022249Y010493D01*
X022217Y010570D02*
X025143Y010570D01*
X025175Y010648D02*
X022155Y010648D01*
X022060Y010725D02*
X025207Y010725D01*
X025317Y009875D02*
X009650Y009875D01*
X009650Y009798D02*
X025395Y009798D01*
X025563Y009721D02*
X009650Y009721D01*
X009650Y009953D02*
X012310Y009953D01*
X012152Y010030D02*
X009650Y010030D01*
X009650Y010107D02*
X012075Y010107D01*
X012031Y010184D02*
X009650Y010184D01*
X009650Y010261D02*
X011999Y010261D01*
X011992Y010339D02*
X009650Y010339D01*
X009650Y010416D02*
X011992Y010416D01*
X012013Y010493D02*
X009650Y010493D01*
X009650Y010570D02*
X012044Y010570D01*
X012107Y010648D02*
X009650Y010648D01*
X011886Y014201D02*
X014436Y014201D01*
X014487Y014278D02*
X011948Y014278D01*
X011975Y014355D02*
X014618Y014355D01*
X014722Y014355D02*
X015105Y014355D01*
X015182Y014278D02*
X014853Y014278D01*
X014904Y014201D02*
X015260Y014201D01*
X015261Y014124D02*
X014924Y014124D01*
X014923Y014046D02*
X015261Y014046D01*
X015261Y013969D02*
X014891Y013969D01*
X014820Y013892D02*
X015261Y013892D01*
X015028Y014432D02*
X011975Y014432D01*
X011950Y014510D02*
X014951Y014510D01*
X014873Y014587D02*
X011892Y014587D01*
X009672Y016672D02*
X007388Y016672D01*
X007388Y016750D02*
X009616Y016750D01*
X009593Y016827D02*
X007388Y016827D01*
X007388Y016904D02*
X009593Y016904D01*
X009623Y016981D02*
X007388Y016981D01*
X007388Y017059D02*
X009689Y017059D01*
X007388Y015205D02*
X015999Y015205D01*
X015925Y015128D02*
X007388Y015128D01*
X013161Y018526D02*
X013527Y018526D01*
X013462Y018603D02*
X013225Y018603D01*
X013255Y018681D02*
X013431Y018681D01*
X013431Y018758D02*
X013255Y018758D01*
X013232Y018835D02*
X013455Y018835D01*
X013511Y018912D02*
X013177Y018912D01*
X016866Y024551D02*
X021085Y024551D01*
X021032Y024628D02*
X016806Y024628D01*
X017901Y028876D02*
X018329Y028876D01*
X018362Y028843D02*
X018457Y028804D01*
X018560Y028804D01*
X018655Y028843D01*
X018727Y028916D01*
X018767Y029011D01*
X018767Y029113D01*
X018727Y029208D01*
X018655Y029281D01*
X018560Y029320D01*
X018457Y029320D01*
X018362Y029281D01*
X018290Y029208D01*
X018251Y029113D01*
X018251Y029011D01*
X018290Y028916D01*
X018362Y028843D01*
X018274Y028954D02*
X017956Y028954D01*
X017979Y029031D02*
X018251Y029031D01*
X018251Y029108D02*
X017979Y029108D01*
X017950Y029185D02*
X018280Y029185D01*
X018344Y029263D02*
X017886Y029263D01*
X018673Y029263D02*
X020077Y029263D01*
X020095Y029281D02*
X020022Y029208D01*
X019983Y029113D01*
X019983Y029011D01*
X020022Y028916D01*
X020095Y028843D01*
X020190Y028804D01*
X020292Y028804D01*
X020387Y028843D01*
X020460Y028916D01*
X020499Y029011D01*
X020499Y029113D01*
X020460Y029208D01*
X020387Y029281D01*
X020292Y029320D01*
X020190Y029320D01*
X020095Y029281D01*
X020013Y029185D02*
X018737Y029185D01*
X018767Y029108D02*
X019983Y029108D01*
X019983Y029031D02*
X018767Y029031D01*
X018743Y028954D02*
X020006Y028954D01*
X020062Y028876D02*
X018688Y028876D01*
X018673Y029649D02*
X019230Y029649D01*
X019166Y029726D02*
X018737Y029726D01*
X018767Y029803D02*
X019136Y029803D01*
X019136Y029881D02*
X018767Y029881D01*
X018743Y029958D02*
X019160Y029958D01*
X019215Y030035D02*
X018688Y030035D01*
X020405Y029263D02*
X020608Y029263D01*
X020544Y029185D02*
X020469Y029185D01*
X020499Y029108D02*
X020514Y029108D01*
X020514Y029031D02*
X020499Y029031D01*
X020475Y028954D02*
X020538Y028954D01*
X020593Y028876D02*
X020420Y028876D01*
X021519Y031116D02*
X021995Y031116D01*
X021926Y031194D02*
X021588Y031194D01*
X021620Y031271D02*
X021894Y031271D01*
X021892Y031348D02*
X021621Y031348D01*
X021601Y031425D02*
X021912Y031425D01*
X021962Y031503D02*
X021551Y031503D01*
X022339Y031503D02*
X022904Y031503D01*
X022965Y031425D02*
X022389Y031425D01*
X022409Y031348D02*
X024466Y031348D01*
X024390Y031271D02*
X022407Y031271D01*
X022375Y031194D02*
X024358Y031194D01*
X024353Y031116D02*
X022306Y031116D01*
X023122Y033434D02*
X021382Y033434D01*
X021385Y033511D02*
X023085Y033511D01*
X023073Y033588D02*
X021366Y033588D01*
X021318Y033665D02*
X023084Y033665D01*
X023119Y033743D02*
X021194Y033743D01*
X021059Y033743D02*
X020407Y033743D01*
X020272Y033743D02*
X007388Y033743D01*
X007388Y033820D02*
X023213Y033820D01*
X023968Y033665D02*
X024026Y033665D01*
X024044Y033743D02*
X024150Y033743D01*
X024076Y033820D02*
X026874Y033820D01*
X026874Y033897D02*
X024082Y033897D01*
X024066Y033974D02*
X026874Y033974D01*
X026874Y034052D02*
X024022Y034052D01*
X024285Y033743D02*
X026874Y033743D01*
X026874Y033665D02*
X024408Y033665D01*
X024457Y033588D02*
X026874Y033588D01*
X026874Y033511D02*
X024475Y033511D01*
X024473Y033434D02*
X026874Y033434D01*
X026874Y033356D02*
X024441Y033356D01*
X026874Y033125D02*
X018759Y033125D01*
X018725Y033047D02*
X026874Y033047D01*
X026874Y030962D02*
X026805Y030962D01*
X022547Y036214D02*
X019647Y036214D01*
X019615Y036291D02*
X022500Y036291D01*
X022483Y036369D02*
X019538Y036369D01*
X019251Y036369D02*
X007388Y036369D01*
X007388Y036446D02*
X022487Y036446D01*
X022519Y036523D02*
X007388Y036523D01*
X007388Y036600D02*
X007688Y036600D01*
X007580Y036678D02*
X007388Y036678D01*
X007388Y036755D02*
X007539Y036755D01*
X007526Y036832D02*
X007388Y036832D01*
X007388Y036909D02*
X007535Y036909D01*
X007570Y036987D02*
X007388Y036987D01*
X007388Y037064D02*
X007662Y037064D01*
X007388Y037141D02*
X012235Y037141D01*
X012177Y037218D02*
X011375Y037218D01*
X011369Y037213D02*
X011441Y037284D01*
X011480Y037378D01*
X011480Y037479D01*
X011441Y037572D01*
X011369Y037644D01*
X011276Y037683D01*
X011175Y037683D01*
X011081Y037644D01*
X011010Y037572D01*
X010971Y037479D01*
X010971Y037378D01*
X011010Y037284D01*
X011081Y037213D01*
X011175Y037174D01*
X011276Y037174D01*
X011369Y037213D01*
X011446Y037296D02*
X012152Y037296D01*
X012055Y037373D02*
X011478Y037373D01*
X011480Y037450D02*
X011926Y037450D01*
X011876Y037527D02*
X011459Y037527D01*
X011408Y037605D02*
X011857Y037605D01*
X011859Y037682D02*
X011277Y037682D01*
X011173Y037682D02*
X009376Y037682D01*
X009408Y037759D02*
X011891Y037759D01*
X011963Y037836D02*
X009413Y037836D01*
X009298Y037605D02*
X011042Y037605D01*
X010991Y037527D02*
X007388Y037527D01*
X007388Y037450D02*
X010971Y037450D01*
X010973Y037373D02*
X007388Y037373D01*
X007388Y037296D02*
X011005Y037296D01*
X011075Y037218D02*
X007388Y037218D01*
X007388Y037605D02*
X009018Y037605D01*
X008941Y037682D02*
X007388Y037682D01*
X007388Y037759D02*
X008909Y037759D01*
X008904Y037836D02*
X007388Y037836D01*
X007388Y037914D02*
X008921Y037914D01*
X008967Y037991D02*
X007388Y037991D01*
X007873Y036600D02*
X022592Y036600D01*
X020806Y034283D02*
X009312Y034283D01*
X009304Y034206D02*
X020741Y034206D01*
X020711Y034129D02*
X009270Y034129D01*
X009179Y034052D02*
X020711Y034052D01*
X020734Y033974D02*
X007388Y033974D01*
X007388Y033897D02*
X020789Y033897D01*
X020936Y033665D02*
X020530Y033665D01*
X020579Y033588D02*
X020888Y033588D01*
X020869Y033511D02*
X020597Y033511D01*
X020595Y033434D02*
X020871Y033434D01*
X020903Y033356D02*
X020563Y033356D01*
X020492Y033279D02*
X020974Y033279D01*
X020149Y033665D02*
X007388Y033665D01*
X007388Y033588D02*
X020100Y033588D01*
X018319Y032584D02*
X017911Y032584D01*
X017960Y032507D02*
X018270Y032507D01*
X018251Y032429D02*
X017979Y032429D01*
X017977Y032352D02*
X018253Y032352D01*
X018285Y032275D02*
X017945Y032275D01*
X017876Y032198D02*
X018354Y032198D01*
X019307Y035905D02*
X007388Y035905D01*
X007388Y035983D02*
X019196Y035983D01*
X019152Y036060D02*
X007388Y036060D01*
X007388Y036137D02*
X019136Y036137D01*
X019142Y036214D02*
X007388Y036214D01*
X007388Y036291D02*
X019174Y036291D01*
X018441Y041467D02*
X017789Y041467D01*
X017850Y041544D02*
X018380Y041544D01*
X018353Y041621D02*
X017877Y041621D01*
X017877Y041698D02*
X018353Y041698D01*
X018379Y041776D02*
X017850Y041776D01*
X017790Y041853D02*
X018440Y041853D01*
X018280Y042548D02*
X019357Y042548D01*
X019409Y042625D02*
X018341Y042625D01*
X018359Y043320D02*
X017083Y043320D01*
X017154Y043398D02*
X018288Y043398D01*
X018256Y043475D02*
X017186Y043475D01*
X017188Y043552D02*
X018254Y043552D01*
X018274Y043629D02*
X017168Y043629D01*
X017118Y043707D02*
X018325Y043707D01*
X018692Y043707D02*
X018916Y043707D01*
X018865Y043629D02*
X018743Y043629D01*
X018763Y043552D02*
X018845Y043552D01*
X018847Y043475D02*
X018761Y043475D01*
X018729Y043398D02*
X018879Y043398D01*
X018950Y043320D02*
X018658Y043320D01*
X021068Y044942D02*
X026874Y044942D01*
X026874Y045020D02*
X021111Y045020D01*
X021125Y045097D02*
X026874Y045097D01*
X026874Y045174D02*
X021118Y045174D01*
X021085Y045251D02*
X026874Y045251D01*
X026874Y045329D02*
X020996Y045329D01*
X019096Y047800D02*
X018709Y047800D01*
X018750Y047878D02*
X019055Y047878D01*
X019042Y047955D02*
X018763Y047955D01*
X018754Y048032D02*
X019051Y048032D01*
X019086Y048109D02*
X018719Y048109D01*
X018626Y048187D02*
X019179Y048187D01*
X015691Y046410D02*
X012338Y046410D01*
X012424Y046333D02*
X015692Y046333D01*
X015724Y046256D02*
X012457Y046256D01*
X012464Y046178D02*
X015791Y046178D01*
X014314Y048007D02*
X014314Y048109D01*
X012081Y046410D02*
X011748Y046410D01*
X011834Y046333D02*
X011994Y046333D01*
X011962Y046256D02*
X011866Y046256D01*
X011873Y046178D02*
X011955Y046178D01*
X011970Y046101D02*
X011858Y046101D01*
X011814Y046024D02*
X012014Y046024D01*
X010302Y041312D02*
X026874Y041312D01*
X026874Y041235D02*
X010302Y041235D01*
X010278Y041158D02*
X026874Y041158D01*
X026874Y041080D02*
X010223Y041080D01*
X009865Y041080D02*
X009632Y041080D01*
X009688Y041158D02*
X009810Y041158D01*
X009786Y041235D02*
X009712Y041235D01*
X009712Y041312D02*
X009786Y041312D01*
X009816Y041389D02*
X009682Y041389D01*
X009619Y041467D02*
X009879Y041467D01*
X010455Y040462D02*
X007388Y040462D01*
X007388Y040385D02*
X010402Y040385D01*
X010380Y040308D02*
X007388Y040308D01*
X007388Y040231D02*
X010381Y040231D01*
X010413Y040154D02*
X007388Y040154D01*
X007388Y040076D02*
X010481Y040076D01*
X008859Y034438D02*
X007388Y034438D01*
X007388Y034360D02*
X008817Y034360D01*
X008804Y034283D02*
X007388Y034283D01*
X007388Y034206D02*
X008812Y034206D01*
X008846Y034129D02*
X007388Y034129D01*
X007388Y034052D02*
X008936Y034052D01*
X008336Y033202D02*
X010299Y033202D01*
X010282Y033279D02*
X007388Y033279D01*
X007388Y033202D02*
X008012Y033202D01*
X007947Y033125D02*
X007388Y033125D01*
X007388Y033047D02*
X007916Y033047D01*
X007916Y032970D02*
X007388Y032970D01*
X007388Y032893D02*
X007939Y032893D01*
X007992Y032816D02*
X007388Y032816D01*
X007388Y033356D02*
X010287Y033356D01*
X010319Y033434D02*
X007388Y033434D01*
X007388Y033511D02*
X010394Y033511D01*
X010346Y033125D02*
X008401Y033125D01*
X007388Y027023D02*
X012274Y027023D01*
X012188Y026945D02*
X007388Y026945D01*
X007388Y026868D02*
X012156Y026868D01*
X012148Y026791D02*
X007388Y026791D01*
X007388Y026714D02*
X012162Y026714D01*
X012203Y026636D02*
X007388Y026636D01*
X007388Y025169D02*
X007884Y025169D01*
X007776Y025092D02*
X007388Y025092D01*
X007388Y025014D02*
X007734Y025014D01*
X007719Y024937D02*
X007388Y024937D01*
X007388Y024860D02*
X007726Y024860D01*
X007758Y024783D02*
X007388Y024783D01*
X007388Y024088D02*
X021795Y024088D01*
X021827Y024010D02*
X007388Y024010D01*
X007388Y023933D02*
X021895Y023933D01*
X021880Y023547D02*
X021436Y023547D01*
X021496Y023470D02*
X021821Y023470D01*
X021794Y023392D02*
X021523Y023392D01*
X021523Y023315D02*
X021794Y023315D01*
X021820Y023238D02*
X021496Y023238D01*
X021437Y023161D02*
X021880Y023161D01*
X022203Y022774D02*
X024755Y022774D01*
X024685Y022697D02*
X022273Y022697D01*
X022305Y022620D02*
X024653Y022620D01*
X024652Y022543D02*
X022306Y022543D01*
X022286Y022465D02*
X024673Y022465D01*
X024724Y022388D02*
X022234Y022388D01*
X021870Y022388D02*
X007388Y022388D01*
X007388Y022465D02*
X021818Y022465D01*
X021756Y020071D02*
X021363Y020071D01*
X021406Y019994D02*
X021714Y019994D01*
X021699Y019917D02*
X021421Y019917D01*
X021413Y019839D02*
X021707Y019839D01*
X021740Y019762D02*
X021379Y019762D01*
X021291Y019685D02*
X021829Y019685D01*
X021513Y016820D02*
X021410Y016820D01*
X021315Y016781D01*
X021243Y016708D01*
X021203Y016613D01*
X021203Y016511D01*
X021243Y016416D01*
X021315Y016343D01*
X021361Y016324D01*
X021312Y016324D01*
X021219Y016286D01*
X021147Y016214D01*
X021109Y016120D01*
X021109Y016019D01*
X021147Y015926D01*
X021219Y015854D01*
X021312Y015816D01*
X021414Y015816D01*
X021507Y015854D01*
X021579Y015926D01*
X021617Y016019D01*
X021617Y016120D01*
X021579Y016214D01*
X021507Y016286D01*
X021463Y016304D01*
X021513Y016304D01*
X021608Y016343D01*
X021680Y016416D01*
X021720Y016511D01*
X021720Y016613D01*
X021680Y016708D01*
X021608Y016781D01*
X021513Y016820D01*
X021639Y016750D02*
X026874Y016750D01*
X026874Y016827D02*
X018804Y016827D01*
X018804Y016904D02*
X026874Y016904D01*
X026874Y016981D02*
X018804Y016981D01*
X018804Y017059D02*
X026874Y017059D01*
X026874Y017136D02*
X018804Y017136D01*
X018804Y017213D02*
X026874Y017213D01*
X026874Y017290D02*
X018804Y017290D01*
X018804Y017368D02*
X026874Y017368D01*
X026874Y017445D02*
X018804Y017445D01*
X018804Y017522D02*
X026874Y017522D01*
X026874Y017599D02*
X018804Y017599D01*
X018804Y016750D02*
X021284Y016750D01*
X021228Y016672D02*
X018804Y016672D01*
X018804Y016595D02*
X021203Y016595D01*
X021203Y016518D02*
X018804Y016518D01*
X018804Y016441D02*
X021232Y016441D01*
X021295Y016363D02*
X018804Y016363D01*
X018804Y016286D02*
X021221Y016286D01*
X021145Y016209D02*
X018804Y016209D01*
X018804Y016132D02*
X021113Y016132D01*
X021109Y016055D02*
X018804Y016055D01*
X018804Y015977D02*
X021126Y015977D01*
X021173Y015900D02*
X018804Y015900D01*
X018804Y015823D02*
X021295Y015823D01*
X021431Y015823D02*
X026874Y015823D01*
X026874Y015900D02*
X021553Y015900D01*
X021600Y015977D02*
X025913Y015977D01*
X025941Y015949D02*
X026036Y015910D01*
X026139Y015910D01*
X026234Y015949D01*
X026306Y016022D01*
X026346Y016117D01*
X026346Y016220D01*
X026306Y016315D01*
X026234Y016387D01*
X026139Y016426D01*
X026036Y016426D01*
X025941Y016387D01*
X025869Y016315D01*
X025829Y016220D01*
X025829Y016117D01*
X025869Y016022D01*
X025941Y015949D01*
X025855Y016055D02*
X021617Y016055D01*
X021613Y016132D02*
X025829Y016132D01*
X025829Y016209D02*
X021581Y016209D01*
X021505Y016286D02*
X025857Y016286D01*
X025918Y016363D02*
X021628Y016363D01*
X021691Y016441D02*
X026874Y016441D01*
X026874Y016518D02*
X021720Y016518D01*
X021720Y016595D02*
X026874Y016595D01*
X026874Y016672D02*
X021695Y016672D01*
X020722Y014615D02*
X020627Y014655D01*
X020524Y014655D01*
X020429Y014615D01*
X020357Y014543D01*
X020317Y014448D01*
X020317Y014345D01*
X020357Y014250D01*
X020429Y014178D01*
X020524Y014139D01*
X020627Y014139D01*
X020722Y014178D01*
X020794Y014250D01*
X020834Y014345D01*
X020834Y014448D01*
X020794Y014543D01*
X020722Y014615D01*
X020750Y014587D02*
X026874Y014587D01*
X026874Y014664D02*
X018804Y014664D01*
X018804Y014587D02*
X020401Y014587D01*
X020343Y014510D02*
X018804Y014510D01*
X018804Y014432D02*
X020317Y014432D01*
X020317Y014355D02*
X018804Y014355D01*
X018804Y014278D02*
X020345Y014278D01*
X020406Y014201D02*
X018804Y014201D01*
X018804Y014124D02*
X026874Y014124D01*
X026874Y014201D02*
X020745Y014201D01*
X020806Y014278D02*
X026874Y014278D01*
X026874Y014355D02*
X020834Y014355D01*
X020834Y014432D02*
X026874Y014432D01*
X026874Y014510D02*
X020808Y014510D01*
X021620Y013075D02*
X021504Y012958D01*
X021441Y012806D01*
X021441Y012641D01*
X021504Y012489D01*
X021620Y012372D01*
X021773Y012309D01*
X021938Y012309D01*
X022090Y012372D01*
X022206Y012489D01*
X022269Y012641D01*
X022269Y012806D01*
X022206Y012958D01*
X022090Y013075D01*
X021938Y013138D01*
X021773Y013138D01*
X021620Y013075D01*
X021588Y013042D02*
X018804Y013042D01*
X018804Y012965D02*
X021511Y012965D01*
X021475Y012888D02*
X018804Y012888D01*
X018804Y012810D02*
X021443Y012810D01*
X021441Y012733D02*
X018804Y012733D01*
X018804Y012656D02*
X021441Y012656D01*
X021467Y012579D02*
X018804Y012579D01*
X018804Y012501D02*
X021499Y012501D01*
X021568Y012424D02*
X018804Y012424D01*
X018804Y012347D02*
X021681Y012347D01*
X021805Y012092D02*
X021711Y012053D01*
X021639Y011982D01*
X021601Y011888D01*
X021601Y011787D01*
X021639Y011694D01*
X021711Y011622D01*
X021805Y011583D01*
X021906Y011583D01*
X021999Y011622D01*
X022071Y011694D01*
X022109Y011787D01*
X022109Y011888D01*
X022071Y011982D01*
X021999Y012053D01*
X021906Y012092D01*
X021805Y012092D01*
X021696Y012038D02*
X021129Y012038D01*
X021113Y012053D02*
X021020Y012092D01*
X020919Y012092D01*
X020825Y012053D01*
X020754Y011982D01*
X020715Y011888D01*
X020715Y011787D01*
X020754Y011694D01*
X020825Y011622D01*
X020919Y011583D01*
X021020Y011583D01*
X021113Y011622D01*
X021185Y011694D01*
X021224Y011787D01*
X021224Y011888D01*
X021185Y011982D01*
X021113Y012053D01*
X021194Y011961D02*
X021631Y011961D01*
X021601Y011884D02*
X021224Y011884D01*
X021224Y011806D02*
X021601Y011806D01*
X021625Y011729D02*
X021200Y011729D01*
X021143Y011652D02*
X021681Y011652D01*
X022029Y011652D02*
X026874Y011652D01*
X026874Y011729D02*
X022085Y011729D01*
X022109Y011806D02*
X026874Y011806D01*
X026874Y011884D02*
X022109Y011884D01*
X022079Y011961D02*
X026874Y011961D01*
X026874Y012038D02*
X022014Y012038D01*
X022029Y012347D02*
X026874Y012347D01*
X026874Y012424D02*
X026350Y012424D01*
X026332Y012406D02*
X026405Y012479D01*
X026444Y012574D01*
X026444Y012676D01*
X026405Y012771D01*
X026332Y012844D01*
X026237Y012883D01*
X026134Y012883D01*
X026040Y012844D01*
X025967Y012771D01*
X025928Y012676D01*
X025928Y012574D01*
X025967Y012479D01*
X026040Y012406D01*
X026134Y012367D01*
X026237Y012367D01*
X026332Y012406D01*
X026414Y012501D02*
X026874Y012501D01*
X026874Y012579D02*
X026444Y012579D01*
X026444Y012656D02*
X026874Y012656D01*
X026874Y012733D02*
X026420Y012733D01*
X026365Y012810D02*
X026874Y012810D01*
X026874Y012888D02*
X022236Y012888D01*
X022268Y012810D02*
X026006Y012810D01*
X025951Y012733D02*
X022269Y012733D01*
X022269Y012656D02*
X025928Y012656D01*
X025928Y012579D02*
X022244Y012579D01*
X022212Y012501D02*
X025958Y012501D01*
X026022Y012424D02*
X022142Y012424D01*
X022200Y012965D02*
X026874Y012965D01*
X026874Y013042D02*
X022122Y013042D01*
X021982Y013119D02*
X026874Y013119D01*
X026874Y013197D02*
X018804Y013197D01*
X018804Y013274D02*
X026874Y013274D01*
X026874Y013351D02*
X018804Y013351D01*
X018804Y013428D02*
X026874Y013428D01*
X026874Y013506D02*
X018804Y013506D01*
X018804Y013583D02*
X026874Y013583D01*
X026874Y013660D02*
X018804Y013660D01*
X018804Y013737D02*
X026874Y013737D01*
X026874Y013815D02*
X018804Y013815D01*
X018804Y013892D02*
X026874Y013892D01*
X026874Y013969D02*
X018804Y013969D01*
X018804Y014046D02*
X026874Y014046D01*
X026874Y014741D02*
X018804Y014741D01*
X018804Y014819D02*
X026874Y014819D01*
X026874Y014896D02*
X018804Y014896D01*
X018804Y014973D02*
X026874Y014973D01*
X026874Y015050D02*
X018804Y015050D01*
X018804Y015128D02*
X026874Y015128D01*
X026874Y015205D02*
X018804Y015205D01*
X018804Y015282D02*
X026874Y015282D01*
X026874Y015359D02*
X018804Y015359D01*
X018804Y015437D02*
X026874Y015437D01*
X026874Y015514D02*
X018804Y015514D01*
X018804Y015591D02*
X026874Y015591D01*
X026874Y015668D02*
X018804Y015668D01*
X018804Y015746D02*
X026874Y015746D01*
X026874Y015977D02*
X026261Y015977D01*
X026320Y016055D02*
X026874Y016055D01*
X026874Y016132D02*
X026346Y016132D01*
X026346Y016209D02*
X026874Y016209D01*
X026874Y016286D02*
X026318Y016286D01*
X026257Y016363D02*
X026874Y016363D01*
X026874Y012270D02*
X018804Y012270D01*
X018804Y012192D02*
X026874Y012192D01*
X026874Y012115D02*
X018804Y012115D01*
X018804Y012038D02*
X020810Y012038D01*
X020745Y011961D02*
X018804Y011961D01*
X018804Y011884D02*
X020715Y011884D01*
X020715Y011806D02*
X018804Y011806D01*
X018804Y011729D02*
X020739Y011729D01*
X020795Y011652D02*
X018804Y011652D01*
X018804Y011575D02*
X026874Y011575D01*
X026874Y011497D02*
X018804Y011497D01*
X018804Y011420D02*
X026874Y011420D01*
X026874Y011343D02*
X018804Y011343D01*
X018804Y011266D02*
X026874Y011266D01*
X026874Y011188D02*
X018804Y011188D01*
X018804Y013119D02*
X021728Y013119D01*
X011500Y025092D02*
X008179Y025092D01*
X008070Y025169D02*
X011407Y025169D01*
X014295Y029108D02*
X014224Y029179D01*
M02*
